<svg width="806" height="126" viewBox="0 0 806 126" fill="none" xmlns="http://www.w3.org/2000/svg">
<path d="M5.348 29.824L0.616 11.008H3.108L6.664 25.932H6.748L11.004 11.008H13.02L17.22 25.932H17.304L20.832 11.008H23.072L18.396 29.824H16.016L11.984 15.18H11.9L7.7 29.824H5.348ZM24.071 29.824L30.931 11.008H33.311L40.115 29.824H37.539L35.635 24.532H28.299L26.423 29.824H24.071ZM31.883 14.312L29.027 22.432H34.879L31.967 14.312H31.883ZM51.5848 28.704C50.5394 29.6747 48.9528 30.16 46.8248 30.16C44.6968 30.16 42.8954 29.7493 41.4208 28.928V26.828C43.0074 27.6493 44.7621 28.06 46.6848 28.06C49.3168 28.06 50.6328 26.9773 50.6328 24.812C50.6328 23.9533 50.4181 23.2907 49.9888 22.824C49.5594 22.3573 48.7848 21.928 47.6647 21.536L45.7048 20.892C44.3608 20.444 43.3434 19.828 42.6528 19.044C41.9808 18.2413 41.6448 17.1493 41.6448 15.768C41.6448 14.2373 42.1581 13.0147 43.1848 12.1C44.2114 11.1667 45.6861 10.7 47.6088 10.7C49.3261 10.7 50.8568 11.0453 52.2008 11.736V13.808C50.7074 13.136 49.1488 12.8 47.5248 12.8C46.4421 12.8 45.6021 13.0427 45.0048 13.528C44.4261 13.9947 44.1368 14.6667 44.1368 15.544C44.1368 16.4027 44.3141 17.056 44.6688 17.504C45.0421 17.952 45.7234 18.344 46.7128 18.68L48.6448 19.324C50.1568 19.8093 51.2861 20.444 52.0328 21.228C52.7794 22.012 53.1528 23.1413 53.1528 24.616C53.1528 26.352 52.6301 27.7147 51.5848 28.704ZM56.6007 29.824V11.008H59.0647V19.044H68.1087V11.008H70.5727V29.824H68.1087V21.116H59.0647V29.824H56.6007ZM82.3071 30.132C79.7311 30.132 77.7151 29.3387 76.2591 27.752C74.8031 26.1467 74.0751 23.7853 74.0751 20.668V20.024C74.0751 18.3813 74.2991 16.9533 74.7471 15.74C75.1951 14.508 75.8204 13.5373 76.6231 12.828C77.4258 12.1 78.3311 11.568 79.3391 11.232C80.3658 10.8773 81.4951 10.7 82.7271 10.7C84.5751 10.7 86.1151 11.0453 87.3471 11.736V13.78C85.6111 13.1267 84.0058 12.8 82.5311 12.8C80.7578 12.8 79.3484 13.36 78.3031 14.48C77.2578 15.5813 76.7351 17.2987 76.7351 19.632V20.64C76.7351 25.568 78.7138 28.032 82.6711 28.032C84.2204 28.032 85.8538 27.6307 87.5711 26.828V28.928C86.1711 29.7307 84.4164 30.132 82.3071 30.132ZM97.6951 30.16C95.4177 30.16 93.6817 29.5907 92.4871 28.452C91.2924 27.2947 90.6951 25.568 90.6951 23.272V11.008H93.1591V23.132C93.1591 25.0173 93.5324 26.3333 94.2791 27.08C95.0444 27.8267 96.2204 28.2 97.8071 28.2C99.3564 28.2 100.476 27.836 101.167 27.108C101.876 26.3613 102.231 25.0267 102.231 23.104V11.008H104.499V23.216C104.499 25.6053 103.939 27.36 102.819 28.48C101.699 29.6 99.9911 30.16 97.6951 30.16ZM108.991 29.824V11.008H114.815C118.903 11.008 120.947 12.5947 120.947 15.768C120.947 17.8213 119.921 19.1747 117.867 19.828V19.94C120.443 20.4253 121.731 21.9373 121.731 24.476C121.731 26.0813 121.181 27.3787 120.079 28.368C118.978 29.3387 117.382 29.824 115.291 29.824H108.991ZM111.455 27.752H115.151C117.821 27.752 119.155 26.6227 119.155 24.364C119.155 23.2067 118.801 22.376 118.091 21.872C117.401 21.3493 116.365 21.088 114.983 21.088H111.455V27.752ZM111.455 19.1H114.395C117.046 19.1 118.371 18.1013 118.371 16.104C118.371 14.984 118.063 14.2093 117.447 13.78C116.85 13.3507 115.907 13.136 114.619 13.136H111.455V19.1ZM125.234 29.824V11.008H136.434V13.136H127.698V19.072H134.446V21.144H127.698V27.724H136.518V29.824H125.234Z" fill="black"/>
<path d="M188.64 24.28H183.26V28.94H190.54V30.02H174.76V28.94H181.98V24.28H176.8V16.5H178.08V23.2H188.64V24.28ZM207.845 29.98H192.065V28.9H207.845V29.98ZM205.745 25.16H194.165V16.6H195.445V19.76H204.465V16.6H205.745V25.16ZM204.465 24.06V20.84H195.445V24.06H204.465ZM222.309 22.94H218.909V21.84H222.309V14.92H223.589V32.4H222.309V22.94ZM219.309 27.58C217.016 27.9667 213.936 28.16 210.069 28.16V21.48H216.509V17.66H210.069V16.56H217.789V22.58H211.349V27.04C214.376 27.04 216.976 26.8467 219.149 26.46L219.309 27.58ZM240.894 32.4H239.614V14.92H240.894V32.4ZM233.034 31.72H231.754V25.2C230.647 25.24 228.987 25.2867 226.774 25.34L226.574 24.18C228.401 24.18 230.367 24.1467 232.474 24.08C235.007 23.9867 236.941 23.86 238.274 23.7L238.394 24.72C237.407 24.84 235.621 24.98 233.034 25.14V31.72ZM237.214 21.04L236.534 22.04C235.681 21.7733 234.814 21.2933 233.934 20.6C233.067 19.9067 232.501 19.24 232.234 18.6C232.021 19.3067 231.487 20.04 230.634 20.8C229.781 21.5467 228.861 22.1 227.874 22.46L227.194 21.52C228.274 21.2267 229.274 20.6267 230.194 19.72C231.127 18.8 231.594 17.7267 231.594 16.5V15.78H232.834V16.48C232.834 17.1067 232.987 17.7 233.294 18.26C233.601 18.82 233.994 19.2867 234.474 19.66C234.954 20.02 235.427 20.3133 235.894 20.54C236.361 20.7667 236.801 20.9333 237.214 21.04ZM263.933 24.2H262.653V14.92H263.933V24.2ZM260.653 24.02H259.393V19.7H256.573V18.6H259.393V15.24H260.653V24.02ZM264.613 32.28H252.593V28.08H262.653V26.24H252.513V25.16H263.933V29.1H253.873V31.18H264.613V32.28ZM258.073 22.46L257.273 23.44C256.553 23.04 255.846 22.4933 255.153 21.8C254.459 21.1067 253.993 20.4267 253.753 19.76C253.513 20.5467 253.073 21.32 252.433 22.08C251.806 22.84 251.033 23.46 250.113 23.94L249.273 22.98C250.406 22.46 251.319 21.7133 252.013 20.74C252.719 19.7533 253.073 18.64 253.073 17.4V15.74H254.333V17.38C254.333 18.5667 254.693 19.5867 255.413 20.44C256.146 21.2933 257.033 21.9667 258.073 22.46ZM280.677 25.24H268.097V24.16H270.937L270.457 19.04L271.817 18.84L272.177 24.16H276.597L277.197 18.86L278.457 19.08L277.817 24.16H280.677V25.24ZM282.317 30.16H266.537V29.06H282.317V30.16ZM280.677 17.96H268.097V16.86H280.677V17.96ZM298.562 32.4H297.282V14.92H298.562V32.4ZM295.102 31.48H293.842V22.42H290.742V21.34H293.842V15.36H295.102V31.48ZM292.642 26.98L291.742 27.9C290.982 27.3267 290.255 26.56 289.562 25.6C288.882 24.6267 288.409 23.6467 288.142 22.66C287.969 23.66 287.522 24.6933 286.802 25.76C286.095 26.8267 285.289 27.7 284.382 28.38L283.502 27.44C284.542 26.7867 285.462 25.7533 286.262 24.34C287.075 22.9267 287.482 21.4333 287.482 19.86V16.72H288.762V19.84C288.762 21.4267 289.135 22.8333 289.882 24.06C290.642 25.2867 291.562 26.26 292.642 26.98ZM311.207 27.74L310.427 28.76C309.52 28.2933 308.647 27.6133 307.807 26.72C306.98 25.8267 306.407 24.9133 306.087 23.98C305.833 24.9133 305.273 25.8867 304.407 26.9C303.553 27.9133 302.673 28.68 301.767 29.2L300.867 28.28C301.973 27.7733 303.007 26.8733 303.967 25.58C304.94 24.2733 305.427 22.9 305.427 21.46V20.32H301.527V19.22H310.867V20.32H306.727V21.44C306.727 22.8533 307.213 24.1733 308.187 25.4C309.173 26.6267 310.18 27.4067 311.207 27.74ZM317.447 23.42H314.507V32.4H313.227V14.92H314.507V22.34H317.447V23.42ZM308.787 17.34H303.547V16.2H308.787V17.34ZM332.071 29.1C332.071 30.1133 331.551 30.9133 330.511 31.5C329.471 32.0867 328.045 32.38 326.231 32.38C324.418 32.38 322.991 32.0867 321.951 31.5C320.925 30.9267 320.411 30.1267 320.411 29.1C320.411 28.0733 320.925 27.2667 321.951 26.68C322.991 26.0933 324.418 25.8 326.231 25.8C328.045 25.8 329.471 26.0933 330.511 26.68C331.551 27.2667 332.071 28.0733 332.071 29.1ZM326.231 26.9C324.845 26.9 323.745 27.0933 322.931 27.48C322.131 27.8533 321.731 28.3933 321.731 29.1C321.731 29.7933 322.131 30.3333 322.931 30.72C323.745 31.0933 324.845 31.28 326.231 31.28C327.631 31.28 328.731 31.0933 329.531 30.72C330.345 30.3333 330.751 29.7933 330.751 29.1C330.751 28.3933 330.345 27.8533 329.531 27.48C328.731 27.0933 327.631 26.9 326.231 26.9ZM318.711 17.36V16.28H327.851V17.36H323.931V18.34C323.931 19.4467 324.358 20.4867 325.211 21.46C326.078 22.42 327.071 23.0867 328.191 23.46L327.491 24.52C326.598 24.16 325.758 23.6067 324.971 22.86C324.185 22.1 323.611 21.32 323.251 20.52C323.038 21.32 322.491 22.1533 321.611 23.02C320.745 23.8733 319.818 24.5267 318.831 24.98L318.111 24C319.285 23.5333 320.331 22.76 321.251 21.68C322.185 20.5867 322.651 19.4733 322.651 18.34V17.36H318.711ZM334.591 21.06H331.831V25.56H330.551V14.92H331.831V19.96H334.591V21.06ZM351.536 29.96H335.756V28.88H351.536V29.96ZM349.856 20.82C349.856 22.14 349.283 23.1933 348.136 23.98C347.003 24.7667 345.496 25.16 343.616 25.16C341.736 25.16 340.229 24.7667 339.096 23.98C337.976 23.1933 337.416 22.14 337.416 20.82C337.416 19.5133 337.983 18.4667 339.116 17.68C340.249 16.88 341.749 16.48 343.616 16.48C345.496 16.48 347.003 16.88 348.136 17.68C349.283 18.4667 349.856 19.5133 349.856 20.82ZM348.596 20.82C348.596 19.86 348.143 19.0867 347.236 18.5C346.329 17.9133 345.123 17.62 343.616 17.62C342.123 17.62 340.923 17.9133 340.016 18.5C339.123 19.0867 338.676 19.86 338.676 20.82C338.676 21.7667 339.129 22.5333 340.036 23.12C340.943 23.7067 342.136 24 343.616 24C345.109 24 346.309 23.7067 347.216 23.12C348.136 22.5333 348.596 21.7667 348.596 20.82ZM368.841 30.16H353.061V29.06H360.281V25.82H355.161V20.42H365.461V17.46H355.161V16.38H366.741V21.5H356.441V24.74H367.201V25.82H361.561V29.06H368.841V30.16ZM376.639 30.16V16.74H377.939V30.16H376.639ZM384.523 30.16V17.84H380.283V16.74H390.063V17.84H385.823V30.16H384.523ZM405.601 32.4H404.321V14.92H405.601V32.4ZM400.381 16.82C400.328 19.5267 399.561 21.8867 398.081 23.9C396.614 25.9 394.701 27.5333 392.341 28.8L391.561 27.78C393.774 26.6733 395.521 25.26 396.801 23.54C398.094 21.82 398.821 19.9467 398.981 17.92H392.301V16.82H400.381ZM423.026 32.16H410.726V28.32H421.106V26.66H410.586V25.56H415.906V23.6H408.686V22.52H424.466V23.6H417.186V25.56H422.386V29.38H412.006V31.08H423.026V32.16ZM423.546 20.2L422.926 21.24C421.446 20.9333 420.112 20.4133 418.926 19.68C417.752 18.9333 416.966 18.1533 416.566 17.34C416.272 18.1667 415.539 18.9533 414.366 19.7C413.192 20.4467 411.832 20.9667 410.286 21.26L409.666 20.22C410.666 20.1133 411.639 19.86 412.586 19.46C413.532 19.0467 414.326 18.5067 414.966 17.84C415.606 17.1733 415.926 16.46 415.926 15.7V15.14H417.246V15.7C417.246 16.46 417.592 17.18 418.286 17.86C418.979 18.5267 419.792 19.06 420.726 19.46C421.672 19.8467 422.612 20.0933 423.546 20.2ZM441.77 23.7H425.99V22.66H441.77V23.7ZM440.31 32.1H427.95V28.24H438.35V26.48H427.89V25.4H439.63V29.26H429.23V31.04H440.31V32.1ZM439.83 18.38C439.83 19.38 439.31 20.1267 438.27 20.62C437.23 21.1133 435.77 21.36 433.89 21.36C432.037 21.36 430.584 21.1133 429.53 20.62C428.49 20.1133 427.97 19.3667 427.97 18.38C427.97 17.3933 428.49 16.6533 429.53 16.16C430.584 15.6533 432.037 15.4 433.89 15.4C435.77 15.4 437.23 15.6533 438.27 16.16C439.31 16.6533 439.83 17.3933 439.83 18.38ZM437.29 16.94C436.45 16.6067 435.317 16.44 433.89 16.44C432.464 16.44 431.337 16.6067 430.51 16.94C429.697 17.2733 429.29 17.7533 429.29 18.38C429.29 19.0067 429.697 19.4867 430.51 19.82C431.337 20.14 432.464 20.3 433.89 20.3C435.317 20.3 436.45 20.14 437.29 19.82C438.13 19.4867 438.55 19.0067 438.55 18.38C438.55 17.7533 438.13 17.2733 437.29 16.94ZM462.809 32.16H451.769V25.24H453.049V27.64H461.529V25.18H462.809V32.16ZM449.149 17.22V16.12H458.329V17.22H454.369V18C454.369 19.1067 454.802 20.1467 455.669 21.12C456.536 22.08 457.529 22.7467 458.649 23.12L457.949 24.16C457.056 23.8 456.209 23.2467 455.409 22.5C454.609 21.7533 454.036 20.98 453.689 20.18C453.476 20.98 452.929 21.8133 452.049 22.68C451.182 23.5333 450.256 24.18 449.269 24.62L448.549 23.66C449.722 23.1933 450.769 22.4133 451.689 21.32C452.622 20.2267 453.089 19.1133 453.089 17.98V17.22H449.149ZM461.529 31.1V28.68H453.049V31.1H461.529ZM461.509 20.26H458.109V19.18H461.509V14.92H462.789V24.26H461.509V20.26ZM481.634 24.94H465.854V23.86H473.074V21.6H467.974V15.76H479.534V21.6H474.354V23.86H481.634V24.94ZM478.254 20.5V16.84H469.254V20.5H478.254ZM467.634 26.92H479.614V32.54H478.334V28H467.634V26.92ZM499.438 23.46H496.518V32.4H495.238V14.92H496.518V22.36H499.438V23.46ZM490.678 17.34H485.618V16.2H490.678V17.34ZM493.318 20.24H483.098V19.16H493.318V20.24ZM492.378 25.08C492.378 26.0933 492.005 26.94 491.258 27.62C490.512 28.2867 489.545 28.62 488.358 28.62C487.172 28.62 486.198 28.2867 485.438 27.62C484.692 26.94 484.318 26.0933 484.318 25.08C484.318 24.0533 484.692 23.2 485.438 22.52C486.185 21.84 487.158 21.5 488.358 21.5C489.545 21.5 490.512 21.84 491.258 22.52C492.005 23.2 492.378 24.0533 492.378 25.08ZM490.318 26.86C490.838 26.3933 491.098 25.8 491.098 25.08C491.098 24.36 490.838 23.7667 490.318 23.3C489.798 22.8333 489.145 22.6 488.358 22.6C487.572 22.6 486.918 22.8333 486.398 23.3C485.878 23.7667 485.618 24.36 485.618 25.08C485.618 25.8 485.878 26.3933 486.398 26.86C486.918 27.3267 487.572 27.56 488.358 27.56C489.145 27.56 489.798 27.3267 490.318 26.86ZM513.403 20H509.983V18.94H513.403V14.92H514.683V32.4H513.403V25.62H509.983V24.56H513.403V20ZM500.683 22.42C500.683 20.54 501.056 19.0533 501.803 17.96C502.55 16.8667 503.596 16.32 504.943 16.32C506.303 16.32 507.356 16.8733 508.103 17.98C508.85 19.0733 509.223 20.56 509.223 22.44C509.223 24.32 508.843 25.8133 508.083 26.92C507.336 28.0133 506.29 28.56 504.943 28.56C503.596 28.56 502.55 28.0133 501.803 26.92C501.056 25.8133 500.683 24.3133 500.683 22.42ZM507.983 22.44C507.983 20.9733 507.703 19.7733 507.143 18.84C506.583 17.9067 505.85 17.44 504.943 17.44C504.036 17.44 503.31 17.9067 502.763 18.84C502.216 19.76 501.943 20.96 501.943 22.44C501.943 23.9067 502.216 25.1067 502.763 26.04C503.31 26.96 504.036 27.42 504.943 27.42C505.85 27.42 506.583 26.9533 507.143 26.02C507.703 25.0867 507.983 23.8933 507.983 22.44ZM537.262 27.62H535.982V14.92H537.262V27.62ZM537.722 31.78H525.922V26.46H527.202V30.7H537.722V31.78ZM524.782 17.32C525.662 16.5333 526.728 16.14 527.982 16.14C529.235 16.14 530.295 16.5267 531.162 17.3C532.042 18.0733 532.482 19.08 532.482 20.32C532.482 21.5733 532.042 22.5933 531.162 23.38C530.295 24.1533 529.235 24.54 527.982 24.54C526.728 24.54 525.662 24.1533 524.782 23.38C523.902 22.6067 523.462 21.6 523.462 20.36C523.462 19.1067 523.902 18.0933 524.782 17.32ZM527.982 17.28C527.062 17.28 526.295 17.5667 525.682 18.14C525.082 18.7 524.782 19.4267 524.782 20.32C524.782 21.2267 525.088 21.9733 525.702 22.56C526.315 23.1333 527.075 23.42 527.982 23.42C528.942 23.42 529.715 23.14 530.302 22.58C530.888 22.02 531.182 21.28 531.182 20.36C531.182 19.44 530.888 18.7 530.302 18.14C529.715 17.5667 528.942 17.28 527.982 17.28ZM548.406 21.42V22.46H542.406V26.98C545.593 27.02 548.24 26.8267 550.346 26.4L550.506 27.5C548.16 27.9133 545.033 28.12 541.126 28.12V16.62H549.106V17.7H542.406V21.42H548.406ZM554.546 32.4H553.266V22.84H549.426V21.74H553.266V14.92H554.546V32.4ZM566.071 23.62C564.178 24.0333 561.698 24.24 558.631 24.24V16.38H559.911V23.1C560.831 23.1 561.891 23.0467 563.091 22.94C564.291 22.82 565.204 22.68 565.831 22.52L566.071 23.62ZM572.331 26.76H571.051V14.92H572.331V26.76ZM569.051 25.16H567.791V19.98H563.751V18.9H567.791V15.3H569.051V25.16ZM573.271 31.54L572.511 32.64C571.431 32.4133 570.264 31.8733 569.011 31.02C567.771 30.18 566.938 29.2667 566.511 28.28C566.164 29.24 565.404 30.1267 564.231 30.94C563.058 31.74 561.818 32.2867 560.511 32.58L559.751 31.52C560.658 31.3867 561.571 31.0867 562.491 30.62C563.424 30.14 564.218 29.5267 564.871 28.78C565.538 28.02 565.871 27.2467 565.871 26.46V25.8H567.231V26.46C567.231 27.6333 567.884 28.72 569.191 29.72C570.511 30.7067 571.871 31.3133 573.271 31.54ZM590.716 23.7H574.936V22.66H590.716V23.7ZM589.256 32.1H576.896V28.24H587.296V26.48H576.836V25.4H588.576V29.26H578.176V31.04H589.256V32.1ZM588.776 18.38C588.776 19.38 588.256 20.1267 587.216 20.62C586.176 21.1133 584.716 21.36 582.836 21.36C580.982 21.36 579.529 21.1133 578.476 20.62C577.436 20.1133 576.916 19.3667 576.916 18.38C576.916 17.3933 577.436 16.6533 578.476 16.16C579.529 15.6533 580.982 15.4 582.836 15.4C584.716 15.4 586.176 15.6533 587.216 16.16C588.256 16.6533 588.776 17.3933 588.776 18.38ZM586.236 16.94C585.396 16.6067 584.262 16.44 582.836 16.44C581.409 16.44 580.282 16.6067 579.456 16.94C578.642 17.2733 578.236 17.7533 578.236 18.38C578.236 19.0067 578.642 19.4867 579.456 19.82C580.282 20.14 581.409 20.3 582.836 20.3C584.262 20.3 585.396 20.14 586.236 19.82C587.076 19.4867 587.496 19.0067 587.496 18.38C587.496 17.7533 587.076 17.2733 586.236 16.94ZM611.194 22.42H606.014V24.32H613.274V25.42H597.494V24.32H604.734V22.42H599.614V15.88H611.074V16.98H600.894V18.56H610.534V19.58H600.894V21.34H611.194V22.42ZM611.374 29.38C611.374 30.3533 610.854 31.1 609.814 31.62C608.774 32.14 607.294 32.4 605.374 32.4C603.468 32.4 601.994 32.1333 600.954 31.6C599.914 31.08 599.394 30.34 599.394 29.38C599.394 28.4333 599.914 27.6933 600.954 27.16C602.008 26.6267 603.481 26.36 605.374 26.36C607.308 26.36 608.788 26.62 609.814 27.14C610.854 27.6467 611.374 28.3933 611.374 29.38ZM605.374 27.44C603.934 27.44 602.794 27.6133 601.954 27.96C601.128 28.3067 600.714 28.78 600.714 29.38C600.714 29.9933 601.128 30.4733 601.954 30.82C602.781 31.1533 603.921 31.32 605.374 31.32C606.841 31.32 607.988 31.1533 608.814 30.82C609.641 30.4733 610.054 29.9933 610.054 29.38C610.054 28.78 609.634 28.3067 608.794 27.96C607.968 27.6133 606.828 27.44 605.374 27.44ZM630.879 22.14H628.159V27.7H626.879V14.92H628.159V21.06H630.879V22.14ZM628.919 31.78H617.339V27.4H618.619V30.7H628.919V31.78ZM622.219 16.84H617.239V15.74H622.219V16.84ZM624.759 19.38H614.739V18.28H624.759V19.38ZM623.739 23.38C623.739 24.2867 623.359 25.02 622.599 25.58C621.852 26.14 620.899 26.42 619.739 26.42C618.579 26.42 617.619 26.1467 616.859 25.6C616.112 25.04 615.739 24.3 615.739 23.38C615.739 22.4467 616.112 21.7133 616.859 21.18C617.606 20.6333 618.566 20.36 619.739 20.36C620.912 20.36 621.872 20.6333 622.619 21.18C623.366 21.7133 623.739 22.4467 623.739 23.38ZM622.479 23.38C622.479 22.78 622.212 22.3067 621.679 21.96C621.146 21.6133 620.499 21.44 619.739 21.44C618.966 21.44 618.312 21.6133 617.779 21.96C617.259 22.3067 616.999 22.78 616.999 23.38C616.999 23.9667 617.259 24.44 617.779 24.8C618.312 25.1467 618.966 25.32 619.739 25.32C620.499 25.32 621.146 25.1467 621.679 24.8C622.212 24.44 622.479 23.9667 622.479 23.38ZM651.038 22.8H639.478V16.02H651.038V22.8ZM649.758 21.72V17.1H640.758V21.72H649.758ZM645.858 32.42H644.578V26.36H637.358V25.26H653.138V26.36H645.858V32.42ZM668.902 27.62H667.622V14.92H668.902V27.62ZM669.362 31.78H657.562V26.46H658.842V30.7H669.362V31.78ZM656.422 17.32C657.302 16.5333 658.369 16.14 659.622 16.14C660.876 16.14 661.936 16.5267 662.802 17.3C663.682 18.0733 664.122 19.08 664.122 20.32C664.122 21.5733 663.682 22.5933 662.802 23.38C661.936 24.1533 660.876 24.54 659.622 24.54C658.369 24.54 657.302 24.1533 656.422 23.38C655.542 22.6067 655.102 21.6 655.102 20.36C655.102 19.1067 655.542 18.0933 656.422 17.32ZM659.622 17.28C658.702 17.28 657.936 17.5667 657.322 18.14C656.722 18.7 656.422 19.4267 656.422 20.32C656.422 21.2267 656.729 21.9733 657.342 22.56C657.956 23.1333 658.716 23.42 659.622 23.42C660.582 23.42 661.356 23.14 661.942 22.58C662.529 22.02 662.822 21.28 662.822 20.36C662.822 19.44 662.529 18.7 661.942 18.14C661.356 17.5667 660.582 17.28 659.622 17.28ZM688.047 21.74H685.327V28.08H684.047V14.92H685.327V20.66H688.047V21.74ZM686.087 31.98H674.487V26.92H675.747V30.88H686.087V31.98ZM682.867 24.7C681.12 24.9667 679.227 25.14 677.187 25.22C675.547 25.3133 673.807 25.36 671.967 25.36L671.727 24.2C673.5 24.2 674.807 24.1867 675.647 24.16V20.2H676.927V24.12C679.447 24.0267 681.374 23.8667 682.707 23.64L682.867 24.7ZM681.447 16.32C681.447 18.9333 681.26 20.9333 680.887 22.32L679.647 22.12C679.967 20.96 680.127 19.3867 680.127 17.4H672.887V16.32H681.447ZM700.532 27.56C697.798 27.9467 694.392 28.14 690.312 28.14V21.58H696.992V17.66H690.232V16.56H698.272V22.66H691.592V27.04C695.218 27.0667 698.145 26.8667 700.372 26.44L700.532 27.56ZM703.492 32.4H702.212V14.92H703.492V32.4ZM726.15 32.4H724.87V14.92H726.15V32.4ZM722.39 27.1L721.55 28.12C720.63 27.48 719.737 26.66 718.87 25.66C718.004 24.6467 717.404 23.6267 717.07 22.6C716.764 23.68 716.21 24.74 715.41 25.78C714.624 26.8067 713.684 27.74 712.59 28.58L711.71 27.58C712.99 26.7933 714.09 25.6733 715.01 24.22C715.944 22.7667 716.41 21.3133 716.41 19.86V16.56H717.73V19.84C717.73 21.32 718.19 22.7267 719.11 24.06C720.03 25.38 721.124 26.3933 722.39 27.1ZM744.235 23.96L743.515 25C742.035 24.52 740.662 23.76 739.395 22.72C738.128 21.6667 737.328 20.7067 736.995 19.84C736.715 20.72 735.955 21.68 734.715 22.72C733.475 23.76 732.082 24.5067 730.535 24.96L729.835 23.92C730.808 23.72 731.788 23.3133 732.775 22.7C733.775 22.0867 734.622 21.3267 735.315 20.42C736.008 19.5133 736.355 18.62 736.355 17.74V16.5H737.675V17.74C737.675 19.0333 738.395 20.3067 739.835 21.56C741.275 22.8 742.742 23.6 744.235 23.96ZM744.915 29.96H729.135V28.88H744.915V29.96ZM761.16 32.14H749.8V26.08H761.16V32.14ZM759.88 31.06V27.16H751.08V31.06H759.88ZM753 19.52V20.56H748.62V23.16C751.02 23.2 753.06 23.04 754.74 22.68L754.92 23.8C752.666 24.2133 750.14 24.38 747.34 24.3V16.14H753.84V17.24H748.62V19.52H753ZM756.6 20.3H753.98V19.22H756.6V15.24H757.86V24.94H756.6V20.3ZM761.14 25.14H759.86V14.92H761.14V25.14ZM779.524 29.96H763.744V28.88H779.524V29.96ZM777.844 20.82C777.844 22.14 777.271 23.1933 776.124 23.98C774.991 24.7667 773.484 25.16 771.604 25.16C769.724 25.16 768.218 24.7667 767.084 23.98C765.964 23.1933 765.404 22.14 765.404 20.82C765.404 19.5133 765.971 18.4667 767.104 17.68C768.238 16.88 769.738 16.48 771.604 16.48C773.484 16.48 774.991 16.88 776.124 17.68C777.271 18.4667 777.844 19.5133 777.844 20.82ZM776.584 20.82C776.584 19.86 776.131 19.0867 775.224 18.5C774.318 17.9133 773.111 17.62 771.604 17.62C770.111 17.62 768.911 17.9133 768.004 18.5C767.111 19.0867 766.664 19.86 766.664 20.82C766.664 21.7667 767.118 22.5333 768.024 23.12C768.931 23.7067 770.124 24 771.604 24C773.098 24 774.298 23.7067 775.204 23.12C776.124 22.5333 776.584 21.7667 776.584 20.82ZM796.829 30.16H781.049V29.06H788.269V25.82H783.149V20.42H793.449V17.46H783.149V16.38H794.729V21.5H784.429V24.74H795.189V25.82H789.549V29.06H796.829V30.16ZM184.8 62.98C182.227 63.3133 179.013 63.48 175.16 63.48L174.96 62.3H177.26L176.72 56.78L178 56.6L178.42 62.28L181.08 62.22L181.6 56.56L182.88 56.72L182.26 62.18C183.26 62.1133 184.067 62.0333 184.68 61.94L184.8 62.98ZM184.6 57.42V56.32H187.72V52.92H189V65.62H187.72V60.94H184.6V59.84H187.72V57.42H184.6ZM189.36 69.78H177.82V64.62H179.1V68.7H189.36V69.78ZM184.46 55.56H175.4V54.48H184.46V55.56ZM208.345 61.46H205.425V70.4H204.145V52.92H205.425V60.36H208.345V61.46ZM199.585 55.34H194.525V54.2H199.585V55.34ZM202.225 58.24H192.005V57.16H202.225V58.24ZM201.285 63.08C201.285 64.0933 200.911 64.94 200.165 65.62C199.418 66.2867 198.451 66.62 197.265 66.62C196.078 66.62 195.105 66.2867 194.345 65.62C193.598 64.94 193.225 64.0933 193.225 63.08C193.225 62.0533 193.598 61.2 194.345 60.52C195.091 59.84 196.065 59.5 197.265 59.5C198.451 59.5 199.418 59.84 200.165 60.52C200.911 61.2 201.285 62.0533 201.285 63.08ZM199.225 64.86C199.745 64.3933 200.005 63.8 200.005 63.08C200.005 62.36 199.745 61.7667 199.225 61.3C198.705 60.8333 198.051 60.6 197.265 60.6C196.478 60.6 195.825 60.8333 195.305 61.3C194.785 61.7667 194.525 62.36 194.525 63.08C194.525 63.8 194.785 64.3933 195.305 64.86C195.825 65.3267 196.478 65.56 197.265 65.56C198.051 65.56 198.705 65.3267 199.225 64.86ZM224.089 70.4H222.809V52.92H224.089V70.4ZM220.629 69.48H219.369V60.88H216.289V59.78H219.369V53.36H220.629V69.48ZM216.629 55.04C216.496 59.9067 214.329 63.72 210.129 66.48L209.249 65.48C211.049 64.4533 212.483 63.1 213.549 61.42C214.616 59.7267 215.189 57.9667 215.269 56.14H209.989V55.04H216.629ZM246.648 70.4H245.368V52.92H246.648V70.4ZM243.188 69.48H241.928V60.42H238.828V59.34H241.928V53.36H243.188V69.48ZM240.728 64.98L239.828 65.9C239.068 65.3267 238.341 64.56 237.648 63.6C236.968 62.6267 236.495 61.6467 236.228 60.66C236.055 61.66 235.608 62.6933 234.888 63.76C234.181 64.8267 233.375 65.7 232.468 66.38L231.588 65.44C232.628 64.7867 233.548 63.7533 234.348 62.34C235.161 60.9267 235.568 59.4333 235.568 57.86V54.72H236.848V57.84C236.848 59.4267 237.221 60.8333 237.968 62.06C238.728 63.2867 239.648 64.26 240.728 64.98ZM259.293 65.74L258.513 66.76C257.606 66.2933 256.733 65.6133 255.893 64.72C255.066 63.8267 254.493 62.9133 254.173 61.98C253.919 62.9133 253.359 63.8867 252.493 64.9C251.639 65.9133 250.759 66.68 249.853 67.2L248.953 66.28C250.059 65.7733 251.093 64.8733 252.053 63.58C253.026 62.2733 253.513 60.9 253.513 59.46V58.32H249.613V57.22H258.953V58.32H254.813V59.44C254.813 60.8533 255.299 62.1733 256.273 63.4C257.259 64.6267 258.266 65.4067 259.293 65.74ZM265.533 61.42H262.593V70.4H261.313V52.92H262.593V60.34H265.533V61.42ZM256.873 55.34H251.633V54.2H256.873V55.34ZM280.157 67.1C280.157 68.1133 279.637 68.9133 278.597 69.5C277.557 70.0867 276.131 70.38 274.317 70.38C272.504 70.38 271.077 70.0867 270.037 69.5C269.011 68.9267 268.497 68.1267 268.497 67.1C268.497 66.0733 269.011 65.2667 270.037 64.68C271.077 64.0933 272.504 63.8 274.317 63.8C276.131 63.8 277.557 64.0933 278.597 64.68C279.637 65.2667 280.157 66.0733 280.157 67.1ZM274.317 64.9C272.931 64.9 271.831 65.0933 271.017 65.48C270.217 65.8533 269.817 66.3933 269.817 67.1C269.817 67.7933 270.217 68.3333 271.017 68.72C271.831 69.0933 272.931 69.28 274.317 69.28C275.717 69.28 276.817 69.0933 277.617 68.72C278.431 68.3333 278.837 67.7933 278.837 67.1C278.837 66.3933 278.431 65.8533 277.617 65.48C276.817 65.0933 275.717 64.9 274.317 64.9ZM266.797 55.36V54.28H275.937V55.36H272.017V56.34C272.017 57.4467 272.444 58.4867 273.297 59.46C274.164 60.42 275.157 61.0867 276.277 61.46L275.577 62.52C274.684 62.16 273.844 61.6067 273.057 60.86C272.271 60.1 271.697 59.32 271.337 58.52C271.124 59.32 270.577 60.1533 269.697 61.02C268.831 61.8733 267.904 62.5267 266.917 62.98L266.197 62C267.371 61.5333 268.417 60.76 269.337 59.68C270.271 58.5867 270.737 57.4733 270.737 56.34V55.36H266.797ZM282.677 59.06H279.917V63.56H278.637V52.92H279.917V57.96H282.677V59.06ZM299.622 61.7H283.842V60.66H299.622V61.7ZM298.162 70.1H285.802V66.24H296.202V64.48H285.742V63.4H297.482V67.26H287.082V69.04H298.162V70.1ZM297.682 56.38C297.682 57.38 297.162 58.1267 296.122 58.62C295.082 59.1133 293.622 59.36 291.742 59.36C289.889 59.36 288.435 59.1133 287.382 58.62C286.342 58.1133 285.822 57.3667 285.822 56.38C285.822 55.3933 286.342 54.6533 287.382 54.16C288.435 53.6533 289.889 53.4 291.742 53.4C293.622 53.4 295.082 53.6533 296.122 54.16C297.162 54.6533 297.682 55.3933 297.682 56.38ZM295.142 54.94C294.302 54.6067 293.169 54.44 291.742 54.44C290.315 54.44 289.189 54.6067 288.362 54.94C287.549 55.2733 287.142 55.7533 287.142 56.38C287.142 57.0067 287.549 57.4867 288.362 57.82C289.189 58.14 290.315 58.3 291.742 58.3C293.169 58.3 294.302 58.14 295.142 57.82C295.982 57.4867 296.402 57.0067 296.402 56.38C296.402 55.7533 295.982 55.2733 295.142 54.94ZM320.621 70.4H319.341V52.92H320.621V70.4ZM307.221 60.42C307.221 58.54 307.594 57.0533 308.341 55.96C309.087 54.8533 310.134 54.3 311.481 54.3C312.841 54.3 313.894 54.8533 314.641 55.96C315.387 57.0533 315.761 58.5467 315.761 60.44C315.761 62.32 315.387 63.8133 314.641 64.92C313.894 66.0267 312.841 66.58 311.481 66.58C310.134 66.58 309.087 66.0267 308.341 64.92C307.594 63.8133 307.221 62.3133 307.221 60.42ZM313.681 64.04C314.241 63.1067 314.521 61.9067 314.521 60.44C314.521 58.9733 314.241 57.7733 313.681 56.84C313.121 55.9067 312.387 55.44 311.481 55.44C310.574 55.44 309.847 55.9067 309.301 56.84C308.754 57.76 308.481 58.96 308.481 60.44C308.481 61.9067 308.754 63.1067 309.301 64.04C309.847 64.96 310.574 65.42 311.481 65.42C312.387 65.42 313.121 64.96 313.681 64.04ZM337.525 56.52C337.525 57.76 336.792 58.64 335.325 59.16V61.98H339.485V63.08H323.705V61.98H327.825V59.14C326.359 58.62 325.625 57.7467 325.625 56.52C325.625 55.4933 326.145 54.7133 327.185 54.18C328.239 53.6333 329.705 53.36 331.585 53.36C333.465 53.36 334.925 53.6333 335.965 54.18C337.005 54.7133 337.525 55.4933 337.525 56.52ZM337.605 67.24C337.605 68.2267 337.072 68.98 336.005 69.5C334.939 70.0333 333.465 70.3 331.585 70.3C329.705 70.3 328.239 70.0333 327.185 69.5C326.132 68.98 325.605 68.2267 325.605 67.24C325.605 66.2667 326.132 65.52 327.185 65C328.239 64.4667 329.705 64.2 331.585 64.2C333.465 64.2 334.939 64.4667 336.005 65C337.072 65.52 337.605 66.2667 337.605 67.24ZM335.005 58.08C335.832 57.7333 336.245 57.2133 336.245 56.52C336.245 55.8267 335.832 55.3067 335.005 54.96C334.179 54.6133 333.039 54.44 331.585 54.44C330.145 54.44 329.012 54.6133 328.185 54.96C327.372 55.3067 326.965 55.8267 326.965 56.52C326.965 57.2133 327.372 57.7333 328.185 58.08C329.012 58.4267 330.145 58.6 331.585 58.6C333.039 58.6 334.179 58.4267 335.005 58.08ZM331.585 65.28C330.145 65.28 329.005 65.4467 328.165 65.78C327.339 66.1 326.925 66.5867 326.925 67.24C326.925 67.8933 327.339 68.3867 328.165 68.72C329.005 69.0533 330.145 69.22 331.585 69.22C333.052 69.22 334.199 69.06 335.025 68.74C335.852 68.4067 336.265 67.9067 336.265 67.24C336.265 66.5867 335.845 66.1 335.005 65.78C334.179 65.4467 333.039 65.28 331.585 65.28ZM331.585 59.7C330.705 59.7 329.879 59.6267 329.105 59.48V61.98H334.045V59.5C333.339 59.6333 332.519 59.7 331.585 59.7ZM357.29 61.46H354.37V70.4H353.09V52.92H354.37V60.36H357.29V61.46ZM348.53 55.34H343.47V54.2H348.53V55.34ZM351.17 58.24H340.95V57.16H351.17V58.24ZM350.23 63.08C350.23 64.0933 349.857 64.94 349.11 65.62C348.363 66.2867 347.397 66.62 346.21 66.62C345.023 66.62 344.05 66.2867 343.29 65.62C342.543 64.94 342.17 64.0933 342.17 63.08C342.17 62.0533 342.543 61.2 343.29 60.52C344.037 59.84 345.01 59.5 346.21 59.5C347.397 59.5 348.363 59.84 349.11 60.52C349.857 61.2 350.23 62.0533 350.23 63.08ZM348.17 64.86C348.69 64.3933 348.95 63.8 348.95 63.08C348.95 62.36 348.69 61.7667 348.17 61.3C347.65 60.8333 346.997 60.6 346.21 60.6C345.423 60.6 344.77 60.8333 344.25 61.3C343.73 61.7667 343.47 62.36 343.47 63.08C343.47 63.8 343.73 64.3933 344.25 64.86C344.77 65.3267 345.423 65.56 346.21 65.56C346.997 65.56 347.65 65.3267 348.17 64.86ZM374.095 67.78H358.315V66.68H364.555V60.52H365.835V66.68H374.095V67.78ZM371.875 54.82V57.16C371.875 60.0933 371.648 62.5333 371.195 64.48L369.935 64.26C370.335 62.6867 370.535 60.5467 370.535 57.84V55.92H359.955V54.82H371.875ZM396.953 59.74H394.233V66.08H392.953V52.92H394.233V58.66H396.953V59.74ZM394.993 69.98H383.393V64.92H384.653V68.88H394.993V69.98ZM391.773 62.7C390.027 62.9667 388.133 63.14 386.093 63.22C384.453 63.3133 382.713 63.36 380.873 63.36L380.633 62.2C382.407 62.2 383.713 62.1867 384.553 62.16V58.2H385.833V62.12C388.353 62.0267 390.28 61.8667 391.613 61.64L391.773 62.7ZM390.353 54.32C390.353 56.9333 390.167 58.9333 389.793 60.32L388.553 60.12C388.873 58.96 389.033 57.3867 389.033 55.4H381.793V54.32H390.353ZM409.438 65.56C406.705 65.9467 403.298 66.14 399.218 66.14V59.58H405.898V55.66H399.138V54.56H407.178V60.66H400.498V65.04C404.125 65.0667 407.051 64.8667 409.278 64.44L409.438 65.56ZM412.398 70.4H411.118V52.92H412.398V70.4ZM431.563 58.84H428.863V62.86H427.583V52.92H428.863V57.76H431.563V58.84ZM429.543 70.28H417.983V66.4H427.583V64.82H417.923V63.78H428.863V67.44H419.263V69.22H429.543V70.28ZM422.903 54.36H417.923V53.22H422.903V54.36ZM425.483 56.64H415.423V55.56H425.483V56.64ZM423.303 58.08C424.049 58.5333 424.423 59.18 424.423 60.02C424.423 60.86 424.056 61.5067 423.323 61.96C422.589 62.4133 421.616 62.64 420.403 62.64C419.243 62.64 418.289 62.4133 417.543 61.96C416.796 61.5067 416.423 60.86 416.423 60.02C416.423 59.18 416.789 58.5333 417.523 58.08C418.269 57.6267 419.229 57.4 420.403 57.4C421.589 57.4 422.556 57.6267 423.303 58.08ZM423.143 60.02C423.143 59.5133 422.883 59.1333 422.363 58.88C421.843 58.6133 421.189 58.48 420.403 58.48C419.616 58.48 418.969 58.6133 418.463 58.88C417.956 59.1333 417.703 59.5133 417.703 60.02C417.703 60.5133 417.963 60.9 418.483 61.18C419.003 61.4467 419.643 61.58 420.403 61.58C421.176 61.58 421.823 61.4467 422.343 61.18C422.876 60.9 423.143 60.5133 423.143 60.02ZM446.541 70.42H445.261V63.96H438.041V62.86H453.821V63.96H446.541V70.42ZM453.021 59.72L452.321 60.78C450.975 60.4867 449.681 59.94 448.441 59.14C447.215 58.3267 446.375 57.4467 445.921 56.5C445.495 57.4467 444.661 58.3333 443.421 59.16C442.195 59.9867 440.908 60.54 439.561 60.82L438.861 59.76C440.541 59.5333 442.028 58.92 443.321 57.92C444.615 56.9067 445.261 55.84 445.261 54.72V53.7H446.581V54.72C446.581 55.8133 447.275 56.88 448.661 57.92C450.061 58.96 451.515 59.56 453.021 59.72ZM474.84 63.08H473.56V52.92H474.84V63.08ZM462.34 55.1C463.193 54.3533 464.24 53.98 465.48 53.98C466.72 53.98 467.767 54.3533 468.62 55.1C469.487 55.8333 469.92 56.7933 469.92 57.98C469.92 59.1667 469.487 60.1333 468.62 60.88C467.767 61.6267 466.72 62 465.48 62C464.24 62 463.193 61.6333 462.34 60.9C461.487 60.1533 461.06 59.1867 461.06 58C461.06 56.8133 461.487 55.8467 462.34 55.1ZM465.48 55.08C464.587 55.08 463.84 55.3533 463.24 55.9C462.653 56.4333 462.36 57.1267 462.36 57.98C462.36 58.8333 462.66 59.5333 463.26 60.08C463.86 60.6267 464.6 60.9 465.48 60.9C466.413 60.9 467.167 60.6333 467.74 60.1C468.313 59.5667 468.6 58.8667 468.6 58C468.6 57.1333 468.313 56.4333 467.74 55.9C467.167 55.3533 466.413 55.08 465.48 55.08ZM475.66 70.42H475.64C474.987 70.0867 474.327 69.5867 473.66 68.92C473.007 68.24 472.567 67.5867 472.34 66.96C472.113 67.64 471.667 68.3333 471 69.04C470.333 69.7467 469.64 70.28 468.92 70.64L468.12 69.78C469.107 69.3 469.947 68.6133 470.64 67.72C471.347 66.8133 471.7 65.8667 471.7 64.88V63.68H472.98V64.78C472.98 65.7933 473.34 66.7533 474.06 67.66C474.78 68.5667 475.58 69.1867 476.46 69.52L475.66 70.42ZM469.14 68.32L468.22 69.22C467.713 68.94 467.24 68.58 466.8 68.14C466.36 67.6867 466.033 67.2 465.82 66.68C465.62 67.3467 465.173 68.0533 464.48 68.8C463.8 69.5333 463.073 70.0867 462.3 70.46L461.54 69.54C462.473 69.1533 463.307 68.5067 464.04 67.6C464.773 66.6933 465.14 65.74 465.14 64.74V63.7H466.42V64.6C466.42 65.5067 466.68 66.28 467.2 66.92C467.72 67.56 468.367 68.0267 469.14 68.32ZM492.725 58.46L492.105 59.48C490.758 59.2133 489.471 58.6867 488.245 57.9C487.018 57.1133 486.198 56.2867 485.785 55.42C485.425 56.2733 484.625 57.0933 483.385 57.88C482.145 58.6667 480.845 59.2 479.485 59.48L478.865 58.46C479.785 58.3533 480.718 58.08 481.665 57.64C482.625 57.2 483.438 56.62 484.105 55.9C484.785 55.18 485.125 54.4467 485.125 53.7V53.14H486.445V53.7C486.445 54.4467 486.785 55.18 487.465 55.9C488.145 56.62 488.958 57.2 489.905 57.64C490.865 58.08 491.805 58.3533 492.725 58.46ZM493.685 62.1H477.905V61H493.685V62.1ZM491.565 70.16H480.045V63.54H481.325V65.7H490.285V63.54H491.565V70.16ZM490.285 69.08V66.8H481.325V69.08H490.285ZM509.269 70.4H507.989V52.92H509.269V70.4ZM506.389 65.12C505.229 65.3733 503.676 65.5867 501.729 65.76C499.796 65.92 498.003 66 496.349 66V54.72H497.629V64.86C498.803 64.86 500.269 64.78 502.029 64.62C503.789 64.46 505.183 64.2667 506.209 64.04L506.389 65.12ZM528.794 61.04H525.874V70.4H524.594V52.92H525.874V59.96H528.794V61.04ZM523.154 65.4C520.301 65.92 517.021 66.12 513.314 66V54.74H521.454V55.84H514.594V64.86C515.861 64.9267 517.327 64.9067 518.994 64.8C520.674 64.68 522.001 64.5133 522.974 64.3L523.154 65.4ZM529.919 68.56V66.88H531.579V68.56H529.919Z" fill="black"/>
</svg>
