<svg width="1920" height="674" viewBox="0 0 1920 674" fill="none" xmlns="http://www.w3.org/2000/svg">
<rect width="1920" height="674" fill="#004D9E"/>
<g opacity="0.2">
<mask id="mask0_1235_8" style="mask-type:alpha" maskUnits="userSpaceOnUse" x="0" y="0" width="1920" height="674">
<rect width="1920" height="674" fill="#004D9E"/>
</mask>
<g mask="url(#mask0_1235_8)">
<path d="M1767.31 454.183C1766.91 457.446 1765.99 460.499 1764.33 463.14C1756.84 475.064 1739.16 472.25 1724.58 471.615C1684.88 469.925 1651.13 492.799 1627.29 522.258C1603.44 551.717 1587.38 587.732 1567.56 620.592C1547.7 653.451 1522.7 684.307 1487.29 697.639C1465.49 705.825 1437.12 705.655 1417.19 687.079C1396.91 668.176 1392.81 638.149 1390.39 611.654C1387.65 581.604 1384.9 551.555 1382.16 521.506C1380.44 502.563 1375.87 479.267 1358.86 470.573C1344.16 463.038 1329.1 471.514 1318.2 481.133C1256.41 535.711 1233.07 629.963 1167.27 679.365C1146.96 694.59 1119.91 705.006 1093.6 693.729C1065.13 681.536 1047.28 647.456 1043.27 616.422C1039.44 586.923 1045.17 558.437 1041.83 528.945C1038.45 499.452 1021.4 465.463 993.743 457.113C976.237 451.841 959.53 458.238 943.257 462.664C927.022 467.09 907.421 468.77 892.44 456.391C880.316 446.348 874.943 430.061 871.246 414.965C858.902 364.58 855.047 311.159 863.145 263.138C870.317 220.512 932.942 209.795 970.518 210.611C984.303 210.912 999.325 213.288 1010.95 223.243C1027.76 237.623 1031.52 261.876 1033.68 283.124C1037.57 320.651 1041.45 358.178 1045.34 395.706C1046.88 410.491 1050.56 428.611 1063.84 435.401C1078.42 442.894 1091.9 430.484 1100.36 418.574C1127.68 380.205 1149.45 337.245 1177.55 299.573C1205.65 261.9 1241.5 228.968 1287.4 217.669C1311.66 211.694 1342.54 214.156 1361.1 236.546C1375.19 253.553 1377.67 276.459 1379.33 297.377C1381.81 328.431 1384.28 359.485 1386.79 390.54C1388.2 408.066 1392.05 429.538 1407.68 438.053C1426.74 448.388 1443.65 429.972 1453.42 413.197C1477.77 371.442 1501.14 328.583 1532.15 292.643C1563.2 256.663 1602.88 227.573 1650.58 219.162C1677.94 214.357 1711.96 218.999 1731.63 244.469C1744.94 261.708 1748.06 283.896 1750.6 304.583L1766.73 436.95C1767.44 442.688 1768.07 448.747 1767.38 454.184L1767.31 454.183Z" fill="white"/>
</g>
</g>
</svg>
