<svg width="1041" height="126" viewBox="0 0 1041 126" fill="none" xmlns="http://www.w3.org/2000/svg">
<path d="M5.348 29.824L0.616 11.008H3.108L6.664 25.932H6.748L11.004 11.008H13.02L17.22 25.932H17.304L20.832 11.008H23.072L18.396 29.824H16.016L11.984 15.18H11.9L7.7 29.824H5.348ZM24.071 29.824L30.931 11.008H33.311L40.115 29.824H37.539L35.635 24.532H28.299L26.423 29.824H24.071ZM31.883 14.312L29.027 22.432H34.879L31.967 14.312H31.883ZM51.5848 28.704C50.5394 29.6747 48.9528 30.16 46.8248 30.16C44.6968 30.16 42.8954 29.7493 41.4208 28.928V26.828C43.0074 27.6493 44.7621 28.06 46.6848 28.06C49.3168 28.06 50.6328 26.9773 50.6328 24.812C50.6328 23.9533 50.4181 23.2907 49.9888 22.824C49.5594 22.3573 48.7848 21.928 47.6647 21.536L45.7048 20.892C44.3608 20.444 43.3434 19.828 42.6528 19.044C41.9808 18.2413 41.6448 17.1493 41.6448 15.768C41.6448 14.2373 42.1581 13.0147 43.1848 12.1C44.2114 11.1667 45.6861 10.7 47.6088 10.7C49.3261 10.7 50.8568 11.0453 52.2008 11.736V13.808C50.7074 13.136 49.1488 12.8 47.5248 12.8C46.4421 12.8 45.6021 13.0427 45.0048 13.528C44.4261 13.9947 44.1368 14.6667 44.1368 15.544C44.1368 16.4027 44.3141 17.056 44.6688 17.504C45.0421 17.952 45.7234 18.344 46.7128 18.68L48.6448 19.324C50.1568 19.8093 51.2861 20.444 52.0328 21.228C52.7794 22.012 53.1528 23.1413 53.1528 24.616C53.1528 26.352 52.6301 27.7147 51.5848 28.704ZM56.6007 29.824V11.008H59.0647V19.044H68.1087V11.008H70.5727V29.824H68.1087V21.116H59.0647V29.824H56.6007ZM82.3071 30.132C79.7311 30.132 77.7151 29.3387 76.2591 27.752C74.8031 26.1467 74.0751 23.7853 74.0751 20.668V20.024C74.0751 18.3813 74.2991 16.9533 74.7471 15.74C75.1951 14.508 75.8204 13.5373 76.6231 12.828C77.4258 12.1 78.3311 11.568 79.3391 11.232C80.3658 10.8773 81.4951 10.7 82.7271 10.7C84.5751 10.7 86.1151 11.0453 87.3471 11.736V13.78C85.6111 13.1267 84.0058 12.8 82.5311 12.8C80.7578 12.8 79.3484 13.36 78.3031 14.48C77.2578 15.5813 76.7351 17.2987 76.7351 19.632V20.64C76.7351 25.568 78.7138 28.032 82.6711 28.032C84.2204 28.032 85.8538 27.6307 87.5711 26.828V28.928C86.1711 29.7307 84.4164 30.132 82.3071 30.132ZM97.6951 30.16C95.4177 30.16 93.6817 29.5907 92.4871 28.452C91.2924 27.2947 90.6951 25.568 90.6951 23.272V11.008H93.1591V23.132C93.1591 25.0173 93.5324 26.3333 94.2791 27.08C95.0444 27.8267 96.2204 28.2 97.8071 28.2C99.3564 28.2 100.476 27.836 101.167 27.108C101.876 26.3613 102.231 25.0267 102.231 23.104V11.008H104.499V23.216C104.499 25.6053 103.939 27.36 102.819 28.48C101.699 29.6 99.9911 30.16 97.6951 30.16ZM108.991 29.824V11.008H114.815C118.903 11.008 120.947 12.5947 120.947 15.768C120.947 17.8213 119.921 19.1747 117.867 19.828V19.94C120.443 20.4253 121.731 21.9373 121.731 24.476C121.731 26.0813 121.181 27.3787 120.079 28.368C118.978 29.3387 117.382 29.824 115.291 29.824H108.991ZM111.455 27.752H115.151C117.821 27.752 119.155 26.6227 119.155 24.364C119.155 23.2067 118.801 22.376 118.091 21.872C117.401 21.3493 116.365 21.088 114.983 21.088H111.455V27.752ZM111.455 19.1H114.395C117.046 19.1 118.371 18.1013 118.371 16.104C118.371 14.984 118.063 14.2093 117.447 13.78C116.85 13.3507 115.907 13.136 114.619 13.136H111.455V19.1ZM125.234 29.824V11.008H136.434V13.136H127.698V19.072H134.446V21.144H127.698V27.724H136.518V29.824H125.234Z" fill="black"/>
<path d="M239.372 24.28H233.992V28.94H241.272V30.02H225.492V28.94H232.712V24.28H227.532V16.5H228.812V23.2H239.372V24.28ZM258.577 29.98H242.797V28.9H258.577V29.98ZM256.477 25.16H244.897V16.6H246.177V19.76H255.197V16.6H256.477V25.16ZM255.197 24.06V20.84H246.177V24.06H255.197ZM273.042 22.94H269.642V21.84H273.042V14.92H274.322V32.4H273.042V22.94ZM270.042 27.58C267.748 27.9667 264.668 28.16 260.802 28.16V21.48H267.242V17.66H260.802V16.56H268.522V22.58H262.082V27.04C265.108 27.04 267.708 26.8467 269.882 26.46L270.042 27.58ZM291.626 32.4H290.346V14.92H291.626V32.4ZM283.766 31.72H282.486V25.2C281.38 25.24 279.72 25.2867 277.506 25.34L277.306 24.18C279.133 24.18 281.1 24.1467 283.206 24.08C285.74 23.9867 287.673 23.86 289.006 23.7L289.126 24.72C288.14 24.84 286.353 24.98 283.766 25.14V31.72ZM287.946 21.04L287.266 22.04C286.413 21.7733 285.546 21.2933 284.666 20.6C283.8 19.9067 283.233 19.24 282.966 18.6C282.753 19.3067 282.22 20.04 281.366 20.8C280.513 21.5467 279.593 22.1 278.606 22.46L277.926 21.52C279.006 21.2267 280.006 20.6267 280.926 19.72C281.86 18.8 282.326 17.7267 282.326 16.5V15.78H283.566V16.48C283.566 17.1067 283.72 17.7 284.026 18.26C284.333 18.82 284.726 19.2867 285.206 19.66C285.686 20.02 286.16 20.3133 286.626 20.54C287.093 20.7667 287.533 20.9333 287.946 21.04ZM314.665 24.2H313.385V14.92H314.665V24.2ZM311.385 24.02H310.125V19.7H307.305V18.6H310.125V15.24H311.385V24.02ZM315.345 32.28H303.325V28.08H313.385V26.24H303.245V25.16H314.665V29.1H304.605V31.18H315.345V32.28ZM308.805 22.46L308.005 23.44C307.285 23.04 306.578 22.4933 305.885 21.8C305.192 21.1067 304.725 20.4267 304.485 19.76C304.245 20.5467 303.805 21.32 303.165 22.08C302.538 22.84 301.765 23.46 300.845 23.94L300.005 22.98C301.138 22.46 302.052 21.7133 302.745 20.74C303.452 19.7533 303.805 18.64 303.805 17.4V15.74H305.065V17.38C305.065 18.5667 305.425 19.5867 306.145 20.44C306.878 21.2933 307.765 21.9667 308.805 22.46ZM331.41 25.24H318.83V24.16H321.67L321.19 19.04L322.55 18.84L322.91 24.16H327.33L327.93 18.86L329.19 19.08L328.55 24.16H331.41V25.24ZM333.05 30.16H317.27V29.06H333.05V30.16ZM331.41 17.96H318.83V16.86H331.41V17.96ZM349.294 32.4H348.014V14.92H349.294V32.4ZM345.834 31.48H344.574V22.42H341.474V21.34H344.574V15.36H345.834V31.48ZM343.374 26.98L342.474 27.9C341.714 27.3267 340.988 26.56 340.294 25.6C339.614 24.6267 339.141 23.6467 338.874 22.66C338.701 23.66 338.254 24.6933 337.534 25.76C336.828 26.8267 336.021 27.7 335.114 28.38L334.234 27.44C335.274 26.7867 336.194 25.7533 336.994 24.34C337.808 22.9267 338.214 21.4333 338.214 19.86V16.72H339.494V19.84C339.494 21.4267 339.868 22.8333 340.614 24.06C341.374 25.2867 342.294 26.26 343.374 26.98ZM361.939 27.74L361.159 28.76C360.252 28.2933 359.379 27.6133 358.539 26.72C357.712 25.8267 357.139 24.9133 356.819 23.98C356.566 24.9133 356.006 25.8867 355.139 26.9C354.286 27.9133 353.406 28.68 352.499 29.2L351.599 28.28C352.706 27.7733 353.739 26.8733 354.699 25.58C355.672 24.2733 356.159 22.9 356.159 21.46V20.32H352.259V19.22H361.599V20.32H357.459V21.44C357.459 22.8533 357.946 24.1733 358.919 25.4C359.906 26.6267 360.912 27.4067 361.939 27.74ZM368.179 23.42H365.239V32.4H363.959V14.92H365.239V22.34H368.179V23.42ZM359.519 17.34H354.279V16.2H359.519V17.34ZM382.804 29.1C382.804 30.1133 382.284 30.9133 381.244 31.5C380.204 32.0867 378.777 32.38 376.964 32.38C375.15 32.38 373.724 32.0867 372.684 31.5C371.657 30.9267 371.144 30.1267 371.144 29.1C371.144 28.0733 371.657 27.2667 372.684 26.68C373.724 26.0933 375.15 25.8 376.964 25.8C378.777 25.8 380.204 26.0933 381.244 26.68C382.284 27.2667 382.804 28.0733 382.804 29.1ZM376.964 26.9C375.577 26.9 374.477 27.0933 373.664 27.48C372.864 27.8533 372.464 28.3933 372.464 29.1C372.464 29.7933 372.864 30.3333 373.664 30.72C374.477 31.0933 375.577 31.28 376.964 31.28C378.364 31.28 379.464 31.0933 380.264 30.72C381.077 30.3333 381.484 29.7933 381.484 29.1C381.484 28.3933 381.077 27.8533 380.264 27.48C379.464 27.0933 378.364 26.9 376.964 26.9ZM369.444 17.36V16.28H378.584V17.36H374.664V18.34C374.664 19.4467 375.09 20.4867 375.944 21.46C376.81 22.42 377.804 23.0867 378.924 23.46L378.224 24.52C377.33 24.16 376.49 23.6067 375.704 22.86C374.917 22.1 374.344 21.32 373.984 20.52C373.77 21.32 373.224 22.1533 372.344 23.02C371.477 23.8733 370.55 24.5267 369.564 24.98L368.844 24C370.017 23.5333 371.064 22.76 371.984 21.68C372.917 20.5867 373.384 19.4733 373.384 18.34V17.36H369.444ZM385.324 21.06H382.564V25.56H381.284V14.92H382.564V19.96H385.324V21.06ZM402.269 29.96H386.489V28.88H402.269V29.96ZM400.589 20.82C400.589 22.14 400.015 23.1933 398.869 23.98C397.735 24.7667 396.229 25.16 394.349 25.16C392.469 25.16 390.962 24.7667 389.829 23.98C388.709 23.1933 388.149 22.14 388.149 20.82C388.149 19.5133 388.715 18.4667 389.849 17.68C390.982 16.88 392.482 16.48 394.349 16.48C396.229 16.48 397.735 16.88 398.869 17.68C400.015 18.4667 400.589 19.5133 400.589 20.82ZM399.329 20.82C399.329 19.86 398.875 19.0867 397.969 18.5C397.062 17.9133 395.855 17.62 394.349 17.62C392.855 17.62 391.655 17.9133 390.749 18.5C389.855 19.0867 389.409 19.86 389.409 20.82C389.409 21.7667 389.862 22.5333 390.769 23.12C391.675 23.7067 392.869 24 394.349 24C395.842 24 397.042 23.7067 397.949 23.12C398.869 22.5333 399.329 21.7667 399.329 20.82ZM419.573 30.16H403.793V29.06H411.013V25.82H405.893V20.42H416.193V17.46H405.893V16.38H417.473V21.5H407.173V24.74H417.933V25.82H412.293V29.06H419.573V30.16ZM427.372 30.16V16.74H428.672V30.16H427.372ZM435.255 30.16V17.84H431.015V16.74H440.795V17.84H436.555V30.16H435.255ZM456.334 32.4H455.054V14.92H456.334V32.4ZM451.114 16.82C451.06 19.5267 450.294 21.8867 448.814 23.9C447.347 25.9 445.434 27.5333 443.074 28.8L442.294 27.78C444.507 26.6733 446.254 25.26 447.534 23.54C448.827 21.82 449.554 19.9467 449.714 17.92H443.034V16.82H451.114ZM473.758 32.16H461.458V28.32H471.838V26.66H461.318V25.56H466.638V23.6H459.418V22.52H475.198V23.6H467.918V25.56H473.118V29.38H462.738V31.08H473.758V32.16ZM474.278 20.2L473.658 21.24C472.178 20.9333 470.845 20.4133 469.658 19.68C468.485 18.9333 467.698 18.1533 467.298 17.34C467.005 18.1667 466.272 18.9533 465.098 19.7C463.925 20.4467 462.565 20.9667 461.018 21.26L460.398 20.22C461.398 20.1133 462.372 19.86 463.318 19.46C464.265 19.0467 465.058 18.5067 465.698 17.84C466.338 17.1733 466.658 16.46 466.658 15.7V15.14H467.978V15.7C467.978 16.46 468.325 17.18 469.018 17.86C469.712 18.5267 470.525 19.06 471.458 19.46C472.405 19.8467 473.345 20.0933 474.278 20.2ZM492.503 23.7H476.723V22.66H492.503V23.7ZM491.043 32.1H478.683V28.24H489.083V26.48H478.623V25.4H490.363V29.26H479.963V31.04H491.043V32.1ZM490.563 18.38C490.563 19.38 490.043 20.1267 489.003 20.62C487.963 21.1133 486.503 21.36 484.623 21.36C482.77 21.36 481.316 21.1133 480.263 20.62C479.223 20.1133 478.703 19.3667 478.703 18.38C478.703 17.3933 479.223 16.6533 480.263 16.16C481.316 15.6533 482.77 15.4 484.623 15.4C486.503 15.4 487.963 15.6533 489.003 16.16C490.043 16.6533 490.563 17.3933 490.563 18.38ZM488.023 16.94C487.183 16.6067 486.05 16.44 484.623 16.44C483.196 16.44 482.07 16.6067 481.243 16.94C480.43 17.2733 480.023 17.7533 480.023 18.38C480.023 19.0067 480.43 19.4867 481.243 19.82C482.07 20.14 483.196 20.3 484.623 20.3C486.05 20.3 487.183 20.14 488.023 19.82C488.863 19.4867 489.283 19.0067 489.283 18.38C489.283 17.7533 488.863 17.2733 488.023 16.94ZM513.541 32.16H502.501V25.24H503.781V27.64H512.261V25.18H513.541V32.16ZM499.881 17.22V16.12H509.061V17.22H505.101V18C505.101 19.1067 505.535 20.1467 506.401 21.12C507.268 22.08 508.261 22.7467 509.381 23.12L508.681 24.16C507.788 23.8 506.941 23.2467 506.141 22.5C505.341 21.7533 504.768 20.98 504.421 20.18C504.208 20.98 503.661 21.8133 502.781 22.68C501.915 23.5333 500.988 24.18 500.001 24.62L499.281 23.66C500.455 23.1933 501.501 22.4133 502.421 21.32C503.355 20.2267 503.821 19.1133 503.821 17.98V17.22H499.881ZM512.261 31.1V28.68H503.781V31.1H512.261ZM512.241 20.26H508.841V19.18H512.241V14.92H513.521V24.26H512.241V20.26ZM532.366 24.94H516.586V23.86H523.806V21.6H518.706V15.76H530.266V21.6H525.086V23.86H532.366V24.94ZM528.986 20.5V16.84H519.986V20.5H528.986ZM518.366 26.92H530.346V32.54H529.066V28H518.366V26.92ZM550.171 23.46H547.251V32.4H545.971V14.92H547.251V22.36H550.171V23.46ZM541.411 17.34H536.351V16.2H541.411V17.34ZM544.051 20.24H533.831V19.16H544.051V20.24ZM543.111 25.08C543.111 26.0933 542.738 26.94 541.991 27.62C541.244 28.2867 540.278 28.62 539.091 28.62C537.904 28.62 536.931 28.2867 536.171 27.62C535.424 26.94 535.051 26.0933 535.051 25.08C535.051 24.0533 535.424 23.2 536.171 22.52C536.918 21.84 537.891 21.5 539.091 21.5C540.278 21.5 541.244 21.84 541.991 22.52C542.738 23.2 543.111 24.0533 543.111 25.08ZM541.051 26.86C541.571 26.3933 541.831 25.8 541.831 25.08C541.831 24.36 541.571 23.7667 541.051 23.3C540.531 22.8333 539.878 22.6 539.091 22.6C538.304 22.6 537.651 22.8333 537.131 23.3C536.611 23.7667 536.351 24.36 536.351 25.08C536.351 25.8 536.611 26.3933 537.131 26.86C537.651 27.3267 538.304 27.56 539.091 27.56C539.878 27.56 540.531 27.3267 541.051 26.86ZM564.136 20H560.716V18.94H564.136V14.92H565.416V32.4H564.136V25.62H560.716V24.56H564.136V20ZM551.416 22.42C551.416 20.54 551.789 19.0533 552.536 17.96C553.282 16.8667 554.329 16.32 555.676 16.32C557.036 16.32 558.089 16.8733 558.836 17.98C559.582 19.0733 559.956 20.56 559.956 22.44C559.956 24.32 559.576 25.8133 558.816 26.92C558.069 28.0133 557.022 28.56 555.676 28.56C554.329 28.56 553.282 28.0133 552.536 26.92C551.789 25.8133 551.416 24.3133 551.416 22.42ZM558.716 22.44C558.716 20.9733 558.436 19.7733 557.876 18.84C557.316 17.9067 556.582 17.44 555.676 17.44C554.769 17.44 554.042 17.9067 553.496 18.84C552.949 19.76 552.676 20.96 552.676 22.44C552.676 23.9067 552.949 25.1067 553.496 26.04C554.042 26.96 554.769 27.42 555.676 27.42C556.582 27.42 557.316 26.9533 557.876 26.02C558.436 25.0867 558.716 23.8933 558.716 22.44ZM587.994 27.62H586.714V14.92H587.994V27.62ZM588.454 31.78H576.654V26.46H577.934V30.7H588.454V31.78ZM575.514 17.32C576.394 16.5333 577.461 16.14 578.714 16.14C579.967 16.14 581.027 16.5267 581.894 17.3C582.774 18.0733 583.214 19.08 583.214 20.32C583.214 21.5733 582.774 22.5933 581.894 23.38C581.027 24.1533 579.967 24.54 578.714 24.54C577.461 24.54 576.394 24.1533 575.514 23.38C574.634 22.6067 574.194 21.6 574.194 20.36C574.194 19.1067 574.634 18.0933 575.514 17.32ZM578.714 17.28C577.794 17.28 577.027 17.5667 576.414 18.14C575.814 18.7 575.514 19.4267 575.514 20.32C575.514 21.2267 575.821 21.9733 576.434 22.56C577.047 23.1333 577.807 23.42 578.714 23.42C579.674 23.42 580.447 23.14 581.034 22.58C581.621 22.02 581.914 21.28 581.914 20.36C581.914 19.44 581.621 18.7 581.034 18.14C580.447 17.5667 579.674 17.28 578.714 17.28ZM599.139 21.42V22.46H593.139V26.98C596.325 27.02 598.972 26.8267 601.079 26.4L601.239 27.5C598.892 27.9133 595.765 28.12 591.859 28.12V16.62H599.839V17.7H593.139V21.42H599.139ZM605.279 32.4H603.999V22.84H600.159V21.74H603.999V14.92H605.279V32.4ZM616.804 23.62C614.91 24.0333 612.43 24.24 609.364 24.24V16.38H610.644V23.1C611.564 23.1 612.624 23.0467 613.824 22.94C615.024 22.82 615.937 22.68 616.564 22.52L616.804 23.62ZM623.064 26.76H621.784V14.92H623.064V26.76ZM619.784 25.16H618.524V19.98H614.484V18.9H618.524V15.3H619.784V25.16ZM624.004 31.54L623.244 32.64C622.164 32.4133 620.997 31.8733 619.744 31.02C618.504 30.18 617.67 29.2667 617.244 28.28C616.897 29.24 616.137 30.1267 614.964 30.94C613.79 31.74 612.55 32.2867 611.244 32.58L610.484 31.52C611.39 31.3867 612.304 31.0867 613.224 30.62C614.157 30.14 614.95 29.5267 615.604 28.78C616.27 28.02 616.604 27.2467 616.604 26.46V25.8H617.964V26.46C617.964 27.6333 618.617 28.72 619.924 29.72C621.244 30.7067 622.604 31.3133 624.004 31.54ZM641.448 23.7H625.668V22.66H641.448V23.7ZM639.988 32.1H627.628V28.24H638.028V26.48H627.568V25.4H639.308V29.26H628.908V31.04H639.988V32.1ZM639.508 18.38C639.508 19.38 638.988 20.1267 637.948 20.62C636.908 21.1133 635.448 21.36 633.568 21.36C631.715 21.36 630.262 21.1133 629.208 20.62C628.168 20.1133 627.648 19.3667 627.648 18.38C627.648 17.3933 628.168 16.6533 629.208 16.16C630.262 15.6533 631.715 15.4 633.568 15.4C635.448 15.4 636.908 15.6533 637.948 16.16C638.988 16.6533 639.508 17.3933 639.508 18.38ZM636.968 16.94C636.128 16.6067 634.995 16.44 633.568 16.44C632.142 16.44 631.015 16.6067 630.188 16.94C629.375 17.2733 628.968 17.7533 628.968 18.38C628.968 19.0067 629.375 19.4867 630.188 19.82C631.015 20.14 632.142 20.3 633.568 20.3C634.995 20.3 636.128 20.14 636.968 19.82C637.808 19.4867 638.228 19.0067 638.228 18.38C638.228 17.7533 637.808 17.2733 636.968 16.94ZM661.927 22.42H656.747V24.32H664.007V25.42H648.227V24.32H655.467V22.42H650.347V15.88H661.807V16.98H651.627V18.56H661.267V19.58H651.627V21.34H661.927V22.42ZM662.107 29.38C662.107 30.3533 661.587 31.1 660.547 31.62C659.507 32.14 658.027 32.4 656.107 32.4C654.2 32.4 652.727 32.1333 651.687 31.6C650.647 31.08 650.127 30.34 650.127 29.38C650.127 28.4333 650.647 27.6933 651.687 27.16C652.74 26.6267 654.213 26.36 656.107 26.36C658.04 26.36 659.52 26.62 660.547 27.14C661.587 27.6467 662.107 28.3933 662.107 29.38ZM656.107 27.44C654.667 27.44 653.527 27.6133 652.687 27.96C651.86 28.3067 651.447 28.78 651.447 29.38C651.447 29.9933 651.86 30.4733 652.687 30.82C653.513 31.1533 654.653 31.32 656.107 31.32C657.573 31.32 658.72 31.1533 659.547 30.82C660.373 30.4733 660.787 29.9933 660.787 29.38C660.787 28.78 660.367 28.3067 659.527 27.96C658.7 27.6133 657.56 27.44 656.107 27.44ZM681.611 22.14H678.891V27.7H677.611V14.92H678.891V21.06H681.611V22.14ZM679.651 31.78H668.071V27.4H669.351V30.7H679.651V31.78ZM672.951 16.84H667.971V15.74H672.951V16.84ZM675.491 19.38H665.471V18.28H675.491V19.38ZM674.471 23.38C674.471 24.2867 674.091 25.02 673.331 25.58C672.585 26.14 671.631 26.42 670.471 26.42C669.311 26.42 668.351 26.1467 667.591 25.6C666.845 25.04 666.471 24.3 666.471 23.38C666.471 22.4467 666.845 21.7133 667.591 21.18C668.338 20.6333 669.298 20.36 670.471 20.36C671.645 20.36 672.605 20.6333 673.351 21.18C674.098 21.7133 674.471 22.4467 674.471 23.38ZM673.211 23.38C673.211 22.78 672.945 22.3067 672.411 21.96C671.878 21.6133 671.231 21.44 670.471 21.44C669.698 21.44 669.045 21.6133 668.511 21.96C667.991 22.3067 667.731 22.78 667.731 23.38C667.731 23.9667 667.991 24.44 668.511 24.8C669.045 25.1467 669.698 25.32 670.471 25.32C671.231 25.32 671.878 25.1467 672.411 24.8C672.945 24.44 673.211 23.9667 673.211 23.38ZM701.77 22.8H690.21V16.02H701.77V22.8ZM700.49 21.72V17.1H691.49V21.72H700.49ZM696.59 32.42H695.31V26.36H688.09V25.26H703.87V26.36H696.59V32.42ZM719.635 27.62H718.355V14.92H719.635V27.62ZM720.095 31.78H708.295V26.46H709.575V30.7H720.095V31.78ZM707.155 17.32C708.035 16.5333 709.101 16.14 710.355 16.14C711.608 16.14 712.668 16.5267 713.535 17.3C714.415 18.0733 714.855 19.08 714.855 20.32C714.855 21.5733 714.415 22.5933 713.535 23.38C712.668 24.1533 711.608 24.54 710.355 24.54C709.101 24.54 708.035 24.1533 707.155 23.38C706.275 22.6067 705.835 21.6 705.835 20.36C705.835 19.1067 706.275 18.0933 707.155 17.32ZM710.355 17.28C709.435 17.28 708.668 17.5667 708.055 18.14C707.455 18.7 707.155 19.4267 707.155 20.32C707.155 21.2267 707.461 21.9733 708.075 22.56C708.688 23.1333 709.448 23.42 710.355 23.42C711.315 23.42 712.088 23.14 712.675 22.58C713.261 22.02 713.555 21.28 713.555 20.36C713.555 19.44 713.261 18.7 712.675 18.14C712.088 17.5667 711.315 17.28 710.355 17.28ZM738.779 21.74H736.059V28.08H734.779V14.92H736.059V20.66H738.779V21.74ZM736.819 31.98H725.219V26.92H726.479V30.88H736.819V31.98ZM733.599 24.7C731.853 24.9667 729.959 25.14 727.919 25.22C726.279 25.3133 724.539 25.36 722.699 25.36L722.459 24.2C724.233 24.2 725.539 24.1867 726.379 24.16V20.2H727.659V24.12C730.179 24.0267 732.106 23.8667 733.439 23.64L733.599 24.7ZM732.179 16.32C732.179 18.9333 731.993 20.9333 731.619 22.32L730.379 22.12C730.699 20.96 730.859 19.3867 730.859 17.4H723.619V16.32H732.179ZM751.264 27.56C748.531 27.9467 745.124 28.14 741.044 28.14V21.58H747.724V17.66H740.964V16.56H749.004V22.66H742.324V27.04C745.951 27.0667 748.877 26.8667 751.104 26.44L751.264 27.56ZM754.224 32.4H752.944V14.92H754.224V32.4ZM776.883 32.4H775.603V14.92H776.883V32.4ZM773.123 27.1L772.283 28.12C771.363 27.48 770.469 26.66 769.603 25.66C768.736 24.6467 768.136 23.6267 767.803 22.6C767.496 23.68 766.943 24.74 766.143 25.78C765.356 26.8067 764.416 27.74 763.323 28.58L762.443 27.58C763.723 26.7933 764.823 25.6733 765.743 24.22C766.676 22.7667 767.143 21.3133 767.143 19.86V16.56H768.463V19.84C768.463 21.32 768.923 22.7267 769.843 24.06C770.763 25.38 771.856 26.3933 773.123 27.1ZM794.967 23.96L794.247 25C792.767 24.52 791.394 23.76 790.127 22.72C788.861 21.6667 788.061 20.7067 787.727 19.84C787.447 20.72 786.687 21.68 785.447 22.72C784.207 23.76 782.814 24.5067 781.267 24.96L780.567 23.92C781.541 23.72 782.521 23.3133 783.507 22.7C784.507 22.0867 785.354 21.3267 786.047 20.42C786.741 19.5133 787.087 18.62 787.087 17.74V16.5H788.407V17.74C788.407 19.0333 789.127 20.3067 790.567 21.56C792.007 22.8 793.474 23.6 794.967 23.96ZM795.647 29.96H779.867V28.88H795.647V29.96ZM811.892 32.14H800.532V26.08H811.892V32.14ZM810.612 31.06V27.16H801.812V31.06H810.612ZM803.732 19.52V20.56H799.352V23.16C801.752 23.2 803.792 23.04 805.472 22.68L805.652 23.8C803.399 24.2133 800.872 24.38 798.072 24.3V16.14H804.572V17.24H799.352V19.52H803.732ZM807.332 20.3H804.712V19.22H807.332V15.24H808.592V24.94H807.332V20.3ZM811.872 25.14H810.592V14.92H811.872V25.14ZM830.257 29.96H814.477V28.88H830.257V29.96ZM828.577 20.82C828.577 22.14 828.003 23.1933 826.857 23.98C825.723 24.7667 824.217 25.16 822.337 25.16C820.457 25.16 818.95 24.7667 817.817 23.98C816.697 23.1933 816.137 22.14 816.137 20.82C816.137 19.5133 816.703 18.4667 817.837 17.68C818.97 16.88 820.47 16.48 822.337 16.48C824.217 16.48 825.723 16.88 826.857 17.68C828.003 18.4667 828.577 19.5133 828.577 20.82ZM827.317 20.82C827.317 19.86 826.863 19.0867 825.957 18.5C825.05 17.9133 823.843 17.62 822.337 17.62C820.843 17.62 819.643 17.9133 818.737 18.5C817.843 19.0867 817.397 19.86 817.397 20.82C817.397 21.7667 817.85 22.5333 818.757 23.12C819.663 23.7067 820.857 24 822.337 24C823.83 24 825.03 23.7067 825.937 23.12C826.857 22.5333 827.317 21.7667 827.317 20.82ZM847.561 30.16H831.781V29.06H839.001V25.82H833.881V20.42H844.181V17.46H833.881V16.38H845.461V21.5H835.161V24.74H845.921V25.82H840.281V29.06H847.561V30.16ZM235.532 62.98C232.959 63.3133 229.746 63.48 225.892 63.48L225.692 62.3H227.992L227.452 56.78L228.732 56.6L229.152 62.28L231.812 62.22L232.332 56.56L233.612 56.72L232.992 62.18C233.992 62.1133 234.799 62.0333 235.412 61.94L235.532 62.98ZM235.332 57.42V56.32H238.452V52.92H239.732V65.62H238.452V60.94H235.332V59.84H238.452V57.42H235.332ZM240.092 69.78H228.552V64.62H229.832V68.7H240.092V69.78ZM235.192 55.56H226.132V54.48H235.192V55.56ZM259.077 61.46H256.157V70.4H254.877V52.92H256.157V60.36H259.077V61.46ZM250.317 55.34H245.257V54.2H250.317V55.34ZM252.957 58.24H242.737V57.16H252.957V58.24ZM252.017 63.08C252.017 64.0933 251.644 64.94 250.897 65.62C250.15 66.2867 249.184 66.62 247.997 66.62C246.81 66.62 245.837 66.2867 245.077 65.62C244.33 64.94 243.957 64.0933 243.957 63.08C243.957 62.0533 244.33 61.2 245.077 60.52C245.824 59.84 246.797 59.5 247.997 59.5C249.184 59.5 250.15 59.84 250.897 60.52C251.644 61.2 252.017 62.0533 252.017 63.08ZM249.957 64.86C250.477 64.3933 250.737 63.8 250.737 63.08C250.737 62.36 250.477 61.7667 249.957 61.3C249.437 60.8333 248.784 60.6 247.997 60.6C247.21 60.6 246.557 60.8333 246.037 61.3C245.517 61.7667 245.257 62.36 245.257 63.08C245.257 63.8 245.517 64.3933 246.037 64.86C246.557 65.3267 247.21 65.56 247.997 65.56C248.784 65.56 249.437 65.3267 249.957 64.86ZM274.822 70.4H273.542V52.92H274.822V70.4ZM271.362 69.48H270.102V60.88H267.022V59.78H270.102V53.36H271.362V69.48ZM267.362 55.04C267.228 59.9067 265.062 63.72 260.862 66.48L259.982 65.48C261.782 64.4533 263.215 63.1 264.282 61.42C265.348 59.7267 265.922 57.9667 266.002 56.14H260.722V55.04H267.362ZM297.38 70.4H296.1V52.92H297.38V70.4ZM293.92 69.48H292.66V60.42H289.56V59.34H292.66V53.36H293.92V69.48ZM291.46 64.98L290.56 65.9C289.8 65.3267 289.074 64.56 288.38 63.6C287.7 62.6267 287.227 61.6467 286.96 60.66C286.787 61.66 286.34 62.6933 285.62 63.76C284.914 64.8267 284.107 65.7 283.2 66.38L282.32 65.44C283.36 64.7867 284.28 63.7533 285.08 62.34C285.894 60.9267 286.3 59.4333 286.3 57.86V54.72H287.58V57.84C287.58 59.4267 287.954 60.8333 288.7 62.06C289.46 63.2867 290.38 64.26 291.46 64.98ZM310.025 65.74L309.245 66.76C308.338 66.2933 307.465 65.6133 306.625 64.72C305.798 63.8267 305.225 62.9133 304.905 61.98C304.652 62.9133 304.092 63.8867 303.225 64.9C302.372 65.9133 301.492 66.68 300.585 67.2L299.685 66.28C300.792 65.7733 301.825 64.8733 302.785 63.58C303.758 62.2733 304.245 60.9 304.245 59.46V58.32H300.345V57.22H309.685V58.32H305.545V59.44C305.545 60.8533 306.032 62.1733 307.005 63.4C307.992 64.6267 308.998 65.4067 310.025 65.74ZM316.265 61.42H313.325V70.4H312.045V52.92H313.325V60.34H316.265V61.42ZM307.605 55.34H302.365V54.2H307.605V55.34ZM330.89 67.1C330.89 68.1133 330.37 68.9133 329.33 69.5C328.29 70.0867 326.863 70.38 325.05 70.38C323.236 70.38 321.81 70.0867 320.77 69.5C319.743 68.9267 319.23 68.1267 319.23 67.1C319.23 66.0733 319.743 65.2667 320.77 64.68C321.81 64.0933 323.236 63.8 325.05 63.8C326.863 63.8 328.29 64.0933 329.33 64.68C330.37 65.2667 330.89 66.0733 330.89 67.1ZM325.05 64.9C323.663 64.9 322.563 65.0933 321.75 65.48C320.95 65.8533 320.55 66.3933 320.55 67.1C320.55 67.7933 320.95 68.3333 321.75 68.72C322.563 69.0933 323.663 69.28 325.05 69.28C326.45 69.28 327.55 69.0933 328.35 68.72C329.163 68.3333 329.57 67.7933 329.57 67.1C329.57 66.3933 329.163 65.8533 328.35 65.48C327.55 65.0933 326.45 64.9 325.05 64.9ZM317.53 55.36V54.28H326.67V55.36H322.75V56.34C322.75 57.4467 323.176 58.4867 324.03 59.46C324.896 60.42 325.89 61.0867 327.01 61.46L326.31 62.52C325.416 62.16 324.576 61.6067 323.79 60.86C323.003 60.1 322.43 59.32 322.07 58.52C321.856 59.32 321.31 60.1533 320.43 61.02C319.563 61.8733 318.636 62.5267 317.65 62.98L316.93 62C318.103 61.5333 319.15 60.76 320.07 59.68C321.003 58.5867 321.47 57.4733 321.47 56.34V55.36H317.53ZM333.41 59.06H330.65V63.56H329.37V52.92H330.65V57.96H333.41V59.06ZM350.354 61.7H334.574V60.66H350.354V61.7ZM348.894 70.1H336.534V66.24H346.934V64.48H336.474V63.4H348.214V67.26H337.814V69.04H348.894V70.1ZM348.414 56.38C348.414 57.38 347.894 58.1267 346.854 58.62C345.814 59.1133 344.354 59.36 342.474 59.36C340.621 59.36 339.168 59.1133 338.114 58.62C337.074 58.1133 336.554 57.3667 336.554 56.38C336.554 55.3933 337.074 54.6533 338.114 54.16C339.168 53.6533 340.621 53.4 342.474 53.4C344.354 53.4 345.814 53.6533 346.854 54.16C347.894 54.6533 348.414 55.3933 348.414 56.38ZM345.874 54.94C345.034 54.6067 343.901 54.44 342.474 54.44C341.048 54.44 339.921 54.6067 339.094 54.94C338.281 55.2733 337.874 55.7533 337.874 56.38C337.874 57.0067 338.281 57.4867 339.094 57.82C339.921 58.14 341.048 58.3 342.474 58.3C343.901 58.3 345.034 58.14 345.874 57.82C346.714 57.4867 347.134 57.0067 347.134 56.38C347.134 55.7533 346.714 55.2733 345.874 54.94ZM371.353 70.4H370.073V52.92H371.353V70.4ZM357.953 60.42C357.953 58.54 358.326 57.0533 359.073 55.96C359.82 54.8533 360.866 54.3 362.213 54.3C363.573 54.3 364.626 54.8533 365.373 55.96C366.12 57.0533 366.493 58.5467 366.493 60.44C366.493 62.32 366.12 63.8133 365.373 64.92C364.626 66.0267 363.573 66.58 362.213 66.58C360.866 66.58 359.82 66.0267 359.073 64.92C358.326 63.8133 357.953 62.3133 357.953 60.42ZM364.413 64.04C364.973 63.1067 365.253 61.9067 365.253 60.44C365.253 58.9733 364.973 57.7733 364.413 56.84C363.853 55.9067 363.12 55.44 362.213 55.44C361.306 55.44 360.58 55.9067 360.033 56.84C359.486 57.76 359.213 58.96 359.213 60.44C359.213 61.9067 359.486 63.1067 360.033 64.04C360.58 64.96 361.306 65.42 362.213 65.42C363.12 65.42 363.853 64.96 364.413 64.04ZM388.258 56.52C388.258 57.76 387.524 58.64 386.058 59.16V61.98H390.218V63.08H374.438V61.98H378.558V59.14C377.091 58.62 376.358 57.7467 376.358 56.52C376.358 55.4933 376.878 54.7133 377.918 54.18C378.971 53.6333 380.438 53.36 382.318 53.36C384.198 53.36 385.658 53.6333 386.698 54.18C387.738 54.7133 388.258 55.4933 388.258 56.52ZM388.338 67.24C388.338 68.2267 387.804 68.98 386.738 69.5C385.671 70.0333 384.198 70.3 382.318 70.3C380.438 70.3 378.971 70.0333 377.918 69.5C376.864 68.98 376.338 68.2267 376.338 67.24C376.338 66.2667 376.864 65.52 377.918 65C378.971 64.4667 380.438 64.2 382.318 64.2C384.198 64.2 385.671 64.4667 386.738 65C387.804 65.52 388.338 66.2667 388.338 67.24ZM385.738 58.08C386.564 57.7333 386.978 57.2133 386.978 56.52C386.978 55.8267 386.564 55.3067 385.738 54.96C384.911 54.6133 383.771 54.44 382.318 54.44C380.878 54.44 379.744 54.6133 378.918 54.96C378.104 55.3067 377.698 55.8267 377.698 56.52C377.698 57.2133 378.104 57.7333 378.918 58.08C379.744 58.4267 380.878 58.6 382.318 58.6C383.771 58.6 384.911 58.4267 385.738 58.08ZM382.318 65.28C380.878 65.28 379.738 65.4467 378.898 65.78C378.071 66.1 377.658 66.5867 377.658 67.24C377.658 67.8933 378.071 68.3867 378.898 68.72C379.738 69.0533 380.878 69.22 382.318 69.22C383.784 69.22 384.931 69.06 385.758 68.74C386.584 68.4067 386.998 67.9067 386.998 67.24C386.998 66.5867 386.578 66.1 385.738 65.78C384.911 65.4467 383.771 65.28 382.318 65.28ZM382.318 59.7C381.438 59.7 380.611 59.6267 379.838 59.48V61.98H384.778V59.5C384.071 59.6333 383.251 59.7 382.318 59.7ZM408.022 61.46H405.102V70.4H403.822V52.92H405.102V60.36H408.022V61.46ZM399.262 55.34H394.202V54.2H399.262V55.34ZM401.902 58.24H391.682V57.16H401.902V58.24ZM400.962 63.08C400.962 64.0933 400.589 64.94 399.842 65.62C399.096 66.2867 398.129 66.62 396.942 66.62C395.756 66.62 394.782 66.2867 394.022 65.62C393.276 64.94 392.902 64.0933 392.902 63.08C392.902 62.0533 393.276 61.2 394.022 60.52C394.769 59.84 395.742 59.5 396.942 59.5C398.129 59.5 399.096 59.84 399.842 60.52C400.589 61.2 400.962 62.0533 400.962 63.08ZM398.902 64.86C399.422 64.3933 399.682 63.8 399.682 63.08C399.682 62.36 399.422 61.7667 398.902 61.3C398.382 60.8333 397.729 60.6 396.942 60.6C396.156 60.6 395.502 60.8333 394.982 61.3C394.462 61.7667 394.202 62.36 394.202 63.08C394.202 63.8 394.462 64.3933 394.982 64.86C395.502 65.3267 396.156 65.56 396.942 65.56C397.729 65.56 398.382 65.3267 398.902 64.86ZM424.827 67.78H409.047V66.68H415.287V60.52H416.567V66.68H424.827V67.78ZM422.607 54.82V57.16C422.607 60.0933 422.38 62.5333 421.927 64.48L420.667 64.26C421.067 62.6867 421.267 60.5467 421.267 57.84V55.92H410.687V54.82H422.607ZM447.686 59.74H444.966V66.08H443.686V52.92H444.966V58.66H447.686V59.74ZM445.726 69.98H434.126V64.92H435.386V68.88H445.726V69.98ZM442.506 62.7C440.759 62.9667 438.866 63.14 436.826 63.22C435.186 63.3133 433.446 63.36 431.606 63.36L431.366 62.2C433.139 62.2 434.446 62.1867 435.286 62.16V58.2H436.566V62.12C439.086 62.0267 441.012 61.8667 442.346 61.64L442.506 62.7ZM441.086 54.32C441.086 56.9333 440.899 58.9333 440.526 60.32L439.286 60.12C439.606 58.96 439.766 57.3867 439.766 55.4H432.526V54.32H441.086ZM460.17 65.56C457.437 65.9467 454.03 66.14 449.95 66.14V59.58H456.63V55.66H449.87V54.56H457.91V60.66H451.23V65.04C454.857 65.0667 457.784 64.8667 460.01 64.44L460.17 65.56ZM463.13 70.4H461.85V52.92H463.13V70.4ZM482.295 58.84H479.595V62.86H478.315V52.92H479.595V57.76H482.295V58.84ZM480.275 70.28H468.715V66.4H478.315V64.82H468.655V63.78H479.595V67.44H469.995V69.22H480.275V70.28ZM473.635 54.36H468.655V53.22H473.635V54.36ZM476.215 56.64H466.155V55.56H476.215V56.64ZM474.035 58.08C474.782 58.5333 475.155 59.18 475.155 60.02C475.155 60.86 474.788 61.5067 474.055 61.96C473.322 62.4133 472.348 62.64 471.135 62.64C469.975 62.64 469.022 62.4133 468.275 61.96C467.528 61.5067 467.155 60.86 467.155 60.02C467.155 59.18 467.522 58.5333 468.255 58.08C469.002 57.6267 469.962 57.4 471.135 57.4C472.322 57.4 473.288 57.6267 474.035 58.08ZM473.875 60.02C473.875 59.5133 473.615 59.1333 473.095 58.88C472.575 58.6133 471.922 58.48 471.135 58.48C470.348 58.48 469.702 58.6133 469.195 58.88C468.688 59.1333 468.435 59.5133 468.435 60.02C468.435 60.5133 468.695 60.9 469.215 61.18C469.735 61.4467 470.375 61.58 471.135 61.58C471.908 61.58 472.555 61.4467 473.075 61.18C473.608 60.9 473.875 60.5133 473.875 60.02ZM497.274 70.42H495.994V63.96H488.774V62.86H504.554V63.96H497.274V70.42ZM503.754 59.72L503.054 60.78C501.707 60.4867 500.414 59.94 499.174 59.14C497.947 58.3267 497.107 57.4467 496.654 56.5C496.227 57.4467 495.394 58.3333 494.154 59.16C492.927 59.9867 491.64 60.54 490.294 60.82L489.594 59.76C491.274 59.5333 492.76 58.92 494.054 57.92C495.347 56.9067 495.994 55.84 495.994 54.72V53.7H497.314V54.72C497.314 55.8133 498.007 56.88 499.394 57.92C500.794 58.96 502.247 59.56 503.754 59.72ZM525.572 63.08H524.292V52.92H525.572V63.08ZM513.072 55.1C513.926 54.3533 514.972 53.98 516.212 53.98C517.452 53.98 518.499 54.3533 519.352 55.1C520.219 55.8333 520.652 56.7933 520.652 57.98C520.652 59.1667 520.219 60.1333 519.352 60.88C518.499 61.6267 517.452 62 516.212 62C514.972 62 513.926 61.6333 513.072 60.9C512.219 60.1533 511.792 59.1867 511.792 58C511.792 56.8133 512.219 55.8467 513.072 55.1ZM516.212 55.08C515.319 55.08 514.572 55.3533 513.972 55.9C513.386 56.4333 513.092 57.1267 513.092 57.98C513.092 58.8333 513.392 59.5333 513.992 60.08C514.592 60.6267 515.332 60.9 516.212 60.9C517.146 60.9 517.899 60.6333 518.472 60.1C519.046 59.5667 519.332 58.8667 519.332 58C519.332 57.1333 519.046 56.4333 518.472 55.9C517.899 55.3533 517.146 55.08 516.212 55.08ZM526.392 70.42H526.372C525.719 70.0867 525.059 69.5867 524.392 68.92C523.739 68.24 523.299 67.5867 523.072 66.96C522.846 67.64 522.399 68.3333 521.732 69.04C521.066 69.7467 520.372 70.28 519.652 70.64L518.852 69.78C519.839 69.3 520.679 68.6133 521.372 67.72C522.079 66.8133 522.432 65.8667 522.432 64.88V63.68H523.712V64.78C523.712 65.7933 524.072 66.7533 524.792 67.66C525.512 68.5667 526.312 69.1867 527.192 69.52L526.392 70.42ZM519.872 68.32L518.952 69.22C518.446 68.94 517.972 68.58 517.532 68.14C517.092 67.6867 516.766 67.2 516.552 66.68C516.352 67.3467 515.906 68.0533 515.212 68.8C514.532 69.5333 513.806 70.0867 513.032 70.46L512.272 69.54C513.206 69.1533 514.039 68.5067 514.772 67.6C515.506 66.6933 515.872 65.74 515.872 64.74V63.7H517.152V64.6C517.152 65.5067 517.412 66.28 517.932 66.92C518.452 67.56 519.099 68.0267 519.872 68.32ZM543.457 58.46L542.837 59.48C541.49 59.2133 540.204 58.6867 538.977 57.9C537.75 57.1133 536.93 56.2867 536.517 55.42C536.157 56.2733 535.357 57.0933 534.117 57.88C532.877 58.6667 531.577 59.2 530.217 59.48L529.597 58.46C530.517 58.3533 531.45 58.08 532.397 57.64C533.357 57.2 534.17 56.62 534.837 55.9C535.517 55.18 535.857 54.4467 535.857 53.7V53.14H537.177V53.7C537.177 54.4467 537.517 55.18 538.197 55.9C538.877 56.62 539.69 57.2 540.637 57.64C541.597 58.08 542.537 58.3533 543.457 58.46ZM544.417 62.1H528.637V61H544.417V62.1ZM542.297 70.16H530.777V63.54H532.057V65.7H541.017V63.54H542.297V70.16ZM541.017 69.08V66.8H532.057V69.08H541.017ZM560.002 70.4H558.722V52.92H560.002V70.4ZM557.122 65.12C555.962 65.3733 554.408 65.5867 552.462 65.76C550.528 65.92 548.735 66 547.082 66V54.72H548.362V64.86C549.535 64.86 551.002 64.78 552.762 64.62C554.522 64.46 555.915 64.2667 556.942 64.04L557.122 65.12ZM579.526 61.04H576.606V70.4H575.326V52.92H576.606V59.96H579.526V61.04ZM573.886 65.4C571.033 65.92 567.753 66.12 564.046 66V54.74H572.186V55.84H565.326V64.86C566.593 64.9267 568.06 64.9067 569.726 64.8C571.406 64.68 572.733 64.5133 573.706 64.3L573.886 65.4ZM580.651 68.56V66.88H582.311V68.56H580.651Z" fill="black"/>
</svg>
