<svg width="946" height="510" viewBox="0 0 946 510" fill="none" xmlns="http://www.w3.org/2000/svg">
<path d="M51.72 402.6H47.94V401.52H51.72V397.92H53V407H51.72V402.6ZM48.82 405.36L48.1 406.38C47.1667 406.007 46.3133 405.473 45.54 404.78C44.78 404.087 44.2 403.287 43.8 402.38C43.2267 404.18 41.7667 405.687 39.42 406.9L38.64 405.92C39.88 405.413 40.9333 404.667 41.8 403.68C42.68 402.68 43.12 401.52 43.12 400.2V398.68H44.4V400.16C44.4 400.853 44.54 401.5 44.82 402.1C45.1 402.7 45.4733 403.213 45.94 403.64C46.4067 404.053 46.8733 404.4 47.34 404.68C47.82 404.96 48.3133 405.187 48.82 405.36ZM53.7 415.28H41.78V411.04H51.74V409.08H41.68V407.98H53.02V412.06H43.06V414.18H53.7V415.28ZM69.7647 404.84H58.1847V398.94H69.7647V404.84ZM68.4847 403.76V400.02H59.4647V403.76H68.4847ZM64.5647 411.74H63.2847V408.14H56.0647V407.04H71.8447V408.14H64.5647V411.74ZM69.9247 414.8H58.1647V409.98H59.4447V413.72H69.9247V414.8ZM93.5433 415.3H81.7233V411H91.5833V408.92H81.5833V407.86H92.8633V412H83.0033V414.22H93.5433V415.3ZM87.5833 398.94C86.9966 403.033 84.3366 405.873 79.6033 407.46L78.8433 406.44C80.8299 405.867 82.4366 405.02 83.6633 403.9C84.9033 402.767 85.7099 401.473 86.0833 400.02H79.7833V398.94H87.5833ZM87.7433 401.68V400.64H91.5833V397.92H92.8633V406.86H91.5833V404.8H87.5433V403.76H91.5833V401.68H87.7433ZM112.208 406.42H109.308V415.4H108.028V397.92H109.308V405.34H112.208V406.42ZM106.948 410.98C105.281 411.22 103.361 411.393 101.188 411.5C99.7746 411.58 97.988 411.62 95.828 411.62L95.608 410.46C97.8213 410.46 99.1413 410.453 99.568 410.44V404.88H100.848V410.4C103.088 410.347 105.088 410.18 106.848 409.9L106.948 410.98ZM105.548 399.94C105.561 401.167 105.508 402.533 105.388 404.04C105.281 405.533 105.135 406.74 104.948 407.66L103.708 407.54C103.828 406.847 103.941 405.833 104.048 404.5C104.155 403.153 104.208 401.993 104.208 401.02H96.568V399.94H105.548ZM117.313 399.54C118.419 399.54 119.286 400.02 119.913 400.98C120.553 401.927 120.906 403.233 120.973 404.9H123.273V398.26H124.553V414.54H123.273V405.98H120.973C120.906 407.633 120.553 408.933 119.913 409.88C119.273 410.813 118.406 411.28 117.313 411.28C116.139 411.28 115.226 410.76 114.573 409.72C113.933 408.667 113.613 407.227 113.613 405.4C113.613 403.573 113.933 402.14 114.573 401.1C115.226 400.06 116.139 399.54 117.313 399.54ZM119.053 408.9C119.479 408.047 119.693 406.88 119.693 405.4C119.693 403.92 119.479 402.76 119.053 401.92C118.626 401.08 118.046 400.66 117.313 400.66C116.566 400.66 115.979 401.08 115.553 401.92C115.126 402.76 114.913 403.92 114.913 405.4C114.913 406.88 115.126 408.047 115.553 408.9C115.979 409.74 116.566 410.16 117.313 410.16C118.046 410.16 118.626 409.74 119.053 408.9ZM127.953 415.4H126.673V397.92H127.953V415.4ZM152.071 406.04H149.431V415.4H148.151V397.92H149.431V404.96H152.071V406.04ZM141.311 410.14C139.738 410.5 138.105 410.68 136.411 410.68V399.78H140.691V400.88H137.691V409.52C138.771 409.52 139.918 409.367 141.131 409.06L141.311 410.14ZM147.351 410.18C145.925 410.513 144.078 410.68 141.811 410.68V399.78H146.351V400.88H143.091V409.52C144.758 409.52 146.111 409.387 147.151 409.12L147.351 410.18ZM167.076 406.22H155.216V401.9H165.476V399.82H155.176V398.74H166.756V402.92H156.496V405.14H167.076V406.22ZM168.876 409.14H153.096V408.06H168.876V409.14ZM166.956 414.78H155.196V410.32H156.476V413.7H166.956V414.78ZM189.575 402.5C189.575 403.607 189.035 404.5 187.955 405.18C186.875 405.847 185.395 406.18 183.515 406.18C181.648 406.18 180.175 405.847 179.095 405.18C178.028 404.513 177.495 403.62 177.495 402.5C177.495 401.38 178.028 400.487 179.095 399.82C180.175 399.14 181.648 398.8 183.515 398.8C185.395 398.8 186.875 399.14 187.955 399.82C189.035 400.487 189.575 401.38 189.575 402.5ZM183.515 399.94C182.061 399.94 180.915 400.173 180.075 400.64C179.235 401.107 178.815 401.727 178.815 402.5C178.815 403.287 179.235 403.907 180.075 404.36C180.915 404.813 182.061 405.04 183.515 405.04C184.995 405.04 186.155 404.813 186.995 404.36C187.835 403.907 188.255 403.287 188.255 402.5C188.255 401.727 187.828 401.107 186.975 400.64C186.135 400.173 184.981 399.94 183.515 399.94ZM181.135 415.4H179.855V409.1H175.655V408H191.435V409.1H187.195V415.4H185.915V409.1H181.135V415.4ZM205.759 410.18C206.746 410.7 207.239 411.427 207.239 412.36C207.239 413.293 206.746 414.02 205.759 414.54C204.786 415.06 203.359 415.32 201.479 415.32C199.613 415.32 198.193 415.06 197.219 414.54C196.259 414.02 195.779 413.293 195.779 412.36C195.779 411.413 196.259 410.68 197.219 410.16C198.193 409.64 199.613 409.38 201.479 409.38C203.359 409.38 204.786 409.647 205.759 410.18ZM201.479 410.46C200.093 410.46 199.013 410.627 198.239 410.96C197.479 411.293 197.099 411.76 197.099 412.36C197.099 412.96 197.479 413.42 198.239 413.74C199.013 414.06 200.093 414.22 201.479 414.22C202.893 414.22 203.979 414.067 204.739 413.76C205.513 413.44 205.899 412.973 205.899 412.36C205.899 411.747 205.513 411.28 204.739 410.96C203.966 410.627 202.879 410.46 201.479 410.46ZM202.819 403.7V402.6H205.919V397.92H207.199V409.34H205.919V406.96H202.819V405.88H205.919V403.7H202.819ZM200.479 399.52H195.479V398.4H200.479V399.52ZM202.779 401.9H192.979V400.8H202.779V401.9ZM201.859 405.76C201.859 406.627 201.486 407.327 200.739 407.86C200.006 408.38 199.073 408.64 197.939 408.64C196.793 408.64 195.853 408.38 195.119 407.86C194.386 407.34 194.019 406.64 194.019 405.76C194.019 404.88 194.386 404.18 195.119 403.66C195.853 403.14 196.793 402.88 197.939 402.88C199.086 402.88 200.026 403.14 200.759 403.66C201.493 404.18 201.859 404.88 201.859 405.76ZM199.819 407.08C200.326 406.747 200.579 406.307 200.579 405.76C200.579 405.213 200.326 404.78 199.819 404.46C199.313 404.127 198.686 403.96 197.939 403.96C197.193 403.96 196.559 404.127 196.039 404.46C195.533 404.78 195.279 405.213 195.279 405.76C195.279 406.307 195.539 406.747 196.059 407.08C196.579 407.4 197.206 407.56 197.939 407.56C198.686 407.56 199.313 407.4 199.819 407.08ZM214.344 399.54C215.451 399.54 216.317 400.02 216.944 400.98C217.584 401.927 217.937 403.233 218.004 404.9H220.304V398.26H221.584V414.54H220.304V405.98H218.004C217.937 407.633 217.584 408.933 216.944 409.88C216.304 410.813 215.437 411.28 214.344 411.28C213.171 411.28 212.257 410.76 211.604 409.72C210.964 408.667 210.644 407.227 210.644 405.4C210.644 403.573 210.964 402.14 211.604 401.1C212.257 400.06 213.171 399.54 214.344 399.54ZM216.084 408.9C216.511 408.047 216.724 406.88 216.724 405.4C216.724 403.92 216.511 402.76 216.084 401.92C215.657 401.08 215.077 400.66 214.344 400.66C213.597 400.66 213.011 401.08 212.584 401.92C212.157 402.76 211.944 403.92 211.944 405.4C211.944 406.88 212.157 408.047 212.584 408.9C213.011 409.74 213.597 410.16 214.344 410.16C215.077 410.16 215.657 409.74 216.084 408.9ZM224.984 415.4H223.704V397.92H224.984V415.4ZM249.103 406.04H246.463V415.4H245.183V397.92H246.463V404.96H249.103V406.04ZM238.343 410.14C236.769 410.5 235.136 410.68 233.443 410.68V399.78H237.723V400.88H234.723V409.52C235.803 409.52 236.949 409.367 238.163 409.06L238.343 410.14ZM244.383 410.18C242.956 410.513 241.109 410.68 238.843 410.68V399.78H243.383V400.88H240.123V409.52C241.789 409.52 243.143 409.387 244.183 409.12L244.383 410.18ZM266.407 406.14H263.487V415.4H262.207V397.92H263.487V405.04H266.407V406.14ZM260.727 410.48C257.687 410.933 254.387 411.16 250.827 411.16V404.58H257.387V400.66H250.827V399.56H258.667V405.66H252.107V410.04C253.267 410.04 254.694 409.987 256.387 409.88C258.094 409.76 259.487 409.593 260.567 409.38L260.727 410.48ZM288.986 403.78H286.366V408.28H284.306V397.76H286.366V402.06H288.986V403.78ZM281.406 398.9C281.352 401.247 280.606 403.187 279.166 404.72C277.739 406.253 275.812 407.313 273.386 407.9L272.346 406.3C274.026 405.98 275.519 405.313 276.826 404.3C278.132 403.287 278.906 402.053 279.146 400.6H273.206V398.9H281.406ZM286.386 415.64H284.326V410.76H274.646V409.14H286.386V415.64ZM306.29 403.78H303.67V408.28H301.61V397.76H303.67V402.06H306.29V403.78ZM298.71 398.9C298.657 401.247 297.91 403.187 296.47 404.72C295.044 406.253 293.117 407.313 290.69 407.9L289.65 406.3C291.33 405.98 292.824 405.313 294.13 404.3C295.437 403.287 296.21 402.053 296.45 400.6H290.51V398.9H298.71ZM303.69 415.64H301.63V410.76H291.95V409.14H303.69V415.64ZM317.415 403.42C317.415 404.633 316.968 405.613 316.075 406.36C315.195 407.107 314.088 407.48 312.755 407.48C311.435 407.48 310.342 407.107 309.475 406.36C308.622 405.6 308.195 404.62 308.195 403.42C308.195 402.193 308.628 401.18 309.495 400.38C310.375 399.567 311.462 399.16 312.755 399.16C314.088 399.16 315.195 399.56 316.075 400.36C316.968 401.16 317.415 402.18 317.415 403.42ZM315.355 403.4C315.355 402.653 315.108 402.053 314.615 401.6C314.122 401.147 313.502 400.92 312.755 400.92C312.048 400.92 311.442 401.153 310.935 401.62C310.442 402.087 310.195 402.68 310.195 403.4C310.195 404.093 310.442 404.66 310.935 405.1C311.442 405.527 312.048 405.74 312.755 405.74C313.475 405.74 314.088 405.527 314.595 405.1C315.102 404.66 315.355 404.093 315.355 403.4ZM322.035 397.76V415.58H319.995V397.76H322.035ZM318.995 409.38L319.155 411.02C315.582 411.407 311.635 411.613 307.315 411.64L306.995 409.88C309.355 409.907 311.328 409.873 312.915 409.78C315.315 409.687 317.342 409.553 318.995 409.38ZM344.714 415.58H342.754V406.56H340.914V414.74H338.974V398.12H340.914V404.84H342.754V397.76H344.714V415.58ZM337.234 399.88C337.234 402.427 336.694 404.753 335.614 406.86C334.534 408.953 332.927 410.74 330.794 412.22L329.474 410.8C331.647 409.413 333.214 407.687 334.174 405.62L330.034 406.16L329.694 404.42L334.794 403.94C334.994 403.22 335.127 402.427 335.194 401.56H330.454V399.88H337.234ZM361.658 408.46H359.618V397.76H361.658V408.46ZM361.678 415.58H359.638V411.02H349.678V409.38H361.678V415.58ZM357.438 405.44L357.698 407.06C355.792 407.46 353.278 407.66 350.158 407.66H347.898V402.28H353.818V400.38H347.818V398.76H355.878V403.84H349.958V406C353.505 406 355.998 405.813 357.438 405.44ZM372.323 404.24V405.9H367.063V409.82C370.103 409.82 372.523 409.64 374.323 409.28L374.623 410.9C372.863 411.273 370.29 411.473 366.903 411.5H365.043V399.36H373.203V400.98H367.063V404.24H372.323ZM378.963 415.58H376.923V405.98H373.703V404.28H376.923V397.76H378.963V415.58ZM397.708 407.48H381.608V405.94H397.708V407.48ZM396.128 415.44H383.668V411.32H393.608V410.12H383.608V408.64H395.648V412.76H385.708V413.98H396.128V415.44ZM395.928 404.86H383.728V400.86H393.488V399.72H383.688V398.22H395.548V402.24H385.788V403.36H395.928V404.86ZM418.266 405.82H406.166V398.44H408.186V400.58H416.226V398.4H418.266V405.82ZM413.206 415.6H411.166V409.6H404.166V407.94H420.266V409.6H413.206V415.6ZM416.226 404.16V402.2H408.186V404.16H416.226ZM431.231 408.84L431.271 407.2H434.091V403.12H431.271L431.231 401.46H434.091V397.76H436.151V415.58H434.091V408.84H431.231ZM422.851 409.92C422.051 408.773 421.651 407.253 421.651 405.36C421.651 403.467 422.051 401.947 422.851 400.8C423.664 399.653 424.758 399.08 426.131 399.08C427.504 399.08 428.598 399.653 429.411 400.8C430.224 401.947 430.631 403.473 430.631 405.38C430.631 407.26 430.224 408.773 429.411 409.92C428.598 411.067 427.504 411.64 426.131 411.64C424.758 411.64 423.664 411.067 422.851 409.92ZM427.951 408.74C428.418 407.9 428.651 406.773 428.651 405.36C428.651 403.947 428.418 402.827 427.951 402C427.498 401.16 426.891 400.74 426.131 400.74C425.384 400.74 424.784 401.16 424.331 402C423.878 402.827 423.651 403.947 423.651 405.36C423.651 406.773 423.878 407.9 424.331 408.74C424.784 409.58 425.384 410 426.131 410C426.891 410 427.498 409.58 427.951 408.74ZM453.656 415.4H452.376V406.38H449.956V414.48H448.696V398.36H449.956V405.3H452.376V397.92H453.656V415.4ZM446.096 405.44C446.762 406.053 447.096 406.86 447.096 407.86C447.096 408.86 446.762 409.667 446.096 410.28C445.429 410.893 444.556 411.2 443.476 411.2C442.422 411.2 441.556 410.887 440.876 410.26C440.209 409.62 439.876 408.82 439.876 407.86C439.876 406.847 440.209 406.033 440.876 405.42C441.542 404.807 442.409 404.5 443.476 404.5C444.556 404.5 445.429 404.813 446.096 405.44ZM445.856 407.86C445.856 407.18 445.629 406.633 445.176 406.22C444.736 405.807 444.169 405.6 443.476 405.6C442.782 405.6 442.209 405.813 441.756 406.24C441.316 406.653 441.096 407.193 441.096 407.86C441.096 408.54 441.316 409.087 441.756 409.5C442.209 409.913 442.782 410.12 443.476 410.12C444.169 410.12 444.736 409.907 445.176 409.48C445.629 409.053 445.856 408.513 445.856 407.86ZM447.716 403.26H438.956V402.18H447.716V403.26ZM445.736 400.5H441.096V399.38H445.736V400.5ZM53 453.4H51.72V443.36H47.58V442.28H51.72V435.92H53V453.4ZM49.18 448.1L48.36 449.08C47.4667 448.48 46.6067 447.673 45.78 446.66C44.9533 445.647 44.3667 444.613 44.02 443.56C43.7133 444.653 43.1667 445.72 42.38 446.76C41.6067 447.787 40.68 448.713 39.6 449.54L38.72 448.58C40 447.807 41.0933 446.693 42 445.24C42.9067 443.773 43.36 442.313 43.36 440.86V437.44H44.68V440.84C44.68 442.32 45.12 443.727 46 445.06C46.88 446.393 47.94 447.407 49.18 448.1ZM71.8447 451.16H56.0647V450.06H63.2847V446.82H58.1647V441.42H68.4647V438.46H58.1647V437.38H69.7447V442.5H59.4447V445.74H70.2047V446.82H64.5647V450.06H71.8447V451.16ZM91.0233 447.74C92.0633 448.3 92.5833 449.087 92.5833 450.1C92.5833 451.113 92.0633 451.9 91.0233 452.46C89.9833 453.02 88.4833 453.3 86.5233 453.3C84.5766 453.3 83.0766 453.02 82.0233 452.46C80.9833 451.9 80.4633 451.113 80.4633 450.1C80.4633 449.087 80.9833 448.3 82.0233 447.74C83.0766 447.18 84.5766 446.9 86.5233 446.9C88.4833 446.9 89.9833 447.18 91.0233 447.74ZM89.9833 448.52C89.1433 448.147 87.9899 447.96 86.5233 447.96C85.0566 447.96 83.8966 448.147 83.0433 448.52C82.2033 448.893 81.7833 449.42 81.7833 450.1C81.7833 450.793 82.2033 451.327 83.0433 451.7C83.8833 452.06 85.0433 452.24 86.5233 452.24C88.0033 452.24 89.1633 452.06 90.0033 451.7C90.8433 451.327 91.2633 450.793 91.2633 450.1C91.2633 449.42 90.8366 448.893 89.9833 448.52ZM94.4033 445.22H78.6233V444.12H85.3633V440.52H86.6433V444.12H94.4033V445.22ZM92.3833 436.92V438.56C92.3833 440.107 92.2099 441.56 91.8633 442.92L90.6033 442.74C90.8966 441.673 91.0433 440.54 91.0433 439.34L91.0633 438.02H80.6033V436.92H92.3833ZM109.848 440.5C109.848 441.607 109.308 442.5 108.228 443.18C107.148 443.847 105.668 444.18 103.788 444.18C101.921 444.18 100.448 443.847 99.368 443.18C98.3013 442.513 97.768 441.62 97.768 440.5C97.768 439.38 98.3013 438.487 99.368 437.82C100.448 437.14 101.921 436.8 103.788 436.8C105.668 436.8 107.148 437.14 108.228 437.82C109.308 438.487 109.848 439.38 109.848 440.5ZM103.788 437.94C102.335 437.94 101.188 438.173 100.348 438.64C99.508 439.107 99.088 439.727 99.088 440.5C99.088 441.287 99.508 441.907 100.348 442.36C101.188 442.813 102.335 443.04 103.788 443.04C105.268 443.04 106.428 442.813 107.268 442.36C108.108 441.907 108.528 441.287 108.528 440.5C108.528 439.727 108.101 439.107 107.248 438.64C106.408 438.173 105.255 437.94 103.788 437.94ZM101.408 453.4H100.128V447.1H95.928V446H111.708V447.1H107.468V453.4H106.188V447.1H101.408V453.4ZM129.513 444.46H126.593V453.4H125.313V435.92H126.593V443.36H129.513V444.46ZM120.753 438.34H115.693V437.2H120.753V438.34ZM123.393 441.24H113.173V440.16H123.393V441.24ZM122.453 446.08C122.453 447.093 122.079 447.94 121.333 448.62C120.586 449.287 119.619 449.62 118.433 449.62C117.246 449.62 116.273 449.287 115.513 448.62C114.766 447.94 114.393 447.093 114.393 446.08C114.393 445.053 114.766 444.2 115.513 443.52C116.259 442.84 117.233 442.5 118.433 442.5C119.619 442.5 120.586 442.84 121.333 443.52C122.079 444.2 122.453 445.053 122.453 446.08ZM120.393 447.86C120.913 447.393 121.173 446.8 121.173 446.08C121.173 445.36 120.913 444.767 120.393 444.3C119.873 443.833 119.219 443.6 118.433 443.6C117.646 443.6 116.993 443.833 116.473 444.3C115.953 444.767 115.693 445.36 115.693 446.08C115.693 446.8 115.953 447.393 116.473 447.86C116.993 448.327 117.646 448.56 118.433 448.56C119.219 448.56 119.873 448.327 120.393 447.86ZM140.157 441.2V440.16H143.477V435.92H144.757V453.4H143.477V446.1H140.157V445.04H143.477V441.2H140.157ZM139.017 448.88H131.277V437.78H139.017V448.88ZM137.757 447.78V438.88H132.557V447.78H137.757ZM169.176 441.6H166.456V445.4H165.176V435.92H166.456V440.52H169.176V441.6ZM166.896 453.16H155.616V446.36H166.496V447.42H156.896V449.2H166.236V450.22H156.896V452.12H166.896V453.16ZM153.756 437.12H161.596C161.089 441.36 158.449 444.3 153.676 445.94L152.996 444.9C154.969 444.313 156.569 443.427 157.796 442.24C159.023 441.04 159.789 439.7 160.096 438.22H153.756V437.12ZM186.181 446.1H170.401V445H186.181V446.1ZM184.261 452.82H172.501V447.8H173.781V451.74H184.261V452.82ZM182.661 437.38C183.687 437.927 184.201 438.747 184.201 439.84C184.201 440.933 183.687 441.76 182.661 442.32C181.634 442.867 180.174 443.14 178.281 443.14C176.401 443.14 174.947 442.867 173.921 442.32C172.894 441.76 172.381 440.933 172.381 439.84C172.381 438.747 172.894 437.927 173.921 437.38C174.961 436.82 176.421 436.54 178.301 436.54C180.181 436.54 181.634 436.82 182.661 437.38ZM178.301 437.62C176.874 437.62 175.747 437.807 174.921 438.18C174.107 438.553 173.701 439.107 173.701 439.84C173.701 440.56 174.107 441.113 174.921 441.5C175.734 441.873 176.854 442.06 178.281 442.06C179.721 442.06 180.854 441.873 181.681 441.5C182.521 441.113 182.941 440.56 182.941 439.84C182.941 439.107 182.527 438.553 181.701 438.18C180.874 437.807 179.741 437.62 178.301 437.62ZM206.879 440.5C206.879 441.607 206.339 442.5 205.259 443.18C204.179 443.847 202.699 444.18 200.819 444.18C198.953 444.18 197.479 443.847 196.399 443.18C195.333 442.513 194.799 441.62 194.799 440.5C194.799 439.38 195.333 438.487 196.399 437.82C197.479 437.14 198.953 436.8 200.819 436.8C202.699 436.8 204.179 437.14 205.259 437.82C206.339 438.487 206.879 439.38 206.879 440.5ZM200.819 437.94C199.366 437.94 198.219 438.173 197.379 438.64C196.539 439.107 196.119 439.727 196.119 440.5C196.119 441.287 196.539 441.907 197.379 442.36C198.219 442.813 199.366 443.04 200.819 443.04C202.299 443.04 203.459 442.813 204.299 442.36C205.139 441.907 205.559 441.287 205.559 440.5C205.559 439.727 205.133 439.107 204.279 438.64C203.439 438.173 202.286 437.94 200.819 437.94ZM198.439 453.4H197.159V447.1H192.959V446H208.739V447.1H204.499V453.4H203.219V447.1H198.439V453.4ZM223.064 448.18C224.051 448.7 224.544 449.427 224.544 450.36C224.544 451.293 224.051 452.02 223.064 452.54C222.091 453.06 220.664 453.32 218.784 453.32C216.917 453.32 215.497 453.06 214.524 452.54C213.564 452.02 213.084 451.293 213.084 450.36C213.084 449.413 213.564 448.68 214.524 448.16C215.497 447.64 216.917 447.38 218.784 447.38C220.664 447.38 222.091 447.647 223.064 448.18ZM218.784 448.46C217.397 448.46 216.317 448.627 215.544 448.96C214.784 449.293 214.404 449.76 214.404 450.36C214.404 450.96 214.784 451.42 215.544 451.74C216.317 452.06 217.397 452.22 218.784 452.22C220.197 452.22 221.284 452.067 222.044 451.76C222.817 451.44 223.204 450.973 223.204 450.36C223.204 449.747 222.817 449.28 222.044 448.96C221.271 448.627 220.184 448.46 218.784 448.46ZM220.124 441.7V440.6H223.224V435.92H224.504V447.34H223.224V444.96H220.124V443.88H223.224V441.7H220.124ZM217.784 437.52H212.784V436.4H217.784V437.52ZM220.084 439.9H210.284V438.8H220.084V439.9ZM219.164 443.76C219.164 444.627 218.791 445.327 218.044 445.86C217.311 446.38 216.377 446.64 215.244 446.64C214.097 446.64 213.157 446.38 212.424 445.86C211.691 445.34 211.324 444.64 211.324 443.76C211.324 442.88 211.691 442.18 212.424 441.66C213.157 441.14 214.097 440.88 215.244 440.88C216.391 440.88 217.331 441.14 218.064 441.66C218.797 442.18 219.164 442.88 219.164 443.76ZM217.124 445.08C217.631 444.747 217.884 444.307 217.884 443.76C217.884 443.213 217.631 442.78 217.124 442.46C216.617 442.127 215.991 441.96 215.244 441.96C214.497 441.96 213.864 442.127 213.344 442.46C212.837 442.78 212.584 443.213 212.584 443.76C212.584 444.307 212.844 444.747 213.364 445.08C213.884 445.4 214.511 445.56 215.244 445.56C215.991 445.56 216.617 445.4 217.124 445.08ZM243.349 444.7H227.569V443.66H243.349V444.7ZM241.889 453.1H229.529V449.24H239.929V447.48H229.469V446.4H241.209V450.26H230.809V452.04H241.889V453.1ZM241.409 439.38C241.409 440.38 240.889 441.127 239.849 441.62C238.809 442.113 237.349 442.36 235.469 442.36C233.615 442.36 232.162 442.113 231.109 441.62C230.069 441.113 229.549 440.367 229.549 439.38C229.549 438.393 230.069 437.653 231.109 437.16C232.162 436.653 233.615 436.4 235.469 436.4C237.349 436.4 238.809 436.653 239.849 437.16C240.889 437.653 241.409 438.393 241.409 439.38ZM238.869 437.94C238.029 437.607 236.895 437.44 235.469 437.44C234.042 437.44 232.915 437.607 232.089 437.94C231.275 438.273 230.869 438.753 230.869 439.38C230.869 440.007 231.275 440.487 232.089 440.82C232.915 441.14 234.042 441.3 235.469 441.3C236.895 441.3 238.029 441.14 238.869 440.82C239.709 440.487 240.129 440.007 240.129 439.38C240.129 438.753 239.709 438.273 238.869 437.94ZM263.487 435.92V443.38H266.447V444.48H263.487V453.4H262.207V435.92H263.487ZM258.887 437.82C258.834 440.553 258.101 442.92 256.687 444.92C255.274 446.92 253.407 448.547 251.087 449.8L250.307 448.78C252.507 447.687 254.221 446.287 255.447 444.58C256.687 442.86 257.387 440.973 257.547 438.92H250.887V437.82H258.887ZM268.192 438.68V437.6H277.612V438.68H273.512V439.88C273.512 440.973 273.952 442.007 274.832 442.98C275.712 443.953 276.712 444.62 277.832 444.98L277.132 446.04C276.225 445.667 275.365 445.107 274.552 444.36C273.752 443.613 273.179 442.847 272.832 442.06C272.632 442.833 272.079 443.66 271.172 444.54C270.279 445.407 269.339 446.06 268.352 446.5L267.612 445.54C268.799 445.06 269.865 444.28 270.812 443.2C271.759 442.107 272.232 441 272.232 439.88V438.68H268.192ZM282.052 452.84H270.512V447.54H271.792V451.76H282.052V452.84ZM281.672 448.62H280.392V435.92H281.672V448.62ZM306.27 444.16H303.35V453.4H302.07V435.92H303.35V443.06H306.27V444.16ZM300.27 448.1L299.41 449.12C298.49 448.467 297.597 447.64 296.73 446.64C295.864 445.627 295.27 444.613 294.95 443.6C294.644 444.68 294.09 445.74 293.29 446.78C292.504 447.807 291.564 448.74 290.47 449.58L289.59 448.58C290.87 447.793 291.97 446.673 292.89 445.22C293.824 443.767 294.29 442.313 294.29 440.86V437.56H295.61V440.84C295.61 442.32 296.07 443.727 296.99 445.06C297.91 446.38 299.004 447.393 300.27 448.1ZM323.375 441.76H320.655V446.36H319.375V435.92H320.655V440.66H323.375V441.76ZM320.675 453.14H309.515V447.4H320.675V453.14ZM319.395 452.06V448.48H310.775V452.06H319.395ZM317.615 445.18C314.855 445.567 311.648 445.753 307.995 445.74V440.62H314.315V438.04H307.975V436.96H315.595V441.72H309.275V444.62C312.408 444.687 315.135 444.507 317.455 444.08L317.615 445.18ZM340.38 444.5H324.6V443.48H340.38V444.5ZM338.86 453.1H326.52V449H336.98V447.18H326.48V446.14H338.26V450.02H327.8V452.06H338.86V453.1ZM338.46 441.78H326.66V436.72H338.28V437.76H327.94V440.74H338.46V441.78ZM356.125 453.4H354.845V435.92H356.125V453.4ZM347.205 437.86C347.205 439.913 346.818 441.953 346.045 443.98C345.285 446.007 344.185 447.78 342.745 449.3L341.645 448.54C342.885 447.42 343.891 445.92 344.665 444.04C345.438 442.16 345.845 440.467 345.885 438.96H342.485V437.86H347.205ZM352.265 437.86C352.265 442.953 350.891 447.14 348.145 450.42L347.005 449.7C347.711 449.007 348.331 448.147 348.865 447.12C349.411 446.093 349.825 445.067 350.105 444.04C350.398 443 350.611 442.053 350.745 441.2C350.891 440.333 350.965 439.587 350.965 438.96H348.105V437.86H352.265ZM370.469 448.56C367.736 448.947 364.329 449.14 360.249 449.14V442.58H366.929V438.66H360.169V437.56H368.209V443.66H361.529V448.04C365.156 448.067 368.083 447.867 370.309 447.44L370.469 448.56ZM373.429 453.4H372.149V435.92H373.429V453.4ZM389.474 435.92H390.754V453.4H389.474V435.92ZM386.634 441.46C386.634 442.62 386.194 443.573 385.314 444.32C384.434 445.067 383.361 445.44 382.094 445.44C380.814 445.44 379.734 445.06 378.854 444.3C377.974 443.527 377.534 442.58 377.534 441.46C377.534 440.273 377.974 439.3 378.854 438.54C379.734 437.78 380.814 437.4 382.094 437.4C383.401 437.4 384.481 437.773 385.334 438.52C386.201 439.253 386.634 440.233 386.634 441.46ZM385.334 441.46C385.334 440.567 385.021 439.853 384.394 439.32C383.781 438.787 383.014 438.52 382.094 438.52C381.187 438.52 380.414 438.8 379.774 439.36C379.147 439.907 378.834 440.607 378.834 441.46C378.834 442.287 379.147 442.973 379.774 443.52C380.401 444.053 381.174 444.32 382.094 444.32C382.987 444.32 383.747 444.053 384.374 443.52C385.014 442.973 385.334 442.287 385.334 441.46ZM388.374 448.92C387.081 449.067 385.054 449.213 382.294 449.36C380.334 449.453 378.527 449.513 376.874 449.54L376.654 448.36C378.441 448.387 380.301 448.347 382.234 448.24C385.194 448.12 387.201 447.987 388.254 447.84L388.374 448.92ZM414.173 453.46H401.973V448.76H411.533V447.3H401.853V445.66H413.573V450.28H404.033V451.82H414.173V453.46ZM408.053 436.6C408.013 437.773 407.766 438.853 407.313 439.84C406.859 440.827 406.253 441.667 405.493 442.36C404.733 443.053 403.899 443.633 402.993 444.1C402.086 444.567 401.099 444.933 400.033 445.2L398.972 443.54C400.719 443.22 402.206 442.6 403.433 441.68C404.659 440.747 405.433 439.62 405.753 438.3H399.853V436.6H408.053ZM413.573 444.72H411.533V443.04H407.973V441.48H411.533V439.82H408.273V438.24H411.533V435.76H413.573V444.72ZM432.317 446.04H416.217V444.4H423.237V441.84H425.277V444.4H432.317V446.04ZM431.637 441.16L430.737 442.78C429.391 442.553 428.084 442.073 426.817 441.34C425.551 440.593 424.704 439.753 424.277 438.82C423.864 439.767 423.044 440.607 421.817 441.34C420.591 442.06 419.264 442.533 417.837 442.76L416.957 441.16C418.571 440.987 420.017 440.467 421.297 439.6C422.591 438.733 423.237 437.687 423.237 436.46V435.9H425.357V436.46C425.357 437.287 425.711 438.067 426.417 438.8C427.124 439.52 427.951 440.08 428.897 440.48C429.844 440.88 430.757 441.107 431.637 441.16ZM418.097 447.66H430.237V453.64H428.197V449.3H418.097V447.66ZM449.982 441.7H447.362V445.76H445.302V435.76H447.362V439.98H449.982V441.7ZM442.402 436.9C442.349 439.233 441.602 441.16 440.162 442.68C438.735 444.187 436.809 445.247 434.382 445.86L433.342 444.24C435.022 443.92 436.515 443.267 437.822 442.28C439.129 441.28 439.902 440.053 440.142 438.6H434.222V436.9H442.402ZM447.362 453.36H435.962V446.64H447.362V453.36ZM445.302 451.74V448.26H438.022V451.74H445.302ZM466.927 444.92H450.827V443.28H466.927V444.92ZM465.447 453.46H452.887V449.06H462.727V447.82H452.787V446.2H464.787V450.56H454.927V451.84H465.447V453.46ZM458.907 435.86C460.853 435.86 462.373 436.153 463.467 436.74C464.56 437.313 465.107 438.08 465.107 439.04C465.107 440 464.56 440.767 463.467 441.34C462.373 441.913 460.853 442.2 458.907 442.2C456.973 442.2 455.46 441.913 454.367 441.34C453.287 440.767 452.747 440 452.747 439.04C452.747 438.08 453.287 437.313 454.367 436.74C455.46 436.153 456.973 435.86 458.907 435.86ZM461.907 437.88C461.187 437.587 460.187 437.44 458.907 437.44C457.627 437.44 456.627 437.587 455.907 437.88C455.187 438.16 454.827 438.547 454.827 439.04C454.827 439.52 455.187 439.9 455.907 440.18C456.627 440.46 457.627 440.6 458.907 440.6C460.187 440.6 461.187 440.46 461.907 440.18C462.64 439.9 463.007 439.52 463.007 439.04C463.007 438.547 462.64 438.16 461.907 437.88ZM54.7 489.18H38.6V487.54H54.7V489.18ZM52.78 482.98H40.62V475.3H42.66V481.36H52.78V482.98ZM71.1647 491.44H58.9447V486.76H68.5447V485.3H58.8647V483.64H70.5847V488.28H61.0047V489.82H71.1647V491.44ZM70.5647 482.74H68.5847V473.76H70.5647V482.74ZM56.5847 474.64H61.2847C61.2847 477.827 59.9247 480.28 57.2047 482L55.9047 480.74C56.878 480.26 57.658 479.633 58.2447 478.86C58.8314 478.073 59.178 477.227 59.2847 476.32H56.5847V474.64ZM62.0247 474.64H66.4047C66.4047 476.467 66.0714 478.033 65.4047 479.34C64.738 480.633 63.718 481.793 62.3447 482.82L60.9247 481.6C63.0047 480.347 64.1514 478.587 64.3647 476.32H62.0247V474.64ZM87.5033 491.6H85.4633V485.12H78.4633V483.5H94.5633V485.12H87.5033V491.6ZM93.8833 480.08L92.9433 481.74C91.5966 481.513 90.2966 481.007 89.0433 480.22C87.8033 479.433 86.9633 478.553 86.5233 477.58C86.1499 478.54 85.3433 479.413 84.1033 480.2C82.8633 480.987 81.5433 481.507 80.1433 481.76L79.2433 480.08C80.8833 479.893 82.3299 479.32 83.5833 478.36C84.8366 477.4 85.4633 476.3 85.4633 475.06V474.16H87.6233V475.06C87.6233 475.873 87.9433 476.66 88.5833 477.42C89.2366 478.167 90.0366 478.773 90.9833 479.24C91.9433 479.707 92.9099 479.987 93.8833 480.08ZM113.622 473.76H115.682V483.72H113.622V473.76ZM109.282 475.94C110.175 476.74 110.622 477.753 110.622 478.98C110.622 480.207 110.182 481.2 109.302 481.96C108.435 482.707 107.349 483.08 106.042 483.08C104.749 483.08 103.662 482.707 102.782 481.96C101.902 481.2 101.462 480.207 101.462 478.98C101.462 477.767 101.902 476.76 102.782 475.96C103.675 475.147 104.762 474.74 106.042 474.74C107.322 474.74 108.402 475.14 109.282 475.94ZM108.622 478.96C108.622 478.24 108.382 477.64 107.902 477.16C107.435 476.667 106.815 476.42 106.042 476.42C105.282 476.42 104.662 476.667 104.182 477.16C103.702 477.653 103.462 478.253 103.462 478.96C103.462 479.707 103.702 480.32 104.182 480.8C104.662 481.28 105.282 481.52 106.042 481.52C106.802 481.52 107.422 481.28 107.902 480.8C108.382 480.307 108.622 479.693 108.622 478.96ZM117.402 490.04L116.282 491.52C115.655 491.24 115.015 490.787 114.362 490.16C113.722 489.547 113.295 488.927 113.082 488.3C112.909 488.94 112.495 489.593 111.842 490.26C111.189 490.94 110.502 491.46 109.782 491.82L108.622 490.44C109.675 489.96 110.509 489.28 111.122 488.4C111.749 487.52 112.062 486.52 112.062 485.4V484.58H114.042V485.38C114.042 486.473 114.349 487.433 114.962 488.26C115.575 489.087 116.389 489.68 117.402 490.04ZM108.422 490.06C108.062 489.873 107.702 489.613 107.342 489.28C106.982 488.933 106.715 488.58 106.542 488.22C106.329 488.927 105.902 489.593 105.262 490.22C104.635 490.847 103.909 491.34 103.082 491.7L101.962 490.32C102.962 489.893 103.795 489.26 104.462 488.42C105.129 487.567 105.462 486.6 105.462 485.52V484.68H107.462V485.42C107.462 486.247 107.695 486.94 108.162 487.5C108.629 488.06 109.155 488.433 109.742 488.62L108.422 490.06ZM134.427 484.3H118.327V482.64H134.427V484.3ZM132.447 480.46H120.507V474.34H122.567V478.82H132.447V480.46ZM132.567 491.1H120.407V485.86H122.467V489.46H132.567V491.1ZM155.905 491.58H153.945V482.56H152.185V490.74H150.245V474.12H152.185V480.84H153.945V473.76H155.905V491.58ZM149.705 485.92L148.505 487.4C147.865 487 147.218 486.38 146.565 485.54C145.925 484.687 145.492 483.853 145.265 483.04C145.065 483.907 144.632 484.8 143.965 485.72C143.298 486.627 142.572 487.32 141.785 487.8L140.505 486.42C143.025 484.753 144.285 482.193 144.285 478.74V477.5H141.145V475.86H149.205V477.5H146.285V478.68C146.285 480.4 146.592 481.887 147.205 483.14C147.832 484.393 148.665 485.32 149.705 485.92ZM172.85 491.58H170.81V473.76H172.85V491.58ZM165.37 485.34V477.12H161.13V485.34H165.37ZM167.45 475.48V487H159.07V475.48H167.45ZM191.595 483.48H175.495V481.94H191.595V483.48ZM190.015 491.44H177.555V487.32H187.495V486.12H177.495V484.64H189.535V488.76H179.595V489.98H190.015V491.44ZM189.815 480.86H177.615V476.86H187.375V475.72H177.575V474.22H189.435V478.24H179.675V479.36H189.815V480.86ZM206.873 485.96L205.673 487.44C205.033 487.04 204.386 486.42 203.733 485.58C203.093 484.727 202.66 483.893 202.433 483.08C202.233 483.947 201.8 484.84 201.133 485.76C200.466 486.667 199.74 487.36 198.953 487.84L197.673 486.46C200.193 484.793 201.453 482.233 201.453 478.78V477.46H198.313V475.8H206.373V477.46H203.453V478.72C203.453 480.44 203.76 481.927 204.373 483.18C205 484.433 205.833 485.36 206.873 485.96ZM209.533 490.74H207.613V481.8H205.173V480.1H207.613V474.12H209.533V490.74ZM213.073 491.58H211.113V473.76H213.073V491.58ZM227.838 485.74C228.918 486.34 229.458 487.16 229.458 488.2C229.458 489.24 228.918 490.06 227.838 490.66C226.758 491.26 225.238 491.56 223.278 491.56C221.318 491.56 219.791 491.253 218.698 490.64C217.604 490.04 217.058 489.227 217.058 488.2C217.058 487.16 217.604 486.34 218.698 485.74C219.791 485.127 221.318 484.82 223.278 484.82C225.238 484.82 226.758 485.127 227.838 485.74ZM231.458 483.28H215.358V481.66H221.618V478.48H223.678V481.66H231.458V483.28ZM229.378 474.46C229.444 476.793 229.264 478.88 228.838 480.72L226.858 480.44C227.204 479.053 227.358 477.607 227.318 476.1H217.258V474.46H229.378ZM223.278 486.48C221.998 486.48 220.991 486.633 220.258 486.94C219.538 487.233 219.178 487.653 219.178 488.2C219.178 488.76 219.538 489.187 220.258 489.48C220.991 489.773 221.998 489.92 223.278 489.92C224.558 489.92 225.558 489.773 226.278 489.48C226.998 489.187 227.358 488.76 227.358 488.2C227.358 487.653 226.991 487.233 226.258 486.94C225.538 486.633 224.544 486.48 223.278 486.48ZM249.103 482.46H246.183V491.4H244.903V473.92H246.183V481.36H249.103V482.46ZM240.343 476.34H235.283V475.2H240.343V476.34ZM242.983 479.24H232.763V478.16H242.983V479.24ZM242.043 484.08C242.043 485.093 241.669 485.94 240.923 486.62C240.176 487.287 239.209 487.62 238.023 487.62C236.836 487.62 235.863 487.287 235.103 486.62C234.356 485.94 233.983 485.093 233.983 484.08C233.983 483.053 234.356 482.2 235.103 481.52C235.849 480.84 236.823 480.5 238.023 480.5C239.209 480.5 240.176 480.84 240.923 481.52C241.669 482.2 242.043 483.053 242.043 484.08ZM239.983 485.86C240.503 485.393 240.763 484.8 240.763 484.08C240.763 483.36 240.503 482.767 239.983 482.3C239.463 481.833 238.809 481.6 238.023 481.6C237.236 481.6 236.583 481.833 236.063 482.3C235.543 482.767 235.283 483.36 235.283 484.08C235.283 484.8 235.543 485.393 236.063 485.86C236.583 486.327 237.236 486.56 238.023 486.56C238.809 486.56 239.463 486.327 239.983 485.86ZM254.747 474.92C255.961 474.92 256.987 475.293 257.827 476.04C258.681 476.787 259.107 477.767 259.107 478.98C259.107 480.193 258.681 481.18 257.827 481.94C256.987 482.687 255.961 483.06 254.747 483.06C253.521 483.06 252.487 482.687 251.647 481.94C250.807 481.193 250.387 480.213 250.387 479C250.387 477.787 250.807 476.807 251.647 476.06C252.487 475.3 253.521 474.92 254.747 474.92ZM254.747 476.02C253.867 476.02 253.134 476.3 252.547 476.86C251.974 477.407 251.687 478.113 251.687 478.98C251.687 479.847 251.974 480.56 252.547 481.12C253.134 481.68 253.867 481.96 254.747 481.96C255.667 481.96 256.407 481.687 256.967 481.14C257.527 480.593 257.807 479.88 257.807 479C257.807 478.12 257.527 477.407 256.967 476.86C256.407 476.3 255.667 476.02 254.747 476.02ZM259.687 477.36V476.28H263.087V473.92H264.367V484.18H263.087V481.4H259.687V480.32H263.087V477.36H259.687ZM265.167 491.42H265.147C264.494 491.087 263.834 490.587 263.167 489.92C262.501 489.24 262.061 488.587 261.847 487.96C261.621 488.64 261.174 489.333 260.507 490.04C259.841 490.747 259.147 491.28 258.427 491.64L257.627 490.78C258.614 490.3 259.454 489.613 260.147 488.72C260.854 487.813 261.207 486.867 261.207 485.88V484.68H262.487V485.78C262.487 486.793 262.847 487.753 263.567 488.66C264.287 489.567 265.087 490.187 265.967 490.52L265.167 491.42ZM258.647 489.32L257.727 490.22C257.221 489.94 256.747 489.58 256.307 489.14C255.867 488.687 255.541 488.2 255.327 487.68C255.127 488.347 254.681 489.053 253.987 489.8C253.307 490.533 252.581 491.087 251.807 491.46L251.047 490.54C251.981 490.153 252.814 489.507 253.547 488.6C254.281 487.693 254.647 486.74 254.647 485.74V484.7H255.927V485.6C255.927 486.507 256.187 487.28 256.707 487.92C257.227 488.56 257.874 489.027 258.647 489.32ZM282.252 479.46L281.632 480.48C280.285 480.213 278.999 479.687 277.772 478.9C276.545 478.113 275.725 477.287 275.312 476.42C274.952 477.273 274.152 478.093 272.912 478.88C271.672 479.667 270.372 480.2 269.012 480.48L268.392 479.46C269.312 479.353 270.245 479.08 271.192 478.64C272.152 478.2 272.965 477.62 273.632 476.9C274.312 476.18 274.652 475.447 274.652 474.7V474.14H275.972V474.7C275.972 475.447 276.312 476.18 276.992 476.9C277.672 477.62 278.485 478.2 279.432 478.64C280.392 479.08 281.332 479.353 282.252 479.46ZM283.212 483.1H267.432V482H283.212V483.1ZM281.092 491.16H269.572V484.54H270.852V486.7H279.812V484.54H281.092V491.16ZM279.812 490.08V487.8H270.852V490.08H279.812ZM298.797 491.4H297.517V473.92H298.797V491.4ZM295.917 486.12C294.757 486.373 293.203 486.587 291.257 486.76C289.323 486.92 287.53 487 285.877 487V475.72H287.157V485.86C288.33 485.86 289.797 485.78 291.557 485.62C293.317 485.46 294.71 485.267 295.737 485.04L295.917 486.12ZM318.321 482.04H315.401V491.4H314.121V473.92H315.401V480.96H318.321V482.04ZM312.681 486.4C309.828 486.92 306.548 487.12 302.841 487V475.74H310.981V476.84H304.121V485.86C305.388 485.927 306.855 485.907 308.521 485.8C310.201 485.68 311.528 485.513 312.501 485.3L312.681 486.4ZM319.446 489.56V487.88H321.106V489.56H319.446Z" fill="black"/>
<path d="M125.78 325.12H123.59V332.05H122.63V318.94H123.59V324.295H125.78V325.12ZM121.28 328.075L120.635 328.84C119.945 328.35 119.275 327.73 118.625 326.98C117.975 326.22 117.53 325.46 117.29 324.7C117.06 325.51 116.645 326.305 116.045 327.085C115.455 327.855 114.75 328.555 113.93 329.185L113.27 328.435C114.23 327.845 115.055 327.005 115.745 325.915C116.445 324.825 116.795 323.735 116.795 322.645V320.17H117.785V322.63C117.785 323.74 118.13 324.795 118.82 325.795C119.51 326.785 120.33 327.545 121.28 328.075ZM135.444 329.38C134.504 329.5 132.944 329.63 130.764 329.77C129.174 329.87 127.854 329.925 126.804 329.935L126.639 329.065C127.579 329.065 128.834 329.025 130.404 328.945V327.49C129.614 327.42 128.984 327.2 128.514 326.83C128.044 326.45 127.809 325.965 127.809 325.375C127.809 324.715 128.089 324.195 128.649 323.815C129.209 323.435 129.944 323.245 130.854 323.245C131.774 323.245 132.509 323.435 133.059 323.815C133.609 324.185 133.884 324.705 133.884 325.375C133.884 325.965 133.654 326.445 133.194 326.815C132.744 327.185 132.124 327.41 131.334 327.49V328.9C133.544 328.75 134.884 328.64 135.354 328.57L135.444 329.38ZM137.214 332.05H136.254V318.94H137.214V332.05ZM132.909 325.375C132.909 324.965 132.719 324.64 132.339 324.4C131.969 324.16 131.474 324.04 130.854 324.04C130.244 324.04 129.749 324.16 129.369 324.4C128.989 324.64 128.799 324.965 128.799 325.375C128.799 325.775 128.989 326.1 129.369 326.35C129.749 326.59 130.244 326.71 130.854 326.71C131.464 326.71 131.959 326.59 132.339 326.35C132.719 326.1 132.909 325.775 132.909 325.375ZM134.874 322.465H127.014V321.61H134.874V322.465ZM132.759 320.65H128.994V319.78H132.759V320.65ZM149.952 329.71C149.952 330.45 149.552 331.015 148.752 331.405C147.952 331.805 146.847 332.005 145.437 332.005C144.027 332.005 142.927 331.805 142.137 331.405C141.347 331.015 140.952 330.45 140.952 329.71C140.952 329.02 141.302 328.485 142.002 328.105C142.702 327.715 143.682 327.495 144.942 327.445V326.065H139.527V325.24H151.362V326.065H145.902V327.445C147.182 327.495 148.177 327.715 148.887 328.105C149.597 328.485 149.952 329.02 149.952 329.71ZM150.702 323.56L150.252 324.355C149.132 324.155 148.127 323.795 147.237 323.275C146.357 322.755 145.757 322.195 145.437 321.595C145.187 322.195 144.617 322.755 143.727 323.275C142.837 323.795 141.807 324.15 140.637 324.34L140.187 323.56C141.347 323.44 142.412 323.09 143.382 322.51C144.352 321.93 144.872 321.235 144.942 320.425H140.727V319.6H150.147V320.425H145.962C146.012 320.975 146.297 321.485 146.817 321.955C147.347 322.415 147.952 322.78 148.632 323.05C149.322 323.31 150.012 323.48 150.702 323.56ZM145.437 328.255C143.107 328.255 141.942 328.74 141.942 329.71C141.942 330.7 143.107 331.195 145.437 331.195C147.777 331.195 148.947 330.7 148.947 329.71C148.947 328.74 147.777 328.255 145.437 328.255ZM163.246 332.05H162.286V318.94H163.246V332.05ZM160.426 328.075L159.796 328.84C159.106 328.36 158.436 327.745 157.786 326.995C157.136 326.235 156.686 325.47 156.436 324.7C156.206 325.51 155.791 326.305 155.191 327.085C154.601 327.855 153.896 328.555 153.076 329.185L152.416 328.435C153.376 327.845 154.201 327.005 154.891 325.915C155.591 324.825 155.941 323.735 155.941 322.645V320.17H156.931V322.63C156.931 323.74 157.276 324.795 157.966 325.795C158.656 326.785 159.476 327.545 160.426 328.075ZM175.084 328.135C175.824 328.525 176.194 329.07 176.194 329.77C176.194 330.47 175.824 331.015 175.084 331.405C174.354 331.795 173.284 331.99 171.874 331.99C170.474 331.99 169.409 331.795 168.679 331.405C167.959 331.015 167.599 330.47 167.599 329.77C167.599 329.06 167.959 328.51 168.679 328.12C169.409 327.73 170.474 327.535 171.874 327.535C173.284 327.535 174.354 327.735 175.084 328.135ZM171.874 328.345C170.834 328.345 170.024 328.47 169.444 328.72C168.874 328.97 168.589 329.32 168.589 329.77C168.589 330.22 168.874 330.565 169.444 330.805C170.024 331.045 170.834 331.165 171.874 331.165C172.934 331.165 173.749 331.05 174.319 330.82C174.899 330.58 175.189 330.23 175.189 329.77C175.189 329.31 174.899 328.96 174.319 328.72C173.739 328.47 172.924 328.345 171.874 328.345ZM172.879 323.275V322.45H175.204V318.94H176.164V327.505H175.204V325.72H172.879V324.91H175.204V323.275H172.879ZM171.124 320.14H167.374V319.3H171.124V320.14ZM172.849 321.925H165.499V321.1H172.849V321.925ZM172.159 324.82C172.159 325.47 171.879 325.995 171.319 326.395C170.769 326.785 170.069 326.98 169.219 326.98C168.359 326.98 167.654 326.785 167.104 326.395C166.554 326.005 166.279 325.48 166.279 324.82C166.279 324.16 166.554 323.635 167.104 323.245C167.654 322.855 168.359 322.66 169.219 322.66C170.079 322.66 170.784 322.855 171.334 323.245C171.884 323.635 172.159 324.16 172.159 324.82ZM170.629 325.81C171.009 325.56 171.199 325.23 171.199 324.82C171.199 324.41 171.009 324.085 170.629 323.845C170.249 323.595 169.779 323.47 169.219 323.47C168.659 323.47 168.184 323.595 167.794 323.845C167.414 324.085 167.224 324.41 167.224 324.82C167.224 325.23 167.419 325.56 167.809 325.81C168.199 326.05 168.669 326.17 169.219 326.17C169.779 326.17 170.249 326.05 170.629 325.81Z" fill="black"/>
<path d="M570.235 332.05H569.275V318.94H570.235V332.05ZM566.32 320.365C566.28 322.395 565.705 324.165 564.595 325.675C563.495 327.175 562.06 328.4 560.29 329.35L559.705 328.585C561.365 327.755 562.675 326.695 563.635 325.405C564.605 324.115 565.15 322.71 565.27 321.19H560.26V320.365H566.32ZM583.304 331.87H574.079V328.99H581.864V327.745H573.974V326.92H577.964V325.45H572.549V324.64H584.384V325.45H578.924V326.92H582.824V329.785H575.039V331.06H583.304V331.87ZM583.694 322.9L583.229 323.68C582.119 323.45 581.119 323.06 580.229 322.51C579.349 321.95 578.759 321.365 578.459 320.755C578.239 321.375 577.689 321.965 576.809 322.525C575.929 323.085 574.909 323.475 573.749 323.695L573.284 322.915C574.034 322.835 574.764 322.645 575.474 322.345C576.184 322.035 576.779 321.63 577.259 321.13C577.739 320.63 577.979 320.095 577.979 319.525V319.105H578.969V319.525C578.969 320.095 579.229 320.635 579.749 321.145C580.269 321.645 580.879 322.045 581.579 322.345C582.289 322.635 582.994 322.82 583.694 322.9ZM595.952 329.71C595.952 330.45 595.552 331.015 594.752 331.405C593.952 331.805 592.847 332.005 591.437 332.005C590.027 332.005 588.927 331.805 588.137 331.405C587.347 331.015 586.952 330.45 586.952 329.71C586.952 329.02 587.302 328.485 588.002 328.105C588.702 327.715 589.682 327.495 590.942 327.445V326.065H585.527V325.24H597.362V326.065H591.902V327.445C593.182 327.495 594.177 327.715 594.887 328.105C595.597 328.485 595.952 329.02 595.952 329.71ZM596.702 323.56L596.252 324.355C595.132 324.155 594.127 323.795 593.237 323.275C592.357 322.755 591.757 322.195 591.437 321.595C591.187 322.195 590.617 322.755 589.727 323.275C588.837 323.795 587.807 324.15 586.637 324.34L586.187 323.56C587.347 323.44 588.412 323.09 589.382 322.51C590.352 321.93 590.872 321.235 590.942 320.425H586.727V319.6H596.147V320.425H591.962C592.012 320.975 592.297 321.485 592.817 321.955C593.347 322.415 593.952 322.78 594.632 323.05C595.322 323.31 596.012 323.48 596.702 323.56ZM591.437 328.255C589.107 328.255 587.942 328.74 587.942 329.71C587.942 330.7 589.107 331.195 591.437 331.195C593.777 331.195 594.947 330.7 594.947 329.71C594.947 328.74 593.777 328.255 591.437 328.255ZM609.246 332.05H608.286V318.94H609.246V332.05ZM606.426 328.075L605.796 328.84C605.106 328.36 604.436 327.745 603.786 326.995C603.136 326.235 602.686 325.47 602.436 324.7C602.206 325.51 601.791 326.305 601.191 327.085C600.601 327.855 599.896 328.555 599.076 329.185L598.416 328.435C599.376 327.845 600.201 327.005 600.891 325.915C601.591 324.825 601.941 323.735 601.941 322.645V320.17H602.931V322.63C602.931 323.74 603.276 324.795 603.966 325.795C604.656 326.785 605.476 327.545 606.426 328.075ZM621.084 328.135C621.824 328.525 622.194 329.07 622.194 329.77C622.194 330.47 621.824 331.015 621.084 331.405C620.354 331.795 619.284 331.99 617.874 331.99C616.474 331.99 615.409 331.795 614.679 331.405C613.959 331.015 613.599 330.47 613.599 329.77C613.599 329.06 613.959 328.51 614.679 328.12C615.409 327.73 616.474 327.535 617.874 327.535C619.284 327.535 620.354 327.735 621.084 328.135ZM617.874 328.345C616.834 328.345 616.024 328.47 615.444 328.72C614.874 328.97 614.589 329.32 614.589 329.77C614.589 330.22 614.874 330.565 615.444 330.805C616.024 331.045 616.834 331.165 617.874 331.165C618.934 331.165 619.749 331.05 620.319 330.82C620.899 330.58 621.189 330.23 621.189 329.77C621.189 329.31 620.899 328.96 620.319 328.72C619.739 328.47 618.924 328.345 617.874 328.345ZM618.879 323.275V322.45H621.204V318.94H622.164V327.505H621.204V325.72H618.879V324.91H621.204V323.275H618.879ZM617.124 320.14H613.374V319.3H617.124V320.14ZM618.849 321.925H611.499V321.1H618.849V321.925ZM618.159 324.82C618.159 325.47 617.879 325.995 617.319 326.395C616.769 326.785 616.069 326.98 615.219 326.98C614.359 326.98 613.654 326.785 613.104 326.395C612.554 326.005 612.279 325.48 612.279 324.82C612.279 324.16 612.554 323.635 613.104 323.245C613.654 322.855 614.359 322.66 615.219 322.66C616.079 322.66 616.784 322.855 617.334 323.245C617.884 323.635 618.159 324.16 618.159 324.82ZM616.629 325.81C617.009 325.56 617.199 325.23 617.199 324.82C617.199 324.41 617.009 324.085 616.629 323.845C616.249 323.595 615.779 323.47 615.219 323.47C614.659 323.47 614.184 323.595 613.794 323.845C613.414 324.085 613.224 324.41 613.224 324.82C613.224 325.23 613.419 325.56 613.809 325.81C614.199 326.05 614.669 326.17 615.219 326.17C615.779 326.17 616.249 326.05 616.629 325.81Z" fill="black"/>
<path d="M347.25 328.465H346.29V318.94H347.25V328.465ZM347.595 331.585H338.745V327.595H339.705V330.775H347.595V331.585ZM337.89 320.74C338.55 320.15 339.35 319.855 340.29 319.855C341.23 319.855 342.025 320.145 342.675 320.725C343.335 321.305 343.665 322.06 343.665 322.99C343.665 323.93 343.335 324.695 342.675 325.285C342.025 325.865 341.23 326.155 340.29 326.155C339.35 326.155 338.55 325.865 337.89 325.285C337.23 324.705 336.9 323.95 336.9 323.02C336.9 322.08 337.23 321.32 337.89 320.74ZM340.29 320.71C339.6 320.71 339.025 320.925 338.565 321.355C338.115 321.775 337.89 322.32 337.89 322.99C337.89 323.67 338.12 324.23 338.58 324.67C339.04 325.1 339.61 325.315 340.29 325.315C341.01 325.315 341.59 325.105 342.03 324.685C342.47 324.265 342.69 323.71 342.69 323.02C342.69 322.33 342.47 321.775 342.03 321.355C341.59 320.925 341.01 320.71 340.29 320.71ZM361.609 323.98H359.569V328.75H358.609V318.94H359.569V323.155H361.609V323.98ZM360.004 331.735H351.424V327.745H352.384V330.91H360.004V331.735ZM350.029 320.08H355.894C355.774 321.75 355.189 323.17 354.139 324.34C353.099 325.51 351.709 326.39 349.969 326.98L349.474 326.155C350.934 325.745 352.149 325.055 353.119 324.085C354.089 323.105 354.654 322.045 354.814 320.905H350.029V320.08ZM372.952 329.71C372.952 330.45 372.552 331.015 371.752 331.405C370.952 331.805 369.847 332.005 368.437 332.005C367.027 332.005 365.927 331.805 365.137 331.405C364.347 331.015 363.952 330.45 363.952 329.71C363.952 329.02 364.302 328.485 365.002 328.105C365.702 327.715 366.682 327.495 367.942 327.445V326.065H362.527V325.24H374.362V326.065H368.902V327.445C370.182 327.495 371.177 327.715 371.887 328.105C372.597 328.485 372.952 329.02 372.952 329.71ZM373.702 323.56L373.252 324.355C372.132 324.155 371.127 323.795 370.237 323.275C369.357 322.755 368.757 322.195 368.437 321.595C368.187 322.195 367.617 322.755 366.727 323.275C365.837 323.795 364.807 324.15 363.637 324.34L363.187 323.56C364.347 323.44 365.412 323.09 366.382 322.51C367.352 321.93 367.872 321.235 367.942 320.425H363.727V319.6H373.147V320.425H368.962C369.012 320.975 369.297 321.485 369.817 321.955C370.347 322.415 370.952 322.78 371.632 323.05C372.322 323.31 373.012 323.48 373.702 323.56ZM368.437 328.255C366.107 328.255 364.942 328.74 364.942 329.71C364.942 330.7 366.107 331.195 368.437 331.195C370.777 331.195 371.947 330.7 371.947 329.71C371.947 328.74 370.777 328.255 368.437 328.255ZM386.246 332.05H385.286V318.94H386.246V332.05ZM383.426 328.075L382.796 328.84C382.106 328.36 381.436 327.745 380.786 326.995C380.136 326.235 379.686 325.47 379.436 324.7C379.206 325.51 378.791 326.305 378.191 327.085C377.601 327.855 376.896 328.555 376.076 329.185L375.416 328.435C376.376 327.845 377.201 327.005 377.891 325.915C378.591 324.825 378.941 323.735 378.941 322.645V320.17H379.931V322.63C379.931 323.74 380.276 324.795 380.966 325.795C381.656 326.785 382.476 327.545 383.426 328.075ZM398.084 328.135C398.824 328.525 399.194 329.07 399.194 329.77C399.194 330.47 398.824 331.015 398.084 331.405C397.354 331.795 396.284 331.99 394.874 331.99C393.474 331.99 392.409 331.795 391.679 331.405C390.959 331.015 390.599 330.47 390.599 329.77C390.599 329.06 390.959 328.51 391.679 328.12C392.409 327.73 393.474 327.535 394.874 327.535C396.284 327.535 397.354 327.735 398.084 328.135ZM394.874 328.345C393.834 328.345 393.024 328.47 392.444 328.72C391.874 328.97 391.589 329.32 391.589 329.77C391.589 330.22 391.874 330.565 392.444 330.805C393.024 331.045 393.834 331.165 394.874 331.165C395.934 331.165 396.749 331.05 397.319 330.82C397.899 330.58 398.189 330.23 398.189 329.77C398.189 329.31 397.899 328.96 397.319 328.72C396.739 328.47 395.924 328.345 394.874 328.345ZM395.879 323.275V322.45H398.204V318.94H399.164V327.505H398.204V325.72H395.879V324.91H398.204V323.275H395.879ZM394.124 320.14H390.374V319.3H394.124V320.14ZM395.849 321.925H388.499V321.1H395.849V321.925ZM395.159 324.82C395.159 325.47 394.879 325.995 394.319 326.395C393.769 326.785 393.069 326.98 392.219 326.98C391.359 326.98 390.654 326.785 390.104 326.395C389.554 326.005 389.279 325.48 389.279 324.82C389.279 324.16 389.554 323.635 390.104 323.245C390.654 322.855 391.359 322.66 392.219 322.66C393.079 322.66 393.784 322.855 394.334 323.245C394.884 323.635 395.159 324.16 395.159 324.82ZM393.629 325.81C394.009 325.56 394.199 325.23 394.199 324.82C394.199 324.41 394.009 324.085 393.629 323.845C393.249 323.595 392.779 323.47 392.219 323.47C391.659 323.47 391.184 323.595 390.794 323.845C390.414 324.085 390.224 324.41 390.224 324.82C390.224 325.23 390.419 325.56 390.809 325.81C391.199 326.05 391.669 326.17 392.219 326.17C392.779 326.17 393.249 326.05 393.629 325.81Z" fill="black"/>
<path d="M797.8 319.765C797.8 321.675 797.68 323.27 797.44 324.55H799.405V325.375H796.015V328.855H795.055V325.375H792.25V328.72H791.29V325.375H787.57V324.55H796.465C796.725 323.25 796.835 321.925 796.795 320.575H789.16V319.765H797.8ZM798.04 331.585H789.16V327.745H790.12V330.775H798.04V331.585ZM810.149 328.135C810.889 328.525 811.259 329.07 811.259 329.77C811.259 330.47 810.889 331.015 810.149 331.405C809.419 331.795 808.349 331.99 806.939 331.99C805.539 331.99 804.474 331.795 803.744 331.405C803.024 331.015 802.664 330.47 802.664 329.77C802.664 329.06 803.024 328.51 803.744 328.12C804.474 327.73 805.539 327.535 806.939 327.535C808.349 327.535 809.419 327.735 810.149 328.135ZM806.939 328.345C805.899 328.345 805.089 328.47 804.509 328.72C803.939 328.97 803.654 329.32 803.654 329.77C803.654 330.22 803.939 330.565 804.509 330.805C805.089 331.045 805.899 331.165 806.939 331.165C807.999 331.165 808.814 331.05 809.384 330.82C809.964 330.58 810.254 330.23 810.254 329.77C810.254 329.31 809.964 328.96 809.384 328.72C808.804 328.47 807.989 328.345 806.939 328.345ZM807.944 323.275V322.45H810.269V318.94H811.229V327.505H810.269V325.72H807.944V324.91H810.269V323.275H807.944ZM806.189 320.14H802.439V319.3H806.189V320.14ZM807.914 321.925H800.564V321.1H807.914V321.925ZM807.224 324.82C807.224 325.47 806.944 325.995 806.384 326.395C805.834 326.785 805.134 326.98 804.284 326.98C803.424 326.98 802.719 326.785 802.169 326.395C801.619 326.005 801.344 325.48 801.344 324.82C801.344 324.16 801.619 323.635 802.169 323.245C802.719 322.855 803.424 322.66 804.284 322.66C805.144 322.66 805.849 322.855 806.399 323.245C806.949 323.635 807.224 324.16 807.224 324.82ZM805.694 325.81C806.074 325.56 806.264 325.23 806.264 324.82C806.264 324.41 806.074 324.085 805.694 323.845C805.314 323.595 804.844 323.47 804.284 323.47C803.724 323.47 803.249 323.595 802.859 323.845C802.479 324.085 802.289 324.41 802.289 324.82C802.289 325.23 802.484 325.56 802.874 325.81C803.264 326.05 803.734 326.17 804.284 326.17C804.844 326.17 805.314 326.05 805.694 325.81ZM823.952 329.71C823.952 330.45 823.552 331.015 822.752 331.405C821.952 331.805 820.847 332.005 819.437 332.005C818.027 332.005 816.927 331.805 816.137 331.405C815.347 331.015 814.952 330.45 814.952 329.71C814.952 329.02 815.302 328.485 816.002 328.105C816.702 327.715 817.682 327.495 818.942 327.445V326.065H813.527V325.24H825.362V326.065H819.902V327.445C821.182 327.495 822.177 327.715 822.887 328.105C823.597 328.485 823.952 329.02 823.952 329.71ZM824.702 323.56L824.252 324.355C823.132 324.155 822.127 323.795 821.237 323.275C820.357 322.755 819.757 322.195 819.437 321.595C819.187 322.195 818.617 322.755 817.727 323.275C816.837 323.795 815.807 324.15 814.637 324.34L814.187 323.56C815.347 323.44 816.412 323.09 817.382 322.51C818.352 321.93 818.872 321.235 818.942 320.425H814.727V319.6H824.147V320.425H819.962C820.012 320.975 820.297 321.485 820.817 321.955C821.347 322.415 821.952 322.78 822.632 323.05C823.322 323.31 824.012 323.48 824.702 323.56ZM819.437 328.255C817.107 328.255 815.942 328.74 815.942 329.71C815.942 330.7 817.107 331.195 819.437 331.195C821.777 331.195 822.947 330.7 822.947 329.71C822.947 328.74 821.777 328.255 819.437 328.255ZM837.246 332.05H836.286V318.94H837.246V332.05ZM834.426 328.075L833.796 328.84C833.106 328.36 832.436 327.745 831.786 326.995C831.136 326.235 830.686 325.47 830.436 324.7C830.206 325.51 829.791 326.305 829.191 327.085C828.601 327.855 827.896 328.555 827.076 329.185L826.416 328.435C827.376 327.845 828.201 327.005 828.891 325.915C829.591 324.825 829.941 323.735 829.941 322.645V320.17H830.931V322.63C830.931 323.74 831.276 324.795 831.966 325.795C832.656 326.785 833.476 327.545 834.426 328.075ZM849.084 328.135C849.824 328.525 850.194 329.07 850.194 329.77C850.194 330.47 849.824 331.015 849.084 331.405C848.354 331.795 847.284 331.99 845.874 331.99C844.474 331.99 843.409 331.795 842.679 331.405C841.959 331.015 841.599 330.47 841.599 329.77C841.599 329.06 841.959 328.51 842.679 328.12C843.409 327.73 844.474 327.535 845.874 327.535C847.284 327.535 848.354 327.735 849.084 328.135ZM845.874 328.345C844.834 328.345 844.024 328.47 843.444 328.72C842.874 328.97 842.589 329.32 842.589 329.77C842.589 330.22 842.874 330.565 843.444 330.805C844.024 331.045 844.834 331.165 845.874 331.165C846.934 331.165 847.749 331.05 848.319 330.82C848.899 330.58 849.189 330.23 849.189 329.77C849.189 329.31 848.899 328.96 848.319 328.72C847.739 328.47 846.924 328.345 845.874 328.345ZM846.879 323.275V322.45H849.204V318.94H850.164V327.505H849.204V325.72H846.879V324.91H849.204V323.275H846.879ZM845.124 320.14H841.374V319.3H845.124V320.14ZM846.849 321.925H839.499V321.1H846.849V321.925ZM846.159 324.82C846.159 325.47 845.879 325.995 845.319 326.395C844.769 326.785 844.069 326.98 843.219 326.98C842.359 326.98 841.654 326.785 841.104 326.395C840.554 326.005 840.279 325.48 840.279 324.82C840.279 324.16 840.554 323.635 841.104 323.245C841.654 322.855 842.359 322.66 843.219 322.66C844.079 322.66 844.784 322.855 845.334 323.245C845.884 323.635 846.159 324.16 846.159 324.82ZM844.629 325.81C845.009 325.56 845.199 325.23 845.199 324.82C845.199 324.41 845.009 324.085 844.629 323.845C844.249 323.595 843.779 323.47 843.219 323.47C842.659 323.47 842.184 323.595 841.794 323.845C841.414 324.085 841.224 324.41 841.224 324.82C841.224 325.23 841.419 325.56 841.809 325.81C842.199 326.05 842.669 326.17 843.219 326.17C843.779 326.17 844.249 326.05 844.629 325.81Z" fill="black"/>
<g clip-path="url(#clip0_1351_10)">
<path d="M14.8171 139.507C11.8973 139.49 8.90776 139.49 6.171 140.501C3.43424 141.512 0.958953 143.761 0.540595 146.647C-0.0433635 150.648 3.34708 154.118 6.81597 156.193C15.4969 161.38 26.0169 162.295 36.1185 162.583C53.1578 163.071 70.3454 162.129 86.8967 158.049C103.448 153.97 119.389 146.638 132.184 135.375L124.052 123.746C109.872 132.428 92.7886 134.904 76.185 135.785C57.141 136.796 37.9924 135.959 19.114 133.291C17.3185 133.039 15.2093 132.864 13.9542 134.172C12.3679 135.828 13.4225 138.81 15.401 139.96C17.3795 141.111 19.8199 140.98 22.1035 140.815" fill="#FFE76D"/>
<path d="M279.977 124.033C283.045 123.615 286.305 123.685 289.042 125.132C291.77 126.587 293.783 129.708 293.173 132.742C292.668 135.227 291.517 136.909 289.391 138.278C286.994 139.821 283.568 140.85 276.892 141.015C251.337 141.669 226.558 137.249 205.048 128.688L202.363 115.159C213.868 118.707 228.075 120.459 240.111 120.354C252.148 120.25 263.975 119.919 275.977 119.038C277.711 118.907 281.459 117.896 282.479 120.52C282.906 121.618 282.592 122.577 280.256 123.929C279.237 124.521 277.581 125.088 276.404 125.167" fill="#FFE76D"/>
<path d="M175.205 231.591C170.289 241.145 168.685 252.984 168.807 263.724C171.291 262.469 177.506 261.815 180.269 262.137C183.031 262.46 185.733 263.942 187.128 266.357C188.522 268.771 188.366 272.093 186.448 274.115C184.13 276.574 180.269 276.513 176.904 276.277C172.965 275.998 165.87 276.6 161.931 276.33C160.928 276.26 158.078 276.173 157.25 275.606C155.76 274.586 155.228 271.526 155.315 269.722C155.899 256.497 154.322 249.401 151.925 235.706" fill="#FFE76D"/>
<path d="M175.205 232.637C188.331 229.551 205.066 221.173 209.519 199.946C215.542 171.23 209.31 147.126 202.948 118.489C199.487 102.91 195.016 87.2186 186.048 74.0289C177.079 60.8391 160.162 48.678 146.007 47.7627L120.444 61.3535C116.74 66.8717 116.191 73.0176 115.267 79.6081C112.896 96.5203 106.717 137.946 101.958 155.085C96.3448 167.848 92.5795 184.577 95.3337 198.237C98.759 215.193 110.264 225.733 122.727 231.966C128.375 242.924 129.796 249.741 131.618 262.887C128.018 261.667 125.691 260.847 121.891 260.804C119.18 260.769 116.208 261.161 114.343 263.131C111.728 265.895 112.783 270.445 115.511 273.104C117.515 275.057 120.252 276.121 123.006 276.565C125.761 277.01 127.12 277.053 129.918 276.931C133.169 276.783 136.411 276.644 139.662 276.495C141.527 276.408 143.558 276.26 144.909 274.97C146.94 273.035 146.173 271.038 145.598 268.292C143.55 258.502 144.36 246.193 146.748 236.473C151.124 236.639 153.041 236.752 157.835 236.246" fill="#FFE76D"/>
<path d="M130.589 137.519C130.589 137.519 112.87 151.755 107.544 172.39C102.515 191.882 104.834 216.466 122.649 231.957C122.649 231.957 91.6556 218.785 94.7584 182.363C94.7584 182.363 97.3731 161.249 102.315 153.787C102.315 153.787 121.202 145.557 130.589 137.511V137.519Z" fill="#EAC734"/>
<path d="M293.225 129.935C293.225 129.935 293.74 143.622 253.586 136.002C213.432 128.383 202.947 118.489 202.947 118.489L205.048 128.688C205.048 128.688 238.089 143.874 282.122 140.649C282.122 140.649 295.936 138.844 293.225 129.926V129.935Z" fill="#EAC734"/>
<path d="M2.82398 143.107C2.82398 143.107 -3.39039 160.159 46.0805 160.159C66.4841 160.159 90.2434 157.317 106.385 151.633C106.385 151.633 71.7833 168.685 21.9377 161.711C21.9377 161.711 -6.5978 156.672 2.82398 143.116V143.107Z" fill="#EAC734"/>
<path d="M152.588 236.673C152.588 236.673 156.153 254.527 155.577 262.373C155.002 270.219 154.026 275.449 159.839 275.833C165.653 276.216 167.196 275.929 167.196 275.929C167.196 275.929 157.8 275.641 158.192 269.922C158.584 264.203 159.744 253.263 157.129 236.412L152.597 236.673H152.588Z" fill="#EAC734"/>
<path d="M131.434 55.2861C131.434 55.2861 125.238 60.1941 123.425 89.1191C121.612 118.044 118.779 126.57 118.779 126.57C118.779 126.57 112.19 130.702 107.03 131.478C107.03 131.478 113.358 91.1155 114.709 80.8548C116.06 70.5942 116.836 64.1955 119.877 61.092L131.434 55.2773V55.2861Z" fill="#EAC734"/>
<path d="M174.046 89.25C174.368 89.8864 174.7 90.5402 175.179 91.072C175.658 91.6038 176.678 92.5801 177.393 92.5453C179.877 92.4145 180.461 89.5464 179.519 89.93C178.744 90.2525 176.957 90.4705 176.181 90.2874C175.405 90.1043 174.665 89.7469 174.037 89.25H174.046Z" fill="#EAC734"/>
<path d="M124.026 124.094C109.845 132.777 92.7622 135.253 76.1586 136.133C57.1146 137.145 37.966 136.308 19.0876 133.64C17.2922 133.387 15.1829 133.213 13.9279 134.521C12.3416 136.177 13.3962 139.158 15.3747 140.309C17.3532 141.46 19.7936 141.329 22.0771 141.163" stroke="black" stroke-linecap="round" stroke-linejoin="round"/>
<path d="M14.7819 139.856C11.8621 139.838 8.8726 139.838 6.13584 140.85C3.39908 141.861 0.923797 144.11 0.505439 146.996C-0.0785197 150.997 3.31192 154.467 6.78081 156.541C15.4617 161.728 25.9817 162.644 36.0833 162.931C53.1227 163.419 70.3102 162.478 86.8615 158.398C103.413 154.318 119.354 146.987 132.149 135.724" stroke="black" stroke-linecap="round" stroke-linejoin="round"/>
<path d="M122.361 232.053C109.897 225.82 98.3925 214.243 94.9672 197.287C92.2043 183.627 95.9782 166.889 101.591 154.135" stroke="black" stroke-linecap="round" stroke-linejoin="round"/>
<path d="M157.46 236.342C152.666 236.857 150.748 236.735 146.373 236.569" stroke="black" stroke-linecap="round" stroke-linejoin="round"/>
<path d="M145.641 47.8589C159.795 48.7742 176.712 59.8979 185.681 73.0877C194.65 86.2774 199.129 101.978 202.581 117.547C208.943 146.185 215.175 170.289 209.153 199.005C204.699 220.241 188.095 229.316 174.969 232.393" stroke="black" stroke-linecap="round" stroke-linejoin="round"/>
<path d="M107.064 131.077C109.435 114.165 112.529 95.579 114.9 78.6668C115.824 72.0763 116.373 65.9391 120.077 60.4121" stroke="black" stroke-linecap="round" stroke-linejoin="round"/>
<path d="M202.259 115.098C213.764 118.646 227.97 120.398 240.007 120.293C252.043 120.189 263.871 119.857 275.872 118.977C277.607 118.846 281.355 117.835 282.374 120.459C282.801 121.557 282.488 122.516 280.152 123.868C279.132 124.46 277.476 125.027 276.299 125.105" stroke="black" stroke-linecap="round" stroke-linejoin="round"/>
<path d="M279.881 123.972C282.949 123.554 286.209 123.624 288.946 125.071C291.682 126.518 293.687 129.647 293.077 132.681C292.571 135.166 291.421 136.848 289.294 138.217C286.898 139.76 283.472 140.789 276.796 140.954C251.241 141.608 226.628 137.241 205.117 128.68" stroke="black" stroke-linecap="round" stroke-linejoin="round"/>
<path d="M159.682 40.4316C159.682 40.4316 133.317 55.1557 111.911 64.0651" stroke="black" stroke-linecap="round" stroke-linejoin="round"/>
<path d="M145.641 47.859C145.641 47.859 142.042 33.9282 133.317 25.7075C133.317 25.7075 117.733 26.0475 106.438 39.4029C106.438 39.4029 114.796 48.2687 120.104 60.2554" fill="black"/>
<path d="M145.641 47.859C145.641 47.859 142.042 33.9282 133.317 25.7075C133.317 25.7075 117.733 26.0475 106.438 39.4029C106.438 39.4029 114.796 48.2687 120.104 60.2554" stroke="black" stroke-linecap="round" stroke-linejoin="round"/>
<path d="M134.877 54.4404C136.472 59.8105 134.336 66.0872 129.795 69.365C126.265 71.9105 118.421 74.1161 113.453 70.228" stroke="black" stroke-linecap="round" stroke-linejoin="round"/>
<path d="M108.094 70.0017C118.134 79.4777 130.981 76.1389 136.167 71.3093C141.353 66.4798 142.748 58.0411 139.383 51.7993" stroke="black" stroke-linecap="round" stroke-linejoin="round"/>
<path d="M151.35 48.7656C152.038 51.965 154.435 56.411 159.455 57.9017C166.071 59.8544 171.893 58.2417 173.61 55.731" stroke="black" stroke-linecap="round" stroke-linejoin="round"/>
<path d="M147.811 48.8789C147.663 54.493 152.474 60.1508 158.427 62.5743C172.119 68.171 179.563 61.8246 183.877 58.2329" stroke="black" stroke-linecap="round" stroke-linejoin="round"/>
<path d="M159.255 84.6209C160.627 84.6209 161.739 83.5085 161.739 82.1364C161.739 80.7642 160.627 79.6519 159.255 79.6519C157.884 79.6519 156.771 80.7642 156.771 82.1364C156.771 83.5085 157.884 84.6209 159.255 84.6209Z" fill="black"/>
<path d="M183.398 81.3606C184.77 81.3606 185.882 80.2483 185.882 78.8761C185.882 77.504 184.77 76.3916 183.398 76.3916C182.026 76.3916 180.914 77.504 180.914 78.8761C180.914 80.2483 182.026 81.3606 183.398 81.3606Z" fill="black"/>
<path d="M175.858 81.4043L178.412 85.6498C178.979 86.5913 179.545 87.5415 179.798 88.605C180.051 89.6686 179.929 90.8803 179.214 91.7172C178.499 92.5541 177.122 92.8331 176.285 92.127" stroke="black" stroke-linecap="round" stroke-linejoin="round"/>
<path d="M185.341 98.1594C182.84 99.2317 175.675 101.359 161.809 98.8655C161.26 98.7696 160.763 99.2229 160.841 99.7722C161.434 103.887 164.232 117.948 174.743 117.146C185.254 116.344 184.165 105.953 186.047 98.7522C186.161 98.3338 185.734 97.9763 185.333 98.1507L185.341 98.1594Z" fill="#631500" stroke="black" stroke-miterlimit="10"/>
<path d="M122.361 232.053C128.009 243.011 129.43 249.828 131.251 262.975C127.652 261.754 125.324 260.935 121.524 260.891C118.814 260.856 115.842 261.249 113.976 263.219C111.362 265.982 112.242 270.803 114.97 273.462C116.975 275.415 119.711 276.478 122.466 276.923C125.22 277.367 126.58 277.411 129.377 277.289C132.628 277.141 135.871 277.001 139.122 276.853C140.987 276.766 143.017 276.618 144.368 275.327C146.399 273.392 145.807 270.088 145.231 267.342C143.183 257.552 143.994 246.272 146.382 236.56" stroke="black" stroke-linecap="round" stroke-linejoin="round"/>
<path d="M174.978 232.402C170.063 241.956 168.459 252.766 168.581 263.506C171.065 262.251 177.279 261.597 180.042 261.92C182.805 262.242 185.507 263.724 186.902 266.139C188.296 268.554 188.139 271.875 186.222 273.898C183.903 276.356 180.042 276.295 176.678 276.06C172.738 275.781 165.644 276.382 161.704 276.112C160.702 276.042 157.852 275.955 157.024 275.388C155.533 274.368 155.002 271.309 155.089 269.504C155.673 256.279 154.583 250.604 152.187 236.909" stroke="black" stroke-linecap="round" stroke-linejoin="round"/>
<path d="M171.884 120.172C171.161 120.128 169.923 119.927 169.557 120.555C169.304 120.982 169.539 121.34 169.897 121.671C170.298 122.046 171.126 122.412 171.605 122.543C173.183 122.979 174.176 122.918 175.632 122.665C177 122.429 178.857 121.645 178.255 120.363C177.837 119.474 175.946 120.433 171.884 120.172Z" fill="#EAC734"/>
<path d="M183.511 99.8855C183.511 99.8855 183.895 102.213 174.769 102.527C166.367 102.815 166.367 101.341 165.932 99.6414C165.932 99.6414 176.373 101.08 183.59 98.9004L183.511 99.8855Z" fill="white" stroke="black" stroke-miterlimit="10"/>
</g>
<g clip-path="url(#clip1_1351_10)">
<path d="M379.582 122.45C379.082 122.195 378.582 121.887 378.028 121.778C377.474 121.669 376.82 121.805 376.511 122.277C376.138 122.84 376.402 123.64 376.92 124.085C377.437 124.53 378.119 124.684 378.782 124.83C380.863 125.293 382.771 126.374 384.87 126.011C385.897 125.838 386.996 125.229 387.832 124.594C388.359 124.194 389.894 122.513 389.54 121.778C386.324 123.394 382.998 124.167 379.591 122.441L379.582 122.45Z" fill="#7565EA"/>
<path d="M373.04 234.315C372.758 248.095 372.195 257.378 371.586 271.013C371.468 273.692 371.386 276.872 373.576 278.425C374.984 279.424 376.856 279.37 378.582 279.279C389.994 278.661 401.407 278.044 412.819 277.426C414.772 277.317 416.935 277.126 418.27 275.691C420.469 273.329 418.734 269.16 415.853 267.715C412.973 266.271 409.566 266.671 406.358 266.907C403.151 267.143 399.598 267.08 397.154 264.972C395.055 263.165 395.301 262.411 395.491 259.64C395.682 256.87 396.455 252.818 396.891 250.075C398.572 239.665 399.471 236.44 400.589 229.41" fill="#A593FF"/>
<path d="M400.598 229.41C404.95 227.965 409.03 225.885 413.182 222.788C421.959 216.22 425.021 206.01 426.429 195.128C427.838 184.246 426.856 177.596 425.812 166.669L430.3 157.803C432.917 149.573 431.363 138.673 424.022 134.149C423.386 119.107 422.977 105.291 423.576 91.5016C423.776 86.769 424.04 81.9547 422.877 77.3584C421.714 72.762 418.852 68.3474 414.472 66.5579C411.392 65.2953 407.948 65.4588 404.632 65.6314C397.418 66.022 396.136 65.4406 388.068 65.813L336.223 68.3837C328.663 68.7925 323.857 68.7743 316.506 71.2905C302.877 75.9413 306.748 93.064 307.093 99.5679C309.065 136.566 313.163 145.24 307.511 181.857C306.039 191.395 303.522 215.721 313.626 227.956C319.014 234.487 328.1 236.431 336.559 236.286C339.785 236.231 343.074 236.113 346.408 235.941C347.499 242.245 347.962 243.707 348.625 249.621C348.934 252.346 349.752 256.524 349.888 259.268C350.025 262.011 349.252 264.936 347.226 266.78C345.009 268.796 340.657 269.178 337.668 269.35C334.678 269.523 331.489 269.677 329.027 271.394C326.564 273.111 325.429 277.072 327.609 279.143C329.045 280.505 331.244 280.523 333.215 280.46C344.355 280.124 355.504 279.788 366.643 279.451C369.932 279.352 371.54 275.264 371.222 271.976" fill="#A593FF"/>
<path d="M428.064 138.137C428.064 138.137 434.97 150.827 428.6 162.763C422.885 173.482 405.785 183.701 375.165 181.602C375.165 181.602 404.949 181.021 420.932 165.452C426.874 159.665 433.588 151.59 428.064 138.137Z" fill="#7565EA"/>
<path d="M372.203 157.912C372.203 157.912 410.701 168.004 424.166 143.778C424.166 143.778 425.784 154.814 402.087 163.153C402.087 163.153 383.642 167.868 372.203 157.903V157.912Z" fill="#7565EA"/>
<path d="M323.211 69.7734C323.211 69.7734 313.789 73.0072 314.598 89.4214C315.406 105.836 315.134 147.829 333.715 153.743C333.715 153.743 328.599 168.812 371.14 180.93C371.14 180.93 348.525 182.81 325.91 164.243C325.91 164.243 311.472 207.845 321.976 221.57C332.479 235.296 350.242 229.446 350.242 229.446C350.242 229.446 355.994 265.98 345.399 268.605C345.399 268.605 349.143 265.708 349.942 261.847C350.551 258.922 349.37 247.659 346.417 236.095C346.417 236.095 334.796 237.185 325.374 235.305C315.952 233.425 306.611 222.224 306.12 203.812C305.92 196.209 306.802 186.271 307.738 180.194C310.064 165.052 311.59 153.652 308.137 114.992C305.312 83.299 303.295 73.2706 323.211 69.7734Z" fill="#7565EA"/>
<path d="M425.811 167.205C426.847 178.133 427.838 184.782 426.429 195.664C425.021 206.546 421.959 216.765 413.182 223.324C409.039 226.421 404.959 228.502 400.598 229.946" stroke="black" stroke-linecap="round" stroke-linejoin="round"/>
<path d="M388.059 66.3581C396.136 65.9857 397.408 66.567 404.622 66.1764C407.939 65.9947 411.392 65.8403 414.463 67.1029C418.842 68.8924 421.695 73.3162 422.867 77.9034C424.039 82.4907 423.776 87.3141 423.567 92.0467C422.967 105.845 423.376 119.661 424.012 134.694" stroke="black" stroke-linecap="round" stroke-linejoin="round"/>
<path d="M346.408 236.495C343.074 236.659 339.785 236.777 336.559 236.84C328.1 236.986 319.023 235.042 313.626 228.51C303.522 216.275 306.039 191.949 307.511 182.411C313.153 145.795 309.056 137.12 307.093 100.122C306.748 93.6183 302.886 76.4956 316.506 71.8448C323.857 69.3377 328.663 69.3468 336.223 68.938" stroke="black" stroke-linecap="round" stroke-linejoin="round"/>
<path d="M373.04 234.86C372.758 248.64 372.195 257.924 371.586 271.558C371.468 274.238 371.386 277.417 373.576 278.97C374.984 279.97 376.856 279.915 378.582 279.824C389.994 279.207 401.407 278.589 412.819 277.971C414.772 277.862 416.935 277.671 418.27 276.236C420.469 273.875 418.734 269.705 415.853 268.261C412.973 266.817 409.566 267.216 406.358 267.452C403.151 267.689 399.598 267.625 397.154 265.518C395.055 263.71 395.301 262.956 395.491 260.185C395.682 257.415 396.455 253.364 396.891 250.62C398.572 240.211 399.471 236.986 400.589 229.955" stroke="black" stroke-linecap="round" stroke-linejoin="round"/>
<path d="M346.408 236.495C347.498 242.799 348.244 244.144 348.907 250.057C349.216 252.782 350.033 256.961 350.17 259.704C350.306 262.447 349.534 265.372 347.508 267.216C345.291 269.233 340.938 269.614 337.949 269.787C334.96 269.959 331.77 270.114 329.308 271.831C326.846 273.547 325.71 277.508 327.891 279.579C329.326 280.941 331.525 280.96 333.497 280.896C344.636 280.56 355.785 280.224 366.924 279.888C370.214 279.788 371.822 275.7 371.504 272.412" stroke="black" stroke-linecap="round" stroke-linejoin="round"/>
<path d="M424.021 134.695C431.363 139.209 432.916 150.11 430.3 158.349C427.683 166.578 424.403 171.011 410.092 177.76C402.296 181.439 387.913 183.447 377.255 182.266C359.574 180.295 348.071 174 339.648 166.27C337.495 164.289 335.441 162.082 334.278 159.393C333.106 156.705 332.933 153.443 334.432 150.927C336.568 147.339 341.511 146.276 345.536 147.385C349.561 148.484 352.886 151.254 356.085 153.943C355.558 152.081 355.349 149.819 355.648 147.912C355.948 146.004 357.348 144.115 359.274 143.906C362.39 143.57 364.144 147.258 365.434 150.119C369.468 159.066 380.063 166.796 398.871 163.981C408.566 162.527 419.687 156.278 423.848 147.385" stroke="black" stroke-linecap="round" stroke-linejoin="round"/>
<path d="M370.168 156.659C380.072 155.878 390.63 151.69 398.008 145.023C401.006 142.316 405.54 136.92 408.557 139.918C410.592 141.934 408.893 145.213 406.649 147.003C409.556 144.95 411.401 143.224 414.081 140.89C415.716 139.464 418.815 137.883 422.031 140.099C424.403 141.734 424.166 145.659 423.876 147.221" stroke="black" stroke-linecap="round" stroke-linejoin="round"/>
<path d="M334.451 150.682C332.851 149.873 330.662 148.002 328.345 145.059" stroke="black" stroke-linecap="round" stroke-linejoin="round"/>
<path d="M376.374 182.202C355.921 182.456 326.873 170.648 315.706 153.071" stroke="black" stroke-linecap="round" stroke-linejoin="round"/>
<path d="M365.098 130.262C367.024 135.576 372.448 139.409 378.091 139.436C383.733 139.463 389.194 135.676 391.166 130.38" stroke="black" stroke-linecap="round" stroke-linejoin="round"/>
<path d="M392.756 104.119C392.683 106.372 392.919 109.124 393.11 110.868C393.319 112.903 394.046 114.602 395.073 115.928C396.099 117.254 398.171 118.071 399.843 118.18C401.633 118.299 403.859 117.554 404.967 116.137C407.275 113.175 407.003 107.98 406.721 103.974" stroke="black" stroke-linecap="round" stroke-linejoin="round"/>
<path d="M352.968 103.938C352.768 106.181 352.85 108.943 352.932 110.696C353.023 112.74 353.65 114.475 354.604 115.864C355.558 117.254 357.566 118.181 359.238 118.39C361.018 118.608 363.281 117.999 364.471 116.655C366.952 113.83 366.979 108.625 366.924 104.61" stroke="black" stroke-linecap="round" stroke-linejoin="round"/>
<path d="M319.713 62.2432C330.989 68.8561 345.608 72.6894 364.553 71.6357C381.625 70.682 393.801 64.6141 403.913 56.3389" stroke="black" stroke-linecap="round" stroke-linejoin="round"/>
<path d="M388.059 66.3583C387.323 56.3935 386.441 53.0689 388.967 32.8578C389.204 30.9956 389.476 28.8337 388.122 27.5438C387.059 26.5083 385.424 26.4629 383.952 26.4629C371.359 26.5083 361.391 30.9139 347.708 30.278C344.564 30.1327 337.813 26.8989 334.233 30.278C330.653 33.6571 332.816 40.8968 333.179 44.6211C334.051 53.4232 335.341 60.1178 336.205 68.929C336.205 68.929 351.46 73.1347 365.325 71.5178C379.191 69.9009 388.041 66.3583 388.041 66.3583H388.059Z" fill="black"/>
<path d="M390.148 65.9224C388.231 66.8216 385.469 68.0661 384.697 71.2817C384.233 73.1984 384.569 75.9689 385.869 77.4586C387.922 79.8113 390.684 80.6288 393.701 79.3934C395.845 78.5214 397.553 76.2596 398.38 75.2513C397.317 76.6138 396.309 77.8946 395.8 79.9021C395 83.0178 397.026 86.1335 399.707 87.6323C401.515 88.6406 404.622 89.1493 407.303 88.0047C409.983 86.8602 411.391 84.7619 412.364 82.2911C410.937 85.8246 410.592 87.7322 410.765 89.5489C410.983 91.7744 412.264 93.6093 414.381 94.5995C416.961 95.8076 418.342 95.7531 419.832 95.7622C423.158 95.7985 426.247 91.3475 426.692 87.06C426.92 90.7298 427.61 95.2716 430.454 96.6796C433.607 98.2329 438.977 97.2155 440.939 94.2997C442.866 91.4474 443.274 87.6323 440.167 83.799" stroke="black" stroke-linecap="round" stroke-linejoin="round"/>
<path d="M349.606 71.8447C351.133 74.8605 350.924 79.584 348.134 81.3371C345.345 83.0994 339.766 83.3174 337.949 80.4833C340.702 83.5172 340.566 88.922 337.649 91.7833C334.742 94.6538 329.59 94.4539 326.891 91.3746C328.245 95.7892 325.31 101.085 320.994 102.039C316.678 102.993 311.963 99.3864 311.499 94.7809C312.117 98.9322 309.582 103.356 305.793 104.728C302.004 106.099 297.416 104.246 295.472 100.567C293.527 96.8884 294.463 91.8197 297.57 89.1672" stroke="black" stroke-linecap="round" stroke-linejoin="round"/>
<path d="M381.626 113.239C381.626 113.239 392.929 115.119 389.976 122.123C387.023 129.126 377.592 124.548 377.592 124.548" stroke="black" stroke-linecap="round" stroke-linejoin="round"/>
<path d="M382.617 141.48C382.844 141.471 383.08 141.462 383.289 141.544C383.807 141.753 383.961 142.47 383.716 142.97C383.471 143.47 382.962 143.788 382.444 144.006C380.581 144.787 378.355 144.605 376.647 143.533C376.302 143.315 375.266 142.525 375.484 141.998C375.666 141.553 377.11 141.726 377.501 141.707C379.209 141.626 380.917 141.553 382.626 141.471L382.617 141.48Z" fill="#7565EA"/>
</g>
<g clip-path="url(#clip2_1351_10)">
<path d="M677.218 68.1822C674.997 63.7551 671.391 61.6067 666.862 59.5801C661.618 57.2317 657.454 60.0237 653.944 64.5553L653.456 64.6509C652.925 64.7379 652.916 64.7205 652.202 64.8945C650.172 65.3729 648.239 66.434 647.42 68.8868C646.967 70.2436 646 74.8012 647.803 76.3494C639.894 84.0557 634.955 89.544 628.492 97.8503C624.999 83.2729 614.268 73.6879 604.782 73.2096L588.381 72.9225L569.409 74.5664C556.404 85.169 554.305 97.2328 554.305 97.2328L554.209 97.4155C554.297 89.7179 555.011 82.6292 556.596 74.088C560.228 73.2617 563.155 69.6348 563.904 66.3731C564.584 63.4072 563.948 61.4763 563.094 59.6671C562.894 59.2409 562.937 58.9104 562.45 58.3799L562.824 57.4057C564.017 55.4574 564.854 52.0653 560.847 48.734C559.087 47.2728 556.692 46.3508 553.696 45.8116C549.053 44.9679 544.915 45.4028 541.649 46.2204C538.261 47.0641 535.726 47.5511 534.498 53.396C534.097 55.3008 534.21 58.2668 534.498 60.189C534.855 62.6244 536.527 64.6162 538.313 65.2076C530.395 86.8998 525.831 117.916 530.195 145.105L530.134 145.227C524.69 170.512 524.42 199.875 541.571 221.08C544.898 225.194 548.905 229.526 553.417 232.483C548.4 243.46 547.581 253.558 547.555 265.622C543.609 264.126 539.968 264.369 536.527 265.891C533.087 267.413 529.951 270.031 528.679 273.571C528.183 274.954 528.096 276.746 529.263 277.642C530.055 278.251 531.144 278.225 532.137 278.164C543.992 277.52 550.778 276.189 565.254 277.581C565.664 265.343 567.075 255.071 577.083 241.407C579.627 241.877 582.231 242.573 584.862 242.781C591.795 243.321 597.466 243.425 604.957 241.929L606.115 242.703C616.123 256.367 616.446 265.352 616.855 277.59C631.332 276.207 638.117 277.529 649.972 278.173C650.965 278.225 652.054 278.251 652.847 277.651C654.014 276.755 653.927 274.963 653.43 273.58C652.158 270.04 649.031 267.413 645.582 265.9C642.141 264.378 638.5 264.134 634.555 265.63C634.528 253.567 633.544 243.077 628.527 232.109C632.159 229.169 635.286 224.742 637.69 220.271C646.427 203.981 645.991 185.941 636.872 169.703C634.154 164.858 631.584 159.979 629.799 154.638C636.401 124.518 646.575 108.957 665.999 81.9073L667.149 81.6464C669.754 82.6292 671.147 81.5855 674.248 79.4546C678.333 76.6452 679.666 73.0878 677.218 68.1996V68.1822Z" fill="#E17878"/>
<path d="M552.946 232.039C552.946 232.039 516.362 211.843 530.395 147.001C530.395 147.001 523.331 102.451 538.295 65.2075C538.295 65.2075 539.262 65.7903 540.969 65.7033C540.969 65.7033 529.132 100.32 538.043 147.097C538.043 147.097 524.69 201.893 552.946 232.048V232.039Z" fill="#BC4242"/>
<path d="M584.696 73.2617C584.696 73.2617 558.626 77.5149 557.981 137.173C557.981 137.173 552.816 103.156 554.366 96.5804C554.366 96.5804 560.56 79.959 570.498 74.549L584.696 73.2617Z" fill="#BC4242"/>
<path d="M662.314 79.1851C662.314 79.1851 658.029 82.8816 657.994 82.9251C656.374 84.4994 639.571 102.06 628.056 124.483L627.412 130.737L627.15 144.14C627.15 144.14 628.318 151.985 629.798 154.638C629.798 154.638 631.924 126.231 666.217 81.5509L663.569 80.3767" fill="#BC4242"/>
<path d="M633.083 276.468C633.083 276.468 625.209 277.886 623.144 268.997C621.08 260.107 619.53 248.635 612.047 240.52L604.948 241.938C604.948 241.938 616.873 252.688 616.847 277.59L633.083 276.468Z" fill="#BC4242"/>
<path d="M577.083 241.416C577.083 241.416 564.018 257.446 565.255 277.59L556.562 276.85C556.562 276.85 562.241 250.305 577.083 241.416Z" fill="#BC4242"/>
<path d="M558.051 138.512C554.174 115.263 552.215 97.215 556.465 74.2181C560.098 73.3918 563.024 70.539 563.773 67.2773C564.453 64.3114 563.808 61.8238 562.955 60.006C562.406 58.8491 560.55 57.0487 558.869 56.1354C555.873 54.5003 554.018 54.3437 550.629 54.1611C549.236 54.0828 547.18 54.3611 545.865 54.8395C544.549 55.3179 543.304 55.9615 542.868 57.2836C542.119 59.5624 543.208 60.8148 545.316 61.4324C547.624 62.1021 550.481 62.0325 552.868 61.8412" stroke="black" stroke-linecap="round" stroke-linejoin="round"/>
<path d="M562.676 58.3014C563.869 56.3531 564.706 52.1869 560.699 48.8556C558.939 47.3944 556.544 46.4724 553.547 45.9332C548.905 45.0895 544.767 45.5244 541.501 46.342C538.234 47.1595 535.578 48.4468 534.35 54.2917C533.949 56.1965 534.062 59.1625 534.35 61.0847C534.898 64.7551 537.964 65.2422 540.839 65.825C543.713 66.4077 546.692 66.025 549.602 65.6423C551.048 65.451 552.058 63.32 551.422 62.0153" stroke="black" stroke-linecap="round" stroke-linejoin="round"/>
<path d="M537.982 65.4595C529.202 89.3262 524.829 125.187 531.632 154.011" stroke="black" stroke-linecap="round" stroke-linejoin="round"/>
<path d="M556.274 77.593C581.047 71.435 605.889 71.5655 629.033 77.6539" stroke="black" stroke-linecap="round" stroke-linejoin="round"/>
<path d="M600.384 72.7135C600.384 72.7135 602.422 46.4723 605.558 39.1314C605.558 39.1314 579.278 28.668 561.309 42.941C561.309 42.941 569.749 54.9004 569.209 74.8879" fill="black"/>
<path d="M600.384 72.7135C600.384 72.7135 602.422 46.4723 605.558 39.1314C605.558 39.1314 579.278 28.668 561.309 42.941C561.309 42.941 569.749 54.9004 569.209 74.8879" stroke="black" stroke-linecap="round" stroke-linejoin="round"/>
<path d="M581.534 74.479C581.534 74.479 569.688 88.552 569.078 108.122" stroke="black" stroke-linecap="round" stroke-linejoin="round"/>
<path d="M575.202 74.479C575.202 74.479 563.356 82.2287 559.271 98.9458" stroke="black" stroke-linecap="round" stroke-linejoin="round"/>
<path d="M624.216 105.478C624.216 105.478 622.639 86.804 604.077 73.9487" stroke="black" stroke-linecap="round" stroke-linejoin="round"/>
<path d="M632.7 92.3879C632.7 92.3879 628.083 79.5848 613.066 75.3315" stroke="black" stroke-linecap="round" stroke-linejoin="round"/>
<path d="M553.286 232.613C548.774 229.647 544.767 226.09 541.44 221.985C524.28 200.771 524.559 171.407 530.003 146.123" stroke="black" stroke-linecap="round" stroke-linejoin="round"/>
<path d="M612.404 240.38C603.275 243.094 593.389 243.59 584.731 242.92C582.1 242.711 579.504 242.372 576.961 241.902" stroke="black" stroke-linecap="round" stroke-linejoin="round"/>
<path d="M608.484 74.0703C616.655 75.088 631.358 89.5697 629.111 113.837C628.405 121.482 627.046 132.58 627.203 141.504C627.403 152.994 631.82 161.848 636.732 170.598C645.852 186.846 646.279 204.876 637.551 221.167C635.156 225.638 632.02 229.291 628.388 232.231" stroke="black" stroke-linecap="round" stroke-linejoin="round"/>
<path d="M554.166 98.1373C554.166 98.1373 556.204 85.4908 569.209 74.8882" stroke="black" stroke-linecap="round" stroke-linejoin="round"/>
<path d="M628.501 97.9283C635.243 89.1609 639.729 84.2641 647.899 76.3143C646.096 74.7661 646.836 71.1478 647.289 69.791C648.108 67.3469 650.364 65.5813 652.394 65.1029C656.27 64.1809 656.993 64.5897 659.136 65.1029C661.087 65.5639 662.759 67.0512 664.24 68.4689C666.688 70.8173 667.254 72.6352 666.182 74.3834C664.545 77.0362 659.597 74.8444 657.15 73.5136" stroke="black" stroke-linecap="round" stroke-linejoin="round"/>
<path d="M654.162 64.555C657.672 60.0147 661.714 57.3097 666.958 59.6581C671.487 61.6847 675.085 64.1983 677.306 68.6342C679.753 73.531 677.855 76.9667 673.769 79.7847C669.658 82.6115 667.193 83.1247 663.151 80.1935C660.155 78.0191 657.838 75.9751 659.066 75.0271" stroke="black" stroke-linecap="round" stroke-linejoin="round"/>
<path d="M665.869 82.0288C646.445 109.079 636.323 125.091 629.729 155.212" stroke="black" stroke-linecap="round" stroke-linejoin="round"/>
<path d="M553.286 232.613C548.269 243.59 547.45 253.688 547.424 265.752C543.478 264.256 539.837 264.499 536.397 266.021C532.956 267.544 529.82 270.162 528.548 273.702C528.052 275.084 527.965 276.876 529.132 277.772C529.925 278.381 531.014 278.355 532.007 278.294C543.861 277.65 550.647 276.32 565.124 277.711C565.533 265.473 566.953 255.549 576.961 241.894" stroke="black" stroke-linecap="round" stroke-linejoin="round"/>
<path d="M628.396 232.23C633.413 243.207 634.398 253.688 634.424 265.752C638.37 264.256 642.011 264.499 645.451 266.021C648.892 267.543 652.028 270.161 653.299 273.701C653.796 275.084 653.883 276.876 652.716 277.772C651.923 278.381 650.834 278.355 649.841 278.294C637.986 277.65 631.201 276.319 616.724 277.711C616.315 265.473 615.435 255.758 605.427 242.094" stroke="black" stroke-linecap="round" stroke-linejoin="round"/>
<path d="M608.78 136.138C611.184 136.451 613.885 137.26 614.886 139.46C615.653 141.147 615.13 143.218 613.963 144.661C612.796 146.105 610 147.993 608.284 148.706C602.378 151.15 596.202 151.028 590.105 149.115C584.008 147.201 579.043 144.705 575.602 139.33C574.47 137.555 573.355 134.485 573.154 132.398C572.954 130.31 573.86 127.014 575.437 125.622C578.241 123.16 582.771 122.804 586.22 124.239C593.842 127.414 600.54 135.059 608.772 136.138H608.78Z" fill="#631500" stroke="black" stroke-linecap="round" stroke-linejoin="round"/>
<path d="M592.353 114.854C592.353 114.854 591.534 108.94 584.592 105.878" stroke="black" stroke-linecap="round" stroke-linejoin="round"/>
<path d="M612.875 117.803C612.875 117.803 615.436 112.819 620.54 112.41" stroke="black" stroke-linecap="round" stroke-linejoin="round"/>
<path d="M612.169 137.121C612.169 137.121 611.951 138.712 611.533 139.486C611.115 140.261 607.962 140.182 606.725 139.974C592.301 137.46 584.078 129.632 582.824 128.084C581.569 126.536 582.728 123.543 582.728 123.543C582.728 123.543 584.966 123.509 588.886 125.735C592.806 127.962 598.955 133.05 604.469 135.077C608.641 136.616 609.887 135.912 612.169 137.121Z" fill="white" stroke="black" stroke-linecap="round" stroke-linejoin="round"/>
<path d="M607.872 120.807C608.08 119.614 606.596 118.361 604.558 118.007C602.52 117.653 600.7 118.333 600.492 119.526C600.284 120.719 601.768 121.972 603.806 122.326C605.844 122.68 607.665 122 607.872 120.807Z" fill="#725858" stroke="black" stroke-linecap="round" stroke-linejoin="round"/>
<path d="M592.474 152.577C593.45 152.69 594.469 152.724 595.375 153.003C596.281 153.281 597.065 153.872 596.873 154.455C596.76 154.803 596.324 155.073 595.811 155.221C595.297 155.369 594.722 155.429 594.138 155.464C592.013 155.595 589.748 155.508 587.814 154.864C585.881 154.22 584.374 152.89 584.626 151.594C584.713 151.141 585.149 150.533 586.046 150.567C586.708 150.585 586.978 150.994 587.449 151.237C588.816 151.95 590.758 152.385 592.466 152.577H592.474Z" fill="#BC4242"/>
</g>
<g clip-path="url(#clip3_1351_10)">
<path d="M817.731 41.0428C817.731 41.0428 805.912 43.4089 793.511 51.6448C781.11 59.8806 786.661 75.7789 786.661 75.7789C786.661 75.7789 783.736 54.2475 786.57 33.7079C789.404 13.1684 792.112 10.0925 788.105 9.08237C788.105 9.08237 785.58 9.57379 784.571 11.9581C784.571 11.9581 787.433 1.15596 783.036 0.318723C778.639 -0.51851 775.741 6.62527 775.741 6.62527C775.741 6.62527 762.513 36.7202 774.878 92.7602C774.878 92.7602 778.176 107.366 782.654 120.243C782.654 120.243 770.953 130.208 769.382 143.84C769.382 143.84 763.049 174.654 786.288 192.136C786.288 192.136 765.702 205.859 772.916 220.666C772.916 220.666 774.424 229.602 804.958 224.952C804.958 224.952 798.671 241.46 806.284 242.024C806.284 242.024 809.791 241.997 816.922 227.446C816.922 227.446 820.965 221.012 814.224 216.443C807.483 211.875 789.623 213.14 789.623 213.14C789.623 213.14 797.408 201.509 802.905 199.416C802.905 199.416 808.146 201.91 813.915 201.409C813.915 201.409 819.566 212.594 816.704 262.773L816.277 272.856L843.177 272.774C843.177 272.774 850.318 272.565 845.022 269.098C839.725 265.631 828.424 265.44 828.424 265.44C828.424 265.44 840.279 227.664 833.693 199.598C833.693 199.598 869.105 189.26 867.37 158.356C865.862 131.528 851.254 121.581 851.254 121.581C851.254 121.581 881.052 113.646 907.053 114.146C933.044 114.647 939.031 116.066 938.459 110.533C938.459 110.533 947.816 110.943 944.3 105.364C940.785 99.7766 930.083 94.3073 895.515 100.013C860.947 105.719 841.424 111.971 841.424 111.971C841.424 111.971 850.182 107.485 855.097 96.5914C859.757 86.2534 861.111 67.4521 847.82 51.8541C847.82 51.8541 834.774 36.7384 817.713 41.0428H817.731Z" fill="#59DCC3"/>
<path d="M816.622 41.6888C816.622 41.6888 819.139 67.5065 787.087 75.3783C787.087 75.3783 782.509 57.4051 794.519 50.7345C807.11 43.7455 816.622 41.6797 816.622 41.6797V41.6888Z" fill="#26A38B"/>
<path d="M816.687 41.2339C816.687 41.2339 827.307 54.6842 847.275 51.7448C847.275 51.7448 836.591 37.5937 816.687 41.2339Z" fill="#26A38B"/>
<path d="M793.892 107.585C793.892 107.585 787.297 85.9987 786.697 75.3967C786.697 75.3967 790.104 75.7972 797.372 71.9204C797.372 71.9204 788.296 78.3817 793.892 107.585Z" fill="#26A38B"/>
<path d="M920.652 111.899C928.847 112.981 933.298 113.764 935.433 112.927C938.904 111.571 937.759 109.887 937.178 109.278C936.069 108.741 933.998 108.331 930.11 108.713C930.11 108.713 935.86 106.083 940.475 106.702C944.491 107.239 943.428 103.28 938.931 100.605C942.047 102.307 947.08 105.783 944.355 109.414C944.355 109.414 943.301 110.797 938.849 110.688C939.367 111.562 939.412 112.745 937.768 114.137C936.433 115.266 931.627 114.956 928.075 114.902C909.142 114.638 900.148 111.38 851.735 121.8L849.464 119.761C849.464 119.761 896.469 108.686 920.652 111.889V111.899Z" fill="#26A38B"/>
<path d="M937.077 99.6765C936.959 99.6219 936.841 99.5673 936.714 99.5127C936.714 99.5127 936.85 99.5673 937.077 99.6765Z" fill="#26A38B"/>
<path d="M938.922 100.605C938.132 100.168 937.46 99.8583 937.078 99.6763C937.741 99.9584 938.368 100.268 938.922 100.605Z" fill="#26A38B"/>
<path d="M782.654 120.025C756.635 45.3383 776.922 4.62332 776.922 4.62332C781.001 -1.41022 783.681 0.728364 783.681 0.728364C774.66 0.801167 771.162 37.4665 773.642 65.6594C775.704 89.1475 784.317 115.721 785.416 121.144C786.579 126.859 785.898 127.533 785.898 127.533C766.193 154.579 774.124 176.356 775.277 179.041C758.698 142.831 780.737 121.763 782.654 120.025Z" fill="#26A38B"/>
<path d="M775.277 179.041C775.323 179.132 775.359 179.223 775.405 179.314C775.405 179.314 775.359 179.223 775.277 179.041Z" fill="#26A38B"/>
<path d="M803.804 228.665C803.804 228.665 803.586 234.371 805.957 234.872C808.328 235.372 819.176 224.807 816.096 218.373C816.096 218.373 821.347 221.676 814.233 233.252C807.12 244.827 804.068 241.123 804.068 241.123C804.068 241.123 801.351 240.141 803.813 228.665H803.804Z" fill="#26A38B"/>
<path d="M819.857 200.8C819.857 200.8 823.472 214.596 822.064 240.796C820.656 266.996 820.084 267.351 822.564 269.071C825.044 270.791 841.578 272.838 841.578 272.838H816.286C816.286 272.838 819.375 216.462 814.424 201.473L819.857 200.8Z" fill="#26A38B"/>
<path d="M774.56 205.404C774.56 205.404 770.381 216.925 778.739 219.865C787.097 222.804 802.832 224.388 808.392 224.215C808.392 224.215 779.066 229.575 773.434 221.739C767.801 213.904 774.569 205.404 774.569 205.404H774.56Z" fill="#26A38B"/>
<path d="M833.066 89.4383C831.93 89.4747 830.622 89.7204 830.086 90.4757C829.659 91.0763 829.923 91.8317 830.568 92.2776C831.213 92.7235 832.148 92.8782 833.057 92.8327C833.965 92.7872 834.847 92.5597 835.701 92.3049C836.346 92.1138 837 91.8954 837.554 91.5859C838.108 91.2765 838.59 90.8488 838.771 90.3574C838.953 89.866 838.789 89.3109 838.272 88.9923C837.545 88.5464 836.918 88.8922 836.191 89.1379C835.201 89.4747 834.102 89.411 833.066 89.4383Z" fill="#26A38B"/>
<path d="M836.4 72.4025C836.082 72.2114 835.655 72.2569 835.319 72.4298C834.983 72.6027 834.719 72.8848 834.465 73.1579C833.847 73.8222 833.22 74.4865 832.603 75.1599C832.021 75.7879 831.394 76.5887 831.64 77.3986C831.867 78.1449 832.793 78.4998 833.538 78.3087C834.283 78.1176 834.874 77.5169 835.301 76.8708C835.773 76.161 837.345 72.9759 836.382 72.3934L836.4 72.4025Z" fill="#26A38B"/>
<path d="M823.691 67.6611C824.081 69.1991 824.327 71.1284 824.463 72.366C824.626 73.8039 824.381 75.0779 823.872 76.1518C823.364 77.2256 822.065 78.0992 820.929 78.4269C819.712 78.7727 818.067 78.5998 817.095 77.7989C815.06 76.1063 814.461 72.4934 814.052 69.6905" stroke="black" stroke-linecap="round" stroke-linejoin="round"/>
<path d="M847.865 64.5854C848.156 66.1416 848.292 68.0891 848.346 69.3267C848.419 70.7737 848.101 72.0295 847.529 73.067C846.956 74.1044 845.603 74.8962 844.449 75.151C843.213 75.424 841.578 75.151 840.661 74.2864C838.726 72.4755 838.362 68.8262 838.126 66.0051" stroke="black" stroke-linecap="round" stroke-linejoin="round"/>
<path d="M786.18 192.282C775.56 184.246 769.827 171.551 769.009 158.155C768.174 144.459 770.109 131.865 782.537 120.38" stroke="black" stroke-linecap="round" stroke-linejoin="round"/>
<path d="M820.292 201.045C814.851 201.746 809.109 201.6 802.85 199.999" stroke="black" stroke-linecap="round" stroke-linejoin="round"/>
<path d="M833.593 199.735C838.562 198.415 842.814 196.623 847.165 193.756C866.525 181.006 868.933 166.027 866.343 150.265C863.972 135.823 856.768 125.758 848.783 119.643" stroke="black" stroke-linecap="round" stroke-linejoin="round"/>
<path d="M818.303 40.7334C826.397 39.3684 838.235 42.8356 844.094 48.2594C855.387 58.7066 857.704 68.3348 858.24 80.2927C858.803 93.0423 851.017 109.459 838.235 112.908" stroke="black" stroke-linecap="round" stroke-linejoin="round"/>
<path d="M793.883 107.985C784.989 78.5178 781.982 51.2349 788.823 18.4918C789.35 15.971 791.249 10.9021 788.987 9.67356C786.997 8.59061 785.434 10.3925 784.626 12.5129C784.135 13.7869 783.926 15.1338 783.49 17.9458" stroke="black" stroke-linecap="round" stroke-linejoin="round"/>
<path d="M784.108 14.406C784.372 10.8659 784.926 9.50089 785.189 5.96085C785.307 4.40468 785.516 2.3753 783.845 1.03755C782.046 -0.400307 779.538 1.12855 778.439 2.3025C777.34 3.47645 776.095 4.99621 773.997 11.4029C765.085 38.531 769.227 89.311 785.507 127.514" stroke="black" stroke-linecap="round" stroke-linejoin="round"/>
<path d="M839.316 112.59C868.088 104.181 895.179 98.2111 925.15 98.2202C928.302 98.2202 933.871 98.3112 938.586 100.423C941.466 101.715 946.045 106.119 944.682 108.968C943.855 110.706 940.639 110.715 938.677 110.66" stroke="black" stroke-linecap="round" stroke-linejoin="round"/>
<path d="M851.717 121.663C878.108 116.621 894.543 113.127 920.925 114.819C923.023 114.956 930.437 115.011 932.935 114.792C935.034 114.61 938.458 114.838 938.822 112.353C938.994 111.134 937.813 108.813 934.225 108.913C932.326 108.968 930.482 108.959 929.328 109.114" stroke="black" stroke-linecap="round" stroke-linejoin="round"/>
<path d="M836.536 34.4634C836.536 34.4634 794.882 47.2767 785.625 56.641" stroke="black" stroke-linecap="round" stroke-linejoin="round"/>
<path d="M791.903 51.5627L786.062 40.1418L786.797 30.7775L788.751 20.6033L812.662 10.147L819.276 40.0963L791.903 51.5627Z" fill="black"/>
<path d="M857.777 47.5861C832.994 61.6371 816.686 41.5435 816.686 41.5435C816.686 41.5435 820.102 67.7798 786.57 75.5333" stroke="black" stroke-linecap="round" stroke-linejoin="round"/>
<path d="M792.039 52.0088C792.039 52.0088 785.725 57.5236 785.671 66.9698" stroke="black" stroke-linecap="round" stroke-linejoin="round"/>
<path d="M843.204 83.5962C843.204 83.5962 832.057 87.8006 822.164 85.8531" stroke="black" stroke-linecap="round" stroke-linejoin="round"/>
<path d="M772.843 85.5073C772.843 85.5073 753.174 86.8633 748.159 96.1365C743.908 103.999 756.454 104.272 753.192 107.903C748.595 113.027 742.454 110.397 742.454 110.397C742.454 110.397 751.811 121.035 762.432 110.024C767.256 105.018 760.288 100.696 763.258 96.182C766.229 91.6683 773.56 89.921 773.56 89.921" fill="#26A38B"/>
<path d="M772.843 85.5073C772.843 85.5073 753.174 86.8633 748.159 96.1365C743.908 103.999 756.454 104.272 753.192 107.903C748.595 113.027 742.454 110.397 742.454 110.397C742.454 110.397 751.811 121.035 762.432 110.024C767.256 105.018 760.288 100.696 763.258 96.182C766.229 91.6683 773.56 89.921 773.56 89.921" stroke="black" stroke-linecap="round" stroke-linejoin="round"/>
<path d="M816.686 218.627C816.204 213.795 815.36 207.461 814.306 201.619" stroke="black" stroke-linecap="round" stroke-linejoin="round"/>
<path d="M833.611 199.962C838.744 230.585 830.949 253.09 828.323 265.585C835.273 265.203 840.215 267.123 845.739 269.626C847.329 270.345 846.902 272.729 845.167 272.884C835.119 273.812 826.997 273.184 816.177 273.002C816.104 255.766 817.903 242.898 817.204 226.563" stroke="black" stroke-linecap="round" stroke-linejoin="round"/>
<path d="M807.629 196.705C807.629 196.705 794.665 202.292 789.096 215.542" stroke="black" stroke-linecap="round" stroke-linejoin="round"/>
<path d="M790.304 213.649C790.304 213.649 812.007 211.338 816.931 219.201C820.229 224.47 813.352 235.973 808.074 241.005C806.039 242.943 802.668 241.515 802.677 238.694C802.695 235.518 802.714 228.747 804.985 225.817" stroke="black" stroke-linecap="round" stroke-linejoin="round"/>
<path d="M808.474 224.843C808.474 224.843 782.882 228.164 776.341 224.187C770.39 220.575 765.339 209.964 786.18 192.272" stroke="black" stroke-linecap="round" stroke-linejoin="round"/>
<path d="M833.538 69.4541C833.538 69.4541 839.688 70.2822 834.837 78.2724" stroke="black" stroke-linecap="round" stroke-linejoin="round"/>
<path d="M788.069 9.77397C788.069 9.77397 784.626 9.15515 783.908 18.0007C783.908 18.0007 784.926 12.7407 788.069 9.77397Z" fill="#26A38B"/>
</g>
<defs>
<clipPath id="clip0_1351_10">
<rect width="293.618" height="252.523" fill="white" transform="translate(0 25.2715)"/>
</clipPath>
<clipPath id="clip1_1351_10">
<rect width="148.893" height="254.905" fill="white" transform="translate(294 26.4629)"/>
</clipPath>
<clipPath id="clip2_1351_10">
<rect width="152.563" height="243.764" fill="white" transform="translate(526.267 35)"/>
</clipPath>
<clipPath id="clip3_1351_10">
<rect width="203.381" height="273.83" fill="white" transform="translate(742)"/>
</clipPath>
</defs>
</svg>
