<svg width="1920" height="674" viewBox="0 0 1920 674" fill="none" xmlns="http://www.w3.org/2000/svg">
<rect width="1920" height="674" fill="#F6EFE0"/>
<g opacity="0.2">
<g clip-path="url(#clip0_1355_32)">
<path d="M1088.31 109.868C1088.31 109.868 1070.78 113.377 1052.39 125.592C1034 137.806 1042.23 161.384 1042.23 161.384C1042.23 161.384 1037.9 129.451 1042.1 98.9903C1046.3 68.5291 1050.32 63.9673 1044.38 62.4692C1044.38 62.4692 1040.63 63.198 1039.14 66.7341C1039.14 66.7341 1043.38 50.714 1036.86 49.4723C1030.34 48.2306 1026.04 58.8252 1026.04 58.8252C1026.04 58.8252 1006.42 103.458 1024.76 186.568C1024.76 186.568 1029.65 208.23 1036.29 227.327C1036.29 227.327 1018.94 242.105 1016.61 262.323C1016.61 262.323 1007.22 308.021 1041.68 333.948C1041.68 333.948 1011.15 354.3 1021.85 376.259C1021.85 376.259 1024.09 389.512 1069.37 382.615C1069.37 382.615 1060.05 407.098 1071.34 407.935C1071.34 407.935 1076.54 407.894 1087.11 386.313C1087.11 386.313 1093.11 376.772 1083.11 369.996C1073.12 363.221 1046.63 365.097 1046.63 365.097C1046.63 365.097 1058.17 347.849 1066.33 344.745C1066.33 344.745 1074.1 348.443 1082.65 347.701C1082.65 347.701 1091.04 364.287 1086.79 438.706L1086.16 453.66L1126.05 453.539C1126.05 453.539 1136.64 453.228 1128.79 448.086C1120.93 442.944 1104.17 442.661 1104.17 442.661C1104.17 442.661 1121.75 386.637 1111.99 345.015C1111.99 345.015 1164.5 329.683 1161.93 283.849C1159.69 244.062 1138.03 229.311 1138.03 229.311C1138.03 229.311 1182.22 217.542 1220.78 218.284C1259.33 219.027 1268.21 221.132 1267.36 212.926C1267.36 212.926 1281.24 213.534 1276.02 205.26C1270.81 196.974 1254.94 188.862 1203.67 197.324C1152.41 205.787 1123.45 215.059 1123.45 215.059C1123.45 215.059 1136.44 208.405 1143.73 192.25C1150.64 176.918 1152.65 149.035 1132.94 125.902C1132.94 125.902 1113.59 103.485 1088.29 109.868H1088.31Z" fill="#59DCC3"/>
<path d="M1086.67 110.826C1086.67 110.826 1090.4 149.116 1042.87 160.79C1042.87 160.79 1036.08 134.135 1053.89 124.242C1072.56 113.877 1086.67 110.813 1086.67 110.813V110.826Z" fill="#26A38B"/>
<path d="M1086.76 110.152C1086.76 110.152 1102.51 130.099 1132.13 125.74C1132.13 125.74 1116.28 104.753 1086.76 110.152Z" fill="#26A38B"/>
<path d="M1052.96 208.553C1052.96 208.553 1043.18 176.54 1042.29 160.817C1042.29 160.817 1047.34 161.411 1058.12 155.661C1058.12 155.661 1044.66 165.244 1052.96 208.553Z" fill="#26A38B"/>
<path d="M1240.95 214.951C1253.11 216.557 1259.71 217.717 1262.87 216.476C1268.02 214.465 1266.32 211.968 1265.46 211.064C1263.82 210.267 1260.74 209.66 1254.98 210.227C1254.98 210.227 1263.51 206.326 1270.35 207.244C1276.31 208.04 1274.73 202.17 1268.06 198.202C1272.68 200.725 1280.15 205.881 1276.1 211.266C1276.1 211.266 1274.54 213.318 1267.94 213.156C1268.71 214.451 1268.77 216.206 1266.34 218.271C1264.36 219.944 1257.23 219.485 1251.96 219.404C1223.88 219.013 1210.54 214.181 1138.74 229.635L1135.38 226.611C1135.38 226.611 1205.09 210.186 1240.95 214.937V214.951Z" fill="#26A38B"/>
<path d="M1265.31 196.825C1265.14 196.744 1264.96 196.663 1264.77 196.582C1264.77 196.582 1264.98 196.663 1265.31 196.825Z" fill="#26A38B"/>
<path d="M1268.05 198.202C1266.87 197.554 1265.88 197.095 1265.31 196.825C1266.3 197.244 1267.22 197.702 1268.05 198.202Z" fill="#26A38B"/>
<path d="M1036.29 227.003C997.706 116.238 1027.79 55.8559 1027.79 55.8559C1033.84 46.9078 1037.82 50.0795 1037.82 50.0795C1024.44 50.1874 1019.25 104.564 1022.93 146.376C1025.99 181.21 1038.76 220.619 1040.39 228.663C1042.11 237.138 1041.1 238.137 1041.1 238.137C1011.88 278.248 1023.64 310.545 1025.35 314.526C1000.76 260.825 1033.45 229.581 1036.29 227.003Z" fill="#26A38B"/>
<path d="M1025.35 314.526C1025.42 314.661 1025.47 314.796 1025.54 314.931C1025.54 314.931 1025.47 314.796 1025.35 314.526Z" fill="#26A38B"/>
<path d="M1067.66 388.122C1067.66 388.122 1067.34 396.584 1070.85 397.326C1074.37 398.069 1090.46 382.399 1085.89 372.857C1085.89 372.857 1093.68 377.757 1083.13 394.924C1072.58 412.091 1068.05 406.598 1068.05 406.598C1068.05 406.598 1064.02 405.141 1067.67 388.122H1067.66Z" fill="#26A38B"/>
<path d="M1091.47 346.796C1091.47 346.796 1096.83 367.257 1094.74 406.112C1092.65 444.968 1091.8 445.495 1095.48 448.046C1099.16 450.596 1123.68 453.633 1123.68 453.633H1086.17C1086.17 453.633 1090.75 370.023 1083.41 347.795L1091.47 346.796Z" fill="#26A38B"/>
<path d="M1024.29 353.625C1024.29 353.625 1018.09 370.712 1030.49 375.071C1042.88 379.43 1066.22 381.779 1074.46 381.522C1074.46 381.522 1030.97 389.472 1022.62 377.851C1014.26 366.231 1024.3 353.625 1024.3 353.625H1024.29Z" fill="#26A38B"/>
<path d="M1111.06 181.642C1109.37 181.696 1107.43 182.06 1106.64 183.181C1106 184.071 1106.39 185.192 1107.35 185.853C1108.31 186.514 1109.7 186.744 1111.04 186.676C1112.39 186.609 1113.7 186.271 1114.96 185.893C1115.92 185.61 1116.89 185.286 1117.71 184.827C1118.53 184.368 1119.25 183.734 1119.52 183.005C1119.79 182.276 1119.54 181.453 1118.78 180.981C1117.7 180.319 1116.77 180.832 1115.69 181.197C1114.22 181.696 1112.59 181.602 1111.06 181.642Z" fill="#26A38B"/>
<path d="M1116 156.377C1115.53 156.093 1114.9 156.161 1114.4 156.417C1113.9 156.674 1113.51 157.092 1113.13 157.497C1112.21 158.482 1111.28 159.467 1110.37 160.466C1109.51 161.397 1108.58 162.585 1108.94 163.786C1109.28 164.893 1110.65 165.419 1111.76 165.136C1112.86 164.853 1113.74 163.962 1114.37 163.004C1115.07 161.951 1117.4 157.227 1115.97 156.363L1116 156.377Z" fill="#26A38B"/>
<path d="M1097.15 149.345C1097.73 151.626 1098.09 154.487 1098.3 156.323C1098.54 158.455 1098.18 160.345 1097.42 161.937C1096.67 163.53 1094.74 164.825 1093.06 165.311C1091.25 165.824 1088.81 165.568 1087.37 164.38C1084.35 161.87 1083.46 156.512 1082.86 152.355" stroke="black" stroke-linecap="round" stroke-linejoin="round"/>
<path d="M1133 144.783C1133.44 147.091 1133.64 149.98 1133.72 151.815C1133.83 153.961 1133.35 155.823 1132.51 157.362C1131.66 158.901 1129.65 160.075 1127.94 160.453C1126.11 160.858 1123.68 160.453 1122.32 159.171C1119.45 156.485 1118.91 151.073 1118.56 146.889" stroke="black" stroke-linecap="round" stroke-linejoin="round"/>
<path d="M1041.52 334.164C1025.77 322.246 1017.27 303.419 1016.06 283.553C1014.82 263.241 1017.69 244.562 1036.12 227.529" stroke="black" stroke-linecap="round" stroke-linejoin="round"/>
<path d="M1092.11 347.161C1084.04 348.2 1075.53 347.984 1066.24 345.609" stroke="black" stroke-linecap="round" stroke-linejoin="round"/>
<path d="M1111.84 345.217C1119.21 343.26 1125.51 340.601 1131.97 336.35C1160.68 317.442 1164.25 295.227 1160.41 271.851C1156.89 250.432 1146.21 235.506 1134.37 226.436" stroke="black" stroke-linecap="round" stroke-linejoin="round"/>
<path d="M1089.16 109.41C1101.17 107.385 1118.72 112.527 1127.41 120.571C1144.16 136.065 1147.6 150.344 1148.39 168.078C1149.23 186.986 1137.68 211.334 1118.72 216.449" stroke="black" stroke-linecap="round" stroke-linejoin="round"/>
<path d="M1052.95 209.147C1039.76 165.446 1035.3 124.984 1045.44 76.4243C1046.22 72.6858 1049.04 65.1684 1045.68 63.3464C1042.73 61.7403 1040.42 64.4126 1039.22 67.5572C1038.49 69.4467 1038.18 71.4442 1037.53 75.6145" stroke="black" stroke-linecap="round" stroke-linejoin="round"/>
<path d="M1038.45 70.3647C1038.84 65.1146 1039.66 63.0902 1040.05 57.8401C1040.23 55.5323 1040.54 52.5226 1038.06 50.5386C1035.39 48.4062 1031.67 50.6736 1030.04 52.4146C1028.41 54.1556 1026.57 56.4095 1023.45 65.9109C1010.24 106.143 1016.38 181.453 1040.52 238.11" stroke="black" stroke-linecap="round" stroke-linejoin="round"/>
<path d="M1120.33 215.977C1162.99 203.506 1203.17 194.653 1247.62 194.666C1252.3 194.666 1260.55 194.801 1267.55 197.932C1271.82 199.849 1278.61 206.381 1276.59 210.605C1275.36 213.183 1270.59 213.196 1267.68 213.115" stroke="black" stroke-linecap="round" stroke-linejoin="round"/>
<path d="M1138.72 229.433C1177.86 221.956 1202.23 216.773 1241.36 219.283C1244.47 219.486 1255.46 219.567 1259.17 219.243C1262.28 218.973 1267.36 219.31 1267.9 215.626C1268.15 213.817 1266.4 210.376 1261.08 210.524C1258.26 210.605 1255.53 210.592 1253.82 210.821" stroke="black" stroke-linecap="round" stroke-linejoin="round"/>
<path d="M1116.2 100.111C1116.2 100.111 1054.43 119.114 1040.7 133.001" stroke="black" stroke-linecap="round" stroke-linejoin="round"/>
<path d="M1050.01 125.47L1041.35 108.532L1042.44 94.6445L1045.33 79.5556L1080.8 64.0483L1090.6 108.465L1050.01 125.47Z" fill="black"/>
<path d="M1147.7 119.572C1110.95 140.411 1086.76 110.611 1086.76 110.611C1086.76 110.611 1091.83 149.521 1042.1 161.02" stroke="black" stroke-linecap="round" stroke-linejoin="round"/>
<path d="M1050.21 126.131C1050.21 126.131 1040.85 134.31 1040.77 148.319" stroke="black" stroke-linecap="round" stroke-linejoin="round"/>
<path d="M1126.09 172.977C1126.09 172.977 1109.56 179.212 1094.89 176.324" stroke="black" stroke-linecap="round" stroke-linejoin="round"/>
<path d="M1021.74 175.812C1021.74 175.812 992.572 177.822 985.135 191.575C978.83 203.236 997.436 203.641 992.599 209.026C985.782 216.624 976.674 212.724 976.674 212.724C976.674 212.724 990.551 228.501 1006.3 212.171C1013.46 204.748 1003.12 198.337 1007.53 191.643C1011.93 184.949 1022.81 182.357 1022.81 182.357" fill="#26A38B"/>
<path d="M1021.74 175.812C1021.74 175.812 992.572 177.822 985.135 191.575C978.83 203.236 997.436 203.641 992.599 209.026C985.782 216.624 976.674 212.724 976.674 212.724C976.674 212.724 990.551 228.501 1006.3 212.171C1013.46 204.748 1003.12 198.337 1007.53 191.643C1011.93 184.949 1022.81 182.357 1022.81 182.357" stroke="black" stroke-linecap="round" stroke-linejoin="round"/>
<path d="M1086.76 373.236C1086.05 366.069 1084.8 356.676 1083.23 348.011" stroke="black" stroke-linecap="round" stroke-linejoin="round"/>
<path d="M1111.86 345.555C1119.48 390.97 1107.92 424.346 1104.02 442.877C1114.33 442.31 1121.66 445.158 1129.85 448.869C1132.21 449.935 1131.58 453.471 1129 453.701C1114.1 455.077 1102.06 454.146 1086.01 453.876C1085.9 428.314 1088.57 409.23 1087.53 385.004" stroke="black" stroke-linecap="round" stroke-linejoin="round"/>
<path d="M1073.33 340.723C1073.33 340.723 1054.1 349.01 1045.85 368.66" stroke="black" stroke-linecap="round" stroke-linejoin="round"/>
<path d="M1047.64 365.853C1047.64 365.853 1079.83 362.425 1087.13 374.086C1092.02 381.9 1081.82 398.96 1073.99 406.423C1070.97 409.298 1065.97 407.179 1065.99 402.995C1066.02 398.285 1066.04 388.244 1069.41 383.898" stroke="black" stroke-linecap="round" stroke-linejoin="round"/>
<path d="M1074.58 382.454C1074.58 382.454 1036.63 387.38 1026.93 381.482C1018.1 376.124 1010.61 360.387 1041.52 334.15" stroke="black" stroke-linecap="round" stroke-linejoin="round"/>
<path d="M1111.76 152.004C1111.76 152.004 1120.88 153.232 1113.68 165.082" stroke="black" stroke-linecap="round" stroke-linejoin="round"/>
<path d="M1044.32 63.4953C1044.32 63.4953 1039.22 62.5775 1038.15 75.6959C1038.15 75.6959 1039.66 67.8951 1044.32 63.4953Z" fill="#26A38B"/>
</g>
<g clip-path="url(#clip1_1355_32)">
<path d="M1304.94 298.307C1304.3 297.98 1303.66 297.583 1302.94 297.443C1302.23 297.303 1301.39 297.478 1301 298.085C1300.52 298.809 1300.85 299.836 1301.52 300.407C1302.19 300.979 1303.06 301.178 1303.91 301.364C1306.59 301.959 1309.04 303.348 1311.73 302.881C1313.05 302.659 1314.46 301.878 1315.54 301.061C1316.22 300.547 1318.19 298.389 1317.73 297.443C1313.6 299.521 1309.33 300.512 1304.95 298.295L1304.94 298.307Z" fill="#7565EA"/>
<path d="M1296.54 442.011C1296.17 459.713 1295.45 471.639 1294.67 489.154C1294.52 492.597 1294.41 496.681 1297.22 498.676C1299.03 499.96 1301.44 499.89 1303.66 499.773C1318.32 498.98 1332.98 498.186 1347.64 497.393C1350.15 497.253 1352.92 497.007 1354.64 495.164C1357.46 492.13 1355.24 486.774 1351.54 484.918C1347.83 483.063 1343.46 483.576 1339.34 483.88C1335.22 484.183 1330.65 484.101 1327.51 481.394C1324.82 479.072 1325.13 478.104 1325.38 474.545C1325.62 470.986 1326.61 465.781 1327.18 462.257C1329.33 448.884 1330.49 444.742 1331.93 435.71" fill="#A593FF"/>
<path d="M1331.94 435.71C1337.53 433.855 1342.77 431.182 1348.1 427.203C1359.38 418.767 1363.31 405.65 1365.12 391.671C1366.93 377.691 1365.67 369.15 1364.33 355.112L1370.09 343.723C1373.46 333.151 1371.46 319.148 1362.03 313.337C1361.21 294.013 1360.69 276.264 1361.46 258.551C1361.71 252.471 1362.05 246.286 1360.56 240.382C1359.06 234.477 1355.39 228.806 1349.76 226.507C1345.8 224.885 1341.38 225.095 1337.12 225.317C1327.85 225.819 1326.21 225.072 1315.84 225.55L1249.24 228.853C1239.53 229.378 1233.35 229.355 1223.91 232.587C1206.4 238.561 1211.38 260.558 1211.82 268.913C1214.35 316.441 1219.62 327.585 1212.36 374.623C1210.47 386.875 1207.23 418.125 1220.21 433.843C1227.13 442.233 1238.81 444.73 1249.67 444.543C1253.82 444.473 1258.04 444.322 1262.32 444.1C1263.73 452.198 1264.32 454.077 1265.17 461.674C1265.57 465.174 1266.62 470.542 1266.8 474.066C1266.97 477.59 1265.98 481.348 1263.38 483.716C1260.53 486.307 1254.94 486.797 1251.1 487.019C1247.26 487.24 1243.16 487.439 1240 489.644C1236.83 491.85 1235.37 496.937 1238.18 499.598C1240.02 501.348 1242.84 501.372 1245.38 501.29C1259.69 500.858 1274.01 500.427 1288.32 499.995C1292.54 499.866 1294.61 494.615 1294.2 490.391" fill="#A593FF"/>
<path d="M1367.22 318.459C1367.22 318.459 1376.09 334.761 1367.91 350.094C1360.57 363.864 1338.6 376.991 1299.27 374.296C1299.27 374.296 1337.53 373.549 1358.06 353.548C1365.69 346.115 1374.32 335.741 1367.22 318.459Z" fill="#7565EA"/>
<path d="M1295.46 343.863C1295.46 343.863 1344.92 356.827 1362.22 325.706C1362.22 325.706 1364.29 339.884 1333.85 350.596C1333.85 350.596 1310.16 356.652 1295.46 343.851V343.863Z" fill="#7565EA"/>
<path d="M1232.53 230.638C1232.53 230.638 1220.42 234.792 1221.46 255.878C1222.5 276.964 1222.15 330.91 1246.02 338.507C1246.02 338.507 1239.45 357.866 1294.1 373.432C1294.1 373.432 1265.04 375.848 1235.99 351.996C1235.99 351.996 1217.45 408.008 1230.94 425.64C1244.43 443.271 1267.25 435.757 1267.25 435.757C1267.25 435.757 1274.64 482.69 1261.03 486.062C1261.03 486.062 1265.84 482.339 1266.87 477.38C1267.65 473.623 1266.13 459.153 1262.34 444.298C1262.34 444.298 1247.41 445.699 1235.3 443.283C1223.2 440.868 1211.2 426.48 1210.57 402.827C1210.31 393.06 1211.45 380.294 1212.65 372.487C1215.64 353.035 1217.6 338.39 1213.16 288.727C1209.53 248.013 1206.94 235.131 1232.53 230.638Z" fill="#7565EA"/>
<path d="M1364.33 355.8C1365.66 369.838 1366.93 378.38 1365.12 392.359C1363.31 406.339 1359.38 419.466 1348.1 427.891C1342.78 431.871 1337.54 434.543 1331.94 436.398" stroke="black" stroke-linecap="round" stroke-linejoin="round"/>
<path d="M1315.83 226.25C1326.21 225.772 1327.84 226.519 1337.11 226.017C1341.37 225.784 1345.8 225.585 1349.75 227.207C1355.38 229.506 1359.04 235.189 1360.55 241.082C1362.05 246.975 1361.71 253.171 1361.44 259.251C1360.67 276.976 1361.2 294.724 1362.02 314.037" stroke="black" stroke-linecap="round" stroke-linejoin="round"/>
<path d="M1262.32 444.812C1258.04 445.022 1253.82 445.173 1249.67 445.255C1238.81 445.442 1227.15 442.945 1220.21 434.555C1207.23 418.836 1210.47 387.587 1212.36 375.334C1219.6 328.296 1214.34 317.152 1211.82 269.624C1211.38 261.269 1206.42 239.273 1223.91 233.299C1233.35 230.078 1239.53 230.09 1249.24 229.564" stroke="black" stroke-linecap="round" stroke-linejoin="round"/>
<path d="M1296.54 442.711C1296.17 460.413 1295.45 472.339 1294.67 489.854C1294.52 493.297 1294.41 497.381 1297.22 499.376C1299.03 500.66 1301.44 500.59 1303.66 500.473C1318.32 499.68 1332.98 498.886 1347.64 498.093C1350.15 497.953 1352.92 497.708 1354.64 495.864C1357.46 492.83 1355.24 487.474 1351.54 485.619C1347.83 483.763 1343.46 484.277 1339.34 484.58C1335.22 484.883 1330.65 484.802 1327.51 482.094C1324.82 479.772 1325.13 478.804 1325.38 475.245C1325.62 471.686 1326.61 466.481 1327.18 462.957C1329.33 449.585 1330.49 445.442 1331.93 436.41" stroke="black" stroke-linecap="round" stroke-linejoin="round"/>
<path d="M1262.32 444.812C1263.73 452.91 1264.68 454.637 1265.53 462.233C1265.93 465.734 1266.98 471.102 1267.16 474.626C1267.33 478.15 1266.34 481.907 1263.74 484.276C1260.89 486.867 1255.3 487.357 1251.46 487.579C1247.62 487.8 1243.52 487.999 1240.36 490.204C1237.19 492.41 1235.74 497.497 1238.54 500.158C1240.38 501.908 1243.21 501.931 1245.74 501.85C1260.05 501.418 1274.37 500.986 1288.68 500.555C1292.91 500.426 1294.97 495.175 1294.56 490.951" stroke="black" stroke-linecap="round" stroke-linejoin="round"/>
<path d="M1362.03 314.037C1371.46 319.836 1373.46 333.839 1370.09 344.423C1366.73 354.995 1362.52 360.689 1344.13 369.36C1334.12 374.086 1315.64 376.664 1301.95 375.147C1279.24 372.615 1264.46 364.529 1253.64 354.598C1250.87 352.054 1248.24 349.219 1246.74 345.765C1245.24 342.311 1245.01 338.122 1246.94 334.889C1249.68 330.28 1256.03 328.915 1261.2 330.338C1266.37 331.75 1270.65 335.309 1274.76 338.763C1274.08 336.371 1273.81 333.466 1274.2 331.015C1274.58 328.565 1276.38 326.137 1278.85 325.869C1282.86 325.437 1285.11 330.175 1286.77 333.851C1291.95 345.345 1305.56 355.275 1329.72 351.658C1342.17 349.791 1356.46 341.762 1361.81 330.338" stroke="black" stroke-linecap="round" stroke-linejoin="round"/>
<path d="M1292.85 342.252C1305.57 341.249 1319.13 335.869 1328.61 327.304C1332.46 323.827 1338.29 316.895 1342.16 320.746C1344.78 323.337 1342.59 327.549 1339.71 329.848C1343.45 327.211 1345.82 324.994 1349.26 321.995C1351.36 320.163 1355.34 318.132 1359.47 320.98C1362.52 323.08 1362.22 328.121 1361.84 330.128" stroke="black" stroke-linecap="round" stroke-linejoin="round"/>
<path d="M1246.96 334.574C1244.91 333.536 1242.1 331.132 1239.12 327.351" stroke="black" stroke-linecap="round" stroke-linejoin="round"/>
<path d="M1300.82 375.066C1274.55 375.392 1237.23 360.223 1222.88 337.643" stroke="black" stroke-linecap="round" stroke-linejoin="round"/>
<path d="M1286.33 308.342C1288.81 315.169 1295.78 320.093 1303.03 320.128C1310.27 320.163 1317.29 315.297 1319.82 308.494" stroke="black" stroke-linecap="round" stroke-linejoin="round"/>
<path d="M1321.86 274.758C1321.77 277.652 1322.08 281.188 1322.32 283.429C1322.59 286.042 1323.52 288.225 1324.84 289.928C1326.16 291.632 1328.82 292.682 1330.97 292.822C1333.27 292.974 1336.13 292.017 1337.55 290.197C1340.52 286.393 1340.17 279.718 1339.81 274.572" stroke="black" stroke-linecap="round" stroke-linejoin="round"/>
<path d="M1270.75 274.525C1270.5 277.408 1270.6 280.955 1270.71 283.207C1270.82 285.833 1271.63 288.061 1272.85 289.847C1274.08 291.632 1276.66 292.822 1278.81 293.091C1281.09 293.371 1284 292.589 1285.53 290.862C1288.72 287.233 1288.75 280.547 1288.68 275.389" stroke="black" stroke-linecap="round" stroke-linejoin="round"/>
<path d="M1228.03 220.964C1242.52 229.459 1261.3 234.384 1285.63 233.03C1307.57 231.805 1323.21 224.01 1336.2 213.379" stroke="black" stroke-linecap="round" stroke-linejoin="round"/>
<path d="M1315.83 226.25C1314.88 213.449 1313.75 209.179 1317 183.215C1317.3 180.823 1317.65 178.046 1315.91 176.389C1314.55 175.058 1312.45 175 1310.55 175C1294.38 175.058 1281.57 180.718 1263.99 179.901C1259.96 179.714 1251.28 175.56 1246.68 179.901C1242.09 184.242 1244.86 193.542 1245.33 198.326C1246.45 209.634 1248.11 218.234 1249.22 229.553C1249.22 229.553 1268.81 234.956 1286.63 232.878C1304.44 230.801 1315.81 226.25 1315.81 226.25H1315.83Z" fill="black"/>
<path d="M1318.51 225.69C1316.05 226.846 1312.5 228.444 1311.51 232.575C1310.92 235.037 1311.35 238.596 1313.02 240.51C1315.66 243.532 1319.2 244.583 1323.08 242.996C1325.83 241.875 1328.03 238.97 1329.09 237.675C1327.72 239.425 1326.43 241.07 1325.78 243.649C1324.75 247.652 1327.35 251.654 1330.79 253.579C1333.12 254.875 1337.11 255.528 1340.55 254.058C1344 252.588 1345.8 249.892 1347.05 246.718C1345.22 251.257 1344.78 253.708 1345 256.042C1345.28 258.901 1346.92 261.258 1349.64 262.53C1352.96 264.082 1354.73 264.012 1356.65 264.023C1360.92 264.07 1364.89 258.352 1365.46 252.844C1365.75 257.559 1366.64 263.393 1370.29 265.202C1374.34 267.197 1381.24 265.89 1383.76 262.145C1386.24 258.48 1386.76 253.579 1382.77 248.655" stroke="black" stroke-linecap="round" stroke-linejoin="round"/>
<path d="M1266.43 233.299C1268.39 237.173 1268.13 243.241 1264.54 245.493C1260.96 247.757 1253.79 248.037 1251.46 244.396C1254.99 248.293 1254.82 255.236 1251.07 258.912C1247.34 262.6 1240.72 262.343 1237.25 258.387C1238.99 264.058 1235.22 270.861 1229.68 272.086C1224.13 273.312 1218.08 268.679 1217.48 262.763C1218.27 268.096 1215.02 273.778 1210.15 275.541C1205.28 277.303 1199.39 274.922 1196.89 270.196C1194.39 265.47 1195.6 258.959 1199.59 255.551" stroke="black" stroke-linecap="round" stroke-linejoin="round"/>
<path d="M1307.57 286.475C1307.57 286.475 1322.09 288.89 1318.29 297.887C1314.5 306.884 1302.38 301.003 1302.38 301.003" stroke="black" stroke-linecap="round" stroke-linejoin="round"/>
<path d="M1308.84 322.753C1309.13 322.742 1309.43 322.73 1309.7 322.835C1310.37 323.103 1310.57 324.025 1310.25 324.667C1309.94 325.309 1309.28 325.717 1308.62 325.997C1306.22 327.001 1303.36 326.768 1301.17 325.391C1300.73 325.111 1299.4 324.095 1299.68 323.419C1299.91 322.847 1301.77 323.068 1302.27 323.045C1304.46 322.94 1306.66 322.847 1308.85 322.742L1308.84 322.753Z" fill="#7565EA"/>
</g>
<g clip-path="url(#clip2_1355_32)">
<path d="M1184.86 569.106C1180.95 569.083 1176.94 569.083 1173.27 570.438C1169.6 571.793 1166.28 574.808 1165.72 578.675C1164.94 584.038 1169.49 588.688 1174.13 591.469C1185.77 598.421 1199.87 599.648 1213.41 600.033C1236.25 600.688 1259.28 599.426 1281.46 593.958C1303.65 588.49 1325.01 578.663 1342.16 563.568L1331.26 547.981C1312.26 559.619 1289.36 562.937 1267.11 564.117C1241.58 565.472 1215.92 564.351 1190.62 560.775C1188.21 560.437 1185.38 560.203 1183.7 561.955C1181.58 564.175 1182.99 568.171 1185.64 569.714C1188.29 571.256 1191.56 571.081 1194.62 570.859" fill="#FFE76D"/>
<path d="M1540.24 548.367C1544.36 547.806 1548.72 547.9 1552.39 549.839C1556.05 551.79 1558.75 555.973 1557.93 560.039C1557.25 563.369 1555.71 565.624 1552.86 567.458C1549.65 569.526 1545.06 570.905 1536.11 571.127C1501.86 572.003 1468.65 566.08 1439.82 554.606L1436.22 536.473C1451.64 541.228 1470.68 543.576 1486.81 543.436C1502.95 543.296 1518.8 542.852 1534.88 541.672C1537.21 541.497 1542.23 540.141 1543.6 543.658C1544.17 545.13 1543.75 546.416 1540.62 548.227C1539.25 549.021 1537.03 549.781 1535.45 549.886" fill="#FFE76D"/>
<path d="M1399.82 693.925C1417.41 689.789 1439.84 678.561 1445.81 650.111C1453.88 611.624 1445.53 579.318 1437 540.936C1432.37 520.057 1426.37 499.026 1414.35 481.348C1402.33 463.67 1379.66 447.371 1360.69 446.145L1326.43 464.36C1321.46 471.756 1320.73 479.993 1319.49 488.826C1316.31 511.493 1308.03 567.015 1301.65 589.985C1294.13 607.09 1289.08 629.512 1292.77 647.821C1297.36 670.546 1312.78 684.672 1329.49 693.026C1337.06 707.712 1338.96 716.849 1341.4 734.468C1336.58 732.833 1333.46 731.734 1328.37 731.676C1324.73 731.629 1320.75 732.155 1318.25 734.796C1314.74 738.499 1316.16 744.598 1319.81 748.162C1322.5 750.779 1326.17 752.205 1329.86 752.8C1333.55 753.396 1335.37 753.455 1339.12 753.291C1343.48 753.093 1347.83 752.906 1352.18 752.707C1354.68 752.59 1357.41 752.392 1359.22 750.662C1361.94 748.068 1360.91 745.393 1360.14 741.712C1357.39 728.591 1358.48 712.094 1361.68 699.066C1367.54 699.288 1370.11 699.44 1376.54 698.762" fill="#FFE76D"/>
<path d="M1340.02 566.442C1340.02 566.442 1316.27 585.522 1309.14 613.178C1302.4 639.303 1305.5 672.252 1329.38 693.014C1329.38 693.014 1287.84 675.36 1292 626.544C1292 626.544 1295.51 598.246 1302.13 588.245C1302.13 588.245 1327.44 577.215 1340.02 566.431V566.442Z" fill="#EAC734"/>
<path d="M1558 556.277C1558 556.277 1558.69 574.621 1504.87 564.409C1451.06 554.197 1437 540.936 1437 540.936L1439.82 554.606C1439.82 554.606 1484.1 574.96 1543.12 570.637C1543.12 570.637 1561.63 568.218 1558 556.265V556.277Z" fill="#EAC734"/>
<path d="M1168.78 573.931C1168.78 573.931 1160.46 596.785 1226.76 596.785C1254.11 596.785 1285.95 592.976 1307.58 585.358C1307.58 585.358 1261.21 608.212 1194.4 598.865C1194.4 598.865 1156.16 592.112 1168.78 573.943V573.931Z" fill="#EAC734"/>
<path d="M1341.16 456.228C1341.16 456.228 1332.85 462.806 1330.42 501.573C1327.99 540.34 1324.19 551.767 1324.19 551.767C1324.19 551.767 1315.36 557.305 1308.45 558.345C1308.45 558.345 1316.93 504.249 1318.74 490.497C1320.55 476.745 1321.59 468.169 1325.67 464.009L1341.16 456.216V456.228Z" fill="#EAC734"/>
<path d="M1398.27 501.748C1398.7 502.601 1399.14 503.478 1399.79 504.19C1400.43 504.903 1401.8 506.212 1402.75 506.165C1406.08 505.99 1406.87 502.146 1405.6 502.66C1404.56 503.092 1402.17 503.384 1401.13 503.139C1400.09 502.893 1399.1 502.414 1398.26 501.748H1398.27Z" fill="#EAC734"/>
<path d="M1331.23 548.449C1312.22 560.086 1289.33 563.404 1267.07 564.584C1241.55 565.94 1215.88 564.818 1190.58 561.243C1188.18 560.904 1185.35 560.67 1183.67 562.423C1181.54 564.643 1182.95 568.639 1185.61 570.181C1188.26 571.723 1191.53 571.548 1194.59 571.326" stroke="black" stroke-linecap="round" stroke-linejoin="round"/>
<path d="M1184.81 569.573C1180.9 569.55 1176.89 569.55 1173.22 570.905C1169.56 572.261 1166.24 575.275 1165.68 579.142C1164.89 584.505 1169.44 589.156 1174.09 591.936C1185.72 598.888 1199.82 600.115 1213.36 600.501C1236.2 601.155 1259.23 599.893 1281.42 594.425C1303.6 588.957 1324.97 579.131 1342.11 564.035" stroke="black" stroke-linecap="round" stroke-linejoin="round"/>
<path d="M1329 693.142C1312.29 684.788 1296.87 669.272 1292.28 646.547C1288.58 628.238 1293.64 605.805 1301.16 588.712" stroke="black" stroke-linecap="round" stroke-linejoin="round"/>
<path d="M1360.2 446.273C1379.17 447.5 1401.84 462.408 1413.86 480.086C1425.88 497.764 1431.89 518.807 1436.51 539.674C1445.04 578.056 1453.39 610.362 1445.32 648.849C1439.35 677.311 1417.1 689.474 1399.51 693.598" stroke="black" stroke-linecap="round" stroke-linejoin="round"/>
<path d="M1308.5 557.808C1311.67 535.141 1315.82 510.231 1319 487.564C1320.24 478.731 1320.97 470.506 1325.94 463.098" stroke="black" stroke-linecap="round" stroke-linejoin="round"/>
<path d="M1436.08 536.391C1451.5 541.146 1470.54 543.495 1486.67 543.355C1502.8 543.215 1518.66 542.771 1534.74 541.59C1537.07 541.415 1542.09 540.06 1543.46 543.577C1544.03 545.049 1543.61 546.334 1540.48 548.145C1539.11 548.94 1536.89 549.699 1535.31 549.804" stroke="black" stroke-linecap="round" stroke-linejoin="round"/>
<path d="M1540.12 548.285C1544.23 547.724 1548.6 547.818 1552.26 549.757C1555.93 551.697 1558.62 555.891 1557.8 559.957C1557.12 563.287 1555.58 565.542 1552.73 567.376C1549.52 569.445 1544.93 570.823 1535.98 571.045C1501.73 571.922 1468.74 566.068 1439.91 554.594" stroke="black" stroke-linecap="round" stroke-linejoin="round"/>
<path d="M1379.02 436.318C1379.02 436.318 1343.68 456.052 1314.99 467.993" stroke="black" stroke-linecap="round" stroke-linejoin="round"/>
<path d="M1360.2 446.273C1360.2 446.273 1355.37 427.602 1343.68 416.584C1343.68 416.584 1322.79 417.04 1307.65 434.94C1307.65 434.94 1318.86 446.822 1325.97 462.888" fill="black"/>
<path d="M1360.2 446.273C1360.2 446.273 1355.37 427.602 1343.68 416.584C1343.68 416.584 1322.79 417.04 1307.65 434.94C1307.65 434.94 1318.86 446.822 1325.97 462.888" stroke="black" stroke-linecap="round" stroke-linejoin="round"/>
<path d="M1345.77 455.094C1347.91 462.292 1345.05 470.704 1338.96 475.097C1334.23 478.509 1323.72 481.465 1317.06 476.254" stroke="black" stroke-linecap="round" stroke-linejoin="round"/>
<path d="M1309.87 475.95C1323.33 488.651 1340.55 484.176 1347.5 477.703C1354.45 471.23 1356.32 459.92 1351.81 451.554" stroke="black" stroke-linecap="round" stroke-linejoin="round"/>
<path d="M1367.85 447.488C1368.77 451.776 1371.98 457.735 1378.71 459.733C1387.58 462.35 1395.38 460.188 1397.68 456.823" stroke="black" stroke-linecap="round" stroke-linejoin="round"/>
<path d="M1363.11 447.64C1362.91 455.165 1369.36 462.747 1377.33 465.996C1395.69 473.497 1405.66 464.991 1411.44 460.177" stroke="black" stroke-linecap="round" stroke-linejoin="round"/>
<path d="M1378.44 495.544C1380.28 495.544 1381.77 494.053 1381.77 492.214C1381.77 490.375 1380.28 488.884 1378.44 488.884C1376.6 488.884 1375.11 490.375 1375.11 492.214C1375.11 494.053 1376.6 495.544 1378.44 495.544Z" fill="black"/>
<path d="M1410.8 491.174C1412.64 491.174 1414.13 489.684 1414.13 487.845C1414.13 486.006 1412.64 484.515 1410.8 484.515C1408.96 484.515 1407.47 486.006 1407.47 487.845C1407.47 489.684 1408.96 491.174 1410.8 491.174Z" fill="black"/>
<path d="M1400.7 491.233L1404.12 496.923C1404.88 498.185 1405.64 499.458 1405.98 500.884C1406.32 502.309 1406.15 503.933 1405.19 505.055C1404.24 506.176 1402.39 506.55 1401.27 505.604" stroke="black" stroke-linecap="round" stroke-linejoin="round"/>
<path d="M1413.41 513.689C1410.05 515.127 1400.45 517.977 1381.87 514.636C1381.13 514.507 1380.46 515.115 1380.57 515.851C1381.36 521.366 1385.11 540.212 1399.2 539.137C1413.29 538.062 1411.83 524.135 1414.35 514.484C1414.5 513.923 1413.93 513.444 1413.39 513.678L1413.41 513.689Z" fill="#631500" stroke="black" stroke-miterlimit="10"/>
<path d="M1395.37 543.191C1394.4 543.133 1392.74 542.864 1392.25 543.705C1391.91 544.278 1392.23 544.757 1392.71 545.201C1393.24 545.703 1394.35 546.194 1395 546.369C1397.11 546.953 1398.44 546.871 1400.39 546.533C1402.23 546.217 1404.72 545.166 1403.91 543.448C1403.35 542.256 1400.81 543.542 1395.37 543.191Z" fill="#EAC734"/>
<path d="M1410.95 516.003C1410.95 516.003 1411.47 519.123 1399.24 519.543C1387.98 519.929 1387.98 517.954 1387.39 515.676C1387.39 515.676 1401.39 517.604 1411.06 514.683L1410.95 516.003Z" fill="white" stroke="black" stroke-miterlimit="10"/>
</g>
<path d="M1283.99 385.544C1281.21 380.001 1276.7 377.311 1271.03 374.774C1264.46 371.834 1259.25 375.33 1254.85 381.003L1254.24 381.123C1253.58 381.232 1253.57 381.21 1252.67 381.428C1250.13 382.027 1247.71 383.355 1246.68 386.426C1246.12 388.125 1244.91 393.831 1247.16 395.769C1237.26 405.418 1231.08 412.289 1222.99 422.689C1218.61 404.438 1205.18 392.437 1193.3 391.838L1172.77 391.479L1149.01 393.537C1132.73 406.812 1130.1 421.915 1130.1 421.915L1129.98 422.144C1130.09 412.507 1130.99 403.632 1132.97 392.938C1137.52 391.904 1141.18 387.363 1142.12 383.279C1142.97 379.566 1142.18 377.148 1141.11 374.883C1140.86 374.349 1140.91 373.936 1140.3 373.271L1140.77 372.052C1142.26 369.613 1143.31 365.366 1138.29 361.195C1136.09 359.365 1133.09 358.211 1129.34 357.536C1123.53 356.48 1118.35 357.024 1114.26 358.048C1110.02 359.104 1106.84 359.714 1105.31 367.032C1104.8 369.416 1104.95 373.13 1105.31 375.536C1105.75 378.586 1107.85 381.079 1110.08 381.82C1100.17 408.979 1094.45 447.811 1099.92 481.852L1099.84 482.005C1093.03 513.661 1092.69 550.424 1114.16 576.973C1118.33 582.124 1123.34 587.547 1128.99 591.249C1122.71 604.992 1121.69 617.635 1121.65 632.739C1116.71 630.866 1112.15 631.171 1107.85 633.077C1103.54 634.982 1099.61 638.26 1098.02 642.692C1097.4 644.424 1097.29 646.667 1098.75 647.788C1099.74 648.551 1101.11 648.518 1102.35 648.442C1117.19 647.636 1125.69 645.97 1143.81 647.712C1144.33 632.39 1146.09 619.53 1158.62 602.422C1161.81 603.01 1165.07 603.881 1168.36 604.143C1177.04 604.818 1184.14 604.949 1193.52 603.076L1194.97 604.045C1207.5 621.152 1207.9 632.401 1208.42 647.723C1226.54 645.992 1235.04 647.647 1249.88 648.453C1251.12 648.518 1252.49 648.551 1253.48 647.799C1254.94 646.678 1254.83 644.434 1254.21 642.703C1252.62 638.271 1248.7 634.982 1244.38 633.087C1240.08 631.182 1235.52 630.877 1230.58 632.75C1230.54 617.646 1229.31 604.513 1223.03 590.781C1227.58 587.1 1231.49 581.558 1234.5 575.96C1245.44 555.564 1244.9 532.979 1233.48 512.648C1230.08 506.582 1226.86 500.473 1224.62 493.787C1232.89 456.076 1245.63 436.595 1269.95 402.728L1271.39 402.401C1274.65 403.632 1276.39 402.325 1280.27 399.657C1285.39 396.14 1287.06 391.686 1283.99 385.566V385.544Z" fill="#E17878"/>
<path d="M1128.4 590.694C1128.4 590.694 1082.6 565.408 1100.17 484.226C1100.17 484.226 1091.32 428.449 1110.06 381.82C1110.06 381.82 1111.27 382.549 1113.41 382.44C1113.41 382.44 1098.59 425.781 1109.74 484.346C1109.74 484.346 1093.03 552.95 1128.4 590.705V590.694Z" fill="#BC4242"/>
<path d="M1168.15 391.904C1168.15 391.904 1135.51 397.229 1134.71 471.921C1134.71 471.921 1128.24 429.331 1130.18 421.099C1130.18 421.099 1137.93 400.289 1150.38 393.515L1168.15 391.904Z" fill="#BC4242"/>
<path d="M1265.33 399.319C1265.33 399.319 1259.97 403.947 1259.92 404.002C1257.9 405.973 1236.86 427.959 1222.44 456.033L1221.63 463.862L1221.31 480.643C1221.31 480.643 1222.77 490.466 1224.62 493.787C1224.62 493.787 1227.28 458.221 1270.22 402.281L1266.9 400.811" fill="#BC4242"/>
<path d="M1228.73 646.318C1228.73 646.318 1218.88 648.093 1216.29 636.964C1213.71 625.835 1211.76 611.472 1202.4 601.312L1193.51 603.087C1193.51 603.087 1208.44 616.546 1208.41 647.723L1228.73 646.318Z" fill="#BC4242"/>
<path d="M1158.62 602.433C1158.62 602.433 1142.26 622.503 1143.81 647.723L1132.93 646.797C1132.93 646.797 1140.04 613.562 1158.62 602.433Z" fill="#BC4242"/>
<path d="M1134.79 473.598C1129.94 444.49 1127.49 421.894 1132.81 393.102C1137.36 392.067 1141.02 388.495 1141.96 384.412C1142.81 380.698 1142 377.584 1140.93 375.308C1140.25 373.86 1137.92 371.605 1135.82 370.462C1132.07 368.415 1129.75 368.219 1125.5 367.99C1123.76 367.892 1121.18 368.24 1119.54 368.839C1117.89 369.438 1116.33 370.244 1115.79 371.899C1114.85 374.753 1116.21 376.321 1118.85 377.094C1121.74 377.932 1125.32 377.845 1128.31 377.606" stroke="black" stroke-linecap="round" stroke-linejoin="round"/>
<path d="M1140.58 373.173C1142.08 370.734 1143.13 365.518 1138.11 361.347C1135.91 359.518 1132.91 358.363 1129.16 357.688C1123.34 356.632 1118.16 357.176 1114.07 358.2C1109.98 359.224 1106.66 360.835 1105.12 368.153C1104.62 370.538 1104.76 374.251 1105.12 376.658C1105.81 381.253 1109.65 381.863 1113.24 382.593C1116.84 383.322 1120.57 382.843 1124.22 382.364C1126.03 382.125 1127.29 379.457 1126.49 377.823" stroke="black" stroke-linecap="round" stroke-linejoin="round"/>
<path d="M1109.67 382.136C1098.68 412.017 1093.2 456.915 1101.72 493.003" stroke="black" stroke-linecap="round" stroke-linejoin="round"/>
<path d="M1132.57 397.326C1163.58 389.617 1194.69 389.78 1223.66 397.403" stroke="black" stroke-linecap="round" stroke-linejoin="round"/>
<path d="M1187.8 391.217C1187.8 391.217 1190.35 358.363 1194.27 349.172C1194.27 349.172 1161.37 336.072 1138.87 353.942C1138.87 353.942 1149.44 368.915 1148.76 393.94" fill="black"/>
<path d="M1187.8 391.217C1187.8 391.217 1190.35 358.363 1194.27 349.172C1194.27 349.172 1161.37 336.072 1138.87 353.942C1138.87 353.942 1149.44 368.915 1148.76 393.94" stroke="black" stroke-linecap="round" stroke-linejoin="round"/>
<path d="M1164.2 393.428C1164.2 393.428 1149.36 411.047 1148.6 435.549" stroke="black" stroke-linecap="round" stroke-linejoin="round"/>
<path d="M1156.27 393.428C1156.27 393.428 1141.44 403.131 1136.32 424.061" stroke="black" stroke-linecap="round" stroke-linejoin="round"/>
<path d="M1217.63 432.239C1217.63 432.239 1215.66 408.859 1192.42 392.764" stroke="black" stroke-linecap="round" stroke-linejoin="round"/>
<path d="M1228.25 415.85C1228.25 415.85 1222.47 399.82 1203.67 394.495" stroke="black" stroke-linecap="round" stroke-linejoin="round"/>
<path d="M1128.83 591.413C1123.18 587.699 1118.16 583.245 1114 578.105C1092.51 551.546 1092.86 514.782 1099.68 483.126" stroke="black" stroke-linecap="round" stroke-linejoin="round"/>
<path d="M1202.84 601.137C1191.42 604.535 1179.04 605.155 1168.2 604.317C1164.9 604.056 1161.65 603.631 1158.47 603.043" stroke="black" stroke-linecap="round" stroke-linejoin="round"/>
<path d="M1197.94 392.916C1208.17 394.19 1226.58 412.321 1223.76 442.703C1222.88 452.275 1221.18 466.171 1221.37 477.343C1221.62 491.729 1227.15 502.814 1233.3 513.769C1244.72 534.111 1245.26 556.685 1234.33 577.082C1231.33 582.679 1227.4 587.253 1222.86 590.933" stroke="black" stroke-linecap="round" stroke-linejoin="round"/>
<path d="M1129.93 423.048C1129.93 423.048 1132.48 407.214 1148.76 393.94" stroke="black" stroke-linecap="round" stroke-linejoin="round"/>
<path d="M1223 422.787C1231.44 411.81 1237.06 405.679 1247.28 395.726C1245.03 393.788 1245.95 389.257 1246.52 387.559C1247.55 384.499 1250.37 382.288 1252.91 381.689C1257.76 380.535 1258.67 381.047 1261.35 381.689C1263.8 382.266 1265.89 384.128 1267.74 385.903C1270.81 388.844 1271.52 391.12 1270.18 393.308C1268.13 396.63 1261.93 393.886 1258.87 392.219" stroke="black" stroke-linecap="round" stroke-linejoin="round"/>
<path d="M1255.13 381.003C1259.52 375.318 1264.58 371.932 1271.15 374.872C1276.82 377.409 1281.32 380.556 1284.1 386.11C1287.17 392.241 1284.79 396.542 1279.67 400.071C1274.53 403.61 1271.44 404.252 1266.38 400.582C1262.63 397.86 1259.73 395.301 1261.27 394.114" stroke="black" stroke-linecap="round" stroke-linejoin="round"/>
<path d="M1269.78 402.88C1245.46 436.747 1232.79 456.795 1224.54 494.506" stroke="black" stroke-linecap="round" stroke-linejoin="round"/>
<path d="M1128.83 591.413C1122.55 605.155 1121.52 617.798 1121.49 632.902C1116.55 631.029 1111.99 631.334 1107.68 633.24C1103.38 635.145 1099.45 638.423 1097.86 642.855C1097.24 644.587 1097.13 646.83 1098.59 647.952C1099.58 648.714 1100.94 648.681 1102.19 648.605C1117.03 647.799 1125.52 646.133 1143.65 647.875C1144.16 632.554 1145.94 620.129 1158.47 603.032" stroke="black" stroke-linecap="round" stroke-linejoin="round"/>
<path d="M1222.87 590.934C1229.15 604.676 1230.38 617.798 1230.41 632.902C1235.35 631.029 1239.91 631.334 1244.22 633.24C1248.53 635.146 1252.45 638.423 1254.05 642.855C1254.67 644.587 1254.78 646.83 1253.32 647.952C1252.32 648.714 1250.96 648.681 1249.72 648.605C1234.87 647.799 1226.38 646.133 1208.25 647.876C1207.74 632.554 1206.64 620.39 1194.11 603.282" stroke="black" stroke-linecap="round" stroke-linejoin="round"/>
<path d="M1198.31 470.625C1201.32 471.017 1204.7 472.03 1205.95 474.785C1206.91 476.897 1206.26 479.489 1204.8 481.297C1203.34 483.104 1199.83 485.467 1197.69 486.36C1190.29 489.42 1182.56 489.268 1174.93 486.872C1167.29 484.476 1161.08 481.351 1156.77 474.621C1155.35 472.4 1153.96 468.556 1153.7 465.942C1153.45 463.329 1154.59 459.202 1156.56 457.459C1160.07 454.377 1165.74 453.931 1170.06 455.728C1179.6 459.703 1187.99 469.275 1198.3 470.625H1198.31Z" fill="#631500" stroke="black" stroke-linecap="round" stroke-linejoin="round"/>
<path d="M1177.74 443.978C1177.74 443.978 1176.72 436.573 1168.02 432.74" stroke="black" stroke-linecap="round" stroke-linejoin="round"/>
<path d="M1203.43 447.669C1203.43 447.669 1206.64 441.43 1213.03 440.918" stroke="black" stroke-linecap="round" stroke-linejoin="round"/>
<path d="M1202.55 471.855C1202.55 471.855 1202.28 473.848 1201.75 474.817C1201.23 475.786 1197.28 475.688 1195.73 475.427C1177.67 472.28 1167.38 462.479 1165.81 460.541C1164.24 458.603 1165.69 454.856 1165.69 454.856C1165.69 454.856 1168.49 454.813 1173.4 457.601C1178.31 460.388 1186.01 466.759 1192.91 469.296C1198.13 471.224 1199.69 470.342 1202.55 471.855Z" fill="white" stroke="black" stroke-linecap="round" stroke-linejoin="round"/>
<path d="M1197.17 451.43C1197.43 449.937 1195.57 448.368 1193.02 447.925C1190.47 447.482 1188.19 448.333 1187.93 449.827C1187.67 451.32 1189.53 452.889 1192.08 453.332C1194.63 453.775 1196.91 452.923 1197.17 451.43Z" fill="#725858" stroke="black" stroke-linecap="round" stroke-linejoin="round"/>
<path d="M1177.89 491.206C1179.11 491.348 1180.39 491.391 1181.52 491.74C1182.66 492.088 1183.64 492.829 1183.4 493.558C1183.26 493.994 1182.71 494.332 1182.07 494.517C1181.43 494.702 1180.71 494.778 1179.98 494.822C1177.31 494.985 1174.48 494.876 1172.06 494.07C1169.64 493.264 1167.75 491.598 1168.07 489.976C1168.18 489.409 1168.72 488.647 1169.84 488.691C1170.67 488.713 1171.01 489.224 1171.6 489.529C1173.31 490.422 1175.74 490.967 1177.88 491.206H1177.89Z" fill="#BC4242"/>
</g>
<defs>
<clipPath id="clip0_1355_32">
<rect width="301.626" height="406.104" fill="white" transform="translate(976 49)"/>
</clipPath>
<clipPath id="clip1_1355_32">
<rect width="191.271" height="327.457" fill="white" transform="translate(1195 175)"/>
</clipPath>
<clipPath id="clip2_1355_32">
<rect width="393.525" height="258" fill="white" transform="translate(1165 416)"/>
</clipPath>
</defs>
</svg>
