<svg width="1055" height="164" viewBox="0 0 1055 164" fill="none" xmlns="http://www.w3.org/2000/svg">
<path d="M0.364 29.824L7.224 11.008H9.604L16.408 29.824H13.832L11.928 24.532H4.592L2.716 29.824H0.364ZM8.176 14.312L5.32 22.432H11.172L8.26 14.312H8.176ZM19.1417 29.824V11.008H21.6057V29.824H19.1417ZM47.1365 29.852H25.0445V27.836H34.7885V22.096H27.6765V10.476H44.5325V12.492H30.1405V20.08H44.6725V22.096H37.2805V27.836H47.1365V29.852ZM69.515 32.96H67.051V8.488H69.515V32.96ZM64.139 25.232L62.655 27.08C61.423 26.2213 60.2284 25.1293 59.071 23.804C57.9324 22.46 57.1577 21.1253 56.747 19.8C56.3177 21.2933 55.5524 22.7587 54.451 24.196C53.3497 25.6333 52.099 26.8093 50.699 27.724L49.159 25.904C51.0257 24.7093 52.5377 23.1227 53.695 21.144C54.8524 19.1467 55.431 17.0373 55.431 14.816V10.644H58.007V14.704C58.007 16.9067 58.5857 18.96 59.743 20.864C60.9004 22.7493 62.3657 24.2053 64.139 25.232ZM95.5896 21.704H73.4976V19.8H95.5896V21.704ZM93.8256 32.512H76.0176V27.108H90.5776V25.288H76.0176V23.412H93.0416V28.844H78.4816V30.636H93.8256V32.512ZM93.4056 18.064H76.2696V12.884H90.4376V11.176H76.2976V9.328H92.9016V14.564H78.7616V16.216H93.4056V18.064ZM20.44 57.22H3.724V46.412H6.216V49.884H17.976V46.412H20.44V57.22ZM13.3 69.988H10.808V62.036H1.064V59.992H23.156V62.036H13.3V69.988ZM17.976 55.232V51.9H6.216V55.232H17.976ZM28.5666 57.276H29.4346C33.7839 57.276 37.0412 57.052 39.2066 56.604L39.4586 58.536C37.0319 59.0213 33.3452 59.2827 28.3986 59.32H26.1306V47.084H37.3866V49.1H28.5666V51.956H37.1066V53.972H28.5666V57.276ZM28.2586 61.504H44.1906V69.96H41.7266V63.492H28.2586V61.504ZM47.8306 53.916H44.1906V60.216H41.6986V45.488H44.1906V51.872H47.8306V53.916ZM70.1811 69.96H67.8011V57.64H65.2811V68.756H62.9011V46.02H65.2811V55.596H67.8011V45.488H70.1811V69.96ZM61.1931 59.46C61.1931 60.9347 60.6985 62.1107 59.7091 62.988C58.7198 63.8467 57.4225 64.276 55.8171 64.276C54.2305 64.276 52.9331 63.828 51.9251 62.932C50.9171 62.0173 50.4131 60.86 50.4131 59.46C50.4131 58.004 50.9078 56.8467 51.8971 55.988C52.9051 55.1107 54.2118 54.672 55.8171 54.672C57.4225 54.672 58.7198 55.1107 59.7091 55.988C60.6985 56.8467 61.1931 58.004 61.1931 59.46ZM57.9451 61.476C58.5238 60.9347 58.8131 60.2627 58.8131 59.46C58.8131 58.6573 58.5238 57.9947 57.9451 57.472C57.3851 56.9493 56.6758 56.688 55.8171 56.688C54.9398 56.688 54.2118 56.9587 53.6331 57.5C53.0731 58.0227 52.7931 58.676 52.7931 59.46C52.7931 60.2813 53.0731 60.9627 53.6331 61.504C54.1931 62.0267 54.9211 62.288 55.8171 62.288C56.6758 62.288 57.3851 62.0173 57.9451 61.476ZM61.6971 53.552H49.5731V51.508H61.6971V53.552ZM58.8691 49.352H52.2891V47.336H58.8691V49.352ZM75.3957 62.372L75.0877 47.112H77.8037L77.4957 62.372H75.3957ZM75.1157 67.3V64.584H77.8317V67.3H75.1157Z" fill="black"/>
<path d="M232.767 31.0648L237.727 17.6448H239.007L243.947 31.0648H242.587L241.067 26.9648H235.507L234.007 31.0648H232.767ZM238.267 19.3848L235.887 25.8448H240.667L238.307 19.3848H238.267ZM246.12 31.0648V17.6448H247.42V31.0648H246.12ZM265.743 25.1248H249.963V24.1048H265.743V25.1248ZM264.343 32.9248H251.943V29.1848H262.463V27.6848H251.903V26.6648H263.743V30.1648H253.223V31.8248H264.343V32.9248ZM263.943 22.5248H252.083V18.9848H262.363V17.4848H252.063V16.4248H263.643V20.0048H253.363V21.4848H263.943V22.5248ZM288.302 31.0648H272.522V29.9648H279.742V25.3448H274.622V17.3448H286.242V18.4448H275.902V24.2448H286.322V25.3448H281.022V29.9648H288.302V31.0648ZM304.066 25.1848H302.786V15.8248H304.066V25.1848ZM304.086 33.0648H292.866V26.1648H294.146V28.5448H302.806V26.1648H304.086V33.0648ZM302.806 32.0048V29.6048H294.146V32.0048H302.806ZM294.746 16.7048C295.96 16.7048 296.986 17.0715 297.826 17.8048C298.68 18.5381 299.106 19.4915 299.106 20.6648C299.106 21.8381 298.68 22.7915 297.826 23.5248C296.986 24.2581 295.96 24.6248 294.746 24.6248C293.52 24.6248 292.486 24.2648 291.646 23.5448C290.806 22.8115 290.386 21.8581 290.386 20.6848C290.386 19.4981 290.806 18.5381 291.646 17.8048C292.486 17.0715 293.52 16.7048 294.746 16.7048ZM294.746 17.8648C293.853 17.8648 293.113 18.1248 292.526 18.6448C291.953 19.1515 291.666 19.8248 291.666 20.6648C291.666 21.4915 291.96 22.1715 292.546 22.7048C293.133 23.2248 293.866 23.4848 294.746 23.4848C295.666 23.4848 296.406 23.2248 296.966 22.7048C297.526 22.1848 297.806 21.5115 297.806 20.6848C297.806 19.8448 297.526 19.1648 296.966 18.6448C296.406 18.1248 295.666 17.8648 294.746 17.8648ZM323.211 22.2048H320.511V26.7248H319.231V15.8248H320.511V21.1048H323.211V22.2048ZM320.511 33.0448H309.531V27.5648H320.511V33.0448ZM319.231 31.9648V28.6448H310.811V31.9648H319.231ZM314.551 17.4248H309.571V16.3048H314.551V17.4248ZM317.051 19.8048H307.071V18.7048H317.051V19.8048ZM315.931 23.5648C315.931 24.4315 315.564 25.1315 314.831 25.6648C314.098 26.1848 313.158 26.4448 312.011 26.4448C310.864 26.4448 309.924 26.1848 309.191 25.6648C308.458 25.1448 308.091 24.4448 308.091 23.5648C308.091 22.6848 308.451 21.9915 309.171 21.4848C309.904 20.9648 310.851 20.7048 312.011 20.7048C313.171 20.7048 314.111 20.9648 314.831 21.4848C315.564 21.9915 315.931 22.6848 315.931 23.5648ZM313.891 24.8848C314.411 24.5515 314.671 24.1115 314.671 23.5648C314.671 23.0181 314.411 22.5848 313.891 22.2648C313.384 21.9315 312.758 21.7648 312.011 21.7648C311.264 21.7648 310.631 21.9315 310.111 22.2648C309.604 22.5848 309.351 23.0181 309.351 23.5648C309.351 24.1115 309.611 24.5515 310.131 24.8848C310.651 25.2181 311.278 25.3848 312.011 25.3848C312.744 25.3848 313.371 25.2181 313.891 24.8848ZM340.216 30.8648H324.436V29.7848H340.216V30.8648ZM338.536 21.7248C338.536 23.0448 337.962 24.0981 336.816 24.8848C335.682 25.6715 334.176 26.0648 332.296 26.0648C330.416 26.0648 328.909 25.6715 327.776 24.8848C326.656 24.0981 326.096 23.0448 326.096 21.7248C326.096 20.4181 326.662 19.3715 327.796 18.5848C328.929 17.7848 330.429 17.3848 332.296 17.3848C334.176 17.3848 335.682 17.7848 336.816 18.5848C337.962 19.3715 338.536 20.4181 338.536 21.7248ZM337.276 21.7248C337.276 20.7648 336.822 19.9915 335.916 19.4048C335.009 18.8181 333.802 18.5248 332.296 18.5248C330.802 18.5248 329.602 18.8181 328.696 19.4048C327.802 19.9915 327.356 20.7648 327.356 21.7248C327.356 22.6715 327.809 23.4381 328.716 24.0248C329.622 24.6115 330.816 24.9048 332.296 24.9048C333.789 24.9048 334.989 24.6115 335.896 24.0248C336.816 23.4381 337.276 22.6715 337.276 21.7248ZM357.52 31.0648H341.74V29.9648H348.96V26.7248H343.84V21.3248H354.14V18.3648H343.84V17.2848H355.42V22.4048H345.12V25.6448H355.88V26.7248H350.24V29.9648H357.52V31.0648ZM373.465 33.3048H372.185V23.4848H368.905V22.3848H372.185V15.8248H373.465V33.3048ZM370.825 28.0248L370.025 28.9048C369.318 28.3181 368.678 27.5848 368.105 26.7048C367.532 25.8248 367.178 25.0315 367.045 24.3248C366.912 25.1781 366.552 26.1315 365.965 27.1848C365.392 28.2248 364.698 29.1515 363.885 29.9648L362.945 29.1848C364.012 28.2648 364.852 27.0915 365.465 25.6648C366.092 24.2381 366.405 22.8048 366.405 21.3648V17.5048H367.625V21.3248C367.625 22.7248 367.905 24.0115 368.465 25.1848C369.038 26.3448 369.825 27.2915 370.825 28.0248ZM364.785 25.9648L364.065 26.8848C363.732 26.6448 363.378 26.2781 363.005 25.7848C362.632 25.2781 362.372 24.7915 362.225 24.3248C362.105 25.0315 361.778 25.8115 361.245 26.6648C360.725 27.5181 360.145 28.2515 359.505 28.8648L358.605 28.0848C359.472 27.3381 360.178 26.4181 360.725 25.3248C361.285 24.2181 361.565 23.0181 361.565 21.7248V17.7048H362.785V21.6848C362.785 22.6715 362.985 23.5515 363.385 24.3248C363.798 25.0981 364.265 25.6448 364.785 25.9648ZM395.844 24.8448H394.564V15.8248H395.844V24.8448ZM396.544 33.1848H384.744V28.8648H394.584V26.8648H384.644V25.7648H395.864V29.8648H386.004V32.0848H396.544V33.1848ZM386.464 16.5448C387.677 16.5448 388.697 16.8981 389.524 17.6048C390.364 18.3115 390.784 19.2315 390.784 20.3648C390.784 21.4981 390.364 22.4248 389.524 23.1448C388.697 23.8515 387.677 24.2048 386.464 24.2048C385.264 24.2048 384.244 23.8515 383.404 23.1448C382.564 22.4381 382.144 21.5181 382.144 20.3848C382.144 19.2515 382.564 18.3315 383.404 17.6248C384.244 16.9048 385.264 16.5448 386.464 16.5448ZM386.464 17.6648C385.597 17.6648 384.877 17.9181 384.304 18.4248C383.73 18.9181 383.444 19.5648 383.444 20.3648C383.444 21.1648 383.73 21.8181 384.304 22.3248C384.877 22.8181 385.597 23.0648 386.464 23.0648C387.37 23.0648 388.097 22.8248 388.644 22.3448C389.204 21.8515 389.484 21.1981 389.484 20.3848C389.484 19.5715 389.204 18.9181 388.644 18.4248C388.097 17.9181 387.37 17.6648 386.464 17.6648ZM400.328 27.7048C399.582 26.5981 399.208 25.1048 399.208 23.2248C399.208 21.3448 399.582 19.8581 400.328 18.7648C401.075 17.6581 402.122 17.1048 403.468 17.1048C404.735 17.1048 405.735 17.5981 406.468 18.5848C407.215 19.5581 407.628 20.9048 407.708 22.6248H411.868V15.8248H413.148V33.3048H411.868V23.7248H407.708C407.642 25.4715 407.242 26.8448 406.508 27.8448C405.775 28.8448 404.762 29.3448 403.468 29.3448C402.122 29.3448 401.075 28.7981 400.328 27.7048ZM406.488 23.2448C406.488 21.7781 406.208 20.5781 405.648 19.6448C405.102 18.7115 404.375 18.2448 403.468 18.2448C402.562 18.2448 401.835 18.7115 401.288 19.6448C400.742 20.5648 400.468 21.7648 400.468 23.2448C400.468 24.6981 400.742 25.8915 401.288 26.8248C401.835 27.7581 402.562 28.2248 403.468 28.2248C404.375 28.2248 405.102 27.7581 405.648 26.8248C406.208 25.8915 406.488 24.6981 406.488 23.2448ZM432.493 23.9448H429.573V33.3048H428.293V15.8248H429.573V22.8648H432.493V23.9448ZM426.733 27.9048C425.653 28.1581 424.166 28.3581 422.273 28.5048C420.393 28.6515 418.633 28.7248 416.993 28.7248V17.7248H418.273V27.5848C419.406 27.5848 420.82 27.5181 422.513 27.3848C424.206 27.2381 425.546 27.0248 426.533 26.7448L426.733 27.9048ZM449.298 26.0648H433.518V24.9648H449.298V26.0648ZM447.458 32.8648H435.718V27.7848H436.978V31.7648H447.458V32.8648ZM447.398 22.4848H435.738V16.4248H436.998V21.3848H447.398V22.4848ZM472.356 23.9448H469.436V33.3048H468.156V15.8248H469.436V22.8648H472.356V23.9448ZM466.716 28.3048C463.863 28.8248 460.583 29.0248 456.876 28.9048V17.6448H465.016V18.7448H458.156V27.7648C459.423 27.8315 460.89 27.8115 462.556 27.7048C464.236 27.5848 465.563 27.4181 466.536 27.2048L466.716 28.3048ZM485.461 27.5848C486.448 28.1715 486.941 28.9581 486.941 29.9448C486.941 30.9315 486.448 31.7181 485.461 32.3048C484.474 32.9048 483.054 33.2048 481.201 33.2048C479.348 33.2048 477.934 32.9115 476.961 32.3248C475.988 31.7381 475.501 30.9448 475.501 29.9448C475.501 28.9315 475.988 28.1381 476.961 27.5648C477.934 26.9781 479.348 26.6848 481.201 26.6848C483.054 26.6848 484.474 26.9848 485.461 27.5848ZM481.201 27.7448C479.841 27.7448 478.768 27.9448 477.981 28.3448C477.208 28.7448 476.821 29.2781 476.821 29.9448C476.821 30.6248 477.208 31.1581 477.981 31.5448C478.754 31.9315 479.828 32.1248 481.201 32.1248C482.588 32.1248 483.668 31.9381 484.441 31.5648C485.228 31.1781 485.621 30.6381 485.621 29.9448C485.621 29.2648 485.228 28.7315 484.441 28.3448C483.654 27.9448 482.574 27.7448 481.201 27.7448ZM478.021 16.8248C479.234 16.8248 480.268 17.1981 481.121 17.9448C481.974 18.6915 482.401 19.6581 482.401 20.8448C482.401 22.0448 481.974 23.0248 481.121 23.7848C480.281 24.5315 479.248 24.9048 478.021 24.9048C476.794 24.9048 475.754 24.5315 474.901 23.7848C474.061 23.0381 473.641 22.0715 473.641 20.8848C473.641 19.6848 474.061 18.7115 474.901 17.9648C475.754 17.2048 476.794 16.8248 478.021 16.8248ZM478.021 17.9248C477.128 17.9248 476.388 18.1981 475.801 18.7448C475.228 19.2781 474.941 19.9781 474.941 20.8448C474.941 21.7248 475.228 22.4381 475.801 22.9848C476.388 23.5315 477.128 23.8048 478.021 23.8048C478.954 23.8048 479.701 23.5381 480.261 23.0048C480.821 22.4581 481.101 21.7515 481.101 20.8848C481.101 20.0048 480.814 19.2915 480.241 18.7448C479.681 18.1981 478.941 17.9248 478.021 17.9248ZM489.461 22.3648V23.4648H486.741V26.4448H485.461V15.8248H486.741V18.6048H489.461V19.7048H486.741V22.3648H489.461ZM506.766 23.0448H504.046V28.6048H502.766V15.8248H504.046V21.9648H506.766V23.0448ZM504.806 32.6848H493.226V28.3048H494.506V31.6048H504.806V32.6848ZM498.106 17.7448H493.126V16.6448H498.106V17.7448ZM500.646 20.2848H490.626V19.1848H500.646V20.2848ZM499.626 24.2848C499.626 25.1915 499.246 25.9248 498.486 26.4848C497.739 27.0448 496.786 27.3248 495.626 27.3248C494.466 27.3248 493.506 27.0515 492.746 26.5048C491.999 25.9448 491.626 25.2048 491.626 24.2848C491.626 23.3515 491.999 22.6181 492.746 22.0848C493.492 21.5381 494.452 21.2648 495.626 21.2648C496.799 21.2648 497.759 21.5381 498.506 22.0848C499.252 22.6181 499.626 23.3515 499.626 24.2848ZM498.366 24.2848C498.366 23.6848 498.099 23.2115 497.566 22.8648C497.032 22.5181 496.386 22.3448 495.626 22.3448C494.852 22.3448 494.199 22.5181 493.666 22.8648C493.146 23.2115 492.886 23.6848 492.886 24.2848C492.886 24.8715 493.146 25.3448 493.666 25.7048C494.199 26.0515 494.852 26.2248 495.626 26.2248C496.386 26.2248 497.032 26.0515 497.566 25.7048C498.099 25.3448 498.366 24.8715 498.366 24.2848ZM523.004 24.0448L522.244 25.0648C521.298 24.5848 520.444 23.9781 519.684 23.2448C518.924 22.4981 518.384 21.6848 518.064 20.8048C517.531 22.6448 516.078 24.2315 513.704 25.5648L512.924 24.5848C514.244 23.9181 515.311 23.0581 516.124 22.0048C516.951 20.9381 517.364 19.7315 517.364 18.3848V16.6848H518.644V18.3448C518.644 19.6515 519.091 20.8248 519.984 21.8648C520.878 22.8915 521.884 23.6181 523.004 24.0448ZM526.864 30.0048C526.864 31.0181 526.344 31.8181 525.304 32.4048C524.264 32.9915 522.838 33.2848 521.024 33.2848C519.211 33.2848 517.784 32.9915 516.744 32.4048C515.718 31.8315 515.204 31.0315 515.204 30.0048C515.204 28.9781 515.718 28.1715 516.744 27.5848C517.784 26.9981 519.211 26.7048 521.024 26.7048C522.838 26.7048 524.264 26.9981 525.304 27.5848C526.344 28.1715 526.864 28.9781 526.864 30.0048ZM521.024 27.7848C519.638 27.7848 518.538 27.9781 517.724 28.3648C516.924 28.7515 516.524 29.2981 516.524 30.0048C516.524 30.6981 516.924 31.2381 517.724 31.6248C518.538 32.0115 519.638 32.2048 521.024 32.2048C522.424 32.2048 523.524 32.0115 524.324 31.6248C525.138 31.2381 525.544 30.6981 525.544 30.0048C525.544 29.2981 525.138 28.7515 524.324 28.3648C523.524 27.9781 522.424 27.7848 521.024 27.7848ZM529.324 21.8448H526.604V26.5448H525.324V15.8248H526.604V20.7448H529.324V21.8448ZM544.049 30.4848C544.049 31.4048 543.536 32.0981 542.509 32.5648C541.482 33.0448 540.089 33.2848 538.329 33.2848C536.569 33.2848 535.182 33.0448 534.169 32.5648C533.156 32.0981 532.649 31.4048 532.649 30.4848C532.649 29.5648 533.156 28.8715 534.169 28.4048C535.182 27.9248 536.556 27.6848 538.289 27.6848C540.022 27.6848 541.416 27.9248 542.469 28.4048C543.522 28.8848 544.049 29.5781 544.049 30.4848ZM541.489 26.3448C539.369 26.5715 537.516 26.7315 535.929 26.8248C533.876 26.9715 532.076 27.0448 530.529 27.0448L530.289 25.9248C531.769 25.9248 533.376 25.8781 535.109 25.7848V24.4448C534.136 24.3781 533.349 24.1648 532.749 23.8048C532.149 23.4315 531.849 22.9115 531.849 22.2448C531.849 21.4981 532.216 20.9381 532.949 20.5648C533.696 20.1781 534.636 19.9848 535.769 19.9848C536.916 19.9848 537.856 20.1715 538.589 20.5448C539.336 20.9181 539.709 21.4781 539.709 22.2248C539.709 22.9048 539.402 23.4315 538.789 23.8048C538.176 24.1648 537.376 24.3781 536.389 24.4448V25.7248C538.509 25.6048 540.176 25.4648 541.389 25.3048L541.489 26.3448ZM538.329 28.8048C537.022 28.8048 535.982 28.9515 535.209 29.2448C534.436 29.5381 534.049 29.9515 534.049 30.4848C534.049 31.0315 534.436 31.4515 535.209 31.7448C535.982 32.0248 537.022 32.1648 538.329 32.1648C541.209 32.1648 542.649 31.6048 542.649 30.4848C542.649 29.9248 542.262 29.5048 541.489 29.2248C540.729 28.9448 539.676 28.8048 538.329 28.8048ZM546.629 22.8448H543.909V27.7048H542.629V15.8248H543.909V21.7448H546.629V22.8448ZM537.709 23.1648C538.216 22.9515 538.469 22.6381 538.469 22.2248C538.469 21.8115 538.216 21.5048 537.709 21.3048C537.202 21.1048 536.556 21.0048 535.769 21.0048C534.982 21.0048 534.336 21.1048 533.829 21.3048C533.336 21.5048 533.089 21.8115 533.089 22.2248C533.089 22.6515 533.336 22.9648 533.829 23.1648C534.336 23.3648 534.982 23.4648 535.769 23.4648C536.556 23.4648 537.202 23.3648 537.709 23.1648ZM540.789 19.4248H530.889V18.3248H540.789V19.4248ZM538.189 17.2648H533.409V16.1248H538.189V17.2648ZM563.634 24.4048H547.854V23.3848H563.634V24.4048ZM562.114 33.0048H549.774V28.9048H560.234V27.0848H549.734V26.0448H561.514V29.9248H551.054V31.9648H562.114V33.0048ZM561.714 21.6848H549.914V16.6248H561.534V17.6648H551.194V20.6448H561.714V21.6848ZM580.938 24.6048H565.158V23.5648H580.938V24.6048ZM579.478 33.0048H567.118V29.1448H577.518V27.3848H567.058V26.3048H578.798V30.1648H568.398V31.9448H579.478V33.0048ZM578.998 19.2848C578.998 20.2848 578.478 21.0315 577.438 21.5248C576.398 22.0181 574.938 22.2648 573.058 22.2648C571.205 22.2648 569.752 22.0181 568.698 21.5248C567.658 21.0181 567.138 20.2715 567.138 19.2848C567.138 18.2981 567.658 17.5581 568.698 17.0648C569.752 16.5581 571.205 16.3048 573.058 16.3048C574.938 16.3048 576.398 16.5581 577.438 17.0648C578.478 17.5581 578.998 18.2981 578.998 19.2848ZM576.458 17.8448C575.618 17.5115 574.485 17.3448 573.058 17.3448C571.632 17.3448 570.505 17.5115 569.678 17.8448C568.865 18.1781 568.458 18.6581 568.458 19.2848C568.458 19.9115 568.865 20.3915 569.678 20.7248C570.505 21.0448 571.632 21.2048 573.058 21.2048C574.485 21.2048 575.618 21.0448 576.458 20.7248C577.298 20.3915 577.718 19.9115 577.718 19.2848C577.718 18.6581 577.298 18.1781 576.458 17.8448ZM596.537 28.2248L595.677 29.1648C594.984 28.6581 594.277 27.9381 593.557 27.0048C592.85 26.0581 592.37 25.1315 592.117 24.2248C591.97 25.1981 591.55 26.1581 590.857 27.1048C590.164 28.0515 589.337 28.8848 588.377 29.6048L587.497 28.6648C588.564 27.9981 589.497 27.0048 590.297 25.6848C591.097 24.3515 591.497 22.9115 591.497 21.3648V19.0648H588.017V17.9648H596.077V19.0648H592.757V21.3048C592.757 22.8781 593.124 24.2515 593.857 25.4248C594.604 26.5981 595.497 27.5315 596.537 28.2248ZM598.977 32.3848H597.697V23.3248H594.837V22.2448H597.697V16.2648H598.977V32.3848ZM602.437 33.3048H601.157V15.8248H602.437V33.3048ZM619.342 33.3048H618.062V15.8248H619.342V33.3048ZM615.582 28.0048L614.742 29.0248C613.822 28.3848 612.928 27.5648 612.062 26.5648C611.195 25.5515 610.595 24.5315 610.262 23.5048C609.955 24.5848 609.402 25.6448 608.602 26.6848C607.815 27.7115 606.875 28.6448 605.782 29.4848L604.902 28.4848C606.182 27.6981 607.282 26.5781 608.202 25.1248C609.135 23.6715 609.602 22.2181 609.602 20.7648V17.4648H610.922V20.7448C610.922 22.2248 611.382 23.6315 612.302 24.9648C613.222 26.2848 614.315 27.2981 615.582 28.0048ZM638.606 24.3648H635.686V33.3048H634.406V15.8248H635.686V23.2648H638.606V24.3648ZM629.846 18.2448H624.786V17.1048H629.846V18.2448ZM632.486 21.1448H622.266V20.0648H632.486V21.1448ZM631.546 25.9848C631.546 26.9981 631.173 27.8448 630.426 28.5248C629.68 29.1915 628.713 29.5248 627.526 29.5248C626.34 29.5248 625.366 29.1915 624.606 28.5248C623.86 27.8448 623.486 26.9981 623.486 25.9848C623.486 24.9581 623.86 24.1048 624.606 23.4248C625.353 22.7448 626.326 22.4048 627.526 22.4048C628.713 22.4048 629.68 22.7448 630.426 23.4248C631.173 24.1048 631.546 24.9581 631.546 25.9848ZM629.486 27.7648C630.006 27.2981 630.266 26.7048 630.266 25.9848C630.266 25.2648 630.006 24.6715 629.486 24.2048C628.966 23.7381 628.313 23.5048 627.526 23.5048C626.74 23.5048 626.086 23.7381 625.566 24.2048C625.046 24.6715 624.786 25.2648 624.786 25.9848C624.786 26.7048 625.046 27.2981 625.566 27.7648C626.086 28.2315 626.74 28.4648 627.526 28.4648C628.313 28.4648 628.966 28.2315 629.486 27.7648ZM655.411 30.6848H639.631V29.5848H645.871V23.4248H647.151V29.5848H655.411V30.6848ZM653.191 17.7248V20.0648C653.191 22.9981 652.964 25.4381 652.511 27.3848L651.251 27.1648C651.651 25.5915 651.851 23.4515 651.851 20.7448V18.8248H641.271V17.7248H653.191ZM677.97 30.6848H662.19V29.5848H677.97V30.6848ZM675.61 17.8648C675.61 19.5715 675.536 21.4315 675.39 23.4448C675.243 25.4581 675.03 26.9981 674.75 28.0648L673.47 27.8848C673.71 27.0981 673.91 25.7115 674.07 23.7248C674.243 21.7381 674.303 20.1448 674.25 18.9448H663.83V17.8648H675.61ZM683.574 17.4448C684.681 17.4448 685.548 17.9248 686.174 18.8848C686.814 19.8315 687.168 21.1381 687.234 22.8048H689.534V16.1648H690.814V32.4448H689.534V23.8848H687.234C687.168 25.5381 686.814 26.8381 686.174 27.7848C685.534 28.7181 684.668 29.1848 683.574 29.1848C682.401 29.1848 681.488 28.6648 680.834 27.6248C680.194 26.5715 679.874 25.1315 679.874 23.3048C679.874 21.4781 680.194 20.0448 680.834 19.0048C681.488 17.9648 682.401 17.4448 683.574 17.4448ZM685.314 26.8048C685.741 25.9515 685.954 24.7848 685.954 23.3048C685.954 21.8248 685.741 20.6648 685.314 19.8248C684.888 18.9848 684.308 18.5648 683.574 18.5648C682.828 18.5648 682.241 18.9848 681.814 19.8248C681.388 20.6648 681.174 21.8248 681.174 23.3048C681.174 24.7848 681.388 25.9515 681.814 26.8048C682.241 27.6448 682.828 28.0648 683.574 28.0648C684.308 28.0648 684.888 27.6448 685.314 26.8048ZM694.214 33.3048H692.934V15.8248H694.214V33.3048ZM711.519 33.3048H710.239V23.9848H707.639V32.3848H706.379V16.2648H707.639V22.9048H710.239V15.8248H711.519V33.3048ZM705.239 28.2248C702.879 28.6115 700.286 28.7781 697.459 28.7248V18.0248H704.019V19.1248H698.739V27.5848C701.032 27.6248 703.139 27.4515 705.059 27.0648L705.239 28.2248ZM728.824 33.3048H727.544V24.2848H725.124V32.3848H723.864V16.2648H725.124V23.2048H727.544V15.8248H728.824V33.3048ZM721.264 23.3448C721.93 23.9581 722.264 24.7648 722.264 25.7648C722.264 26.7648 721.93 27.5715 721.264 28.1848C720.597 28.7981 719.724 29.1048 718.644 29.1048C717.59 29.1048 716.724 28.7915 716.044 28.1648C715.377 27.5248 715.044 26.7248 715.044 25.7648C715.044 24.7515 715.377 23.9381 716.044 23.3248C716.71 22.7115 717.577 22.4048 718.644 22.4048C719.724 22.4048 720.597 22.7181 721.264 23.3448ZM721.024 25.7648C721.024 25.0848 720.797 24.5381 720.344 24.1248C719.904 23.7115 719.337 23.5048 718.644 23.5048C717.95 23.5048 717.377 23.7181 716.924 24.1448C716.484 24.5581 716.264 25.0981 716.264 25.7648C716.264 26.4448 716.484 26.9915 716.924 27.4048C717.377 27.8181 717.95 28.0248 718.644 28.0248C719.337 28.0248 719.904 27.8115 720.344 27.3848C720.797 26.9581 721.024 26.4181 721.024 25.7648ZM722.884 21.1648H714.124V20.0848H722.884V21.1648ZM720.904 18.4048H716.264V17.2848H720.904V18.4048ZM746.562 25.6048L745.862 26.6248C745.049 26.3715 744.222 25.8915 743.382 25.1848C742.542 24.4648 741.949 23.7115 741.602 22.9248C741.349 23.7115 740.796 24.5115 739.942 25.3248C739.089 26.1381 738.149 26.7315 737.122 27.1048L736.422 26.1048C737.582 25.7715 738.622 25.0981 739.542 24.0848C740.476 23.0715 740.942 22.0515 740.942 21.0248V20.7448H737.002V19.6448H746.162V20.7448H742.242V21.0048C742.242 21.9915 742.696 22.9448 743.602 23.8648C744.509 24.7848 745.496 25.3648 746.562 25.6048ZM752.742 22.4648H750.022V28.5248H748.742V15.8248H750.022V21.3848H752.742V22.4648ZM750.782 32.6848H739.202V27.4448H740.482V31.6048H750.782V32.6848ZM743.882 17.7448H739.242V16.6648H743.882V17.7448ZM766.927 20.9648H763.207V19.8648H766.927V15.8248H768.207V26.3848H766.927V20.9648ZM768.407 30.0648C768.407 31.0648 767.9 31.8515 766.887 32.4248C765.874 32.9981 764.44 33.2848 762.587 33.2848C760.734 33.2848 759.3 32.9981 758.287 32.4248C757.274 31.8515 756.767 31.0648 756.767 30.0648C756.767 29.0515 757.274 28.2581 758.287 27.6848C759.3 27.1115 760.734 26.8248 762.587 26.8248C764.44 26.8248 765.874 27.1115 766.887 27.6848C767.9 28.2581 768.407 29.0515 768.407 30.0648ZM765.927 28.4648C765.127 28.0781 764.014 27.8848 762.587 27.8848C761.16 27.8848 760.047 28.0781 759.247 28.4648C758.46 28.8381 758.067 29.3715 758.067 30.0648C758.067 30.7581 758.46 31.2981 759.247 31.6848C760.047 32.0581 761.16 32.2448 762.587 32.2448C764.014 32.2448 765.127 32.0581 765.927 31.6848C766.727 31.2981 767.127 30.7581 767.127 30.0648C767.127 29.3715 766.727 28.8381 765.927 28.4648ZM763.927 24.2848L763.147 25.3048C762.2 24.8248 761.347 24.2115 760.587 23.4648C759.827 22.7181 759.294 21.9181 758.987 21.0648C758.707 21.9715 758.18 22.8381 757.407 23.6648C756.634 24.4915 755.7 25.1981 754.607 25.7848L753.827 24.8248C755.174 24.1715 756.254 23.3115 757.067 22.2448C757.894 21.1648 758.307 19.9515 758.307 18.6048V16.8848H759.587V18.5648C759.587 19.8848 760.027 21.0715 760.907 22.1248C761.8 23.1648 762.807 23.8848 763.927 24.2848ZM787.552 24.3248H784.652V33.3048H783.372V15.8248H784.652V23.2448H787.552V24.3248ZM782.292 28.8848C780.625 29.1248 778.705 29.2981 776.532 29.4048C775.118 29.4848 773.332 29.5248 771.172 29.5248L770.952 28.3648C773.165 28.3648 774.485 28.3581 774.912 28.3448V22.7848H776.192V28.3048C778.432 28.2515 780.432 28.0848 782.192 27.8048L782.292 28.8848ZM780.892 17.8448C780.905 19.0715 780.852 20.4381 780.732 21.9448C780.625 23.4381 780.478 24.6448 780.292 25.5648L779.052 25.4448C779.172 24.7515 779.285 23.7381 779.392 22.4048C779.498 21.0581 779.552 19.8981 779.552 18.9248H771.912V17.8448H780.892ZM809.91 22.1848H807.19V28.5248H805.91V15.8248H807.19V21.0848H809.91V22.1848ZM807.95 32.6848H796.29V27.3248H797.57V31.6048H807.95V32.6848ZM802.41 25.7648H794.51V17.0248H795.79V20.1448H801.13V17.0248H802.41V25.7648ZM801.13 24.6648V21.2448H795.79V24.6648H801.13ZM825.855 33.3048H824.575V23.9848H821.975V32.3848H820.715V16.2648H821.975V22.9048H824.575V15.8248H825.855V33.3048ZM819.575 28.2248C817.215 28.6115 814.622 28.7781 811.795 28.7248V18.0248H818.355V19.1248H813.075V27.5848C815.368 27.6248 817.475 27.4515 819.395 27.0648L819.575 28.2248ZM844.22 31.0648H828.44V29.9648H835.66V26.7248H830.54V21.3248H840.84V18.3648H830.54V17.2848H842.12V22.4048H831.82V25.6448H842.58V26.7248H836.94V29.9648H844.22V31.0648ZM249.207 59.2048H246.487V62.8048H245.207V53.8248H246.487V58.1248H249.207V59.2048ZM247.167 71.1848H235.627V66.8048H245.207V64.8248H235.607V63.7448H246.487V67.8848H236.907V70.0848H247.167V71.1848ZM233.767 54.8448H241.627C241.374 57.0048 240.567 58.7715 239.207 60.1448C237.847 61.5048 236.014 62.5781 233.707 63.3648L233.027 62.3048C235.027 61.7315 236.634 60.8915 237.847 59.7848C239.061 58.6648 239.821 57.3781 240.127 55.9248H233.767V54.8448ZM261.692 66.4648C258.959 66.8515 255.552 67.0448 251.472 67.0448V60.4848H258.152V56.5648H251.392V55.4648H259.432V61.5648H252.752V65.9448C256.379 65.9715 259.305 65.7715 261.532 65.3448L261.692 66.4648ZM264.652 71.3048H263.372V53.8248H264.652V71.3048ZM283.517 64.0648H267.737V62.9648H283.517V64.0648ZM281.677 70.8648H269.937V65.7848H271.197V69.7648H281.677V70.8648ZM281.617 60.4848H269.957V54.4248H271.217V59.3848H281.617V60.4848ZM303.255 58.5048H299.475V57.4248H303.255V53.8248H304.535V62.9048H303.255V58.5048ZM300.355 61.2648L299.635 62.2848C298.702 61.9115 297.848 61.3781 297.075 60.6848C296.315 59.9915 295.735 59.1915 295.335 58.2848C294.762 60.0848 293.302 61.5915 290.955 62.8048L290.175 61.8248C291.415 61.3181 292.468 60.5715 293.335 59.5848C294.215 58.5848 294.655 57.4248 294.655 56.1048V54.5848H295.935V56.0648C295.935 56.7581 296.075 57.4048 296.355 58.0048C296.635 58.6048 297.008 59.1181 297.475 59.5448C297.942 59.9581 298.408 60.3048 298.875 60.5848C299.355 60.8648 299.848 61.0915 300.355 61.2648ZM305.235 71.1848H293.315V66.9448H303.275V64.9848H293.215V63.8848H304.555V67.9648H294.595V70.0848H305.235V71.1848ZM321.3 60.7448H309.72V54.8448H321.3V60.7448ZM320.02 59.6648V55.9248H311V59.6648H320.02ZM316.1 67.6448H314.82V64.0448H307.6V62.9448H323.38V64.0448H316.1V67.6448ZM321.46 70.7048H309.7V65.8848H310.98V69.6248H321.46V70.7048ZM339.185 56.6648H333.465V57.1048C333.465 57.9315 333.831 58.7848 334.565 59.6648C335.298 60.5315 336.165 61.2648 337.165 61.8648C338.178 62.4515 339.131 62.8315 340.025 63.0048L339.345 64.0648C337.905 63.6381 336.551 62.9315 335.285 61.9448C334.018 60.9581 333.185 59.9981 332.785 59.0648C332.451 60.0115 331.645 60.9781 330.365 61.9648C329.098 62.9515 327.718 63.6448 326.225 64.0448L325.565 62.9848C326.471 62.8248 327.425 62.4581 328.425 61.8848C329.425 61.2981 330.291 60.5648 331.025 59.6848C331.758 58.8048 332.125 57.9448 332.125 57.1048V56.6648H326.405V55.5848H339.185V56.6648ZM340.685 69.0648H324.905V67.9648H332.125V63.6648H333.405V67.9648H340.685V69.0648ZM358.489 62.0648H355.569V71.3048H354.289V53.8248H355.569V60.9648H358.489V62.0648ZM352.489 66.0048L351.629 67.0248C350.709 66.3715 349.816 65.5448 348.949 64.5448C348.083 63.5315 347.489 62.5181 347.169 61.5048C346.863 62.5848 346.309 63.6448 345.509 64.6848C344.723 65.7115 343.783 66.6448 342.689 67.4848L341.809 66.4848C343.089 65.6981 344.189 64.5781 345.109 63.1248C346.043 61.6715 346.509 60.2181 346.509 58.7648V55.4648H347.829V58.7448C347.829 60.2248 348.289 61.6315 349.209 62.9648C350.129 64.2848 351.223 65.2981 352.489 66.0048ZM373.754 63.1848H372.474V53.8248H373.754V63.1848ZM373.774 71.0648H362.554V64.1648H363.834V66.5448H372.494V64.1648H373.774V71.0648ZM372.494 70.0048V67.6048H363.834V70.0048H372.494ZM364.434 54.7048C365.647 54.7048 366.674 55.0715 367.514 55.8048C368.367 56.5381 368.794 57.4915 368.794 58.6648C368.794 59.8381 368.367 60.7915 367.514 61.5248C366.674 62.2581 365.647 62.6248 364.434 62.6248C363.207 62.6248 362.174 62.2648 361.334 61.5448C360.494 60.8115 360.074 59.8581 360.074 58.6848C360.074 57.4981 360.494 56.5381 361.334 55.8048C362.174 55.0715 363.207 54.7048 364.434 54.7048ZM364.434 55.8648C363.541 55.8648 362.801 56.1248 362.214 56.6448C361.641 57.1515 361.354 57.8248 361.354 58.6648C361.354 59.4915 361.647 60.1715 362.234 60.7048C362.821 61.2248 363.554 61.4848 364.434 61.4848C365.354 61.4848 366.094 61.2248 366.654 60.7048C367.214 60.1848 367.494 59.5115 367.494 58.6848C367.494 57.8448 367.214 57.1648 366.654 56.6448C366.094 56.1248 365.354 55.8648 364.434 55.8648ZM390.879 71.3048H389.599V53.8248H390.879V71.3048ZM387.999 66.0248C386.839 66.2781 385.285 66.4915 383.339 66.6648C381.405 66.8248 379.612 66.9048 377.959 66.9048V55.6248H379.239V65.7648C380.412 65.7648 381.879 65.6848 383.639 65.5248C385.399 65.3648 386.792 65.1715 387.819 64.9448L387.999 66.0248ZM410.403 61.9448H407.483V71.3048H406.203V53.8248H407.483V60.8648H410.403V61.9448ZM404.763 66.3048C401.91 66.8248 398.63 67.0248 394.923 66.9048V55.6448H403.063V56.7448H396.203V65.7648C397.47 65.8315 398.937 65.8115 400.603 65.7048C402.283 65.5848 403.61 65.4181 404.583 65.2048L404.763 66.3048ZM411.528 69.4648V67.7848H413.188V69.4648H411.528ZM433.88 58.5048H430.1V57.4248H433.88V53.8248H435.16V62.9048H433.88V58.5048ZM430.98 61.2648L430.26 62.2848C429.327 61.9115 428.473 61.3781 427.7 60.6848C426.94 59.9915 426.36 59.1915 425.96 58.2848C425.387 60.0848 423.927 61.5915 421.58 62.8048L420.8 61.8248C422.04 61.3181 423.093 60.5715 423.96 59.5848C424.84 58.5848 425.28 57.4248 425.28 56.1048V54.5848H426.56V56.0648C426.56 56.7581 426.7 57.4048 426.98 58.0048C427.26 58.6048 427.633 59.1181 428.1 59.5448C428.567 59.9581 429.033 60.3048 429.5 60.5848C429.98 60.8648 430.473 61.0915 430.98 61.2648ZM435.86 71.1848H423.94V66.9448H433.9V64.9848H423.84V63.8848H435.18V67.9648H425.22V70.0848H435.86V71.1848ZM451.925 60.7448H440.345V54.8448H451.925V60.7448ZM450.645 59.6648V55.9248H441.625V59.6648H450.645ZM446.725 67.6448H445.445V64.0448H438.225V62.9448H454.005V64.0448H446.725V67.6448ZM452.085 70.7048H440.325V65.8848H441.605V69.6248H452.085V70.7048ZM465.71 66.2048L464.91 67.1848C463.976 66.5448 463.09 65.7315 462.25 64.7448C461.41 63.7581 460.83 62.7515 460.51 61.7248C459.896 63.8581 458.43 65.8181 456.11 67.6048L455.25 66.6448C456.53 65.8715 457.616 64.7715 458.51 63.3448C459.403 61.9181 459.85 60.4781 459.85 59.0248V56.7648H455.89V55.6648H465.13V56.7648H461.17V58.9848C461.17 60.4648 461.61 61.8648 462.49 63.1848C463.383 64.4915 464.456 65.4981 465.71 66.2048ZM471.85 62.1248H468.89V71.3048H467.61V53.8248H468.89V61.0248H471.85V62.1248ZM486.194 53.8248V61.2848H489.154V62.3848H486.194V71.3048H484.914V53.8248H486.194ZM481.594 55.7248C481.541 58.4581 480.808 60.8248 479.394 62.8248C477.981 64.8248 476.114 66.4515 473.794 67.7048L473.014 66.6848C475.214 65.5915 476.928 64.1915 478.154 62.4848C479.394 60.7648 480.094 58.8781 480.254 56.8248H473.594V55.7248H481.594ZM495.033 69.0648L499.993 55.6448H501.273L506.213 69.0648H504.853L503.333 64.9648H497.773L496.273 69.0648H495.033ZM500.533 57.3848L498.153 63.8448H502.933L500.573 57.3848H500.533ZM508.385 69.0648V55.6448H509.685V69.0648H508.385ZM516.309 55.4448C517.415 55.4448 518.282 55.9248 518.909 56.8848C519.549 57.8315 519.902 59.1381 519.969 60.8048H522.269V54.1648H523.549V70.4448H522.269V61.8848H519.969C519.902 63.5381 519.549 64.8381 518.909 65.7848C518.269 66.7181 517.402 67.1848 516.309 67.1848C515.135 67.1848 514.222 66.6648 513.569 65.6248C512.929 64.5715 512.609 63.1315 512.609 61.3048C512.609 59.4781 512.929 58.0448 513.569 57.0048C514.222 55.9648 515.135 55.4448 516.309 55.4448ZM518.049 64.8048C518.475 63.9515 518.689 62.7848 518.689 61.3048C518.689 59.8248 518.475 58.6648 518.049 57.8248C517.622 56.9848 517.042 56.5648 516.309 56.5648C515.562 56.5648 514.975 56.9848 514.549 57.8248C514.122 58.6648 513.909 59.8248 513.909 61.3048C513.909 62.7848 514.122 63.9515 514.549 64.8048C514.975 65.6448 515.562 66.0648 516.309 66.0648C517.042 66.0648 517.622 65.6448 518.049 64.8048ZM526.949 71.3048H525.669V53.8248H526.949V71.3048ZM549.507 71.3048H548.227V61.9848H545.627V70.3848H544.367V54.2648H545.627V60.9048H548.227V53.8248H549.507V71.3048ZM543.227 66.2248C540.867 66.6115 538.274 66.7781 535.447 66.7248V56.0248H542.007V57.1248H536.727V65.5848C539.021 65.6248 541.127 65.4515 543.047 65.0648L543.227 66.2248ZM566.812 71.3048H565.532V62.2848H563.112V70.3848H561.852V54.2648H563.112V61.2048H565.532V53.8248H566.812V71.3048ZM559.252 61.3448C559.919 61.9581 560.252 62.7648 560.252 63.7648C560.252 64.7648 559.919 65.5715 559.252 66.1848C558.585 66.7981 557.712 67.1048 556.632 67.1048C555.579 67.1048 554.712 66.7915 554.032 66.1648C553.365 65.5248 553.032 64.7248 553.032 63.7648C553.032 62.7515 553.365 61.9381 554.032 61.3248C554.699 60.7115 555.565 60.4048 556.632 60.4048C557.712 60.4048 558.585 60.7181 559.252 61.3448ZM559.012 63.7648C559.012 63.0848 558.785 62.5381 558.332 62.1248C557.892 61.7115 557.325 61.5048 556.632 61.5048C555.939 61.5048 555.365 61.7181 554.912 62.1448C554.472 62.5581 554.252 63.0981 554.252 63.7648C554.252 64.4448 554.472 64.9915 554.912 65.4048C555.365 65.8181 555.939 66.0248 556.632 66.0248C557.325 66.0248 557.892 65.8115 558.332 65.3848C558.785 64.9581 559.012 64.4181 559.012 63.7648ZM560.872 59.1648H552.112V58.0848H560.872V59.1648ZM558.892 56.4048H554.252V55.2848H558.892V56.4048ZM576.071 65.7048C575.324 64.5981 574.951 63.1048 574.951 61.2248C574.951 59.3448 575.324 57.8581 576.071 56.7648C576.817 55.6581 577.864 55.1048 579.211 55.1048C580.477 55.1048 581.477 55.5981 582.211 56.5848C582.957 57.5581 583.371 58.9048 583.451 60.6248H587.611V53.8248H588.891V71.3048H587.611V61.7248H583.451C583.384 63.4715 582.984 64.8448 582.251 65.8448C581.517 66.8448 580.504 67.3448 579.211 67.3448C577.864 67.3448 576.817 66.7981 576.071 65.7048ZM582.231 61.2448C582.231 59.7781 581.951 58.5781 581.391 57.6448C580.844 56.7115 580.117 56.2448 579.211 56.2448C578.304 56.2448 577.577 56.7115 577.031 57.6448C576.484 58.5648 576.211 59.7648 576.211 61.2448C576.211 62.6981 576.484 63.8915 577.031 64.8248C577.577 65.7581 578.304 66.2248 579.211 66.2248C580.117 66.2248 580.844 65.7581 581.391 64.8248C581.951 63.8915 582.231 62.6981 582.231 61.2448ZM606.395 66.5848H605.115V59.7248H601.815V58.6448H605.115V53.8248H606.395V66.5848ZM603.695 63.0448C602.335 63.3648 600.415 63.5248 597.935 63.5248V55.3448H602.695V56.4448H599.195V62.4048C600.902 62.4048 602.342 62.2581 603.515 61.9648L603.695 63.0448ZM606.735 70.6848H595.095V65.3248H596.355V69.6048H606.735V70.6848ZM597.375 63.0248C596.215 63.3181 594.615 63.4648 592.575 63.4648V55.3448H596.795V56.4448H593.855V62.3448C595.149 62.3448 596.262 62.2115 597.195 61.9448L597.375 63.0248ZM630.594 60.6448H627.874V66.9848H626.594V53.8248H627.874V59.5648H630.594V60.6448ZM628.634 70.8848H617.034V65.8248H618.294V69.7848H628.634V70.8848ZM625.414 63.6048C623.667 63.8715 621.774 64.0448 619.734 64.1248C618.094 64.2181 616.354 64.2648 614.514 64.2648L614.274 63.1048C616.047 63.1048 617.354 63.0915 618.194 63.0648V59.1048H619.474V63.0248C621.994 62.9315 623.921 62.7715 625.254 62.5448L625.414 63.6048ZM623.994 55.2248C623.994 57.8381 623.807 59.8381 623.434 61.2248L622.194 61.0248C622.514 59.8648 622.674 58.2915 622.674 56.3048H615.434V55.2248H623.994ZM646.079 71.0448H635.019V64.9648H646.079V71.0448ZM644.799 69.9648V66.0448H636.299V69.9648H644.799ZM632.439 56.2648V55.1848H641.599V56.2648H637.659V57.3248C637.659 58.4315 638.099 59.4715 638.979 60.4448C639.859 61.4048 640.865 62.0715 641.999 62.4448L641.259 63.4848C640.379 63.1248 639.532 62.5715 638.719 61.8248C637.905 61.0648 637.325 60.2915 636.979 59.5048C636.765 60.3048 636.219 61.1381 635.339 62.0048C634.459 62.8715 633.525 63.5248 632.539 63.9648L631.819 62.9848C632.992 62.5181 634.045 61.7381 634.979 60.6448C635.912 59.5515 636.379 58.4448 636.379 57.3248V56.2648H632.439ZM644.779 59.5048H641.299V58.4248H644.779V53.8248H646.059V64.0448H644.779V59.5048ZM664.903 62.6048H649.123V61.5648H664.903V62.6048ZM663.443 71.0048H651.083V67.1448H661.483V65.3848H651.023V64.3048H662.763V68.1648H652.363V69.9448H663.443V71.0048ZM662.963 57.2848C662.963 58.2848 662.443 59.0315 661.403 59.5248C660.363 60.0181 658.903 60.2648 657.023 60.2648C655.17 60.2648 653.717 60.0181 652.663 59.5248C651.623 59.0181 651.103 58.2715 651.103 57.2848C651.103 56.2981 651.623 55.5581 652.663 55.0648C653.717 54.5581 655.17 54.3048 657.023 54.3048C658.903 54.3048 660.363 54.5581 661.403 55.0648C662.443 55.5581 662.963 56.2981 662.963 57.2848ZM660.423 55.8448C659.583 55.5115 658.45 55.3448 657.023 55.3448C655.597 55.3448 654.47 55.5115 653.643 55.8448C652.83 56.1781 652.423 56.6581 652.423 57.2848C652.423 57.9115 652.83 58.3915 653.643 58.7248C654.47 59.0448 655.597 59.2048 657.023 59.2048C658.45 59.2048 659.583 59.0448 660.423 58.7248C661.263 58.3915 661.683 57.9115 661.683 57.2848C661.683 56.6581 661.263 56.1781 660.423 55.8448ZM685.042 53.8248V61.2848H688.002V62.3848H685.042V71.3048H683.762V53.8248H685.042ZM680.442 55.7248C680.389 58.4581 679.655 60.8248 678.242 62.8248C676.829 64.8248 674.962 66.4515 672.642 67.7048L671.862 66.6848C674.062 65.5915 675.775 64.1915 677.002 62.4848C678.242 60.7648 678.942 58.8781 679.102 56.8248H672.442V55.7248H680.442ZM699.747 65.9448L698.907 66.9048C697.947 66.2515 697.033 65.4381 696.167 64.4648C695.3 63.4915 694.72 62.5048 694.427 61.5048C694.133 62.6115 693.58 63.6848 692.767 64.7248C691.953 65.7515 691.013 66.6448 689.947 67.4048L689.107 66.4248C690.413 65.6248 691.513 64.5381 692.407 63.1648C693.3 61.7781 693.747 60.3248 693.747 58.8048V56.7648H689.627V55.6648H699.267V56.7648H695.067V58.7648C695.067 60.2448 695.527 61.6448 696.447 62.9648C697.38 64.2848 698.48 65.2781 699.747 65.9448ZM701.947 53.8248H703.227V71.3048H701.947V53.8248ZM722.071 68.6848H706.291V67.5848H712.531V61.4248H713.811V67.5848H722.071V68.6848ZM719.851 55.7248V58.0648C719.851 60.9981 719.625 63.4381 719.171 65.3848L717.911 65.1648C718.311 63.5915 718.511 61.4515 718.511 58.7448V56.8248H707.931V55.7248H719.851ZM743.09 63.9848H741.81V53.8248H743.09V63.9848ZM730.59 56.0048C731.443 55.2581 732.49 54.8848 733.73 54.8848C734.97 54.8848 736.017 55.2581 736.87 56.0048C737.737 56.7381 738.17 57.6981 738.17 58.8848C738.17 60.0715 737.737 61.0381 736.87 61.7848C736.017 62.5315 734.97 62.9048 733.73 62.9048C732.49 62.9048 731.443 62.5381 730.59 61.8048C729.737 61.0581 729.31 60.0915 729.31 58.9048C729.31 57.7181 729.737 56.7515 730.59 56.0048ZM733.73 55.9848C732.837 55.9848 732.09 56.2581 731.49 56.8048C730.903 57.3381 730.61 58.0315 730.61 58.8848C730.61 59.7381 730.91 60.4381 731.51 60.9848C732.11 61.5315 732.85 61.8048 733.73 61.8048C734.663 61.8048 735.417 61.5381 735.99 61.0048C736.563 60.4715 736.85 59.7715 736.85 58.9048C736.85 58.0381 736.563 57.3381 735.99 56.8048C735.417 56.2581 734.663 55.9848 733.73 55.9848ZM743.91 71.3248H743.89C743.237 70.9915 742.577 70.4915 741.91 69.8248C741.257 69.1448 740.817 68.4915 740.59 67.8648C740.363 68.5448 739.917 69.2381 739.25 69.9448C738.583 70.6515 737.89 71.1848 737.17 71.5448L736.37 70.6848C737.357 70.2048 738.197 69.5181 738.89 68.6248C739.597 67.7181 739.95 66.7715 739.95 65.7848V64.5848H741.23V65.6848C741.23 66.6981 741.59 67.6581 742.31 68.5648C743.03 69.4715 743.83 70.0915 744.71 70.4248L743.91 71.3248ZM737.39 69.2248L736.47 70.1248C735.963 69.8448 735.49 69.4848 735.05 69.0448C734.61 68.5915 734.283 68.1048 734.07 67.5848C733.87 68.2515 733.423 68.9581 732.73 69.7048C732.05 70.4381 731.323 70.9915 730.55 71.3648L729.79 70.4448C730.723 70.0581 731.557 69.4115 732.29 68.5048C733.023 67.5981 733.39 66.6448 733.39 65.6448V64.6048H734.67V65.5048C734.67 66.4115 734.93 67.1848 735.45 67.8248C735.97 68.4648 736.617 68.9315 737.39 69.2248ZM761.935 64.0648H746.155V62.9648H761.935V64.0648ZM760.095 70.8648H748.355V65.7848H749.615V69.7648H760.095V70.8648ZM760.035 60.4848H748.375V54.4248H749.635V59.3848H760.035V60.4848ZM774.219 65.9448L773.379 66.9048C772.419 66.2515 771.506 65.4381 770.639 64.4648C769.773 63.4915 769.193 62.5048 768.899 61.5048C768.606 62.6115 768.053 63.6848 767.239 64.7248C766.426 65.7515 765.486 66.6448 764.419 67.4048L763.579 66.4248C764.886 65.6248 765.986 64.5381 766.879 63.1648C767.773 61.7781 768.219 60.3248 768.219 58.8048V56.7648H764.099V55.6648H773.739V56.7648H769.539V58.7648C769.539 60.2448 769.999 61.6448 770.919 62.9648C771.853 64.2848 772.953 65.2781 774.219 65.9448ZM776.419 53.8248H777.699V71.3048H776.419V53.8248ZM799.718 61.3248H794.538V63.2248H801.798V64.3248H786.018V63.2248H793.258V61.3248H788.138V54.7848H799.598V55.8848H789.418V57.4648H799.058V58.4848H789.418V60.2448H799.718V61.3248ZM799.898 68.2848C799.898 69.2581 799.378 70.0048 798.338 70.5248C797.298 71.0448 795.818 71.3048 793.898 71.3048C791.991 71.3048 790.518 71.0381 789.478 70.5048C788.438 69.9848 787.918 69.2448 787.918 68.2848C787.918 67.3381 788.438 66.5981 789.478 66.0648C790.531 65.5315 792.004 65.2648 793.898 65.2648C795.831 65.2648 797.311 65.5248 798.338 66.0448C799.378 66.5515 799.898 67.2981 799.898 68.2848ZM793.898 66.3448C792.458 66.3448 791.318 66.5181 790.478 66.8648C789.651 67.2115 789.238 67.6848 789.238 68.2848C789.238 68.8981 789.651 69.3781 790.478 69.7248C791.304 70.0581 792.444 70.2248 793.898 70.2248C795.364 70.2248 796.511 70.0581 797.338 69.7248C798.164 69.3781 798.578 68.8981 798.578 68.2848C798.578 67.6848 798.158 67.2115 797.318 66.8648C796.491 66.5181 795.351 66.3448 793.898 66.3448ZM814.763 70.3848H813.483V64.2248H810.443V63.1448H813.483V59.8048H810.763V58.7248H813.483V54.2648H814.763V70.3848ZM818.043 71.3048H816.763V53.8248H818.043V71.3048ZM810.523 56.0448C810.443 58.5781 809.863 60.7648 808.783 62.6048C807.716 64.4315 806.149 66.0248 804.083 67.3848L803.203 66.3848C805.003 65.3581 806.423 64.0248 807.463 62.3848C808.503 60.7315 809.063 58.9848 809.143 57.1448H803.943V56.0448H810.523ZM836.407 63.1248H820.627V62.1048H836.407V63.1248ZM835.007 70.9248H822.607V67.1848H833.127V65.6848H822.567V64.6648H834.407V68.1648H823.887V69.8248H835.007V70.9248ZM834.607 60.5248H822.747V56.9848H833.027V55.4848H822.727V54.4248H834.307V58.0048H824.027V59.4848H834.607V60.5248ZM246.487 91.8248V99.2848H249.447V100.385H246.487V109.305H245.207V91.8248H246.487ZM241.887 93.7248C241.834 96.4581 241.101 98.8248 239.687 100.825C238.274 102.825 236.407 104.451 234.087 105.705L233.307 104.685C235.507 103.591 237.221 102.191 238.447 100.485C239.687 98.7648 240.387 96.8781 240.547 94.8248H233.887V93.7248H241.887ZM260.852 104.405L260.032 105.425C259.112 104.785 258.232 103.958 257.392 102.945C256.552 101.931 255.965 100.905 255.632 99.8648C255.325 100.931 254.772 101.978 253.972 103.005C253.172 104.031 252.219 104.965 251.112 105.805L250.232 104.825C251.525 104.038 252.639 102.925 253.572 101.485C254.505 100.031 254.972 98.5848 254.972 97.1448V94.7648H250.992V93.6648H260.272V94.7648H256.292V97.1048C256.292 98.5848 256.739 99.9981 257.632 101.345C258.525 102.678 259.599 103.698 260.852 104.405ZM259.852 97.5048V96.4448H263.372V91.8248H264.652V109.305H263.372V101.525H259.852V100.485H263.372V97.5048H259.852ZM281.577 95.2048C281.577 97.0581 279.797 98.0515 276.237 98.1848V99.6648H283.517V100.745H267.737V99.6648H274.957V98.1648C273.303 98.0981 272.017 97.8181 271.097 97.3248C270.177 96.8315 269.717 96.1248 269.717 95.2048C269.717 94.2181 270.237 93.4781 271.277 92.9848C272.33 92.4781 273.783 92.2248 275.637 92.2248C277.517 92.2248 278.977 92.4781 280.017 92.9848C281.057 93.4781 281.577 94.2181 281.577 95.2048ZM282.137 109.005H269.777V105.105H280.177V103.465H269.717V102.385H281.457V106.145H271.057V107.945H282.137V109.005ZM279.017 93.8048C278.177 93.4715 277.05 93.3048 275.637 93.3048C274.223 93.3048 273.103 93.4715 272.277 93.8048C271.45 94.1381 271.037 94.6048 271.037 95.2048C271.037 95.8048 271.45 96.2715 272.277 96.6048C273.103 96.9248 274.223 97.0848 275.637 97.0848C277.063 97.0848 278.197 96.9248 279.037 96.6048C279.877 96.2715 280.297 95.8048 280.297 95.2048C280.297 94.6048 279.87 94.1381 279.017 93.8048ZM298.795 109.325H297.515V102.865H290.295V101.765H306.075V102.865H298.795V109.325ZM305.275 98.6248L304.575 99.6848C303.228 99.3915 301.935 98.8448 300.695 98.0448C299.468 97.2315 298.628 96.3515 298.175 95.4048C297.748 96.3515 296.915 97.2381 295.675 98.0648C294.448 98.8915 293.162 99.4448 291.815 99.7248L291.115 98.6648C292.795 98.4381 294.282 97.8248 295.575 96.8248C296.868 95.8115 297.515 94.7448 297.515 93.6248V92.6048H298.835V93.6248C298.835 94.7181 299.528 95.7848 300.915 96.8248C302.315 97.8648 303.768 98.4648 305.275 98.6248ZM327.094 101.985H325.814V91.8248H327.094V101.985ZM314.594 94.0048C315.447 93.2581 316.494 92.8848 317.734 92.8848C318.974 92.8848 320.02 93.2581 320.874 94.0048C321.74 94.7381 322.174 95.6981 322.174 96.8848C322.174 98.0715 321.74 99.0381 320.874 99.7848C320.02 100.531 318.974 100.905 317.734 100.905C316.494 100.905 315.447 100.538 314.594 99.8048C313.74 99.0581 313.314 98.0915 313.314 96.9048C313.314 95.7181 313.74 94.7515 314.594 94.0048ZM317.734 93.9848C316.84 93.9848 316.094 94.2581 315.494 94.8048C314.907 95.3381 314.614 96.0315 314.614 96.8848C314.614 97.7381 314.914 98.4381 315.514 98.9848C316.114 99.5315 316.854 99.8048 317.734 99.8048C318.667 99.8048 319.42 99.5381 319.994 99.0048C320.567 98.4715 320.854 97.7715 320.854 96.9048C320.854 96.0381 320.567 95.3381 319.994 94.8048C319.42 94.2581 318.667 93.9848 317.734 93.9848ZM327.914 109.325H327.894C327.24 108.991 326.58 108.491 325.914 107.825C325.26 107.145 324.82 106.491 324.594 105.865C324.367 106.545 323.92 107.238 323.254 107.945C322.587 108.651 321.894 109.185 321.174 109.545L320.374 108.685C321.36 108.205 322.2 107.518 322.894 106.625C323.6 105.718 323.954 104.771 323.954 103.785V102.585H325.234V103.685C325.234 104.698 325.594 105.658 326.314 106.565C327.034 107.471 327.834 108.091 328.714 108.425L327.914 109.325ZM321.394 107.225L320.474 108.125C319.967 107.845 319.494 107.485 319.054 107.045C318.614 106.591 318.287 106.105 318.074 105.585C317.874 106.251 317.427 106.958 316.734 107.705C316.054 108.438 315.327 108.991 314.554 109.365L313.794 108.445C314.727 108.058 315.56 107.411 316.294 106.505C317.027 105.598 317.394 104.645 317.394 103.645V102.605H318.674V103.505C318.674 104.411 318.934 105.185 319.454 105.825C319.974 106.465 320.62 106.931 321.394 107.225ZM344.978 97.3648L344.358 98.3848C343.012 98.1181 341.725 97.5915 340.498 96.8048C339.272 96.0181 338.452 95.1915 338.038 94.3248C337.678 95.1781 336.878 95.9981 335.638 96.7848C334.398 97.5715 333.098 98.1048 331.738 98.3848L331.118 97.3648C332.038 97.2581 332.972 96.9848 333.918 96.5448C334.878 96.1048 335.692 95.5248 336.358 94.8048C337.038 94.0848 337.378 93.3515 337.378 92.6048V92.0448H338.698V92.6048C338.698 93.3515 339.038 94.0848 339.718 94.8048C340.398 95.5248 341.212 96.1048 342.158 96.5448C343.118 96.9848 344.058 97.2581 344.978 97.3648ZM345.938 101.005H330.158V99.9048H345.938V101.005ZM343.818 109.065H332.298V102.445H333.578V104.605H342.538V102.445H343.818V109.065ZM342.538 107.985V105.705H333.578V107.985H342.538ZM361.523 109.305H360.243V91.8248H361.523V109.305ZM358.643 104.025C357.483 104.278 355.93 104.491 353.983 104.665C352.05 104.825 350.256 104.905 348.603 104.905V93.6248H349.883V103.765C351.056 103.765 352.523 103.685 354.283 103.525C356.043 103.365 357.436 103.171 358.463 102.945L358.643 104.025ZM381.048 99.9448H378.128V109.305H376.848V91.8248H378.128V98.8648H381.048V99.9448ZM375.408 104.305C372.554 104.825 369.274 105.025 365.568 104.905V93.6448H373.708V94.7448H366.848V103.765C368.114 103.831 369.581 103.811 371.248 103.705C372.928 103.585 374.254 103.418 375.228 103.205L375.408 104.305ZM382.173 107.465V105.785H383.833V107.465H382.173Z" fill="black"/>
</svg>
