<svg width="790" height="126" viewBox="0 0 790 126" fill="none" xmlns="http://www.w3.org/2000/svg">
<path d="M0.364 29.824L7.224 11.008H9.604L16.408 29.824H13.832L11.928 24.532H4.592L2.716 29.824H0.364ZM8.176 14.312L5.32 22.432H11.172L8.26 14.312H8.176ZM19.1417 29.824V11.008H21.6057V29.824H19.1417ZM47.1365 29.852H25.0445V27.836H34.7885V22.096H27.6765V10.476H44.5325V12.492H30.1405V20.08H44.6725V22.096H37.2805V27.836H47.1365V29.852ZM69.515 32.96H67.051V8.488H69.515V32.96ZM64.139 25.232L62.655 27.08C61.423 26.2213 60.2284 25.1293 59.071 23.804C57.9324 22.46 57.1577 21.1253 56.747 19.8C56.3177 21.2933 55.5524 22.7587 54.451 24.196C53.3497 25.6333 52.099 26.8093 50.699 27.724L49.159 25.904C51.0257 24.7093 52.5377 23.1227 53.695 21.144C54.8524 19.1467 55.431 17.0373 55.431 14.816V10.644H58.007V14.704C58.007 16.9067 58.5857 18.96 59.743 20.864C60.9004 22.7493 62.3657 24.2053 64.139 25.232ZM95.5896 21.704H73.4976V19.8H95.5896V21.704ZM93.8256 32.512H76.0176V27.108H90.5776V25.288H76.0176V23.412H93.0416V28.844H78.4816V30.636H93.8256V32.512ZM93.4056 18.064H76.2696V12.884H90.4376V11.176H76.2976V9.328H92.9016V14.564H78.7616V16.216H93.4056V18.064ZM20.44 57.22H3.724V46.412H6.216V49.884H17.976V46.412H20.44V57.22ZM13.3 69.988H10.808V62.036H1.064V59.992H23.156V62.036H13.3V69.988ZM17.976 55.232V51.9H6.216V55.232H17.976ZM28.5666 57.276H29.4346C33.7839 57.276 37.0412 57.052 39.2066 56.604L39.4586 58.536C37.0319 59.0213 33.3452 59.2827 28.3986 59.32H26.1306V47.084H37.3866V49.1H28.5666V51.956H37.1066V53.972H28.5666V57.276ZM28.2586 61.504H44.1906V69.96H41.7266V63.492H28.2586V61.504ZM47.8306 53.916H44.1906V60.216H41.6986V45.488H44.1906V51.872H47.8306V53.916ZM70.1811 69.96H67.8011V57.64H65.2811V68.756H62.9011V46.02H65.2811V55.596H67.8011V45.488H70.1811V69.96ZM61.1931 59.46C61.1931 60.9347 60.6985 62.1107 59.7091 62.988C58.7198 63.8467 57.4225 64.276 55.8171 64.276C54.2305 64.276 52.9331 63.828 51.9251 62.932C50.9171 62.0173 50.4131 60.86 50.4131 59.46C50.4131 58.004 50.9078 56.8467 51.8971 55.988C52.9051 55.1107 54.2118 54.672 55.8171 54.672C57.4225 54.672 58.7198 55.1107 59.7091 55.988C60.6985 56.8467 61.1931 58.004 61.1931 59.46ZM57.9451 61.476C58.5238 60.9347 58.8131 60.2627 58.8131 59.46C58.8131 58.6573 58.5238 57.9947 57.9451 57.472C57.3851 56.9493 56.6758 56.688 55.8171 56.688C54.9398 56.688 54.2118 56.9587 53.6331 57.5C53.0731 58.0227 52.7931 58.676 52.7931 59.46C52.7931 60.2813 53.0731 60.9627 53.6331 61.504C54.1931 62.0267 54.9211 62.288 55.8171 62.288C56.6758 62.288 57.3851 62.0173 57.9451 61.476ZM61.6971 53.552H49.5731V51.508H61.6971V53.552ZM58.8691 49.352H52.2891V47.336H58.8691V49.352ZM75.3957 62.372L75.0877 47.112H77.8037L77.4957 62.372H75.3957ZM75.1157 67.3V64.584H77.8317V67.3H75.1157Z" fill="black"/>
<path d="M174.4 30.16L179.36 16.74H180.64L185.58 30.16H184.22L182.7 26.06H177.14L175.64 30.16H174.4ZM179.9 18.48L177.52 24.94H182.3L179.94 18.48H179.9ZM187.753 30.16V16.74H189.053V30.16H187.753ZM207.376 24.22H191.596V23.2H207.376V24.22ZM205.976 32.02H193.576V28.28H204.096V26.78H193.536V25.76H205.376V29.26H194.856V30.92H205.976V32.02ZM205.576 21.62H193.716V18.08H203.996V16.58H193.696V15.52H205.276V19.1H194.996V20.58H205.576V21.62ZM229.935 30.16H214.155V29.06H221.375V24.44H216.255V16.44H227.875V17.54H217.535V23.34H227.955V24.44H222.655V29.06H229.935V30.16ZM245.699 24.28H244.419V14.92H245.699V24.28ZM245.719 32.16H234.499V25.26H235.779V27.64H244.439V25.26H245.719V32.16ZM244.439 31.1V28.7H235.779V31.1H244.439ZM236.379 15.8C237.593 15.8 238.619 16.1667 239.459 16.9C240.313 17.6333 240.739 18.5867 240.739 19.76C240.739 20.9333 240.313 21.8867 239.459 22.62C238.619 23.3533 237.593 23.72 236.379 23.72C235.153 23.72 234.119 23.36 233.279 22.64C232.439 21.9067 232.019 20.9533 232.019 19.78C232.019 18.5933 232.439 17.6333 233.279 16.9C234.119 16.1667 235.153 15.8 236.379 15.8ZM236.379 16.96C235.486 16.96 234.746 17.22 234.159 17.74C233.586 18.2467 233.299 18.92 233.299 19.76C233.299 20.5867 233.593 21.2667 234.179 21.8C234.766 22.32 235.499 22.58 236.379 22.58C237.299 22.58 238.039 22.32 238.599 21.8C239.159 21.28 239.439 20.6067 239.439 19.78C239.439 18.94 239.159 18.26 238.599 17.74C238.039 17.22 237.299 16.96 236.379 16.96ZM264.844 21.3H262.144V25.82H260.864V14.92H262.144V20.2H264.844V21.3ZM262.144 32.14H251.164V26.66H262.144V32.14ZM260.864 31.06V27.74H252.444V31.06H260.864ZM256.184 16.52H251.204V15.4H256.184V16.52ZM258.684 18.9H248.704V17.8H258.684V18.9ZM257.564 22.66C257.564 23.5267 257.197 24.2267 256.464 24.76C255.731 25.28 254.791 25.54 253.644 25.54C252.497 25.54 251.557 25.28 250.824 24.76C250.091 24.24 249.724 23.54 249.724 22.66C249.724 21.78 250.084 21.0867 250.804 20.58C251.537 20.06 252.484 19.8 253.644 19.8C254.804 19.8 255.744 20.06 256.464 20.58C257.197 21.0867 257.564 21.78 257.564 22.66ZM255.524 23.98C256.044 23.6467 256.304 23.2067 256.304 22.66C256.304 22.1133 256.044 21.68 255.524 21.36C255.017 21.0267 254.391 20.86 253.644 20.86C252.897 20.86 252.264 21.0267 251.744 21.36C251.237 21.68 250.984 22.1133 250.984 22.66C250.984 23.2067 251.244 23.6467 251.764 23.98C252.284 24.3133 252.911 24.48 253.644 24.48C254.377 24.48 255.004 24.3133 255.524 23.98ZM281.849 29.96H266.069V28.88H281.849V29.96ZM280.169 20.82C280.169 22.14 279.595 23.1933 278.449 23.98C277.315 24.7667 275.809 25.16 273.929 25.16C272.049 25.16 270.542 24.7667 269.409 23.98C268.289 23.1933 267.729 22.14 267.729 20.82C267.729 19.5133 268.295 18.4667 269.429 17.68C270.562 16.88 272.062 16.48 273.929 16.48C275.809 16.48 277.315 16.88 278.449 17.68C279.595 18.4667 280.169 19.5133 280.169 20.82ZM278.909 20.82C278.909 19.86 278.455 19.0867 277.549 18.5C276.642 17.9133 275.435 17.62 273.929 17.62C272.435 17.62 271.235 17.9133 270.329 18.5C269.435 19.0867 268.989 19.86 268.989 20.82C268.989 21.7667 269.442 22.5333 270.349 23.12C271.255 23.7067 272.449 24 273.929 24C275.422 24 276.622 23.7067 277.529 23.12C278.449 22.5333 278.909 21.7667 278.909 20.82ZM299.153 30.16H283.373V29.06H290.593V25.82H285.473V20.42H295.773V17.46H285.473V16.38H297.053V21.5H286.753V24.74H297.513V25.82H291.873V29.06H299.153V30.16ZM315.098 32.4H313.818V22.58H310.538V21.48H313.818V14.92H315.098V32.4ZM312.458 27.12L311.658 28C310.951 27.4133 310.311 26.68 309.738 25.8C309.165 24.92 308.811 24.1267 308.678 23.42C308.545 24.2733 308.185 25.2267 307.598 26.28C307.025 27.32 306.331 28.2467 305.518 29.06L304.578 28.28C305.645 27.36 306.485 26.1867 307.098 24.76C307.725 23.3333 308.038 21.9 308.038 20.46V16.6H309.258V20.42C309.258 21.82 309.538 23.1067 310.098 24.28C310.671 25.44 311.458 26.3867 312.458 27.12ZM306.418 25.06L305.698 25.98C305.365 25.74 305.011 25.3733 304.638 24.88C304.265 24.3733 304.005 23.8867 303.858 23.42C303.738 24.1267 303.411 24.9067 302.878 25.76C302.358 26.6133 301.778 27.3467 301.138 27.96L300.238 27.18C301.105 26.4333 301.811 25.5133 302.358 24.42C302.918 23.3133 303.198 22.1133 303.198 20.82V16.8H304.418V20.78C304.418 21.7667 304.618 22.6467 305.018 23.42C305.431 24.1933 305.898 24.74 306.418 25.06ZM337.477 23.94H336.197V14.92H337.477V23.94ZM338.177 32.28H326.377V27.96H336.217V25.96H326.277V24.86H337.497V28.96H327.637V31.18H338.177V32.28ZM328.097 15.64C329.31 15.64 330.33 15.9933 331.157 16.7C331.997 17.4067 332.417 18.3267 332.417 19.46C332.417 20.5933 331.997 21.52 331.157 22.24C330.33 22.9467 329.31 23.3 328.097 23.3C326.897 23.3 325.877 22.9467 325.037 22.24C324.197 21.5333 323.777 20.6133 323.777 19.48C323.777 18.3467 324.197 17.4267 325.037 16.72C325.877 16 326.897 15.64 328.097 15.64ZM328.097 16.76C327.23 16.76 326.51 17.0133 325.937 17.52C325.363 18.0133 325.077 18.66 325.077 19.46C325.077 20.26 325.363 20.9133 325.937 21.42C326.51 21.9133 327.23 22.16 328.097 22.16C329.003 22.16 329.73 21.92 330.277 21.44C330.837 20.9467 331.117 20.2933 331.117 19.48C331.117 18.6667 330.837 18.0133 330.277 17.52C329.73 17.0133 329.003 16.76 328.097 16.76ZM341.961 26.8C341.215 25.6933 340.841 24.2 340.841 22.32C340.841 20.44 341.215 18.9533 341.961 17.86C342.708 16.7533 343.755 16.2 345.101 16.2C346.368 16.2 347.368 16.6933 348.101 17.68C348.848 18.6533 349.261 20 349.341 21.72H353.501V14.92H354.781V32.4H353.501V22.82H349.341C349.275 24.5667 348.875 25.94 348.141 26.94C347.408 27.94 346.395 28.44 345.101 28.44C343.755 28.44 342.708 27.8933 341.961 26.8ZM348.121 22.34C348.121 20.8733 347.841 19.6733 347.281 18.74C346.735 17.8067 346.008 17.34 345.101 17.34C344.195 17.34 343.468 17.8067 342.921 18.74C342.375 19.66 342.101 20.86 342.101 22.34C342.101 23.7933 342.375 24.9867 342.921 25.92C343.468 26.8533 344.195 27.32 345.101 27.32C346.008 27.32 346.735 26.8533 347.281 25.92C347.841 24.9867 348.121 23.7933 348.121 22.34ZM374.126 23.04H371.206V32.4H369.926V14.92H371.206V21.96H374.126V23.04ZM368.366 27C367.286 27.2533 365.799 27.4533 363.906 27.6C362.026 27.7467 360.266 27.82 358.626 27.82V16.82H359.906V26.68C361.039 26.68 362.453 26.6133 364.146 26.48C365.839 26.3333 367.179 26.12 368.166 25.84L368.366 27ZM390.931 25.16H375.151V24.06H390.931V25.16ZM389.091 31.96H377.351V26.88H378.611V30.86H389.091V31.96ZM389.031 21.58H377.371V15.52H378.631V20.48H389.031V21.58ZM413.989 23.04H411.069V32.4H409.789V14.92H411.069V21.96H413.989V23.04ZM408.349 27.4C405.496 27.92 402.216 28.12 398.509 28V16.74H406.649V17.84H399.789V26.86C401.056 26.9267 402.523 26.9067 404.189 26.8C405.869 26.68 407.196 26.5133 408.169 26.3L408.349 27.4ZM427.094 26.68C428.081 27.2667 428.574 28.0533 428.574 29.04C428.574 30.0267 428.081 30.8133 427.094 31.4C426.107 32 424.687 32.3 422.834 32.3C420.981 32.3 419.567 32.0067 418.594 31.42C417.621 30.8333 417.134 30.04 417.134 29.04C417.134 28.0267 417.621 27.2333 418.594 26.66C419.567 26.0733 420.981 25.78 422.834 25.78C424.687 25.78 426.107 26.08 427.094 26.68ZM422.834 26.84C421.474 26.84 420.401 27.04 419.614 27.44C418.841 27.84 418.454 28.3733 418.454 29.04C418.454 29.72 418.841 30.2533 419.614 30.64C420.387 31.0267 421.461 31.22 422.834 31.22C424.221 31.22 425.301 31.0333 426.074 30.66C426.861 30.2733 427.254 29.7333 427.254 29.04C427.254 28.36 426.861 27.8267 426.074 27.44C425.287 27.04 424.207 26.84 422.834 26.84ZM419.654 15.92C420.867 15.92 421.901 16.2933 422.754 17.04C423.607 17.7867 424.034 18.7533 424.034 19.94C424.034 21.14 423.607 22.12 422.754 22.88C421.914 23.6267 420.881 24 419.654 24C418.427 24 417.387 23.6267 416.534 22.88C415.694 22.1333 415.274 21.1667 415.274 19.98C415.274 18.78 415.694 17.8067 416.534 17.06C417.387 16.3 418.427 15.92 419.654 15.92ZM419.654 17.02C418.761 17.02 418.021 17.2933 417.434 17.84C416.861 18.3733 416.574 19.0733 416.574 19.94C416.574 20.82 416.861 21.5333 417.434 22.08C418.021 22.6267 418.761 22.9 419.654 22.9C420.587 22.9 421.334 22.6333 421.894 22.1C422.454 21.5533 422.734 20.8467 422.734 19.98C422.734 19.1 422.447 18.3867 421.874 17.84C421.314 17.2933 420.574 17.02 419.654 17.02ZM431.094 21.46V22.56H428.374V25.54H427.094V14.92H428.374V17.7H431.094V18.8H428.374V21.46H431.094ZM448.399 22.14H445.679V27.7H444.399V14.92H445.679V21.06H448.399V22.14ZM446.439 31.78H434.859V27.4H436.139V30.7H446.439V31.78ZM439.739 16.84H434.759V15.74H439.739V16.84ZM442.279 19.38H432.259V18.28H442.279V19.38ZM441.259 23.38C441.259 24.2867 440.879 25.02 440.119 25.58C439.372 26.14 438.419 26.42 437.259 26.42C436.099 26.42 435.139 26.1467 434.379 25.6C433.632 25.04 433.259 24.3 433.259 23.38C433.259 22.4467 433.632 21.7133 434.379 21.18C435.125 20.6333 436.085 20.36 437.259 20.36C438.432 20.36 439.392 20.6333 440.139 21.18C440.885 21.7133 441.259 22.4467 441.259 23.38ZM439.999 23.38C439.999 22.78 439.732 22.3067 439.199 21.96C438.665 21.6133 438.019 21.44 437.259 21.44C436.485 21.44 435.832 21.6133 435.299 21.96C434.779 22.3067 434.519 22.78 434.519 23.38C434.519 23.9667 434.779 24.44 435.299 24.8C435.832 25.1467 436.485 25.32 437.259 25.32C438.019 25.32 438.665 25.1467 439.199 24.8C439.732 24.44 439.999 23.9667 439.999 23.38ZM464.637 23.14L463.877 24.16C462.931 23.68 462.077 23.0733 461.317 22.34C460.557 21.5933 460.017 20.78 459.697 19.9C459.164 21.74 457.711 23.3267 455.337 24.66L454.557 23.68C455.877 23.0133 456.944 22.1533 457.757 21.1C458.584 20.0333 458.997 18.8267 458.997 17.48V15.78H460.277V17.44C460.277 18.7467 460.724 19.92 461.617 20.96C462.511 21.9867 463.517 22.7133 464.637 23.14ZM468.497 29.1C468.497 30.1133 467.977 30.9133 466.937 31.5C465.897 32.0867 464.471 32.38 462.657 32.38C460.844 32.38 459.417 32.0867 458.377 31.5C457.351 30.9267 456.837 30.1267 456.837 29.1C456.837 28.0733 457.351 27.2667 458.377 26.68C459.417 26.0933 460.844 25.8 462.657 25.8C464.471 25.8 465.897 26.0933 466.937 26.68C467.977 27.2667 468.497 28.0733 468.497 29.1ZM462.657 26.88C461.271 26.88 460.171 27.0733 459.357 27.46C458.557 27.8467 458.157 28.3933 458.157 29.1C458.157 29.7933 458.557 30.3333 459.357 30.72C460.171 31.1067 461.271 31.3 462.657 31.3C464.057 31.3 465.157 31.1067 465.957 30.72C466.771 30.3333 467.177 29.7933 467.177 29.1C467.177 28.3933 466.771 27.8467 465.957 27.46C465.157 27.0733 464.057 26.88 462.657 26.88ZM470.957 20.94H468.237V25.64H466.957V14.92H468.237V19.84H470.957V20.94ZM485.682 29.58C485.682 30.5 485.169 31.1933 484.142 31.66C483.115 32.14 481.722 32.38 479.962 32.38C478.202 32.38 476.815 32.14 475.802 31.66C474.789 31.1933 474.282 30.5 474.282 29.58C474.282 28.66 474.789 27.9667 475.802 27.5C476.815 27.02 478.189 26.78 479.922 26.78C481.655 26.78 483.049 27.02 484.102 27.5C485.155 27.98 485.682 28.6733 485.682 29.58ZM483.122 25.44C481.002 25.6667 479.149 25.8267 477.562 25.92C475.509 26.0667 473.709 26.14 472.162 26.14L471.922 25.02C473.402 25.02 475.009 24.9733 476.742 24.88V23.54C475.769 23.4733 474.982 23.26 474.382 22.9C473.782 22.5267 473.482 22.0067 473.482 21.34C473.482 20.5933 473.849 20.0333 474.582 19.66C475.329 19.2733 476.269 19.08 477.402 19.08C478.549 19.08 479.489 19.2667 480.222 19.64C480.969 20.0133 481.342 20.5733 481.342 21.32C481.342 22 481.035 22.5267 480.422 22.9C479.809 23.26 479.009 23.4733 478.022 23.54V24.82C480.142 24.7 481.809 24.56 483.022 24.4L483.122 25.44ZM479.962 27.9C478.655 27.9 477.615 28.0467 476.842 28.34C476.069 28.6333 475.682 29.0467 475.682 29.58C475.682 30.1267 476.069 30.5467 476.842 30.84C477.615 31.12 478.655 31.26 479.962 31.26C482.842 31.26 484.282 30.7 484.282 29.58C484.282 29.02 483.895 28.6 483.122 28.32C482.362 28.04 481.309 27.9 479.962 27.9ZM488.262 21.94H485.542V26.8H484.262V14.92H485.542V20.84H488.262V21.94ZM479.342 22.26C479.849 22.0467 480.102 21.7333 480.102 21.32C480.102 20.9067 479.849 20.6 479.342 20.4C478.835 20.2 478.189 20.1 477.402 20.1C476.615 20.1 475.969 20.2 475.462 20.4C474.969 20.6 474.722 20.9067 474.722 21.32C474.722 21.7467 474.969 22.06 475.462 22.26C475.969 22.46 476.615 22.56 477.402 22.56C478.189 22.56 478.835 22.46 479.342 22.26ZM482.422 18.52H472.522V17.42H482.422V18.52ZM479.822 16.36H475.042V15.22H479.822V16.36ZM505.267 23.5H489.487V22.48H505.267V23.5ZM503.747 32.1H491.407V28H501.867V26.18H491.367V25.14H503.147V29.02H492.687V31.06H503.747V32.1ZM503.347 20.78H491.547V15.72H503.167V16.76H492.827V19.74H503.347V20.78ZM522.571 23.7H506.791V22.66H522.571V23.7ZM521.111 32.1H508.751V28.24H519.151V26.48H508.691V25.4H520.431V29.26H510.031V31.04H521.111V32.1ZM520.631 18.38C520.631 19.38 520.111 20.1267 519.071 20.62C518.031 21.1133 516.571 21.36 514.691 21.36C512.838 21.36 511.385 21.1133 510.331 20.62C509.291 20.1133 508.771 19.3667 508.771 18.38C508.771 17.3933 509.291 16.6533 510.331 16.16C511.385 15.6533 512.838 15.4 514.691 15.4C516.571 15.4 518.031 15.6533 519.071 16.16C520.111 16.6533 520.631 17.3933 520.631 18.38ZM518.091 16.94C517.251 16.6067 516.118 16.44 514.691 16.44C513.265 16.44 512.138 16.6067 511.311 16.94C510.498 17.2733 510.091 17.7533 510.091 18.38C510.091 19.0067 510.498 19.4867 511.311 19.82C512.138 20.14 513.265 20.3 514.691 20.3C516.118 20.3 517.251 20.14 518.091 19.82C518.931 19.4867 519.351 19.0067 519.351 18.38C519.351 17.7533 518.931 17.2733 518.091 16.94ZM538.17 27.32L537.31 28.26C536.617 27.7533 535.91 27.0333 535.19 26.1C534.483 25.1533 534.003 24.2267 533.75 23.32C533.603 24.2933 533.183 25.2533 532.49 26.2C531.797 27.1467 530.97 27.98 530.01 28.7L529.13 27.76C530.197 27.0933 531.13 26.1 531.93 24.78C532.73 23.4467 533.13 22.0067 533.13 20.46V18.16H529.65V17.06H537.71V18.16H534.39V20.4C534.39 21.9733 534.757 23.3467 535.49 24.52C536.237 25.6933 537.13 26.6267 538.17 27.32ZM540.61 31.48H539.33V22.42H536.47V21.34H539.33V15.36H540.61V31.48ZM544.07 32.4H542.79V14.92H544.07V32.4ZM560.975 32.4H559.695V14.92H560.975V32.4ZM557.215 27.1L556.375 28.12C555.455 27.48 554.561 26.66 553.695 25.66C552.828 24.6467 552.228 23.6267 551.895 22.6C551.588 23.68 551.035 24.74 550.235 25.78C549.448 26.8067 548.508 27.74 547.415 28.58L546.535 27.58C547.815 26.7933 548.915 25.6733 549.835 24.22C550.768 22.7667 551.235 21.3133 551.235 19.86V16.56H552.555V19.84C552.555 21.32 553.015 22.7267 553.935 24.06C554.855 25.38 555.948 26.3933 557.215 27.1ZM580.239 23.46H577.319V32.4H576.039V14.92H577.319V22.36H580.239V23.46ZM571.479 17.34H566.419V16.2H571.479V17.34ZM574.119 20.24H563.899V19.16H574.119V20.24ZM573.179 25.08C573.179 26.0933 572.806 26.94 572.059 27.62C571.313 28.2867 570.346 28.62 569.159 28.62C567.973 28.62 566.999 28.2867 566.239 27.62C565.493 26.94 565.119 26.0933 565.119 25.08C565.119 24.0533 565.493 23.2 566.239 22.52C566.986 21.84 567.959 21.5 569.159 21.5C570.346 21.5 571.313 21.84 572.059 22.52C572.806 23.2 573.179 24.0533 573.179 25.08ZM571.119 26.86C571.639 26.3933 571.899 25.8 571.899 25.08C571.899 24.36 571.639 23.7667 571.119 23.3C570.599 22.8333 569.946 22.6 569.159 22.6C568.373 22.6 567.719 22.8333 567.199 23.3C566.679 23.7667 566.419 24.36 566.419 25.08C566.419 25.8 566.679 26.3933 567.199 26.86C567.719 27.3267 568.373 27.56 569.159 27.56C569.946 27.56 570.599 27.3267 571.119 26.86ZM597.044 29.78H581.264V28.68H587.504V22.52H588.784V28.68H597.044V29.78ZM594.824 16.82V19.16C594.824 22.0933 594.597 24.5333 594.144 26.48L592.884 26.26C593.284 24.6867 593.484 22.5467 593.484 19.84V17.92H582.904V16.82H594.824ZM619.603 29.78H603.823V28.68H619.603V29.78ZM617.243 16.96C617.243 18.6667 617.169 20.5267 617.023 22.54C616.876 24.5533 616.663 26.0933 616.383 27.16L615.103 26.98C615.343 26.1933 615.543 24.8067 615.703 22.82C615.876 20.8333 615.936 19.24 615.883 18.04H605.463V16.96H617.243ZM625.207 16.54C626.314 16.54 627.181 17.02 627.807 17.98C628.447 18.9267 628.801 20.2333 628.867 21.9H631.167V15.26H632.447V31.54H631.167V22.98H628.867C628.801 24.6333 628.447 25.9333 627.807 26.88C627.167 27.8133 626.301 28.28 625.207 28.28C624.034 28.28 623.121 27.76 622.467 26.72C621.827 25.6667 621.507 24.2267 621.507 22.4C621.507 20.5733 621.827 19.14 622.467 18.1C623.121 17.06 624.034 16.54 625.207 16.54ZM626.947 25.9C627.374 25.0467 627.587 23.88 627.587 22.4C627.587 20.92 627.374 19.76 626.947 18.92C626.521 18.08 625.941 17.66 625.207 17.66C624.461 17.66 623.874 18.08 623.447 18.92C623.021 19.76 622.807 20.92 622.807 22.4C622.807 23.88 623.021 25.0467 623.447 25.9C623.874 26.74 624.461 27.16 625.207 27.16C625.941 27.16 626.521 26.74 626.947 25.9ZM635.847 32.4H634.567V14.92H635.847V32.4ZM653.152 32.4H651.872V23.08H649.272V31.48H648.012V15.36H649.272V22H651.872V14.92H653.152V32.4ZM646.872 27.32C644.512 27.7067 641.919 27.8733 639.092 27.82V17.12H645.652V18.22H640.372V26.68C642.665 26.72 644.772 26.5467 646.692 26.16L646.872 27.32ZM670.457 32.4H669.177V23.38H666.757V31.48H665.497V15.36H666.757V22.3H669.177V14.92H670.457V32.4ZM662.897 22.44C663.563 23.0533 663.897 23.86 663.897 24.86C663.897 25.86 663.563 26.6667 662.897 27.28C662.23 27.8933 661.357 28.2 660.277 28.2C659.223 28.2 658.357 27.8867 657.677 27.26C657.01 26.62 656.677 25.82 656.677 24.86C656.677 23.8467 657.01 23.0333 657.677 22.42C658.343 21.8067 659.21 21.5 660.277 21.5C661.357 21.5 662.23 21.8133 662.897 22.44ZM662.657 24.86C662.657 24.18 662.43 23.6333 661.977 23.22C661.537 22.8067 660.97 22.6 660.277 22.6C659.583 22.6 659.01 22.8133 658.557 23.24C658.117 23.6533 657.897 24.1933 657.897 24.86C657.897 25.54 658.117 26.0867 658.557 26.5C659.01 26.9133 659.583 27.12 660.277 27.12C660.97 27.12 661.537 26.9067 661.977 26.48C662.43 26.0533 662.657 25.5133 662.657 24.86ZM664.517 20.26H655.757V19.18H664.517V20.26ZM662.537 17.5H657.897V16.38H662.537V17.5ZM688.195 24.7L687.495 25.72C686.682 25.4667 685.855 24.9867 685.015 24.28C684.175 23.56 683.582 22.8067 683.235 22.02C682.982 22.8067 682.428 23.6067 681.575 24.42C680.722 25.2333 679.782 25.8267 678.755 26.2L678.055 25.2C679.215 24.8667 680.255 24.1933 681.175 23.18C682.108 22.1667 682.575 21.1467 682.575 20.12V19.84H678.635V18.74H687.795V19.84H683.875V20.1C683.875 21.0867 684.328 22.04 685.235 22.96C686.142 23.88 687.128 24.46 688.195 24.7ZM694.375 21.56H691.655V27.62H690.375V14.92H691.655V20.48H694.375V21.56ZM692.415 31.78H680.835V26.54H682.115V30.7H692.415V31.78ZM685.515 16.84H680.875V15.76H685.515V16.84ZM708.56 20.06H704.84V18.96H708.56V14.92H709.84V25.48H708.56V20.06ZM710.04 29.16C710.04 30.16 709.533 30.9467 708.52 31.52C707.507 32.0933 706.073 32.38 704.22 32.38C702.367 32.38 700.933 32.0933 699.92 31.52C698.907 30.9467 698.4 30.16 698.4 29.16C698.4 28.1467 698.907 27.3533 699.92 26.78C700.933 26.2067 702.367 25.92 704.22 25.92C706.073 25.92 707.507 26.2067 708.52 26.78C709.533 27.3533 710.04 28.1467 710.04 29.16ZM707.56 27.56C706.76 27.1733 705.647 26.98 704.22 26.98C702.793 26.98 701.68 27.1733 700.88 27.56C700.093 27.9333 699.7 28.4667 699.7 29.16C699.7 29.8533 700.093 30.3933 700.88 30.78C701.68 31.1533 702.793 31.34 704.22 31.34C705.647 31.34 706.76 31.1533 707.56 30.78C708.36 30.3933 708.76 29.8533 708.76 29.16C708.76 28.4667 708.36 27.9333 707.56 27.56ZM705.56 23.38L704.78 24.4C703.833 23.92 702.98 23.3067 702.22 22.56C701.46 21.8133 700.927 21.0133 700.62 20.16C700.34 21.0667 699.813 21.9333 699.04 22.76C698.267 23.5867 697.333 24.2933 696.24 24.88L695.46 23.92C696.807 23.2667 697.887 22.4067 698.7 21.34C699.527 20.26 699.94 19.0467 699.94 17.7V15.98H701.22V17.66C701.22 18.98 701.66 20.1667 702.54 21.22C703.433 22.26 704.44 22.98 705.56 23.38ZM729.185 23.42H726.285V32.4H725.005V14.92H726.285V22.34H729.185V23.42ZM723.925 27.98C722.258 28.22 720.338 28.3933 718.165 28.5C716.751 28.58 714.965 28.62 712.805 28.62L712.585 27.46C714.798 27.46 716.118 27.4533 716.545 27.44V21.88H717.825V27.4C720.065 27.3467 722.065 27.18 723.825 26.9L723.925 27.98ZM722.525 16.94C722.538 18.1667 722.485 19.5333 722.365 21.04C722.258 22.5333 722.111 23.74 721.925 24.66L720.685 24.54C720.805 23.8467 720.918 22.8333 721.025 21.5C721.131 20.1533 721.185 18.9933 721.185 18.02H713.545V16.94H722.525ZM751.543 21.28H748.823V27.62H747.543V14.92H748.823V20.18H751.543V21.28ZM749.583 31.78H737.923V26.42H739.203V30.7H749.583V31.78ZM744.043 24.86H736.143V16.12H737.423V19.24H742.763V16.12H744.043V24.86ZM742.763 23.76V20.34H737.423V23.76H742.763ZM767.488 32.4H766.208V23.08H763.608V31.48H762.348V15.36H763.608V22H766.208V14.92H767.488V32.4ZM761.208 27.32C758.848 27.7067 756.254 27.8733 753.428 27.82V17.12H759.988V18.22H754.708V26.68C757.001 26.72 759.108 26.5467 761.028 26.16L761.208 27.32ZM785.853 30.16H770.073V29.06H777.293V25.82H772.173V20.42H782.473V17.46H772.173V16.38H783.753V21.5H773.453V24.74H784.213V25.82H778.573V29.06H785.853V30.16ZM190.84 58.3H188.12V61.9H186.84V52.92H188.12V57.22H190.84V58.3ZM188.8 70.28H177.26V65.9H186.84V63.92H177.24V62.84H188.12V66.98H178.54V69.18H188.8V70.28ZM175.4 53.94H183.26C183.007 56.1 182.2 57.8667 180.84 59.24C179.48 60.6 177.647 61.6733 175.34 62.46L174.66 61.4C176.66 60.8267 178.267 59.9867 179.48 58.88C180.693 57.76 181.453 56.4733 181.76 55.02H175.4V53.94ZM203.325 65.56C200.591 65.9467 197.185 66.14 193.105 66.14V59.58H199.785V55.66H193.025V54.56H201.065V60.66H194.385V65.04C198.011 65.0667 200.938 64.8667 203.165 64.44L203.325 65.56ZM206.285 70.4H205.005V52.92H206.285V70.4ZM225.149 63.16H209.369V62.06H225.149V63.16ZM223.309 69.96H211.569V64.88H212.829V68.86H223.309V69.96ZM223.249 59.58H211.589V53.52H212.849V58.48H223.249V59.58ZM244.888 57.6H241.108V56.52H244.888V52.92H246.168V62H244.888V57.6ZM241.988 60.36L241.268 61.38C240.335 61.0067 239.481 60.4733 238.708 59.78C237.948 59.0867 237.368 58.2867 236.968 57.38C236.395 59.18 234.935 60.6867 232.588 61.9L231.808 60.92C233.048 60.4133 234.101 59.6667 234.968 58.68C235.848 57.68 236.288 56.52 236.288 55.2V53.68H237.568V55.16C237.568 55.8533 237.708 56.5 237.988 57.1C238.268 57.7 238.641 58.2133 239.108 58.64C239.575 59.0533 240.041 59.4 240.508 59.68C240.988 59.96 241.481 60.1867 241.988 60.36ZM246.868 70.28H234.948V66.04H244.908V64.08H234.848V62.98H246.188V67.06H236.228V69.18H246.868V70.28ZM262.933 59.84H251.353V53.94H262.933V59.84ZM261.653 58.76V55.02H252.633V58.76H261.653ZM257.733 66.74H256.453V63.14H249.233V62.04H265.013V63.14H257.733V66.74ZM263.093 69.8H251.333V64.98H252.613V68.72H263.093V69.8ZM280.817 55.76H275.097V56.2C275.097 57.0267 275.464 57.88 276.197 58.76C276.931 59.6267 277.797 60.36 278.797 60.96C279.811 61.5467 280.764 61.9267 281.657 62.1L280.977 63.16C279.537 62.7333 278.184 62.0267 276.917 61.04C275.651 60.0533 274.817 59.0933 274.417 58.16C274.084 59.1067 273.277 60.0733 271.997 61.06C270.731 62.0467 269.351 62.74 267.857 63.14L267.197 62.08C268.104 61.92 269.057 61.5533 270.057 60.98C271.057 60.3933 271.924 59.66 272.657 58.78C273.391 57.9 273.757 57.04 273.757 56.2V55.76H268.037V54.68H280.817V55.76ZM282.317 68.16H266.537V67.06H273.757V62.76H275.037V67.06H282.317V68.16ZM300.122 61.16H297.202V70.4H295.922V52.92H297.202V60.06H300.122V61.16ZM294.122 65.1L293.262 66.12C292.342 65.4667 291.449 64.64 290.582 63.64C289.715 62.6267 289.122 61.6133 288.802 60.6C288.495 61.68 287.942 62.74 287.142 63.78C286.355 64.8067 285.415 65.74 284.322 66.58L283.442 65.58C284.722 64.7933 285.822 63.6733 286.742 62.22C287.675 60.7667 288.142 59.3133 288.142 57.86V54.56H289.462V57.84C289.462 59.32 289.922 60.7267 290.842 62.06C291.762 63.38 292.855 64.3933 294.122 65.1ZM315.387 62.28H314.107V52.92H315.387V62.28ZM315.407 70.16H304.187V63.26H305.467V65.64H314.127V63.26H315.407V70.16ZM314.127 69.1V66.7H305.467V69.1H314.127ZM306.067 53.8C307.28 53.8 308.307 54.1667 309.147 54.9C310 55.6333 310.427 56.5867 310.427 57.76C310.427 58.9333 310 59.8867 309.147 60.62C308.307 61.3533 307.28 61.72 306.067 61.72C304.84 61.72 303.807 61.36 302.967 60.64C302.127 59.9067 301.707 58.9533 301.707 57.78C301.707 56.5933 302.127 55.6333 302.967 54.9C303.807 54.1667 304.84 53.8 306.067 53.8ZM306.067 54.96C305.173 54.96 304.433 55.22 303.847 55.74C303.273 56.2467 302.987 56.92 302.987 57.76C302.987 58.5867 303.28 59.2667 303.867 59.8C304.453 60.32 305.187 60.58 306.067 60.58C306.987 60.58 307.727 60.32 308.287 59.8C308.847 59.28 309.127 58.6067 309.127 57.78C309.127 56.94 308.847 56.26 308.287 55.74C307.727 55.22 306.987 54.96 306.067 54.96ZM332.511 70.4H331.231V52.92H332.511V70.4ZM329.631 65.12C328.471 65.3733 326.918 65.5867 324.971 65.76C323.038 65.92 321.245 66 319.591 66V54.72H320.871V64.86C322.045 64.86 323.511 64.78 325.271 64.62C327.031 64.46 328.425 64.2667 329.451 64.04L329.631 65.12ZM352.036 61.04H349.116V70.4H347.836V52.92H349.116V59.96H352.036V61.04ZM346.396 65.4C343.543 65.92 340.263 66.12 336.556 66V54.74H344.696V55.84H337.836V64.86C339.103 64.9267 340.569 64.9067 342.236 64.8C343.916 64.68 345.243 64.5133 346.216 64.3L346.396 65.4ZM353.161 68.56V66.88H354.821V68.56H353.161ZM375.513 57.6H371.733V56.52H375.513V52.92H376.793V62H375.513V57.6ZM372.613 60.36L371.893 61.38C370.96 61.0067 370.106 60.4733 369.333 59.78C368.573 59.0867 367.993 58.2867 367.593 57.38C367.02 59.18 365.56 60.6867 363.213 61.9L362.433 60.92C363.673 60.4133 364.726 59.6667 365.593 58.68C366.473 57.68 366.913 56.52 366.913 55.2V53.68H368.193V55.16C368.193 55.8533 368.333 56.5 368.613 57.1C368.893 57.7 369.266 58.2133 369.733 58.64C370.2 59.0533 370.666 59.4 371.133 59.68C371.613 59.96 372.106 60.1867 372.613 60.36ZM377.493 70.28H365.573V66.04H375.533V64.08H365.473V62.98H376.813V67.06H366.853V69.18H377.493V70.28ZM393.558 59.84H381.978V53.94H393.558V59.84ZM392.278 58.76V55.02H383.258V58.76H392.278ZM388.358 66.74H387.078V63.14H379.858V62.04H395.638V63.14H388.358V66.74ZM393.718 69.8H381.958V64.98H383.238V68.72H393.718V69.8ZM407.342 65.3L406.542 66.28C405.609 65.64 404.722 64.8267 403.882 63.84C403.042 62.8533 402.462 61.8467 402.142 60.82C401.529 62.9533 400.062 64.9133 397.742 66.7L396.882 65.74C398.162 64.9667 399.249 63.8667 400.142 62.44C401.036 61.0133 401.482 59.5733 401.482 58.12V55.86H397.522V54.76H406.762V55.86H402.802V58.08C402.802 59.56 403.242 60.96 404.122 62.28C405.016 63.5867 406.089 64.5933 407.342 65.3ZM413.482 61.22H410.522V70.4H409.242V52.92H410.522V60.12H413.482V61.22ZM427.827 52.92V60.38H430.787V61.48H427.827V70.4H426.547V52.92H427.827ZM423.227 54.82C423.174 57.5533 422.44 59.92 421.027 61.92C419.614 63.92 417.747 65.5467 415.427 66.8L414.647 65.78C416.847 64.6867 418.56 63.2867 419.787 61.58C421.027 59.86 421.727 57.9733 421.887 55.92H415.227V54.82H423.227ZM436.666 68.16L441.626 54.74H442.906L447.846 68.16H446.486L444.966 64.06H439.406L437.906 68.16H436.666ZM442.166 56.48L439.786 62.94H444.566L442.206 56.48H442.166ZM450.018 68.16V54.74H451.318V68.16H450.018ZM457.942 54.54C459.048 54.54 459.915 55.02 460.542 55.98C461.182 56.9267 461.535 58.2333 461.602 59.9H463.902V53.26H465.182V69.54H463.902V60.98H461.602C461.535 62.6333 461.182 63.9333 460.542 64.88C459.902 65.8133 459.035 66.28 457.942 66.28C456.768 66.28 455.855 65.76 455.202 64.72C454.562 63.6667 454.242 62.2267 454.242 60.4C454.242 58.5733 454.562 57.14 455.202 56.1C455.855 55.06 456.768 54.54 457.942 54.54ZM459.682 63.9C460.108 63.0467 460.322 61.88 460.322 60.4C460.322 58.92 460.108 57.76 459.682 56.92C459.255 56.08 458.675 55.66 457.942 55.66C457.195 55.66 456.608 56.08 456.182 56.92C455.755 57.76 455.542 58.92 455.542 60.4C455.542 61.88 455.755 63.0467 456.182 63.9C456.608 64.74 457.195 65.16 457.942 65.16C458.675 65.16 459.255 64.74 459.682 63.9ZM468.582 70.4H467.302V52.92H468.582V70.4ZM491.14 70.4H489.86V61.08H487.26V69.48H486V53.36H487.26V60H489.86V52.92H491.14V70.4ZM484.86 65.32C482.5 65.7067 479.907 65.8733 477.08 65.82V55.12H483.64V56.22H478.36V64.68C480.653 64.72 482.76 64.5467 484.68 64.16L484.86 65.32ZM508.445 70.4H507.165V61.38H504.745V69.48H503.485V53.36H504.745V60.3H507.165V52.92H508.445V70.4ZM500.885 60.44C501.552 61.0533 501.885 61.86 501.885 62.86C501.885 63.86 501.552 64.6667 500.885 65.28C500.218 65.8933 499.345 66.2 498.265 66.2C497.212 66.2 496.345 65.8867 495.665 65.26C494.998 64.62 494.665 63.82 494.665 62.86C494.665 61.8467 494.998 61.0333 495.665 60.42C496.332 59.8067 497.198 59.5 498.265 59.5C499.345 59.5 500.218 59.8133 500.885 60.44ZM500.645 62.86C500.645 62.18 500.418 61.6333 499.965 61.22C499.525 60.8067 498.958 60.6 498.265 60.6C497.572 60.6 496.998 60.8133 496.545 61.24C496.105 61.6533 495.885 62.1933 495.885 62.86C495.885 63.54 496.105 64.0867 496.545 64.5C496.998 64.9133 497.572 65.12 498.265 65.12C498.958 65.12 499.525 64.9067 499.965 64.48C500.418 64.0533 500.645 63.5133 500.645 62.86ZM502.505 58.26H493.745V57.18H502.505V58.26ZM500.525 55.5H495.885V54.38H500.525V55.5ZM517.703 64.8C516.957 63.6933 516.583 62.2 516.583 60.32C516.583 58.44 516.957 56.9533 517.703 55.86C518.45 54.7533 519.497 54.2 520.843 54.2C522.11 54.2 523.11 54.6933 523.843 55.68C524.59 56.6533 525.003 58 525.083 59.72H529.243V52.92H530.523V70.4H529.243V60.82H525.083C525.017 62.5667 524.617 63.94 523.883 64.94C523.15 65.94 522.137 66.44 520.843 66.44C519.497 66.44 518.45 65.8933 517.703 64.8ZM523.863 60.34C523.863 58.8733 523.583 57.6733 523.023 56.74C522.477 55.8067 521.75 55.34 520.843 55.34C519.937 55.34 519.21 55.8067 518.663 56.74C518.117 57.66 517.843 58.86 517.843 60.34C517.843 61.7933 518.117 62.9867 518.663 63.92C519.21 64.8533 519.937 65.32 520.843 65.32C521.75 65.32 522.477 64.8533 523.023 63.92C523.583 62.9867 523.863 61.7933 523.863 60.34ZM548.028 65.68H546.748V58.82H543.448V57.74H546.748V52.92H548.028V65.68ZM545.328 62.14C543.968 62.46 542.048 62.62 539.568 62.62V54.44H544.328V55.54H540.828V61.5C542.535 61.5 543.975 61.3533 545.148 61.06L545.328 62.14ZM548.368 69.78H536.728V64.42H537.988V68.7H548.368V69.78ZM539.008 62.12C537.848 62.4133 536.248 62.56 534.208 62.56V54.44H538.428V55.54H535.488V61.44C536.781 61.44 537.895 61.3067 538.828 61.04L539.008 62.12ZM572.227 59.74H569.507V66.08H568.227V52.92H569.507V58.66H572.227V59.74ZM570.267 69.98H558.667V64.92H559.927V68.88H570.267V69.98ZM567.047 62.7C565.3 62.9667 563.407 63.14 561.367 63.22C559.727 63.3133 557.987 63.36 556.147 63.36L555.907 62.2C557.68 62.2 558.987 62.1867 559.827 62.16V58.2H561.107V62.12C563.627 62.0267 565.553 61.8667 566.887 61.64L567.047 62.7ZM565.627 54.32C565.627 56.9333 565.44 58.9333 565.067 60.32L563.827 60.12C564.147 58.96 564.307 57.3867 564.307 55.4H557.067V54.32H565.627ZM587.711 70.14H576.651V64.06H587.711V70.14ZM586.431 69.06V65.14H577.931V69.06H586.431ZM574.071 55.36V54.28H583.231V55.36H579.291V56.42C579.291 57.5267 579.731 58.5667 580.611 59.54C581.491 60.5 582.498 61.1667 583.631 61.54L582.891 62.58C582.011 62.22 581.165 61.6667 580.351 60.92C579.538 60.16 578.958 59.3867 578.611 58.6C578.398 59.4 577.851 60.2333 576.971 61.1C576.091 61.9667 575.158 62.62 574.171 63.06L573.451 62.08C574.625 61.6133 575.678 60.8333 576.611 59.74C577.545 58.6467 578.011 57.54 578.011 56.42V55.36H574.071ZM586.411 58.6H582.931V57.52H586.411V52.92H587.691V63.14H586.411V58.6ZM606.536 61.7H590.756V60.66H606.536V61.7ZM605.076 70.1H592.716V66.24H603.116V64.48H592.656V63.4H604.396V67.26H593.996V69.04H605.076V70.1ZM604.596 56.38C604.596 57.38 604.076 58.1267 603.036 58.62C601.996 59.1133 600.536 59.36 598.656 59.36C596.803 59.36 595.349 59.1133 594.296 58.62C593.256 58.1133 592.736 57.3667 592.736 56.38C592.736 55.3933 593.256 54.6533 594.296 54.16C595.349 53.6533 596.803 53.4 598.656 53.4C600.536 53.4 601.996 53.6533 603.036 54.16C604.076 54.6533 604.596 55.3933 604.596 56.38ZM602.056 54.94C601.216 54.6067 600.083 54.44 598.656 54.44C597.229 54.44 596.103 54.6067 595.276 54.94C594.463 55.2733 594.056 55.7533 594.056 56.38C594.056 57.0067 594.463 57.4867 595.276 57.82C596.103 58.14 597.229 58.3 598.656 58.3C600.083 58.3 601.216 58.14 602.056 57.82C602.896 57.4867 603.316 57.0067 603.316 56.38C603.316 55.7533 602.896 55.2733 602.056 54.94ZM626.675 52.92V60.38H629.635V61.48H626.675V70.4H625.395V52.92H626.675ZM622.075 54.82C622.021 57.5533 621.288 59.92 619.875 61.92C618.461 63.92 616.595 65.5467 614.275 66.8L613.495 65.78C615.695 64.6867 617.408 63.2867 618.635 61.58C619.875 59.86 620.575 57.9733 620.735 55.92H614.075V54.82H622.075ZM641.379 65.04L640.539 66C639.579 65.3467 638.666 64.5333 637.799 63.56C636.933 62.5867 636.353 61.6 636.059 60.6C635.766 61.7067 635.213 62.78 634.399 63.82C633.586 64.8467 632.646 65.74 631.579 66.5L630.739 65.52C632.046 64.72 633.146 63.6333 634.039 62.26C634.933 60.8733 635.379 59.42 635.379 57.9V55.86H631.259V54.76H640.899V55.86H636.699V57.86C636.699 59.34 637.159 60.74 638.079 62.06C639.013 63.38 640.113 64.3733 641.379 65.04ZM643.579 52.92H644.859V70.4H643.579V52.92ZM663.704 67.78H647.924V66.68H654.164V60.52H655.444V66.68H663.704V67.78ZM661.484 54.82V57.16C661.484 60.0933 661.257 62.5333 660.804 64.48L659.544 64.26C659.944 62.6867 660.144 60.5467 660.144 57.84V55.92H649.564V54.82H661.484ZM684.723 63.08H683.443V52.92H684.723V63.08ZM672.223 55.1C673.076 54.3533 674.123 53.98 675.363 53.98C676.603 53.98 677.649 54.3533 678.503 55.1C679.369 55.8333 679.803 56.7933 679.803 57.98C679.803 59.1667 679.369 60.1333 678.503 60.88C677.649 61.6267 676.603 62 675.363 62C674.123 62 673.076 61.6333 672.223 60.9C671.369 60.1533 670.943 59.1867 670.943 58C670.943 56.8133 671.369 55.8467 672.223 55.1ZM675.363 55.08C674.469 55.08 673.723 55.3533 673.123 55.9C672.536 56.4333 672.243 57.1267 672.243 57.98C672.243 58.8333 672.543 59.5333 673.143 60.08C673.743 60.6267 674.483 60.9 675.363 60.9C676.296 60.9 677.049 60.6333 677.623 60.1C678.196 59.5667 678.483 58.8667 678.483 58C678.483 57.1333 678.196 56.4333 677.623 55.9C677.049 55.3533 676.296 55.08 675.363 55.08ZM685.543 70.42H685.523C684.869 70.0867 684.209 69.5867 683.543 68.92C682.889 68.24 682.449 67.5867 682.223 66.96C681.996 67.64 681.549 68.3333 680.883 69.04C680.216 69.7467 679.523 70.28 678.803 70.64L678.003 69.78C678.989 69.3 679.829 68.6133 680.523 67.72C681.229 66.8133 681.583 65.8667 681.583 64.88V63.68H682.863V64.78C682.863 65.7933 683.223 66.7533 683.943 67.66C684.663 68.5667 685.463 69.1867 686.343 69.52L685.543 70.42ZM679.023 68.32L678.103 69.22C677.596 68.94 677.123 68.58 676.683 68.14C676.243 67.6867 675.916 67.2 675.703 66.68C675.503 67.3467 675.056 68.0533 674.363 68.8C673.683 69.5333 672.956 70.0867 672.183 70.46L671.423 69.54C672.356 69.1533 673.189 68.5067 673.923 67.6C674.656 66.6933 675.023 65.74 675.023 64.74V63.7H676.303V64.6C676.303 65.5067 676.563 66.28 677.083 66.92C677.603 67.56 678.249 68.0267 679.023 68.32ZM703.567 63.16H687.787V62.06H703.567V63.16ZM701.727 69.96H689.987V64.88H691.247V68.86H701.727V69.96ZM701.667 59.58H690.007V53.52H691.267V58.48H701.667V59.58ZM715.852 65.04L715.012 66C714.052 65.3467 713.139 64.5333 712.272 63.56C711.405 62.5867 710.825 61.6 710.532 60.6C710.239 61.7067 709.685 62.78 708.872 63.82C708.059 64.8467 707.119 65.74 706.052 66.5L705.212 65.52C706.519 64.72 707.619 63.6333 708.512 62.26C709.405 60.8733 709.852 59.42 709.852 57.9V55.86H705.732V54.76H715.372V55.86H711.172V57.86C711.172 59.34 711.632 60.74 712.552 62.06C713.485 63.38 714.585 64.3733 715.852 65.04ZM718.052 52.92H719.332V70.4H718.052V52.92ZM741.351 60.42H736.171V62.32H743.431V63.42H727.651V62.32H734.891V60.42H729.771V53.88H741.231V54.98H731.051V56.56H740.691V57.58H731.051V59.34H741.351V60.42ZM741.531 67.38C741.531 68.3533 741.011 69.1 739.971 69.62C738.931 70.14 737.451 70.4 735.531 70.4C733.624 70.4 732.151 70.1333 731.111 69.6C730.071 69.08 729.551 68.34 729.551 67.38C729.551 66.4333 730.071 65.6933 731.111 65.16C732.164 64.6267 733.637 64.36 735.531 64.36C737.464 64.36 738.944 64.62 739.971 65.14C741.011 65.6467 741.531 66.3933 741.531 67.38ZM735.531 65.44C734.091 65.44 732.951 65.6133 732.111 65.96C731.284 66.3067 730.871 66.78 730.871 67.38C730.871 67.9933 731.284 68.4733 732.111 68.82C732.937 69.1533 734.077 69.32 735.531 69.32C736.997 69.32 738.144 69.1533 738.971 68.82C739.797 68.4733 740.211 67.9933 740.211 67.38C740.211 66.78 739.791 66.3067 738.951 65.96C738.124 65.6133 736.984 65.44 735.531 65.44ZM756.395 69.48H755.115V63.32H752.075V62.24H755.115V58.9H752.395V57.82H755.115V53.36H756.395V69.48ZM759.675 70.4H758.395V52.92H759.675V70.4ZM752.155 55.14C752.075 57.6733 751.495 59.86 750.415 61.7C749.349 63.5267 747.782 65.12 745.715 66.48L744.835 65.48C746.635 64.4533 748.055 63.12 749.095 61.48C750.135 59.8267 750.695 58.08 750.775 56.24H745.575V55.14H752.155ZM778.04 62.22H762.26V61.2H778.04V62.22ZM776.64 70.02H764.24V66.28H774.76V64.78H764.2V63.76H776.04V67.26H765.52V68.92H776.64V70.02ZM776.24 59.62H764.38V56.08H774.66V54.58H764.36V53.52H775.94V57.1H765.66V58.58H776.24V59.62ZM188.12 90.92V98.38H191.08V99.48H188.12V108.4H186.84V90.92H188.12ZM183.52 92.82C183.467 95.5533 182.733 97.92 181.32 99.92C179.907 101.92 178.04 103.547 175.72 104.8L174.94 103.78C177.14 102.687 178.853 101.287 180.08 99.58C181.32 97.86 182.02 95.9733 182.18 93.92H175.52V92.82H183.52ZM202.485 103.5L201.665 104.52C200.745 103.88 199.865 103.053 199.025 102.04C198.185 101.027 197.598 100 197.265 98.96C196.958 100.027 196.405 101.073 195.605 102.1C194.805 103.127 193.851 104.06 192.745 104.9L191.865 103.92C193.158 103.133 194.271 102.02 195.205 100.58C196.138 99.1267 196.605 97.68 196.605 96.24V93.86H192.625V92.76H201.905V93.86H197.925V96.2C197.925 97.68 198.371 99.0933 199.265 100.44C200.158 101.773 201.231 102.793 202.485 103.5ZM201.485 96.6V95.54H205.005V90.92H206.285V108.4H205.005V100.62H201.485V99.58H205.005V96.6H201.485ZM223.209 94.3C223.209 96.1533 221.429 97.1467 217.869 97.28V98.76H225.149V99.84H209.369V98.76H216.589V97.26C214.936 97.1933 213.649 96.9133 212.729 96.42C211.809 95.9267 211.349 95.22 211.349 94.3C211.349 93.3133 211.869 92.5733 212.909 92.08C213.963 91.5733 215.416 91.32 217.269 91.32C219.149 91.32 220.609 91.5733 221.649 92.08C222.689 92.5733 223.209 93.3133 223.209 94.3ZM223.769 108.1H211.409V104.2H221.809V102.56H211.349V101.48H223.089V105.24H212.689V107.04H223.769V108.1ZM220.649 92.9C219.809 92.5667 218.683 92.4 217.269 92.4C215.856 92.4 214.736 92.5667 213.909 92.9C213.083 93.2333 212.669 93.7 212.669 94.3C212.669 94.9 213.083 95.3667 213.909 95.7C214.736 96.02 215.856 96.18 217.269 96.18C218.696 96.18 219.829 96.02 220.669 95.7C221.509 95.3667 221.929 94.9 221.929 94.3C221.929 93.7 221.503 93.2333 220.649 92.9ZM240.428 108.42H239.148V101.96H231.928V100.86H247.708V101.96H240.428V108.42ZM246.908 97.72L246.208 98.78C244.861 98.4867 243.568 97.94 242.328 97.14C241.101 96.3267 240.261 95.4467 239.808 94.5C239.381 95.4467 238.548 96.3333 237.308 97.16C236.081 97.9867 234.795 98.54 233.448 98.82L232.748 97.76C234.428 97.5333 235.915 96.92 237.208 95.92C238.501 94.9067 239.148 93.84 239.148 92.72V91.7H240.468V92.72C240.468 93.8133 241.161 94.88 242.548 95.92C243.948 96.96 245.401 97.56 246.908 97.72ZM268.727 101.08H267.447V90.92H268.727V101.08ZM256.227 93.1C257.08 92.3533 258.127 91.98 259.367 91.98C260.607 91.98 261.653 92.3533 262.507 93.1C263.373 93.8333 263.807 94.7933 263.807 95.98C263.807 97.1667 263.373 98.1333 262.507 98.88C261.653 99.6267 260.607 100 259.367 100C258.127 100 257.08 99.6333 256.227 98.9C255.373 98.1533 254.947 97.1867 254.947 96C254.947 94.8133 255.373 93.8467 256.227 93.1ZM259.367 93.08C258.473 93.08 257.727 93.3533 257.127 93.9C256.54 94.4333 256.247 95.1267 256.247 95.98C256.247 96.8333 256.547 97.5333 257.147 98.08C257.747 98.6267 258.487 98.9 259.367 98.9C260.3 98.9 261.053 98.6333 261.627 98.1C262.2 97.5667 262.487 96.8667 262.487 96C262.487 95.1333 262.2 94.4333 261.627 93.9C261.053 93.3533 260.3 93.08 259.367 93.08ZM269.547 108.42H269.527C268.873 108.087 268.213 107.587 267.547 106.92C266.893 106.24 266.453 105.587 266.227 104.96C266 105.64 265.553 106.333 264.887 107.04C264.22 107.747 263.527 108.28 262.807 108.64L262.007 107.78C262.993 107.3 263.833 106.613 264.527 105.72C265.233 104.813 265.587 103.867 265.587 102.88V101.68H266.867V102.78C266.867 103.793 267.227 104.753 267.947 105.66C268.667 106.567 269.467 107.187 270.347 107.52L269.547 108.42ZM263.027 106.32L262.107 107.22C261.6 106.94 261.127 106.58 260.687 106.14C260.247 105.687 259.92 105.2 259.707 104.68C259.507 105.347 259.06 106.053 258.367 106.8C257.687 107.533 256.96 108.087 256.187 108.46L255.427 107.54C256.36 107.153 257.193 106.507 257.927 105.6C258.66 104.693 259.027 103.74 259.027 102.74V101.7H260.307V102.6C260.307 103.507 260.567 104.28 261.087 104.92C261.607 105.56 262.253 106.027 263.027 106.32ZM286.611 96.46L285.991 97.48C284.645 97.2133 283.358 96.6867 282.131 95.9C280.905 95.1133 280.085 94.2867 279.671 93.42C279.311 94.2733 278.511 95.0933 277.271 95.88C276.031 96.6667 274.731 97.2 273.371 97.48L272.751 96.46C273.671 96.3533 274.605 96.08 275.551 95.64C276.511 95.2 277.325 94.62 277.991 93.9C278.671 93.18 279.011 92.4467 279.011 91.7V91.14H280.331V91.7C280.331 92.4467 280.671 93.18 281.351 93.9C282.031 94.62 282.845 95.2 283.791 95.64C284.751 96.08 285.691 96.3533 286.611 96.46ZM287.571 100.1H271.791V99H287.571V100.1ZM285.451 108.16H273.931V101.54H275.211V103.7H284.171V101.54H285.451V108.16ZM284.171 107.08V104.8H275.211V107.08H284.171ZM303.156 108.4H301.876V90.92H303.156V108.4ZM300.276 103.12C299.116 103.373 297.563 103.587 295.616 103.76C293.683 103.92 291.889 104 290.236 104V92.72H291.516V102.86C292.689 102.86 294.156 102.78 295.916 102.62C297.676 102.46 299.069 102.267 300.096 102.04L300.276 103.12ZM322.681 99.04H319.761V108.4H318.481V90.92H319.761V97.96H322.681V99.04ZM317.041 103.4C314.187 103.92 310.907 104.12 307.201 104V92.74H315.341V93.84H308.481V102.86C309.747 102.927 311.214 102.907 312.881 102.8C314.561 102.68 315.887 102.513 316.861 102.3L317.041 103.4ZM323.805 106.56V104.88H325.465V106.56H323.805Z" fill="black"/>
</svg>
