<svg width="1311" height="213" viewBox="0 0 1311 213" fill="none" xmlns="http://www.w3.org/2000/svg">
<path d="M20.384 17.084H13.328V19.24H23.156V21.256H1.064V19.24H10.836V17.084H3.752V9.412H20.3V11.428H6.244V15.04H20.384V17.084ZM21.168 32.792H3.556V26.856H17.864V24.924H3.528V22.908H20.356V28.732H6.02V30.748H21.168V32.792ZM44.6106 18.288H37.5266V20.668H47.3826V22.712H25.2906V20.668H35.0346V18.288H28.0906V9.132H30.5826V11.708H42.1186V9.104H44.6106V18.288ZM44.6666 32.624H27.9506V24.784H44.6666V32.624ZM42.2026 30.664V26.772H30.4426V30.664H42.2026ZM42.1186 16.272V13.696H30.5826V16.272H42.1186ZM70.1811 32.96H67.8011V19.912H64.8891V31.756H62.5091V9.02H64.8891V17.896H67.8011V8.488H70.1811V32.96ZM52.7371 24.728H53.1851C56.4518 24.728 59.0558 24.5133 60.9971 24.084L61.3331 26.128C59.2051 26.576 56.3025 26.8 52.6251 26.8H50.2731V11.512H59.8211V13.528H52.7371V24.728ZM92.9797 28.2C92.9797 29.6747 92.2424 30.832 90.7677 31.672C89.3117 32.512 87.2957 32.932 84.7197 32.932C82.1437 32.932 80.1184 32.512 78.6437 31.672C77.1877 30.832 76.4597 29.6747 76.4597 28.2C76.4597 26.7067 77.1877 25.54 78.6437 24.7C80.1184 23.8413 82.1437 23.412 84.7197 23.412C87.2957 23.412 89.3117 23.8413 90.7677 24.7C92.2424 25.54 92.9797 26.7067 92.9797 28.2ZM73.7997 12.212V10.168H87.1557V12.212H81.8077V12.884C81.8077 14.5267 82.377 16.0013 83.5157 17.308C84.673 18.596 86.0077 19.464 87.5197 19.912L86.1477 21.9C85.0277 21.452 83.945 20.752 82.8997 19.8C81.8544 18.8293 81.0797 17.7933 80.5757 16.692C80.1837 17.8493 79.4184 18.988 78.2797 20.108C77.141 21.228 75.9277 22.0493 74.6397 22.572L73.1557 20.64C74.8357 20.0427 76.273 19.0253 77.4677 17.588C78.681 16.132 79.2877 14.5827 79.2877 12.94V12.212H73.7997ZM90.4317 28.2C90.4317 27.3227 89.9184 26.6507 88.8917 26.184C87.8837 25.6987 86.493 25.456 84.7197 25.456C82.9464 25.456 81.5557 25.6987 80.5477 26.184C79.5397 26.6507 79.0357 27.3227 79.0357 28.2C79.0357 29.0587 79.5397 29.7307 80.5477 30.216C81.5557 30.6827 82.9464 30.916 84.7197 30.916C86.493 30.916 87.8837 30.6827 88.8917 30.216C89.9184 29.7307 90.4317 29.0587 90.4317 28.2ZM96.3397 17H92.6437V23.552H90.1797V8.488H92.6437V14.928H96.3397V17Z" fill="black"/>
<path d="M303.752 34.2315H292.572V27.3515H293.852V29.6715H302.472V27.2915H303.752V34.2315ZM290.292 19.3515V18.2515H299.692V19.3515H295.612V20.1715C295.612 21.2782 296.052 22.3182 296.932 23.2915C297.812 24.2515 298.812 24.9182 299.932 25.2915L299.232 26.3315C298.339 25.9715 297.485 25.4182 296.672 24.6715C295.859 23.9115 295.279 23.1315 294.932 22.3315C294.679 23.1582 294.112 23.9982 293.232 24.8515C292.365 25.7049 291.439 26.3582 290.452 26.8115L289.712 25.8315C290.899 25.3649 291.965 24.5915 292.912 23.5115C293.859 22.4182 294.332 21.3049 294.332 20.1715V19.3515H290.292ZM302.472 33.1715V30.7115H293.852V33.1715H302.472ZM302.472 26.3715V16.9915H303.752V26.3715H302.472ZM310.897 18.6115C312.003 18.6115 312.87 19.0915 313.497 20.0515C314.137 20.9982 314.49 22.3049 314.557 23.9715H316.857V17.3315H318.137V33.6115H316.857V25.0515H314.557C314.49 26.7049 314.137 28.0049 313.497 28.9515C312.857 29.8849 311.99 30.3515 310.897 30.3515C309.723 30.3515 308.81 29.8315 308.157 28.7915C307.517 27.7382 307.197 26.2982 307.197 24.4715C307.197 22.6449 307.517 21.2115 308.157 20.1715C308.81 19.1315 309.723 18.6115 310.897 18.6115ZM312.637 27.9715C313.063 27.1182 313.277 25.9515 313.277 24.4715C313.277 22.9915 313.063 21.8315 312.637 20.9915C312.21 20.1515 311.63 19.7315 310.897 19.7315C310.15 19.7315 309.563 20.1515 309.137 20.9915C308.71 21.8315 308.497 22.9915 308.497 24.4715C308.497 25.9515 308.71 27.1182 309.137 27.9715C309.563 28.8115 310.15 29.2315 310.897 29.2315C311.63 29.2315 312.21 28.8115 312.637 27.9715ZM321.537 34.4715H320.257V16.9915H321.537V34.4715ZM342.315 25.2515H338.175V24.1515H342.315V16.9915H343.595V34.4715H342.315V25.2515ZM338.055 18.8915C338.002 21.6249 337.262 23.9915 335.835 25.9915C334.422 27.9915 332.562 29.6182 330.255 30.8715L329.455 29.8515C331.655 28.7582 333.369 27.3582 334.595 25.6515C335.835 23.9315 336.535 22.0449 336.695 19.9915H330.155V18.8915H338.055ZM361.62 24.1715L361.02 25.2515C359.54 24.9849 358.193 24.4782 356.98 23.7315C355.767 22.9715 354.96 22.1849 354.56 21.3715C354.213 22.1849 353.44 22.9782 352.24 23.7515C351.053 24.5115 349.693 25.0182 348.16 25.2715L347.58 24.2115C349.153 24.0382 350.6 23.5115 351.92 22.6315C353.253 21.7382 353.92 20.7249 353.92 19.5915V19.4115H348.28V18.3115H360.84V19.4115H355.24V19.5915C355.24 20.7115 355.927 21.7115 357.3 22.5915C358.687 23.4715 360.127 23.9982 361.62 24.1715ZM355.18 34.4715H353.9V28.1515H346.68V27.0515H362.46V28.1515H355.18V34.4715ZM380.265 25.5315H377.345V34.4715H376.065V16.9915H377.345V24.4315H380.265V25.5315ZM371.505 19.4115H366.445V18.2715H371.505V19.4115ZM374.145 22.3115H363.925V21.2315H374.145V22.3115ZM373.205 27.1515C373.205 28.1649 372.831 29.0115 372.085 29.6915C371.338 30.3582 370.371 30.6915 369.185 30.6915C367.998 30.6915 367.025 30.3582 366.265 29.6915C365.518 29.0115 365.145 28.1649 365.145 27.1515C365.145 26.1249 365.518 25.2715 366.265 24.5915C367.011 23.9115 367.985 23.5715 369.185 23.5715C370.371 23.5715 371.338 23.9115 372.085 24.5915C372.831 25.2715 373.205 26.1249 373.205 27.1515ZM371.145 28.9315C371.665 28.4649 371.925 27.8715 371.925 27.1515C371.925 26.4315 371.665 25.8382 371.145 25.3715C370.625 24.9049 369.971 24.6715 369.185 24.6715C368.398 24.6715 367.745 24.9049 367.225 25.3715C366.705 25.8382 366.445 26.4315 366.445 27.1515C366.445 27.8715 366.705 28.4649 367.225 28.9315C367.745 29.3982 368.398 29.6315 369.185 29.6315C369.971 29.6315 370.625 29.3982 371.145 28.9315ZM397.069 27.2315H381.289V26.1315H397.069V27.2315ZM395.229 34.0315H383.489V28.9515H384.749V32.9315H395.229V34.0315ZM395.169 23.6515H383.509V17.5915H384.769V22.5515H395.169V23.6515ZM417.548 25.2715H405.948V17.7115H407.228V20.3915H416.268V17.7115H417.548V25.2715ZM412.348 34.4915H411.068V28.5315H403.848V27.4515H419.628V28.5315H412.348V34.4915ZM416.268 24.1715V21.4915H407.228V24.1715H416.268ZM436.933 32.2315H421.153V31.1315H428.373V26.6715H423.113V18.5515H434.953V26.6715H429.653V31.1315H436.933V32.2315ZM433.673 25.5915V19.6515H424.393V25.5915H433.673ZM452.717 34.2115H441.417V27.8115H452.717V34.2115ZM451.437 33.1315V28.8915H442.697V33.1315H451.437ZM451.417 16.9915H452.697V26.6715H451.417V16.9915ZM449.737 24.4915C448.537 24.7315 446.917 24.9382 444.877 25.1115C442.851 25.2849 441.044 25.3715 439.457 25.3715V18.0515H440.737V24.2115C441.977 24.2115 443.484 24.1382 445.257 23.9915C447.031 23.8315 448.451 23.6315 449.517 23.3915L449.737 24.4915ZM469.982 34.4715H468.702V16.9915H469.982V34.4715ZM456.582 24.4915C456.582 22.6115 456.955 21.1249 457.702 20.0315C458.449 18.9249 459.495 18.3715 460.842 18.3715C462.202 18.3715 463.255 18.9249 464.002 20.0315C464.749 21.1249 465.122 22.6182 465.122 24.5115C465.122 26.3915 464.749 27.8849 464.002 28.9915C463.255 30.0982 462.202 30.6515 460.842 30.6515C459.495 30.6515 458.449 30.0982 457.702 28.9915C456.955 27.8849 456.582 26.3849 456.582 24.4915ZM463.042 28.1115C463.602 27.1782 463.882 25.9782 463.882 24.5115C463.882 23.0449 463.602 21.8449 463.042 20.9115C462.482 19.9782 461.749 19.5115 460.842 19.5115C459.935 19.5115 459.209 19.9782 458.662 20.9115C458.115 21.8315 457.842 23.0315 457.842 24.5115C457.842 25.9782 458.115 27.1782 458.662 28.1115C459.209 29.0315 459.935 29.4915 460.842 29.4915C461.749 29.4915 462.482 29.0315 463.042 28.1115ZM493.261 34.3515H481.461V30.0715H491.301V28.1915H481.441V27.1115H492.581V31.0915H482.721V33.2515H493.261V34.3515ZM489.481 24.9515C488.241 25.1249 486.567 25.2715 484.461 25.3915C482.367 25.4982 480.507 25.5582 478.881 25.5715L478.661 24.4115C479.701 24.4115 480.487 24.4049 481.021 24.3915L480.561 20.2715L481.861 20.0915L482.181 24.3715C484.021 24.3049 485.001 24.2649 485.121 24.2515L485.481 20.0315L486.761 20.2115L486.301 24.1915C487.807 24.0982 488.827 24.0049 489.361 23.9115L489.481 24.9515ZM492.561 26.2715H491.281V16.9915H492.561V26.2715ZM488.401 19.2315H479.121V18.1515H488.401V19.2315ZM507.925 19.4515C509.045 20.2649 509.605 21.3449 509.605 22.6915C509.605 24.0382 509.045 25.1182 507.925 25.9315C506.805 26.7449 505.325 27.1515 503.485 27.1515C501.659 27.1515 500.185 26.7449 499.065 25.9315C497.959 25.1182 497.405 24.0382 497.405 22.6915C497.405 21.3449 497.959 20.2649 499.065 19.4515C500.185 18.6249 501.659 18.2115 503.485 18.2115C505.339 18.2115 506.819 18.6249 507.925 19.4515ZM507.005 25.1315C507.899 24.5182 508.345 23.7049 508.345 22.6915C508.345 21.6782 507.899 20.8715 507.005 20.2715C506.125 19.6582 504.952 19.3515 503.485 19.3515C502.032 19.3515 500.865 19.6582 499.985 20.2715C499.105 20.8715 498.665 21.6782 498.665 22.6915C498.665 23.7049 499.105 24.5182 499.985 25.1315C500.865 25.7315 502.032 26.0315 503.485 26.0315C504.952 26.0315 506.125 25.7315 507.005 25.1315ZM511.405 32.2315H495.625V31.1315H499.665V27.5715H500.945V31.1315H506.045V27.5715H507.325V31.1315H511.405V32.2315ZM528.71 32.2315H512.93V31.1315H520.15V27.8915H515.03V22.4915H525.33V19.5315H515.03V18.4515H526.61V23.5715H516.31V26.8115H527.07V27.8915H521.43V31.1315H528.71V32.2315ZM551.769 25.5315H548.849V34.4715H547.569V16.9915H548.849V24.4315H551.769V25.5315ZM543.009 19.4115H537.949V18.2715H543.009V19.4115ZM545.649 22.3115H535.429V21.2315H545.649V22.3115ZM544.709 27.1515C544.709 28.1649 544.335 29.0115 543.589 29.6915C542.842 30.3582 541.875 30.6915 540.689 30.6915C539.502 30.6915 538.529 30.3582 537.769 29.6915C537.022 29.0115 536.649 28.1649 536.649 27.1515C536.649 26.1249 537.022 25.2715 537.769 24.5915C538.515 23.9115 539.489 23.5715 540.689 23.5715C541.875 23.5715 542.842 23.9115 543.589 24.5915C544.335 25.2715 544.709 26.1249 544.709 27.1515ZM542.649 28.9315C543.169 28.4649 543.429 27.8715 543.429 27.1515C543.429 26.4315 543.169 25.8382 542.649 25.3715C542.129 24.9049 541.475 24.6715 540.689 24.6715C539.902 24.6715 539.249 24.9049 538.729 25.3715C538.209 25.8382 537.949 26.4315 537.949 27.1515C537.949 27.8715 538.209 28.4649 538.729 28.9315C539.249 29.3982 539.902 29.6315 540.689 29.6315C541.475 29.6315 542.129 29.3982 542.649 28.9315ZM568.573 27.2315H552.793V26.1315H568.573V27.2315ZM566.733 34.0315H554.993V28.9515H556.253V32.9315H566.733V34.0315ZM566.673 23.6515H555.013V17.5915H556.273V22.5515H566.673V23.6515ZM591.132 32.2315H575.352V31.1315H582.572V26.6715H577.312V18.5515H589.152V26.6715H583.852V31.1315H591.132V32.2315ZM587.872 25.5915V19.6515H578.592V25.5915H587.872ZM606.516 33.8915H594.756V29.1315H596.036V32.8115H606.516V33.8915ZM608.436 27.5115H592.656V26.4115H608.436V27.5115ZM606.516 23.8915H594.716V17.9115H606.336V19.0115H595.996V22.8115H606.516V23.8915ZM629.455 34.4715H628.175V24.4315H624.035V23.3515H628.175V16.9915H629.455V34.4715ZM625.635 29.1715L624.815 30.1515C623.922 29.5515 623.062 28.7449 622.235 27.7315C621.408 26.7182 620.822 25.6849 620.475 24.6315C620.168 25.7249 619.622 26.7915 618.835 27.8315C618.062 28.8582 617.135 29.7849 616.055 30.6115L615.175 29.6515C616.455 28.8782 617.548 27.7649 618.455 26.3115C619.362 24.8449 619.815 23.3849 619.815 21.9315V18.5115H621.135V21.9115C621.135 23.3915 621.575 24.7982 622.455 26.1315C623.335 27.4649 624.395 28.4782 625.635 29.1715ZM646.74 34.4715H645.46V16.9915H646.74V34.4715ZM641.68 30.0315H633.62V18.5715H634.9V23.0115H640.4V18.5715H641.68V30.0315ZM640.4 28.9315V24.1115H634.9V28.9315H640.4ZM664.924 26.0315L664.204 27.0715C662.724 26.5915 661.351 25.8315 660.084 24.7915C658.818 23.7382 658.018 22.7782 657.684 21.9115C657.404 22.7915 656.644 23.7515 655.404 24.7915C654.164 25.8315 652.771 26.5782 651.224 27.0315L650.524 25.9915C651.498 25.7915 652.478 25.3849 653.464 24.7715C654.464 24.1582 655.311 23.3982 656.004 22.4915C656.698 21.5849 657.044 20.6915 657.044 19.8115V18.5715H658.364V19.8115C658.364 21.1049 659.084 22.3782 660.524 23.6315C661.964 24.8715 663.431 25.6715 664.924 26.0315ZM665.604 32.0315H649.824V30.9515H665.604V32.0315ZM682.909 26.2915H667.129V25.2715H682.909V26.2915ZM681.509 34.0915H669.109V30.3515H679.629V28.8515H669.069V27.8315H680.909V31.3315H670.389V32.9915H681.509V34.0915ZM681.109 23.6915H669.249V20.1515H679.529V18.6515H669.229V17.5915H680.809V21.1715H670.529V22.6515H681.109V23.6915ZM698.508 29.3915L697.648 30.3315C696.954 29.8249 696.248 29.1049 695.528 28.1715C694.821 27.2249 694.341 26.2982 694.088 25.3915C693.941 26.3649 693.521 27.3249 692.828 28.2715C692.134 29.2182 691.308 30.0515 690.348 30.7715L689.468 29.8315C690.534 29.1649 691.468 28.1715 692.268 26.8515C693.068 25.5182 693.468 24.0782 693.468 22.5315V20.2315H689.988V19.1315H698.048V20.2315H694.728V22.4715C694.728 24.0449 695.094 25.4182 695.828 26.5915C696.574 27.7649 697.468 28.6982 698.508 29.3915ZM700.948 33.5515H699.668V24.4915H696.808V23.4115H699.668V17.4315H700.948V33.5515ZM704.408 34.4715H703.128V16.9915H704.408V34.4715ZM719.392 28.8115C720.432 29.3715 720.952 30.1582 720.952 31.1715C720.952 32.1849 720.432 32.9715 719.392 33.5315C718.352 34.0915 716.852 34.3715 714.892 34.3715C712.946 34.3715 711.446 34.0915 710.392 33.5315C709.352 32.9715 708.832 32.1849 708.832 31.1715C708.832 30.1582 709.352 29.3715 710.392 28.8115C711.446 28.2515 712.946 27.9715 714.892 27.9715C716.852 27.9715 718.352 28.2515 719.392 28.8115ZM718.352 29.5915C717.512 29.2182 716.359 29.0315 714.892 29.0315C713.426 29.0315 712.266 29.2182 711.412 29.5915C710.572 29.9649 710.152 30.4915 710.152 31.1715C710.152 31.8649 710.572 32.3982 711.412 32.7715C712.252 33.1315 713.412 33.3115 714.892 33.3115C716.372 33.3115 717.532 33.1315 718.372 32.7715C719.212 32.3982 719.632 31.8649 719.632 31.1715C719.632 30.4915 719.206 29.9649 718.352 29.5915ZM722.772 26.2915H706.992V25.1915H713.732V21.5915H715.012V25.1915H722.772V26.2915ZM720.752 17.9915V19.6315C720.752 21.1782 720.579 22.6315 720.232 23.9915L718.972 23.8115C719.266 22.7449 719.412 21.6115 719.412 20.4115L719.432 19.0915H708.972V17.9915H720.752ZM740.577 25.5315H737.657V34.4715H736.377V16.9915H737.657V24.4315H740.577V25.5315ZM731.817 19.4115H726.757V18.2715H731.817V19.4115ZM734.457 22.3115H724.237V21.2315H734.457V22.3115ZM733.517 27.1515C733.517 28.1649 733.144 29.0115 732.397 29.6915C731.65 30.3582 730.684 30.6915 729.497 30.6915C728.31 30.6915 727.337 30.3582 726.577 29.6915C725.83 29.0115 725.457 28.1649 725.457 27.1515C725.457 26.1249 725.83 25.2715 726.577 24.5915C727.324 23.9115 728.297 23.5715 729.497 23.5715C730.684 23.5715 731.65 23.9115 732.397 24.5915C733.144 25.2715 733.517 26.1249 733.517 27.1515ZM731.457 28.9315C731.977 28.4649 732.237 27.8715 732.237 27.1515C732.237 26.4315 731.977 25.8382 731.457 25.3715C730.937 24.9049 730.284 24.6715 729.497 24.6715C728.71 24.6715 728.057 24.9049 727.537 25.3715C727.017 25.8382 726.757 26.4315 726.757 27.1515C726.757 27.8715 727.017 28.4649 727.537 28.9315C728.057 29.3982 728.71 29.6315 729.497 29.6315C730.284 29.6315 730.937 29.3982 731.457 28.9315ZM757.382 27.2315H741.602V26.1315H757.382V27.2315ZM755.542 34.0315H743.802V28.9515H745.062V32.9315H755.542V34.0315ZM755.482 23.6515H743.822V17.5915H745.082V22.5515H755.482V23.6515ZM774.92 29.1115L774.08 30.0715C773.12 29.4182 772.207 28.6049 771.34 27.6315C770.474 26.6582 769.894 25.6715 769.6 24.6715C769.307 25.7782 768.754 26.8515 767.94 27.8915C767.127 28.9182 766.187 29.8115 765.12 30.5715L764.28 29.5915C765.587 28.7915 766.687 27.7049 767.58 26.3315C768.474 24.9449 768.92 23.4915 768.92 21.9715V19.9315H764.8V18.8315H774.44V19.9315H770.24V21.9315C770.24 23.4115 770.7 24.8115 771.62 26.1315C772.554 27.4515 773.654 28.4449 774.92 29.1115ZM777.12 16.9915H778.4V34.4715H777.12V16.9915ZM786.105 17.9915C787.318 17.9915 788.345 18.3649 789.185 19.1115C790.038 19.8582 790.465 20.8382 790.465 22.0515C790.465 23.2649 790.038 24.2515 789.185 25.0115C788.345 25.7582 787.318 26.1315 786.105 26.1315C784.878 26.1315 783.845 25.7582 783.005 25.0115C782.165 24.2649 781.745 23.2849 781.745 22.0715C781.745 20.8582 782.165 19.8782 783.005 19.1315C783.845 18.3715 784.878 17.9915 786.105 17.9915ZM786.105 19.0915C785.212 19.0915 784.478 19.3715 783.905 19.9315C783.332 20.4782 783.045 21.1849 783.045 22.0515C783.045 22.9182 783.332 23.6315 783.905 24.1915C784.492 24.7515 785.225 25.0315 786.105 25.0315C787.025 25.0315 787.765 24.7582 788.325 24.2115C788.885 23.6649 789.165 22.9515 789.165 22.0715C789.165 21.1915 788.885 20.4782 788.325 19.9315C787.765 19.3715 787.025 19.0915 786.105 19.0915ZM790.985 20.4715V19.4115H794.425V16.9915H795.705V27.3315H794.425V24.5715H790.985V23.5115H794.425V20.4715H790.985ZM784.125 28.2315H795.705V34.4915H794.425V29.3315H784.125V28.2315ZM815.05 25.2315H812.13V34.4715H810.85V16.9915H812.13V24.1315H815.05V25.2315ZM809.05 29.1715L808.19 30.1915C807.27 29.5382 806.376 28.7115 805.51 27.7115C804.643 26.6982 804.05 25.6849 803.73 24.6715C803.423 25.7515 802.87 26.8115 802.07 27.8515C801.283 28.8782 800.343 29.8115 799.25 30.6515L798.37 29.6515C799.65 28.8649 800.75 27.7449 801.67 26.2915C802.603 24.8382 803.07 23.3849 803.07 21.9315V18.6315H804.39V21.9115C804.39 23.3915 804.85 24.7982 805.77 26.1315C806.69 27.4515 807.783 28.4649 809.05 29.1715ZM827.934 30.9115C826.681 31.0715 824.601 31.2449 821.694 31.4315C819.574 31.5649 817.814 31.6382 816.414 31.6515L816.194 30.4915C817.448 30.4915 819.121 30.4382 821.214 30.3315V28.3915C820.161 28.2982 819.321 28.0049 818.694 27.5115C818.068 27.0049 817.754 26.3582 817.754 25.5715C817.754 24.6915 818.128 23.9982 818.874 23.4915C819.621 22.9849 820.601 22.7315 821.814 22.7315C823.041 22.7315 824.021 22.9849 824.754 23.4915C825.488 23.9849 825.854 24.6782 825.854 25.5715C825.854 26.3582 825.548 26.9982 824.934 27.4915C824.334 27.9849 823.508 28.2849 822.454 28.3915V30.2715C825.401 30.0715 827.188 29.9249 827.814 29.8315L827.934 30.9115ZM830.294 34.4715H829.014V16.9915H830.294V34.4715ZM824.554 25.5715C824.554 25.0249 824.301 24.5915 823.794 24.2715C823.301 23.9515 822.641 23.7915 821.814 23.7915C821.001 23.7915 820.341 23.9515 819.834 24.2715C819.328 24.5915 819.074 25.0249 819.074 25.5715C819.074 26.1049 819.328 26.5382 819.834 26.8715C820.341 27.1915 821.001 27.3515 821.814 27.3515C822.628 27.3515 823.288 27.1915 823.794 26.8715C824.301 26.5382 824.554 26.1049 824.554 25.5715ZM827.174 21.6915H816.694V20.5515H827.174V21.6915ZM824.354 19.2715H819.334V18.1115H824.354V19.2715ZM847.079 24.4915H841.899V26.3915H849.159V27.4915H833.379V26.3915H840.619V24.4915H835.499V17.9515H846.959V19.0515H836.779V20.6315H846.419V21.6515H836.779V23.4115H847.079V24.4915ZM847.259 31.4515C847.259 32.4249 846.739 33.1715 845.699 33.6915C844.659 34.2115 843.179 34.4715 841.259 34.4715C839.352 34.4715 837.879 34.2049 836.839 33.6715C835.799 33.1515 835.279 32.4115 835.279 31.4515C835.279 30.5049 835.799 29.7649 836.839 29.2315C837.892 28.6982 839.366 28.4315 841.259 28.4315C843.192 28.4315 844.672 28.6915 845.699 29.2115C846.739 29.7182 847.259 30.4649 847.259 31.4515ZM841.259 29.5115C839.819 29.5115 838.679 29.6849 837.839 30.0315C837.012 30.3782 836.599 30.8515 836.599 31.4515C836.599 32.0649 837.012 32.5449 837.839 32.8915C838.666 33.2249 839.806 33.3915 841.259 33.3915C842.726 33.3915 843.872 33.2249 844.699 32.8915C845.526 32.5449 845.939 32.0649 845.939 31.4515C845.939 30.8515 845.519 30.3782 844.679 30.0315C843.852 29.6849 842.712 29.5115 841.259 29.5115ZM866.764 23.2515H864.044V27.1715H862.764V16.9915H864.044V22.1715H866.764V23.2515ZM864.044 34.2315H853.164V27.9915H854.444V29.8715H862.764V27.9915H864.044V34.2315ZM862.764 33.1515V30.9715H854.444V33.1515H862.764ZM858.104 18.4115H853.124V17.2715H858.104V18.4115ZM860.604 20.7315H850.624V19.6515H860.604V20.7315ZM859.484 24.4715C859.484 25.3382 859.117 26.0382 858.384 26.5715C857.65 27.0915 856.71 27.3515 855.564 27.3515C854.417 27.3515 853.477 27.0915 852.744 26.5715C852.01 26.0515 851.644 25.3515 851.644 24.4715C851.644 23.5915 852.01 22.8915 852.744 22.3715C853.477 21.8515 854.417 21.5915 855.564 21.5915C856.71 21.5915 857.65 21.8515 858.384 22.3715C859.117 22.8915 859.484 23.5915 859.484 24.4715ZM857.444 25.7915C857.964 25.4582 858.224 25.0182 858.224 24.4715C858.224 23.9249 857.964 23.4915 857.444 23.1715C856.937 22.8382 856.31 22.6715 855.564 22.6715C854.817 22.6715 854.184 22.8382 853.664 23.1715C853.157 23.4915 852.904 23.9249 852.904 24.4715C852.904 25.0182 853.164 25.4582 853.684 25.7915C854.204 26.1249 854.83 26.2915 855.564 26.2915C856.297 26.2915 856.924 26.1249 857.444 25.7915ZM881.669 23.0715H876.509V24.9515H883.769V25.9915H867.989V24.9515H875.229V23.0715H870.049V17.7915H881.669V18.8715H871.329V21.9715H881.669V23.0715ZM882.369 34.1315H870.049V30.2915H880.409V28.6315H869.929V27.5515H881.689V31.3115H871.329V33.0315H882.369V34.1315ZM898.993 23.7715H893.793V25.9315H901.073V27.0115H885.293V25.9315H892.513V23.7715H887.393V17.3115H888.673V19.5515H897.713V17.3115H898.993V23.7715ZM899.033 34.2115H887.333V28.6315H899.033V34.2115ZM897.753 33.1315V29.7315H888.613V33.1315H897.753ZM897.713 22.6715V20.6515H888.673V22.6715H897.713ZM303.752 72.4715H302.472V62.4315H298.332V61.3515H302.472V54.9915H303.752V72.4715ZM299.932 67.1715L299.112 68.1515C298.219 67.5515 297.359 66.7449 296.532 65.7315C295.705 64.7182 295.119 63.6849 294.772 62.6315C294.465 63.7249 293.919 64.7915 293.132 65.8315C292.359 66.8582 291.432 67.7849 290.352 68.6115L289.472 67.6515C290.752 66.8782 291.845 65.7649 292.752 64.3115C293.659 62.8449 294.112 61.3849 294.112 59.9315V56.5115H295.432V59.9115C295.432 61.3915 295.872 62.7982 296.752 64.1315C297.632 65.4649 298.692 66.4782 299.932 67.1715ZM321.037 72.4715H319.757V54.9915H321.037V72.4715ZM315.977 68.0315H307.917V56.5715H309.197V61.0115H314.697V56.5715H315.977V68.0315ZM314.697 66.9315V62.1115H309.197V66.9315H314.697ZM339.221 64.0315L338.501 65.0715C337.021 64.5915 335.648 63.8315 334.381 62.7915C333.115 61.7382 332.315 60.7782 331.981 59.9115C331.701 60.7915 330.941 61.7515 329.701 62.7915C328.461 63.8315 327.068 64.5782 325.521 65.0315L324.821 63.9915C325.795 63.7915 326.775 63.3849 327.761 62.7715C328.761 62.1582 329.608 61.3982 330.301 60.4915C330.995 59.5849 331.341 58.6915 331.341 57.8115V56.5715H332.661V57.8115C332.661 59.1049 333.381 60.3782 334.821 61.6315C336.261 62.8715 337.728 63.6715 339.221 64.0315ZM339.901 70.0315H324.121V68.9515H339.901V70.0315ZM355.666 64.3515H354.386V54.9915H355.666V64.3515ZM355.686 72.2315H344.466V65.3315H345.746V67.7115H354.406V65.3315H355.686V72.2315ZM354.406 71.1715V68.7715H345.746V71.1715H354.406ZM346.346 55.8715C347.559 55.8715 348.586 56.2382 349.426 56.9715C350.279 57.7049 350.706 58.6582 350.706 59.8315C350.706 61.0049 350.279 61.9582 349.426 62.6915C348.586 63.4249 347.559 63.7915 346.346 63.7915C345.119 63.7915 344.086 63.4315 343.246 62.7115C342.406 61.9782 341.986 61.0249 341.986 59.8515C341.986 58.6649 342.406 57.7049 343.246 56.9715C344.086 56.2382 345.119 55.8715 346.346 55.8715ZM346.346 57.0315C345.453 57.0315 344.713 57.2915 344.126 57.8115C343.553 58.3182 343.266 58.9915 343.266 59.8315C343.266 60.6582 343.559 61.3382 344.146 61.8715C344.733 62.3915 345.466 62.6515 346.346 62.6515C347.266 62.6515 348.006 62.3915 348.566 61.8715C349.126 61.3515 349.406 60.6782 349.406 59.8515C349.406 59.0115 349.126 58.3315 348.566 57.8115C348.006 57.2915 347.266 57.0315 346.346 57.0315ZM372.791 72.4715H371.511V54.9915H372.791V72.4715ZM369.911 67.1915C368.751 67.4449 367.197 67.6582 365.251 67.8315C363.317 67.9915 361.524 68.0715 359.871 68.0715V56.7915H361.151V66.9315C362.324 66.9315 363.791 66.8515 365.551 66.6915C367.311 66.5315 368.704 66.3382 369.731 66.1115L369.911 67.1915ZM392.315 63.1115H389.395V72.4715H388.115V54.9915H389.395V62.0315H392.315V63.1115ZM386.675 67.4715C383.822 67.9915 380.542 68.1915 376.835 68.0715V56.8115H384.975V57.9115H378.115V66.9315C379.382 66.9982 380.849 66.9782 382.515 66.8715C384.195 66.7515 385.522 66.5849 386.495 66.3715L386.675 67.4715ZM393.44 70.6315V68.9515H395.1V70.6315H393.44ZM416.532 63.2715H404.932V55.7115H406.212V58.3915H415.252V55.7115H416.532V63.2715ZM411.332 72.4915H410.052V66.5315H402.832V65.4515H418.612V66.5315H411.332V72.4915ZM415.252 62.1715V59.4915H406.212V62.1715H415.252ZM435.917 70.2315H420.137V69.1315H427.357V64.6715H422.097V56.5515H433.937V64.6715H428.637V69.1315H435.917V70.2315ZM432.657 63.5915V57.6515H423.377V63.5915H432.657ZM451.702 72.2115H440.402V65.8115H451.702V72.2115ZM450.422 71.1315V66.8915H441.682V71.1315H450.422ZM450.402 54.9915H451.682V64.6715H450.402V54.9915ZM448.722 62.4915C447.522 62.7315 445.902 62.9382 443.862 63.1115C441.835 63.2849 440.028 63.3715 438.442 63.3715V56.0515H439.722V62.2115C440.962 62.2115 442.468 62.1382 444.242 61.9915C446.015 61.8315 447.435 61.6315 448.502 61.3915L448.722 62.4915ZM468.966 72.4715H467.686V54.9915H468.966V72.4715ZM455.566 62.4915C455.566 60.6115 455.94 59.1249 456.686 58.0315C457.433 56.9249 458.48 56.3715 459.826 56.3715C461.186 56.3715 462.24 56.9249 462.986 58.0315C463.733 59.1249 464.106 60.6182 464.106 62.5115C464.106 64.3915 463.733 65.8849 462.986 66.9915C462.24 68.0982 461.186 68.6515 459.826 68.6515C458.48 68.6515 457.433 68.0982 456.686 66.9915C455.94 65.8849 455.566 64.3849 455.566 62.4915ZM462.026 66.1115C462.586 65.1782 462.866 63.9782 462.866 62.5115C462.866 61.0449 462.586 59.8449 462.026 58.9115C461.466 57.9782 460.733 57.5115 459.826 57.5115C458.92 57.5115 458.193 57.9782 457.646 58.9115C457.1 59.8315 456.826 61.0315 456.826 62.5115C456.826 63.9782 457.1 65.1782 457.646 66.1115C458.193 67.0315 458.92 67.4915 459.826 67.4915C460.733 67.4915 461.466 67.0315 462.026 66.1115ZM493.385 60.2315H490.665V63.9915H489.385V54.9915H490.665V59.1515H493.385V60.2315ZM491.345 72.3515H479.805V68.0315H489.385V66.0515H479.705V64.9515H490.665V69.0315H481.085V71.2515H491.345V72.3515ZM487.145 62.4115L486.405 63.4315C485.498 63.0315 484.652 62.4982 483.865 61.8315C483.092 61.1649 482.505 60.3715 482.105 59.4515C481.558 61.2515 480.098 62.7582 477.725 63.9715L476.945 62.9915C478.185 62.4849 479.238 61.7382 480.105 60.7515C480.972 59.7515 481.405 58.5915 481.405 57.2715V55.7515H482.685V57.2315C482.685 57.8982 482.832 58.5382 483.125 59.1515C483.418 59.7515 483.798 60.2649 484.265 60.6915C484.732 61.1049 485.205 61.4582 485.685 61.7515C486.165 62.0315 486.652 62.2515 487.145 62.4115ZM504.89 64.5515C502.263 65.0049 499.136 65.2315 495.51 65.2315V56.6515H503.61V57.7315H496.79V64.0715C499.963 64.0715 502.596 63.8449 504.69 63.3915L504.89 64.5515ZM508.85 67.7515H507.57V60.9715H502.43V59.8915H507.57V54.9915H508.85V67.7515ZM509.39 71.8515H497.75V66.5915H499.01V70.7715H509.39V71.8515ZM532.948 64.3715H517.168V63.2915H523.968V59.8515H525.248V63.2915H532.948V64.3715ZM531.788 71.3315L531.168 72.4115C529.862 72.1849 528.615 71.6915 527.428 70.9315C526.242 70.1582 525.415 69.3249 524.948 68.4315C524.548 69.3382 523.755 70.1582 522.568 70.8915C521.395 71.6249 520.162 72.1115 518.868 72.3515L518.228 71.2915C519.815 71.1449 521.228 70.5849 522.468 69.6115C523.708 68.6382 524.328 67.6449 524.328 66.6315V65.8115H525.648V66.6315C525.648 67.6182 526.302 68.6182 527.608 69.6315C528.915 70.6315 530.308 71.1982 531.788 71.3315ZM530.868 55.8915V57.4715C530.868 59.3249 530.695 60.8382 530.348 62.0115L529.088 61.8315C529.382 60.8982 529.528 59.7582 529.528 58.4115V56.9915H519.088V55.8915H530.868ZM538.553 56.6115C539.66 56.6115 540.526 57.0915 541.153 58.0515C541.793 58.9982 542.146 60.3049 542.213 61.9715H544.513V55.3315H545.793V71.6115H544.513V63.0515H542.213C542.146 64.7049 541.793 66.0049 541.153 66.9515C540.513 67.8849 539.646 68.3515 538.553 68.3515C537.38 68.3515 536.466 67.8315 535.813 66.7915C535.173 65.7382 534.853 64.2982 534.853 62.4715C534.853 60.6449 535.173 59.2115 535.813 58.1715C536.466 57.1315 537.38 56.6115 538.553 56.6115ZM540.293 65.9715C540.72 65.1182 540.933 63.9515 540.933 62.4715C540.933 60.9915 540.72 59.8315 540.293 58.9915C539.866 58.1515 539.286 57.7315 538.553 57.7315C537.806 57.7315 537.22 58.1515 536.793 58.9915C536.366 59.8315 536.153 60.9915 536.153 62.4715C536.153 63.9515 536.366 65.1182 536.793 65.9715C537.22 66.8115 537.806 67.2315 538.553 67.2315C539.286 67.2315 539.866 66.8115 540.293 65.9715ZM549.193 72.4715H547.913V54.9915H549.193V72.4715ZM566.018 72.4715H564.738V62.4315H560.598V61.3515H564.738V54.9915H566.018V72.4715ZM562.198 67.1715L561.378 68.1515C560.484 67.5515 559.624 66.7449 558.798 65.7315C557.971 64.7182 557.384 63.6849 557.038 62.6315C556.731 63.7249 556.184 64.7915 555.398 65.8315C554.624 66.8582 553.698 67.7849 552.618 68.6115L551.738 67.6515C553.018 66.8782 554.111 65.7649 555.018 64.3115C555.924 62.8449 556.378 61.3849 556.378 59.9315V56.5115H557.698V59.9115C557.698 61.3915 558.138 62.7982 559.018 64.1315C559.898 65.4649 560.958 66.4782 562.198 67.1715ZM568.622 72.8315L569.402 68.9315H571.022L569.562 72.8315H568.622ZM588.614 65.0515C586.041 65.3849 582.828 65.5515 578.974 65.5515L578.774 64.3715H581.074L580.534 58.8515L581.814 58.6715L582.234 64.3515L584.894 64.2915L585.414 58.6315L586.694 58.7915L586.074 64.2515C587.074 64.1849 587.881 64.1049 588.494 64.0115L588.614 65.0515ZM588.414 59.4915V58.3915H591.534V54.9915H592.814V67.6915H591.534V63.0115H588.414V61.9115H591.534V59.4915H588.414ZM593.174 71.8515H581.634V66.6915H582.914V70.7715H593.174V71.8515ZM588.274 57.6315H579.214V56.5515H588.274V57.6315ZM611.959 61.3515H609.239V67.6915H607.959V54.9915H609.239V60.2515H611.959V61.3515ZM609.959 71.8515H598.399V66.4915H599.679V70.7715H609.959V71.8515ZM597.499 57.4915C598.366 56.6782 599.426 56.2715 600.679 56.2715C601.932 56.2715 602.999 56.6782 603.879 57.4915C604.759 58.2915 605.199 59.3315 605.199 60.6115C605.199 61.9182 604.759 62.9782 603.879 63.7915C603.012 64.5915 601.952 64.9915 600.699 64.9915C599.432 64.9915 598.366 64.5915 597.499 63.7915C596.632 62.9915 596.199 61.9449 596.199 60.6515C596.199 59.3582 596.632 58.3049 597.499 57.4915ZM600.679 57.4115C599.759 57.4115 598.992 57.7049 598.379 58.2915C597.779 58.8782 597.479 59.6515 597.479 60.6115C597.479 61.5715 597.786 62.3515 598.399 62.9515C599.012 63.5515 599.779 63.8515 600.699 63.8515C601.659 63.8515 602.432 63.5582 603.019 62.9715C603.619 62.3849 603.919 61.6115 603.919 60.6515C603.919 59.6782 603.619 58.8982 603.019 58.3115C602.432 57.7115 601.652 57.4115 600.679 57.4115ZM629.264 62.2115H626.544V67.7715H625.264V54.9915H626.544V61.1315H629.264V62.2115ZM627.304 71.8515H615.724V67.4715H617.004V70.7715H627.304V71.8515ZM620.604 56.9115H615.624V55.8115H620.604V56.9115ZM623.144 59.4515H613.124V58.3515H623.144V59.4515ZM622.124 63.4515C622.124 64.3582 621.744 65.0915 620.984 65.6515C620.237 66.2115 619.284 66.4915 618.124 66.4915C616.964 66.4915 616.004 66.2182 615.244 65.6715C614.497 65.1115 614.124 64.3715 614.124 63.4515C614.124 62.5182 614.497 61.7849 615.244 61.2515C615.99 60.7049 616.95 60.4315 618.124 60.4315C619.297 60.4315 620.257 60.7049 621.004 61.2515C621.75 61.7849 622.124 62.5182 622.124 63.4515ZM620.864 63.4515C620.864 62.8515 620.597 62.3782 620.064 62.0315C619.53 61.6849 618.884 61.5115 618.124 61.5115C617.35 61.5115 616.697 61.6849 616.164 62.0315C615.644 62.3782 615.384 62.8515 615.384 63.4515C615.384 64.0382 615.644 64.5115 616.164 64.8715C616.697 65.2182 617.35 65.3915 618.124 65.3915C618.884 65.3915 619.53 65.2182 620.064 64.8715C620.597 64.5115 620.864 64.0382 620.864 63.4515ZM649.622 64.3515H644.242V69.0115H651.522V70.0915H635.742V69.0115H642.962V64.3515H637.782V56.5715H639.062V63.2715H649.622V64.3515ZM664.687 60.4715C665.634 60.9115 666.107 61.5782 666.107 62.4715C666.107 63.3649 665.634 64.0382 664.687 64.4915C663.74 64.9315 662.494 65.1515 660.947 65.1515C659.414 65.1515 658.174 64.9315 657.227 64.4915C656.28 64.0382 655.807 63.3649 655.807 62.4715C655.807 61.5782 656.28 60.9115 657.227 60.4715C658.174 60.0315 659.414 59.8115 660.947 59.8115C662.507 59.8115 663.754 60.0315 664.687 60.4715ZM661.567 72.4915H660.287V67.2915H653.047V66.1915H668.827V67.2915H661.567V72.4915ZM664.767 62.4715C664.767 61.9249 664.38 61.5315 663.607 61.2915C662.834 61.0382 661.947 60.9115 660.947 60.9115C659.96 60.9115 659.08 61.0382 658.307 61.2915C657.534 61.5315 657.147 61.9249 657.147 62.4715C657.147 63.0049 657.534 63.3982 658.307 63.6515C659.08 63.8915 659.96 64.0115 660.947 64.0115C661.947 64.0115 662.834 63.8915 663.607 63.6515C664.38 63.3982 664.767 63.0049 664.767 62.4715ZM667.867 58.9515H654.047V57.8515H667.867V58.9515ZM663.807 56.4515H658.087V55.3115H663.807V56.4515ZM686.132 64.2915H670.352V63.2715H686.132V64.2915ZM684.732 72.0915H672.332V68.3515H682.852V66.8515H672.292V65.8315H684.132V69.3315H673.612V70.9915H684.732V72.0915ZM684.332 61.6915H672.472V58.1515H682.752V56.6515H672.452V55.5915H684.032V59.1715H673.752V60.6515H684.332V61.6915ZM706.59 65.3115H701.41V69.1315H708.69V70.2315H692.91V69.1315H700.13V65.3115H695.01V56.3715H696.29V59.6115H705.31V56.3715H706.59V65.3115ZM705.31 64.2315V60.7115H696.29V64.2315H705.31ZM725.595 72.3515H713.575V68.1315H723.635V66.0515H713.435V64.9515H724.915V69.1515H714.855V71.2515H725.595V72.3515ZM724.915 64.0115H723.635V60.0715H721.075V63.8515H719.815V55.3115H721.075V58.9715H723.635V54.9915H724.915V64.0115ZM718.655 62.2515C716.762 62.6649 714.282 62.8715 711.215 62.8715V56.0115H712.495V61.7315C713.415 61.7315 714.475 61.6782 715.675 61.5715C716.875 61.4515 717.788 61.3115 718.415 61.1515L718.655 62.2515ZM741.274 72.4915H739.994V66.0315H732.774V64.9315H748.554V66.0315H741.274V72.4915ZM747.754 61.7915L747.054 62.8515C745.707 62.5582 744.414 62.0115 743.174 61.2115C741.947 60.3982 741.107 59.5182 740.654 58.5715C740.227 59.5182 739.394 60.4049 738.154 61.2315C736.927 62.0582 735.64 62.6115 734.294 62.8915L733.594 61.8315C735.274 61.6049 736.76 60.9915 738.054 59.9915C739.347 58.9782 739.994 57.9115 739.994 56.7915V55.7715H741.314V56.7915C741.314 57.8849 742.007 58.9515 743.394 59.9915C744.794 61.0315 746.247 61.6315 747.754 61.7915ZM769.572 65.1515H768.292V54.9915H769.572V65.1515ZM757.072 57.1715C757.926 56.4249 758.972 56.0515 760.212 56.0515C761.452 56.0515 762.499 56.4249 763.352 57.1715C764.219 57.9049 764.652 58.8649 764.652 60.0515C764.652 61.2382 764.219 62.2049 763.352 62.9515C762.499 63.6982 761.452 64.0715 760.212 64.0715C758.972 64.0715 757.926 63.7049 757.072 62.9715C756.219 62.2249 755.792 61.2582 755.792 60.0715C755.792 58.8849 756.219 57.9182 757.072 57.1715ZM760.212 57.1515C759.319 57.1515 758.572 57.4249 757.972 57.9715C757.386 58.5049 757.092 59.1982 757.092 60.0515C757.092 60.9049 757.392 61.6049 757.992 62.1515C758.592 62.6982 759.332 62.9715 760.212 62.9715C761.146 62.9715 761.899 62.7049 762.472 62.1715C763.046 61.6382 763.332 60.9382 763.332 60.0715C763.332 59.2049 763.046 58.5049 762.472 57.9715C761.899 57.4249 761.146 57.1515 760.212 57.1515ZM770.392 72.4915H770.372C769.719 72.1582 769.059 71.6582 768.392 70.9915C767.739 70.3115 767.299 69.6582 767.072 69.0315C766.846 69.7115 766.399 70.4049 765.732 71.1115C765.066 71.8182 764.372 72.3515 763.652 72.7115L762.852 71.8515C763.839 71.3715 764.679 70.6849 765.372 69.7915C766.079 68.8849 766.432 67.9382 766.432 66.9515V65.7515H767.712V66.8515C767.712 67.8649 768.072 68.8249 768.792 69.7315C769.512 70.6382 770.312 71.2582 771.192 71.5915L770.392 72.4915ZM763.872 70.3915L762.952 71.2915C762.446 71.0115 761.972 70.6515 761.532 70.2115C761.092 69.7582 760.766 69.2715 760.552 68.7515C760.352 69.4182 759.906 70.1249 759.212 70.8715C758.532 71.6049 757.806 72.1582 757.032 72.5315L756.272 71.6115C757.206 71.2249 758.039 70.5782 758.772 69.6715C759.506 68.7649 759.872 67.8115 759.872 66.8115V65.7715H761.152V66.6715C761.152 67.5782 761.412 68.3515 761.932 68.9915C762.452 69.6315 763.099 70.0982 763.872 70.3915ZM788.417 65.2315H772.637V64.1315H788.417V65.2315ZM786.577 72.0315H774.837V66.9515H776.097V70.9315H786.577V72.0315ZM786.517 61.6515H774.857V55.5915H776.117V60.5515H786.517V61.6515ZM809.916 72.4715H808.636V63.1715H806.076V71.5515H804.816V55.4515H806.076V62.0915H808.636V54.9915H809.916V72.4715ZM802.596 57.2115C802.449 62.1182 800.249 65.9582 795.996 68.7315L795.116 67.7515C796.929 66.7115 798.382 65.3382 799.476 63.6315C800.569 61.9115 801.149 60.1382 801.216 58.3115H795.856V57.2115H802.596ZM826.74 67.6915H825.46V54.9915H826.74V67.6915ZM827.2 71.8515H815.4V66.5315H816.68V70.7715H827.2V71.8515ZM814.26 57.3915C815.14 56.6049 816.207 56.2115 817.46 56.2115C818.714 56.2115 819.774 56.5982 820.64 57.3715C821.52 58.1449 821.96 59.1515 821.96 60.3915C821.96 61.6449 821.52 62.6649 820.64 63.4515C819.774 64.2249 818.714 64.6115 817.46 64.6115C816.207 64.6115 815.14 64.2249 814.26 63.4515C813.38 62.6782 812.94 61.6715 812.94 60.4315C812.94 59.1782 813.38 58.1649 814.26 57.3915ZM817.46 57.3515C816.54 57.3515 815.774 57.6382 815.16 58.2115C814.56 58.7715 814.26 59.4982 814.26 60.3915C814.26 61.2982 814.567 62.0449 815.18 62.6315C815.794 63.2049 816.554 63.4915 817.46 63.4915C818.42 63.4915 819.194 63.2115 819.78 62.6515C820.367 62.0915 820.66 61.3515 820.66 60.4315C820.66 59.5115 820.367 58.7715 819.78 58.2115C819.194 57.6382 818.42 57.3515 817.46 57.3515ZM843.859 63.7115H835.759V56.2915H843.859V63.7115ZM842.579 62.6315V57.3915H837.039V62.6315H842.579ZM851.139 60.8115H848.419V65.3915H847.139V54.9915H848.419V59.7115H851.139V60.8115ZM849.699 71.5115L849.019 72.4915C847.765 72.2782 846.545 71.7915 845.359 71.0315C844.185 70.2582 843.439 69.4782 843.119 68.6915C842.759 69.5182 842.025 70.3049 840.919 71.0515C839.812 71.7849 838.579 72.2582 837.219 72.4715L836.519 71.5115C838.025 71.3249 839.339 70.8182 840.459 69.9915C841.592 69.1515 842.239 68.2782 842.399 67.3715H837.419V66.2915H848.699V67.3715H843.839C844.012 68.2382 844.679 69.1049 845.839 69.9715C847.012 70.8382 848.299 71.3515 849.699 71.5115ZM866.144 72.2115H854.384V66.9115H859.604V64.9915H852.364V63.9115H868.144V64.9915H860.884V66.9115H866.144V72.2115ZM867.244 61.9315L866.644 63.0115C865.23 62.7982 863.917 62.4182 862.704 61.8715C861.49 61.3249 860.67 60.6515 860.244 59.8515C859.87 60.6382 859.084 61.3182 857.884 61.8915C856.697 62.4515 855.377 62.8382 853.924 63.0515L853.324 61.9715C854.79 61.8382 856.137 61.4849 857.364 60.9115C858.59 60.3382 859.317 59.6115 859.544 58.7315H854.084V57.6515H866.424V58.7315H860.964C861.204 59.5849 861.957 60.2982 863.224 60.8715C864.49 61.4449 865.83 61.7982 867.244 61.9315ZM864.864 71.1315V68.0115H855.664V71.1315H864.864ZM863.024 56.3515H857.484V55.2515H863.024V56.3515ZM882.468 67.2515C883.455 67.7715 883.948 68.4982 883.948 69.4315C883.948 70.3649 883.455 71.0915 882.468 71.6115C881.495 72.1315 880.068 72.3915 878.188 72.3915C876.322 72.3915 874.902 72.1315 873.928 71.6115C872.968 71.0915 872.488 70.3649 872.488 69.4315C872.488 68.4849 872.968 67.7515 873.928 67.2315C874.902 66.7115 876.322 66.4515 878.188 66.4515C880.068 66.4515 881.495 66.7182 882.468 67.2515ZM878.188 67.5315C876.802 67.5315 875.722 67.6982 874.948 68.0315C874.188 68.3649 873.808 68.8315 873.808 69.4315C873.808 70.0315 874.188 70.4915 874.948 70.8115C875.722 71.1315 876.802 71.2915 878.188 71.2915C879.602 71.2915 880.688 71.1382 881.448 70.8315C882.222 70.5115 882.608 70.0449 882.608 69.4315C882.608 68.8182 882.222 68.3515 881.448 68.0315C880.675 67.6982 879.588 67.5315 878.188 67.5315ZM879.528 60.7715V59.6715H882.628V54.9915H883.908V66.4115H882.628V64.0315H879.528V62.9515H882.628V60.7715H879.528ZM877.188 56.5915H872.188V55.4715H877.188V56.5915ZM879.488 58.9715H869.688V57.8715H879.488V58.9715ZM878.568 62.8315C878.568 63.6982 878.195 64.3982 877.448 64.9315C876.715 65.4515 875.782 65.7115 874.648 65.7115C873.502 65.7115 872.562 65.4515 871.828 64.9315C871.095 64.4115 870.728 63.7115 870.728 62.8315C870.728 61.9515 871.095 61.2515 871.828 60.7315C872.562 60.2115 873.502 59.9515 874.648 59.9515C875.795 59.9515 876.735 60.2115 877.468 60.7315C878.202 61.2515 878.568 61.9515 878.568 62.8315ZM876.528 64.1515C877.035 63.8182 877.288 63.3782 877.288 62.8315C877.288 62.2849 877.035 61.8515 876.528 61.5315C876.022 61.1982 875.395 61.0315 874.648 61.0315C873.902 61.0315 873.268 61.1982 872.748 61.5315C872.242 61.8515 871.988 62.2849 871.988 62.8315C871.988 63.3782 872.248 63.8182 872.768 64.1515C873.288 64.4715 873.915 64.6315 874.648 64.6315C875.395 64.6315 876.022 64.4715 876.528 64.1515ZM303.392 102.352H298.012V107.012H305.292V108.092H289.512V107.012H296.732V102.352H291.552V94.5715H292.832V101.272H303.392V102.352ZM318.457 98.4715C319.403 98.9115 319.877 99.5782 319.877 100.472C319.877 101.365 319.403 102.038 318.457 102.492C317.51 102.932 316.263 103.152 314.717 103.152C313.183 103.152 311.943 102.932 310.997 102.492C310.05 102.038 309.577 101.365 309.577 100.472C309.577 99.5782 310.05 98.9115 310.997 98.4715C311.943 98.0315 313.183 97.8115 314.717 97.8115C316.277 97.8115 317.523 98.0315 318.457 98.4715ZM315.337 110.492H314.057V105.292H306.817V104.192H322.597V105.292H315.337V110.492ZM318.537 100.472C318.537 99.9249 318.15 99.5315 317.377 99.2915C316.603 99.0382 315.717 98.9115 314.717 98.9115C313.73 98.9115 312.85 99.0382 312.077 99.2915C311.303 99.5315 310.917 99.9249 310.917 100.472C310.917 101.005 311.303 101.398 312.077 101.652C312.85 101.892 313.73 102.012 314.717 102.012C315.717 102.012 316.603 101.892 317.377 101.652C318.15 101.398 318.537 101.005 318.537 100.472ZM321.637 96.9515H307.817V95.8515H321.637V96.9515ZM317.577 94.4515H311.857V93.3115H317.577V94.4515ZM334.881 105.112L334.041 106.072C333.081 105.418 332.168 104.605 331.301 103.632C330.435 102.658 329.855 101.672 329.561 100.672C329.268 101.778 328.715 102.852 327.901 103.892C327.088 104.918 326.148 105.812 325.081 106.572L324.241 105.592C325.548 104.792 326.648 103.705 327.541 102.332C328.435 100.945 328.881 99.4915 328.881 97.9715V95.9315H324.761V94.8315H334.401V95.9315H330.201V97.9315C330.201 99.4115 330.661 100.812 331.581 102.132C332.515 103.452 333.615 104.445 334.881 105.112ZM337.081 92.9915H338.361V110.472H337.081V92.9915ZM350.086 94.7115C350.913 95.2849 351.326 96.0649 351.326 97.0515C351.326 98.0382 350.913 98.8115 350.086 99.3715C349.273 99.9182 348.206 100.192 346.886 100.192C345.566 100.192 344.493 99.9182 343.666 99.3715C342.853 98.8115 342.446 98.0382 342.446 97.0515C342.446 96.0649 342.859 95.2849 343.686 94.7115C344.513 94.1382 345.579 93.8515 346.886 93.8515C348.206 93.8515 349.273 94.1382 350.086 94.7115ZM350.026 97.0515C350.026 96.4249 349.733 95.9249 349.146 95.5515C348.573 95.1649 347.819 94.9715 346.886 94.9715C345.953 94.9715 345.193 95.1582 344.606 95.5315C344.033 95.9049 343.746 96.4115 343.746 97.0515C343.746 97.6915 344.033 98.1982 344.606 98.5715C345.193 98.9315 345.953 99.1115 346.886 99.1115C347.819 99.1115 348.573 98.9315 349.146 98.5715C349.733 98.1982 350.026 97.6915 350.026 97.0515ZM355.666 106.352H354.386V104.392H350.866V103.312H354.386V92.9915H355.666V106.352ZM356.046 110.052H343.826V105.052H345.106V108.952H356.046V110.052ZM347.506 105.492H346.226V102.352C345.599 102.378 344.033 102.425 341.526 102.492L341.266 101.352C342.613 101.352 344.553 101.312 347.086 101.232C349.633 101.112 351.466 100.985 352.586 100.852L352.706 101.872C352.133 101.952 350.399 102.092 347.506 102.292V105.492ZM372.971 110.472H371.691V100.432H367.551V99.3515H371.691V92.9915H372.971V110.472ZM369.151 105.172L368.331 106.152C367.437 105.552 366.577 104.745 365.751 103.732C364.924 102.718 364.337 101.685 363.991 100.632C363.684 101.725 363.137 102.792 362.351 103.832C361.577 104.858 360.651 105.785 359.571 106.612L358.691 105.652C359.971 104.878 361.064 103.765 361.971 102.312C362.877 100.845 363.331 99.3849 363.331 97.9315V94.5115H364.651V97.9115C364.651 99.3915 365.091 100.798 365.971 102.132C366.851 103.465 367.911 104.478 369.151 105.172ZM390.255 110.472H388.975V92.9915H390.255V110.472ZM385.195 106.032H377.135V94.5715H378.415V99.0115H383.915V94.5715H385.195V106.032ZM383.915 104.932V100.112H378.415V104.932H383.915ZM408.44 102.032L407.72 103.072C406.24 102.592 404.867 101.832 403.6 100.792C402.333 99.7382 401.533 98.7782 401.2 97.9115C400.92 98.7915 400.16 99.7515 398.92 100.792C397.68 101.832 396.287 102.578 394.74 103.032L394.04 101.992C395.013 101.792 395.993 101.385 396.98 100.772C397.98 100.158 398.827 99.3982 399.52 98.4915C400.213 97.5849 400.56 96.6915 400.56 95.8115V94.5715H401.88V95.8115C401.88 97.1049 402.6 98.3782 404.04 99.6315C405.48 100.872 406.947 101.672 408.44 102.032ZM409.12 108.032H393.34V106.952H409.12V108.032ZM429.579 99.0715H424.419V100.952H431.679V101.992H415.899V100.952H423.139V99.0715H417.959V93.7915H429.579V94.8715H419.239V97.9715H429.579V99.0715ZM430.279 110.132H417.959V106.292H428.319V104.632H417.839V103.552H429.599V107.312H419.239V109.032H430.279V110.132ZM446.903 99.7715H441.703V101.932H448.983V103.012H433.203V101.932H440.423V99.7715H435.303V93.3115H436.583V95.5515H445.623V93.3115H446.903V99.7715ZM446.943 110.212H435.243V104.632H446.943V110.212ZM445.663 109.132V105.732H436.523V109.132H445.663ZM445.623 98.6715V96.6515H436.583V98.6715H445.623ZM465.228 110.472H463.948V101.152H461.348V109.552H460.088V93.4315H461.348V100.072H463.948V92.9915H465.228V110.472ZM458.948 105.392C456.588 105.778 453.995 105.945 451.168 105.892V95.1915H457.728V96.2915H452.448V104.752C454.741 104.792 456.848 104.618 458.768 104.232L458.948 105.392ZM481.433 107.172C481.433 108.185 480.913 108.985 479.873 109.572C478.833 110.158 477.406 110.452 475.593 110.452C473.779 110.452 472.353 110.158 471.313 109.572C470.286 108.998 469.773 108.198 469.773 107.172C469.773 106.145 470.286 105.338 471.313 104.752C472.353 104.165 473.779 103.872 475.593 103.872C477.406 103.872 478.833 104.165 479.873 104.752C480.913 105.338 481.433 106.145 481.433 107.172ZM475.593 104.972C474.206 104.972 473.106 105.165 472.293 105.552C471.493 105.925 471.093 106.465 471.093 107.172C471.093 107.865 471.493 108.405 472.293 108.792C473.106 109.165 474.206 109.352 475.593 109.352C476.993 109.352 478.093 109.165 478.893 108.792C479.706 108.405 480.113 107.865 480.113 107.172C480.113 106.465 479.706 105.925 478.893 105.552C478.093 105.165 476.993 104.972 475.593 104.972ZM468.073 95.4315V94.3515H477.213V95.4315H473.293V96.4115C473.293 97.5182 473.719 98.5582 474.573 99.5315C475.439 100.492 476.433 101.158 477.553 101.532L476.853 102.592C475.959 102.232 475.119 101.678 474.333 100.932C473.546 100.172 472.973 99.3915 472.613 98.5915C472.399 99.3915 471.853 100.225 470.973 101.092C470.106 101.945 469.179 102.598 468.193 103.052L467.473 102.072C468.646 101.605 469.693 100.832 470.613 99.7515C471.546 98.6582 472.013 97.5449 472.013 96.4115V95.4315H468.073ZM483.953 99.1315H481.193V103.632H479.913V92.9915H481.193V98.0315H483.953V99.1315ZM499.357 102.352H498.077V92.9915H499.357V102.352ZM499.377 110.232H488.157V103.332H489.437V105.712H498.097V103.332H499.377V110.232ZM498.097 109.172V106.772H489.437V109.172H498.097ZM490.037 93.8715C491.251 93.8715 492.277 94.2382 493.117 94.9715C493.971 95.7049 494.397 96.6582 494.397 97.8315C494.397 99.0049 493.971 99.9582 493.117 100.692C492.277 101.425 491.251 101.792 490.037 101.792C488.811 101.792 487.777 101.432 486.937 100.712C486.097 99.9782 485.677 99.0249 485.677 97.8515C485.677 96.6649 486.097 95.7049 486.937 94.9715C487.777 94.2382 488.811 93.8715 490.037 93.8715ZM490.037 95.0315C489.144 95.0315 488.404 95.2915 487.817 95.8115C487.244 96.3182 486.957 96.9915 486.957 97.8315C486.957 98.6582 487.251 99.3382 487.837 99.8715C488.424 100.392 489.157 100.652 490.037 100.652C490.957 100.652 491.697 100.392 492.257 99.8715C492.817 99.3515 493.097 98.6782 493.097 97.8515C493.097 97.0115 492.817 96.3315 492.257 95.8115C491.697 95.2915 490.957 95.0315 490.037 95.0315ZM516.482 110.472H515.202V92.9915H516.482V110.472ZM513.602 105.192C512.442 105.445 510.889 105.658 508.942 105.832C507.009 105.992 505.215 106.072 503.562 106.072V94.7915H504.842V104.932C506.015 104.932 507.482 104.852 509.242 104.692C511.002 104.532 512.395 104.338 513.422 104.112L513.602 105.192ZM536.007 101.112H533.087V110.472H531.807V92.9915H533.087V100.032H536.007V101.112ZM530.367 105.472C527.513 105.992 524.233 106.192 520.527 106.072V94.8115H528.667V95.9115H521.807V104.932C523.073 104.998 524.54 104.978 526.207 104.872C527.887 104.752 529.213 104.585 530.187 104.372L530.367 105.472ZM537.131 108.632V106.952H538.791V108.632H537.131Z" fill="black"/>
</svg>
