<svg width="860" height="585" viewBox="0 0 860 585" fill="none" xmlns="http://www.w3.org/2000/svg">
<g filter="url(#filter0_d_128_44)">
<rect x="15" y="15" width="820" height="545" rx="25" fill="#084520"/>
</g>
<path d="M547.72 231H543.338V210.196C543.525 210.196 543.707 210.196 543.884 210.196C544.071 210.196 544.253 210.196 544.43 210.196C544.617 210.196 544.803 210.196 544.99 210.196C545.699 210.196 546.525 210.159 547.468 210.084C548.411 210.009 549.54 209.972 550.856 209.972C551.827 209.972 552.76 210.079 553.656 210.294C554.552 210.499 555.35 210.845 556.05 211.33C556.759 211.806 557.319 212.45 557.73 213.262C558.141 214.074 558.346 215.082 558.346 216.286C558.346 217.639 558.122 218.764 557.674 219.66C557.226 220.547 556.596 221.242 555.784 221.746C554.981 222.241 554.039 222.572 552.956 222.74C552.583 222.796 552.205 222.852 551.822 222.908C551.439 222.955 550.935 222.997 550.31 223.034C549.685 223.062 548.821 223.076 547.72 223.076V231ZM547.72 219.996C547.916 220.024 548.191 220.047 548.546 220.066C548.901 220.085 549.26 220.094 549.624 220.094C549.997 220.094 550.296 220.094 550.52 220.094C551.705 220.094 552.592 219.763 553.18 219.1C553.777 218.428 554.076 217.527 554.076 216.398C554.076 215.763 553.964 215.199 553.74 214.704C553.525 214.2 553.143 213.808 552.592 213.528C552.041 213.239 551.271 213.094 550.282 213.094C549.843 213.094 549.4 213.117 548.952 213.164C548.504 213.201 548.093 213.262 547.72 213.346V219.996ZM554.916 231C554.795 230.841 554.687 230.664 554.594 230.468C554.51 230.263 554.365 229.936 554.16 229.488C553.871 228.863 553.6 228.186 553.348 227.458C553.105 226.73 552.849 226.035 552.578 225.372C552.307 224.709 551.995 224.159 551.64 223.72C551.285 223.281 550.856 223.043 550.352 223.006L551.584 222.04L554.314 221.858C554.846 222.091 555.313 222.493 555.714 223.062C556.125 223.622 556.498 224.271 556.834 225.008C557.179 225.745 557.515 226.506 557.842 227.29C558.178 228.074 558.537 228.802 558.92 229.474C559.06 229.735 559.2 229.992 559.34 230.244C559.489 230.496 559.634 230.748 559.774 231H554.916ZM570.885 231.224C568.832 231.224 567.185 230.86 565.943 230.132C564.702 229.395 563.801 228.359 563.241 227.024C562.691 225.68 562.415 224.098 562.415 222.278L562.457 210.196H566.825L566.769 221.648C566.769 223.281 566.923 224.541 567.231 225.428C567.549 226.305 568.011 226.917 568.617 227.262C569.233 227.598 569.985 227.766 570.871 227.766C571.721 227.766 572.439 227.593 573.027 227.248C573.615 226.893 574.059 226.273 574.357 225.386C574.665 224.499 574.819 223.253 574.819 221.648V210.196H579.145V222.348C579.145 225.157 578.478 227.341 577.143 228.9C575.809 230.449 573.723 231.224 570.885 231.224ZM587.09 220.696C587.09 218.829 587.356 217.219 587.888 215.866C588.42 214.513 589.157 213.402 590.1 212.534C591.042 211.657 592.139 211.013 593.39 210.602C594.64 210.182 595.984 209.972 597.422 209.972C598.458 209.972 599.307 210.019 599.97 210.112C600.632 210.205 601.22 210.317 601.734 210.448C602.247 210.569 602.788 210.681 603.358 210.784L603.218 214.536C602.62 214.228 601.878 213.962 600.992 213.738C600.105 213.514 598.938 213.402 597.492 213.402C596.278 213.402 595.228 213.677 594.342 214.228C593.464 214.779 592.783 215.572 592.298 216.608C591.812 217.635 591.57 218.876 591.57 220.332C591.57 221.769 591.77 223.062 592.172 224.21C592.573 225.358 593.175 226.268 593.978 226.94C594.78 227.603 595.779 227.934 596.974 227.934C597.72 227.934 598.392 227.887 598.99 227.794C599.587 227.691 600.068 227.551 600.432 227.374V222.586L601.062 223.188L597.156 222.964V219.8H604.492V229.782C604.137 229.791 603.754 229.871 603.344 230.02C602.942 230.169 602.471 230.337 601.93 230.524C601.388 230.711 600.726 230.874 599.942 231.014C599.158 231.154 598.196 231.224 597.058 231.224C594.995 231.224 593.217 230.795 591.724 229.936C590.24 229.068 589.096 227.845 588.294 226.268C587.491 224.681 587.09 222.824 587.09 220.696ZM616.802 231.224C614.805 231.261 613.087 230.837 611.65 229.95C610.213 229.054 609.121 227.794 608.374 226.17C607.627 224.537 607.273 222.637 607.31 220.472C607.357 218.073 607.814 216.109 608.682 214.578C609.55 213.038 610.721 211.895 612.196 211.148C613.671 210.401 615.341 210.009 617.208 209.972C619.121 209.935 620.773 210.35 622.164 211.218C623.564 212.077 624.633 213.309 625.37 214.914C626.117 216.51 626.467 218.395 626.42 220.57C626.373 222.969 625.935 224.952 625.104 226.52C624.273 228.079 623.144 229.245 621.716 230.02C620.288 230.785 618.65 231.187 616.802 231.224ZM616.886 228.004C618.445 228.004 619.681 227.393 620.596 226.17C621.511 224.947 621.968 223.034 621.968 220.43C621.968 219.067 621.786 217.845 621.422 216.762C621.067 215.679 620.531 214.825 619.812 214.2C619.093 213.565 618.193 213.248 617.11 213.248C616.139 213.248 615.248 213.491 614.436 213.976C613.633 214.461 612.989 215.245 612.504 216.328C612.019 217.411 611.776 218.848 611.776 220.64C611.776 222.012 611.967 223.253 612.35 224.364C612.733 225.475 613.302 226.361 614.058 227.024C614.814 227.677 615.757 228.004 616.886 228.004ZM629.99 231V210.196H634.33V227.486H641.848V231H629.99ZM645.002 231V210.196H657.588V213.5H649.384V219.156H655.572V222.432H649.384V231H645.002Z" fill="white"/>
<path d="M553.39 255.42C551.035 254.97 548.485 252.93 548.485 250.635V249.6H547.195V250.635C547.195 252.93 544.66 254.955 542.305 255.42L542.86 256.44C544.885 255.96 546.985 254.52 547.84 252.555C548.695 254.535 550.795 255.975 552.835 256.44L553.39 255.42ZM541.795 259.29V260.31H553.99V259.29H541.795ZM556.704 254.115L556.884 255.135L564.999 254.685C564.924 255.72 564.774 256.83 564.474 258.12L565.689 258.24C566.274 255.48 566.274 253.665 566.274 251.67V250.02H557.049V251.025H565.074V251.67C565.074 252.36 565.074 253.05 565.044 253.755L556.704 254.115ZM555.609 259.23V260.235H567.774V259.23H555.609ZM580.418 248.67H579.188V258.57H580.418V248.67ZM577.583 255.21C575.513 255.57 573.758 255.66 571.298 255.66V253.5H576.173V249.615H570.053V250.605H574.958V252.57H570.098V256.665H571.178C573.758 256.665 575.558 256.575 577.703 256.215L577.583 255.21ZM572.873 260.805V257.805H571.643V261.81H580.793V260.805H572.873ZM596.764 253.26C597.019 251.94 597.019 250.92 597.019 250.065V249.195H587.854V250.185H595.804C595.804 250.995 595.789 251.91 595.549 253.14L596.764 253.26ZM589.099 259.47H597.079V256.245H587.839V257.22H595.849V258.57H587.884V261.945H597.409V260.97H589.099V259.47ZM592.624 254.025V251.685H591.394V254.025H586.429V255H598.549V254.025H592.624ZM607.938 255.675H604.593V250.995H607.938V255.675ZM603.363 255.675H601.308V256.68H611.223V255.675H609.168V250.995H611.253V250.005H601.278V250.995H603.363V255.675ZM600.198 259.365V260.385H612.393V259.365H600.198ZM622.995 256.005C623.07 255.525 623.115 255.03 623.115 254.46C623.115 253.89 623.07 253.395 622.995 252.915H624.825V256.005H622.995ZM620.235 258.015C619.17 258.015 618.48 256.65 618.48 254.46C618.48 252.285 619.17 250.92 620.235 250.92C621.315 250.92 621.99 252.285 621.99 254.46C621.99 256.65 621.315 258.015 620.235 258.015ZM624.825 251.91H622.74C622.275 250.56 621.405 249.78 620.235 249.78C618.495 249.78 617.37 251.58 617.37 254.46C617.37 257.355 618.495 259.155 620.235 259.155C621.405 259.155 622.26 258.375 622.74 257.025H624.825V261.45H625.995V248.955H624.825V251.91ZM627.465 248.655V262.11H628.635V248.655H627.465ZM632.459 252.645C632.459 251.37 633.419 250.5 634.769 250.5C636.104 250.5 637.079 251.37 637.079 252.645C637.079 253.905 636.104 254.79 634.769 254.79C633.419 254.79 632.459 253.905 632.459 252.645ZM638.279 252.645C638.279 250.755 636.794 249.465 634.769 249.465C632.729 249.465 631.259 250.755 631.259 252.645C631.259 254.52 632.729 255.825 634.769 255.825C636.794 255.825 638.279 254.52 638.279 252.645ZM632.699 258.285H640.214V262.11H641.444V257.28H632.699V258.285ZM643.394 251.73V250.71H641.444V248.67H640.214V256.65H641.444V254.595H643.394V253.59H641.444V251.73H643.394ZM652.781 249.825H651.566V252.24C651.566 254.79 649.931 257.37 647.951 258.315L648.701 259.32C650.276 258.51 651.566 256.83 652.181 254.805C652.826 256.725 654.116 258.315 655.646 259.065L656.381 258.075C654.386 257.175 652.781 254.7 652.781 252.24V249.825ZM657.791 248.655V262.14H659.021V248.655H657.791ZM673.405 255.42C671.05 254.97 668.5 252.93 668.5 250.635V249.6H667.21V250.635C667.21 252.93 664.675 254.955 662.32 255.42L662.875 256.44C664.9 255.96 667 254.52 667.855 252.555C668.71 254.535 670.81 255.975 672.85 256.44L673.405 255.42ZM661.81 259.29V260.31H674.005V259.29H661.81ZM683.183 256.62H684.353V248.88H683.183V252.045H681.398V253.035H683.183V256.62ZM681.923 254.595C680.528 254.88 679.313 254.955 677.408 254.955V253.14H680.783V252.18H677.408V250.515H681.308V249.525H676.223V255.945H677.078C679.223 255.945 680.498 255.885 682.028 255.585L681.923 254.595ZM679.328 258.375H685.763V260.94H679.328V258.375ZM678.128 261.93H686.963V257.4H678.128V261.93ZM685.778 248.655V256.755H686.963V248.655H685.778Z" fill="white"/>
<path d="M542.98 307.63H546.566V306.882H542.078V313.394H542.837C544.707 313.394 545.895 313.328 547.325 313.064L547.215 312.316C545.884 312.569 544.729 312.635 542.98 312.635V307.63ZM548.81 305.947V309.522H545.983V310.27H548.81V315.836H549.712V305.947H548.81ZM553.649 309.148H558.687V310.963H553.649V309.148ZM556.619 313.812V311.689H559.567V306.651H558.687V308.411H553.649V306.651H552.758V311.689H555.706V313.812H551.702V314.549H560.645V313.812H556.619ZM562.404 307.014V307.74H566.111C565.924 310.083 564.604 311.975 561.953 313.24L562.437 313.977C565.715 312.371 567.024 309.863 567.024 307.014H562.404ZM569.015 305.947V315.814H569.917V305.947H569.015Z" fill="white"/>
<defs>
<filter id="filter0_d_128_44" x="0" y="0" width="860" height="585" filterUnits="userSpaceOnUse" color-interpolation-filters="sRGB">
<feFlood flood-opacity="0" result="BackgroundImageFix"/>
<feColorMatrix in="SourceAlpha" type="matrix" values="0 0 0 0 0 0 0 0 0 0 0 0 0 0 0 0 0 0 127 0" result="hardAlpha"/>
<feOffset dx="5" dy="5"/>
<feGaussianBlur stdDeviation="10"/>
<feComposite in2="hardAlpha" operator="out"/>
<feColorMatrix type="matrix" values="0 0 0 0 0 0 0 0 0 0 0 0 0 0 0 0 0 0 0.22 0"/>
<feBlend mode="normal" in2="BackgroundImageFix" result="effect1_dropShadow_128_44"/>
<feBlend mode="normal" in="SourceGraphic" in2="effect1_dropShadow_128_44" result="shape"/>
</filter>
</defs>
</svg>
