<svg width="860" height="477" viewBox="0 0 860 477" fill="none" xmlns="http://www.w3.org/2000/svg">
<g filter="url(#filter0_d_128_43)">
<rect x="15" y="15" width="820" height="437" rx="25" fill="#FFB800"/>
</g>
<path d="M137.533 173.868H133.585C134.285 171.656 134.565 169.276 134.565 166.924H124.961V168.772H132.353C132.269 170.144 132.073 171.46 131.709 172.776L123.729 173.308L124.037 175.268L131.093 174.568C129.861 177.508 127.565 180.14 123.729 182.212L125.045 183.864C129.049 181.624 131.485 178.824 132.885 175.744H137.533V187.784H139.689V164.6H137.533V173.868ZM142.741 163.928V189.044H144.925V163.928H142.741ZM163.795 171.292H157.551V166.504H163.795V171.292ZM155.255 171.292H151.531V173.056H169.787V171.292H166.091V166.504H169.871V164.74H151.447V166.504H155.255V171.292ZM154.387 184.704H169.143V179.188H152.063V180.896H166.875V183.052H152.147V188.792H169.899V187.056H154.387V184.704ZM149.319 175.156V176.976H172.055V175.156H149.319ZM178.381 175.296H187.425V166.28H176.057V168.156H185.157V173.42H176.141V183.024H178.129C182.917 183.024 186.277 182.828 190.197 182.128L189.945 180.224C186.193 180.952 182.945 181.12 178.381 181.12V175.296ZM198.569 173.924H194.453V163.928H192.157V189.1H194.453V175.856H198.569V173.924ZM219.119 163.956V189.1H221.415V163.956H219.119ZM202.291 166.084V183.024H214.107V166.084H211.839V172.72H204.559V166.084H202.291ZM204.559 174.54H211.839V181.148H204.559V174.54ZM228.693 174.148L229.029 176.052L244.177 175.212C244.037 177.144 243.757 179.216 243.197 181.624L245.465 181.848C246.557 176.696 246.557 173.308 246.557 169.584V166.504H229.337V168.38H244.317V169.584C244.317 170.872 244.317 172.16 244.261 173.476L228.693 174.148ZM226.649 183.696V185.572H249.357V183.696H226.649Z" fill="white"/>
<path d="M129 204.54H127.02V206.55C127.02 209.235 125.88 211.905 123.465 212.94L124.65 214.575C126.3 213.795 127.425 212.31 128.04 210.465C128.655 212.16 129.72 213.525 131.31 214.245L132.435 212.64C130.095 211.635 129 209.115 129 206.55V204.54ZM133.11 203.46V217.32H135.09V203.46H133.11ZM148.049 208.92C148.439 207.495 148.439 206.325 148.439 205.23V204.09H138.869V205.65H146.459C146.459 206.565 146.414 207.495 146.099 208.725L148.049 208.92ZM143.609 215.805C141.749 215.805 140.684 215.43 140.684 214.695C140.684 213.945 141.749 213.57 143.609 213.57C145.484 213.57 146.549 213.945 146.549 214.695C146.549 215.43 145.484 215.805 143.609 215.805ZM143.609 212.085C140.639 212.085 138.719 213.075 138.719 214.695C138.719 216.3 140.639 217.29 143.609 217.29C146.594 217.29 148.514 216.3 148.514 214.695C148.514 213.075 146.594 212.085 143.609 212.085ZM144.059 209.655V207.24H142.079V209.655H137.474V211.215H149.909V209.655H144.059ZM160.318 208.545H154.633V207.12H160.318V208.545ZM162.268 204H160.318V205.575H154.633V204H152.668V210.12H162.268V204ZM163.753 211.425H151.243V213H156.463V217.305H158.443V213H163.753V211.425ZM167.636 210.015H171.596V208.47H167.636V206.22H172.061V204.63H165.671V214.185H166.796C169.121 214.185 170.891 214.14 172.886 213.825L172.706 212.235C171.011 212.505 169.496 212.58 167.636 212.595V210.015ZM174.656 203.46V208.335H172.286V209.925H174.656V217.32H176.636V203.46H174.656ZM192.014 206.7V207.885H188.954V209.37H192.014V210.405H193.994V203.475H192.014V205.215H189.479C189.539 204.825 189.569 204.42 189.569 204H183.404V205.575H187.394C187.154 207.195 185.744 208.515 182.609 209.13L183.269 210.72C186.299 210.06 188.249 208.755 189.089 206.7H192.014ZM186.884 215.595V214.725H193.994V210.915H184.889V212.475H192.014V213.255H184.904V217.155H194.279V215.595H186.884ZM200.623 206.46H202.633V204.855H196.483V206.46H198.703V207.135C198.703 209.505 197.983 211.98 195.973 213.255L197.143 214.71C198.388 213.93 199.198 212.58 199.678 211.005C200.128 212.46 200.923 213.645 202.138 214.38L203.293 212.94C201.298 211.77 200.623 209.445 200.623 207.135V206.46ZM203.428 208.185H201.673V209.79H203.428V216.66H205.273V203.7H203.428V208.185ZM206.218 203.46V217.275H208.093V203.46H206.218ZM210.371 204.885V206.475H212.231C212.126 209.25 211.586 211.245 209.756 213.27L211.301 214.395C213.761 211.665 214.106 208.695 214.106 204.885H210.371ZM214.586 204.885V206.475H216.056C215.951 209.55 215.456 211.86 213.626 214.17L215.186 215.265C217.601 212.28 217.916 208.875 217.916 204.885H214.586ZM222.806 208.875H221.021V203.46H219.026V217.275H221.021V210.51H222.806V208.875ZM229.18 206.43H232.03V204.795H224.29V206.43H227.17V207.195C227.17 209.55 226.045 212.085 223.735 213.12L224.86 214.695C226.48 213.96 227.59 212.445 228.205 210.645C228.82 212.31 229.915 213.66 231.52 214.35L232.6 212.79C230.29 211.83 229.18 209.445 229.18 207.195V206.43ZM233.305 203.475V217.29H235.285V203.475H233.305ZM249.388 204.93H246.298V203.46H244.303V204.93H241.243V206.475H249.373L249.388 204.93ZM243.808 209.625C243.808 208.875 244.423 208.47 245.308 208.47C246.178 208.47 246.808 208.875 246.808 209.625C246.808 210.39 246.178 210.795 245.308 210.795C244.423 210.795 243.808 210.39 243.808 209.625ZM248.698 209.625C248.698 208.065 247.288 206.97 245.308 206.97C243.328 206.97 241.918 208.065 241.918 209.625C241.918 211.215 243.328 212.295 245.308 212.295C247.288 212.295 248.698 211.215 248.698 209.625ZM245.188 213.045H243.208V217.05H252.613V215.475H245.188V213.045ZM252.118 207.69V203.475H250.138V213.81H252.118V209.325H253.948V207.69H252.118ZM260.216 209.955H257.591V208.005H260.216V209.955ZM262.151 208.74H264.611V213.675H266.591V203.49H264.611V207.15H262.151V204.405H260.216V206.49H257.591V204.39H255.626V211.53H262.151V208.74ZM259.451 215.475V212.685H257.471V217.05H266.891V215.475H259.451ZM271.945 212.625C271.195 212.625 270.745 211.59 270.745 209.46C270.745 207.345 271.195 206.31 271.945 206.31C272.71 206.31 273.145 207.345 273.145 209.46C273.145 211.59 272.71 212.625 271.945 212.625ZM276.01 208.56H274.915C274.69 205.98 273.58 204.45 271.945 204.45C270.115 204.45 268.96 206.34 268.96 209.46C268.96 212.595 270.115 214.485 271.945 214.485C273.625 214.485 274.75 212.865 274.93 210.165H276.01V216.675H277.855V203.7H276.01V208.56ZM278.815 203.46V217.275H280.69V203.46H278.815ZM289.558 212.67C288.808 212.67 288.268 212.07 288.268 211.035C288.268 210 288.808 209.385 289.558 209.385C290.308 209.385 290.848 210 290.848 211.035C290.848 212.07 290.308 212.67 289.558 212.67ZM289.558 207.735C287.788 207.735 286.528 209.1 286.528 211.035C286.528 212.955 287.788 214.32 289.558 214.32C291.328 214.32 292.588 212.955 292.588 211.035C292.588 209.1 291.328 207.735 289.558 207.735ZM290.533 203.85H288.583V205.56H286.228V207.135H292.828V205.56H290.533V203.85ZM296.218 203.46V209.1H295.168V203.73H293.323V216.705H295.168V210.69H296.218V217.275H298.093V203.46H296.218ZM309.611 206.7V207.885H306.551V209.37H309.611V210.405H311.591V203.475H309.611V205.215H307.076C307.136 204.825 307.166 204.42 307.166 204H301.001V205.575H304.991C304.751 207.195 303.341 208.515 300.206 209.13L300.866 210.72C303.896 210.06 305.846 208.755 306.686 206.7H309.611ZM304.481 215.595V214.725H311.591V210.915H302.486V212.475H309.611V213.255H302.501V217.155H311.876V215.595H304.481ZM317.155 212.67C316.405 212.67 315.865 212.07 315.865 211.035C315.865 210 316.405 209.385 317.155 209.385C317.905 209.385 318.445 210 318.445 211.035C318.445 212.07 317.905 212.67 317.155 212.67ZM317.155 207.735C315.385 207.735 314.125 209.1 314.125 211.035C314.125 212.955 315.385 214.32 317.155 214.32C318.925 214.32 320.185 212.955 320.185 211.035C320.185 209.1 318.925 207.735 317.155 207.735ZM318.13 203.85H316.18V205.56H313.825V207.135H320.425V205.56H318.13V203.85ZM323.815 203.46V209.1H322.765V203.73H320.92V216.705H322.765V210.69H323.815V217.275H325.69V203.46H323.815ZM330.924 208.035H336.834V209.97H330.924V208.035ZM334.869 214.08V211.545H338.784V204.33H336.834V206.475H330.924V204.33H328.959V211.545H332.889V214.08H327.639V215.685H340.149V214.08H334.869ZM345.848 204.675H343.943V207C343.943 209.355 343.208 211.83 341.183 213.06L342.368 214.545C343.613 213.795 344.423 212.475 344.903 210.945C345.338 212.34 346.073 213.51 347.243 214.23L348.323 212.7C346.448 211.455 345.848 209.16 345.848 206.925V204.675ZM348.608 208.14H346.868V209.745H348.608V216.675H350.453V203.7H348.608V208.14ZM351.413 203.475V217.29H353.288V203.475H351.413ZM359.962 211.44C360.442 211.53 360.937 211.575 361.477 211.575C362.017 211.575 362.527 211.53 363.007 211.44V214.08H359.962V211.44ZM361.477 205.71C363.397 205.71 364.687 206.49 364.687 207.87C364.687 209.235 363.397 210.03 361.477 210.03C359.557 210.03 358.282 209.235 358.282 207.87C358.282 206.49 359.557 205.71 361.477 205.71ZM364.972 214.08V210.705C366.007 210.06 366.637 209.07 366.637 207.87C366.637 205.605 364.462 204.15 361.477 204.15C358.507 204.15 356.332 205.605 356.332 207.87C356.317 209.07 356.947 210.06 357.997 210.705V214.08H355.237V215.685H367.747V214.08H364.972Z" fill="white"/>
<path d="M125.398 262.872H128.533V261.717H123.946V268.526H124.771C126.619 268.526 127.829 268.482 129.193 268.229L129.05 267.052C127.895 267.25 126.85 267.327 125.398 267.338V262.872ZM130.524 260.815V264.313H128.049V265.479H130.524V270.979H131.976V260.815H130.524ZM136.001 264.159H140.335V265.578H136.001V264.159ZM138.894 268.592V266.733H141.765V261.442H140.335V263.015H136.001V261.442H134.56V266.733H137.442V268.592H133.592V269.769H142.766V268.592H138.894ZM144.272 261.86V263.015H147.649C147.44 265.259 146.318 266.843 143.733 268.086L144.492 269.23C148.089 267.492 149.134 264.962 149.134 261.86H144.272ZM150.685 260.804V270.935H152.148V260.804H150.685Z" fill="white"/>
<defs>
<filter id="filter0_d_128_43" x="0" y="0" width="860" height="477" filterUnits="userSpaceOnUse" color-interpolation-filters="sRGB">
<feFlood flood-opacity="0" result="BackgroundImageFix"/>
<feColorMatrix in="SourceAlpha" type="matrix" values="0 0 0 0 0 0 0 0 0 0 0 0 0 0 0 0 0 0 127 0" result="hardAlpha"/>
<feOffset dx="5" dy="5"/>
<feGaussianBlur stdDeviation="10"/>
<feComposite in2="hardAlpha" operator="out"/>
<feColorMatrix type="matrix" values="0 0 0 0 0 0 0 0 0 0 0 0 0 0 0 0 0 0 0.22 0"/>
<feBlend mode="normal" in2="BackgroundImageFix" result="effect1_dropShadow_128_43"/>
<feBlend mode="normal" in="SourceGraphic" in2="effect1_dropShadow_128_43" result="shape"/>
</filter>
</defs>
</svg>
