<svg width="1068" height="144" viewBox="0 0 1068 144" fill="none" xmlns="http://www.w3.org/2000/svg">
<path d="M2.61133 31V10.7656H8.73633C10.6777 10.7656 12.1634 11.194 13.1934 12.0508C14.2324 12.9076 14.752 14.1517 14.752 15.7832C14.752 17.0684 14.3919 18.2122 13.6719 19.2148C12.9609 20.2174 11.9583 20.9876 10.6641 21.5254L17.418 31H13.8906L8.13477 22.4414H5.45508V31H2.61133ZM5.45508 20.2949H6.38477C8.15299 20.2949 9.4974 19.9349 10.418 19.2148C11.3385 18.4948 11.7988 17.4421 11.7988 16.0566C11.7988 13.9603 10.2858 12.9121 7.25977 12.9121H5.45508V20.2949ZM20.166 10.7656H23.0371V23.5352C23.0371 25.5677 23.4108 27.0488 24.1582 27.9785C24.9147 28.8991 26.1133 29.3594 27.7539 29.3594C29.3581 29.3594 30.4928 28.9264 31.1582 28.0605C31.8327 27.1855 32.1699 25.709 32.1699 23.6309V10.7656H34.6855V23.5898C34.6855 25.3581 34.5124 26.7161 34.166 27.6641C33.8197 28.612 33.1953 29.446 32.293 30.166C31.1628 31.0592 29.6087 31.5059 27.6309 31.5059C25.0697 31.5059 23.1829 30.8587 21.9707 29.5645C20.7676 28.2702 20.166 26.2513 20.166 23.5078V10.7656ZM63.8066 30.4531C61.3548 31.1549 59.2174 31.5059 57.3945 31.5059C54.1771 31.5059 51.707 30.5944 49.9844 28.7715C48.2708 26.9395 47.4141 24.3099 47.4141 20.8828C47.4141 17.5104 48.2845 14.8991 50.0254 13.0488C51.7754 11.1895 54.2318 10.2598 57.3945 10.2598C59.4271 10.2598 61.5553 10.5651 63.7793 11.1758V13.8281C60.9902 12.8802 58.8529 12.4062 57.3672 12.4062C55.1797 12.4062 53.4798 13.1491 52.2676 14.6348C51.0645 16.1113 50.4629 18.1986 50.4629 20.8965C50.4629 23.5671 51.11 25.6452 52.4043 27.1309C53.6986 28.6165 55.5124 29.3594 57.8457 29.3594C58.8027 29.3594 59.8372 29.1908 60.9492 28.8535V22.2637H63.8066V30.4531ZM77.1094 31.5059C74.2383 31.5059 71.9414 30.5443 70.2188 28.6211C68.5052 26.6888 67.6484 24.1094 67.6484 20.8828C67.6484 17.6562 68.5052 15.0814 70.2188 13.1582C71.9414 11.2259 74.2383 10.2598 77.1094 10.2598C79.9805 10.2598 82.2728 11.2259 83.9863 13.1582C85.709 15.0814 86.5703 17.6562 86.5703 20.8828C86.5703 24.1094 85.709 26.6888 83.9863 28.6211C82.2728 30.5443 79.9805 31.5059 77.1094 31.5059ZM77.1094 29.3594C79.1237 29.3594 80.696 28.612 81.8262 27.1172C82.9564 25.6133 83.5215 23.526 83.5215 20.8555C83.5215 18.2031 82.9564 16.1341 81.8262 14.6484C80.696 13.1536 79.1237 12.4062 77.1094 12.4062C75.0951 12.4062 73.5228 13.1536 72.3926 14.6484C71.2624 16.1341 70.6973 18.2031 70.6973 20.8555C70.6973 23.526 71.2624 25.6133 72.3926 27.1172C73.5228 28.612 75.0951 29.3594 77.1094 29.3594ZM90.6035 31V10.7656H93.4746V28.8535H102.58V31H90.6035ZM105.533 31V10.7656H116.84V12.9121H108.404V19.6934H115.486V21.8125H108.404V31H105.533Z" fill="black"/>
<path d="M257.2 24.3885L256.48 25.4285C255 24.9485 253.627 24.1885 252.36 23.1485C251.094 22.0951 250.294 21.1351 249.96 20.2685C249.68 21.1485 248.92 22.1085 247.68 23.1485C246.44 24.1885 245.047 24.9351 243.5 25.3885L242.8 24.3485C243.774 24.1485 244.754 23.7418 245.74 23.1285C246.74 22.5151 247.587 21.7551 248.28 20.8485C248.974 19.9418 249.32 19.0485 249.32 18.1685V16.9285H250.64V18.1685C250.64 19.4618 251.36 20.7351 252.8 21.9885C254.24 23.2285 255.707 24.0285 257.2 24.3885ZM257.88 30.3885H242.1V29.3085H257.88V30.3885ZM273.005 17.3485V19.8085C273.005 20.9685 272.938 22.3551 272.805 23.9685C272.672 25.5818 272.485 26.9485 272.245 28.0685L271.005 27.8885C271.192 26.9285 271.365 25.4218 271.525 23.3685L261.245 23.9285L261.005 22.7885L271.605 22.3285C271.632 21.8885 271.645 21.2751 271.645 20.4885V18.4285H261.425V17.3485H273.005ZM275.185 30.2085H259.405V29.1085H275.185V30.2085ZM290.95 28.0485H289.67V15.3485H290.95V28.0485ZM291.45 32.4285H279.49V27.4685H280.77V31.3285H291.45V32.4285ZM287.33 25.2485C284.983 25.5818 281.73 25.7485 277.57 25.7485V20.4685H284.21V17.6085H277.49V16.5085H285.49V21.5285H278.85V24.6485C282.903 24.6485 285.67 24.4751 287.15 24.1285L287.33 25.2485ZM313.608 32.5885H301.168V28.4485H311.648V26.5285H301.088V25.4485H312.928V29.4885H302.448V31.5285H313.608V32.5885ZM315.048 23.7085H299.268V22.6285H305.868V19.3285H307.128V22.6285H315.048V23.7085ZM313.008 16.0885V17.3885C313.008 18.8685 312.855 20.2418 312.548 21.5085L311.268 21.3285C311.535 20.3685 311.668 19.2818 311.668 18.0685V17.1685H301.068V16.0885H313.008ZM330.713 25.6685H318.133V24.5885H320.973L320.493 19.4685L321.853 19.2685L322.213 24.5885H326.633L327.233 19.2885L328.493 19.5085L327.853 24.5885H330.713V25.6685ZM332.353 30.5885H316.573V29.4885H332.353V30.5885ZM330.713 18.3885H318.133V17.2885H330.713V18.3885ZM355.452 23.5685H352.492V32.8285H351.212V15.3485H352.492V22.4685H355.452V23.5685ZM339.512 22.8485C339.512 20.9685 339.885 19.4818 340.632 18.3885C341.378 17.2951 342.432 16.7485 343.792 16.7485C345.138 16.7485 346.185 17.3018 346.932 18.4085C347.678 19.5018 348.052 20.9885 348.052 22.8685C348.052 24.7485 347.678 26.2418 346.932 27.3485C346.185 28.4418 345.138 28.9885 343.792 28.9885C342.432 28.9885 341.378 28.4418 340.632 27.3485C339.885 26.2418 339.512 24.7418 339.512 22.8485ZM345.972 26.4685C346.532 25.5351 346.812 24.3351 346.812 22.8685C346.812 21.4018 346.532 20.2018 345.972 19.2685C345.425 18.3351 344.698 17.8685 343.792 17.8685C342.885 17.8685 342.152 18.3351 341.592 19.2685C341.045 20.2018 340.772 21.4018 340.772 22.8685C340.772 24.3351 341.045 25.5351 341.592 26.4685C342.152 27.3885 342.885 27.8485 343.792 27.8485C344.698 27.8485 345.425 27.3885 345.972 26.4685ZM365.356 17.2485C365.343 19.3551 365.003 21.2018 364.336 22.7885C363.67 24.3751 362.79 25.6818 361.696 26.7085C360.616 27.7351 359.236 28.6885 357.556 29.5685L356.716 28.5485C359.876 27.1085 362.003 25.1018 363.096 22.5285L357.036 23.1885L356.716 21.9885L363.496 21.4685C363.816 20.3885 363.983 19.3485 363.996 18.3485H357.636V17.2485H365.356ZM369.796 15.3485V22.6685H372.736V23.7485H369.796V32.8285H368.516V15.3485H369.796ZM388.461 32.8285H387.181V15.3485H388.461V32.8285ZM383.721 23.2885H379.641V22.1885H383.721V15.7885H384.981V31.9085H383.721V23.2885ZM382.161 27.8285C379.814 28.2151 377.254 28.4085 374.481 28.4085V17.5885H381.161V18.6885H375.761V27.2485C378.068 27.2485 380.134 27.0618 381.961 26.6885L382.161 27.8285ZM405.226 32.8285H403.946V15.3485H405.226V32.8285ZM400.066 28.3085H392.066V17.2085H400.066V28.3085ZM398.786 27.2085V18.3085H393.346V27.2085H398.786ZM424.13 30.5885H408.35V29.4885H415.57V26.2485H410.45V20.8485H420.75V17.8885H410.45V16.8085H422.03V21.9285H411.73V25.1685H422.49V26.2485H416.85V29.4885H424.13V30.5885ZM446.989 21.1285H444.269V25.8885H442.989V15.3485H444.269V20.0285H446.989V21.1285ZM442.989 27.1085C443.976 27.6951 444.469 28.4818 444.469 29.4685C444.469 30.4551 443.976 31.2418 442.989 31.8285C442.002 32.4285 440.582 32.7285 438.729 32.7285C436.876 32.7285 435.462 32.4351 434.489 31.8485C433.516 31.2618 433.029 30.4685 433.029 29.4685C433.029 28.4551 433.516 27.6618 434.489 27.0885C435.462 26.5018 436.876 26.2085 438.729 26.2085C440.582 26.2085 442.002 26.5085 442.989 27.1085ZM438.729 27.2885C437.369 27.2885 436.296 27.4885 435.509 27.8885C434.736 28.2885 434.349 28.8151 434.349 29.4685C434.349 30.1351 434.736 30.6618 435.509 31.0485C436.282 31.4351 437.356 31.6285 438.729 31.6285C440.102 31.6285 441.182 31.4351 441.969 31.0485C442.756 30.6618 443.149 30.1351 443.149 29.4685C443.149 28.8018 442.756 28.2751 441.969 27.8885C441.182 27.4885 440.102 27.2885 438.729 27.2885ZM440.929 23.7885C438.329 24.2551 435.222 24.4418 431.609 24.3485V16.8085H439.329V17.8885H432.889V23.2685C434.209 23.3085 435.602 23.2751 437.069 23.1685C438.536 23.0618 439.756 22.9085 440.729 22.7085L440.929 23.7885ZM462.454 24.3685H461.174V15.3485H462.454V24.3685ZM463.154 32.7085H451.354V28.3885H461.194V26.3885H451.254V25.2885H462.474V29.3885H452.614V31.6085H463.154V32.7085ZM453.074 16.0685C454.287 16.0685 455.307 16.4218 456.134 17.1285C456.974 17.8351 457.394 18.7551 457.394 19.8885C457.394 21.0218 456.974 21.9485 456.134 22.6685C455.307 23.3751 454.287 23.7285 453.074 23.7285C451.874 23.7285 450.854 23.3751 450.014 22.6685C449.174 21.9618 448.754 21.0418 448.754 19.9085C448.754 18.7751 449.174 17.8551 450.014 17.1485C450.854 16.4285 451.874 16.0685 453.074 16.0685ZM453.074 17.1885C452.207 17.1885 451.487 17.4418 450.914 17.9485C450.34 18.4418 450.054 19.0885 450.054 19.8885C450.054 20.6885 450.34 21.3418 450.914 21.8485C451.487 22.3418 452.207 22.5885 453.074 22.5885C453.98 22.5885 454.707 22.3485 455.254 21.8685C455.814 21.3751 456.094 20.7218 456.094 19.9085C456.094 19.0951 455.814 18.4418 455.254 17.9485C454.707 17.4418 453.98 17.1885 453.074 17.1885ZM469.538 16.8285C471.112 16.8285 472.205 17.7551 472.818 19.6085H475.558V15.6885H476.818V31.9085H475.558V26.1685H472.798C472.158 27.9418 471.072 28.8285 469.538 28.8285C468.338 28.8285 467.412 28.2951 466.758 27.2285C466.105 26.1618 465.778 24.6951 465.778 22.8285C465.778 20.9618 466.105 19.4951 466.758 18.4285C467.412 17.3618 468.338 16.8285 469.538 16.8285ZM471.318 26.4485C471.758 25.5685 471.978 24.3618 471.978 22.8285C471.978 21.2951 471.758 20.0951 471.318 19.2285C470.892 18.3485 470.298 17.9085 469.538 17.9085C468.778 17.9085 468.178 18.3485 467.738 19.2285C467.312 20.0951 467.098 21.2951 467.098 22.8285C467.098 24.3618 467.312 25.5685 467.738 26.4485C468.178 27.3285 468.778 27.7685 469.538 27.7685C470.298 27.7685 470.892 27.3285 471.318 26.4485ZM480.238 32.8285H478.958V15.3485H480.238V32.8285ZM475.558 20.6885H473.098C473.232 21.3151 473.298 22.0285 473.298 22.8285C473.298 23.6151 473.225 24.3618 473.078 25.0685H475.558V20.6885ZM487.463 16.3485C488.676 16.3485 489.703 16.7218 490.543 17.4685C491.396 18.2151 491.823 19.1951 491.823 20.4085C491.823 21.6218 491.396 22.6085 490.543 23.3685C489.703 24.1151 488.676 24.4885 487.463 24.4885C486.236 24.4885 485.203 24.1151 484.363 23.3685C483.523 22.6218 483.103 21.6418 483.103 20.4285C483.103 19.2151 483.523 18.2351 484.363 17.4885C485.203 16.7285 486.236 16.3485 487.463 16.3485ZM487.463 17.4485C486.57 17.4485 485.836 17.7285 485.263 18.2885C484.69 18.8351 484.403 19.5418 484.403 20.4085C484.403 21.2751 484.69 21.9885 485.263 22.5485C485.85 23.1085 486.583 23.3885 487.463 23.3885C488.383 23.3885 489.123 23.1151 489.683 22.5685C490.243 22.0218 490.523 21.3085 490.523 20.4285C490.523 19.5485 490.243 18.8351 489.683 18.2885C489.123 17.7285 488.383 17.4485 487.463 17.4485ZM498.903 21.8485V22.9485H496.183V25.7285H494.903V15.3485H496.183V18.0885H498.903V19.1885H496.183V21.8485H498.903ZM496.203 32.8285H494.903V27.6685H485.003V26.5685H496.203V32.8285ZM515.908 24.1285H500.128V23.0885H515.908V24.1285ZM514.448 32.5285H502.088V28.6685H512.488V26.9085H502.028V25.8285H513.768V29.6885H503.368V31.4685H514.448V32.5285ZM513.968 18.8085C513.968 19.8085 513.448 20.5551 512.408 21.0485C511.368 21.5418 509.908 21.7885 508.028 21.7885C506.174 21.7885 504.721 21.5418 503.668 21.0485C502.628 20.5418 502.108 19.7951 502.108 18.8085C502.108 17.8218 502.628 17.0818 503.668 16.5885C504.721 16.0818 506.174 15.8285 508.028 15.8285C509.908 15.8285 511.368 16.0818 512.408 16.5885C513.448 17.0818 513.968 17.8218 513.968 18.8085ZM511.428 17.3685C510.588 17.0351 509.454 16.8685 508.028 16.8685C506.601 16.8685 505.474 17.0351 504.648 17.3685C503.834 17.7018 503.428 18.1818 503.428 18.8085C503.428 19.4351 503.834 19.9151 504.648 20.2485C505.474 20.5685 506.601 20.7285 508.028 20.7285C509.454 20.7285 510.588 20.5685 511.428 20.2485C512.268 19.9151 512.688 19.4351 512.688 18.8085C512.688 18.1818 512.268 17.7018 511.428 17.3685ZM531.346 17.0685C532.173 17.6418 532.586 18.4218 532.586 19.4085C532.586 20.3951 532.173 21.1685 531.346 21.7285C530.533 22.2751 529.466 22.5485 528.146 22.5485C526.826 22.5485 525.753 22.2751 524.926 21.7285C524.113 21.1685 523.706 20.3951 523.706 19.4085C523.706 18.4218 524.12 17.6418 524.946 17.0685C525.773 16.4951 526.84 16.2085 528.146 16.2085C529.466 16.2085 530.533 16.4951 531.346 17.0685ZM531.286 19.4085C531.286 18.7818 530.993 18.2818 530.406 17.9085C529.833 17.5218 529.08 17.3285 528.146 17.3285C527.213 17.3285 526.453 17.5151 525.866 17.8885C525.293 18.2618 525.006 18.7685 525.006 19.4085C525.006 20.0485 525.293 20.5551 525.866 20.9285C526.453 21.2885 527.213 21.4685 528.146 21.4685C529.08 21.4685 529.833 21.2885 530.406 20.9285C530.993 20.5551 531.286 20.0485 531.286 19.4085ZM536.926 28.7085H535.646V26.7485H532.126V25.6685H535.646V15.3485H536.926V28.7085ZM537.306 32.4085H525.086V27.4085H526.366V31.3085H537.306V32.4085ZM528.766 27.8485H527.486V24.7085C526.86 24.7351 525.293 24.7818 522.786 24.8485L522.526 23.7085C523.873 23.7085 525.813 23.6685 528.346 23.5885C530.893 23.4685 532.726 23.3418 533.846 23.2085L533.966 24.2285C533.393 24.3085 531.66 24.4485 528.766 24.6485V27.8485ZM550.351 24.3285L549.671 25.3685C548.858 25.1285 548.044 24.6751 547.231 24.0085C546.431 23.3285 545.811 22.5885 545.371 21.7885C545.091 22.5885 544.538 23.3751 543.711 24.1485C542.884 24.9085 541.951 25.4818 540.911 25.8685L540.231 24.8285C541.391 24.4951 542.431 23.8418 543.351 22.8685C544.271 21.8818 544.731 20.8751 544.731 19.8485V19.6085H540.831V18.5085H549.971V19.6085H546.031V19.8485C546.031 20.8218 546.478 21.7485 547.371 22.6285C548.278 23.5085 549.271 24.0751 550.351 24.3285ZM554.231 32.8285H552.951V27.8885H542.631V26.8085H554.231V32.8285ZM554.231 25.8685H552.951V15.3485H554.231V25.8685ZM547.691 16.9085H543.051V15.8285H547.691V16.9085ZM573.076 30.3885H557.296V29.3085H573.076V30.3885ZM571.396 21.2485C571.396 22.5685 570.822 23.6218 569.676 24.4085C568.542 25.1951 567.036 25.5885 565.156 25.5885C563.276 25.5885 561.769 25.1951 560.636 24.4085C559.516 23.6218 558.956 22.5685 558.956 21.2485C558.956 19.9418 559.522 18.8951 560.656 18.1085C561.789 17.3085 563.289 16.9085 565.156 16.9085C567.036 16.9085 568.542 17.3085 569.676 18.1085C570.822 18.8951 571.396 19.9418 571.396 21.2485ZM570.136 21.2485C570.136 20.2885 569.682 19.5151 568.776 18.9285C567.869 18.3418 566.662 18.0485 565.156 18.0485C563.662 18.0485 562.462 18.3418 561.556 18.9285C560.662 19.5151 560.216 20.2885 560.216 21.2485C560.216 22.1951 560.669 22.9618 561.576 23.5485C562.482 24.1351 563.676 24.4285 565.156 24.4285C566.649 24.4285 567.849 24.1351 568.756 23.5485C569.676 22.9618 570.136 22.1951 570.136 21.2485ZM590.38 30.5885H574.6V29.4885H581.82V26.2485H576.7V20.8485H587V17.8885H576.7V16.8085H588.28V21.9285H577.98V25.1685H588.74V26.2485H583.1V29.4885H590.38V30.5885ZM605.579 21.9285V22.9885H599.239V27.3685C603.119 27.3685 605.899 27.1618 607.579 26.7485L607.759 27.8485C605.239 28.2885 601.972 28.5085 597.959 28.5085V17.0485H606.099V18.1285H599.239V21.9285H605.579ZM613.439 23.4685H610.519V32.8285H609.239V15.3485H610.519V22.3885H613.439V23.4685ZM627.424 20.5285H623.684V19.4285H627.424V15.3485H628.704V25.6285H627.424V20.5285ZM628.704 32.8285H627.424V27.6285H617.144V26.5485H628.704V32.8285ZM624.424 23.5685L623.644 24.5885C622.697 24.1085 621.844 23.4951 621.084 22.7485C620.337 22.0018 619.804 21.1951 619.484 20.3285C618.964 22.0885 617.504 23.6751 615.104 25.0885L614.324 24.1085C615.63 23.4818 616.697 22.6285 617.524 21.5485C618.364 20.4685 618.784 19.2551 618.784 17.9085V16.2085H620.064V17.8685C620.064 19.1751 620.51 20.3485 621.404 21.3885C622.297 22.4285 623.304 23.1551 624.424 23.5685ZM640.308 23.9885H632.668V16.2285H633.948V19.0085H639.028V16.2285H640.308V23.9885ZM646.708 32.6285H634.908V28.3885H644.748V26.6085H634.828V25.5285H646.028V29.4085H636.168V31.5485H646.708V32.6285ZM646.008 15.3485V24.5885H644.728V22.2485H641.268V21.1885H644.728V19.0885H641.268V18.0085H644.728V15.3485H646.008ZM639.028 22.9085V20.0685H633.948V22.9085H639.028ZM648.613 33.1885L649.393 29.2885H651.013L649.553 33.1885H648.613ZM674.645 21.3685H671.925V26.0685H670.645V15.3485H671.925V20.2685H674.645V21.3685ZM670.625 27.0685C671.665 27.6418 672.185 28.4418 672.185 29.4685C672.185 30.4951 671.665 31.3018 670.625 31.8885C669.585 32.4751 668.159 32.7685 666.345 32.7685C664.532 32.7685 663.105 32.4751 662.065 31.8885C661.039 31.3018 660.525 30.4951 660.525 29.4685C660.525 28.4418 661.039 27.6418 662.065 27.0685C663.105 26.4818 664.532 26.1885 666.345 26.1885C668.159 26.1885 669.585 26.4818 670.625 27.0685ZM666.345 27.2285C664.959 27.2285 663.859 27.4285 663.045 27.8285C662.245 28.2151 661.845 28.7618 661.845 29.4685C661.845 30.1751 662.245 30.7218 663.045 31.1085C663.859 31.4951 664.959 31.6885 666.345 31.6885C667.745 31.6885 668.845 31.4951 669.645 31.1085C670.459 30.7218 670.865 30.1751 670.865 29.4685C670.865 28.7618 670.459 28.2151 669.645 27.8285C668.845 27.4285 667.745 27.2285 666.345 27.2285ZM659.285 16.7685H667.185C667.025 18.9551 666.225 20.8285 664.785 22.3885C663.345 23.9485 661.485 25.0818 659.205 25.7885L658.545 24.6885C660.359 24.3018 661.959 23.4485 663.345 22.1285C664.732 20.7951 665.532 19.3685 665.745 17.8485H659.285V16.7685ZM692.15 23.5885H689.23V32.8285H687.95V15.3485H689.23V22.4885H692.15V23.5885ZM686.15 27.5285L685.29 28.5485C684.37 27.8951 683.477 27.0685 682.61 26.0685C681.743 25.0551 681.15 24.0418 680.83 23.0285C680.523 24.1085 679.97 25.1685 679.17 26.2085C678.383 27.2351 677.443 28.1685 676.35 29.0085L675.47 28.0085C676.75 27.2218 677.85 26.1018 678.77 24.6485C679.703 23.1951 680.17 21.7418 680.17 20.2885V16.9885H681.49V20.2685C681.49 21.7485 681.95 23.1551 682.87 24.4885C683.79 25.8085 684.883 26.8218 686.15 27.5285ZM701.715 23.9885H694.075V16.2285H695.355V19.0085H700.435V16.2285H701.715V23.9885ZM708.115 32.6285H696.315V28.3885H706.155V26.6085H696.235V25.5285H707.435V29.4085H697.575V31.5485H708.115V32.6285ZM707.415 15.3485V24.5885H706.135V22.2485H702.675V21.1885H706.135V19.0885H702.675V18.0085H706.135V15.3485H707.415ZM700.435 22.9085V20.0685H695.355V22.9085H700.435ZM726.259 30.5885H710.479V29.4885H717.699V26.2485H712.579V20.8485H722.879V17.8885H712.579V16.8085H724.159V21.9285H713.859V25.1685H724.619V26.2485H718.979V29.4885H726.259V30.5885ZM737.058 16.8285C738.631 16.8285 739.724 17.7551 740.338 19.6085H743.078V15.6885H744.338V31.9085H743.078V26.1685H740.318C739.678 27.9418 738.591 28.8285 737.058 28.8285C735.858 28.8285 734.931 28.2951 734.278 27.2285C733.624 26.1618 733.298 24.6951 733.298 22.8285C733.298 20.9618 733.624 19.4951 734.278 18.4285C734.931 17.3618 735.858 16.8285 737.058 16.8285ZM738.838 26.4485C739.278 25.5685 739.498 24.3618 739.498 22.8285C739.498 21.2951 739.278 20.0951 738.838 19.2285C738.411 18.3485 737.818 17.9085 737.058 17.9085C736.298 17.9085 735.698 18.3485 735.258 19.2285C734.831 20.0951 734.618 21.2951 734.618 22.8285C734.618 24.3618 734.831 25.5685 735.258 26.4485C735.698 27.3285 736.298 27.7685 737.058 27.7685C737.818 27.7685 738.411 27.3285 738.838 26.4485ZM747.758 32.8285H746.478V15.3485H747.758V32.8285ZM743.078 20.6885H740.618C740.751 21.3151 740.818 22.0285 740.818 22.8285C740.818 23.6151 740.744 24.3618 740.598 25.0685H743.078V20.6885ZM754.983 16.3485C756.196 16.3485 757.223 16.7218 758.063 17.4685C758.916 18.2151 759.343 19.1951 759.343 20.4085C759.343 21.6218 758.916 22.6085 758.063 23.3685C757.223 24.1151 756.196 24.4885 754.983 24.4885C753.756 24.4885 752.723 24.1151 751.883 23.3685C751.043 22.6218 750.623 21.6418 750.623 20.4285C750.623 19.2151 751.043 18.2351 751.883 17.4885C752.723 16.7285 753.756 16.3485 754.983 16.3485ZM754.983 17.4485C754.089 17.4485 753.356 17.7285 752.783 18.2885C752.209 18.8351 751.923 19.5418 751.923 20.4085C751.923 21.2751 752.209 21.9885 752.783 22.5485C753.369 23.1085 754.103 23.3885 754.983 23.3885C755.903 23.3885 756.643 23.1151 757.203 22.5685C757.763 22.0218 758.043 21.3085 758.043 20.4285C758.043 19.5485 757.763 18.8351 757.203 18.2885C756.643 17.7285 755.903 17.4485 754.983 17.4485ZM766.423 21.8485V22.9485H763.703V25.7285H762.423V15.3485H763.703V18.0885H766.423V19.1885H763.703V21.8485H766.423ZM763.723 32.8285H762.423V27.6685H752.523V26.5685H763.723V32.8285ZM783.727 21.2685H781.027V25.2885H779.747V15.3485H781.027V20.1885H783.727V21.2685ZM781.707 32.7085H770.147V28.8285H779.747V27.2485H770.087V26.2085H781.027V29.8685H771.427V31.6485H781.707V32.7085ZM775.067 16.7885H770.087V15.6485H775.067V16.7885ZM777.647 19.0685H767.587V17.9885H777.647V19.0685ZM775.467 20.5085C776.214 20.9618 776.587 21.6085 776.587 22.4485C776.587 23.2885 776.221 23.9351 775.487 24.3885C774.754 24.8418 773.781 25.0685 772.567 25.0685C771.407 25.0685 770.454 24.8418 769.707 24.3885C768.961 23.9351 768.587 23.2885 768.587 22.4485C768.587 21.6085 768.954 20.9618 769.687 20.5085C770.434 20.0551 771.394 19.8285 772.567 19.8285C773.754 19.8285 774.721 20.0551 775.467 20.5085ZM775.307 22.4485C775.307 21.9418 775.047 21.5618 774.527 21.3085C774.007 21.0418 773.354 20.9085 772.567 20.9085C771.781 20.9085 771.134 21.0418 770.627 21.3085C770.121 21.5618 769.867 21.9418 769.867 22.4485C769.867 22.9418 770.127 23.3285 770.647 23.6085C771.167 23.8751 771.807 24.0085 772.567 24.0085C773.341 24.0085 773.987 23.8751 774.507 23.6085C775.041 23.3285 775.307 22.9418 775.307 22.4485ZM798.706 32.8485H797.426V26.3885H790.206V25.2885H805.986V26.3885H798.706V32.8485ZM805.186 22.1485L804.486 23.2085C803.139 22.9151 801.846 22.3685 800.606 21.5685C799.379 20.7551 798.539 19.8751 798.086 18.9285C797.659 19.8751 796.826 20.7618 795.586 21.5885C794.359 22.4151 793.072 22.9685 791.726 23.2485L791.026 22.1885C792.706 21.9618 794.192 21.3485 795.486 20.3485C796.779 19.3351 797.426 18.2685 797.426 17.1485V16.1285H798.746V17.1485C798.746 18.2418 799.439 19.3085 800.826 20.3485C802.226 21.3885 803.679 21.9885 805.186 22.1485ZM256.34 63.5085H255.06V53.3485H256.34V63.5085ZM243.84 55.5285C244.694 54.7818 245.74 54.4085 246.98 54.4085C248.22 54.4085 249.267 54.7818 250.12 55.5285C250.987 56.2618 251.42 57.2218 251.42 58.4085C251.42 59.5951 250.987 60.5618 250.12 61.3085C249.267 62.0551 248.22 62.4285 246.98 62.4285C245.74 62.4285 244.694 62.0618 243.84 61.3285C242.987 60.5818 242.56 59.6151 242.56 58.4285C242.56 57.2418 242.987 56.2751 243.84 55.5285ZM246.98 55.5085C246.087 55.5085 245.34 55.7818 244.74 56.3285C244.154 56.8618 243.86 57.5551 243.86 58.4085C243.86 59.2618 244.16 59.9618 244.76 60.5085C245.36 61.0551 246.1 61.3285 246.98 61.3285C247.914 61.3285 248.667 61.0618 249.24 60.5285C249.814 59.9951 250.1 59.2951 250.1 58.4285C250.1 57.5618 249.814 56.8618 249.24 56.3285C248.667 55.7818 247.914 55.5085 246.98 55.5085ZM257.16 70.8485H257.14C256.487 70.5151 255.827 70.0151 255.16 69.3485C254.507 68.6685 254.067 68.0151 253.84 67.3885C253.614 68.0685 253.167 68.7618 252.5 69.4685C251.834 70.1751 251.14 70.7085 250.42 71.0685L249.62 70.2085C250.607 69.7285 251.447 69.0418 252.14 68.1485C252.847 67.2418 253.2 66.2951 253.2 65.3085V64.1085H254.48V65.2085C254.48 66.2218 254.84 67.1818 255.56 68.0885C256.28 68.9951 257.08 69.6151 257.96 69.9485L257.16 70.8485ZM250.64 68.7485L249.72 69.6485C249.214 69.3685 248.74 69.0085 248.3 68.5685C247.86 68.1151 247.534 67.6285 247.32 67.1085C247.12 67.7751 246.674 68.4818 245.98 69.2285C245.3 69.9618 244.574 70.5151 243.8 70.8885L243.04 69.9685C243.974 69.5818 244.807 68.9351 245.54 68.0285C246.274 67.1218 246.64 66.1685 246.64 65.1685V64.1285H247.92V65.0285C247.92 65.9351 248.18 66.7085 248.7 67.3485C249.22 67.9885 249.867 68.4551 250.64 68.7485ZM275.185 63.5885H259.405V62.4885H275.185V63.5885ZM273.345 70.3885H261.605V65.3085H262.865V69.2885H273.345V70.3885ZM273.285 60.0085H261.625V53.9485H262.885V58.9085H273.285V60.0085ZM296.204 70.8285H294.924V60.7885H290.784V59.7085H294.924V53.3485H296.204V70.8285ZM292.384 65.5285L291.564 66.5085C290.67 65.9085 289.81 65.1018 288.984 64.0885C288.157 63.0751 287.57 62.0418 287.224 60.9885C286.917 62.0818 286.37 63.1485 285.584 64.1885C284.81 65.2151 283.884 66.1418 282.804 66.9685L281.924 66.0085C283.204 65.2351 284.297 64.1218 285.204 62.6685C286.11 61.2018 286.564 59.7418 286.564 58.2885V54.8685H287.884V58.2685C287.884 59.7485 288.324 61.1551 289.204 62.4885C290.084 63.8218 291.144 64.8351 292.384 65.5285ZM313.488 70.8285H312.208V53.3485H313.488V70.8285ZM308.428 66.3885H300.368V54.9285H301.648V59.3685H307.148V54.9285H308.428V66.3885ZM307.148 65.2885V60.4685H301.648V65.2885H307.148ZM331.673 62.3885L330.953 63.4285C329.473 62.9485 328.1 62.1885 326.833 61.1485C325.566 60.0951 324.766 59.1351 324.433 58.2685C324.153 59.1485 323.393 60.1085 322.153 61.1485C320.913 62.1885 319.52 62.9351 317.973 63.3885L317.273 62.3485C318.246 62.1485 319.226 61.7418 320.213 61.1285C321.213 60.5151 322.06 59.7551 322.753 58.8485C323.446 57.9418 323.793 57.0485 323.793 56.1685V54.9285H325.113V56.1685C325.113 57.4618 325.833 58.7351 327.273 59.9885C328.713 61.2285 330.18 62.0285 331.673 62.3885ZM332.353 68.3885H316.573V67.3085H332.353V68.3885ZM348.118 62.7085H346.838V53.3485H348.118V62.7085ZM348.138 70.5885H336.918V63.6885H338.198V66.0685H346.858V63.6885H348.138V70.5885ZM346.858 69.5285V67.1285H338.198V69.5285H346.858ZM338.798 54.2285C340.011 54.2285 341.038 54.5951 341.878 55.3285C342.731 56.0618 343.158 57.0151 343.158 58.1885C343.158 59.3618 342.731 60.3151 341.878 61.0485C341.038 61.7818 340.011 62.1485 338.798 62.1485C337.571 62.1485 336.538 61.7885 335.698 61.0685C334.858 60.3351 334.438 59.3818 334.438 58.2085C334.438 57.0218 334.858 56.0618 335.698 55.3285C336.538 54.5951 337.571 54.2285 338.798 54.2285ZM338.798 55.3885C337.904 55.3885 337.164 55.6485 336.578 56.1685C336.004 56.6751 335.718 57.3485 335.718 58.1885C335.718 59.0151 336.011 59.6951 336.598 60.2285C337.184 60.7485 337.918 61.0085 338.798 61.0085C339.718 61.0085 340.458 60.7485 341.018 60.2285C341.578 59.7085 341.858 59.0351 341.858 58.2085C341.858 57.3685 341.578 56.6885 341.018 56.1685C340.458 55.6485 339.718 55.3885 338.798 55.3885ZM365.242 70.8285H363.962V53.3485H365.242V70.8285ZM362.362 65.5485C361.202 65.8018 359.649 66.0151 357.702 66.1885C355.769 66.3485 353.976 66.4285 352.322 66.4285V55.1485H353.602V65.2885C354.776 65.2885 356.242 65.2085 358.002 65.0485C359.762 64.8885 361.156 64.6951 362.182 64.4685L362.362 65.5485ZM384.767 61.4685H381.847V70.8285H380.567V53.3485H381.847V60.3885H384.767V61.4685ZM379.127 65.8285C376.274 66.3485 372.994 66.5485 369.287 66.4285V55.1685H377.427V56.2685H370.567V65.2885C371.834 65.3551 373.3 65.3351 374.967 65.2285C376.647 65.1085 377.974 64.9418 378.947 64.7285L379.127 65.8285ZM385.892 68.9885V67.3085H387.552V68.9885H385.892ZM411.564 61.5885H408.644V70.8285H407.364V53.3485H408.644V60.4885H411.564V61.5885ZM405.564 65.5285L404.704 66.5485C403.784 65.8951 402.891 65.0685 402.024 64.0685C401.157 63.0551 400.564 62.0418 400.244 61.0285C399.937 62.1085 399.384 63.1685 398.584 64.2085C397.797 65.2351 396.857 66.1685 395.764 67.0085L394.884 66.0085C396.164 65.2218 397.264 64.1018 398.184 62.6485C399.117 61.1951 399.584 59.7418 399.584 58.2885V54.9885H400.904V58.2685C400.904 59.7485 401.364 61.1551 402.284 62.4885C403.204 63.8085 404.297 64.8218 405.564 65.5285ZM426.409 56.9485C426.409 58.1885 425.675 59.0685 424.209 59.5885V62.4085H428.369V63.5085H412.589V62.4085H416.709V59.5685C415.242 59.0485 414.509 58.1751 414.509 56.9485C414.509 55.9218 415.029 55.1418 416.069 54.6085C417.122 54.0618 418.589 53.7885 420.469 53.7885C422.349 53.7885 423.809 54.0618 424.849 54.6085C425.889 55.1418 426.409 55.9218 426.409 56.9485ZM426.489 67.6685C426.489 68.6551 425.955 69.4085 424.889 69.9285C423.822 70.4618 422.349 70.7285 420.469 70.7285C418.589 70.7285 417.122 70.4618 416.069 69.9285C415.015 69.4085 414.489 68.6551 414.489 67.6685C414.489 66.6951 415.015 65.9485 416.069 65.4285C417.122 64.8951 418.589 64.6285 420.469 64.6285C422.349 64.6285 423.822 64.8951 424.889 65.4285C425.955 65.9485 426.489 66.6951 426.489 67.6685ZM423.889 58.5085C424.715 58.1618 425.129 57.6418 425.129 56.9485C425.129 56.2551 424.715 55.7351 423.889 55.3885C423.062 55.0418 421.922 54.8685 420.469 54.8685C419.029 54.8685 417.895 55.0418 417.069 55.3885C416.255 55.7351 415.849 56.2551 415.849 56.9485C415.849 57.6418 416.255 58.1618 417.069 58.5085C417.895 58.8551 419.029 59.0285 420.469 59.0285C421.922 59.0285 423.062 58.8551 423.889 58.5085ZM420.469 65.7085C419.029 65.7085 417.889 65.8751 417.049 66.2085C416.222 66.5285 415.809 67.0151 415.809 67.6685C415.809 68.3218 416.222 68.8151 417.049 69.1485C417.889 69.4818 419.029 69.6485 420.469 69.6485C421.935 69.6485 423.082 69.4885 423.909 69.1685C424.735 68.8351 425.149 68.3351 425.149 67.6685C425.149 67.0151 424.729 66.5285 423.889 66.2085C423.062 65.8751 421.922 65.7085 420.469 65.7085ZM420.469 60.1285C419.589 60.1285 418.762 60.0551 417.989 59.9085V62.4085H422.929V59.9285C422.222 60.0618 421.402 60.1285 420.469 60.1285ZM440.073 65.7285L439.273 66.7085C438.34 66.0685 437.453 65.2551 436.613 64.2685C435.773 63.2818 435.193 62.2751 434.873 61.2485C434.26 63.3818 432.793 65.3418 430.473 67.1285L429.613 66.1685C430.893 65.3951 431.98 64.2951 432.873 62.8685C433.767 61.4418 434.213 60.0018 434.213 58.5485V56.2885H430.253V55.1885H439.493V56.2885H435.533V58.5085C435.533 59.9885 435.973 61.3885 436.853 62.7085C437.747 64.0151 438.82 65.0218 440.073 65.7285ZM446.213 61.6485H443.253V70.8285H441.973V53.3485H443.253V60.5485H446.213V61.6485ZM460.558 53.3485V60.8085H463.518V61.9085H460.558V70.8285H459.278V53.3485H460.558ZM455.958 55.2485C455.905 57.9818 455.171 60.3485 453.758 62.3485C452.345 64.3485 450.478 65.9751 448.158 67.2285L447.378 66.2085C449.578 65.1151 451.291 63.7151 452.518 62.0085C453.758 60.2885 454.458 58.4018 454.618 56.3485H447.958V55.2485H455.958ZM478.417 55.0685C479.243 55.6418 479.657 56.4218 479.657 57.4085C479.657 58.3951 479.243 59.1685 478.417 59.7285C477.603 60.2751 476.537 60.5485 475.217 60.5485C473.897 60.5485 472.823 60.2751 471.997 59.7285C471.183 59.1685 470.777 58.3951 470.777 57.4085C470.777 56.4218 471.19 55.6418 472.017 55.0685C472.843 54.4951 473.91 54.2085 475.217 54.2085C476.537 54.2085 477.603 54.4951 478.417 55.0685ZM478.357 57.4085C478.357 56.7818 478.063 56.2818 477.477 55.9085C476.903 55.5218 476.15 55.3285 475.217 55.3285C474.283 55.3285 473.523 55.5151 472.937 55.8885C472.363 56.2618 472.077 56.7685 472.077 57.4085C472.077 58.0485 472.363 58.5551 472.937 58.9285C473.523 59.2885 474.283 59.4685 475.217 59.4685C476.15 59.4685 476.903 59.2885 477.477 58.9285C478.063 58.5551 478.357 58.0485 478.357 57.4085ZM483.997 66.7085H482.717V64.7485H479.197V63.6685H482.717V53.3485H483.997V66.7085ZM484.377 70.4085H472.157V65.4085H473.437V69.3085H484.377V70.4085ZM475.837 65.8485H474.557V62.7085C473.93 62.7351 472.363 62.7818 469.857 62.8485L469.597 61.7085C470.943 61.7085 472.883 61.6685 475.417 61.5885C477.963 61.4685 479.797 61.3418 480.917 61.2085L481.037 62.2285C480.463 62.3085 478.73 62.4485 475.837 62.6485V65.8485ZM503.341 61.8885H500.421V70.8285H499.141V53.3485H500.421V60.7885H503.341V61.8885ZM494.581 55.7685H489.521V54.6285H494.581V55.7685ZM497.221 58.6685H487.001V57.5885H497.221V58.6685ZM496.281 63.5085C496.281 64.5218 495.908 65.3685 495.161 66.0485C494.415 66.7151 493.448 67.0485 492.261 67.0485C491.075 67.0485 490.101 66.7151 489.341 66.0485C488.595 65.3685 488.221 64.5218 488.221 63.5085C488.221 62.4818 488.595 61.6285 489.341 60.9485C490.088 60.2685 491.061 59.9285 492.261 59.9285C493.448 59.9285 494.415 60.2685 495.161 60.9485C495.908 61.6285 496.281 62.4818 496.281 63.5085ZM494.221 65.2885C494.741 64.8218 495.001 64.2285 495.001 63.5085C495.001 62.7885 494.741 62.1951 494.221 61.7285C493.701 61.2618 493.048 61.0285 492.261 61.0285C491.475 61.0285 490.821 61.2618 490.301 61.7285C489.781 62.1951 489.521 62.7885 489.521 63.5085C489.521 64.2285 489.781 64.8218 490.301 65.2885C490.821 65.7551 491.475 65.9885 492.261 65.9885C493.048 65.9885 493.701 65.7551 494.221 65.2885ZM520.146 63.5885H504.366V62.4885H520.146V63.5885ZM518.306 70.3885H506.566V65.3085H507.826V69.2885H518.306V70.3885ZM518.246 60.0085H506.586V53.9485H507.846V58.9085H518.246V60.0085ZM541.245 70.8285H539.965V53.3485H541.245V70.8285ZM537.485 65.5285L536.645 66.5485C535.725 65.9085 534.831 65.0885 533.965 64.0885C533.098 63.0751 532.498 62.0551 532.165 61.0285C531.858 62.1085 531.305 63.1685 530.505 64.2085C529.718 65.2351 528.778 66.1685 527.685 67.0085L526.805 66.0085C528.085 65.2218 529.185 64.1018 530.105 62.6485C531.038 61.1951 531.505 59.7418 531.505 58.2885V54.9885H532.825V58.2685C532.825 59.7485 533.285 61.1551 534.205 62.4885C535.125 63.8085 536.218 64.8218 537.485 65.5285ZM560.309 60.0685H557.589V66.4285H556.309V53.3485H557.589V58.9685H560.309V60.0685ZM558.169 70.4085H546.729V65.0885H548.009V69.3085H558.169V70.4085ZM544.869 54.8685H552.689C552.529 57.0951 551.749 58.9885 550.349 60.5485C548.963 62.1085 547.109 63.2818 544.789 64.0685L544.129 62.9685C546.076 62.4218 547.696 61.5018 548.989 60.2085C550.283 58.9018 551.036 57.4885 551.249 55.9685H544.869V54.8685ZM565.614 54.9685C566.721 54.9685 567.587 55.4485 568.214 56.4085C568.854 57.3551 569.207 58.6618 569.274 60.3285H571.574V53.6885H572.854V69.9685H571.574V61.4085H569.274C569.207 63.0618 568.854 64.3618 568.214 65.3085C567.574 66.2418 566.707 66.7085 565.614 66.7085C564.441 66.7085 563.527 66.1885 562.874 65.1485C562.234 64.0951 561.914 62.6551 561.914 60.8285C561.914 59.0018 562.234 57.5685 562.874 56.5285C563.527 55.4885 564.441 54.9685 565.614 54.9685ZM567.354 64.3285C567.781 63.4751 567.994 62.3085 567.994 60.8285C567.994 59.3485 567.781 58.1885 567.354 57.3485C566.927 56.5085 566.347 56.0885 565.614 56.0885C564.867 56.0885 564.281 56.5085 563.854 57.3485C563.427 58.1885 563.214 59.3485 563.214 60.8285C563.214 62.3085 563.427 63.4751 563.854 64.3285C564.281 65.1685 564.867 65.5885 565.614 65.5885C566.347 65.5885 566.927 65.1685 567.354 64.3285ZM576.254 70.8285H574.974V53.3485H576.254V70.8285ZM588.113 54.8285C589.686 54.8285 590.779 55.7551 591.393 57.6085H594.133V53.6885H595.393V69.9085H594.133V64.1685H591.373C590.733 65.9418 589.646 66.8285 588.113 66.8285C586.913 66.8285 585.986 66.2951 585.333 65.2285C584.679 64.1618 584.353 62.6951 584.353 60.8285C584.353 58.9618 584.679 57.4951 585.333 56.4285C585.986 55.3618 586.913 54.8285 588.113 54.8285ZM589.893 64.4485C590.333 63.5685 590.553 62.3618 590.553 60.8285C590.553 59.2951 590.333 58.0951 589.893 57.2285C589.466 56.3485 588.873 55.9085 588.113 55.9085C587.353 55.9085 586.753 56.3485 586.313 57.2285C585.886 58.0951 585.673 59.2951 585.673 60.8285C585.673 62.3618 585.886 63.5685 586.313 64.4485C586.753 65.3285 587.353 65.7685 588.113 65.7685C588.873 65.7685 589.466 65.3285 589.893 64.4485ZM598.813 70.8285H597.533V53.3485H598.813V70.8285ZM594.133 58.6885H591.673C591.806 59.3151 591.873 60.0285 591.873 60.8285C591.873 61.6151 591.799 62.3618 591.653 63.0685H594.133V58.6885ZM606.037 54.3485C607.251 54.3485 608.277 54.7218 609.117 55.4685C609.971 56.2151 610.397 57.1951 610.397 58.4085C610.397 59.6218 609.971 60.6085 609.117 61.3685C608.277 62.1151 607.251 62.4885 606.037 62.4885C604.811 62.4885 603.777 62.1151 602.937 61.3685C602.097 60.6218 601.677 59.6418 601.677 58.4285C601.677 57.2151 602.097 56.2351 602.937 55.4885C603.777 54.7285 604.811 54.3485 606.037 54.3485ZM606.037 55.4485C605.144 55.4485 604.411 55.7285 603.837 56.2885C603.264 56.8351 602.977 57.5418 602.977 58.4085C602.977 59.2751 603.264 59.9885 603.837 60.5485C604.424 61.1085 605.157 61.3885 606.037 61.3885C606.957 61.3885 607.697 61.1151 608.257 60.5685C608.817 60.0218 609.097 59.3085 609.097 58.4285C609.097 57.5485 608.817 56.8351 608.257 56.2885C607.697 55.7285 606.957 55.4485 606.037 55.4485ZM617.477 59.8485V60.9485H614.757V63.7285H613.477V53.3485H614.757V56.0885H617.477V57.1885H614.757V59.8485H617.477ZM614.777 70.8285H613.477V65.6685H603.577V64.5685H614.777V70.8285ZM634.982 61.8885H632.062V70.8285H630.782V53.3485H632.062V60.7885H634.982V61.8885ZM626.222 55.7685H621.162V54.6285H626.222V55.7685ZM628.862 58.6685H618.642V57.5885H628.862V58.6685ZM627.922 63.5085C627.922 64.5218 627.549 65.3685 626.802 66.0485C626.055 66.7151 625.089 67.0485 623.902 67.0485C622.715 67.0485 621.742 66.7151 620.982 66.0485C620.235 65.3685 619.862 64.5218 619.862 63.5085C619.862 62.4818 620.235 61.6285 620.982 60.9485C621.729 60.2685 622.702 59.9285 623.902 59.9285C625.089 59.9285 626.055 60.2685 626.802 60.9485C627.549 61.6285 627.922 62.4818 627.922 63.5085ZM625.862 65.2885C626.382 64.8218 626.642 64.2285 626.642 63.5085C626.642 62.7885 626.382 62.1951 625.862 61.7285C625.342 61.2618 624.689 61.0285 623.902 61.0285C623.115 61.0285 622.462 61.2618 621.942 61.7285C621.422 62.1951 621.162 62.7885 621.162 63.5085C621.162 64.2285 621.422 64.8218 621.942 65.2885C622.462 65.7551 623.115 65.9885 623.902 65.9885C624.689 65.9885 625.342 65.7551 625.862 65.2885ZM645.367 57.5285V56.4285H648.967V53.3485H650.247V66.0485H648.967V61.4085H645.367V60.3085H648.967V57.5285H645.367ZM650.627 70.2085H639.067V64.8685H640.347V69.1285H650.627V70.2085ZM644.627 62.9085H636.907V54.9685H644.627V62.9085ZM643.347 61.8085V56.0685H638.187V61.8085H643.347ZM674.645 60.1685H671.925V66.5085H670.645V53.3485H671.925V59.0885H674.645V60.1685ZM672.685 70.4085H661.085V65.3485H662.345V69.3085H672.685V70.4085ZM669.465 63.1285C667.719 63.3951 665.825 63.5685 663.785 63.6485C662.145 63.7418 660.405 63.7885 658.565 63.7885L658.325 62.6285C660.099 62.6285 661.405 62.6151 662.245 62.5885V58.6285H663.525V62.5485C666.045 62.4551 667.972 62.2951 669.305 62.0685L669.465 63.1285ZM668.045 54.7485C668.045 57.3618 667.859 59.3618 667.485 60.7485L666.245 60.5485C666.565 59.3885 666.725 57.8151 666.725 55.8285H659.485V54.7485H668.045ZM687.13 65.9885C684.397 66.3751 680.99 66.5685 676.91 66.5685V60.0085H683.59V56.0885H676.83V54.9885H684.87V61.0885H678.19V65.4685C681.817 65.4951 684.743 65.2951 686.97 64.8685L687.13 65.9885ZM690.09 70.8285H688.81V53.3485H690.09V70.8285ZM703.355 65.7285L702.555 66.7085C701.621 66.0685 700.735 65.2551 699.895 64.2685C699.055 63.2818 698.475 62.2751 698.155 61.2485C697.541 63.3818 696.075 65.3418 693.755 67.1285L692.895 66.1685C694.175 65.3951 695.261 64.2951 696.155 62.8685C697.048 61.4418 697.495 60.0018 697.495 58.5485V56.2885H693.535V55.1885H702.775V56.2885H698.815V58.5085C698.815 59.9885 699.255 61.3885 700.135 62.7085C701.028 64.0151 702.101 65.0218 703.355 65.7285ZM709.495 61.6485H706.535V70.8285H705.255V53.3485H706.535V60.5485H709.495V61.6485ZM724.299 56.9485C724.299 58.1885 723.566 59.0685 722.099 59.5885V62.4085H726.259V63.5085H710.479V62.4085H714.599V59.5685C713.133 59.0485 712.399 58.1751 712.399 56.9485C712.399 55.9218 712.919 55.1418 713.959 54.6085C715.013 54.0618 716.479 53.7885 718.359 53.7885C720.239 53.7885 721.699 54.0618 722.739 54.6085C723.779 55.1418 724.299 55.9218 724.299 56.9485ZM724.379 67.6685C724.379 68.6551 723.846 69.4085 722.779 69.9285C721.713 70.4618 720.239 70.7285 718.359 70.7285C716.479 70.7285 715.013 70.4618 713.959 69.9285C712.906 69.4085 712.379 68.6551 712.379 67.6685C712.379 66.6951 712.906 65.9485 713.959 65.4285C715.013 64.8951 716.479 64.6285 718.359 64.6285C720.239 64.6285 721.713 64.8951 722.779 65.4285C723.846 65.9485 724.379 66.6951 724.379 67.6685ZM721.779 58.5085C722.606 58.1618 723.019 57.6418 723.019 56.9485C723.019 56.2551 722.606 55.7351 721.779 55.3885C720.953 55.0418 719.813 54.8685 718.359 54.8685C716.919 54.8685 715.786 55.0418 714.959 55.3885C714.146 55.7351 713.739 56.2551 713.739 56.9485C713.739 57.6418 714.146 58.1618 714.959 58.5085C715.786 58.8551 716.919 59.0285 718.359 59.0285C719.813 59.0285 720.953 58.8551 721.779 58.5085ZM718.359 65.7085C716.919 65.7085 715.779 65.8751 714.939 66.2085C714.113 66.5285 713.699 67.0151 713.699 67.6685C713.699 68.3218 714.113 68.8151 714.939 69.1485C715.779 69.4818 716.919 69.6485 718.359 69.6485C719.826 69.6485 720.973 69.4885 721.799 69.1685C722.626 68.8351 723.039 68.3351 723.039 67.6685C723.039 67.0151 722.619 66.5285 721.779 66.2085C720.953 65.8751 719.813 65.7085 718.359 65.7085ZM718.359 60.1285C717.479 60.1285 716.653 60.0551 715.879 59.9085V62.4085H720.819V59.9285C720.113 60.0618 719.293 60.1285 718.359 60.1285ZM747.758 70.5885H736.218V64.7685H737.478V66.5685H746.498V64.7685H747.758V70.5885ZM741.578 56.8085C741.578 57.7018 741.211 58.3885 740.478 58.8685C739.744 59.3485 738.838 59.5885 737.758 59.5885C736.638 59.5885 735.704 59.3551 734.958 58.8885C734.224 58.4085 733.858 57.7151 733.858 56.8085C733.858 55.8885 734.224 55.1885 734.958 54.7085C735.691 54.2151 736.624 53.9685 737.758 53.9685C738.851 53.9685 739.758 54.2151 740.478 54.7085C741.211 55.1885 741.578 55.8885 741.578 56.8085ZM746.498 69.5085V67.6685H737.478V69.5085H746.498ZM744.698 63.9685H743.438V63.1285H740.198V62.0685H743.438V53.6285H744.698V63.9685ZM740.338 56.8085C740.338 56.2485 740.104 55.8085 739.638 55.4885C739.171 55.1685 738.544 55.0085 737.758 55.0085C736.971 55.0085 736.331 55.1685 735.838 55.4885C735.344 55.8085 735.098 56.2485 735.098 56.8085C735.098 57.3551 735.351 57.7818 735.858 58.0885C736.364 58.3818 736.998 58.5285 737.758 58.5285C738.491 58.5285 739.104 58.3818 739.598 58.0885C740.091 57.7818 740.338 57.3551 740.338 56.8085ZM747.758 64.0285H746.478V53.3485H747.758V64.0285ZM738.378 63.9485H737.098V61.5085C735.738 61.6018 734.391 61.6485 733.058 61.6485L732.858 60.5085C734.378 60.5085 735.964 60.4685 737.618 60.3885C739.751 60.2551 741.344 60.1218 742.398 59.9885L742.518 61.0285C741.398 61.1885 740.018 61.3218 738.378 61.4285V63.9485ZM766.123 68.3885H750.343V67.3085H766.123V68.3885ZM764.443 59.2485C764.443 60.5685 763.869 61.6218 762.723 62.4085C761.589 63.1951 760.083 63.5885 758.203 63.5885C756.323 63.5885 754.816 63.1951 753.683 62.4085C752.563 61.6218 752.003 60.5685 752.003 59.2485C752.003 57.9418 752.569 56.8951 753.703 56.1085C754.836 55.3085 756.336 54.9085 758.203 54.9085C760.083 54.9085 761.589 55.3085 762.723 56.1085C763.869 56.8951 764.443 57.9418 764.443 59.2485ZM763.183 59.2485C763.183 58.2885 762.729 57.5151 761.823 56.9285C760.916 56.3418 759.709 56.0485 758.203 56.0485C756.709 56.0485 755.509 56.3418 754.603 56.9285C753.709 57.5151 753.263 58.2885 753.263 59.2485C753.263 60.1951 753.716 60.9618 754.623 61.5485C755.529 62.1351 756.723 62.4285 758.203 62.4285C759.696 62.4285 760.896 62.1351 761.803 61.5485C762.723 60.9618 763.183 60.1951 763.183 59.2485ZM783.427 68.5885H767.647V67.4885H774.867V64.2485H769.747V58.8485H780.047V55.8885H769.747V54.8085H781.327V59.9285H771.027V63.1685H781.787V64.2485H776.147V67.4885H783.427V68.5885ZM257.2 100.128L256.48 101.168C255 100.688 253.627 99.9218 252.36 98.8685C251.094 97.8151 250.294 96.8485 249.96 95.9685C249.68 96.8618 248.92 97.8351 247.68 98.8885C246.44 99.9285 245.047 100.675 243.5 101.128L242.8 100.088C243.774 99.8885 244.754 99.4818 245.74 98.8685C246.74 98.2551 247.587 97.4951 248.28 96.5885C248.974 95.6818 249.32 94.7885 249.32 93.9085V92.7085H250.64V93.9085C250.64 95.2018 251.36 96.4751 252.8 97.7285C254.24 98.9685 255.707 99.7685 257.2 100.128ZM257.88 106.588H242.1V105.488H249.32V101.008H250.6V105.488H257.88V106.588ZM270.665 103.988C267.932 104.375 264.525 104.568 260.445 104.568V98.0085H267.125V94.0885H260.365V92.9885H268.405V99.0885H261.725V103.468C265.352 103.495 268.278 103.295 270.505 102.868L270.665 103.988ZM273.625 108.828H272.345V91.3485H273.625V108.828ZM281.95 92.5685C283.243 92.5685 284.336 92.9485 285.23 93.7085C286.123 94.4551 286.57 95.4351 286.57 96.6485C286.57 97.7551 286.196 98.6751 285.45 99.4085C284.703 100.142 283.756 100.568 282.61 100.688V103.688C285.063 103.542 286.736 103.402 287.63 103.268L287.73 104.348C286.196 104.535 284.283 104.695 281.99 104.828C280.11 104.962 278.356 105.028 276.73 105.028L276.47 103.848C278.056 103.848 279.676 103.822 281.33 103.768V100.688C280.183 100.568 279.23 100.142 278.47 99.4085C277.71 98.6751 277.33 97.7618 277.33 96.6685C277.33 95.4551 277.776 94.4685 278.67 93.7085C279.576 92.9485 280.67 92.5685 281.95 92.5685ZM281.95 93.6485C281.003 93.6485 280.21 93.9285 279.57 94.4885C278.93 95.0485 278.61 95.7685 278.61 96.6485C278.61 97.5285 278.93 98.2551 279.57 98.8285C280.21 99.3885 281.003 99.6685 281.95 99.6685C282.936 99.6685 283.736 99.3951 284.35 98.8485C284.963 98.2885 285.27 97.5618 285.27 96.6685C285.27 95.7751 284.963 95.0485 284.35 94.4885C283.736 93.9285 282.936 93.6485 281.95 93.6485ZM292.99 99.8485H290.07V108.828H288.79V91.3485H290.07V98.7685H292.99V99.8485ZM315.348 97.7285H312.648V102.248H311.368V91.3485H312.648V96.6285H315.348V97.7285ZM312.648 108.568H301.668V103.088H312.648V108.568ZM311.368 107.488V104.168H302.948V107.488H311.368ZM306.688 92.9485H301.708V91.8285H306.688V92.9485ZM309.188 95.3285H299.208V94.2285H309.188V95.3285ZM308.068 99.0885C308.068 99.9551 307.702 100.655 306.968 101.188C306.235 101.708 305.295 101.968 304.148 101.968C303.002 101.968 302.062 101.708 301.328 101.188C300.595 100.668 300.228 99.9685 300.228 99.0885C300.228 98.2085 300.588 97.5151 301.308 97.0085C302.042 96.4885 302.988 96.2285 304.148 96.2285C305.308 96.2285 306.248 96.4885 306.968 97.0085C307.702 97.5151 308.068 98.2085 308.068 99.0885ZM306.028 100.408C306.548 100.075 306.808 99.6351 306.808 99.0885C306.808 98.5418 306.548 98.1085 306.028 97.7885C305.522 97.4551 304.895 97.2885 304.148 97.2885C303.402 97.2885 302.768 97.4551 302.248 97.7885C301.742 98.1085 301.488 98.5418 301.488 99.0885C301.488 99.6351 301.748 100.075 302.268 100.408C302.788 100.742 303.415 100.908 304.148 100.908C304.882 100.908 305.508 100.742 306.028 100.408ZM324.613 93.4685C324.586 95.5485 324.473 97.2151 324.273 98.4685H326.933V91.7885H328.193V107.908H326.933V99.5485H324.073C323.54 101.842 322.606 103.862 321.273 105.608L320.173 104.888C320.84 104.075 321.4 103.188 321.853 102.228C322.306 101.255 322.626 100.295 322.813 99.3485C323.013 98.4018 323.146 97.5551 323.213 96.8085C323.28 96.0485 323.3 95.3018 323.273 94.5685H321.453V93.4685H324.613ZM331.253 108.828H329.973V91.3485H331.253V108.828ZM320.933 93.4685C320.933 95.6018 320.666 97.5351 320.133 99.2685C319.6 101.002 318.686 102.615 317.393 104.108L316.353 103.388C317.006 102.655 317.566 101.868 318.033 101.028C318.5 100.175 318.833 99.3485 319.033 98.5485C319.246 97.7351 319.393 97.0151 319.473 96.3885C319.566 95.7618 319.613 95.1551 319.613 94.5685H317.113V93.4685H320.933ZM355.212 96.4085H352.492V100.348H351.212V91.3485H352.492V95.3285H355.212V96.4085ZM353.172 108.708H341.632V104.388H351.212V102.408H341.552V101.308H352.492V105.388H342.912V107.608H353.172V108.708ZM340.672 93.1485C341.538 92.4285 342.605 92.0685 343.872 92.0685C345.138 92.0685 346.205 92.4218 347.072 93.1285C347.952 93.8351 348.392 94.7551 348.392 95.8885C348.392 97.0218 347.952 97.9485 347.072 98.6685C346.205 99.3751 345.138 99.7285 343.872 99.7285C342.605 99.7285 341.538 99.3751 340.672 98.6685C339.805 97.9618 339.372 97.0418 339.372 95.9085C339.372 94.7751 339.805 93.8551 340.672 93.1485ZM343.872 93.1885C342.952 93.1885 342.192 93.4418 341.592 93.9485C340.992 94.4418 340.692 95.0885 340.692 95.8885C340.692 96.6885 340.992 97.3418 341.592 97.8485C342.192 98.3418 342.952 98.5885 343.872 98.5885C344.845 98.5885 345.618 98.3485 346.192 97.8685C346.778 97.3751 347.072 96.7218 347.072 95.9085C347.072 95.0951 346.778 94.4418 346.192 93.9485C345.605 93.4418 344.832 93.1885 343.872 93.1885ZM370.676 101.728H369.396V91.3485H370.676V101.728ZM370.696 108.568H359.016V102.688H370.696V108.568ZM369.416 107.488V103.788H360.296V107.488H369.416ZM366.936 100.288C364.603 100.622 361.39 100.788 357.296 100.788V95.9685H363.936V93.5085H357.256V92.4285H365.216V97.0485H358.576V99.6885C362.55 99.6885 365.283 99.5151 366.776 99.1685L366.936 100.288ZM387.961 108.828H386.681V91.3485H387.961V108.828ZM374.561 98.8485C374.561 96.9685 374.934 95.4818 375.681 94.3885C376.428 93.2818 377.474 92.7285 378.821 92.7285C380.181 92.7285 381.234 93.2818 381.981 94.3885C382.728 95.4818 383.101 96.9751 383.101 98.8685C383.101 100.748 382.728 102.242 381.981 103.348C381.234 104.455 380.181 105.008 378.821 105.008C377.474 105.008 376.428 104.455 375.681 103.348C374.934 102.242 374.561 100.742 374.561 98.8485ZM381.021 102.468C381.581 101.535 381.861 100.335 381.861 98.8685C381.861 97.4018 381.581 96.2018 381.021 95.2685C380.461 94.3351 379.728 93.8685 378.821 93.8685C377.914 93.8685 377.188 94.3351 376.641 95.2685C376.094 96.1885 375.821 97.3885 375.821 98.8685C375.821 100.335 376.094 101.535 376.641 102.468C377.188 103.388 377.914 103.848 378.821 103.848C379.728 103.848 380.461 103.388 381.021 102.468ZM409.44 99.0885H406.16V98.0085H409.44V91.3485H410.72V108.828H409.44V99.0885ZM401.66 103.908C400.326 104.215 398.746 104.368 396.92 104.368V93.2085H401.1V94.3085H398.2V103.208C399.106 103.262 400.2 103.135 401.48 102.828L401.66 103.908ZM407.86 103.868C406.433 104.202 404.553 104.368 402.22 104.368V93.2085H406.86V94.3085H403.5V103.208C405.18 103.208 406.566 103.068 407.66 102.788L407.86 103.868ZM435.138 99.4885H432.218V108.828H430.938V91.3485H432.218V98.4085H435.138V99.4885ZM427.478 104.388H419.558V92.9285H420.838V97.3685H426.198V92.9285H427.478V104.388ZM426.198 103.288V98.4685H420.838V103.288H426.198ZM451.943 106.588H436.163V105.488H443.383V102.248H438.263V96.8485H448.563V93.8885H438.263V92.8085H449.843V97.9285H439.543V101.168H450.303V102.248H444.663V105.488H451.943V106.588ZM469.661 102.008C468.115 102.208 466.261 102.375 464.101 102.508C461.701 102.655 459.901 102.728 458.701 102.728L458.461 101.608C459.941 101.608 461.548 101.562 463.281 101.468V100.188C461.108 100.015 460.021 99.2551 460.021 97.9085C460.021 97.1351 460.388 96.5551 461.121 96.1685C461.868 95.7818 462.808 95.5885 463.941 95.5885C465.088 95.5885 466.028 95.7818 466.761 96.1685C467.508 96.5551 467.881 97.1285 467.881 97.8885C467.881 98.5951 467.575 99.1418 466.961 99.5285C466.348 99.9018 465.548 100.122 464.561 100.188V101.388C466.695 101.282 468.361 101.142 469.561 100.968L469.661 102.008ZM474.801 98.3885H472.081V102.948H470.801V91.3485H472.081V97.2885H474.801V98.3885ZM460.761 103.848H472.081V108.968H470.801V104.948H460.761V103.848ZM465.901 98.8485C466.421 98.6351 466.681 98.3151 466.681 97.8885C466.681 97.4618 466.421 97.1485 465.901 96.9485C465.395 96.7351 464.741 96.6285 463.941 96.6285C463.155 96.6285 462.508 96.7351 462.001 96.9485C461.495 97.1485 461.241 97.4618 461.241 97.8885C461.241 98.3151 461.495 98.6351 462.001 98.8485C462.508 99.0618 463.155 99.1685 463.941 99.1685C464.728 99.1685 465.381 99.0618 465.901 98.8485ZM468.961 94.9685H459.061V93.8685H468.961V94.9685ZM466.361 92.7485H461.581V91.6085H466.361V92.7485ZM490.266 104.048H488.986V91.3485H490.266V104.048ZM490.726 108.208H478.926V102.888H480.206V107.128H490.726V108.208ZM477.786 93.7485C478.666 92.9618 479.733 92.5685 480.986 92.5685C482.239 92.5685 483.299 92.9551 484.166 93.7285C485.046 94.5018 485.486 95.5085 485.486 96.7485C485.486 98.0018 485.046 99.0218 484.166 99.8085C483.299 100.582 482.239 100.968 480.986 100.968C479.733 100.968 478.666 100.582 477.786 99.8085C476.906 99.0351 476.466 98.0285 476.466 96.7885C476.466 95.5351 476.906 94.5218 477.786 93.7485ZM480.986 93.7085C480.066 93.7085 479.299 93.9951 478.686 94.5685C478.086 95.1285 477.786 95.8551 477.786 96.7485C477.786 97.6551 478.093 98.4018 478.706 98.9885C479.319 99.5618 480.079 99.8485 480.986 99.8485C481.946 99.8485 482.719 99.5685 483.306 99.0085C483.893 98.4485 484.186 97.7085 484.186 96.7885C484.186 95.8685 483.893 95.1285 483.306 94.5685C482.719 93.9951 481.946 93.7085 480.986 93.7085ZM507.551 108.828H506.271V91.3485H507.551V108.828ZM494.151 98.8485C494.151 96.9685 494.524 95.4818 495.271 94.3885C496.017 93.2818 497.064 92.7285 498.411 92.7285C499.771 92.7285 500.824 93.2818 501.571 94.3885C502.317 95.4818 502.691 96.9751 502.691 98.8685C502.691 100.748 502.317 102.242 501.571 103.348C500.824 104.455 499.771 105.008 498.411 105.008C497.064 105.008 496.017 104.455 495.271 103.348C494.524 102.242 494.151 100.742 494.151 98.8485ZM500.611 102.468C501.171 101.535 501.451 100.335 501.451 98.8685C501.451 97.4018 501.171 96.2018 500.611 95.2685C500.051 94.3351 499.317 93.8685 498.411 93.8685C497.504 93.8685 496.777 94.3351 496.231 95.2685C495.684 96.1885 495.411 97.3885 495.411 98.8685C495.411 100.335 495.684 101.535 496.231 102.468C496.777 103.388 497.504 103.848 498.411 103.848C499.317 103.848 500.051 103.388 500.611 102.468ZM529.249 91.3485V98.8085H532.209V99.9085H529.249V108.828H527.969V91.3485H529.249ZM524.649 93.2485C524.596 95.9818 523.863 98.3485 522.449 100.348C521.036 102.348 519.169 103.975 516.849 105.228L516.069 104.208C518.269 103.115 519.983 101.715 521.209 100.008C522.449 98.2885 523.149 96.4018 523.309 94.3485H516.649V93.2485H524.649ZM548.974 100.668H533.194V99.5885H548.974V100.668ZM545.634 103.308C546.674 103.842 547.194 104.608 547.194 105.608C547.194 106.608 546.674 107.375 545.634 107.908C544.607 108.455 543.101 108.728 541.114 108.728C539.141 108.728 537.641 108.455 536.614 107.908C535.587 107.375 535.074 106.608 535.074 105.608C535.074 104.595 535.587 103.822 536.614 103.288C537.641 102.755 539.141 102.488 541.114 102.488C543.101 102.488 544.607 102.762 545.634 103.308ZM541.114 103.528C539.621 103.528 538.454 103.708 537.614 104.068C536.787 104.415 536.374 104.928 536.374 105.608C536.374 106.288 536.787 106.802 537.614 107.148C538.454 107.495 539.621 107.668 541.114 107.668C542.621 107.668 543.787 107.495 544.614 107.148C545.454 106.802 545.874 106.288 545.874 105.608C545.874 104.928 545.454 104.415 544.614 104.068C543.787 103.708 542.621 103.528 541.114 103.528ZM547.074 97.5285H535.414V91.8285H536.674V96.4285H547.074V97.5285ZM566.579 97.6085H563.859V101.528H562.579V91.3485H563.859V96.5285H566.579V97.6085ZM563.859 108.588H552.979V102.348H554.259V104.228H562.579V102.348H563.859V108.588ZM562.579 107.508V105.328H554.259V107.508H562.579ZM557.919 92.7685H552.939V91.6285H557.919V92.7685ZM560.419 95.0885H550.439V94.0085H560.419V95.0885ZM559.299 98.8285C559.299 99.6951 558.932 100.395 558.199 100.928C557.465 101.448 556.525 101.708 555.379 101.708C554.232 101.708 553.292 101.448 552.559 100.928C551.825 100.408 551.459 99.7085 551.459 98.8285C551.459 97.9485 551.825 97.2485 552.559 96.7285C553.292 96.2085 554.232 95.9485 555.379 95.9485C556.525 95.9485 557.465 96.2085 558.199 96.7285C558.932 97.2485 559.299 97.9485 559.299 98.8285ZM557.259 100.148C557.779 99.8151 558.039 99.3751 558.039 98.8285C558.039 98.2818 557.779 97.8485 557.259 97.5285C556.752 97.1951 556.125 97.0285 555.379 97.0285C554.632 97.0285 553.999 97.1951 553.479 97.5285C552.972 97.8485 552.719 98.2818 552.719 98.8285C552.719 99.3751 552.979 99.8151 553.499 100.148C554.019 100.482 554.645 100.648 555.379 100.648C556.112 100.648 556.739 100.482 557.259 100.148ZM581.863 108.828H580.583V91.3485H581.863V108.828ZM578.983 103.548C577.823 103.802 576.27 104.015 574.323 104.188C572.39 104.348 570.597 104.428 568.943 104.428V93.1485H570.223V103.288C571.397 103.288 572.863 103.208 574.623 103.048C576.383 102.888 577.777 102.695 578.803 102.468L578.983 103.548ZM601.388 99.4685H598.468V108.828H597.188V91.3485H598.468V98.3885H601.388V99.4685ZM595.748 103.828C592.895 104.348 589.615 104.548 585.908 104.428V93.1685H594.048V94.2685H587.188V103.288C588.455 103.355 589.921 103.335 591.588 103.228C593.268 103.108 594.595 102.942 595.568 102.728L595.748 103.828ZM602.513 106.988V105.308H604.173V106.988H602.513Z" fill="black"/>
</svg>
