<svg width="770" height="126" viewBox="0 0 770 126" fill="none" xmlns="http://www.w3.org/2000/svg">
<path d="M2.61133 31V10.7656H8.73633C10.6777 10.7656 12.1634 11.194 13.1934 12.0508C14.2324 12.9076 14.752 14.1517 14.752 15.7832C14.752 17.0684 14.3919 18.2122 13.6719 19.2148C12.9609 20.2174 11.9583 20.9876 10.6641 21.5254L17.418 31H13.8906L8.13477 22.4414H5.45508V31H2.61133ZM5.45508 20.2949H6.38477C8.15299 20.2949 9.4974 19.9349 10.418 19.2148C11.3385 18.4948 11.7988 17.4421 11.7988 16.0566C11.7988 13.9603 10.2858 12.9121 7.25977 12.9121H5.45508V20.2949ZM20.166 10.7656H23.0371V23.5352C23.0371 25.5677 23.4108 27.0488 24.1582 27.9785C24.9147 28.8991 26.1133 29.3594 27.7539 29.3594C29.3581 29.3594 30.4928 28.9264 31.1582 28.0605C31.8327 27.1855 32.1699 25.709 32.1699 23.6309V10.7656H34.6855V23.5898C34.6855 25.3581 34.5124 26.7161 34.166 27.6641C33.8197 28.612 33.1953 29.446 32.293 30.166C31.1628 31.0592 29.6087 31.5059 27.6309 31.5059C25.0697 31.5059 23.1829 30.8587 21.9707 29.5645C20.7676 28.2702 20.166 26.2513 20.166 23.5078V10.7656ZM63.8066 30.4531C61.3548 31.1549 59.2174 31.5059 57.3945 31.5059C54.1771 31.5059 51.707 30.5944 49.9844 28.7715C48.2708 26.9395 47.4141 24.3099 47.4141 20.8828C47.4141 17.5104 48.2845 14.8991 50.0254 13.0488C51.7754 11.1895 54.2318 10.2598 57.3945 10.2598C59.4271 10.2598 61.5553 10.5651 63.7793 11.1758V13.8281C60.9902 12.8802 58.8529 12.4062 57.3672 12.4062C55.1797 12.4062 53.4798 13.1491 52.2676 14.6348C51.0645 16.1113 50.4629 18.1986 50.4629 20.8965C50.4629 23.5671 51.11 25.6452 52.4043 27.1309C53.6986 28.6165 55.5124 29.3594 57.8457 29.3594C58.8027 29.3594 59.8372 29.1908 60.9492 28.8535V22.2637H63.8066V30.4531ZM77.1094 31.5059C74.2383 31.5059 71.9414 30.5443 70.2188 28.6211C68.5052 26.6888 67.6484 24.1094 67.6484 20.8828C67.6484 17.6562 68.5052 15.0814 70.2188 13.1582C71.9414 11.2259 74.2383 10.2598 77.1094 10.2598C79.9805 10.2598 82.2728 11.2259 83.9863 13.1582C85.709 15.0814 86.5703 17.6562 86.5703 20.8828C86.5703 24.1094 85.709 26.6888 83.9863 28.6211C82.2728 30.5443 79.9805 31.5059 77.1094 31.5059ZM77.1094 29.3594C79.1237 29.3594 80.696 28.612 81.8262 27.1172C82.9564 25.6133 83.5215 23.526 83.5215 20.8555C83.5215 18.2031 82.9564 16.1341 81.8262 14.6484C80.696 13.1536 79.1237 12.4062 77.1094 12.4062C75.0951 12.4062 73.5228 13.1536 72.3926 14.6484C71.2624 16.1341 70.6973 18.2031 70.6973 20.8555C70.6973 23.526 71.2624 25.6133 72.3926 27.1172C73.5228 28.612 75.0951 29.3594 77.1094 29.3594ZM90.6035 31V10.7656H93.4746V28.8535H102.58V31H90.6035ZM105.533 31V10.7656H116.84V12.9121H108.404V19.6934H115.486V21.8125H108.404V31H105.533Z" fill="black"/>
<path d="M189.86 23.96L189.14 25C187.66 24.52 186.287 23.76 185.02 22.72C183.753 21.6667 182.953 20.7067 182.62 19.84C182.34 20.72 181.58 21.68 180.34 22.72C179.1 23.76 177.707 24.5067 176.16 24.96L175.46 23.92C176.433 23.72 177.413 23.3133 178.4 22.7C179.4 22.0867 180.247 21.3267 180.94 20.42C181.633 19.5133 181.98 18.62 181.98 17.74V16.5H183.3V17.74C183.3 19.0333 184.02 20.3067 185.46 21.56C186.9 22.8 188.367 23.6 189.86 23.96ZM190.54 29.96H174.76V28.88H190.54V29.96ZM205.665 16.92V19.38C205.665 20.54 205.598 21.9267 205.465 23.54C205.331 25.1533 205.145 26.52 204.905 27.64L203.665 27.46C203.851 26.5 204.025 24.9933 204.185 22.94L193.905 23.5L193.665 22.36L204.265 21.9C204.291 21.46 204.305 20.8467 204.305 20.06V18H194.085V16.92H205.665ZM207.845 29.78H192.065V28.68H207.845V29.78ZM223.609 27.62H222.329V14.92H223.609V27.62ZM224.109 32H212.149V27.04H213.429V30.9H224.109V32ZM219.989 24.82C217.643 25.1533 214.389 25.32 210.229 25.32V20.04H216.869V17.18H210.149V16.08H218.149V21.1H211.509V24.22C215.563 24.22 218.329 24.0467 219.809 23.7L219.989 24.82ZM246.268 32.16H233.828V28.02H244.308V26.1H233.748V25.02H245.588V29.06H235.108V31.1H246.268V32.16ZM247.708 23.28H231.928V22.2H238.528V18.9H239.788V22.2H247.708V23.28ZM245.668 15.66V16.96C245.668 18.44 245.515 19.8133 245.208 21.08L243.928 20.9C244.195 19.94 244.328 18.8533 244.328 17.64V16.74H233.728V15.66H245.668ZM263.373 25.24H250.793V24.16H253.633L253.153 19.04L254.513 18.84L254.873 24.16H259.293L259.893 18.86L261.153 19.08L260.513 24.16H263.373V25.24ZM265.013 30.16H249.233V29.06H265.013V30.16ZM263.373 17.96H250.793V16.86H263.373V17.96ZM288.111 23.14H285.151V32.4H283.871V14.92H285.151V22.04H288.111V23.14ZM272.171 22.42C272.171 20.54 272.545 19.0533 273.291 17.96C274.038 16.8667 275.091 16.32 276.451 16.32C277.798 16.32 278.845 16.8733 279.591 17.98C280.338 19.0733 280.711 20.56 280.711 22.44C280.711 24.32 280.338 25.8133 279.591 26.92C278.845 28.0133 277.798 28.56 276.451 28.56C275.091 28.56 274.038 28.0133 273.291 26.92C272.545 25.8133 272.171 24.3133 272.171 22.42ZM278.631 26.04C279.191 25.1067 279.471 23.9067 279.471 22.44C279.471 20.9733 279.191 19.7733 278.631 18.84C278.085 17.9067 277.358 17.44 276.451 17.44C275.545 17.44 274.811 17.9067 274.251 18.84C273.705 19.7733 273.431 20.9733 273.431 22.44C273.431 23.9067 273.705 25.1067 274.251 26.04C274.811 26.96 275.545 27.42 276.451 27.42C277.358 27.42 278.085 26.96 278.631 26.04ZM298.016 16.82C298.003 18.9267 297.663 20.7733 296.996 22.36C296.329 23.9467 295.449 25.2533 294.356 26.28C293.276 27.3067 291.896 28.26 290.216 29.14L289.376 28.12C292.536 26.68 294.663 24.6733 295.756 22.1L289.696 22.76L289.376 21.56L296.156 21.04C296.476 19.96 296.643 18.92 296.656 17.92H290.296V16.82H298.016ZM302.456 14.92V22.24H305.396V23.32H302.456V32.4H301.176V14.92H302.456ZM321.121 32.4H319.841V14.92H321.121V32.4ZM316.381 22.86H312.301V21.76H316.381V15.36H317.641V31.48H316.381V22.86ZM314.821 27.4C312.474 27.7867 309.914 27.98 307.141 27.98V17.16H313.821V18.26H308.421V26.82C310.727 26.82 312.794 26.6333 314.621 26.26L314.821 27.4ZM337.885 32.4H336.605V14.92H337.885V32.4ZM332.725 27.88H324.725V16.78H332.725V27.88ZM331.445 26.78V17.88H326.005V26.78H331.445ZM356.79 30.16H341.01V29.06H348.23V25.82H343.11V20.42H353.41V17.46H343.11V16.38H354.69V21.5H344.39V24.74H355.15V25.82H349.51V29.06H356.79V30.16ZM379.649 20.7H376.929V25.46H375.649V14.92H376.929V19.6H379.649V20.7ZM375.649 26.68C376.635 27.2667 377.129 28.0533 377.129 29.04C377.129 30.0267 376.635 30.8133 375.649 31.4C374.662 32 373.242 32.3 371.389 32.3C369.535 32.3 368.122 32.0067 367.149 31.42C366.175 30.8333 365.689 30.04 365.689 29.04C365.689 28.0267 366.175 27.2333 367.149 26.66C368.122 26.0733 369.535 25.78 371.389 25.78C373.242 25.78 374.662 26.08 375.649 26.68ZM371.389 26.86C370.029 26.86 368.955 27.06 368.169 27.46C367.395 27.86 367.009 28.3867 367.009 29.04C367.009 29.7067 367.395 30.2333 368.169 30.62C368.942 31.0067 370.015 31.2 371.389 31.2C372.762 31.2 373.842 31.0067 374.629 30.62C375.415 30.2333 375.809 29.7067 375.809 29.04C375.809 28.3733 375.415 27.8467 374.629 27.46C373.842 27.06 372.762 26.86 371.389 26.86ZM373.589 23.36C370.989 23.8267 367.882 24.0133 364.269 23.92V16.38H371.989V17.46H365.549V22.84C366.869 22.88 368.262 22.8467 369.729 22.74C371.195 22.6333 372.415 22.48 373.389 22.28L373.589 23.36ZM395.113 23.94H393.833V14.92H395.113V23.94ZM395.813 32.28H384.013V27.96H393.853V25.96H383.913V24.86H395.133V28.96H385.273V31.18H395.813V32.28ZM385.733 15.64C386.947 15.64 387.967 15.9933 388.793 16.7C389.633 17.4067 390.053 18.3267 390.053 19.46C390.053 20.5933 389.633 21.52 388.793 22.24C387.967 22.9467 386.947 23.3 385.733 23.3C384.533 23.3 383.513 22.9467 382.673 22.24C381.833 21.5333 381.413 20.6133 381.413 19.48C381.413 18.3467 381.833 17.4267 382.673 16.72C383.513 16 384.533 15.64 385.733 15.64ZM385.733 16.76C384.867 16.76 384.147 17.0133 383.573 17.52C383 18.0133 382.713 18.66 382.713 19.46C382.713 20.26 383 20.9133 383.573 21.42C384.147 21.9133 384.867 22.16 385.733 22.16C386.64 22.16 387.367 21.92 387.913 21.44C388.473 20.9467 388.753 20.2933 388.753 19.48C388.753 18.6667 388.473 18.0133 387.913 17.52C387.367 17.0133 386.64 16.76 385.733 16.76ZM402.198 16.4C403.771 16.4 404.865 17.3267 405.478 19.18H408.218V15.26H409.478V31.48H408.218V25.74H405.458C404.818 27.5133 403.731 28.4 402.198 28.4C400.998 28.4 400.071 27.8667 399.418 26.8C398.765 25.7333 398.438 24.2667 398.438 22.4C398.438 20.5333 398.765 19.0667 399.418 18C400.071 16.9333 400.998 16.4 402.198 16.4ZM403.978 26.02C404.418 25.14 404.638 23.9333 404.638 22.4C404.638 20.8667 404.418 19.6667 403.978 18.8C403.551 17.92 402.958 17.48 402.198 17.48C401.438 17.48 400.838 17.92 400.398 18.8C399.971 19.6667 399.758 20.8667 399.758 22.4C399.758 23.9333 399.971 25.14 400.398 26.02C400.838 26.9 401.438 27.34 402.198 27.34C402.958 27.34 403.551 26.9 403.978 26.02ZM412.898 32.4H411.618V14.92H412.898V32.4ZM408.218 20.26H405.758C405.891 20.8867 405.958 21.6 405.958 22.4C405.958 23.1867 405.885 23.9333 405.738 24.64H408.218V20.26ZM420.123 15.92C421.336 15.92 422.363 16.2933 423.203 17.04C424.056 17.7867 424.483 18.7667 424.483 19.98C424.483 21.1933 424.056 22.18 423.203 22.94C422.363 23.6867 421.336 24.06 420.123 24.06C418.896 24.06 417.863 23.6867 417.023 22.94C416.183 22.1933 415.763 21.2133 415.763 20C415.763 18.7867 416.183 17.8067 417.023 17.06C417.863 16.3 418.896 15.92 420.123 15.92ZM420.123 17.02C419.229 17.02 418.496 17.3 417.923 17.86C417.349 18.4067 417.063 19.1133 417.063 19.98C417.063 20.8467 417.349 21.56 417.923 22.12C418.509 22.68 419.243 22.96 420.123 22.96C421.043 22.96 421.783 22.6867 422.343 22.14C422.903 21.5933 423.183 20.88 423.183 20C423.183 19.12 422.903 18.4067 422.343 17.86C421.783 17.3 421.043 17.02 420.123 17.02ZM431.563 21.42V22.52H428.843V25.3H427.563V14.92H428.843V17.66H431.563V18.76H428.843V21.42H431.563ZM428.863 32.4H427.563V27.24H417.663V26.14H428.863V32.4ZM448.567 23.7H432.787V22.66H448.567V23.7ZM447.107 32.1H434.747V28.24H445.147V26.48H434.687V25.4H446.427V29.26H436.027V31.04H447.107V32.1ZM446.627 18.38C446.627 19.38 446.107 20.1267 445.067 20.62C444.027 21.1133 442.567 21.36 440.687 21.36C438.834 21.36 437.381 21.1133 436.327 20.62C435.287 20.1133 434.767 19.3667 434.767 18.38C434.767 17.3933 435.287 16.6533 436.327 16.16C437.381 15.6533 438.834 15.4 440.687 15.4C442.567 15.4 444.027 15.6533 445.067 16.16C446.107 16.6533 446.627 17.3933 446.627 18.38ZM444.087 16.94C443.247 16.6067 442.114 16.44 440.687 16.44C439.261 16.44 438.134 16.6067 437.307 16.94C436.494 17.2733 436.087 17.7533 436.087 18.38C436.087 19.0067 436.494 19.4867 437.307 19.82C438.134 20.14 439.261 20.3 440.687 20.3C442.114 20.3 443.247 20.14 444.087 19.82C444.927 19.4867 445.347 19.0067 445.347 18.38C445.347 17.7533 444.927 17.2733 444.087 16.94ZM464.006 16.64C464.833 17.2133 465.246 17.9933 465.246 18.98C465.246 19.9667 464.833 20.74 464.006 21.3C463.193 21.8467 462.126 22.12 460.806 22.12C459.486 22.12 458.413 21.8467 457.586 21.3C456.773 20.74 456.366 19.9667 456.366 18.98C456.366 17.9933 456.779 17.2133 457.606 16.64C458.433 16.0667 459.499 15.78 460.806 15.78C462.126 15.78 463.193 16.0667 464.006 16.64ZM463.946 18.98C463.946 18.3533 463.653 17.8533 463.066 17.48C462.493 17.0933 461.739 16.9 460.806 16.9C459.873 16.9 459.113 17.0867 458.526 17.46C457.953 17.8333 457.666 18.34 457.666 18.98C457.666 19.62 457.953 20.1267 458.526 20.5C459.113 20.86 459.873 21.04 460.806 21.04C461.739 21.04 462.493 20.86 463.066 20.5C463.653 20.1267 463.946 19.62 463.946 18.98ZM469.586 28.28H468.306V26.32H464.786V25.24H468.306V14.92H469.586V28.28ZM469.966 31.98H457.746V26.98H459.026V30.88H469.966V31.98ZM461.426 27.42H460.146V24.28C459.519 24.3067 457.953 24.3533 455.446 24.42L455.186 23.28C456.533 23.28 458.473 23.24 461.006 23.16C463.553 23.04 465.386 22.9133 466.506 22.78L466.626 23.8C466.053 23.88 464.319 24.02 461.426 24.22V27.42ZM483.011 23.9L482.331 24.94C481.517 24.7 480.704 24.2467 479.891 23.58C479.091 22.9 478.471 22.16 478.031 21.36C477.751 22.16 477.197 22.9467 476.371 23.72C475.544 24.48 474.611 25.0533 473.571 25.44L472.891 24.4C474.051 24.0667 475.091 23.4133 476.011 22.44C476.931 21.4533 477.391 20.4467 477.391 19.42V19.18H473.491V18.08H482.631V19.18H478.691V19.42C478.691 20.3933 479.137 21.32 480.031 22.2C480.937 23.08 481.931 23.6467 483.011 23.9ZM486.891 32.4H485.611V27.46H475.291V26.38H486.891V32.4ZM486.891 25.44H485.611V14.92H486.891V25.44ZM480.351 16.48H475.711V15.4H480.351V16.48ZM505.735 29.96H489.955V28.88H505.735V29.96ZM504.055 20.82C504.055 22.14 503.482 23.1933 502.335 23.98C501.202 24.7667 499.695 25.16 497.815 25.16C495.935 25.16 494.429 24.7667 493.295 23.98C492.175 23.1933 491.615 22.14 491.615 20.82C491.615 19.5133 492.182 18.4667 493.315 17.68C494.449 16.88 495.949 16.48 497.815 16.48C499.695 16.48 501.202 16.88 502.335 17.68C503.482 18.4667 504.055 19.5133 504.055 20.82ZM502.795 20.82C502.795 19.86 502.342 19.0867 501.435 18.5C500.529 17.9133 499.322 17.62 497.815 17.62C496.322 17.62 495.122 17.9133 494.215 18.5C493.322 19.0867 492.875 19.86 492.875 20.82C492.875 21.7667 493.329 22.5333 494.235 23.12C495.142 23.7067 496.335 24 497.815 24C499.309 24 500.509 23.7067 501.415 23.12C502.335 22.5333 502.795 21.7667 502.795 20.82ZM523.04 30.16H507.26V29.06H514.48V25.82H509.36V20.42H519.66V17.46H509.36V16.38H520.94V21.5H510.64V24.74H521.4V25.82H515.76V29.06H523.04V30.16ZM538.239 21.5V22.56H531.899V26.94C535.779 26.94 538.559 26.7333 540.239 26.32L540.419 27.42C537.899 27.86 534.632 28.08 530.619 28.08V16.62H538.759V17.7H531.899V21.5H538.239ZM546.099 23.04H543.179V32.4H541.899V14.92H543.179V21.96H546.099V23.04ZM560.083 20.1H556.343V19H560.083V14.92H561.363V25.2H560.083V20.1ZM561.363 32.4H560.083V27.2H549.803V26.12H561.363V32.4ZM557.083 23.14L556.303 24.16C555.357 23.68 554.503 23.0667 553.743 22.32C552.997 21.5733 552.463 20.7667 552.143 19.9C551.623 21.66 550.163 23.2467 547.763 24.66L546.983 23.68C548.29 23.0533 549.357 22.2 550.183 21.12C551.023 20.04 551.443 18.8267 551.443 17.48V15.78H552.723V17.44C552.723 18.7467 553.17 19.92 554.063 20.96C554.957 22 555.963 22.7267 557.083 23.14ZM572.968 23.56H565.328V15.8H566.608V18.58H571.688V15.8H572.968V23.56ZM579.368 32.2H567.568V27.96H577.408V26.18H567.488V25.1H578.688V28.98H568.828V31.12H579.368V32.2ZM578.668 14.92V24.16H577.388V21.82H573.928V20.76H577.388V18.66H573.928V17.58H577.388V14.92H578.668ZM571.688 22.48V19.64H566.608V22.48H571.688ZM581.273 32.76L582.053 28.86H583.673L582.213 32.76H581.273ZM607.305 20.94H604.585V25.64H603.305V14.92H604.585V19.84H607.305V20.94ZM603.285 26.64C604.325 27.2133 604.845 28.0133 604.845 29.04C604.845 30.0667 604.325 30.8733 603.285 31.46C602.245 32.0467 600.818 32.34 599.005 32.34C597.192 32.34 595.765 32.0467 594.725 31.46C593.698 30.8733 593.185 30.0667 593.185 29.04C593.185 28.0133 593.698 27.2133 594.725 26.64C595.765 26.0533 597.192 25.76 599.005 25.76C600.818 25.76 602.245 26.0533 603.285 26.64ZM599.005 26.8C597.618 26.8 596.518 27 595.705 27.4C594.905 27.7867 594.505 28.3333 594.505 29.04C594.505 29.7467 594.905 30.2933 595.705 30.68C596.518 31.0667 597.618 31.26 599.005 31.26C600.405 31.26 601.505 31.0667 602.305 30.68C603.118 30.2933 603.525 29.7467 603.525 29.04C603.525 28.3333 603.118 27.7867 602.305 27.4C601.505 27 600.405 26.8 599.005 26.8ZM591.945 16.34H599.845C599.685 18.5267 598.885 20.4 597.445 21.96C596.005 23.52 594.145 24.6533 591.865 25.36L591.205 24.26C593.018 23.8733 594.618 23.02 596.005 21.7C597.392 20.3667 598.192 18.94 598.405 17.42H591.945V16.34ZM624.81 23.16H621.89V32.4H620.61V14.92H621.89V22.06H624.81V23.16ZM618.81 27.1L617.95 28.12C617.03 27.4667 616.136 26.64 615.27 25.64C614.403 24.6267 613.81 23.6133 613.49 22.6C613.183 23.68 612.63 24.74 611.83 25.78C611.043 26.8067 610.103 27.74 609.01 28.58L608.13 27.58C609.41 26.7933 610.51 25.6733 611.43 24.22C612.363 22.7667 612.83 21.3133 612.83 19.86V16.56H614.15V19.84C614.15 21.32 614.61 22.7267 615.53 24.06C616.45 25.38 617.543 26.3933 618.81 27.1ZM634.374 23.56H626.734V15.8H628.014V18.58H633.094V15.8H634.374V23.56ZM640.774 32.2H628.974V27.96H638.814V26.18H628.894V25.1H640.094V28.98H630.234V31.12H640.774V32.2ZM640.074 14.92V24.16H638.794V21.82H635.334V20.76H638.794V18.66H635.334V17.58H638.794V14.92H640.074ZM633.094 22.48V19.64H628.014V22.48H633.094ZM658.919 30.16H643.139V29.06H650.359V25.82H645.239V20.42H655.539V17.46H645.239V16.38H656.819V21.5H646.519V24.74H657.279V25.82H651.639V29.06H658.919V30.16ZM669.718 16.4C671.291 16.4 672.384 17.3267 672.998 19.18H675.738V15.26H676.998V31.48H675.738V25.74H672.978C672.338 27.5133 671.251 28.4 669.718 28.4C668.518 28.4 667.591 27.8667 666.938 26.8C666.284 25.7333 665.958 24.2667 665.958 22.4C665.958 20.5333 666.284 19.0667 666.938 18C667.591 16.9333 668.518 16.4 669.718 16.4ZM671.498 26.02C671.938 25.14 672.158 23.9333 672.158 22.4C672.158 20.8667 671.938 19.6667 671.498 18.8C671.071 17.92 670.478 17.48 669.718 17.48C668.958 17.48 668.358 17.92 667.918 18.8C667.491 19.6667 667.278 20.8667 667.278 22.4C667.278 23.9333 667.491 25.14 667.918 26.02C668.358 26.9 668.958 27.34 669.718 27.34C670.478 27.34 671.071 26.9 671.498 26.02ZM680.418 32.4H679.138V14.92H680.418V32.4ZM675.738 20.26H673.278C673.411 20.8867 673.478 21.6 673.478 22.4C673.478 23.1867 673.404 23.9333 673.258 24.64H675.738V20.26ZM687.642 15.92C688.856 15.92 689.882 16.2933 690.722 17.04C691.576 17.7867 692.002 18.7667 692.002 19.98C692.002 21.1933 691.576 22.18 690.722 22.94C689.882 23.6867 688.856 24.06 687.642 24.06C686.416 24.06 685.382 23.6867 684.542 22.94C683.702 22.1933 683.282 21.2133 683.282 20C683.282 18.7867 683.702 17.8067 684.542 17.06C685.382 16.3 686.416 15.92 687.642 15.92ZM687.642 17.02C686.749 17.02 686.016 17.3 685.442 17.86C684.869 18.4067 684.582 19.1133 684.582 19.98C684.582 20.8467 684.869 21.56 685.442 22.12C686.029 22.68 686.762 22.96 687.642 22.96C688.562 22.96 689.302 22.6867 689.862 22.14C690.422 21.5933 690.702 20.88 690.702 20C690.702 19.12 690.422 18.4067 689.862 17.86C689.302 17.3 688.562 17.02 687.642 17.02ZM699.082 21.42V22.52H696.362V25.3H695.082V14.92H696.362V17.66H699.082V18.76H696.362V21.42H699.082ZM696.382 32.4H695.082V27.24H685.182V26.14H696.382V32.4ZM716.387 20.84H713.687V24.86H712.407V14.92H713.687V19.76H716.387V20.84ZM714.367 32.28H702.807V28.4H712.407V26.82H702.747V25.78H713.687V29.44H704.087V31.22H714.367V32.28ZM707.727 16.36H702.747V15.22H707.727V16.36ZM710.307 18.64H700.247V17.56H710.307V18.64ZM708.127 20.08C708.874 20.5333 709.247 21.18 709.247 22.02C709.247 22.86 708.88 23.5067 708.147 23.96C707.414 24.4133 706.44 24.64 705.227 24.64C704.067 24.64 703.114 24.4133 702.367 23.96C701.62 23.5067 701.247 22.86 701.247 22.02C701.247 21.18 701.614 20.5333 702.347 20.08C703.094 19.6267 704.054 19.4 705.227 19.4C706.414 19.4 707.38 19.6267 708.127 20.08ZM707.967 22.02C707.967 21.5133 707.707 21.1333 707.187 20.88C706.667 20.6133 706.014 20.48 705.227 20.48C704.44 20.48 703.794 20.6133 703.287 20.88C702.78 21.1333 702.527 21.5133 702.527 22.02C702.527 22.5133 702.787 22.9 703.307 23.18C703.827 23.4467 704.467 23.58 705.227 23.58C706 23.58 706.647 23.4467 707.167 23.18C707.7 22.9 707.967 22.5133 707.967 22.02ZM731.365 32.42H730.085V25.96H722.865V24.86H738.645V25.96H731.365V32.42ZM737.845 21.72L737.145 22.78C735.799 22.4867 734.505 21.94 733.265 21.14C732.039 20.3267 731.199 19.4467 730.745 18.5C730.319 19.4467 729.485 20.3333 728.245 21.16C727.019 21.9867 725.732 22.54 724.385 22.82L723.685 21.76C725.365 21.5333 726.852 20.92 728.145 19.92C729.439 18.9067 730.085 17.84 730.085 16.72V15.7H731.405V16.72C731.405 17.8133 732.099 18.88 733.485 19.92C734.885 20.96 736.339 21.56 737.845 21.72ZM189 63.08H187.72V52.92H189V63.08ZM176.5 55.1C177.353 54.3533 178.4 53.98 179.64 53.98C180.88 53.98 181.927 54.3533 182.78 55.1C183.647 55.8333 184.08 56.7933 184.08 57.98C184.08 59.1667 183.647 60.1333 182.78 60.88C181.927 61.6267 180.88 62 179.64 62C178.4 62 177.353 61.6333 176.5 60.9C175.647 60.1533 175.22 59.1867 175.22 58C175.22 56.8133 175.647 55.8467 176.5 55.1ZM179.64 55.08C178.747 55.08 178 55.3533 177.4 55.9C176.813 56.4333 176.52 57.1267 176.52 57.98C176.52 58.8333 176.82 59.5333 177.42 60.08C178.02 60.6267 178.76 60.9 179.64 60.9C180.573 60.9 181.327 60.6333 181.9 60.1C182.473 59.5667 182.76 58.8667 182.76 58C182.76 57.1333 182.473 56.4333 181.9 55.9C181.327 55.3533 180.573 55.08 179.64 55.08ZM189.82 70.42H189.8C189.147 70.0867 188.487 69.5867 187.82 68.92C187.167 68.24 186.727 67.5867 186.5 66.96C186.273 67.64 185.827 68.3333 185.16 69.04C184.493 69.7467 183.8 70.28 183.08 70.64L182.28 69.78C183.267 69.3 184.107 68.6133 184.8 67.72C185.507 66.8133 185.86 65.8667 185.86 64.88V63.68H187.14V64.78C187.14 65.7933 187.5 66.7533 188.22 67.66C188.94 68.5667 189.74 69.1867 190.62 69.52L189.82 70.42ZM183.3 68.32L182.38 69.22C181.873 68.94 181.4 68.58 180.96 68.14C180.52 67.6867 180.193 67.2 179.98 66.68C179.78 67.3467 179.333 68.0533 178.64 68.8C177.96 69.5333 177.233 70.0867 176.46 70.46L175.7 69.54C176.633 69.1533 177.467 68.5067 178.2 67.6C178.933 66.6933 179.3 65.74 179.3 64.74V63.7H180.58V64.6C180.58 65.5067 180.84 66.28 181.36 66.92C181.88 67.56 182.527 68.0267 183.3 68.32ZM207.845 63.16H192.065V62.06H207.845V63.16ZM206.005 69.96H194.265V64.88H195.525V68.86H206.005V69.96ZM205.945 59.58H194.285V53.52H195.545V58.48H205.945V59.58ZM228.863 70.4H227.583V60.36H223.443V59.28H227.583V52.92H228.863V70.4ZM225.043 65.1L224.223 66.08C223.33 65.48 222.47 64.6733 221.643 63.66C220.817 62.6467 220.23 61.6133 219.883 60.56C219.577 61.6533 219.03 62.72 218.243 63.76C217.47 64.7867 216.543 65.7133 215.463 66.54L214.583 65.58C215.863 64.8067 216.957 63.6933 217.863 62.24C218.77 60.7733 219.223 59.3133 219.223 57.86V54.44H220.543V57.84C220.543 59.32 220.983 60.7267 221.863 62.06C222.743 63.3933 223.803 64.4067 225.043 65.1ZM246.148 70.4H244.868V52.92H246.148V70.4ZM241.088 65.96H233.028V54.5H234.308V58.94H239.808V54.5H241.088V65.96ZM239.808 64.86V60.04H234.308V64.86H239.808ZM264.333 61.96L263.613 63C262.133 62.52 260.759 61.76 259.493 60.72C258.226 59.6667 257.426 58.7067 257.093 57.84C256.813 58.72 256.053 59.68 254.813 60.72C253.573 61.76 252.179 62.5067 250.633 62.96L249.933 61.92C250.906 61.72 251.886 61.3133 252.873 60.7C253.873 60.0867 254.719 59.3267 255.413 58.42C256.106 57.5133 256.453 56.62 256.453 55.74V54.5H257.773V55.74C257.773 57.0333 258.493 58.3067 259.933 59.56C261.373 60.8 262.839 61.6 264.333 61.96ZM265.013 67.96H249.233V66.88H265.013V67.96ZM280.777 62.28H279.497V52.92H280.777V62.28ZM280.797 70.16H269.577V63.26H270.857V65.64H279.517V63.26H280.797V70.16ZM279.517 69.1V66.7H270.857V69.1H279.517ZM271.457 53.8C272.671 53.8 273.697 54.1667 274.537 54.9C275.391 55.6333 275.817 56.5867 275.817 57.76C275.817 58.9333 275.391 59.8867 274.537 60.62C273.697 61.3533 272.671 61.72 271.457 61.72C270.231 61.72 269.197 61.36 268.357 60.64C267.517 59.9067 267.097 58.9533 267.097 57.78C267.097 56.5933 267.517 55.6333 268.357 54.9C269.197 54.1667 270.231 53.8 271.457 53.8ZM271.457 54.96C270.564 54.96 269.824 55.22 269.237 55.74C268.664 56.2467 268.377 56.92 268.377 57.76C268.377 58.5867 268.671 59.2667 269.257 59.8C269.844 60.32 270.577 60.58 271.457 60.58C272.377 60.58 273.117 60.32 273.677 59.8C274.237 59.28 274.517 58.6067 274.517 57.78C274.517 56.94 274.237 56.26 273.677 55.74C273.117 55.22 272.377 54.96 271.457 54.96ZM297.902 70.4H296.622V52.92H297.902V70.4ZM295.022 65.12C293.862 65.3733 292.309 65.5867 290.362 65.76C288.429 65.92 286.635 66 284.982 66V54.72H286.262V64.86C287.435 64.86 288.902 64.78 290.662 64.62C292.422 64.46 293.815 64.2667 294.842 64.04L295.022 65.12ZM317.427 61.04H314.507V70.4H313.227V52.92H314.507V59.96H317.427V61.04ZM311.787 65.4C308.933 65.92 305.653 66.12 301.947 66V54.74H310.087V55.84H303.227V64.86C304.493 64.9267 305.96 64.9067 307.627 64.8C309.307 64.68 310.633 64.5133 311.607 64.3L311.787 65.4ZM318.551 68.56V66.88H320.211V68.56H318.551ZM344.224 61.16H341.304V70.4H340.024V52.92H341.304V60.06H344.224V61.16ZM338.224 65.1L337.364 66.12C336.444 65.4667 335.55 64.64 334.684 63.64C333.817 62.6267 333.224 61.6133 332.904 60.6C332.597 61.68 332.044 62.74 331.244 63.78C330.457 64.8067 329.517 65.74 328.424 66.58L327.544 65.58C328.824 64.7933 329.924 63.6733 330.844 62.22C331.777 60.7667 332.244 59.3133 332.244 57.86V54.56H333.564V57.84C333.564 59.32 334.024 60.7267 334.944 62.06C335.864 63.38 336.957 64.3933 338.224 65.1ZM359.068 56.52C359.068 57.76 358.335 58.64 356.868 59.16V61.98H361.028V63.08H345.248V61.98H349.368V59.14C347.902 58.62 347.168 57.7467 347.168 56.52C347.168 55.4933 347.688 54.7133 348.728 54.18C349.782 53.6333 351.248 53.36 353.128 53.36C355.008 53.36 356.468 53.6333 357.508 54.18C358.548 54.7133 359.068 55.4933 359.068 56.52ZM359.148 67.24C359.148 68.2267 358.615 68.98 357.548 69.5C356.482 70.0333 355.008 70.3 353.128 70.3C351.248 70.3 349.782 70.0333 348.728 69.5C347.675 68.98 347.148 68.2267 347.148 67.24C347.148 66.2667 347.675 65.52 348.728 65C349.782 64.4667 351.248 64.2 353.128 64.2C355.008 64.2 356.482 64.4667 357.548 65C358.615 65.52 359.148 66.2667 359.148 67.24ZM356.548 58.08C357.375 57.7333 357.788 57.2133 357.788 56.52C357.788 55.8267 357.375 55.3067 356.548 54.96C355.722 54.6133 354.582 54.44 353.128 54.44C351.688 54.44 350.555 54.6133 349.728 54.96C348.915 55.3067 348.508 55.8267 348.508 56.52C348.508 57.2133 348.915 57.7333 349.728 58.08C350.555 58.4267 351.688 58.6 353.128 58.6C354.582 58.6 355.722 58.4267 356.548 58.08ZM353.128 65.28C351.688 65.28 350.548 65.4467 349.708 65.78C348.882 66.1 348.468 66.5867 348.468 67.24C348.468 67.8933 348.882 68.3867 349.708 68.72C350.548 69.0533 351.688 69.22 353.128 69.22C354.595 69.22 355.742 69.06 356.568 68.74C357.395 68.4067 357.808 67.9067 357.808 67.24C357.808 66.5867 357.388 66.1 356.548 65.78C355.722 65.4467 354.582 65.28 353.128 65.28ZM353.128 59.7C352.248 59.7 351.422 59.6267 350.648 59.48V61.98H355.588V59.5C354.882 59.6333 354.062 59.7 353.128 59.7ZM372.733 65.3L371.933 66.28C371 65.64 370.113 64.8267 369.273 63.84C368.433 62.8533 367.853 61.8467 367.533 60.82C366.92 62.9533 365.453 64.9133 363.133 66.7L362.273 65.74C363.553 64.9667 364.64 63.8667 365.533 62.44C366.426 61.0133 366.873 59.5733 366.873 58.12V55.86H362.913V54.76H372.153V55.86H368.193V58.08C368.193 59.56 368.633 60.96 369.513 62.28C370.406 63.5867 371.48 64.5933 372.733 65.3ZM378.873 61.22H375.913V70.4H374.633V52.92H375.913V60.12H378.873V61.22ZM393.218 52.92V60.38H396.178V61.48H393.218V70.4H391.938V52.92H393.218ZM388.618 54.82C388.564 57.5533 387.831 59.92 386.418 61.92C385.004 63.92 383.138 65.5467 380.818 66.8L380.038 65.78C382.238 64.6867 383.951 63.2867 385.178 61.58C386.418 59.86 387.118 57.9733 387.278 55.92H380.618V54.82H388.618ZM411.076 54.64C411.903 55.2133 412.316 55.9933 412.316 56.98C412.316 57.9667 411.903 58.74 411.076 59.3C410.263 59.8467 409.196 60.12 407.876 60.12C406.556 60.12 405.483 59.8467 404.656 59.3C403.843 58.74 403.436 57.9667 403.436 56.98C403.436 55.9933 403.85 55.2133 404.676 54.64C405.503 54.0667 406.57 53.78 407.876 53.78C409.196 53.78 410.263 54.0667 411.076 54.64ZM411.016 56.98C411.016 56.3533 410.723 55.8533 410.136 55.48C409.563 55.0933 408.81 54.9 407.876 54.9C406.943 54.9 406.183 55.0867 405.596 55.46C405.023 55.8333 404.736 56.34 404.736 56.98C404.736 57.62 405.023 58.1267 405.596 58.5C406.183 58.86 406.943 59.04 407.876 59.04C408.81 59.04 409.563 58.86 410.136 58.5C410.723 58.1267 411.016 57.62 411.016 56.98ZM416.656 66.28H415.376V64.32H411.856V63.24H415.376V52.92H416.656V66.28ZM417.036 69.98H404.816V64.98H406.096V68.88H417.036V69.98ZM408.496 65.42H407.216V62.28C406.59 62.3067 405.023 62.3533 402.516 62.42L402.256 61.28C403.603 61.28 405.543 61.24 408.076 61.16C410.623 61.04 412.456 60.9133 413.576 60.78L413.696 61.8C413.123 61.88 411.39 62.02 408.496 62.22V65.42ZM436.001 61.46H433.081V70.4H431.801V52.92H433.081V60.36H436.001V61.46ZM427.241 55.34H422.181V54.2H427.241V55.34ZM429.881 58.24H419.661V57.16H429.881V58.24ZM428.941 63.08C428.941 64.0933 428.568 64.94 427.821 65.62C427.074 66.2867 426.108 66.62 424.921 66.62C423.734 66.62 422.761 66.2867 422.001 65.62C421.254 64.94 420.881 64.0933 420.881 63.08C420.881 62.0533 421.254 61.2 422.001 60.52C422.748 59.84 423.721 59.5 424.921 59.5C426.108 59.5 427.074 59.84 427.821 60.52C428.568 61.2 428.941 62.0533 428.941 63.08ZM426.881 64.86C427.401 64.3933 427.661 63.8 427.661 63.08C427.661 62.36 427.401 61.7667 426.881 61.3C426.361 60.8333 425.708 60.6 424.921 60.6C424.134 60.6 423.481 60.8333 422.961 61.3C422.441 61.7667 422.181 62.36 422.181 63.08C422.181 63.8 422.441 64.3933 422.961 64.86C423.481 65.3267 424.134 65.56 424.921 65.56C425.708 65.56 426.361 65.3267 426.881 64.86ZM452.806 63.16H437.026V62.06H452.806V63.16ZM450.966 69.96H439.226V64.88H440.486V68.86H450.966V69.96ZM450.906 59.58H439.246V53.52H440.506V58.48H450.906V59.58ZM473.904 70.4H472.624V52.92H473.904V70.4ZM470.144 65.1L469.304 66.12C468.384 65.48 467.491 64.66 466.624 63.66C465.758 62.6467 465.158 61.6267 464.824 60.6C464.518 61.68 463.964 62.74 463.164 63.78C462.378 64.8067 461.438 65.74 460.344 66.58L459.464 65.58C460.744 64.7933 461.844 63.6733 462.764 62.22C463.698 60.7667 464.164 59.3133 464.164 57.86V54.56H465.484V57.84C465.484 59.32 465.944 60.7267 466.864 62.06C467.784 63.38 468.878 64.3933 470.144 65.1ZM492.969 59.64H490.249V66H488.969V52.92H490.249V58.54H492.969V59.64ZM490.829 69.98H479.389V64.66H480.669V68.88H490.829V69.98ZM477.529 54.44H485.349C485.189 56.6667 484.409 58.56 483.009 60.12C481.622 61.68 479.769 62.8533 477.449 63.64L476.789 62.54C478.736 61.9933 480.356 61.0733 481.649 59.78C482.942 58.4733 483.696 57.06 483.909 55.54H477.529V54.44ZM498.274 54.54C499.38 54.54 500.247 55.02 500.874 55.98C501.514 56.9267 501.867 58.2333 501.934 59.9H504.234V53.26H505.514V69.54H504.234V60.98H501.934C501.867 62.6333 501.514 63.9333 500.874 64.88C500.234 65.8133 499.367 66.28 498.274 66.28C497.1 66.28 496.187 65.76 495.534 64.72C494.894 63.6667 494.574 62.2267 494.574 60.4C494.574 58.5733 494.894 57.14 495.534 56.1C496.187 55.06 497.1 54.54 498.274 54.54ZM500.014 63.9C500.44 63.0467 500.654 61.88 500.654 60.4C500.654 58.92 500.44 57.76 500.014 56.92C499.587 56.08 499.007 55.66 498.274 55.66C497.527 55.66 496.94 56.08 496.514 56.92C496.087 57.76 495.874 58.92 495.874 60.4C495.874 61.88 496.087 63.0467 496.514 63.9C496.94 64.74 497.527 65.16 498.274 65.16C499.007 65.16 499.587 64.74 500.014 63.9ZM508.914 70.4H507.634V52.92H508.914V70.4ZM520.772 54.4C522.346 54.4 523.439 55.3267 524.052 57.18H526.792V53.26H528.052V69.48H526.792V63.74H524.032C523.392 65.5133 522.306 66.4 520.772 66.4C519.572 66.4 518.646 65.8667 517.992 64.8C517.339 63.7333 517.012 62.2667 517.012 60.4C517.012 58.5333 517.339 57.0667 517.992 56C518.646 54.9333 519.572 54.4 520.772 54.4ZM522.552 64.02C522.992 63.14 523.212 61.9333 523.212 60.4C523.212 58.8667 522.992 57.6667 522.552 56.8C522.126 55.92 521.532 55.48 520.772 55.48C520.012 55.48 519.412 55.92 518.972 56.8C518.546 57.6667 518.332 58.8667 518.332 60.4C518.332 61.9333 518.546 63.14 518.972 64.02C519.412 64.9 520.012 65.34 520.772 65.34C521.532 65.34 522.126 64.9 522.552 64.02ZM531.472 70.4H530.192V52.92H531.472V70.4ZM526.792 58.26H524.332C524.466 58.8867 524.532 59.6 524.532 60.4C524.532 61.1867 524.459 61.9333 524.312 62.64H526.792V58.26ZM538.697 53.92C539.91 53.92 540.937 54.2933 541.777 55.04C542.63 55.7867 543.057 56.7667 543.057 57.98C543.057 59.1933 542.63 60.18 541.777 60.94C540.937 61.6867 539.91 62.06 538.697 62.06C537.47 62.06 536.437 61.6867 535.597 60.94C534.757 60.1933 534.337 59.2133 534.337 58C534.337 56.7867 534.757 55.8067 535.597 55.06C536.437 54.3 537.47 53.92 538.697 53.92ZM538.697 55.02C537.804 55.02 537.07 55.3 536.497 55.86C535.924 56.4067 535.637 57.1133 535.637 57.98C535.637 58.8467 535.924 59.56 536.497 60.12C537.084 60.68 537.817 60.96 538.697 60.96C539.617 60.96 540.357 60.6867 540.917 60.14C541.477 59.5933 541.757 58.88 541.757 58C541.757 57.12 541.477 56.4067 540.917 55.86C540.357 55.3 539.617 55.02 538.697 55.02ZM550.137 59.42V60.52H547.417V63.3H546.137V52.92H547.417V55.66H550.137V56.76H547.417V59.42H550.137ZM547.437 70.4H546.137V65.24H536.237V64.14H547.437V70.4ZM567.642 61.46H564.722V70.4H563.442V52.92H564.722V60.36H567.642V61.46ZM558.882 55.34H553.822V54.2H558.882V55.34ZM561.522 58.24H551.302V57.16H561.522V58.24ZM560.582 63.08C560.582 64.0933 560.208 64.94 559.462 65.62C558.715 66.2867 557.748 66.62 556.562 66.62C555.375 66.62 554.402 66.2867 553.642 65.62C552.895 64.94 552.522 64.0933 552.522 63.08C552.522 62.0533 552.895 61.2 553.642 60.52C554.388 59.84 555.362 59.5 556.562 59.5C557.748 59.5 558.715 59.84 559.462 60.52C560.208 61.2 560.582 62.0533 560.582 63.08ZM558.522 64.86C559.042 64.3933 559.302 63.8 559.302 63.08C559.302 62.36 559.042 61.7667 558.522 61.3C558.002 60.8333 557.348 60.6 556.562 60.6C555.775 60.6 555.122 60.8333 554.602 61.3C554.082 61.7667 553.822 62.36 553.822 63.08C553.822 63.8 554.082 64.3933 554.602 64.86C555.122 65.3267 555.775 65.56 556.562 65.56C557.348 65.56 558.002 65.3267 558.522 64.86ZM578.026 57.1V56H581.626V52.92H582.906V65.62H581.626V60.98H578.026V59.88H581.626V57.1H578.026ZM583.286 69.78H571.726V64.44H573.006V68.7H583.286V69.78ZM577.286 62.48H569.566V54.54H577.286V62.48ZM576.006 61.38V55.64H570.846V61.38H576.006ZM607.305 59.74H604.585V66.08H603.305V52.92H604.585V58.66H607.305V59.74ZM605.345 69.98H593.745V64.92H595.005V68.88H605.345V69.98ZM602.125 62.7C600.378 62.9667 598.485 63.14 596.445 63.22C594.805 63.3133 593.065 63.36 591.225 63.36L590.985 62.2C592.758 62.2 594.065 62.1867 594.905 62.16V58.2H596.185V62.12C598.705 62.0267 600.632 61.8667 601.965 61.64L602.125 62.7ZM600.705 54.32C600.705 56.9333 600.518 58.9333 600.145 60.32L598.905 60.12C599.225 58.96 599.385 57.3867 599.385 55.4H592.145V54.32H600.705ZM619.79 65.56C617.056 65.9467 613.65 66.14 609.57 66.14V59.58H616.25V55.66H609.49V54.56H617.53V60.66H610.85V65.04C614.476 65.0667 617.403 64.8667 619.63 64.44L619.79 65.56ZM622.75 70.4H621.47V52.92H622.75V70.4ZM636.014 65.3L635.214 66.28C634.281 65.64 633.394 64.8267 632.554 63.84C631.714 62.8533 631.134 61.8467 630.814 60.82C630.201 62.9533 628.734 64.9133 626.414 66.7L625.554 65.74C626.834 64.9667 627.921 63.8667 628.814 62.44C629.708 61.0133 630.154 59.5733 630.154 58.12V55.86H626.194V54.76H635.434V55.86H631.474V58.08C631.474 59.56 631.914 60.96 632.794 62.28C633.688 63.5867 634.761 64.5933 636.014 65.3ZM642.154 61.22H639.194V70.4H637.914V52.92H639.194V60.12H642.154V61.22ZM656.959 56.52C656.959 57.76 656.226 58.64 654.759 59.16V61.98H658.919V63.08H643.139V61.98H647.259V59.14C645.792 58.62 645.059 57.7467 645.059 56.52C645.059 55.4933 645.579 54.7133 646.619 54.18C647.672 53.6333 649.139 53.36 651.019 53.36C652.899 53.36 654.359 53.6333 655.399 54.18C656.439 54.7133 656.959 55.4933 656.959 56.52ZM657.039 67.24C657.039 68.2267 656.506 68.98 655.439 69.5C654.372 70.0333 652.899 70.3 651.019 70.3C649.139 70.3 647.672 70.0333 646.619 69.5C645.566 68.98 645.039 68.2267 645.039 67.24C645.039 66.2667 645.566 65.52 646.619 65C647.672 64.4667 649.139 64.2 651.019 64.2C652.899 64.2 654.372 64.4667 655.439 65C656.506 65.52 657.039 66.2667 657.039 67.24ZM654.439 58.08C655.266 57.7333 655.679 57.2133 655.679 56.52C655.679 55.8267 655.266 55.3067 654.439 54.96C653.612 54.6133 652.472 54.44 651.019 54.44C649.579 54.44 648.446 54.6133 647.619 54.96C646.806 55.3067 646.399 55.8267 646.399 56.52C646.399 57.2133 646.806 57.7333 647.619 58.08C648.446 58.4267 649.579 58.6 651.019 58.6C652.472 58.6 653.612 58.4267 654.439 58.08ZM651.019 65.28C649.579 65.28 648.439 65.4467 647.599 65.78C646.772 66.1 646.359 66.5867 646.359 67.24C646.359 67.8933 646.772 68.3867 647.599 68.72C648.439 69.0533 649.579 69.22 651.019 69.22C652.486 69.22 653.632 69.06 654.459 68.74C655.286 68.4067 655.699 67.9067 655.699 67.24C655.699 66.5867 655.279 66.1 654.439 65.78C653.612 65.4467 652.472 65.28 651.019 65.28ZM651.019 59.7C650.139 59.7 649.312 59.6267 648.539 59.48V61.98H653.479V59.5C652.772 59.6333 651.952 59.7 651.019 59.7ZM680.418 70.16H668.878V64.34H670.138V66.14H679.158V64.34H680.418V70.16ZM674.238 56.38C674.238 57.2733 673.871 57.96 673.138 58.44C672.404 58.92 671.498 59.16 670.418 59.16C669.298 59.16 668.364 58.9267 667.618 58.46C666.884 57.98 666.518 57.2867 666.518 56.38C666.518 55.46 666.884 54.76 667.618 54.28C668.351 53.7867 669.284 53.54 670.418 53.54C671.511 53.54 672.418 53.7867 673.138 54.28C673.871 54.76 674.238 55.46 674.238 56.38ZM679.158 69.08V67.24H670.138V69.08H679.158ZM677.358 63.54H676.098V62.7H672.858V61.64H676.098V53.2H677.358V63.54ZM672.998 56.38C672.998 55.82 672.764 55.38 672.298 55.06C671.831 54.74 671.204 54.58 670.418 54.58C669.631 54.58 668.991 54.74 668.498 55.06C668.004 55.38 667.758 55.82 667.758 56.38C667.758 56.9267 668.011 57.3533 668.518 57.66C669.024 57.9533 669.658 58.1 670.418 58.1C671.151 58.1 671.764 57.9533 672.258 57.66C672.751 57.3533 672.998 56.9267 672.998 56.38ZM680.418 63.6H679.138V52.92H680.418V63.6ZM671.038 63.52H669.758V61.08C668.398 61.1733 667.051 61.22 665.718 61.22L665.518 60.08C667.038 60.08 668.624 60.04 670.278 59.96C672.411 59.8267 674.004 59.6933 675.058 59.56L675.178 60.6C674.058 60.76 672.678 60.8933 671.038 61V63.52ZM698.782 67.96H683.002V66.88H698.782V67.96ZM697.102 58.82C697.102 60.14 696.529 61.1933 695.382 61.98C694.249 62.7667 692.742 63.16 690.862 63.16C688.982 63.16 687.476 62.7667 686.342 61.98C685.222 61.1933 684.662 60.14 684.662 58.82C684.662 57.5133 685.229 56.4667 686.362 55.68C687.496 54.88 688.996 54.48 690.862 54.48C692.742 54.48 694.249 54.88 695.382 55.68C696.529 56.4667 697.102 57.5133 697.102 58.82ZM695.842 58.82C695.842 57.86 695.389 57.0867 694.482 56.5C693.576 55.9133 692.369 55.62 690.862 55.62C689.369 55.62 688.169 55.9133 687.262 56.5C686.369 57.0867 685.922 57.86 685.922 58.82C685.922 59.7667 686.376 60.5333 687.282 61.12C688.189 61.7067 689.382 62 690.862 62C692.356 62 693.556 61.7067 694.462 61.12C695.382 60.5333 695.842 59.7667 695.842 58.82ZM716.087 68.16H700.307V67.06H707.527V63.82H702.407V58.42H712.707V55.46H702.407V54.38H713.987V59.5H703.687V62.74H714.447V63.82H708.807V67.06H716.087V68.16ZM189.86 99.7L189.14 100.74C187.66 100.26 186.287 99.4933 185.02 98.44C183.753 97.3867 182.953 96.42 182.62 95.54C182.34 96.4333 181.58 97.4067 180.34 98.46C179.1 99.5 177.707 100.247 176.16 100.7L175.46 99.66C176.433 99.46 177.413 99.0533 178.4 98.44C179.4 97.8267 180.247 97.0667 180.94 96.16C181.633 95.2533 181.98 94.36 181.98 93.48V92.28H183.3V93.48C183.3 94.7733 184.02 96.0467 185.46 97.3C186.9 98.54 188.367 99.34 189.86 99.7ZM190.54 106.16H174.76V105.06H181.98V100.58H183.26V105.06H190.54V106.16ZM203.325 103.56C200.591 103.947 197.185 104.14 193.105 104.14V97.58H199.785V93.66H193.025V92.56H201.065V98.66H194.385V103.04C198.011 103.067 200.938 102.867 203.165 102.44L203.325 103.56ZM206.285 108.4H205.005V90.92H206.285V108.4ZM214.609 92.14C215.903 92.14 216.996 92.52 217.889 93.28C218.783 94.0267 219.229 95.0067 219.229 96.22C219.229 97.3267 218.856 98.2467 218.109 98.98C217.363 99.7133 216.416 100.14 215.269 100.26V103.26C217.723 103.113 219.396 102.973 220.289 102.84L220.389 103.92C218.856 104.107 216.943 104.267 214.649 104.4C212.769 104.533 211.016 104.6 209.389 104.6L209.129 103.42C210.716 103.42 212.336 103.393 213.989 103.34V100.26C212.843 100.14 211.889 99.7133 211.129 98.98C210.369 98.2467 209.989 97.3333 209.989 96.24C209.989 95.0267 210.436 94.04 211.329 93.28C212.236 92.52 213.329 92.14 214.609 92.14ZM214.609 93.22C213.663 93.22 212.869 93.5 212.229 94.06C211.589 94.62 211.269 95.34 211.269 96.22C211.269 97.1 211.589 97.8267 212.229 98.4C212.869 98.96 213.663 99.24 214.609 99.24C215.596 99.24 216.396 98.9667 217.009 98.42C217.623 97.86 217.929 97.1333 217.929 96.24C217.929 95.3467 217.623 94.62 217.009 94.06C216.396 93.5 215.596 93.22 214.609 93.22ZM225.649 99.42H222.729V108.4H221.449V90.92H222.729V98.34H225.649V99.42ZM248.008 97.3H245.308V101.82H244.028V90.92H245.308V96.2H248.008V97.3ZM245.308 108.14H234.328V102.66H245.308V108.14ZM244.028 107.06V103.74H235.608V107.06H244.028ZM239.348 92.52H234.368V91.4H239.348V92.52ZM241.848 94.9H231.868V93.8H241.848V94.9ZM240.728 98.66C240.728 99.5267 240.361 100.227 239.628 100.76C238.895 101.28 237.955 101.54 236.808 101.54C235.661 101.54 234.721 101.28 233.988 100.76C233.255 100.24 232.888 99.54 232.888 98.66C232.888 97.78 233.248 97.0867 233.968 96.58C234.701 96.06 235.648 95.8 236.808 95.8C237.968 95.8 238.908 96.06 239.628 96.58C240.361 97.0867 240.728 97.78 240.728 98.66ZM238.688 99.98C239.208 99.6467 239.468 99.2067 239.468 98.66C239.468 98.1133 239.208 97.68 238.688 97.36C238.181 97.0267 237.555 96.86 236.808 96.86C236.061 96.86 235.428 97.0267 234.908 97.36C234.401 97.68 234.148 98.1133 234.148 98.66C234.148 99.2067 234.408 99.6467 234.928 99.98C235.448 100.313 236.075 100.48 236.808 100.48C237.541 100.48 238.168 100.313 238.688 99.98ZM257.273 93.04C257.246 95.12 257.133 96.7867 256.933 98.04H259.593V91.36H260.853V107.48H259.593V99.12H256.733C256.199 101.413 255.266 103.433 253.933 105.18L252.833 104.46C253.499 103.647 254.059 102.76 254.513 101.8C254.966 100.827 255.286 99.8667 255.473 98.92C255.673 97.9733 255.806 97.1267 255.873 96.38C255.939 95.62 255.959 94.8733 255.933 94.14H254.113V93.04H257.273ZM263.913 108.4H262.633V90.92H263.913V108.4ZM253.593 93.04C253.593 95.1733 253.326 97.1067 252.793 98.84C252.259 100.573 251.346 102.187 250.053 103.68L249.013 102.96C249.666 102.227 250.226 101.44 250.693 100.6C251.159 99.7467 251.493 98.92 251.693 98.12C251.906 97.3067 252.053 96.5867 252.133 95.96C252.226 95.3333 252.273 94.7267 252.273 94.14H249.773V93.04H253.593ZM287.871 95.98H285.151V99.92H283.871V90.92H285.151V94.9H287.871V95.98ZM285.831 108.28H274.291V103.96H283.871V101.98H274.211V100.88H285.151V104.96H275.571V107.18H285.831V108.28ZM273.331 92.72C274.198 92 275.265 91.64 276.531 91.64C277.798 91.64 278.865 91.9933 279.731 92.7C280.611 93.4067 281.051 94.3267 281.051 95.46C281.051 96.5933 280.611 97.52 279.731 98.24C278.865 98.9467 277.798 99.3 276.531 99.3C275.265 99.3 274.198 98.9467 273.331 98.24C272.465 97.5333 272.031 96.6133 272.031 95.48C272.031 94.3467 272.465 93.4267 273.331 92.72ZM276.531 92.76C275.611 92.76 274.851 93.0133 274.251 93.52C273.651 94.0133 273.351 94.66 273.351 95.46C273.351 96.26 273.651 96.9133 274.251 97.42C274.851 97.9133 275.611 98.16 276.531 98.16C277.505 98.16 278.278 97.92 278.851 97.44C279.438 96.9467 279.731 96.2933 279.731 95.48C279.731 94.6667 279.438 94.0133 278.851 93.52C278.265 93.0133 277.491 92.76 276.531 92.76ZM303.336 101.3H302.056V90.92H303.336V101.3ZM303.356 108.14H291.676V102.26H303.356V108.14ZM302.076 107.06V103.36H292.956V107.06H302.076ZM299.596 99.86C297.263 100.193 294.049 100.36 289.956 100.36V95.54H296.596V93.08H289.916V92H297.876V96.62H291.236V99.26C295.209 99.26 297.943 99.0867 299.436 98.74L299.596 99.86ZM320.621 108.4H319.341V90.92H320.621V108.4ZM307.221 98.42C307.221 96.54 307.594 95.0533 308.341 93.96C309.087 92.8533 310.134 92.3 311.481 92.3C312.841 92.3 313.894 92.8533 314.641 93.96C315.387 95.0533 315.761 96.5467 315.761 98.44C315.761 100.32 315.387 101.813 314.641 102.92C313.894 104.027 312.841 104.58 311.481 104.58C310.134 104.58 309.087 104.027 308.341 102.92C307.594 101.813 307.221 100.313 307.221 98.42ZM313.681 102.04C314.241 101.107 314.521 99.9067 314.521 98.44C314.521 96.9733 314.241 95.7733 313.681 94.84C313.121 93.9067 312.387 93.44 311.481 93.44C310.574 93.44 309.847 93.9067 309.301 94.84C308.754 95.76 308.481 96.96 308.481 98.44C308.481 99.9067 308.754 101.107 309.301 102.04C309.847 102.96 310.574 103.42 311.481 103.42C312.387 103.42 313.121 102.96 313.681 102.04ZM342.099 98.66H338.819V97.58H342.099V90.92H343.379V108.4H342.099V98.66ZM334.319 103.48C332.986 103.787 331.406 103.94 329.579 103.94V92.78H333.759V93.88H330.859V102.78C331.766 102.833 332.859 102.707 334.139 102.4L334.319 103.48ZM340.519 103.44C339.093 103.773 337.213 103.94 334.879 103.94V92.78H339.519V93.88H336.159V102.78C337.839 102.78 339.226 102.64 340.319 102.36L340.519 103.44ZM367.798 99.06H364.878V108.4H363.598V90.92H364.878V97.98H367.798V99.06ZM360.138 103.96H352.218V92.5H353.498V96.94H358.858V92.5H360.138V103.96ZM358.858 102.86V98.04H353.498V102.86H358.858ZM384.603 106.16H368.823V105.06H376.043V101.82H370.923V96.42H381.223V93.46H370.923V92.38H382.503V97.5H372.203V100.74H382.963V101.82H377.323V105.06H384.603V106.16ZM402.321 101.58C400.774 101.78 398.921 101.947 396.761 102.08C394.361 102.227 392.561 102.3 391.361 102.3L391.121 101.18C392.601 101.18 394.208 101.133 395.941 101.04V99.76C393.768 99.5867 392.681 98.8267 392.681 97.48C392.681 96.7067 393.048 96.1267 393.781 95.74C394.528 95.3533 395.468 95.16 396.601 95.16C397.748 95.16 398.688 95.3533 399.421 95.74C400.168 96.1267 400.541 96.7 400.541 97.46C400.541 98.1667 400.234 98.7133 399.621 99.1C399.008 99.4733 398.208 99.6933 397.221 99.76V100.96C399.354 100.853 401.021 100.713 402.221 100.54L402.321 101.58ZM407.461 97.96H404.741V102.52H403.461V90.92H404.741V96.86H407.461V97.96ZM393.421 103.42H404.741V108.54H403.461V104.52H393.421V103.42ZM398.561 98.42C399.081 98.2067 399.341 97.8867 399.341 97.46C399.341 97.0333 399.081 96.72 398.561 96.52C398.054 96.3067 397.401 96.2 396.601 96.2C395.814 96.2 395.168 96.3067 394.661 96.52C394.154 96.72 393.901 97.0333 393.901 97.46C393.901 97.8867 394.154 98.2067 394.661 98.42C395.168 98.6333 395.814 98.74 396.601 98.74C397.388 98.74 398.041 98.6333 398.561 98.42ZM401.621 94.54H391.721V93.44H401.621V94.54ZM399.021 92.32H394.241V91.18H399.021V92.32ZM422.926 103.62H421.646V90.92H422.926V103.62ZM423.386 107.78H411.586V102.46H412.866V106.7H423.386V107.78ZM410.446 93.32C411.326 92.5333 412.392 92.14 413.646 92.14C414.899 92.14 415.959 92.5267 416.826 93.3C417.706 94.0733 418.146 95.08 418.146 96.32C418.146 97.5733 417.706 98.5933 416.826 99.38C415.959 100.153 414.899 100.54 413.646 100.54C412.392 100.54 411.326 100.153 410.446 99.38C409.566 98.6067 409.126 97.6 409.126 96.36C409.126 95.1067 409.566 94.0933 410.446 93.32ZM413.646 93.28C412.726 93.28 411.959 93.5667 411.346 94.14C410.746 94.7 410.446 95.4267 410.446 96.32C410.446 97.2267 410.752 97.9733 411.366 98.56C411.979 99.1333 412.739 99.42 413.646 99.42C414.606 99.42 415.379 99.14 415.966 98.58C416.552 98.02 416.846 97.28 416.846 96.36C416.846 95.44 416.552 94.7 415.966 94.14C415.379 93.5667 414.606 93.28 413.646 93.28ZM440.21 108.4H438.93V90.92H440.21V108.4ZM426.81 98.42C426.81 96.54 427.184 95.0533 427.93 93.96C428.677 92.8533 429.724 92.3 431.07 92.3C432.43 92.3 433.484 92.8533 434.23 93.96C434.977 95.0533 435.35 96.5467 435.35 98.44C435.35 100.32 434.977 101.813 434.23 102.92C433.484 104.027 432.43 104.58 431.07 104.58C429.724 104.58 428.677 104.027 427.93 102.92C427.184 101.813 426.81 100.313 426.81 98.42ZM433.27 102.04C433.83 101.107 434.11 99.9067 434.11 98.44C434.11 96.9733 433.83 95.7733 433.27 94.84C432.71 93.9067 431.977 93.44 431.07 93.44C430.164 93.44 429.437 93.9067 428.89 94.84C428.344 95.76 428.07 96.96 428.07 98.44C428.07 99.9067 428.344 101.107 428.89 102.04C429.437 102.96 430.164 103.42 431.07 103.42C431.977 103.42 432.71 102.96 433.27 102.04ZM461.909 90.92V98.38H464.869V99.48H461.909V108.4H460.629V90.92H461.909ZM457.309 92.82C457.256 95.5533 456.522 97.92 455.109 99.92C453.696 101.92 451.829 103.547 449.509 104.8L448.729 103.78C450.929 102.687 452.642 101.287 453.869 99.58C455.109 97.86 455.809 95.9733 455.969 93.92H449.309V92.82H457.309ZM481.634 100.24H465.854V99.16H481.634V100.24ZM478.294 102.88C479.334 103.413 479.854 104.18 479.854 105.18C479.854 106.18 479.334 106.947 478.294 107.48C477.267 108.027 475.76 108.3 473.774 108.3C471.8 108.3 470.3 108.027 469.274 107.48C468.247 106.947 467.734 106.18 467.734 105.18C467.734 104.167 468.247 103.393 469.274 102.86C470.3 102.327 471.8 102.06 473.774 102.06C475.76 102.06 477.267 102.333 478.294 102.88ZM473.774 103.1C472.28 103.1 471.114 103.28 470.274 103.64C469.447 103.987 469.034 104.5 469.034 105.18C469.034 105.86 469.447 106.373 470.274 106.72C471.114 107.067 472.28 107.24 473.774 107.24C475.28 107.24 476.447 107.067 477.274 106.72C478.114 106.373 478.534 105.86 478.534 105.18C478.534 104.5 478.114 103.987 477.274 103.64C476.447 103.28 475.28 103.1 473.774 103.1ZM479.734 97.1H468.074V91.4H469.334V96H479.734V97.1ZM499.238 97.18H496.518V101.1H495.238V90.92H496.518V96.1H499.238V97.18ZM496.518 108.16H485.638V101.92H486.918V103.8H495.238V101.92H496.518V108.16ZM495.238 107.08V104.9H486.918V107.08H495.238ZM490.578 92.34H485.598V91.2H490.578V92.34ZM493.078 94.66H483.098V93.58H493.078V94.66ZM491.958 98.4C491.958 99.2667 491.592 99.9667 490.858 100.5C490.125 101.02 489.185 101.28 488.038 101.28C486.892 101.28 485.952 101.02 485.218 100.5C484.485 99.98 484.118 99.28 484.118 98.4C484.118 97.52 484.485 96.82 485.218 96.3C485.952 95.78 486.892 95.52 488.038 95.52C489.185 95.52 490.125 95.78 490.858 96.3C491.592 96.82 491.958 97.52 491.958 98.4ZM489.918 99.72C490.438 99.3867 490.698 98.9467 490.698 98.4C490.698 97.8533 490.438 97.42 489.918 97.1C489.412 96.7667 488.785 96.6 488.038 96.6C487.292 96.6 486.658 96.7667 486.138 97.1C485.632 97.42 485.378 97.8533 485.378 98.4C485.378 98.9467 485.638 99.3867 486.158 99.72C486.678 100.053 487.305 100.22 488.038 100.22C488.772 100.22 489.398 100.053 489.918 99.72ZM514.523 108.4H513.243V90.92H514.523V108.4ZM511.643 103.12C510.483 103.373 508.93 103.587 506.983 103.76C505.05 103.92 503.256 104 501.603 104V92.72H502.883V102.86C504.056 102.86 505.523 102.78 507.283 102.62C509.043 102.46 510.436 102.267 511.463 102.04L511.643 103.12ZM534.048 99.04H531.128V108.4H529.848V90.92H531.128V97.96H534.048V99.04ZM528.408 103.4C525.554 103.92 522.274 104.12 518.568 104V92.74H526.708V93.84H519.848V102.86C521.114 102.927 522.581 102.907 524.248 102.8C525.928 102.68 527.254 102.513 528.228 102.3L528.408 103.4ZM535.173 106.56V104.88H536.833V106.56H535.173Z" fill="black"/>
</svg>
