<svg width="765" height="126" viewBox="0 0 765 126" fill="none" xmlns="http://www.w3.org/2000/svg">
<path d="M11.424 11.316C11.3867 18.6893 8.39067 24.2893 2.436 28.116L0.84 26.324C3.99467 24.4573 6.244 22.0213 7.588 19.016L1.54 19.772L1.092 17.644L8.316 17.028C8.67067 15.74 8.876 14.508 8.932 13.332H1.988V11.316H11.424ZM16.968 31.756H14.616V19.996H10.948V17.98H14.616V9.048H16.968V31.756ZM21.728 32.96H19.348V8.488H21.728V32.96ZM45.5906 32.792H27.9506V27.108H42.2026V25.456H27.8106V23.412H44.6666V28.928H30.4426V30.748H45.5906V32.792ZM45.0866 17.98H27.4746V15.964H31.1146L30.5546 12.604L33.0466 12.24L33.4666 15.964H39.0946L39.5986 12.212L42.0906 12.576L41.4186 15.964H45.0866V17.98ZM47.3826 21.592H25.2906V19.576H47.3826V21.592ZM45.1146 11.4H27.4466V9.384H45.1146V11.4ZM64.0211 24.28L64.2731 26.352C61.0998 26.8933 57.4598 27.164 53.3531 27.164H50.4131V17.56H59.2051V12.716H50.3291V10.7H61.6691V19.548H52.8771V25.12C57.2825 25.1573 60.9971 24.8773 64.0211 24.28ZM68.4171 8.488V18.204H72.2251V20.248H68.4171V32.96H65.9531V8.488H68.4171ZM93.9597 32.96H91.4677V8.488H93.9597V32.96ZM86.7637 26.884H74.9477V10.588H77.4117V16.692H84.2997V10.56H86.7637V26.884ZM84.2997 24.896V18.708H77.4117V24.896H84.2997ZM117.206 11.092V14.592C117.188 16.5333 117.066 18.624 116.842 20.864C116.618 23.0853 116.338 24.8867 116.002 26.268L113.65 25.988C113.968 24.4573 114.229 22.4413 114.434 19.94L100.294 20.612L99.9303 18.568L114.602 18.008C114.64 17.448 114.658 16.6827 114.658 15.712V13.108H100.63V11.092H117.206ZM120.062 29.516H97.9703V27.5H120.062V29.516Z" fill="black"/>
<path d="M188.74 20.76C188.74 22.0667 188.24 23.1333 187.24 23.96C186.253 24.7733 184.927 25.2267 183.26 25.32V28.96H190.54V30.06H174.76V28.96H181.98V25.32C180.327 25.2267 179.007 24.7733 178.02 23.96C177.033 23.1333 176.54 22.0667 176.54 20.76C176.54 19.36 177.093 18.24 178.2 17.4C179.32 16.56 180.793 16.14 182.62 16.14C184.473 16.14 185.953 16.56 187.06 17.4C188.18 18.24 188.74 19.36 188.74 20.76ZM187.48 20.76C187.48 19.72 187.033 18.88 186.14 18.24C185.26 17.6 184.087 17.28 182.62 17.28C181.18 17.28 180.013 17.6 179.12 18.24C178.24 18.88 177.8 19.72 177.8 20.76C177.8 21.7867 178.24 22.62 179.12 23.26C180.013 23.9 181.18 24.22 182.62 24.22C184.073 24.22 185.247 23.9 186.14 23.26C187.033 22.62 187.48 21.7867 187.48 20.76ZM206.205 25.24H193.625V24.16H196.465L195.985 19.04L197.345 18.84L197.705 24.16H202.125L202.725 18.86L203.985 19.08L203.345 24.16H206.205V25.24ZM207.845 30.16H192.065V29.06H207.845V30.16ZM206.205 17.96H193.625V16.86H206.205V17.96ZM225.649 23.14H222.729V32.4H221.449V14.92H222.729V22.04H225.649V23.14ZM219.969 27.48C216.929 27.9333 213.629 28.16 210.069 28.16V21.58H216.629V17.66H210.069V16.56H217.909V22.66H211.349V27.04C212.509 27.04 213.936 26.9867 215.629 26.88C217.336 26.76 218.729 26.5933 219.809 26.38L219.969 27.48ZM240.914 27.62H239.634V14.92H240.914V27.62ZM241.374 31.78H229.574V26.46H230.854V30.7H241.374V31.78ZM228.434 17.32C229.314 16.5333 230.381 16.14 231.634 16.14C232.887 16.14 233.947 16.5267 234.814 17.3C235.694 18.0733 236.134 19.08 236.134 20.32C236.134 21.5733 235.694 22.5933 234.814 23.38C233.947 24.1533 232.887 24.54 231.634 24.54C230.381 24.54 229.314 24.1533 228.434 23.38C227.554 22.6067 227.114 21.6 227.114 20.36C227.114 19.1067 227.554 18.0933 228.434 17.32ZM231.634 17.28C230.714 17.28 229.947 17.5667 229.334 18.14C228.734 18.7 228.434 19.4267 228.434 20.32C228.434 21.2267 228.741 21.9733 229.354 22.56C229.967 23.1333 230.727 23.42 231.634 23.42C232.594 23.42 233.367 23.14 233.954 22.58C234.541 22.02 234.834 21.28 234.834 20.36C234.834 19.44 234.541 18.7 233.954 18.14C233.367 17.5667 232.594 17.28 231.634 17.28ZM260.059 20.76H257.339V25.38H256.059V14.92H257.339V19.66H260.059V20.76ZM252.659 24.12H244.699V16H245.979V18.9H251.379V16H252.659V24.12ZM251.379 23.02V20H245.979V23.02H251.379ZM257.339 32.4H256.039V27.4H246.119V26.32H257.339V32.4ZM277.363 20.76H274.643V25.36H273.363V14.92H274.643V19.66H277.363V20.76ZM274.663 32.14H263.503V26.4H274.663V32.14ZM273.383 31.06V27.48H264.763V31.06H273.383ZM271.603 24.18C268.843 24.5667 265.637 24.7533 261.983 24.74V19.62H268.303V17.04H261.963V15.96H269.583V20.72H263.263V23.62C266.397 23.6867 269.123 23.5067 271.443 23.08L271.603 24.18ZM290.448 28.84C289.195 29 287.115 29.1733 284.208 29.36C282.088 29.4933 280.328 29.5667 278.928 29.58L278.708 28.42C279.961 28.42 281.635 28.3667 283.728 28.26V26.32C282.675 26.2267 281.835 25.9333 281.208 25.44C280.581 24.9333 280.268 24.2867 280.268 23.5C280.268 22.62 280.641 21.9267 281.388 21.42C282.135 20.9133 283.115 20.66 284.328 20.66C285.555 20.66 286.535 20.9133 287.268 21.42C288.001 21.9133 288.368 22.6067 288.368 23.5C288.368 24.2867 288.061 24.9267 287.448 25.42C286.848 25.9133 286.021 26.2133 284.968 26.32V28.2C287.915 28 289.701 27.8533 290.328 27.76L290.448 28.84ZM292.808 32.4H291.528V14.92H292.808V32.4ZM287.068 23.5C287.068 22.9533 286.815 22.52 286.308 22.2C285.815 21.88 285.155 21.72 284.328 21.72C283.515 21.72 282.855 21.88 282.348 22.2C281.841 22.52 281.588 22.9533 281.588 23.5C281.588 24.0333 281.841 24.4667 282.348 24.8C282.855 25.12 283.515 25.28 284.328 25.28C285.141 25.28 285.801 25.12 286.308 24.8C286.815 24.4667 287.068 24.0333 287.068 23.5ZM289.688 19.62H279.208V18.48H289.688V19.62ZM286.868 17.2H281.848V16.04H286.868V17.2ZM301.133 16.14C302.426 16.14 303.519 16.52 304.413 17.28C305.306 18.0267 305.753 19.0067 305.753 20.22C305.753 21.3267 305.379 22.2467 304.633 22.98C303.886 23.7133 302.939 24.14 301.793 24.26V27.26C304.246 27.1133 305.919 26.9733 306.813 26.84L306.913 27.92C305.379 28.1067 303.466 28.2667 301.173 28.4C299.293 28.5333 297.539 28.6 295.913 28.6L295.653 27.42C297.239 27.42 298.859 27.3933 300.513 27.34V24.26C299.366 24.14 298.413 23.7133 297.653 22.98C296.893 22.2467 296.513 21.3333 296.513 20.24C296.513 19.0267 296.959 18.04 297.853 17.28C298.759 16.52 299.853 16.14 301.133 16.14ZM301.133 17.22C300.186 17.22 299.393 17.5 298.753 18.06C298.113 18.62 297.793 19.34 297.793 20.22C297.793 21.1 298.113 21.8267 298.753 22.4C299.393 22.96 300.186 23.24 301.133 23.24C302.119 23.24 302.919 22.9667 303.533 22.42C304.146 21.86 304.453 21.1333 304.453 20.24C304.453 19.3467 304.146 18.62 303.533 18.06C302.919 17.5 302.119 17.22 301.133 17.22ZM312.173 23.42H309.253V32.4H307.973V14.92H309.253V22.34H312.173V23.42ZM334.531 21.3H331.831V25.82H330.551V14.92H331.831V20.2H334.531V21.3ZM331.831 32.14H320.851V26.66H331.831V32.14ZM330.551 31.06V27.74H322.131V31.06H330.551ZM325.871 16.52H320.891V15.4H325.871V16.52ZM328.371 18.9H318.391V17.8H328.371V18.9ZM327.251 22.66C327.251 23.5267 326.885 24.2267 326.151 24.76C325.418 25.28 324.478 25.54 323.331 25.54C322.185 25.54 321.245 25.28 320.511 24.76C319.778 24.24 319.411 23.54 319.411 22.66C319.411 21.78 319.771 21.0867 320.491 20.58C321.225 20.06 322.171 19.8 323.331 19.8C324.491 19.8 325.431 20.06 326.151 20.58C326.885 21.0867 327.251 21.78 327.251 22.66ZM325.211 23.98C325.731 23.6467 325.991 23.2067 325.991 22.66C325.991 22.1133 325.731 21.68 325.211 21.36C324.705 21.0267 324.078 20.86 323.331 20.86C322.585 20.86 321.951 21.0267 321.431 21.36C320.925 21.68 320.671 22.1133 320.671 22.66C320.671 23.2067 320.931 23.6467 321.451 23.98C321.971 24.3133 322.598 24.48 323.331 24.48C324.065 24.48 324.691 24.3133 325.211 23.98ZM343.796 17.04C343.769 19.12 343.656 20.7867 343.456 22.04H346.116V15.36H347.376V31.48H346.116V23.12H343.256C342.723 25.4133 341.789 27.4333 340.456 29.18L339.356 28.46C340.023 27.6467 340.583 26.76 341.036 25.8C341.489 24.8267 341.809 23.8667 341.996 22.92C342.196 21.9733 342.329 21.1267 342.396 20.38C342.463 19.62 342.483 18.8733 342.456 18.14H340.636V17.04H343.796ZM350.436 32.4H349.156V14.92H350.436V32.4ZM340.116 17.04C340.116 19.1733 339.849 21.1067 339.316 22.84C338.783 24.5733 337.869 26.1867 336.576 27.68L335.536 26.96C336.189 26.2267 336.749 25.44 337.216 24.6C337.683 23.7467 338.016 22.92 338.216 22.12C338.429 21.3067 338.576 20.5867 338.656 19.96C338.749 19.3333 338.796 18.7267 338.796 18.14H336.296V17.04H340.116ZM372.135 18.88C372.135 19.9067 371.675 20.7 370.755 21.26C369.835 21.8067 368.521 22.1133 366.815 22.18V24.28H374.095V25.38H358.315V24.28H365.535V22.18C363.855 22.1133 362.555 21.8067 361.635 21.26C360.728 20.7 360.275 19.9067 360.275 18.88C360.275 17.7733 360.795 16.94 361.835 16.38C362.875 15.82 364.335 15.54 366.215 15.54C368.108 15.54 369.568 15.82 370.595 16.38C371.621 16.94 372.135 17.7733 372.135 18.88ZM369.595 17.26C368.768 16.8733 367.641 16.68 366.215 16.68C364.788 16.68 363.661 16.8667 362.835 17.24C362.021 17.6133 361.615 18.16 361.615 18.88C361.615 19.5867 362.021 20.1333 362.835 20.52C363.661 20.8933 364.781 21.08 366.195 21.08C367.621 21.08 368.755 20.8933 369.595 20.52C370.435 20.1333 370.855 19.5867 370.855 18.88C370.855 18.1733 370.435 17.6333 369.595 17.26ZM372.175 31.82H360.415V26.94H361.695V30.74H372.175V31.82ZM391.899 23.14H388.979V32.4H387.699V14.92H388.979V22.04H391.899V23.14ZM386.219 27.48C383.179 27.9333 379.879 28.16 376.319 28.16V21.58H382.879V17.66H376.319V16.56H384.159V22.66H377.599V27.04C378.759 27.04 380.186 26.9867 381.879 26.88C383.586 26.76 384.979 26.5933 386.059 26.38L386.219 27.48ZM407.164 27.62H405.884V14.92H407.164V27.62ZM407.624 31.78H395.824V26.46H397.104V30.7H407.624V31.78ZM394.684 17.32C395.564 16.5333 396.631 16.14 397.884 16.14C399.137 16.14 400.197 16.5267 401.064 17.3C401.944 18.0733 402.384 19.08 402.384 20.32C402.384 21.5733 401.944 22.5933 401.064 23.38C400.197 24.1533 399.137 24.54 397.884 24.54C396.631 24.54 395.564 24.1533 394.684 23.38C393.804 22.6067 393.364 21.6 393.364 20.36C393.364 19.1067 393.804 18.0933 394.684 17.32ZM397.884 17.28C396.964 17.28 396.197 17.5667 395.584 18.14C394.984 18.7 394.684 19.4267 394.684 20.32C394.684 21.2267 394.991 21.9733 395.604 22.56C396.217 23.1333 396.977 23.42 397.884 23.42C398.844 23.42 399.617 23.14 400.204 22.58C400.791 22.02 401.084 21.28 401.084 20.36C401.084 19.44 400.791 18.7 400.204 18.14C399.617 17.5667 398.844 17.28 397.884 17.28ZM426.309 20.76H423.589V25.38H422.309V14.92H423.589V19.66H426.309V20.76ZM418.909 24.12H410.949V16H412.229V18.9H417.629V16H418.909V24.12ZM417.629 23.02V20H412.229V23.02H417.629ZM423.589 32.4H422.289V27.4H412.369V26.32H423.589V32.4ZM443.613 20.76H440.893V25.36H439.613V14.92H440.893V19.66H443.613V20.76ZM440.913 32.14H429.753V26.4H440.913V32.14ZM439.633 31.06V27.48H431.013V31.06H439.633ZM437.853 24.18C435.093 24.5667 431.887 24.7533 428.233 24.74V19.62H434.553V17.04H428.213V15.96H435.833V20.72H429.513V23.62C432.647 23.6867 435.373 23.5067 437.693 23.08L437.853 24.18ZM456.698 28.84C455.445 29 453.365 29.1733 450.458 29.36C448.338 29.4933 446.578 29.5667 445.178 29.58L444.958 28.42C446.211 28.42 447.885 28.3667 449.978 28.26V26.32C448.925 26.2267 448.085 25.9333 447.458 25.44C446.831 24.9333 446.518 24.2867 446.518 23.5C446.518 22.62 446.891 21.9267 447.638 21.42C448.385 20.9133 449.365 20.66 450.578 20.66C451.805 20.66 452.785 20.9133 453.518 21.42C454.251 21.9133 454.618 22.6067 454.618 23.5C454.618 24.2867 454.311 24.9267 453.698 25.42C453.098 25.9133 452.271 26.2133 451.218 26.32V28.2C454.165 28 455.951 27.8533 456.578 27.76L456.698 28.84ZM459.058 32.4H457.778V14.92H459.058V32.4ZM453.318 23.5C453.318 22.9533 453.065 22.52 452.558 22.2C452.065 21.88 451.405 21.72 450.578 21.72C449.765 21.72 449.105 21.88 448.598 22.2C448.091 22.52 447.838 22.9533 447.838 23.5C447.838 24.0333 448.091 24.4667 448.598 24.8C449.105 25.12 449.765 25.28 450.578 25.28C451.391 25.28 452.051 25.12 452.558 24.8C453.065 24.4667 453.318 24.0333 453.318 23.5ZM455.938 19.62H445.458V18.48H455.938V19.62ZM453.118 17.2H448.098V16.04H453.118V17.2ZM477.923 24.22H462.143V23.2H477.923V24.22ZM476.523 32.02H464.123V28.28H474.643V26.78H464.083V25.76H475.923V29.26H465.403V30.92H476.523V32.02ZM476.123 21.62H464.263V18.08H474.543V16.58H464.243V15.52H475.823V19.1H465.543V20.58H476.123V21.62ZM499.421 32.4H498.141V23.1H495.581V31.48H494.321V15.38H495.581V22.02H498.141V14.92H499.421V32.4ZM492.101 17.14C491.955 22.0467 489.755 25.8867 485.501 28.66L484.621 27.68C486.435 26.64 487.888 25.2667 488.981 23.56C490.075 21.84 490.655 20.0667 490.721 18.24H485.361V17.14H492.101ZM502.966 19.7V18.6H512.566V19.7H508.366V19.84C508.366 20.7867 508.839 21.6333 509.786 22.38C510.733 23.1267 511.799 23.6267 512.986 23.88L512.366 24.9C511.353 24.6067 510.413 24.18 509.546 23.62C508.693 23.06 508.093 22.42 507.746 21.7C507.493 22.46 506.919 23.1733 506.026 23.84C505.146 24.5067 504.146 25.02 503.026 25.38L502.426 24.42C503.746 24.0733 504.853 23.48 505.746 22.64C506.639 21.7867 507.086 20.8467 507.086 19.82V19.7H502.966ZM516.226 32.4H514.946V14.92H516.226V32.4ZM513.866 28.52C512.079 28.72 509.999 28.8733 507.626 28.98C505.373 29.1133 503.613 29.1733 502.346 29.16L502.126 28C504.153 28 505.819 27.9667 507.126 27.9V24.3H508.386V27.82C510.986 27.7 512.773 27.5733 513.746 27.44L513.866 28.52ZM505.386 17.02V15.92H510.246V17.02H505.386ZM534.031 32.4H532.751V23.38H530.331V31.48H529.071V15.36H530.331V22.3H532.751V14.92H534.031V32.4ZM526.471 22.44C527.137 23.0533 527.471 23.86 527.471 24.86C527.471 25.86 527.137 26.6667 526.471 27.28C525.804 27.8933 524.931 28.2 523.851 28.2C522.797 28.2 521.931 27.8867 521.251 27.26C520.584 26.62 520.251 25.82 520.251 24.86C520.251 23.8467 520.584 23.0333 521.251 22.42C521.917 21.8067 522.784 21.5 523.851 21.5C524.931 21.5 525.804 21.8133 526.471 22.44ZM526.231 24.86C526.231 24.18 526.004 23.6333 525.551 23.22C525.111 22.8067 524.544 22.6 523.851 22.6C523.157 22.6 522.584 22.8133 522.131 23.24C521.691 23.6533 521.471 24.1933 521.471 24.86C521.471 25.54 521.691 26.0867 522.131 26.5C522.584 26.9133 523.157 27.12 523.851 27.12C524.544 27.12 525.111 26.9067 525.551 26.48C526.004 26.0533 526.231 25.5133 526.231 24.86ZM528.091 20.26H519.331V19.18H528.091V20.26ZM526.111 17.5H521.471V16.38H526.111V17.5ZM542.569 17.36V16.28H551.989V17.36H547.929V18.34C547.929 19.4467 548.369 20.4867 549.249 21.46C550.129 22.42 551.136 23.0867 552.269 23.46L551.549 24.52C550.656 24.1467 549.803 23.58 548.989 22.82C548.176 22.06 547.596 21.2867 547.249 20.5C546.996 21.3267 546.436 22.1667 545.569 23.02C544.703 23.8733 543.776 24.5267 542.789 24.98L542.029 24C543.216 23.5333 544.283 22.76 545.229 21.68C546.176 20.5867 546.649 19.4733 546.649 18.34V17.36H542.569ZM556.109 32.4H554.829V27.38H544.509V26.3H556.109V32.4ZM556.109 25.36H554.829V14.92H556.109V25.36ZM573.434 32.16H562.394V25.24H563.674V27.64H572.154V25.18H573.434V32.16ZM559.774 17.22V16.12H568.954V17.22H564.994V18C564.994 19.1067 565.427 20.1467 566.294 21.12C567.161 22.08 568.154 22.7467 569.274 23.12L568.574 24.16C567.681 23.8 566.834 23.2467 566.034 22.5C565.234 21.7533 564.661 20.98 564.314 20.18C564.101 20.98 563.554 21.8133 562.674 22.68C561.807 23.5333 560.881 24.18 559.894 24.62L559.174 23.66C560.347 23.1933 561.394 22.4133 562.314 21.32C563.247 20.2267 563.714 19.1133 563.714 17.98V17.22H559.774ZM572.154 31.1V28.68H563.674V31.1H572.154ZM572.134 20.26H568.734V19.18H572.134V14.92H573.414V24.26H572.134V20.26ZM597.813 20.76H595.093V25.38H593.813V14.92H595.093V19.66H597.813V20.76ZM590.413 24.12H582.453V16H583.733V18.9H589.133V16H590.413V24.12ZM589.133 23.02V20H583.733V23.02H589.133ZM595.093 32.4H593.793V27.4H583.873V26.32H595.093V32.4ZM615.117 20.76H612.397V25.36H611.117V14.92H612.397V19.66H615.117V20.76ZM612.417 32.14H601.257V26.4H612.417V32.14ZM611.137 31.06V27.48H602.517V31.06H611.137ZM609.357 24.18C606.597 24.5667 603.391 24.7533 599.737 24.74V19.62H606.057V17.04H599.717V15.96H607.337V20.72H601.017V23.62C604.151 23.6867 606.877 23.5067 609.197 23.08L609.357 24.18ZM628.202 28.84C626.949 29 624.869 29.1733 621.962 29.36C619.842 29.4933 618.082 29.5667 616.682 29.58L616.462 28.42C617.715 28.42 619.389 28.3667 621.482 28.26V26.32C620.429 26.2267 619.589 25.9333 618.962 25.44C618.335 24.9333 618.022 24.2867 618.022 23.5C618.022 22.62 618.395 21.9267 619.142 21.42C619.889 20.9133 620.869 20.66 622.082 20.66C623.309 20.66 624.289 20.9133 625.022 21.42C625.755 21.9133 626.122 22.6067 626.122 23.5C626.122 24.2867 625.815 24.9267 625.202 25.42C624.602 25.9133 623.775 26.2133 622.722 26.32V28.2C625.669 28 627.455 27.8533 628.082 27.76L628.202 28.84ZM630.562 32.4H629.282V14.92H630.562V32.4ZM624.822 23.5C624.822 22.9533 624.569 22.52 624.062 22.2C623.569 21.88 622.909 21.72 622.082 21.72C621.269 21.72 620.609 21.88 620.102 22.2C619.595 22.52 619.342 22.9533 619.342 23.5C619.342 24.0333 619.595 24.4667 620.102 24.8C620.609 25.12 621.269 25.28 622.082 25.28C622.895 25.28 623.555 25.12 624.062 24.8C624.569 24.4667 624.822 24.0333 624.822 23.5ZM627.442 19.62H616.962V18.48H627.442V19.62ZM624.622 17.2H619.602V16.04H624.622V17.2ZM649.427 24.22H633.647V23.2H649.427V24.22ZM648.027 32.02H635.627V28.28H646.147V26.78H635.587V25.76H647.427V29.26H636.907V30.92H648.027V32.02ZM647.627 21.62H635.767V18.08H646.047V16.58H635.747V15.52H647.327V19.1H637.047V20.58H647.627V21.62ZM672.285 20.74H669.565V25.38H668.285V14.92H669.565V19.64H672.285V20.74ZM668.285 26.72C669.259 27.3067 669.745 28.1 669.745 29.1C669.745 30.1 669.252 30.8867 668.265 31.46C667.279 32.0467 665.885 32.34 664.085 32.34C662.299 32.34 660.919 32.0467 659.945 31.46C658.972 30.8867 658.485 30.1 658.485 29.1C658.485 28.0867 658.972 27.2933 659.945 26.72C660.919 26.1333 662.299 25.84 664.085 25.84C665.912 25.84 667.312 26.1333 668.285 26.72ZM664.085 26.9C662.752 26.9 661.705 27.1 660.945 27.5C660.185 27.9 659.805 28.4333 659.805 29.1C659.805 29.7667 660.185 30.3 660.945 30.7C661.719 31.0867 662.765 31.28 664.085 31.28C665.472 31.28 666.545 31.0867 667.305 30.7C668.065 30.3133 668.445 29.78 668.445 29.1C668.445 28.42 668.065 27.8867 667.305 27.5C666.545 27.1 665.472 26.9 664.085 26.9ZM664.865 24.06H656.885V15.8H658.165V18.78H663.585V15.8H664.865V24.06ZM663.585 22.98V19.86H658.165V22.98H663.585ZM687.21 21.84H675.63V15.94H687.21V21.84ZM685.93 20.76V17.02H676.91V20.76H685.93ZM682.01 28.74H680.73V25.14H673.51V24.04H689.29V25.14H682.01V28.74ZM687.37 31.8H675.61V26.98H676.89V30.72H687.37V31.8ZM707.095 23.46H704.175V32.4H702.895V14.92H704.175V22.36H707.095V23.46ZM698.335 17.34H693.275V16.2H698.335V17.34ZM700.975 20.24H690.755V19.16H700.975V20.24ZM700.035 25.08C700.035 26.0933 699.661 26.94 698.915 27.62C698.168 28.2867 697.201 28.62 696.015 28.62C694.828 28.62 693.855 28.2867 693.095 27.62C692.348 26.94 691.975 26.0933 691.975 25.08C691.975 24.0533 692.348 23.2 693.095 22.52C693.841 21.84 694.815 21.5 696.015 21.5C697.201 21.5 698.168 21.84 698.915 22.52C699.661 23.2 700.035 24.0533 700.035 25.08ZM697.975 26.86C698.495 26.3933 698.755 25.8 698.755 25.08C698.755 24.36 698.495 23.7667 697.975 23.3C697.455 22.8333 696.801 22.6 696.015 22.6C695.228 22.6 694.575 22.8333 694.055 23.3C693.535 23.7667 693.275 24.36 693.275 25.08C693.275 25.8 693.535 26.3933 694.055 26.86C694.575 27.3267 695.228 27.56 696.015 27.56C696.801 27.56 697.455 27.3267 697.975 26.86ZM718.879 27.04L718.039 28C717.079 27.3467 716.166 26.5333 715.299 25.56C714.433 24.5867 713.853 23.6 713.559 22.6C713.266 23.7067 712.713 24.78 711.899 25.82C711.086 26.8467 710.146 27.74 709.079 28.5L708.239 27.52C709.546 26.72 710.646 25.6333 711.539 24.26C712.433 22.8733 712.879 21.42 712.879 19.9V17.86H708.759V16.76H718.399V17.86H714.199V19.86C714.199 21.34 714.659 22.74 715.579 24.06C716.513 25.38 717.613 26.3733 718.879 27.04ZM721.079 14.92H722.359V32.4H721.079V14.92ZM746.758 20.22H744.038V23.4H742.758V14.92H744.038V19.14H746.758V20.22ZM743.518 25.38H739.478V24.26H743.518V25.38ZM745.798 27.26H737.038V26.2H745.798V27.26ZM743.758 28.54C744.385 28.9533 744.698 29.5133 744.698 30.22C744.698 30.9267 744.385 31.4933 743.758 31.92C743.131 32.3467 742.351 32.56 741.418 32.56C740.498 32.56 739.725 32.3467 739.098 31.92C738.471 31.4933 738.158 30.9267 738.158 30.22C738.158 29.5133 738.465 28.9533 739.078 28.54C739.705 28.1133 740.485 27.9 741.418 27.9C742.351 27.9 743.131 28.1133 743.758 28.54ZM742.858 31.14C743.231 30.94 743.418 30.6333 743.418 30.22C743.418 29.8067 743.231 29.5 742.858 29.3C742.485 29.1 742.005 29 741.418 29C740.858 29 740.385 29.1067 739.998 29.32C739.625 29.52 739.438 29.82 739.438 30.22C739.438 30.62 739.625 30.92 739.998 31.12C740.385 31.3333 740.858 31.44 741.418 31.44C742.005 31.44 742.485 31.34 742.858 31.14ZM737.458 31.12C735.858 31.6267 734.118 31.86 732.238 31.82V25.68H733.518V30.66C734.491 30.7 735.738 30.4733 737.258 29.98L737.458 31.12ZM732.198 16.98C733.051 16.2333 734.091 15.86 735.318 15.86C736.545 15.86 737.585 16.2333 738.438 16.98C739.291 17.7133 739.718 18.6667 739.718 19.84C739.718 21.04 739.291 22.0133 738.438 22.76C737.585 23.5067 736.551 23.88 735.338 23.88C734.098 23.88 733.051 23.5133 732.198 22.78C731.358 22.0333 730.938 21.0667 730.938 19.88C730.938 18.6933 731.358 17.7267 732.198 16.98ZM735.318 17C734.425 17 733.685 17.2667 733.098 17.8C732.525 18.32 732.238 19 732.238 19.84C732.238 20.7067 732.531 21.4067 733.118 21.94C733.705 22.4733 734.445 22.74 735.338 22.74C736.258 22.74 736.998 22.48 737.558 21.96C738.131 21.4267 738.418 20.7333 738.418 19.88C738.418 19.0133 738.131 18.32 737.558 17.8C736.998 17.2667 736.251 17 735.318 17ZM763.763 29.78H747.983V28.68H754.223V22.52H755.503V28.68H763.763V29.78ZM761.543 16.82V19.16C761.543 22.0933 761.316 24.5333 760.863 26.48L759.603 26.26C760.003 24.6867 760.203 22.5467 760.203 19.84V17.92H749.623V16.82H761.543ZM189.08 70.4H187.8V52.92H189.08V70.4ZM185.32 65.1L184.48 66.12C183.56 65.48 182.667 64.66 181.8 63.66C180.933 62.6467 180.333 61.6267 180 60.6C179.693 61.68 179.14 62.74 178.34 63.78C177.553 64.8067 176.613 65.74 175.52 66.58L174.64 65.58C175.92 64.7933 177.02 63.6733 177.94 62.22C178.873 60.7667 179.34 59.3133 179.34 57.86V54.56H180.66V57.84C180.66 59.32 181.12 60.7267 182.04 62.06C182.96 63.38 184.053 64.3933 185.32 65.1ZM204.465 64.74C205.505 65.3 206.025 66.0867 206.025 67.1C206.025 68.1133 205.505 68.9 204.465 69.46C203.425 70.02 201.925 70.3 199.965 70.3C198.018 70.3 196.518 70.02 195.465 69.46C194.425 68.9 193.905 68.1133 193.905 67.1C193.905 66.0867 194.425 65.3 195.465 64.74C196.518 64.18 198.018 63.9 199.965 63.9C201.925 63.9 203.425 64.18 204.465 64.74ZM203.425 65.52C202.585 65.1467 201.431 64.96 199.965 64.96C198.498 64.96 197.338 65.1467 196.485 65.52C195.645 65.8933 195.225 66.42 195.225 67.1C195.225 67.7933 195.645 68.3267 196.485 68.7C197.325 69.06 198.485 69.24 199.965 69.24C201.445 69.24 202.605 69.06 203.445 68.7C204.285 68.3267 204.705 67.7933 204.705 67.1C204.705 66.42 204.278 65.8933 203.425 65.52ZM207.845 62.22H192.065V61.12H198.805V57.52H200.085V61.12H207.845V62.22ZM205.825 53.92V55.56C205.825 57.1067 205.651 58.56 205.305 59.92L204.045 59.74C204.338 58.6733 204.485 57.54 204.485 56.34L204.505 55.02H194.045V53.92H205.825ZM225.649 61.16H222.729V70.4H221.449V52.92H222.729V60.06H225.649V61.16ZM219.649 65.1L218.789 66.12C217.869 65.4667 216.976 64.64 216.109 63.64C215.243 62.6267 214.649 61.6133 214.329 60.6C214.023 61.68 213.469 62.74 212.669 63.78C211.883 64.8067 210.943 65.74 209.849 66.58L208.969 65.58C210.249 64.7933 211.349 63.6733 212.269 62.22C213.203 60.7667 213.669 59.3133 213.669 57.86V54.56H214.989V57.84C214.989 59.32 215.449 60.7267 216.369 62.06C217.289 63.38 218.383 64.3933 219.649 65.1ZM246.308 67.14C246.308 68.1533 245.795 68.9467 244.768 69.52C243.755 70.1067 242.321 70.4 240.468 70.4C238.615 70.4 237.181 70.1067 236.168 69.52C235.155 68.9467 234.648 68.1533 234.648 67.14C234.648 66.1133 235.155 65.3067 236.168 64.72C237.181 64.1333 238.615 63.84 240.468 63.84C242.321 63.84 243.755 64.1333 244.768 64.72C245.795 65.3067 246.308 66.1133 246.308 67.14ZM240.468 64.96C239.041 64.96 237.928 65.1533 237.128 65.54C236.341 65.9133 235.948 66.4467 235.948 67.14C235.948 67.82 236.341 68.3533 237.128 68.74C237.928 69.1133 239.041 69.3 240.468 69.3C241.895 69.3 243.008 69.1133 243.808 68.74C244.608 68.3533 245.008 67.82 245.008 67.14C245.008 66.4467 244.608 65.9133 243.808 65.54C243.021 65.1533 241.908 64.96 240.468 64.96ZM232.548 55.36V54.28H241.728V55.36H237.768V56.42C237.768 57.5133 238.208 58.5467 239.088 59.52C239.981 60.48 240.995 61.1467 242.128 61.52L241.408 62.56C240.515 62.2 239.655 61.6467 238.828 60.9C238.015 60.1533 237.435 59.3867 237.088 58.6C236.875 59.4 236.328 60.2333 235.448 61.1C234.568 61.9667 233.635 62.62 232.648 63.06L231.928 62.08C233.101 61.6133 234.155 60.8333 235.088 59.74C236.021 58.6467 236.488 57.54 236.488 56.42V55.36H232.548ZM244.888 58.5H241.388V57.42H244.888V52.92H246.168V63.8H244.888V58.5ZM262.913 63.24H257.733V67.06H265.013V68.16H249.233V67.06H256.453V63.24H251.333V54.3H252.613V57.54H261.633V54.3H262.913V63.24ZM261.633 62.16V58.64H252.613V62.16H261.633ZM282.317 62.22H266.537V61.2H282.317V62.22ZM280.917 70.02H268.517V66.28H279.037V64.78H268.477V63.76H280.317V67.26H269.797V68.92H280.917V70.02ZM280.517 59.62H268.657V56.08H278.937V54.58H268.637V53.52H280.217V57.1H269.937V58.58H280.517V59.62ZM305.176 57.98H302.456V61.92H301.176V52.92H302.456V56.9H305.176V57.98ZM303.136 70.28H291.596V65.96H301.176V63.98H291.516V62.88H302.456V66.96H292.876V69.18H303.136V70.28ZM290.636 54.72C291.503 54 292.569 53.64 293.836 53.64C295.103 53.64 296.169 53.9933 297.036 54.7C297.916 55.4067 298.356 56.3267 298.356 57.46C298.356 58.5933 297.916 59.52 297.036 60.24C296.169 60.9467 295.103 61.3 293.836 61.3C292.569 61.3 291.503 60.9467 290.636 60.24C289.769 59.5333 289.336 58.6133 289.336 57.48C289.336 56.3467 289.769 55.4267 290.636 54.72ZM293.836 54.76C292.916 54.76 292.156 55.0133 291.556 55.52C290.956 56.0133 290.656 56.66 290.656 57.46C290.656 58.26 290.956 58.9133 291.556 59.42C292.156 59.9133 292.916 60.16 293.836 60.16C294.809 60.16 295.583 59.92 296.156 59.44C296.743 58.9467 297.036 58.2933 297.036 57.48C297.036 56.6667 296.743 56.0133 296.156 55.52C295.569 55.0133 294.796 54.76 293.836 54.76ZM322.721 61.14H319.761V70.4H318.481V52.92H319.761V60.04H322.721V61.14ZM306.781 60.42C306.781 58.54 307.154 57.0533 307.901 55.96C308.647 54.8667 309.701 54.32 311.061 54.32C312.407 54.32 313.454 54.8733 314.201 55.98C314.947 57.0733 315.321 58.56 315.321 60.44C315.321 62.32 314.947 63.8133 314.201 64.92C313.454 66.0133 312.407 66.56 311.061 66.56C309.701 66.56 308.647 66.0133 307.901 64.92C307.154 63.8133 306.781 62.3133 306.781 60.42ZM313.241 64.04C313.801 63.1067 314.081 61.9067 314.081 60.44C314.081 58.9733 313.801 57.7733 313.241 56.84C312.694 55.9067 311.967 55.44 311.061 55.44C310.154 55.44 309.421 55.9067 308.861 56.84C308.314 57.7733 308.041 58.9733 308.041 60.44C308.041 61.9067 308.314 63.1067 308.861 64.04C309.421 64.96 310.154 65.42 311.061 65.42C311.967 65.42 312.694 64.96 313.241 64.04ZM337.385 59.34H332.205V61H339.485V62.1H323.705V61H330.925V59.34H325.825V53.4H327.105V55.32H336.105V53.4H337.385V59.34ZM338.085 70.12H325.745V66.3H336.145V64.72H325.665V63.64H337.425V67.28H327.025V69.04H338.085V70.12ZM336.105 58.26V56.38H327.105V58.26H336.105ZM354.764 70.42H353.484V63.96H346.264V62.86H362.044V63.96H354.764V70.42ZM361.244 59.72L360.544 60.78C359.197 60.4867 357.904 59.94 356.664 59.14C355.437 58.3267 354.597 57.4467 354.144 56.5C353.717 57.4467 352.884 58.3333 351.644 59.16C350.417 59.9867 349.131 60.54 347.784 60.82L347.084 59.76C348.764 59.5333 350.251 58.92 351.544 57.92C352.837 56.9067 353.484 55.84 353.484 54.72V53.7H354.804V54.72C354.804 55.8133 355.497 56.88 356.884 57.92C358.284 58.96 359.737 59.56 361.244 59.72ZM383.063 63.08H381.783V52.92H383.063V63.08ZM370.562 55.1C371.416 54.3533 372.463 53.98 373.703 53.98C374.943 53.98 375.989 54.3533 376.843 55.1C377.709 55.8333 378.143 56.7933 378.143 57.98C378.143 59.1667 377.709 60.1333 376.843 60.88C375.989 61.6267 374.943 62 373.703 62C372.463 62 371.416 61.6333 370.562 60.9C369.709 60.1533 369.283 59.1867 369.283 58C369.283 56.8133 369.709 55.8467 370.562 55.1ZM373.703 55.08C372.809 55.08 372.063 55.3533 371.463 55.9C370.876 56.4333 370.583 57.1267 370.583 57.98C370.583 58.8333 370.883 59.5333 371.483 60.08C372.083 60.6267 372.823 60.9 373.703 60.9C374.636 60.9 375.389 60.6333 375.963 60.1C376.536 59.5667 376.823 58.8667 376.823 58C376.823 57.1333 376.536 56.4333 375.963 55.9C375.389 55.3533 374.636 55.08 373.703 55.08ZM383.883 70.42H383.863C383.209 70.0867 382.549 69.5867 381.883 68.92C381.229 68.24 380.789 67.5867 380.562 66.96C380.336 67.64 379.889 68.3333 379.223 69.04C378.556 69.7467 377.863 70.28 377.143 70.64L376.343 69.78C377.329 69.3 378.169 68.6133 378.863 67.72C379.569 66.8133 379.923 65.8667 379.923 64.88V63.68H381.203V64.78C381.203 65.7933 381.563 66.7533 382.283 67.66C383.003 68.5667 383.803 69.1867 384.683 69.52L383.883 70.42ZM377.363 68.32L376.443 69.22C375.936 68.94 375.463 68.58 375.023 68.14C374.583 67.6867 374.256 67.2 374.043 66.68C373.843 67.3467 373.396 68.0533 372.703 68.8C372.023 69.5333 371.296 70.0867 370.523 70.46L369.763 69.54C370.696 69.1533 371.529 68.5067 372.263 67.6C372.996 66.6933 373.363 65.74 373.363 64.74V63.7H374.643V64.6C374.643 65.5067 374.903 66.28 375.423 66.92C375.943 67.56 376.589 68.0267 377.363 68.32ZM400.947 58.46L400.327 59.48C398.981 59.2133 397.694 58.6867 396.467 57.9C395.241 57.1133 394.421 56.2867 394.007 55.42C393.647 56.2733 392.847 57.0933 391.607 57.88C390.367 58.6667 389.067 59.2 387.707 59.48L387.087 58.46C388.007 58.3533 388.941 58.08 389.887 57.64C390.847 57.2 391.661 56.62 392.327 55.9C393.007 55.18 393.347 54.4467 393.347 53.7V53.14H394.667V53.7C394.667 54.4467 395.007 55.18 395.687 55.9C396.367 56.62 397.181 57.2 398.127 57.64C399.087 58.08 400.027 58.3533 400.947 58.46ZM401.907 62.1H386.127V61H401.907V62.1ZM399.787 70.16H388.267V63.54H389.547V65.7H398.507V63.54H399.787V70.16ZM398.507 69.08V66.8H389.547V69.08H398.507ZM417.492 70.4H416.212V52.92H417.492V70.4ZM414.612 65.12C413.452 65.3733 411.899 65.5867 409.952 65.76C408.019 65.92 406.225 66 404.572 66V54.72H405.852V64.86C407.025 64.86 408.492 64.78 410.252 64.62C412.012 64.46 413.405 64.2667 414.432 64.04L414.612 65.12ZM437.017 61.04H434.097V70.4H432.817V52.92H434.097V59.96H437.017V61.04ZM431.377 65.4C428.523 65.92 425.243 66.12 421.537 66V54.74H429.677V55.84H422.817V64.86C424.083 64.9267 425.55 64.9067 427.217 64.8C428.897 64.68 430.223 64.5133 431.197 64.3L431.377 65.4ZM438.141 68.56V66.88H439.801V68.56H438.141ZM459.853 65.06C460.893 65.5933 461.413 66.36 461.413 67.36C461.413 68.36 460.893 69.12 459.853 69.64C458.813 70.1733 457.333 70.44 455.413 70.44C453.507 70.44 452.033 70.1667 450.993 69.62C449.953 69.0867 449.433 68.3333 449.433 67.36C449.433 66.4 449.953 65.6467 450.993 65.1C452.047 64.54 453.52 64.26 455.413 64.26C457.333 64.26 458.813 64.5267 459.853 65.06ZM462.513 58.88L461.913 59.96C460.407 59.6933 459.047 59.2133 457.833 58.52C456.633 57.8267 455.827 57.08 455.413 56.28C455.08 57.08 454.32 57.8267 453.133 58.52C451.947 59.2133 450.573 59.6867 449.013 59.94L448.413 58.88C449.387 58.7733 450.333 58.5467 451.253 58.2C452.173 57.84 452.967 57.3533 453.633 56.74C454.3 56.1267 454.673 55.46 454.753 54.74H449.053V53.66H461.753V54.74H456.113C456.193 55.46 456.587 56.1333 457.293 56.76C458.013 57.3733 458.833 57.86 459.753 58.22C460.673 58.5667 461.593 58.7867 462.513 58.88ZM455.413 65.36C453.96 65.36 452.82 65.54 451.993 65.9C451.167 66.2467 450.753 66.7333 450.753 67.36C450.753 67.9867 451.167 68.4733 451.993 68.82C452.82 69.1667 453.96 69.34 455.413 69.34C456.88 69.34 458.027 69.1733 458.853 68.84C459.68 68.4933 460.093 68 460.093 67.36C460.093 66.7333 459.68 66.2467 458.853 65.9C458.027 65.54 456.88 65.36 455.413 65.36ZM463.313 62.68H447.533V61.6H454.773V59H456.053V61.6H463.313V62.68ZM479.058 70.4H477.778V52.92H479.058V70.4ZM465.658 60.42C465.658 58.54 466.031 57.0533 466.778 55.96C467.525 54.8533 468.571 54.3 469.918 54.3C471.278 54.3 472.331 54.8533 473.078 55.96C473.825 57.0533 474.198 58.5467 474.198 60.44C474.198 62.32 473.825 63.8133 473.078 64.92C472.331 66.0267 471.278 66.58 469.918 66.58C468.571 66.58 467.525 66.0267 466.778 64.92C466.031 63.8133 465.658 62.3133 465.658 60.42ZM472.118 64.04C472.678 63.1067 472.958 61.9067 472.958 60.44C472.958 58.9733 472.678 57.7733 472.118 56.84C471.558 55.9067 470.825 55.44 469.918 55.44C469.011 55.44 468.285 55.9067 467.738 56.84C467.191 57.76 466.918 58.96 466.918 60.44C466.918 61.9067 467.191 63.1067 467.738 64.04C468.285 64.96 469.011 65.42 469.918 65.42C470.825 65.42 471.558 64.96 472.118 64.04ZM493.583 69.48H492.303V63.32H489.263V62.24H492.303V58.9H489.583V57.82H492.303V53.36H493.583V69.48ZM496.863 70.4H495.583V52.92H496.863V70.4ZM489.343 55.14C489.263 57.6733 488.683 59.86 487.603 61.7C486.536 63.5267 484.969 65.12 482.903 66.48L482.023 65.48C483.823 64.4533 485.243 63.12 486.283 61.48C487.323 59.8267 487.883 58.08 487.963 56.24H482.763V55.14H489.343ZM504.088 53.92C505.301 53.92 506.328 54.2933 507.168 55.04C508.021 55.7867 508.448 56.7667 508.448 57.98C508.448 59.1933 508.021 60.18 507.168 60.94C506.328 61.6867 505.301 62.06 504.088 62.06C502.861 62.06 501.828 61.6867 500.988 60.94C500.148 60.1933 499.728 59.2133 499.728 58C499.728 56.7867 500.148 55.8067 500.988 55.06C501.828 54.3 502.861 53.92 504.088 53.92ZM504.088 55.02C503.194 55.02 502.461 55.3 501.888 55.86C501.314 56.4067 501.028 57.1133 501.028 57.98C501.028 58.8467 501.314 59.56 501.888 60.12C502.474 60.68 503.208 60.96 504.088 60.96C505.008 60.96 505.748 60.6867 506.308 60.14C506.868 59.5933 507.148 58.88 507.148 58C507.148 57.12 506.868 56.4067 506.308 55.86C505.748 55.3 505.008 55.02 504.088 55.02ZM515.528 59.42V60.52H512.808V63.3H511.528V52.92H512.808V55.66H515.528V56.76H512.808V59.42H515.528ZM512.828 70.4H511.528V65.24H501.627V64.14H512.828V70.4ZM530.992 70.4H529.712V60.36H525.572V59.28H529.712V52.92H530.992V70.4ZM527.172 65.1L526.352 66.08C525.459 65.48 524.599 64.6733 523.772 63.66C522.946 62.6467 522.359 61.6133 522.012 60.56C521.706 61.6533 521.159 62.72 520.372 63.76C519.599 64.7867 518.672 65.7133 517.592 66.54L516.712 65.58C517.992 64.8067 519.086 63.6933 519.992 62.24C520.899 60.7733 521.352 59.3133 521.352 57.86V54.44H522.672V57.84C522.672 59.32 523.112 60.7267 523.992 62.06C524.872 63.3933 525.932 64.4067 527.172 65.1ZM547.737 63.24H542.557V67.06H549.837V68.16H534.057V67.06H541.277V63.24H536.157V54.3H537.437V57.54H546.457V54.3H547.737V63.24ZM546.457 62.16V58.64H537.437V62.16H546.457ZM567.642 61.04H564.722V70.4H563.442V52.92H564.722V59.96H567.642V61.04ZM562.002 65.4C559.148 65.92 555.868 66.12 552.162 66V54.74H560.302V55.84H553.442V64.86C554.708 64.9267 556.175 64.9067 557.842 64.8C559.522 64.68 560.848 64.5133 561.822 64.3L562.002 65.4ZM582.56 62.86H574.82V54.14H576.1V57.38H581.28V54.14H582.56V62.86ZM581.28 61.78V58.48H576.1V61.78H581.28ZM586.88 59.12H583.64V58.04H586.88V52.92H588.16V65.68H586.88V59.12ZM588.62 69.78H576.96V64.52H578.24V68.7H588.62V69.78ZM604.165 61.18H600.025V60.08H604.165V52.92H605.445V70.4H604.165V61.18ZM599.905 54.82C599.852 57.5533 599.112 59.92 597.685 61.92C596.272 63.92 594.412 65.5467 592.105 66.8L591.305 65.78C593.505 64.6867 595.218 63.2867 596.445 61.58C597.685 59.86 598.385 57.9733 598.545 55.92H592.005V54.82H599.905ZM622.51 60.2H617.03V62.12H624.31V63.18H608.53V62.12H615.75V60.2H610.63V56.36H620.91V54.72H610.59V53.66H622.19V57.34H611.91V59.14H622.51V60.2ZM622.21 70.08H610.63V64.08H611.91V65.94H620.93V64.04H622.21V70.08ZM620.93 69V67H611.91V69H620.93ZM636.594 65.04L635.754 66C634.794 65.3467 633.881 64.5333 633.014 63.56C632.148 62.5867 631.568 61.6 631.274 60.6C630.981 61.7067 630.428 62.78 629.614 63.82C628.801 64.8467 627.861 65.74 626.794 66.5L625.954 65.52C627.261 64.72 628.361 63.6333 629.254 62.26C630.148 60.8733 630.594 59.42 630.594 57.9V55.86H626.474V54.76H636.114V55.86H631.914V57.86C631.914 59.34 632.374 60.74 633.294 62.06C634.228 63.38 635.328 64.3733 636.594 65.04ZM638.794 52.92H640.074V70.4H638.794V52.92ZM664.473 58.22H661.753V61.4H660.473V52.92H661.753V57.14H664.473V58.22ZM661.233 63.38H657.193V62.26H661.233V63.38ZM663.513 65.26H654.753V64.2H663.513V65.26ZM661.473 66.54C662.099 66.9533 662.413 67.5133 662.413 68.22C662.413 68.9267 662.099 69.4933 661.473 69.92C660.846 70.3467 660.066 70.56 659.133 70.56C658.213 70.56 657.439 70.3467 656.813 69.92C656.186 69.4933 655.873 68.9267 655.873 68.22C655.873 67.5133 656.179 66.9533 656.793 66.54C657.419 66.1133 658.199 65.9 659.133 65.9C660.066 65.9 660.846 66.1133 661.473 66.54ZM660.573 69.14C660.946 68.94 661.133 68.6333 661.133 68.22C661.133 67.8067 660.946 67.5 660.573 67.3C660.199 67.1 659.719 67 659.133 67C658.573 67 658.099 67.1067 657.713 67.32C657.339 67.52 657.153 67.82 657.153 68.22C657.153 68.62 657.339 68.92 657.713 69.12C658.099 69.3333 658.573 69.44 659.133 69.44C659.719 69.44 660.199 69.34 660.573 69.14ZM655.173 69.12C653.573 69.6267 651.833 69.86 649.953 69.82V63.68H651.233V68.66C652.206 68.7 653.453 68.4733 654.973 67.98L655.173 69.12ZM649.913 54.98C650.766 54.2333 651.806 53.86 653.033 53.86C654.259 53.86 655.299 54.2333 656.153 54.98C657.006 55.7133 657.433 56.6667 657.433 57.84C657.433 59.04 657.006 60.0133 656.153 60.76C655.299 61.5067 654.266 61.88 653.053 61.88C651.813 61.88 650.766 61.5133 649.913 60.78C649.073 60.0333 648.653 59.0667 648.653 57.88C648.653 56.6933 649.073 55.7267 649.913 54.98ZM653.033 55C652.139 55 651.399 55.2667 650.813 55.8C650.239 56.32 649.953 57 649.953 57.84C649.953 58.7067 650.246 59.4067 650.833 59.94C651.419 60.4733 652.159 60.74 653.053 60.74C653.973 60.74 654.713 60.48 655.273 59.96C655.846 59.4267 656.133 58.7333 656.133 57.88C656.133 57.0133 655.846 56.32 655.273 55.8C654.713 55.2667 653.966 55 653.033 55ZM681.478 67.78H665.698V66.68H671.938V60.52H673.218V66.68H681.478V67.78ZM679.258 54.82V57.16C679.258 60.0933 679.031 62.5333 678.578 64.48L677.318 64.26C677.718 62.6867 677.918 60.5467 677.918 57.84V55.92H667.338V54.82H679.258ZM704.536 61.06H701.616V70.4H700.336V52.92H701.616V59.98H704.536V61.06ZM696.876 65.96H688.956V54.5H690.236V58.94H695.596V54.5H696.876V65.96ZM695.596 64.86V60.04H690.236V64.86H695.596ZM721.341 68.16H705.561V67.06H712.781V63.82H707.661V58.42H717.961V55.46H707.661V54.38H719.241V59.5H708.941V62.74H719.701V63.82H714.061V67.06H721.341V68.16ZM739.145 61.06H736.225V70.4H734.945V52.92H736.225V59.98H739.145V61.06ZM731.485 65.96H723.565V54.5H724.845V58.94H730.205V54.5H731.485V65.96ZM730.205 64.86V60.04H724.845V64.86H730.205ZM755.95 68.16H740.17V67.06H747.39V63.82H742.27V58.42H752.57V55.46H742.27V54.38H753.85V59.5H743.55V62.74H754.31V63.82H748.67V67.06H755.95V68.16ZM188.98 108.4H187.7V90.92H188.98V108.4ZM183.76 92.82C183.707 95.5267 182.94 97.8867 181.46 99.9C179.993 101.9 178.08 103.533 175.72 104.8L174.94 103.78C177.153 102.673 178.9 101.26 180.18 99.54C181.473 97.82 182.2 95.9467 182.36 93.92H175.68V92.82H183.76ZM206.025 98.58H200.565V100.54H207.845V101.64H192.065V100.54H199.285V98.58H194.165V94.54H204.445V92.68H194.105V91.62H205.725V95.52H195.445V97.52H206.025V98.58ZM193.845 103.36H205.745V108.54H204.465V104.46H193.845V103.36ZM223.589 108.4H222.309V90.92H223.589V108.4ZM210.189 98.42C210.189 96.54 210.563 95.0533 211.309 93.96C212.056 92.8533 213.103 92.3 214.449 92.3C215.809 92.3 216.863 92.8533 217.609 93.96C218.356 95.0533 218.729 96.5467 218.729 98.44C218.729 100.32 218.356 101.813 217.609 102.92C216.863 104.027 215.809 104.58 214.449 104.58C213.103 104.58 212.056 104.027 211.309 102.92C210.563 101.813 210.189 100.313 210.189 98.42ZM216.649 102.04C217.209 101.107 217.489 99.9067 217.489 98.44C217.489 96.9733 217.209 95.7733 216.649 94.84C216.089 93.9067 215.356 93.44 214.449 93.44C213.543 93.44 212.816 93.9067 212.269 94.84C211.723 95.76 211.449 96.96 211.449 98.44C211.449 99.9067 211.723 101.107 212.269 102.04C212.816 102.96 213.543 103.42 214.449 103.42C215.356 103.42 216.089 102.96 216.649 102.04ZM248.008 96.08H245.288V100.58H244.008V90.92H245.288V94.98H248.008V96.08ZM245.308 108.14H234.428V101.7H245.308V108.14ZM244.028 107.06V102.78H235.708V107.06H244.028ZM242.288 98.64C241.155 98.8667 239.675 99.0533 237.848 99.2C236.021 99.3467 234.281 99.42 232.628 99.42V92.04H233.908V98.3C237.481 98.22 240.208 97.9533 242.088 97.5L242.288 98.64ZM265.013 101.16H249.233V100.06H265.013V101.16ZM263.173 107.96H251.433V102.88H252.693V106.86H263.173V107.96ZM263.113 97.58H251.453V91.52H252.713V96.48H263.113V97.58ZM272.411 93.68V92.6H281.571V93.68H277.651V95C277.651 96.0933 278.078 97.1267 278.931 98.1C279.798 99.0733 280.791 99.7467 281.911 100.12L281.211 101.16C280.318 100.8 279.478 100.247 278.691 99.5C277.905 98.74 277.331 97.96 276.971 97.16C276.745 97.96 276.191 98.7933 275.311 99.66C274.431 100.527 273.498 101.18 272.511 101.62L271.791 100.66C272.978 100.193 274.038 99.4133 274.971 98.32C275.905 97.2267 276.371 96.1133 276.371 94.98V93.68H272.411ZM284.751 96.98H281.371V95.88H284.751V90.92H286.031V103.7H284.751V96.98ZM286.411 107.78H274.851V102.44H276.131V106.7H286.411V107.78ZM299.276 103.3L298.476 104.28C297.543 103.64 296.656 102.827 295.816 101.84C294.976 100.853 294.396 99.8467 294.076 98.82C293.463 100.953 291.996 102.913 289.676 104.7L288.816 103.74C290.096 102.967 291.183 101.867 292.076 100.44C292.969 99.0133 293.416 97.5733 293.416 96.12V93.86H289.456V92.76H298.696V93.86H294.736V96.08C294.736 97.56 295.176 98.96 296.056 100.28C296.949 101.587 298.023 102.593 299.276 103.3ZM305.416 99.22H302.456V108.4H301.176V90.92H302.456V98.12H305.416V99.22ZM317.841 107.48H316.561V101.32H313.521V100.24H316.561V96.9H313.841V95.82H316.561V91.36H317.841V107.48ZM321.121 108.4H319.841V90.92H321.121V108.4ZM313.601 93.14C313.521 95.6733 312.941 97.86 311.861 99.7C310.794 101.527 309.227 103.12 307.161 104.48L306.281 103.48C308.081 102.453 309.501 101.12 310.541 99.48C311.581 97.8267 312.141 96.08 312.221 94.24H307.021V93.14H313.601ZM328.345 91.92C329.559 91.92 330.585 92.2933 331.425 93.04C332.279 93.7867 332.705 94.7667 332.705 95.98C332.705 97.1933 332.279 98.18 331.425 98.94C330.585 99.6867 329.559 100.06 328.345 100.06C327.119 100.06 326.085 99.6867 325.245 98.94C324.405 98.1933 323.985 97.2133 323.985 96C323.985 94.7867 324.405 93.8067 325.245 93.06C326.085 92.3 327.119 91.92 328.345 91.92ZM328.345 93.02C327.452 93.02 326.719 93.3 326.145 93.86C325.572 94.4067 325.285 95.1133 325.285 95.98C325.285 96.8467 325.572 97.56 326.145 98.12C326.732 98.68 327.465 98.96 328.345 98.96C329.265 98.96 330.005 98.6867 330.565 98.14C331.125 97.5933 331.405 96.88 331.405 96C331.405 95.12 331.125 94.4067 330.565 93.86C330.005 93.3 329.265 93.02 328.345 93.02ZM339.785 97.42V98.52H337.065V101.3H335.785V90.92H337.065V93.66H339.785V94.76H337.065V97.42H339.785ZM337.085 108.4H335.785V103.24H325.885V102.14H337.085V108.4ZM355.25 108.4H353.97V98.36H349.83V97.28H353.97V90.92H355.25V108.4ZM351.43 103.1L350.61 104.08C349.717 103.48 348.857 102.673 348.03 101.66C347.203 100.647 346.617 99.6133 346.27 98.56C345.963 99.6533 345.417 100.72 344.63 101.76C343.857 102.787 342.93 103.713 341.85 104.54L340.97 103.58C342.25 102.807 343.343 101.693 344.25 100.24C345.157 98.7733 345.61 97.3133 345.61 95.86V92.44H346.93V95.84C346.93 97.32 347.37 98.7267 348.25 100.06C349.13 101.393 350.19 102.407 351.43 103.1ZM374.095 106.16H358.315V105.06H365.535V101.82H360.415V96.42H370.715V93.46H360.415V92.38H371.995V97.5H361.695V100.74H372.455V101.82H366.815V105.06H374.095V106.16ZM390.913 100.98C388.34 101.313 385.127 101.48 381.273 101.48L381.073 100.3H383.373L382.833 94.78L384.113 94.6L384.533 100.28L387.193 100.22L387.713 94.56L388.993 94.72L388.373 100.18C389.373 100.113 390.18 100.033 390.793 99.94L390.913 100.98ZM390.713 95.42V94.32H393.833V90.92H395.113V103.62H393.833V98.94H390.713V97.84H393.833V95.42H390.713ZM395.473 107.78H383.933V102.62H385.213V106.7H395.473V107.78ZM390.573 93.56H381.513V92.48H390.573V93.56ZM409.438 103.56C406.705 103.947 403.298 104.14 399.218 104.14V97.58H405.898V93.66H399.138V92.56H407.178V98.66H400.498V103.04C404.125 103.067 407.051 102.867 409.278 102.44L409.438 103.56ZM412.398 108.4H411.118V90.92H412.398V108.4ZM431.563 98.14H428.843V103.7H427.563V90.92H428.843V97.06H431.563V98.14ZM429.603 107.78H418.023V103.4H419.303V106.7H429.603V107.78ZM422.903 92.84H417.923V91.74H422.903V92.84ZM425.443 95.38H415.423V94.28H425.443V95.38ZM424.423 99.38C424.423 100.287 424.043 101.02 423.283 101.58C422.536 102.14 421.583 102.42 420.423 102.42C419.263 102.42 418.303 102.147 417.543 101.6C416.796 101.04 416.423 100.3 416.423 99.38C416.423 98.4467 416.796 97.7133 417.543 97.18C418.289 96.6333 419.249 96.36 420.423 96.36C421.596 96.36 422.556 96.6333 423.303 97.18C424.049 97.7133 424.423 98.4467 424.423 99.38ZM423.163 99.38C423.163 98.78 422.896 98.3067 422.363 97.96C421.829 97.6133 421.183 97.44 420.423 97.44C419.649 97.44 418.996 97.6133 418.463 97.96C417.943 98.3067 417.683 98.78 417.683 99.38C417.683 99.9667 417.943 100.44 418.463 100.8C418.996 101.147 419.649 101.32 420.423 101.32C421.183 101.32 421.829 101.147 422.363 100.8C422.896 100.44 423.163 99.9667 423.163 99.38ZM449.481 107.48H448.201V101.32H445.161V100.24H448.201V96.9H445.481V95.82H448.201V91.36H449.481V107.48ZM452.761 108.4H451.481V90.92H452.761V108.4ZM445.241 93.14C445.161 95.6733 444.581 97.86 443.501 99.7C442.435 101.527 440.868 103.12 438.801 104.48L437.921 103.48C439.721 102.453 441.141 101.12 442.181 99.48C443.221 97.8267 443.781 96.08 443.861 94.24H438.661V93.14H445.241ZM459.986 91.92C461.199 91.92 462.226 92.2933 463.066 93.04C463.919 93.7867 464.346 94.7667 464.346 95.98C464.346 97.1933 463.919 98.18 463.066 98.94C462.226 99.6867 461.199 100.06 459.986 100.06C458.759 100.06 457.726 99.6867 456.886 98.94C456.046 98.1933 455.626 97.2133 455.626 96C455.626 94.7867 456.046 93.8067 456.886 93.06C457.726 92.3 458.759 91.92 459.986 91.92ZM459.986 93.02C459.093 93.02 458.359 93.3 457.786 93.86C457.213 94.4067 456.926 95.1133 456.926 95.98C456.926 96.8467 457.213 97.56 457.786 98.12C458.373 98.68 459.106 98.96 459.986 98.96C460.906 98.96 461.646 98.6867 462.206 98.14C462.766 97.5933 463.046 96.88 463.046 96C463.046 95.12 462.766 94.4067 462.206 93.86C461.646 93.3 460.906 93.02 459.986 93.02ZM471.426 97.42V98.52H468.706V101.3H467.426V90.92H468.706V93.66H471.426V94.76H468.706V97.42H471.426ZM468.726 108.4H467.426V103.24H457.526V102.14H468.726V108.4ZM486.971 108.4H485.691V90.92H486.971V108.4ZM483.211 103.1L482.371 104.12C481.451 103.48 480.557 102.66 479.691 101.66C478.824 100.647 478.224 99.6267 477.891 98.6C477.584 99.68 477.031 100.74 476.231 101.78C475.444 102.807 474.504 103.74 473.411 104.58L472.531 103.58C473.811 102.793 474.911 101.673 475.831 100.22C476.764 98.7667 477.231 97.3133 477.231 95.86V92.56H478.551V95.84C478.551 97.32 479.011 98.7267 479.931 100.06C480.851 101.38 481.944 102.393 483.211 103.1ZM505.055 99.96L504.335 101C502.855 100.52 501.482 99.76 500.215 98.72C498.949 97.6667 498.149 96.7067 497.815 95.84C497.535 96.72 496.775 97.68 495.535 98.72C494.295 99.76 492.902 100.507 491.355 100.96L490.655 99.92C491.629 99.72 492.609 99.3133 493.595 98.7C494.595 98.0867 495.442 97.3267 496.135 96.42C496.829 95.5133 497.175 94.62 497.175 93.74V92.5H498.495V93.74C498.495 95.0333 499.215 96.3067 500.655 97.56C502.095 98.8 503.562 99.6 505.055 99.96ZM505.735 105.96H489.955V104.88H505.735V105.96ZM521.98 108.14H510.62V102.08H521.98V108.14ZM520.7 107.06V103.16H511.9V107.06H520.7ZM513.82 95.52V96.56H509.44V99.16C511.84 99.2 513.88 99.04 515.56 98.68L515.74 99.8C513.487 100.213 510.96 100.38 508.16 100.3V92.14H514.66V93.24H509.44V95.52H513.82ZM517.42 96.3H514.8V95.22H517.42V91.24H518.68V100.94H517.42V96.3ZM521.96 101.14H520.68V90.92H521.96V101.14ZM540.345 99.7H524.565V98.66H540.345V99.7ZM538.885 108.1H526.525V104.24H536.925V102.48H526.465V101.4H538.205V105.26H527.805V107.04H538.885V108.1ZM538.405 94.38C538.405 95.38 537.885 96.1267 536.845 96.62C535.805 97.1133 534.345 97.36 532.465 97.36C530.611 97.36 529.158 97.1133 528.105 96.62C527.065 96.1133 526.545 95.3667 526.545 94.38C526.545 93.3933 527.065 92.6533 528.105 92.16C529.158 91.6533 530.611 91.4 532.465 91.4C534.345 91.4 535.805 91.6533 536.845 92.16C537.885 92.6533 538.405 93.3933 538.405 94.38ZM535.865 92.94C535.025 92.6067 533.891 92.44 532.465 92.44C531.038 92.44 529.911 92.6067 529.085 92.94C528.271 93.2733 527.865 93.7533 527.865 94.38C527.865 95.0067 528.271 95.4867 529.085 95.82C529.911 96.14 531.038 96.3 532.465 96.3C533.891 96.3 535.025 96.14 535.865 95.82C536.705 95.4867 537.125 95.0067 537.125 94.38C537.125 93.7533 536.705 93.2733 535.865 92.94ZM561.343 108.4H560.063V90.92H561.343V108.4ZM547.943 98.42C547.943 96.54 548.317 95.0533 549.063 93.96C549.81 92.8533 550.857 92.3 552.203 92.3C553.563 92.3 554.617 92.8533 555.363 93.96C556.11 95.0533 556.483 96.5467 556.483 98.44C556.483 100.32 556.11 101.813 555.363 102.92C554.617 104.027 553.563 104.58 552.203 104.58C550.857 104.58 549.81 104.027 549.063 102.92C548.317 101.813 547.943 100.313 547.943 98.42ZM554.403 102.04C554.963 101.107 555.243 99.9067 555.243 98.44C555.243 96.9733 554.963 95.7733 554.403 94.84C553.843 93.9067 553.11 93.44 552.203 93.44C551.297 93.44 550.57 93.9067 550.023 94.84C549.477 95.76 549.203 96.96 549.203 98.44C549.203 99.9067 549.477 101.107 550.023 102.04C550.57 102.96 551.297 103.42 552.203 103.42C553.11 103.42 553.843 102.96 554.403 102.04ZM578.248 94.52C578.248 95.76 577.515 96.64 576.048 97.16V99.98H580.208V101.08H564.428V99.98H568.548V97.14C567.081 96.62 566.348 95.7467 566.348 94.52C566.348 93.4933 566.868 92.7133 567.908 92.18C568.961 91.6333 570.428 91.36 572.308 91.36C574.188 91.36 575.648 91.6333 576.688 92.18C577.728 92.7133 578.248 93.4933 578.248 94.52ZM578.328 105.24C578.328 106.227 577.795 106.98 576.728 107.5C575.661 108.033 574.188 108.3 572.308 108.3C570.428 108.3 568.961 108.033 567.908 107.5C566.855 106.98 566.328 106.227 566.328 105.24C566.328 104.267 566.855 103.52 567.908 103C568.961 102.467 570.428 102.2 572.308 102.2C574.188 102.2 575.661 102.467 576.728 103C577.795 103.52 578.328 104.267 578.328 105.24ZM575.728 96.08C576.555 95.7333 576.968 95.2133 576.968 94.52C576.968 93.8267 576.555 93.3067 575.728 92.96C574.901 92.6133 573.761 92.44 572.308 92.44C570.868 92.44 569.735 92.6133 568.908 92.96C568.095 93.3067 567.688 93.8267 567.688 94.52C567.688 95.2133 568.095 95.7333 568.908 96.08C569.735 96.4267 570.868 96.6 572.308 96.6C573.761 96.6 574.901 96.4267 575.728 96.08ZM572.308 103.28C570.868 103.28 569.728 103.447 568.888 103.78C568.061 104.1 567.648 104.587 567.648 105.24C567.648 105.893 568.061 106.387 568.888 106.72C569.728 107.053 570.868 107.22 572.308 107.22C573.775 107.22 574.921 107.06 575.748 106.74C576.575 106.407 576.988 105.907 576.988 105.24C576.988 104.587 576.568 104.1 575.728 103.78C574.901 103.447 573.761 103.28 572.308 103.28ZM572.308 97.7C571.428 97.7 570.601 97.6267 569.828 97.48V99.98H574.768V97.5C574.061 97.6333 573.241 97.7 572.308 97.7ZM597.813 96.84H595.113V100.86H593.833V90.92H595.113V95.76H597.813V96.84ZM595.793 108.28H584.233V104.4H593.833V102.82H584.173V101.78H595.113V105.44H585.513V107.22H595.793V108.28ZM589.153 92.36H584.173V91.22H589.153V92.36ZM591.733 94.64H581.673V93.56H591.733V94.64ZM589.553 96.08C590.299 96.5333 590.673 97.18 590.673 98.02C590.673 98.86 590.306 99.5067 589.573 99.96C588.839 100.413 587.866 100.64 586.653 100.64C585.493 100.64 584.539 100.413 583.793 99.96C583.046 99.5067 582.673 98.86 582.673 98.02C582.673 97.18 583.039 96.5333 583.773 96.08C584.519 95.6267 585.479 95.4 586.653 95.4C587.839 95.4 588.806 95.6267 589.553 96.08ZM589.393 98.02C589.393 97.5133 589.133 97.1333 588.613 96.88C588.093 96.6133 587.439 96.48 586.653 96.48C585.866 96.48 585.219 96.6133 584.713 96.88C584.206 97.1333 583.953 97.5133 583.953 98.02C583.953 98.5133 584.213 98.9 584.733 99.18C585.253 99.4467 585.893 99.58 586.653 99.58C587.426 99.58 588.073 99.4467 588.593 99.18C589.126 98.9 589.393 98.5133 589.393 98.02ZM612.791 108.42H611.511V101.96H604.291V100.86H620.071V101.96H612.791V108.42ZM619.271 97.72L618.571 98.78C617.225 98.4867 615.931 97.94 614.691 97.14C613.465 96.3267 612.625 95.4467 612.171 94.5C611.745 95.4467 610.911 96.3333 609.671 97.16C608.445 97.9867 607.158 98.54 605.811 98.82L605.111 97.76C606.791 97.5333 608.278 96.92 609.571 95.92C610.865 94.9067 611.511 93.84 611.511 92.72V91.7H612.831V92.72C612.831 93.8133 613.525 94.88 614.911 95.92C616.311 96.96 617.765 97.56 619.271 97.72ZM641.09 101.08H639.81V90.92H641.09V101.08ZM628.59 93.1C629.443 92.3533 630.49 91.98 631.73 91.98C632.97 91.98 634.017 92.3533 634.87 93.1C635.737 93.8333 636.17 94.7933 636.17 95.98C636.17 97.1667 635.737 98.1333 634.87 98.88C634.017 99.6267 632.97 100 631.73 100C630.49 100 629.443 99.6333 628.59 98.9C627.737 98.1533 627.31 97.1867 627.31 96C627.31 94.8133 627.737 93.8467 628.59 93.1ZM631.73 93.08C630.837 93.08 630.09 93.3533 629.49 93.9C628.903 94.4333 628.61 95.1267 628.61 95.98C628.61 96.8333 628.91 97.5333 629.51 98.08C630.11 98.6267 630.85 98.9 631.73 98.9C632.663 98.9 633.417 98.6333 633.99 98.1C634.563 97.5667 634.85 96.8667 634.85 96C634.85 95.1333 634.563 94.4333 633.99 93.9C633.417 93.3533 632.663 93.08 631.73 93.08ZM641.91 108.42H641.89C641.237 108.087 640.577 107.587 639.91 106.92C639.257 106.24 638.817 105.587 638.59 104.96C638.363 105.64 637.917 106.333 637.25 107.04C636.583 107.747 635.89 108.28 635.17 108.64L634.37 107.78C635.357 107.3 636.197 106.613 636.89 105.72C637.597 104.813 637.95 103.867 637.95 102.88V101.68H639.23V102.78C639.23 103.793 639.59 104.753 640.31 105.66C641.03 106.567 641.83 107.187 642.71 107.52L641.91 108.42ZM635.39 106.32L634.47 107.22C633.963 106.94 633.49 106.58 633.05 106.14C632.61 105.687 632.283 105.2 632.07 104.68C631.87 105.347 631.423 106.053 630.73 106.8C630.05 107.533 629.323 108.087 628.55 108.46L627.79 107.54C628.723 107.153 629.557 106.507 630.29 105.6C631.023 104.693 631.39 103.74 631.39 102.74V101.7H632.67V102.6C632.67 103.507 632.93 104.28 633.45 104.92C633.97 105.56 634.617 106.027 635.39 106.32ZM658.975 96.46L658.355 97.48C657.008 97.2133 655.721 96.6867 654.495 95.9C653.268 95.1133 652.448 94.2867 652.035 93.42C651.675 94.2733 650.875 95.0933 649.635 95.88C648.395 96.6667 647.095 97.2 645.735 97.48L645.115 96.46C646.035 96.3533 646.968 96.08 647.915 95.64C648.875 95.2 649.688 94.62 650.355 93.9C651.035 93.18 651.375 92.4467 651.375 91.7V91.14H652.695V91.7C652.695 92.4467 653.035 93.18 653.715 93.9C654.395 94.62 655.208 95.2 656.155 95.64C657.115 96.08 658.055 96.3533 658.975 96.46ZM659.935 100.1H644.155V99H659.935V100.1ZM657.815 108.16H646.295V101.54H647.575V103.7H656.535V101.54H657.815V108.16ZM656.535 107.08V104.8H647.575V107.08H656.535ZM675.519 108.4H674.239V90.92H675.519V108.4ZM672.639 103.12C671.479 103.373 669.926 103.587 667.979 103.76C666.046 103.92 664.253 104 662.599 104V92.72H663.879V102.86C665.053 102.86 666.519 102.78 668.279 102.62C670.039 102.46 671.433 102.267 672.459 102.04L672.639 103.12ZM695.044 99.04H692.124V108.4H690.844V90.92H692.124V97.96H695.044V99.04ZM689.404 103.4C686.551 103.92 683.271 104.12 679.564 104V92.74H687.704V93.84H680.844V102.86C682.111 102.927 683.577 102.907 685.244 102.8C686.924 102.68 688.251 102.513 689.224 102.3L689.404 103.4ZM696.169 106.56V104.88H697.829V106.56H696.169Z" fill="black"/>
</svg>
