<svg width="1189" height="126" viewBox="0 0 1189 126" fill="none" xmlns="http://www.w3.org/2000/svg">
<path d="M11.424 11.316C11.3867 18.6893 8.39067 24.2893 2.436 28.116L0.84 26.324C3.99467 24.4573 6.244 22.0213 7.588 19.016L1.54 19.772L1.092 17.644L8.316 17.028C8.67067 15.74 8.876 14.508 8.932 13.332H1.988V11.316H11.424ZM16.968 31.756H14.616V19.996H10.948V17.98H14.616V9.048H16.968V31.756ZM21.728 32.96H19.348V8.488H21.728V32.96ZM45.5906 32.792H27.9506V27.108H42.2026V25.456H27.8106V23.412H44.6666V28.928H30.4426V30.748H45.5906V32.792ZM45.0866 17.98H27.4746V15.964H31.1146L30.5546 12.604L33.0466 12.24L33.4666 15.964H39.0946L39.5986 12.212L42.0906 12.576L41.4186 15.964H45.0866V17.98ZM47.3826 21.592H25.2906V19.576H47.3826V21.592ZM45.1146 11.4H27.4466V9.384H45.1146V11.4ZM64.0211 24.28L64.2731 26.352C61.0998 26.8933 57.4598 27.164 53.3531 27.164H50.4131V17.56H59.2051V12.716H50.3291V10.7H61.6691V19.548H52.8771V25.12C57.2825 25.1573 60.9971 24.8773 64.0211 24.28ZM68.4171 8.488V18.204H72.2251V20.248H68.4171V32.96H65.9531V8.488H68.4171ZM93.9597 32.96H91.4677V8.488H93.9597V32.96ZM86.7637 26.884H74.9477V10.588H77.4117V16.692H84.2997V10.56H86.7637V26.884ZM84.2997 24.896V18.708H77.4117V24.896H84.2997ZM117.206 11.092V14.592C117.188 16.5333 117.066 18.624 116.842 20.864C116.618 23.0853 116.338 24.8867 116.002 26.268L113.65 25.988C113.968 24.4573 114.229 22.4413 114.434 19.94L100.294 20.612L99.9303 18.568L114.602 18.008C114.64 17.448 114.658 16.6827 114.658 15.712V13.108H100.63V11.092H117.206ZM120.062 29.516H97.9703V27.5H120.062V29.516Z" fill="black"/>
<path d="M285.179 20.76C285.179 22.0667 284.679 23.1333 283.679 23.96C282.693 24.7733 281.366 25.2267 279.699 25.32V28.96H286.979V30.06H271.199V28.96H278.419V25.32C276.766 25.2267 275.446 24.7733 274.459 23.96C273.473 23.1333 272.979 22.0667 272.979 20.76C272.979 19.36 273.533 18.24 274.639 17.4C275.759 16.56 277.233 16.14 279.059 16.14C280.913 16.14 282.393 16.56 283.499 17.4C284.619 18.24 285.179 19.36 285.179 20.76ZM283.919 20.76C283.919 19.72 283.473 18.88 282.579 18.24C281.699 17.6 280.526 17.28 279.059 17.28C277.619 17.28 276.453 17.6 275.559 18.24C274.679 18.88 274.239 19.72 274.239 20.76C274.239 21.7867 274.679 22.62 275.559 23.26C276.453 23.9 277.619 24.22 279.059 24.22C280.513 24.22 281.686 23.9 282.579 23.26C283.473 22.62 283.919 21.7867 283.919 20.76ZM302.644 25.24H290.064V24.16H292.904L292.424 19.04L293.784 18.84L294.144 24.16H298.564L299.164 18.86L300.424 19.08L299.784 24.16H302.644V25.24ZM304.284 30.16H288.504V29.06H304.284V30.16ZM302.644 17.96H290.064V16.86H302.644V17.96ZM322.089 23.14H319.169V32.4H317.889V14.92H319.169V22.04H322.089V23.14ZM316.409 27.48C313.369 27.9333 310.069 28.16 306.509 28.16V21.58H313.069V17.66H306.509V16.56H314.349V22.66H307.789V27.04C308.949 27.04 310.375 26.9867 312.069 26.88C313.775 26.76 315.169 26.5933 316.249 26.38L316.409 27.48ZM337.354 27.62H336.074V14.92H337.354V27.62ZM337.814 31.78H326.014V26.46H327.294V30.7H337.814V31.78ZM324.874 17.32C325.754 16.5333 326.82 16.14 328.074 16.14C329.327 16.14 330.387 16.5267 331.254 17.3C332.134 18.0733 332.574 19.08 332.574 20.32C332.574 21.5733 332.134 22.5933 331.254 23.38C330.387 24.1533 329.327 24.54 328.074 24.54C326.82 24.54 325.754 24.1533 324.874 23.38C323.994 22.6067 323.554 21.6 323.554 20.36C323.554 19.1067 323.994 18.0933 324.874 17.32ZM328.074 17.28C327.154 17.28 326.387 17.5667 325.774 18.14C325.174 18.7 324.874 19.4267 324.874 20.32C324.874 21.2267 325.18 21.9733 325.794 22.56C326.407 23.1333 327.167 23.42 328.074 23.42C329.034 23.42 329.807 23.14 330.394 22.58C330.98 22.02 331.274 21.28 331.274 20.36C331.274 19.44 330.98 18.7 330.394 18.14C329.807 17.5667 329.034 17.28 328.074 17.28ZM356.498 20.76H353.778V25.38H352.498V14.92H353.778V19.66H356.498V20.76ZM349.098 24.12H341.138V16H342.418V18.9H347.818V16H349.098V24.12ZM347.818 23.02V20H342.418V23.02H347.818ZM353.778 32.4H352.478V27.4H342.558V26.32H353.778V32.4ZM373.803 20.76H371.083V25.36H369.803V14.92H371.083V19.66H373.803V20.76ZM371.103 32.14H359.943V26.4H371.103V32.14ZM369.823 31.06V27.48H361.203V31.06H369.823ZM368.043 24.18C365.283 24.5667 362.076 24.7533 358.423 24.74V19.62H364.743V17.04H358.403V15.96H366.023V20.72H359.703V23.62C362.836 23.6867 365.563 23.5067 367.883 23.08L368.043 24.18ZM386.888 28.84C385.634 29 383.554 29.1733 380.648 29.36C378.528 29.4933 376.768 29.5667 375.368 29.58L375.148 28.42C376.401 28.42 378.074 28.3667 380.168 28.26V26.32C379.114 26.2267 378.274 25.9333 377.648 25.44C377.021 24.9333 376.708 24.2867 376.708 23.5C376.708 22.62 377.081 21.9267 377.828 21.42C378.574 20.9133 379.554 20.66 380.768 20.66C381.994 20.66 382.974 20.9133 383.708 21.42C384.441 21.9133 384.808 22.6067 384.808 23.5C384.808 24.2867 384.501 24.9267 383.888 25.42C383.288 25.9133 382.461 26.2133 381.408 26.32V28.2C384.354 28 386.141 27.8533 386.768 27.76L386.888 28.84ZM389.248 32.4H387.968V14.92H389.248V32.4ZM383.508 23.5C383.508 22.9533 383.254 22.52 382.748 22.2C382.254 21.88 381.594 21.72 380.768 21.72C379.954 21.72 379.294 21.88 378.788 22.2C378.281 22.52 378.028 22.9533 378.028 23.5C378.028 24.0333 378.281 24.4667 378.788 24.8C379.294 25.12 379.954 25.28 380.768 25.28C381.581 25.28 382.241 25.12 382.748 24.8C383.254 24.4667 383.508 24.0333 383.508 23.5ZM386.128 19.62H375.648V18.48H386.128V19.62ZM383.308 17.2H378.288V16.04H383.308V17.2ZM397.572 16.14C398.866 16.14 399.959 16.52 400.852 17.28C401.746 18.0267 402.192 19.0067 402.192 20.22C402.192 21.3267 401.819 22.2467 401.072 22.98C400.326 23.7133 399.379 24.14 398.232 24.26V27.26C400.686 27.1133 402.359 26.9733 403.252 26.84L403.352 27.92C401.819 28.1067 399.906 28.2667 397.612 28.4C395.732 28.5333 393.979 28.6 392.352 28.6L392.092 27.42C393.679 27.42 395.299 27.3933 396.952 27.34V24.26C395.806 24.14 394.852 23.7133 394.092 22.98C393.332 22.2467 392.952 21.3333 392.952 20.24C392.952 19.0267 393.399 18.04 394.292 17.28C395.199 16.52 396.292 16.14 397.572 16.14ZM397.572 17.22C396.626 17.22 395.832 17.5 395.192 18.06C394.552 18.62 394.232 19.34 394.232 20.22C394.232 21.1 394.552 21.8267 395.192 22.4C395.832 22.96 396.626 23.24 397.572 23.24C398.559 23.24 399.359 22.9667 399.972 22.42C400.586 21.86 400.892 21.1333 400.892 20.24C400.892 19.3467 400.586 18.62 399.972 18.06C399.359 17.5 398.559 17.22 397.572 17.22ZM408.612 23.42H405.692V32.4H404.412V14.92H405.692V22.34H408.612V23.42ZM430.971 21.3H428.271V25.82H426.991V14.92H428.271V20.2H430.971V21.3ZM428.271 32.14H417.291V26.66H428.271V32.14ZM426.991 31.06V27.74H418.571V31.06H426.991ZM422.311 16.52H417.331V15.4H422.311V16.52ZM424.811 18.9H414.831V17.8H424.811V18.9ZM423.691 22.66C423.691 23.5267 423.324 24.2267 422.591 24.76C421.858 25.28 420.918 25.54 419.771 25.54C418.624 25.54 417.684 25.28 416.951 24.76C416.218 24.24 415.851 23.54 415.851 22.66C415.851 21.78 416.211 21.0867 416.931 20.58C417.664 20.06 418.611 19.8 419.771 19.8C420.931 19.8 421.871 20.06 422.591 20.58C423.324 21.0867 423.691 21.78 423.691 22.66ZM421.651 23.98C422.171 23.6467 422.431 23.2067 422.431 22.66C422.431 22.1133 422.171 21.68 421.651 21.36C421.144 21.0267 420.518 20.86 419.771 20.86C419.024 20.86 418.391 21.0267 417.871 21.36C417.364 21.68 417.111 22.1133 417.111 22.66C417.111 23.2067 417.371 23.6467 417.891 23.98C418.411 24.3133 419.038 24.48 419.771 24.48C420.504 24.48 421.131 24.3133 421.651 23.98ZM440.236 17.04C440.209 19.12 440.096 20.7867 439.896 22.04H442.556V15.36H443.816V31.48H442.556V23.12H439.696C439.162 25.4133 438.229 27.4333 436.896 29.18L435.796 28.46C436.462 27.6467 437.022 26.76 437.476 25.8C437.929 24.8267 438.249 23.8667 438.436 22.92C438.636 21.9733 438.769 21.1267 438.836 20.38C438.902 19.62 438.922 18.8733 438.896 18.14H437.076V17.04H440.236ZM446.876 32.4H445.596V14.92H446.876V32.4ZM436.556 17.04C436.556 19.1733 436.289 21.1067 435.756 22.84C435.222 24.5733 434.309 26.1867 433.016 27.68L431.976 26.96C432.629 26.2267 433.189 25.44 433.656 24.6C434.122 23.7467 434.456 22.92 434.656 22.12C434.869 21.3067 435.016 20.5867 435.096 19.96C435.189 19.3333 435.236 18.7267 435.236 18.14H432.736V17.04H436.556ZM468.574 18.88C468.574 19.9067 468.114 20.7 467.194 21.26C466.274 21.8067 464.961 22.1133 463.254 22.18V24.28H470.534V25.38H454.754V24.28H461.974V22.18C460.294 22.1133 458.994 21.8067 458.074 21.26C457.167 20.7 456.714 19.9067 456.714 18.88C456.714 17.7733 457.234 16.94 458.274 16.38C459.314 15.82 460.774 15.54 462.654 15.54C464.547 15.54 466.007 15.82 467.034 16.38C468.061 16.94 468.574 17.7733 468.574 18.88ZM466.034 17.26C465.207 16.8733 464.081 16.68 462.654 16.68C461.227 16.68 460.101 16.8667 459.274 17.24C458.461 17.6133 458.054 18.16 458.054 18.88C458.054 19.5867 458.461 20.1333 459.274 20.52C460.101 20.8933 461.221 21.08 462.634 21.08C464.061 21.08 465.194 20.8933 466.034 20.52C466.874 20.1333 467.294 19.5867 467.294 18.88C467.294 18.1733 466.874 17.6333 466.034 17.26ZM468.614 31.82H456.854V26.94H458.134V30.74H468.614V31.82ZM488.339 23.14H485.419V32.4H484.139V14.92H485.419V22.04H488.339V23.14ZM482.659 27.48C479.619 27.9333 476.319 28.16 472.759 28.16V21.58H479.319V17.66H472.759V16.56H480.599V22.66H474.039V27.04C475.199 27.04 476.625 26.9867 478.319 26.88C480.025 26.76 481.419 26.5933 482.499 26.38L482.659 27.48ZM503.604 27.62H502.324V14.92H503.604V27.62ZM504.064 31.78H492.264V26.46H493.544V30.7H504.064V31.78ZM491.124 17.32C492.004 16.5333 493.07 16.14 494.324 16.14C495.577 16.14 496.637 16.5267 497.504 17.3C498.384 18.0733 498.824 19.08 498.824 20.32C498.824 21.5733 498.384 22.5933 497.504 23.38C496.637 24.1533 495.577 24.54 494.324 24.54C493.07 24.54 492.004 24.1533 491.124 23.38C490.244 22.6067 489.804 21.6 489.804 20.36C489.804 19.1067 490.244 18.0933 491.124 17.32ZM494.324 17.28C493.404 17.28 492.637 17.5667 492.024 18.14C491.424 18.7 491.124 19.4267 491.124 20.32C491.124 21.2267 491.43 21.9733 492.044 22.56C492.657 23.1333 493.417 23.42 494.324 23.42C495.284 23.42 496.057 23.14 496.644 22.58C497.23 22.02 497.524 21.28 497.524 20.36C497.524 19.44 497.23 18.7 496.644 18.14C496.057 17.5667 495.284 17.28 494.324 17.28ZM522.748 20.76H520.028V25.38H518.748V14.92H520.028V19.66H522.748V20.76ZM515.348 24.12H507.388V16H508.668V18.9H514.068V16H515.348V24.12ZM514.068 23.02V20H508.668V23.02H514.068ZM520.028 32.4H518.728V27.4H508.808V26.32H520.028V32.4ZM540.053 20.76H537.333V25.36H536.053V14.92H537.333V19.66H540.053V20.76ZM537.353 32.14H526.193V26.4H537.353V32.14ZM536.073 31.06V27.48H527.453V31.06H536.073ZM534.293 24.18C531.533 24.5667 528.326 24.7533 524.673 24.74V19.62H530.993V17.04H524.653V15.96H532.273V20.72H525.953V23.62C529.086 23.6867 531.813 23.5067 534.133 23.08L534.293 24.18ZM553.138 28.84C551.884 29 549.804 29.1733 546.898 29.36C544.778 29.4933 543.018 29.5667 541.618 29.58L541.398 28.42C542.651 28.42 544.324 28.3667 546.418 28.26V26.32C545.364 26.2267 544.524 25.9333 543.898 25.44C543.271 24.9333 542.958 24.2867 542.958 23.5C542.958 22.62 543.331 21.9267 544.078 21.42C544.824 20.9133 545.804 20.66 547.018 20.66C548.244 20.66 549.224 20.9133 549.958 21.42C550.691 21.9133 551.058 22.6067 551.058 23.5C551.058 24.2867 550.751 24.9267 550.138 25.42C549.538 25.9133 548.711 26.2133 547.658 26.32V28.2C550.604 28 552.391 27.8533 553.018 27.76L553.138 28.84ZM555.498 32.4H554.218V14.92H555.498V32.4ZM549.758 23.5C549.758 22.9533 549.504 22.52 548.998 22.2C548.504 21.88 547.844 21.72 547.018 21.72C546.204 21.72 545.544 21.88 545.038 22.2C544.531 22.52 544.278 22.9533 544.278 23.5C544.278 24.0333 544.531 24.4667 545.038 24.8C545.544 25.12 546.204 25.28 547.018 25.28C547.831 25.28 548.491 25.12 548.998 24.8C549.504 24.4667 549.758 24.0333 549.758 23.5ZM552.378 19.62H541.898V18.48H552.378V19.62ZM549.558 17.2H544.538V16.04H549.558V17.2ZM574.362 24.22H558.582V23.2H574.362V24.22ZM572.962 32.02H560.562V28.28H571.082V26.78H560.522V25.76H572.362V29.26H561.842V30.92H572.962V32.02ZM572.562 21.62H560.702V18.08H570.982V16.58H560.682V15.52H572.262V19.1H561.982V20.58H572.562V21.62ZM595.861 32.4H594.581V23.1H592.021V31.48H590.761V15.38H592.021V22.02H594.581V14.92H595.861V32.4ZM588.541 17.14C588.394 22.0467 586.194 25.8867 581.941 28.66L581.061 27.68C582.874 26.64 584.328 25.2667 585.421 23.56C586.514 21.84 587.094 20.0667 587.161 18.24H581.801V17.14H588.541ZM599.406 19.7V18.6H609.006V19.7H604.806V19.84C604.806 20.7867 605.279 21.6333 606.226 22.38C607.172 23.1267 608.239 23.6267 609.426 23.88L608.806 24.9C607.792 24.6067 606.852 24.18 605.986 23.62C605.132 23.06 604.532 22.42 604.186 21.7C603.932 22.46 603.359 23.1733 602.466 23.84C601.586 24.5067 600.586 25.02 599.466 25.38L598.866 24.42C600.186 24.0733 601.292 23.48 602.186 22.64C603.079 21.7867 603.526 20.8467 603.526 19.82V19.7H599.406ZM612.666 32.4H611.386V14.92H612.666V32.4ZM610.306 28.52C608.519 28.72 606.439 28.8733 604.066 28.98C601.812 29.1133 600.052 29.1733 598.786 29.16L598.566 28C600.592 28 602.259 27.9667 603.566 27.9V24.3H604.826V27.82C607.426 27.7 609.212 27.5733 610.186 27.44L610.306 28.52ZM601.826 17.02V15.92H606.686V17.02H601.826ZM630.47 32.4H629.19V23.38H626.77V31.48H625.51V15.36H626.77V22.3H629.19V14.92H630.47V32.4ZM622.91 22.44C623.577 23.0533 623.91 23.86 623.91 24.86C623.91 25.86 623.577 26.6667 622.91 27.28C622.244 27.8933 621.37 28.2 620.29 28.2C619.237 28.2 618.37 27.8867 617.69 27.26C617.024 26.62 616.69 25.82 616.69 24.86C616.69 23.8467 617.024 23.0333 617.69 22.42C618.357 21.8067 619.224 21.5 620.29 21.5C621.37 21.5 622.244 21.8133 622.91 22.44ZM622.67 24.86C622.67 24.18 622.444 23.6333 621.99 23.22C621.55 22.8067 620.984 22.6 620.29 22.6C619.597 22.6 619.024 22.8133 618.57 23.24C618.13 23.6533 617.91 24.1933 617.91 24.86C617.91 25.54 618.13 26.0867 618.57 26.5C619.024 26.9133 619.597 27.12 620.29 27.12C620.984 27.12 621.55 26.9067 621.99 26.48C622.444 26.0533 622.67 25.5133 622.67 24.86ZM624.53 20.26H615.77V19.18H624.53V20.26ZM622.55 17.5H617.91V16.38H622.55V17.5ZM639.009 17.36V16.28H648.429V17.36H644.369V18.34C644.369 19.4467 644.809 20.4867 645.689 21.46C646.569 22.42 647.575 23.0867 648.709 23.46L647.989 24.52C647.095 24.1467 646.242 23.58 645.429 22.82C644.615 22.06 644.035 21.2867 643.689 20.5C643.435 21.3267 642.875 22.1667 642.009 23.02C641.142 23.8733 640.215 24.5267 639.229 24.98L638.469 24C639.655 23.5333 640.722 22.76 641.669 21.68C642.615 20.5867 643.089 19.4733 643.089 18.34V17.36H639.009ZM652.549 32.4H651.269V27.38H640.949V26.3H652.549V32.4ZM652.549 25.36H651.269V14.92H652.549V25.36ZM669.874 32.16H658.834V25.24H660.114V27.64H668.594V25.18H669.874V32.16ZM656.214 17.22V16.12H665.394V17.22H661.434V18C661.434 19.1067 661.867 20.1467 662.734 21.12C663.6 22.08 664.594 22.7467 665.714 23.12L665.014 24.16C664.12 23.8 663.274 23.2467 662.474 22.5C661.674 21.7533 661.1 20.98 660.754 20.18C660.54 20.98 659.994 21.8133 659.114 22.68C658.247 23.5333 657.32 24.18 656.334 24.62L655.614 23.66C656.787 23.1933 657.834 22.4133 658.754 21.32C659.687 20.2267 660.154 19.1133 660.154 17.98V17.22H656.214ZM668.594 31.1V28.68H660.114V31.1H668.594ZM668.574 20.26H665.174V19.18H668.574V14.92H669.854V24.26H668.574V20.26ZM694.252 20.76H691.532V25.38H690.252V14.92H691.532V19.66H694.252V20.76ZM686.852 24.12H678.892V16H680.172V18.9H685.572V16H686.852V24.12ZM685.572 23.02V20H680.172V23.02H685.572ZM691.532 32.4H690.232V27.4H680.312V26.32H691.532V32.4ZM711.557 20.76H708.837V25.36H707.557V14.92H708.837V19.66H711.557V20.76ZM708.857 32.14H697.697V26.4H708.857V32.14ZM707.577 31.06V27.48H698.957V31.06H707.577ZM705.797 24.18C703.037 24.5667 699.83 24.7533 696.177 24.74V19.62H702.497V17.04H696.157V15.96H703.777V20.72H697.457V23.62C700.59 23.6867 703.317 23.5067 705.637 23.08L705.797 24.18ZM724.641 28.84C723.388 29 721.308 29.1733 718.401 29.36C716.281 29.4933 714.521 29.5667 713.121 29.58L712.901 28.42C714.155 28.42 715.828 28.3667 717.921 28.26V26.32C716.868 26.2267 716.028 25.9333 715.401 25.44C714.775 24.9333 714.461 24.2867 714.461 23.5C714.461 22.62 714.835 21.9267 715.581 21.42C716.328 20.9133 717.308 20.66 718.521 20.66C719.748 20.66 720.728 20.9133 721.461 21.42C722.195 21.9133 722.561 22.6067 722.561 23.5C722.561 24.2867 722.255 24.9267 721.641 25.42C721.041 25.9133 720.215 26.2133 719.161 26.32V28.2C722.108 28 723.895 27.8533 724.521 27.76L724.641 28.84ZM727.001 32.4H725.721V14.92H727.001V32.4ZM721.261 23.5C721.261 22.9533 721.008 22.52 720.501 22.2C720.008 21.88 719.348 21.72 718.521 21.72C717.708 21.72 717.048 21.88 716.541 22.2C716.035 22.52 715.781 22.9533 715.781 23.5C715.781 24.0333 716.035 24.4667 716.541 24.8C717.048 25.12 717.708 25.28 718.521 25.28C719.335 25.28 719.995 25.12 720.501 24.8C721.008 24.4667 721.261 24.0333 721.261 23.5ZM723.881 19.62H713.401V18.48H723.881V19.62ZM721.061 17.2H716.041V16.04H721.061V17.2ZM745.866 24.22H730.086V23.2H745.866V24.22ZM744.466 32.02H732.066V28.28H742.586V26.78H732.026V25.76H743.866V29.26H733.346V30.92H744.466V32.02ZM744.066 21.62H732.206V18.08H742.486V16.58H732.186V15.52H743.766V19.1H733.486V20.58H744.066V21.62ZM768.725 20.74H766.005V25.38H764.725V14.92H766.005V19.64H768.725V20.74ZM764.725 26.72C765.698 27.3067 766.185 28.1 766.185 29.1C766.185 30.1 765.691 30.8867 764.705 31.46C763.718 32.0467 762.325 32.34 760.525 32.34C758.738 32.34 757.358 32.0467 756.385 31.46C755.411 30.8867 754.925 30.1 754.925 29.1C754.925 28.0867 755.411 27.2933 756.385 26.72C757.358 26.1333 758.738 25.84 760.525 25.84C762.351 25.84 763.751 26.1333 764.725 26.72ZM760.525 26.9C759.191 26.9 758.145 27.1 757.385 27.5C756.625 27.9 756.245 28.4333 756.245 29.1C756.245 29.7667 756.625 30.3 757.385 30.7C758.158 31.0867 759.205 31.28 760.525 31.28C761.911 31.28 762.985 31.0867 763.745 30.7C764.505 30.3133 764.885 29.78 764.885 29.1C764.885 28.42 764.505 27.8867 763.745 27.5C762.985 27.1 761.911 26.9 760.525 26.9ZM761.305 24.06H753.325V15.8H754.605V18.78H760.025V15.8H761.305V24.06ZM760.025 22.98V19.86H754.605V22.98H760.025ZM783.649 21.84H772.069V15.94H783.649V21.84ZM782.369 20.76V17.02H773.349V20.76H782.369ZM778.449 28.74H777.169V25.14H769.949V24.04H785.729V25.14H778.449V28.74ZM783.809 31.8H772.049V26.98H773.329V30.72H783.809V31.8ZM803.534 23.46H800.614V32.4H799.334V14.92H800.614V22.36H803.534V23.46ZM794.774 17.34H789.714V16.2H794.774V17.34ZM797.414 20.24H787.194V19.16H797.414V20.24ZM796.474 25.08C796.474 26.0933 796.101 26.94 795.354 27.62C794.607 28.2867 793.641 28.62 792.454 28.62C791.267 28.62 790.294 28.2867 789.534 27.62C788.787 26.94 788.414 26.0933 788.414 25.08C788.414 24.0533 788.787 23.2 789.534 22.52C790.281 21.84 791.254 21.5 792.454 21.5C793.641 21.5 794.607 21.84 795.354 22.52C796.101 23.2 796.474 24.0533 796.474 25.08ZM794.414 26.86C794.934 26.3933 795.194 25.8 795.194 25.08C795.194 24.36 794.934 23.7667 794.414 23.3C793.894 22.8333 793.241 22.6 792.454 22.6C791.667 22.6 791.014 22.8333 790.494 23.3C789.974 23.7667 789.714 24.36 789.714 25.08C789.714 25.8 789.974 26.3933 790.494 26.86C791.014 27.3267 791.667 27.56 792.454 27.56C793.241 27.56 793.894 27.3267 794.414 26.86ZM815.319 27.04L814.479 28C813.519 27.3467 812.605 26.5333 811.739 25.56C810.872 24.5867 810.292 23.6 809.999 22.6C809.705 23.7067 809.152 24.78 808.339 25.82C807.525 26.8467 806.585 27.74 805.519 28.5L804.679 27.52C805.985 26.72 807.085 25.6333 807.979 24.26C808.872 22.8733 809.319 21.42 809.319 19.9V17.86H805.199V16.76H814.839V17.86H810.639V19.86C810.639 21.34 811.099 22.74 812.019 24.06C812.952 25.38 814.052 26.3733 815.319 27.04ZM817.519 14.92H818.799V32.4H817.519V14.92ZM843.197 20.22H840.477V23.4H839.197V14.92H840.477V19.14H843.197V20.22ZM839.957 25.38H835.917V24.26H839.957V25.38ZM842.237 27.26H833.477V26.2H842.237V27.26ZM840.197 28.54C840.824 28.9533 841.137 29.5133 841.137 30.22C841.137 30.9267 840.824 31.4933 840.197 31.92C839.571 32.3467 838.791 32.56 837.857 32.56C836.937 32.56 836.164 32.3467 835.537 31.92C834.911 31.4933 834.597 30.9267 834.597 30.22C834.597 29.5133 834.904 28.9533 835.517 28.54C836.144 28.1133 836.924 27.9 837.857 27.9C838.791 27.9 839.571 28.1133 840.197 28.54ZM839.297 31.14C839.671 30.94 839.857 30.6333 839.857 30.22C839.857 29.8067 839.671 29.5 839.297 29.3C838.924 29.1 838.444 29 837.857 29C837.297 29 836.824 29.1067 836.437 29.32C836.064 29.52 835.877 29.82 835.877 30.22C835.877 30.62 836.064 30.92 836.437 31.12C836.824 31.3333 837.297 31.44 837.857 31.44C838.444 31.44 838.924 31.34 839.297 31.14ZM833.897 31.12C832.297 31.6267 830.557 31.86 828.677 31.82V25.68H829.957V30.66C830.931 30.7 832.177 30.4733 833.697 29.98L833.897 31.12ZM828.637 16.98C829.491 16.2333 830.531 15.86 831.757 15.86C832.984 15.86 834.024 16.2333 834.877 16.98C835.731 17.7133 836.157 18.6667 836.157 19.84C836.157 21.04 835.731 22.0133 834.877 22.76C834.024 23.5067 832.991 23.88 831.777 23.88C830.537 23.88 829.491 23.5133 828.637 22.78C827.797 22.0333 827.377 21.0667 827.377 19.88C827.377 18.6933 827.797 17.7267 828.637 16.98ZM831.757 17C830.864 17 830.124 17.2667 829.537 17.8C828.964 18.32 828.677 19 828.677 19.84C828.677 20.7067 828.971 21.4067 829.557 21.94C830.144 22.4733 830.884 22.74 831.777 22.74C832.697 22.74 833.437 22.48 833.997 21.96C834.571 21.4267 834.857 20.7333 834.857 19.88C834.857 19.0133 834.571 18.32 833.997 17.8C833.437 17.2667 832.691 17 831.757 17ZM860.202 29.78H844.422V28.68H850.662V22.52H851.942V28.68H860.202V29.78ZM857.982 16.82V19.16C857.982 22.0933 857.755 24.5333 857.302 26.48L856.042 26.26C856.442 24.6867 856.642 22.5467 856.642 19.84V17.92H846.062V16.82H857.982ZM285.519 70.4H284.239V52.92H285.519V70.4ZM281.759 65.1L280.919 66.12C279.999 65.48 279.106 64.66 278.239 63.66C277.373 62.6467 276.773 61.6267 276.439 60.6C276.133 61.68 275.579 62.74 274.779 63.78C273.993 64.8067 273.053 65.74 271.959 66.58L271.079 65.58C272.359 64.7933 273.459 63.6733 274.379 62.22C275.313 60.7667 275.779 59.3133 275.779 57.86V54.56H277.099V57.84C277.099 59.32 277.559 60.7267 278.479 62.06C279.399 63.38 280.493 64.3933 281.759 65.1ZM300.904 64.74C301.944 65.3 302.464 66.0867 302.464 67.1C302.464 68.1133 301.944 68.9 300.904 69.46C299.864 70.02 298.364 70.3 296.404 70.3C294.457 70.3 292.957 70.02 291.904 69.46C290.864 68.9 290.344 68.1133 290.344 67.1C290.344 66.0867 290.864 65.3 291.904 64.74C292.957 64.18 294.457 63.9 296.404 63.9C298.364 63.9 299.864 64.18 300.904 64.74ZM299.864 65.52C299.024 65.1467 297.871 64.96 296.404 64.96C294.937 64.96 293.777 65.1467 292.924 65.52C292.084 65.8933 291.664 66.42 291.664 67.1C291.664 67.7933 292.084 68.3267 292.924 68.7C293.764 69.06 294.924 69.24 296.404 69.24C297.884 69.24 299.044 69.06 299.884 68.7C300.724 68.3267 301.144 67.7933 301.144 67.1C301.144 66.42 300.717 65.8933 299.864 65.52ZM304.284 62.22H288.504V61.12H295.244V57.52H296.524V61.12H304.284V62.22ZM302.264 53.92V55.56C302.264 57.1067 302.091 58.56 301.744 59.92L300.484 59.74C300.777 58.6733 300.924 57.54 300.924 56.34L300.944 55.02H290.484V53.92H302.264ZM322.089 61.16H319.169V70.4H317.889V52.92H319.169V60.06H322.089V61.16ZM316.089 65.1L315.229 66.12C314.309 65.4667 313.415 64.64 312.549 63.64C311.682 62.6267 311.089 61.6133 310.769 60.6C310.462 61.68 309.909 62.74 309.109 63.78C308.322 64.8067 307.382 65.74 306.289 66.58L305.409 65.58C306.689 64.7933 307.789 63.6733 308.709 62.22C309.642 60.7667 310.109 59.3133 310.109 57.86V54.56H311.429V57.84C311.429 59.32 311.889 60.7267 312.809 62.06C313.729 63.38 314.822 64.3933 316.089 65.1ZM342.747 67.14C342.747 68.1533 342.234 68.9467 341.207 69.52C340.194 70.1067 338.761 70.4 336.907 70.4C335.054 70.4 333.621 70.1067 332.607 69.52C331.594 68.9467 331.087 68.1533 331.087 67.14C331.087 66.1133 331.594 65.3067 332.607 64.72C333.621 64.1333 335.054 63.84 336.907 63.84C338.761 63.84 340.194 64.1333 341.207 64.72C342.234 65.3067 342.747 66.1133 342.747 67.14ZM336.907 64.96C335.481 64.96 334.367 65.1533 333.567 65.54C332.781 65.9133 332.387 66.4467 332.387 67.14C332.387 67.82 332.781 68.3533 333.567 68.74C334.367 69.1133 335.481 69.3 336.907 69.3C338.334 69.3 339.447 69.1133 340.247 68.74C341.047 68.3533 341.447 67.82 341.447 67.14C341.447 66.4467 341.047 65.9133 340.247 65.54C339.461 65.1533 338.347 64.96 336.907 64.96ZM328.987 55.36V54.28H338.167V55.36H334.207V56.42C334.207 57.5133 334.647 58.5467 335.527 59.52C336.421 60.48 337.434 61.1467 338.567 61.52L337.847 62.56C336.954 62.2 336.094 61.6467 335.267 60.9C334.454 60.1533 333.874 59.3867 333.527 58.6C333.314 59.4 332.767 60.2333 331.887 61.1C331.007 61.9667 330.074 62.62 329.087 63.06L328.367 62.08C329.541 61.6133 330.594 60.8333 331.527 59.74C332.461 58.6467 332.927 57.54 332.927 56.42V55.36H328.987ZM341.327 58.5H337.827V57.42H341.327V52.92H342.607V63.8H341.327V58.5ZM359.352 63.24H354.172V67.06H361.452V68.16H345.672V67.06H352.892V63.24H347.772V54.3H349.052V57.54H358.072V54.3H359.352V63.24ZM358.072 62.16V58.64H349.052V62.16H358.072ZM378.757 62.22H362.977V61.2H378.757V62.22ZM377.357 70.02H364.957V66.28H375.477V64.78H364.917V63.76H376.757V67.26H366.237V68.92H377.357V70.02ZM376.957 59.62H365.097V56.08H375.377V54.58H365.077V53.52H376.657V57.1H366.377V58.58H376.957V59.62ZM401.615 57.98H398.895V61.92H397.615V52.92H398.895V56.9H401.615V57.98ZM399.575 70.28H388.035V65.96H397.615V63.98H387.955V62.88H398.895V66.96H389.315V69.18H399.575V70.28ZM387.075 54.72C387.942 54 389.009 53.64 390.275 53.64C391.542 53.64 392.609 53.9933 393.475 54.7C394.355 55.4067 394.795 56.3267 394.795 57.46C394.795 58.5933 394.355 59.52 393.475 60.24C392.609 60.9467 391.542 61.3 390.275 61.3C389.009 61.3 387.942 60.9467 387.075 60.24C386.209 59.5333 385.775 58.6133 385.775 57.48C385.775 56.3467 386.209 55.4267 387.075 54.72ZM390.275 54.76C389.355 54.76 388.595 55.0133 387.995 55.52C387.395 56.0133 387.095 56.66 387.095 57.46C387.095 58.26 387.395 58.9133 387.995 59.42C388.595 59.9133 389.355 60.16 390.275 60.16C391.249 60.16 392.022 59.92 392.595 59.44C393.182 58.9467 393.475 58.2933 393.475 57.48C393.475 56.6667 393.182 56.0133 392.595 55.52C392.009 55.0133 391.235 54.76 390.275 54.76ZM419.16 61.14H416.2V70.4H414.92V52.92H416.2V60.04H419.16V61.14ZM403.22 60.42C403.22 58.54 403.593 57.0533 404.34 55.96C405.087 54.8667 406.14 54.32 407.5 54.32C408.847 54.32 409.893 54.8733 410.64 55.98C411.387 57.0733 411.76 58.56 411.76 60.44C411.76 62.32 411.387 63.8133 410.64 64.92C409.893 66.0133 408.847 66.56 407.5 66.56C406.14 66.56 405.087 66.0133 404.34 64.92C403.593 63.8133 403.22 62.3133 403.22 60.42ZM409.68 64.04C410.24 63.1067 410.52 61.9067 410.52 60.44C410.52 58.9733 410.24 57.7733 409.68 56.84C409.133 55.9067 408.407 55.44 407.5 55.44C406.593 55.44 405.86 55.9067 405.3 56.84C404.753 57.7733 404.48 58.9733 404.48 60.44C404.48 61.9067 404.753 63.1067 405.3 64.04C405.86 64.96 406.593 65.42 407.5 65.42C408.407 65.42 409.133 64.96 409.68 64.04ZM433.825 59.34H428.645V61H435.925V62.1H420.145V61H427.365V59.34H422.265V53.4H423.545V55.32H432.545V53.4H433.825V59.34ZM434.525 70.12H422.185V66.3H432.585V64.72H422.105V63.64H433.865V67.28H423.465V69.04H434.525V70.12ZM432.545 58.26V56.38H423.545V58.26H432.545ZM451.203 70.42H449.923V63.96H442.703V62.86H458.483V63.96H451.203V70.42ZM457.683 59.72L456.983 60.78C455.637 60.4867 454.343 59.94 453.103 59.14C451.877 58.3267 451.037 57.4467 450.583 56.5C450.157 57.4467 449.323 58.3333 448.083 59.16C446.857 59.9867 445.57 60.54 444.223 60.82L443.523 59.76C445.203 59.5333 446.69 58.92 447.983 57.92C449.277 56.9067 449.923 55.84 449.923 54.72V53.7H451.243V54.72C451.243 55.8133 451.937 56.88 453.323 57.92C454.723 58.96 456.177 59.56 457.683 59.72ZM479.502 63.08H478.222V52.92H479.502V63.08ZM467.002 55.1C467.855 54.3533 468.902 53.98 470.142 53.98C471.382 53.98 472.429 54.3533 473.282 55.1C474.149 55.8333 474.582 56.7933 474.582 57.98C474.582 59.1667 474.149 60.1333 473.282 60.88C472.429 61.6267 471.382 62 470.142 62C468.902 62 467.855 61.6333 467.002 60.9C466.149 60.1533 465.722 59.1867 465.722 58C465.722 56.8133 466.149 55.8467 467.002 55.1ZM470.142 55.08C469.249 55.08 468.502 55.3533 467.902 55.9C467.315 56.4333 467.022 57.1267 467.022 57.98C467.022 58.8333 467.322 59.5333 467.922 60.08C468.522 60.6267 469.262 60.9 470.142 60.9C471.075 60.9 471.829 60.6333 472.402 60.1C472.975 59.5667 473.262 58.8667 473.262 58C473.262 57.1333 472.975 56.4333 472.402 55.9C471.829 55.3533 471.075 55.08 470.142 55.08ZM480.322 70.42H480.302C479.649 70.0867 478.989 69.5867 478.322 68.92C477.669 68.24 477.229 67.5867 477.002 66.96C476.775 67.64 476.329 68.3333 475.662 69.04C474.995 69.7467 474.302 70.28 473.582 70.64L472.782 69.78C473.769 69.3 474.609 68.6133 475.302 67.72C476.009 66.8133 476.362 65.8667 476.362 64.88V63.68H477.642V64.78C477.642 65.7933 478.002 66.7533 478.722 67.66C479.442 68.5667 480.242 69.1867 481.122 69.52L480.322 70.42ZM473.802 68.32L472.882 69.22C472.375 68.94 471.902 68.58 471.462 68.14C471.022 67.6867 470.695 67.2 470.482 66.68C470.282 67.3467 469.835 68.0533 469.142 68.8C468.462 69.5333 467.735 70.0867 466.962 70.46L466.202 69.54C467.135 69.1533 467.969 68.5067 468.702 67.6C469.435 66.6933 469.802 65.74 469.802 64.74V63.7H471.082V64.6C471.082 65.5067 471.342 66.28 471.862 66.92C472.382 67.56 473.029 68.0267 473.802 68.32ZM497.387 58.46L496.767 59.48C495.42 59.2133 494.133 58.6867 492.907 57.9C491.68 57.1133 490.86 56.2867 490.447 55.42C490.087 56.2733 489.287 57.0933 488.047 57.88C486.807 58.6667 485.507 59.2 484.147 59.48L483.527 58.46C484.447 58.3533 485.38 58.08 486.327 57.64C487.287 57.2 488.1 56.62 488.767 55.9C489.447 55.18 489.787 54.4467 489.787 53.7V53.14H491.107V53.7C491.107 54.4467 491.447 55.18 492.127 55.9C492.807 56.62 493.62 57.2 494.567 57.64C495.527 58.08 496.467 58.3533 497.387 58.46ZM498.347 62.1H482.567V61H498.347V62.1ZM496.227 70.16H484.707V63.54H485.987V65.7H494.947V63.54H496.227V70.16ZM494.947 69.08V66.8H485.987V69.08H494.947ZM513.931 70.4H512.651V52.92H513.931V70.4ZM511.051 65.12C509.891 65.3733 508.338 65.5867 506.391 65.76C504.458 65.92 502.665 66 501.011 66V54.72H502.291V64.86C503.465 64.86 504.931 64.78 506.691 64.62C508.451 64.46 509.845 64.2667 510.871 64.04L511.051 65.12ZM533.456 61.04H530.536V70.4H529.256V52.92H530.536V59.96H533.456V61.04ZM527.816 65.4C524.963 65.92 521.683 66.12 517.976 66V54.74H526.116V55.84H519.256V64.86C520.523 64.9267 521.989 64.9067 523.656 64.8C525.336 64.68 526.663 64.5133 527.636 64.3L527.816 65.4ZM534.581 68.56V66.88H536.241V68.56H534.581ZM556.293 65.06C557.333 65.5933 557.853 66.36 557.853 67.36C557.853 68.36 557.333 69.12 556.293 69.64C555.253 70.1733 553.773 70.44 551.853 70.44C549.946 70.44 548.473 70.1667 547.433 69.62C546.393 69.0867 545.873 68.3333 545.873 67.36C545.873 66.4 546.393 65.6467 547.433 65.1C548.486 64.54 549.96 64.26 551.853 64.26C553.773 64.26 555.253 64.5267 556.293 65.06ZM558.953 58.88L558.353 59.96C556.846 59.6933 555.486 59.2133 554.273 58.52C553.073 57.8267 552.266 57.08 551.853 56.28C551.52 57.08 550.76 57.8267 549.573 58.52C548.386 59.2133 547.013 59.6867 545.453 59.94L544.853 58.88C545.826 58.7733 546.773 58.5467 547.693 58.2C548.613 57.84 549.406 57.3533 550.073 56.74C550.74 56.1267 551.113 55.46 551.193 54.74H545.493V53.66H558.193V54.74H552.553C552.633 55.46 553.026 56.1333 553.733 56.76C554.453 57.3733 555.273 57.86 556.193 58.22C557.113 58.5667 558.033 58.7867 558.953 58.88ZM551.853 65.36C550.4 65.36 549.26 65.54 548.433 65.9C547.606 66.2467 547.193 66.7333 547.193 67.36C547.193 67.9867 547.606 68.4733 548.433 68.82C549.26 69.1667 550.4 69.34 551.853 69.34C553.32 69.34 554.466 69.1733 555.293 68.84C556.12 68.4933 556.533 68 556.533 67.36C556.533 66.7333 556.12 66.2467 555.293 65.9C554.466 65.54 553.32 65.36 551.853 65.36ZM559.753 62.68H543.973V61.6H551.213V59H552.493V61.6H559.753V62.68ZM575.498 70.4H574.218V52.92H575.498V70.4ZM562.098 60.42C562.098 58.54 562.471 57.0533 563.218 55.96C563.964 54.8533 565.011 54.3 566.358 54.3C567.718 54.3 568.771 54.8533 569.518 55.96C570.264 57.0533 570.638 58.5467 570.638 60.44C570.638 62.32 570.264 63.8133 569.518 64.92C568.771 66.0267 567.718 66.58 566.358 66.58C565.011 66.58 563.964 66.0267 563.218 64.92C562.471 63.8133 562.098 62.3133 562.098 60.42ZM568.558 64.04C569.118 63.1067 569.398 61.9067 569.398 60.44C569.398 58.9733 569.118 57.7733 568.558 56.84C567.998 55.9067 567.264 55.44 566.358 55.44C565.451 55.44 564.724 55.9067 564.178 56.84C563.631 57.76 563.358 58.96 563.358 60.44C563.358 61.9067 563.631 63.1067 564.178 64.04C564.724 64.96 565.451 65.42 566.358 65.42C567.264 65.42 567.998 64.96 568.558 64.04ZM590.022 69.48H588.742V63.32H585.702V62.24H588.742V58.9H586.022V57.82H588.742V53.36H590.022V69.48ZM593.302 70.4H592.022V52.92H593.302V70.4ZM585.782 55.14C585.702 57.6733 585.122 59.86 584.042 61.7C582.976 63.5267 581.409 65.12 579.342 66.48L578.462 65.48C580.262 64.4533 581.682 63.12 582.722 61.48C583.762 59.8267 584.322 58.08 584.402 56.24H579.202V55.14H585.782ZM600.527 53.92C601.74 53.92 602.767 54.2933 603.607 55.04C604.46 55.7867 604.887 56.7667 604.887 57.98C604.887 59.1933 604.46 60.18 603.607 60.94C602.767 61.6867 601.74 62.06 600.527 62.06C599.3 62.06 598.267 61.6867 597.427 60.94C596.587 60.1933 596.167 59.2133 596.167 58C596.167 56.7867 596.587 55.8067 597.427 55.06C598.267 54.3 599.3 53.92 600.527 53.92ZM600.527 55.02C599.634 55.02 598.9 55.3 598.327 55.86C597.754 56.4067 597.467 57.1133 597.467 57.98C597.467 58.8467 597.754 59.56 598.327 60.12C598.914 60.68 599.647 60.96 600.527 60.96C601.447 60.96 602.187 60.6867 602.747 60.14C603.307 59.5933 603.587 58.88 603.587 58C603.587 57.12 603.307 56.4067 602.747 55.86C602.187 55.3 601.447 55.02 600.527 55.02ZM611.967 59.42V60.52H609.247V63.3H607.967V52.92H609.247V55.66H611.967V56.76H609.247V59.42H611.967ZM609.267 70.4H607.967V65.24H598.067V64.14H609.267V70.4ZM627.432 70.4H626.152V60.36H622.012V59.28H626.152V52.92H627.432V70.4ZM623.612 65.1L622.792 66.08C621.898 65.48 621.038 64.6733 620.212 63.66C619.385 62.6467 618.798 61.6133 618.452 60.56C618.145 61.6533 617.598 62.72 616.812 63.76C616.038 64.7867 615.112 65.7133 614.032 66.54L613.152 65.58C614.432 64.8067 615.525 63.6933 616.432 62.24C617.338 60.7733 617.792 59.3133 617.792 57.86V54.44H619.112V57.84C619.112 59.32 619.552 60.7267 620.432 62.06C621.312 63.3933 622.372 64.4067 623.612 65.1ZM644.176 63.24H638.996V67.06H646.276V68.16H630.496V67.06H637.716V63.24H632.596V54.3H633.876V57.54H642.896V54.3H644.176V63.24ZM642.896 62.16V58.64H633.876V62.16H642.896ZM664.081 61.04H661.161V70.4H659.881V52.92H661.161V59.96H664.081V61.04ZM658.441 65.4C655.588 65.92 652.308 66.12 648.601 66V54.74H656.741V55.84H649.881V64.86C651.148 64.9267 652.614 64.9067 654.281 64.8C655.961 64.68 657.288 64.5133 658.261 64.3L658.441 65.4ZM679 62.86H671.26V54.14H672.54V57.38H677.72V54.14H679V62.86ZM677.72 61.78V58.48H672.54V61.78H677.72ZM683.32 59.12H680.08V58.04H683.32V52.92H684.6V65.68H683.32V59.12ZM685.06 69.78H673.4V64.52H674.68V68.7H685.06V69.78ZM700.604 61.18H696.464V60.08H700.604V52.92H701.884V70.4H700.604V61.18ZM696.344 54.82C696.291 57.5533 695.551 59.92 694.124 61.92C692.711 63.92 690.851 65.5467 688.544 66.8L687.744 65.78C689.944 64.6867 691.658 63.2867 692.884 61.58C694.124 59.86 694.824 57.9733 694.984 55.92H688.444V54.82H696.344ZM718.949 60.2H713.469V62.12H720.749V63.18H704.969V62.12H712.189V60.2H707.069V56.36H717.349V54.72H707.029V53.66H718.629V57.34H708.349V59.14H718.949V60.2ZM718.649 70.08H707.069V64.08H708.349V65.94H717.369V64.04H718.649V70.08ZM717.369 69V67H708.349V69H717.369ZM733.034 65.04L732.194 66C731.234 65.3467 730.32 64.5333 729.454 63.56C728.587 62.5867 728.007 61.6 727.714 60.6C727.42 61.7067 726.867 62.78 726.054 63.82C725.24 64.8467 724.3 65.74 723.234 66.5L722.394 65.52C723.7 64.72 724.8 63.6333 725.694 62.26C726.587 60.8733 727.034 59.42 727.034 57.9V55.86H722.914V54.76H732.554V55.86H728.354V57.86C728.354 59.34 728.814 60.74 729.734 62.06C730.667 63.38 731.767 64.3733 733.034 65.04ZM735.234 52.92H736.514V70.4H735.234V52.92ZM760.912 58.22H758.192V61.4H756.912V52.92H758.192V57.14H760.912V58.22ZM757.672 63.38H753.632V62.26H757.672V63.38ZM759.952 65.26H751.192V64.2H759.952V65.26ZM757.912 66.54C758.539 66.9533 758.852 67.5133 758.852 68.22C758.852 68.9267 758.539 69.4933 757.912 69.92C757.286 70.3467 756.506 70.56 755.572 70.56C754.652 70.56 753.879 70.3467 753.252 69.92C752.626 69.4933 752.312 68.9267 752.312 68.22C752.312 67.5133 752.619 66.9533 753.232 66.54C753.859 66.1133 754.639 65.9 755.572 65.9C756.506 65.9 757.286 66.1133 757.912 66.54ZM757.012 69.14C757.386 68.94 757.572 68.6333 757.572 68.22C757.572 67.8067 757.386 67.5 757.012 67.3C756.639 67.1 756.159 67 755.572 67C755.012 67 754.539 67.1067 754.152 67.32C753.779 67.52 753.592 67.82 753.592 68.22C753.592 68.62 753.779 68.92 754.152 69.12C754.539 69.3333 755.012 69.44 755.572 69.44C756.159 69.44 756.639 69.34 757.012 69.14ZM751.612 69.12C750.012 69.6267 748.272 69.86 746.392 69.82V63.68H747.672V68.66C748.646 68.7 749.892 68.4733 751.412 67.98L751.612 69.12ZM746.352 54.98C747.206 54.2333 748.246 53.86 749.472 53.86C750.699 53.86 751.739 54.2333 752.592 54.98C753.446 55.7133 753.872 56.6667 753.872 57.84C753.872 59.04 753.446 60.0133 752.592 60.76C751.739 61.5067 750.706 61.88 749.492 61.88C748.252 61.88 747.206 61.5133 746.352 60.78C745.512 60.0333 745.092 59.0667 745.092 57.88C745.092 56.6933 745.512 55.7267 746.352 54.98ZM749.472 55C748.579 55 747.839 55.2667 747.252 55.8C746.679 56.32 746.392 57 746.392 57.84C746.392 58.7067 746.686 59.4067 747.272 59.94C747.859 60.4733 748.599 60.74 749.492 60.74C750.412 60.74 751.152 60.48 751.712 59.96C752.286 59.4267 752.572 58.7333 752.572 57.88C752.572 57.0133 752.286 56.32 751.712 55.8C751.152 55.2667 750.406 55 749.472 55ZM777.917 67.78H762.137V66.68H768.377V60.52H769.657V66.68H777.917V67.78ZM775.697 54.82V57.16C775.697 60.0933 775.47 62.5333 775.017 64.48L773.757 64.26C774.157 62.6867 774.357 60.5467 774.357 57.84V55.92H763.777V54.82H775.697ZM800.976 61.06H798.056V70.4H796.776V52.92H798.056V59.98H800.976V61.06ZM793.316 65.96H785.396V54.5H786.676V58.94H792.036V54.5H793.316V65.96ZM792.036 64.86V60.04H786.676V64.86H792.036ZM817.78 68.16H802V67.06H809.22V63.82H804.1V58.42H814.4V55.46H804.1V54.38H815.68V59.5H805.38V62.74H816.14V63.82H810.5V67.06H817.78V68.16ZM835.585 61.06H832.665V70.4H831.385V52.92H832.665V59.98H835.585V61.06ZM827.925 65.96H820.005V54.5H821.285V58.94H826.645V54.5H827.925V65.96ZM826.645 64.86V60.04H821.285V64.86H826.645ZM852.39 68.16H836.61V67.06H843.83V63.82H838.71V58.42H849.01V55.46H838.71V54.38H850.29V59.5H839.99V62.74H850.75V63.82H845.11V67.06H852.39V68.16ZM285.419 108.4H284.139V90.92H285.419V108.4ZM280.199 92.82C280.146 95.5267 279.379 97.8867 277.899 99.9C276.433 101.9 274.519 103.533 272.159 104.8L271.379 103.78C273.593 102.673 275.339 101.26 276.619 99.54C277.913 97.82 278.639 95.9467 278.799 93.92H272.119V92.82H280.199ZM302.464 98.58H297.004V100.54H304.284V101.64H288.504V100.54H295.724V98.58H290.604V94.54H300.884V92.68H290.544V91.62H302.164V95.52H291.884V97.52H302.464V98.58ZM290.284 103.36H302.184V108.54H300.904V104.46H290.284V103.36ZM320.029 108.4H318.749V90.92H320.029V108.4ZM306.629 98.42C306.629 96.54 307.002 95.0533 307.749 93.96C308.495 92.8533 309.542 92.3 310.889 92.3C312.249 92.3 313.302 92.8533 314.049 93.96C314.795 95.0533 315.169 96.5467 315.169 98.44C315.169 100.32 314.795 101.813 314.049 102.92C313.302 104.027 312.249 104.58 310.889 104.58C309.542 104.58 308.495 104.027 307.749 102.92C307.002 101.813 306.629 100.313 306.629 98.42ZM313.089 102.04C313.649 101.107 313.929 99.9067 313.929 98.44C313.929 96.9733 313.649 95.7733 313.089 94.84C312.529 93.9067 311.795 93.44 310.889 93.44C309.982 93.44 309.255 93.9067 308.709 94.84C308.162 95.76 307.889 96.96 307.889 98.44C307.889 99.9067 308.162 101.107 308.709 102.04C309.255 102.96 309.982 103.42 310.889 103.42C311.795 103.42 312.529 102.96 313.089 102.04ZM344.447 96.08H341.727V100.58H340.447V90.92H341.727V94.98H344.447V96.08ZM341.747 108.14H330.867V101.7H341.747V108.14ZM340.467 107.06V102.78H332.147V107.06H340.467ZM338.727 98.64C337.594 98.8667 336.114 99.0533 334.287 99.2C332.461 99.3467 330.721 99.42 329.067 99.42V92.04H330.347V98.3C333.921 98.22 336.647 97.9533 338.527 97.5L338.727 98.64ZM361.452 101.16H345.672V100.06H361.452V101.16ZM359.612 107.96H347.872V102.88H349.132V106.86H359.612V107.96ZM359.552 97.58H347.892V91.52H349.152V96.48H359.552V97.58ZM368.851 93.68V92.6H378.011V93.68H374.091V95C374.091 96.0933 374.517 97.1267 375.371 98.1C376.237 99.0733 377.231 99.7467 378.351 100.12L377.651 101.16C376.757 100.8 375.917 100.247 375.131 99.5C374.344 98.74 373.771 97.96 373.411 97.16C373.184 97.96 372.631 98.7933 371.751 99.66C370.871 100.527 369.937 101.18 368.951 101.62L368.231 100.66C369.417 100.193 370.477 99.4133 371.411 98.32C372.344 97.2267 372.811 96.1133 372.811 94.98V93.68H368.851ZM381.191 96.98H377.811V95.88H381.191V90.92H382.471V103.7H381.191V96.98ZM382.851 107.78H371.291V102.44H372.571V106.7H382.851V107.78ZM395.715 103.3L394.915 104.28C393.982 103.64 393.095 102.827 392.255 101.84C391.415 100.853 390.835 99.8467 390.515 98.82C389.902 100.953 388.435 102.913 386.115 104.7L385.255 103.74C386.535 102.967 387.622 101.867 388.515 100.44C389.409 99.0133 389.855 97.5733 389.855 96.12V93.86H385.895V92.76H395.135V93.86H391.175V96.08C391.175 97.56 391.615 98.96 392.495 100.28C393.389 101.587 394.462 102.593 395.715 103.3ZM401.855 99.22H398.895V108.4H397.615V90.92H398.895V98.12H401.855V99.22ZM414.28 107.48H413V101.32H409.96V100.24H413V96.9H410.28V95.82H413V91.36H414.28V107.48ZM417.56 108.4H416.28V90.92H417.56V108.4ZM410.04 93.14C409.96 95.6733 409.38 97.86 408.3 99.7C407.233 101.527 405.667 103.12 403.6 104.48L402.72 103.48C404.52 102.453 405.94 101.12 406.98 99.48C408.02 97.8267 408.58 96.08 408.66 94.24H403.46V93.14H410.04ZM424.785 91.92C425.998 91.92 427.025 92.2933 427.865 93.04C428.718 93.7867 429.145 94.7667 429.145 95.98C429.145 97.1933 428.718 98.18 427.865 98.94C427.025 99.6867 425.998 100.06 424.785 100.06C423.558 100.06 422.525 99.6867 421.685 98.94C420.845 98.1933 420.425 97.2133 420.425 96C420.425 94.7867 420.845 93.8067 421.685 93.06C422.525 92.3 423.558 91.92 424.785 91.92ZM424.785 93.02C423.891 93.02 423.158 93.3 422.585 93.86C422.011 94.4067 421.725 95.1133 421.725 95.98C421.725 96.8467 422.011 97.56 422.585 98.12C423.171 98.68 423.905 98.96 424.785 98.96C425.705 98.96 426.445 98.6867 427.005 98.14C427.565 97.5933 427.845 96.88 427.845 96C427.845 95.12 427.565 94.4067 427.005 93.86C426.445 93.3 425.705 93.02 424.785 93.02ZM436.225 97.42V98.52H433.505V101.3H432.225V90.92H433.505V93.66H436.225V94.76H433.505V97.42H436.225ZM433.525 108.4H432.225V103.24H422.325V102.14H433.525V108.4ZM451.689 108.4H450.409V98.36H446.269V97.28H450.409V90.92H451.689V108.4ZM447.869 103.1L447.049 104.08C446.156 103.48 445.296 102.673 444.469 101.66C443.643 100.647 443.056 99.6133 442.709 98.56C442.403 99.6533 441.856 100.72 441.069 101.76C440.296 102.787 439.369 103.713 438.289 104.54L437.409 103.58C438.689 102.807 439.783 101.693 440.689 100.24C441.596 98.7733 442.049 97.3133 442.049 95.86V92.44H443.369V95.84C443.369 97.32 443.809 98.7267 444.689 100.06C445.569 101.393 446.629 102.407 447.869 103.1ZM470.534 106.16H454.754V105.06H461.974V101.82H456.854V96.42H467.154V93.46H456.854V92.38H468.434V97.5H458.134V100.74H468.894V101.82H463.254V105.06H470.534V106.16ZM487.353 100.98C484.779 101.313 481.566 101.48 477.713 101.48L477.513 100.3H479.813L479.273 94.78L480.553 94.6L480.973 100.28L483.633 100.22L484.153 94.56L485.433 94.72L484.813 100.18C485.813 100.113 486.619 100.033 487.233 99.94L487.353 100.98ZM487.153 95.42V94.32H490.273V90.92H491.553V103.62H490.273V98.94H487.153V97.84H490.273V95.42H487.153ZM491.913 107.78H480.373V102.62H481.653V106.7H491.913V107.78ZM487.013 93.56H477.953V92.48H487.013V93.56ZM505.877 103.56C503.144 103.947 499.737 104.14 495.657 104.14V97.58H502.337V93.66H495.577V92.56H503.617V98.66H496.937V103.04C500.564 103.067 503.491 102.867 505.717 102.44L505.877 103.56ZM508.837 108.4H507.557V90.92H508.837V108.4ZM528.002 98.14H525.282V103.7H524.002V90.92H525.282V97.06H528.002V98.14ZM526.042 107.78H514.462V103.4H515.742V106.7H526.042V107.78ZM519.342 92.84H514.362V91.74H519.342V92.84ZM521.882 95.38H511.862V94.28H521.882V95.38ZM520.862 99.38C520.862 100.287 520.482 101.02 519.722 101.58C518.975 102.14 518.022 102.42 516.862 102.42C515.702 102.42 514.742 102.147 513.982 101.6C513.235 101.04 512.862 100.3 512.862 99.38C512.862 98.4467 513.235 97.7133 513.982 97.18C514.729 96.6333 515.689 96.36 516.862 96.36C518.035 96.36 518.995 96.6333 519.742 97.18C520.489 97.7133 520.862 98.4467 520.862 99.38ZM519.602 99.38C519.602 98.78 519.335 98.3067 518.802 97.96C518.269 97.6133 517.622 97.44 516.862 97.44C516.089 97.44 515.435 97.6133 514.902 97.96C514.382 98.3067 514.122 98.78 514.122 99.38C514.122 99.9667 514.382 100.44 514.902 100.8C515.435 101.147 516.089 101.32 516.862 101.32C517.622 101.32 518.269 101.147 518.802 100.8C519.335 100.44 519.602 99.9667 519.602 99.38ZM545.921 107.48H544.641V101.32H541.601V100.24H544.641V96.9H541.921V95.82H544.641V91.36H545.921V107.48ZM549.201 108.4H547.921V90.92H549.201V108.4ZM541.681 93.14C541.601 95.6733 541.021 97.86 539.941 99.7C538.874 101.527 537.307 103.12 535.241 104.48L534.361 103.48C536.161 102.453 537.581 101.12 538.621 99.48C539.661 97.8267 540.221 96.08 540.301 94.24H535.101V93.14H541.681ZM556.425 91.92C557.639 91.92 558.665 92.2933 559.505 93.04C560.359 93.7867 560.785 94.7667 560.785 95.98C560.785 97.1933 560.359 98.18 559.505 98.94C558.665 99.6867 557.639 100.06 556.425 100.06C555.199 100.06 554.165 99.6867 553.325 98.94C552.485 98.1933 552.065 97.2133 552.065 96C552.065 94.7867 552.485 93.8067 553.325 93.06C554.165 92.3 555.199 91.92 556.425 91.92ZM556.425 93.02C555.532 93.02 554.799 93.3 554.225 93.86C553.652 94.4067 553.365 95.1133 553.365 95.98C553.365 96.8467 553.652 97.56 554.225 98.12C554.812 98.68 555.545 98.96 556.425 98.96C557.345 98.96 558.085 98.6867 558.645 98.14C559.205 97.5933 559.485 96.88 559.485 96C559.485 95.12 559.205 94.4067 558.645 93.86C558.085 93.3 557.345 93.02 556.425 93.02ZM567.865 97.42V98.52H565.145V101.3H563.865V90.92H565.145V93.66H567.865V94.76H565.145V97.42H567.865ZM565.165 108.4H563.865V103.24H553.965V102.14H565.165V108.4ZM583.41 108.4H582.13V90.92H583.41V108.4ZM579.65 103.1L578.81 104.12C577.89 103.48 576.997 102.66 576.13 101.66C575.263 100.647 574.663 99.6267 574.33 98.6C574.023 99.68 573.47 100.74 572.67 101.78C571.883 102.807 570.943 103.74 569.85 104.58L568.97 103.58C570.25 102.793 571.35 101.673 572.27 100.22C573.203 98.7667 573.67 97.3133 573.67 95.86V92.56H574.99V95.84C574.99 97.32 575.45 98.7267 576.37 100.06C577.29 101.38 578.383 102.393 579.65 103.1ZM601.495 99.96L600.775 101C599.295 100.52 597.921 99.76 596.655 98.72C595.388 97.6667 594.588 96.7067 594.255 95.84C593.975 96.72 593.215 97.68 591.975 98.72C590.735 99.76 589.341 100.507 587.795 100.96L587.095 99.92C588.068 99.72 589.048 99.3133 590.035 98.7C591.035 98.0867 591.881 97.3267 592.575 96.42C593.268 95.5133 593.615 94.62 593.615 93.74V92.5H594.935V93.74C594.935 95.0333 595.655 96.3067 597.095 97.56C598.535 98.8 600.001 99.6 601.495 99.96ZM602.175 105.96H586.395V104.88H602.175V105.96ZM618.419 108.14H607.059V102.08H618.419V108.14ZM617.139 107.06V103.16H608.339V107.06H617.139ZM610.259 95.52V96.56H605.879V99.16C608.279 99.2 610.319 99.04 611.999 98.68L612.179 99.8C609.926 100.213 607.399 100.38 604.599 100.3V92.14H611.099V93.24H605.879V95.52H610.259ZM613.859 96.3H611.239V95.22H613.859V91.24H615.119V100.94H613.859V96.3ZM618.399 101.14H617.119V90.92H618.399V101.14ZM636.784 99.7H621.004V98.66H636.784V99.7ZM635.324 108.1H622.964V104.24H633.364V102.48H622.904V101.4H634.644V105.26H624.244V107.04H635.324V108.1ZM634.844 94.38C634.844 95.38 634.324 96.1267 633.284 96.62C632.244 97.1133 630.784 97.36 628.904 97.36C627.051 97.36 625.597 97.1133 624.544 96.62C623.504 96.1133 622.984 95.3667 622.984 94.38C622.984 93.3933 623.504 92.6533 624.544 92.16C625.597 91.6533 627.051 91.4 628.904 91.4C630.784 91.4 632.244 91.6533 633.284 92.16C634.324 92.6533 634.844 93.3933 634.844 94.38ZM632.304 92.94C631.464 92.6067 630.331 92.44 628.904 92.44C627.477 92.44 626.351 92.6067 625.524 92.94C624.711 93.2733 624.304 93.7533 624.304 94.38C624.304 95.0067 624.711 95.4867 625.524 95.82C626.351 96.14 627.477 96.3 628.904 96.3C630.331 96.3 631.464 96.14 632.304 95.82C633.144 95.4867 633.564 95.0067 633.564 94.38C633.564 93.7533 633.144 93.2733 632.304 92.94ZM657.783 108.4H656.503V90.92H657.783V108.4ZM644.383 98.42C644.383 96.54 644.756 95.0533 645.503 93.96C646.249 92.8533 647.296 92.3 648.643 92.3C650.003 92.3 651.056 92.8533 651.803 93.96C652.549 95.0533 652.923 96.5467 652.923 98.44C652.923 100.32 652.549 101.813 651.803 102.92C651.056 104.027 650.003 104.58 648.643 104.58C647.296 104.58 646.249 104.027 645.503 102.92C644.756 101.813 644.383 100.313 644.383 98.42ZM650.843 102.04C651.403 101.107 651.683 99.9067 651.683 98.44C651.683 96.9733 651.403 95.7733 650.843 94.84C650.283 93.9067 649.549 93.44 648.643 93.44C647.736 93.44 647.009 93.9067 646.463 94.84C645.916 95.76 645.643 96.96 645.643 98.44C645.643 99.9067 645.916 101.107 646.463 102.04C647.009 102.96 647.736 103.42 648.643 103.42C649.549 103.42 650.283 102.96 650.843 102.04ZM674.687 94.52C674.687 95.76 673.954 96.64 672.487 97.16V99.98H676.647V101.08H660.867V99.98H664.987V97.14C663.521 96.62 662.787 95.7467 662.787 94.52C662.787 93.4933 663.307 92.7133 664.347 92.18C665.401 91.6333 666.867 91.36 668.747 91.36C670.627 91.36 672.087 91.6333 673.127 92.18C674.167 92.7133 674.687 93.4933 674.687 94.52ZM674.767 105.24C674.767 106.227 674.234 106.98 673.167 107.5C672.101 108.033 670.627 108.3 668.747 108.3C666.867 108.3 665.401 108.033 664.347 107.5C663.294 106.98 662.767 106.227 662.767 105.24C662.767 104.267 663.294 103.52 664.347 103C665.401 102.467 666.867 102.2 668.747 102.2C670.627 102.2 672.101 102.467 673.167 103C674.234 103.52 674.767 104.267 674.767 105.24ZM672.167 96.08C672.994 95.7333 673.407 95.2133 673.407 94.52C673.407 93.8267 672.994 93.3067 672.167 92.96C671.341 92.6133 670.201 92.44 668.747 92.44C667.307 92.44 666.174 92.6133 665.347 92.96C664.534 93.3067 664.127 93.8267 664.127 94.52C664.127 95.2133 664.534 95.7333 665.347 96.08C666.174 96.4267 667.307 96.6 668.747 96.6C670.201 96.6 671.341 96.4267 672.167 96.08ZM668.747 103.28C667.307 103.28 666.167 103.447 665.327 103.78C664.501 104.1 664.087 104.587 664.087 105.24C664.087 105.893 664.501 106.387 665.327 106.72C666.167 107.053 667.307 107.22 668.747 107.22C670.214 107.22 671.361 107.06 672.187 106.74C673.014 106.407 673.427 105.907 673.427 105.24C673.427 104.587 673.007 104.1 672.167 103.78C671.341 103.447 670.201 103.28 668.747 103.28ZM668.747 97.7C667.867 97.7 667.041 97.6267 666.267 97.48V99.98H671.207V97.5C670.501 97.6333 669.681 97.7 668.747 97.7ZM694.252 96.84H691.552V100.86H690.272V90.92H691.552V95.76H694.252V96.84ZM692.232 108.28H680.672V104.4H690.272V102.82H680.612V101.78H691.552V105.44H681.952V107.22H692.232V108.28ZM685.592 92.36H680.612V91.22H685.592V92.36ZM688.172 94.64H678.112V93.56H688.172V94.64ZM685.992 96.08C686.739 96.5333 687.112 97.18 687.112 98.02C687.112 98.86 686.745 99.5067 686.012 99.96C685.279 100.413 684.305 100.64 683.092 100.64C681.932 100.64 680.979 100.413 680.232 99.96C679.485 99.5067 679.112 98.86 679.112 98.02C679.112 97.18 679.479 96.5333 680.212 96.08C680.959 95.6267 681.919 95.4 683.092 95.4C684.279 95.4 685.245 95.6267 685.992 96.08ZM685.832 98.02C685.832 97.5133 685.572 97.1333 685.052 96.88C684.532 96.6133 683.879 96.48 683.092 96.48C682.305 96.48 681.659 96.6133 681.152 96.88C680.645 97.1333 680.392 97.5133 680.392 98.02C680.392 98.5133 680.652 98.9 681.172 99.18C681.692 99.4467 682.332 99.58 683.092 99.58C683.865 99.58 684.512 99.4467 685.032 99.18C685.565 98.9 685.832 98.5133 685.832 98.02ZM709.231 108.42H707.951V101.96H700.731V100.86H716.511V101.96H709.231V108.42ZM715.711 97.72L715.011 98.78C713.664 98.4867 712.371 97.94 711.131 97.14C709.904 96.3267 709.064 95.4467 708.611 94.5C708.184 95.4467 707.351 96.3333 706.111 97.16C704.884 97.9867 703.597 98.54 702.251 98.82L701.551 97.76C703.231 97.5333 704.717 96.92 706.011 95.92C707.304 94.9067 707.951 93.84 707.951 92.72V91.7H709.271V92.72C709.271 93.8133 709.964 94.88 711.351 95.92C712.751 96.96 714.204 97.56 715.711 97.72ZM737.529 101.08H736.249V90.92H737.529V101.08ZM725.029 93.1C725.883 92.3533 726.929 91.98 728.169 91.98C729.409 91.98 730.456 92.3533 731.309 93.1C732.176 93.8333 732.609 94.7933 732.609 95.98C732.609 97.1667 732.176 98.1333 731.309 98.88C730.456 99.6267 729.409 100 728.169 100C726.929 100 725.883 99.6333 725.029 98.9C724.176 98.1533 723.749 97.1867 723.749 96C723.749 94.8133 724.176 93.8467 725.029 93.1ZM728.169 93.08C727.276 93.08 726.529 93.3533 725.929 93.9C725.343 94.4333 725.049 95.1267 725.049 95.98C725.049 96.8333 725.349 97.5333 725.949 98.08C726.549 98.6267 727.289 98.9 728.169 98.9C729.103 98.9 729.856 98.6333 730.429 98.1C731.003 97.5667 731.289 96.8667 731.289 96C731.289 95.1333 731.003 94.4333 730.429 93.9C729.856 93.3533 729.103 93.08 728.169 93.08ZM738.349 108.42H738.329C737.676 108.087 737.016 107.587 736.349 106.92C735.696 106.24 735.256 105.587 735.029 104.96C734.803 105.64 734.356 106.333 733.689 107.04C733.023 107.747 732.329 108.28 731.609 108.64L730.809 107.78C731.796 107.3 732.636 106.613 733.329 105.72C734.036 104.813 734.389 103.867 734.389 102.88V101.68H735.669V102.78C735.669 103.793 736.029 104.753 736.749 105.66C737.469 106.567 738.269 107.187 739.149 107.52L738.349 108.42ZM731.829 106.32L730.909 107.22C730.403 106.94 729.929 106.58 729.489 106.14C729.049 105.687 728.723 105.2 728.509 104.68C728.309 105.347 727.863 106.053 727.169 106.8C726.489 107.533 725.763 108.087 724.989 108.46L724.229 107.54C725.163 107.153 725.996 106.507 726.729 105.6C727.463 104.693 727.829 103.74 727.829 102.74V101.7H729.109V102.6C729.109 103.507 729.369 104.28 729.889 104.92C730.409 105.56 731.056 106.027 731.829 106.32ZM755.414 96.46L754.794 97.48C753.447 97.2133 752.161 96.6867 750.934 95.9C749.707 95.1133 748.887 94.2867 748.474 93.42C748.114 94.2733 747.314 95.0933 746.074 95.88C744.834 96.6667 743.534 97.2 742.174 97.48L741.554 96.46C742.474 96.3533 743.407 96.08 744.354 95.64C745.314 95.2 746.127 94.62 746.794 93.9C747.474 93.18 747.814 92.4467 747.814 91.7V91.14H749.134V91.7C749.134 92.4467 749.474 93.18 750.154 93.9C750.834 94.62 751.647 95.2 752.594 95.64C753.554 96.08 754.494 96.3533 755.414 96.46ZM756.374 100.1H740.594V99H756.374V100.1ZM754.254 108.16H742.734V101.54H744.014V103.7H752.974V101.54H754.254V108.16ZM752.974 107.08V104.8H744.014V107.08H752.974ZM771.959 108.4H770.679V90.92H771.959V108.4ZM769.079 103.12C767.919 103.373 766.365 103.587 764.419 103.76C762.485 103.92 760.692 104 759.039 104V92.72H760.319V102.86C761.492 102.86 762.959 102.78 764.719 102.62C766.479 102.46 767.872 102.267 768.899 102.04L769.079 103.12ZM791.483 99.04H788.563V108.4H787.283V90.92H788.563V97.96H791.483V99.04ZM785.843 103.4C782.99 103.92 779.71 104.12 776.003 104V92.74H784.143V93.84H777.283V102.86C778.55 102.927 780.017 102.907 781.683 102.8C783.363 102.68 784.69 102.513 785.663 102.3L785.843 103.4ZM792.608 106.56V104.88H794.268V106.56H792.608Z" fill="black"/>
</svg>
