<svg width="1072" height="110" viewBox="0 0 1072 110" fill="none" xmlns="http://www.w3.org/2000/svg">
<path d="M21.728 32.96H19.348V20.08H16.352V31.756H14V9.02H16.352V18.036H19.348V8.488H21.728V32.96ZM12.656 25.624C10.752 26.072 7.98933 26.3333 4.368 26.408H2.016V11.204H4.508V24.308C7.98 24.308 10.5747 24.0653 12.292 23.58C12.3667 23.9533 12.488 24.6347 12.656 25.624ZM52.19 9.412C52.2274 12.212 51.938 15.04 51.322 17.896H54.738V19.912H44.91V23.888H51.938V32.624H35.446V23.888H42.418V19.912H32.646V17.896H39.198C39.7954 15.768 40.094 13.612 40.094 11.428H34.802V9.412H42.614C42.614 12.3427 42.2967 15.1707 41.662 17.896H48.914C49.4367 15.712 49.698 13.556 49.698 11.428H44.574V9.412H52.19ZM49.446 30.664V25.876H37.938V30.664H49.446ZM78.9646 22.964H56.8726V20.948H78.9646V22.964ZM76.3326 32.232H59.7286V25.12H62.1926V30.244H76.3326V32.232ZM74.2046 10.532C75.7166 11.372 76.4726 12.548 76.4726 14.06C76.4726 15.572 75.7073 16.7573 74.1766 17.616C72.6646 18.4747 70.5739 18.904 67.9046 18.904C65.2353 18.904 63.1446 18.4747 61.6326 17.616C60.1393 16.7573 59.3926 15.572 59.3926 14.06C59.3926 12.548 60.1393 11.372 61.6326 10.532C63.1446 9.67333 65.2353 9.244 67.9046 9.244C70.5926 9.244 72.6926 9.67333 74.2046 10.532ZM67.9046 11.26C66.1126 11.26 64.6846 11.512 63.6206 12.016C62.5753 12.52 62.0526 13.2013 62.0526 14.06C62.0526 14.9187 62.5753 15.6 63.6206 16.104C64.6846 16.608 66.1126 16.86 67.9046 16.86C69.7153 16.86 71.1619 16.608 72.2446 16.104C73.3273 15.6 73.8686 14.9187 73.8686 14.06C73.8686 13.2013 73.3273 12.52 72.2446 12.016C71.1619 11.512 69.7153 11.26 67.9046 11.26ZM23.156 66.852H1.064V64.836H10.808V60.972H3.724V53.104H17.948V49.52H3.668V47.504H20.412V55.12H6.188V58.956H21.084V60.972H13.3V64.836H23.156V66.852ZM47.3826 66.852H25.2906V64.836H35.0346V60.384H37.5266V64.836H47.3826V66.852ZM45.8426 58.984H36.8266V47.672H45.5906V49.716H39.3186V56.968H45.8426V58.984ZM35.9026 58.34C33.9052 58.788 30.9186 59.012 26.9426 59.012V47.7H35.3706V49.716H29.4066V56.856C32.1132 56.856 34.1572 56.66 35.5386 56.268L35.9026 58.34ZM60.5406 66.936V50.472L57.1246 51.228V49.8L61.6606 47.7H63.0046V66.936H60.5406ZM89.2458 59.208H67.1538V57.192H89.2458V59.208ZM86.6418 65.536C86.6418 66.9173 85.9045 67.9907 84.4298 68.756C82.9552 69.54 80.8738 69.932 78.1858 69.932C75.5165 69.932 73.4445 69.54 71.9698 68.756C70.4952 67.9907 69.7578 66.9173 69.7578 65.536C69.7578 64.1733 70.4952 63.1 71.9698 62.316C73.4632 61.532 75.5352 61.14 78.1858 61.14C80.8738 61.14 82.9552 61.5227 84.4298 62.288C85.9045 63.0533 86.6418 64.136 86.6418 65.536ZM78.1858 63.156C76.3752 63.156 74.9378 63.3707 73.8738 63.8C72.8285 64.2107 72.3058 64.7893 72.3058 65.536C72.3058 66.3013 72.8285 66.8893 73.8738 67.3C74.9192 67.7107 76.3565 67.916 78.1858 67.916C80.0338 67.916 81.4805 67.7107 82.5258 67.3C83.5898 66.8893 84.1218 66.3013 84.1218 65.536C84.1218 64.7893 83.5898 64.2107 82.5258 63.8C81.4618 63.3707 80.0152 63.156 78.1858 63.156ZM86.5578 54.756H69.8138V46.524H86.3898V48.54H72.2778V52.74H86.5578V54.756Z" fill="black"/>
<path d="M252.651 29.3991H236.871V28.2991H252.651V29.3991ZM250.291 16.5791C250.291 18.2858 250.218 20.1458 250.071 22.1591C249.925 24.1725 249.711 25.7125 249.431 26.7791L248.151 26.5991C248.391 25.8125 248.591 24.4258 248.751 22.4391C248.925 20.4525 248.985 18.8591 248.931 17.6591H238.511V16.5791H250.291ZM275.51 19.4191H272.79V23.3591H271.51V14.5391H272.79V18.3191H275.51V19.4191ZM273.47 31.8991H261.83V27.5791H271.51V25.5991H261.73V24.4991H272.79V28.5791H263.11V30.7991H273.47V31.8991ZM269.79 21.6791C268.67 21.9058 267.19 22.0991 265.35 22.2591C263.523 22.4058 261.783 22.4791 260.13 22.4791V15.4791H261.41V21.3391C264.917 21.2858 267.643 21.0258 269.59 20.5591L269.79 21.6791ZM288.069 25.2391H286.789V22.0791C285.375 22.1591 283.869 22.2058 282.269 22.2191L282.009 21.0591C282.409 21.0591 282.969 21.0591 283.689 21.0591C284.409 21.0458 284.935 21.0391 285.269 21.0391C285.615 19.4658 285.789 18.0791 285.789 16.8791H283.229V15.8191H287.089C287.089 17.3658 286.909 19.0925 286.549 20.9991L287.729 20.9391C289.289 20.8725 290.162 20.8325 290.349 20.8191C290.642 19.5525 290.789 18.2391 290.789 16.8791H288.169V15.8191H292.089C292.089 17.2591 291.922 18.8925 291.589 20.7191L293.229 20.5591L293.349 21.5991C291.602 21.8125 289.842 21.9525 288.069 22.0191V25.2391ZM296.229 25.6791H294.949V24.0991H291.029V23.0791H294.949V14.5391H296.229V25.6791ZM296.849 32.1791C296.169 31.8325 295.515 31.3858 294.889 30.8391C294.275 30.3058 293.835 29.7458 293.569 29.1591C293.275 29.7991 292.822 30.4058 292.209 30.9791C291.609 31.5525 290.942 32.0258 290.209 32.3991L289.369 31.5191C290.422 31.0258 291.282 30.4125 291.949 29.6791C292.615 28.9325 292.949 28.0725 292.949 27.0991V26.1591H294.209V26.9791C294.209 27.9791 294.555 28.8591 295.249 29.6191C295.942 30.3658 296.749 30.9125 297.669 31.2591L296.849 32.1791ZM289.609 30.9391C288.462 30.4858 287.635 29.8191 287.129 28.9391C286.595 30.2191 285.455 31.2925 283.709 32.1591L282.929 31.2591C283.915 30.8458 284.749 30.2725 285.429 29.5391C286.122 28.7925 286.469 27.9325 286.469 26.9591V26.1791H287.709V26.8191C287.709 27.6991 287.982 28.3991 288.529 28.9191C289.075 29.4258 289.715 29.7658 290.449 29.9391L289.609 30.9391ZM309.573 24.0991C306.947 24.5525 303.82 24.7791 300.193 24.7791V16.1991H308.293V17.2791H301.473V23.6191C304.647 23.6191 307.28 23.3925 309.373 22.9391L309.573 24.0991ZM313.533 27.2991H312.253V20.5191H307.113V19.4391H312.253V14.5391H313.533V27.2991ZM314.073 31.3991H302.433V26.1391H303.693V30.3191H314.073V31.3991ZM335.772 15.2791C335.812 17.2258 335.598 19.2458 335.132 21.3391H337.632V22.4391H330.352V25.6591H335.632V31.7591H323.872V25.6591H329.072V22.4391H321.852V21.3391H326.912C327.352 19.6991 327.572 18.0391 327.572 16.3591H323.472V15.2791H328.912C328.912 17.3058 328.678 19.3258 328.212 21.3391H333.852C334.238 19.7925 334.432 18.1325 334.432 16.3591H330.532V15.2791H335.772ZM334.352 30.6791V26.7391H325.152V30.6791H334.352ZM354.936 23.3191H339.156V22.2791H354.936V23.3191ZM353.476 31.7191H341.116V27.8591H351.516V26.0991H341.056V25.0191H352.796V28.8791H342.396V30.6591H353.476V31.7191ZM352.996 17.9991C352.996 18.9991 352.476 19.7458 351.436 20.2391C350.396 20.7325 348.936 20.9791 347.056 20.9791C345.203 20.9791 343.75 20.7325 342.696 20.2391C341.656 19.7325 341.136 18.9858 341.136 17.9991C341.136 17.0125 341.656 16.2725 342.696 15.7791C343.75 15.2725 345.203 15.0191 347.056 15.0191C348.936 15.0191 350.396 15.2725 351.436 15.7791C352.476 16.2725 352.996 17.0125 352.996 17.9991ZM350.456 16.5591C349.616 16.2258 348.483 16.0591 347.056 16.0591C345.63 16.0591 344.503 16.2258 343.676 16.5591C342.863 16.8925 342.456 17.3725 342.456 17.9991C342.456 18.6258 342.863 19.1058 343.676 19.4391C344.503 19.7591 345.63 19.9191 347.056 19.9191C348.483 19.9191 349.616 19.7591 350.456 19.4391C351.296 19.1058 351.716 18.6258 351.716 17.9991C351.716 17.3725 351.296 16.8925 350.456 16.5591ZM375.955 23.8991H374.675V14.5391H375.955V23.8991ZM375.975 31.7791H364.755V24.8791H366.035V27.2591H374.695V24.8791H375.975V31.7791ZM374.695 30.7191V28.3191H366.035V30.7191H374.695ZM366.635 15.4191C367.848 15.4191 368.875 15.7858 369.715 16.5191C370.568 17.2525 370.995 18.2058 370.995 19.3791C370.995 20.5525 370.568 21.5058 369.715 22.2391C368.875 22.9725 367.848 23.3391 366.635 23.3391C365.408 23.3391 364.375 22.9791 363.535 22.2591C362.695 21.5258 362.275 20.5725 362.275 19.3991C362.275 18.2125 362.695 17.2525 363.535 16.5191C364.375 15.7858 365.408 15.4191 366.635 15.4191ZM366.635 16.5791C365.742 16.5791 365.002 16.8391 364.415 17.3591C363.842 17.8658 363.555 18.5391 363.555 19.3791C363.555 20.2058 363.848 20.8858 364.435 21.4191C365.022 21.9391 365.755 22.1991 366.635 22.1991C367.555 22.1991 368.295 21.9391 368.855 21.4191C369.415 20.8991 369.695 20.2258 369.695 19.3991C369.695 18.5591 369.415 17.8791 368.855 17.3591C368.295 16.8391 367.555 16.5791 366.635 16.5791ZM388.46 24.0391C386.713 24.3191 383.8 24.4458 379.72 24.4191V19.2991H386.04V16.6591H379.7V15.5791H387.32V20.3991H381V23.2991C384.053 23.3791 386.5 23.2658 388.34 22.9591L388.46 24.0391ZM388.6 18.3191V17.2791H391.98V14.5391H393.26V25.3591H391.98V22.0591H388.6V21.0191H391.98V18.3191H388.6ZM381.48 26.2991H393.26V32.1591H391.98V27.3791H381.48V26.2991ZM412.604 23.0791H409.684V32.0191H408.404V14.5391H409.684V21.9791H412.604V23.0791ZM403.844 16.9591H398.784V15.8191H403.844V16.9591ZM406.484 19.8591H396.264V18.7791H406.484V19.8591ZM405.544 24.6991C405.544 25.7125 405.171 26.5591 404.424 27.2391C403.678 27.9058 402.711 28.2391 401.524 28.2391C400.338 28.2391 399.364 27.9058 398.604 27.2391C397.858 26.5591 397.484 25.7125 397.484 24.6991C397.484 23.6725 397.858 22.8191 398.604 22.1391C399.351 21.4591 400.324 21.1191 401.524 21.1191C402.711 21.1191 403.678 21.4591 404.424 22.1391C405.171 22.8191 405.544 23.6725 405.544 24.6991ZM403.484 26.4791C404.004 26.0125 404.264 25.4191 404.264 24.6991C404.264 23.9791 404.004 23.3858 403.484 22.9191C402.964 22.4525 402.311 22.2191 401.524 22.2191C400.738 22.2191 400.084 22.4525 399.564 22.9191C399.044 23.3858 398.784 23.9791 398.784 24.6991C398.784 25.4191 399.044 26.0125 399.564 26.4791C400.084 26.9458 400.738 27.1791 401.524 27.1791C402.311 27.1791 402.964 26.9458 403.484 26.4791ZM422.989 18.7191V17.6191H426.589V14.5391H427.869V27.2391H426.589V22.5991H422.989V21.4991H426.589V18.7191H422.989ZM428.249 31.3991H416.689V26.0591H417.969V30.3191H428.249V31.3991ZM422.249 24.0991H414.529V16.1591H422.249V24.0991ZM420.969 22.9991V17.2591H415.809V22.9991H420.969ZM451.968 29.3991H436.188V28.2991H451.968V29.3991ZM449.608 16.5791C449.608 18.2858 449.534 20.1458 449.388 22.1591C449.241 24.1725 449.028 25.7125 448.748 26.7791L447.468 26.5991C447.708 25.8125 447.908 24.4258 448.068 22.4391C448.241 20.4525 448.301 18.8591 448.248 17.6591H437.828V16.5791H449.608ZM457.572 16.1591C458.679 16.1591 459.546 16.6391 460.172 17.5991C460.812 18.5458 461.166 19.8525 461.232 21.5191H463.532V14.8791H464.812V31.1591H463.532V22.5991H461.232C461.166 24.2525 460.812 25.5525 460.172 26.4991C459.532 27.4325 458.666 27.8991 457.572 27.8991C456.399 27.8991 455.486 27.3791 454.832 26.3391C454.192 25.2858 453.872 23.8458 453.872 22.0191C453.872 20.1925 454.192 18.7591 454.832 17.7191C455.486 16.6791 456.399 16.1591 457.572 16.1591ZM459.312 25.5191C459.739 24.6658 459.952 23.4991 459.952 22.0191C459.952 20.5391 459.739 19.3791 459.312 18.5391C458.886 17.6991 458.306 17.2791 457.572 17.2791C456.826 17.2791 456.239 17.6991 455.812 18.5391C455.386 19.3791 455.172 20.5391 455.172 22.0191C455.172 23.4991 455.386 24.6658 455.812 25.5191C456.239 26.3591 456.826 26.7791 457.572 26.7791C458.306 26.7791 458.886 26.3591 459.312 25.5191ZM468.212 32.0191H466.932V14.5391H468.212V32.0191ZM490.771 32.0191H489.491V22.9991H487.071V31.0991H485.811V14.9791H487.071V21.9191H489.491V14.5391H490.771V32.0191ZM483.211 22.0591C483.878 22.6725 484.211 23.4791 484.211 24.4791C484.211 25.4791 483.878 26.2858 483.211 26.8991C482.544 27.5125 481.671 27.8191 480.591 27.8191C479.538 27.8191 478.671 27.5058 477.991 26.8791C477.324 26.2391 476.991 25.4391 476.991 24.4791C476.991 23.4658 477.324 22.6525 477.991 22.0391C478.658 21.4258 479.524 21.1191 480.591 21.1191C481.671 21.1191 482.544 21.4325 483.211 22.0591ZM482.971 24.4791C482.971 23.7991 482.744 23.2525 482.291 22.8391C481.851 22.4258 481.284 22.2191 480.591 22.2191C479.898 22.2191 479.324 22.4325 478.871 22.8591C478.431 23.2725 478.211 23.8125 478.211 24.4791C478.211 25.1591 478.431 25.7058 478.871 26.1191C479.324 26.5325 479.898 26.7391 480.591 26.7391C481.284 26.7391 481.851 26.5258 482.291 26.0991C482.744 25.6725 482.971 25.1325 482.971 24.4791ZM484.831 19.8791H476.071V18.7991H484.831V19.8791ZM482.851 17.1191H478.211V15.9991H482.851V17.1191ZM509.436 20.3191H506.716V25.0791H505.436V14.5391H506.716V19.2191H509.436V20.3191ZM505.436 26.2991C506.422 26.8858 506.916 27.6725 506.916 28.6591C506.916 29.6458 506.422 30.4325 505.436 31.0191C504.449 31.6191 503.029 31.9191 501.176 31.9191C499.322 31.9191 497.909 31.6258 496.936 31.0391C495.962 30.4525 495.476 29.6591 495.476 28.6591C495.476 27.6458 495.962 26.8525 496.936 26.2791C497.909 25.6925 499.322 25.3991 501.176 25.3991C503.029 25.3991 504.449 25.6991 505.436 26.2991ZM501.176 26.4791C499.816 26.4791 498.742 26.6791 497.956 27.0791C497.182 27.4791 496.796 28.0058 496.796 28.6591C496.796 29.3258 497.182 29.8525 497.956 30.2391C498.729 30.6258 499.802 30.8191 501.176 30.8191C502.549 30.8191 503.629 30.6258 504.416 30.2391C505.202 29.8525 505.596 29.3258 505.596 28.6591C505.596 27.9925 505.202 27.4658 504.416 27.0791C503.629 26.6791 502.549 26.4791 501.176 26.4791ZM503.376 22.9791C500.776 23.4458 497.669 23.6325 494.056 23.5391V15.9991H501.776V17.0791H495.336V22.4591C496.656 22.4991 498.049 22.4658 499.516 22.3591C500.982 22.2525 502.202 22.0991 503.176 21.8991L503.376 22.9791ZM526.94 23.0791H524.02V32.0191H522.74V14.5391H524.02V21.9791H526.94V23.0791ZM518.18 16.9591H513.12V15.8191H518.18V16.9591ZM520.82 19.8591H510.6V18.7791H520.82V19.8591ZM519.88 24.6991C519.88 25.7125 519.507 26.5591 518.76 27.2391C518.014 27.9058 517.047 28.2391 515.86 28.2391C514.674 28.2391 513.7 27.9058 512.94 27.2391C512.194 26.5591 511.82 25.7125 511.82 24.6991C511.82 23.6725 512.194 22.8191 512.94 22.1391C513.687 21.4591 514.66 21.1191 515.86 21.1191C517.047 21.1191 518.014 21.4591 518.76 22.1391C519.507 22.8191 519.88 23.6725 519.88 24.6991ZM517.82 26.4791C518.34 26.0125 518.6 25.4191 518.6 24.6991C518.6 23.9791 518.34 23.3858 517.82 22.9191C517.3 22.4525 516.647 22.2191 515.86 22.2191C515.074 22.2191 514.42 22.4525 513.9 22.9191C513.38 23.3858 513.12 23.9791 513.12 24.6991C513.12 25.4191 513.38 26.0125 513.9 26.4791C514.42 26.9458 515.074 27.1791 515.86 27.1791C516.647 27.1791 517.3 26.9458 517.82 26.4791ZM543.745 24.7791H527.965V23.6791H543.745V24.7791ZM541.905 31.5791H530.165V26.4991H531.425V30.4791H541.905V31.5791ZM541.845 21.1991H530.185V15.1391H531.445V20.0991H541.845V21.1991ZM566.304 29.7791H550.524V28.6791H557.744V25.4391H552.624V20.0391H562.924V17.0791H552.624V15.9991H564.204V21.1191H553.904V24.3591H564.664V25.4391H559.024V28.6791H566.304V29.7791ZM583.608 29.7791H567.828V28.6791H575.048V25.0191H576.328V28.6791H583.608V29.7791ZM582.248 24.0191H576.068V16.3191H582.028V17.3991H577.348V22.9191H582.248V24.0191ZM575.348 23.5591C573.842 23.8925 571.822 24.0591 569.288 24.0591V16.3391H574.968V17.4391H570.568V22.8991C572.502 22.8991 574.042 22.7391 575.188 22.4191L575.348 23.5591ZM593.773 24.4791H586.033V15.7591H587.313V18.9991H592.493V15.7591H593.773V24.4791ZM592.493 23.3991V20.0991H587.313V23.3991H592.493ZM598.093 20.7391H594.853V19.6591H598.093V14.5391H599.373V27.2991H598.093V20.7391ZM599.833 31.3991H588.173V26.1391H589.453V30.3191H599.833V31.3991ZM615.698 23.3591C615.698 24.2525 615.278 24.9458 614.438 25.4391C613.611 25.9325 612.451 26.2125 610.958 26.2791V28.7991H618.218V29.8791H602.438V28.7991H609.678V26.2791C608.211 26.2125 607.064 25.9325 606.238 25.4391C605.411 24.9325 604.998 24.2391 604.998 23.3591C604.998 22.3991 605.471 21.6658 606.418 21.1591C607.378 20.6525 608.684 20.3991 610.338 20.3991C612.018 20.3991 613.331 20.6525 614.278 21.1591C615.224 21.6658 615.698 22.3991 615.698 23.3591ZM614.358 23.3591C614.358 22.7325 613.971 22.2658 613.198 21.9591C612.424 21.6391 611.471 21.4791 610.338 21.4791C609.218 21.4791 608.271 21.6391 607.498 21.9591C606.724 22.2658 606.338 22.7325 606.338 23.3591C606.338 23.9725 606.724 24.4391 607.498 24.7591C608.271 25.0658 609.218 25.2191 610.338 25.2191C611.471 25.2191 612.424 25.0658 613.198 24.7591C613.971 24.4391 614.358 23.9725 614.358 23.3591ZM617.238 19.3591H603.418V18.2591H617.238V19.3591ZM613.478 16.6191H607.158V15.4791H613.478V16.6191ZM635.522 23.8391H619.742V22.8191H635.522V23.8391ZM634.122 31.6391H621.722V27.8991H632.242V26.3991H621.682V25.3791H633.522V28.8791H623.002V30.5391H634.122V31.6391ZM633.722 21.2391H621.862V17.6991H632.142V16.1991H621.842V15.1391H633.422V18.7191H623.142V20.1991H633.722V21.2391ZM657.241 22.8391L656.641 23.8791C655.134 23.5991 653.774 23.1058 652.561 22.3991C651.361 21.6925 650.568 20.9391 650.181 20.1391C649.834 20.9658 649.068 21.7458 647.881 22.4791C646.694 23.1991 645.328 23.6858 643.781 23.9391L643.201 22.8991C644.721 22.7258 646.121 22.2525 647.401 21.4791C648.681 20.6925 649.388 19.7725 649.521 18.7191H643.941V17.6391H656.421V18.7191H650.881C650.974 19.4258 651.374 20.0925 652.081 20.7191C652.788 21.3325 653.594 21.8125 654.501 22.1591C655.421 22.5058 656.334 22.7325 657.241 22.8391ZM650.801 32.0391H649.521V26.3391H642.301V25.2391H658.081V26.3391H650.801V32.0391ZM653.041 16.0391H647.341V14.9591H653.041V16.0391ZM673.946 31.6991H661.646V27.9791H672.026V26.4191H661.606V25.3591H666.826V23.8191H659.606V22.7191H675.386V23.8191H668.106V25.3591H673.306V28.9991H662.926V30.6391H673.946V31.6991ZM674.486 20.8391L673.886 21.9191C672.312 21.6791 670.952 21.2991 669.806 20.7791C668.659 20.2458 667.886 19.6458 667.486 18.9791C667.166 19.6591 666.419 20.2591 665.246 20.7791C664.086 21.2991 662.726 21.6858 661.166 21.9391L660.566 20.8791C661.886 20.7991 663.172 20.4991 664.426 19.9791C665.692 19.4591 666.466 18.8525 666.746 18.1591H661.386V17.0591H673.606V18.1591H668.246C668.539 18.8258 669.326 19.4125 670.606 19.9191C671.886 20.4258 673.179 20.7325 674.486 20.8391ZM670.266 15.8591H664.726V14.7791H670.266V15.8591ZM693.19 23.0791H690.27V32.0191H688.99V14.5391H690.27V21.9791H693.19V23.0791ZM684.43 16.9591H679.37V15.8191H684.43V16.9591ZM687.07 19.8591H676.85V18.7791H687.07V19.8591ZM686.13 24.6991C686.13 25.7125 685.757 26.5591 685.01 27.2391C684.264 27.9058 683.297 28.2391 682.11 28.2391C680.924 28.2391 679.95 27.9058 679.19 27.2391C678.444 26.5591 678.07 25.7125 678.07 24.6991C678.07 23.6725 678.444 22.8191 679.19 22.1391C679.937 21.4591 680.91 21.1191 682.11 21.1191C683.297 21.1191 684.264 21.4591 685.01 22.1391C685.757 22.8191 686.13 23.6725 686.13 24.6991ZM684.07 26.4791C684.59 26.0125 684.85 25.4191 684.85 24.6991C684.85 23.9791 684.59 23.3858 684.07 22.9191C683.55 22.4525 682.897 22.2191 682.11 22.2191C681.324 22.2191 680.67 22.4525 680.15 22.9191C679.63 23.3858 679.37 23.9791 679.37 24.6991C679.37 25.4191 679.63 26.0125 680.15 26.4791C680.67 26.9458 681.324 27.1791 682.11 27.1791C682.897 27.1791 683.55 26.9458 684.07 26.4791ZM709.995 24.7791H694.215V23.6791H709.995V24.7791ZM708.155 31.5791H696.415V26.4991H697.675V30.4791H708.155V31.5791ZM708.095 21.1991H696.435V15.1391H697.695V20.0991H708.095V21.1991ZM731.014 32.0191H729.734V21.9791H725.594V20.8991H729.734V14.5391H731.014V32.0191ZM727.194 26.7191L726.374 27.6991C725.48 27.0991 724.62 26.2925 723.794 25.2791C722.967 24.2658 722.38 23.2325 722.034 22.1791C721.727 23.2725 721.18 24.3391 720.394 25.3791C719.62 26.4058 718.694 27.3325 717.614 28.1591L716.734 27.1991C718.014 26.4258 719.107 25.3125 720.014 23.8591C720.92 22.3925 721.374 20.9325 721.374 19.4791V16.0591H722.694V19.4591C722.694 20.9391 723.134 22.3458 724.014 23.6791C724.894 25.0125 725.954 26.0258 727.194 26.7191ZM748.298 32.0191H747.018V14.5391H748.298V32.0191ZM743.238 27.5791H735.178V16.1191H736.458V20.5591H741.958V16.1191H743.238V27.5791ZM741.958 26.4791V21.6591H736.458V26.4791H741.958ZM766.483 23.5791L765.763 24.6191C764.283 24.1391 762.91 23.3791 761.643 22.3391C760.376 21.2858 759.576 20.3258 759.243 19.4591C758.963 20.3391 758.203 21.2991 756.963 22.3391C755.723 23.3791 754.33 24.1258 752.783 24.5791L752.083 23.5391C753.056 23.3391 754.036 22.9325 755.023 22.3191C756.023 21.7058 756.87 20.9458 757.563 20.0391C758.256 19.1325 758.603 18.2391 758.603 17.3591V16.1191H759.923V17.3591C759.923 18.6525 760.643 19.9258 762.083 21.1791C763.523 22.4191 764.99 23.2191 766.483 23.5791ZM767.163 29.5791H751.383V28.4991H767.163V29.5791ZM782.928 23.8991H781.648V14.5391H782.928V23.8991ZM782.948 31.7791H771.728V24.8791H773.008V27.2591H781.668V24.8791H782.948V31.7791ZM781.668 30.7191V28.3191H773.008V30.7191H781.668ZM773.608 15.4191C774.821 15.4191 775.848 15.7858 776.688 16.5191C777.541 17.2525 777.968 18.2058 777.968 19.3791C777.968 20.5525 777.541 21.5058 776.688 22.2391C775.848 22.9725 774.821 23.3391 773.608 23.3391C772.381 23.3391 771.348 22.9791 770.508 22.2591C769.668 21.5258 769.248 20.5725 769.248 19.3991C769.248 18.2125 769.668 17.2525 770.508 16.5191C771.348 15.7858 772.381 15.4191 773.608 15.4191ZM773.608 16.5791C772.714 16.5791 771.974 16.8391 771.388 17.3591C770.814 17.8658 770.528 18.5391 770.528 19.3791C770.528 20.2058 770.821 20.8858 771.408 21.4191C771.994 21.9391 772.728 22.1991 773.608 22.1991C774.528 22.1991 775.268 21.9391 775.828 21.4191C776.388 20.8991 776.668 20.2258 776.668 19.3991C776.668 18.5591 776.388 17.8791 775.828 17.3591C775.268 16.8391 774.528 16.5791 773.608 16.5791ZM800.052 32.0191H798.772V14.5391H800.052V32.0191ZM797.172 26.7391C796.012 26.9925 794.459 27.2058 792.512 27.3791C790.579 27.5391 788.786 27.6191 787.132 27.6191V16.3391H788.412V26.4791C789.586 26.4791 791.052 26.3991 792.812 26.2391C794.572 26.0791 795.966 25.8858 796.992 25.6591L797.172 26.7391ZM819.577 22.6591H816.657V32.0191H815.377V14.5391H816.657V21.5791H819.577V22.6591ZM813.937 27.0191C811.084 27.5391 807.804 27.7391 804.097 27.6191V16.3591H812.237V17.4591H805.377V26.4791C806.644 26.5458 808.11 26.5258 809.777 26.4191C811.457 26.2991 812.784 26.1325 813.757 25.9191L813.937 27.0191ZM820.702 30.1791V28.4991H822.362V30.1791H820.702ZM253.151 61.0391H250.251V70.0191H248.971V52.5391H250.251V59.9591H253.151V61.0391ZM247.891 65.5991C246.225 65.8391 244.305 66.0125 242.131 66.1191C240.718 66.1991 238.931 66.2391 236.771 66.2391L236.551 65.0791C238.765 65.0791 240.085 65.0725 240.511 65.0591V59.4991H241.791V65.0191C244.031 64.9658 246.031 64.7991 247.791 64.5191L247.891 65.5991ZM246.491 54.5591C246.505 55.7858 246.451 57.1525 246.331 58.6591C246.225 60.1525 246.078 61.3591 245.891 62.2791L244.651 62.1591C244.771 61.4658 244.885 60.4525 244.991 59.1191C245.098 57.7725 245.151 56.6125 245.151 55.6391H237.511V54.5591H246.491ZM258.856 53.8391C260.096 53.8391 261.149 54.2391 262.016 55.0391C262.883 55.8258 263.316 56.8458 263.316 58.0991C263.316 59.3658 262.883 60.3991 262.016 61.1991C261.149 61.9858 260.096 62.3791 258.856 62.3791C257.603 62.3791 256.543 61.9858 255.676 61.1991C254.809 60.4125 254.376 59.3858 254.376 58.1191C254.376 56.8525 254.809 55.8258 255.676 55.0391C256.543 54.2391 257.603 53.8391 258.856 53.8391ZM258.856 54.9391C257.923 54.9391 257.149 55.2325 256.536 55.8191C255.923 56.4058 255.616 57.1658 255.616 58.0991C255.616 59.0325 255.923 59.7991 256.536 60.3991C257.149 60.9858 257.923 61.2791 258.856 61.2791C259.816 61.2791 260.589 60.9925 261.176 60.4191C261.776 59.8325 262.076 59.0658 262.076 58.1191C262.076 57.1725 261.776 56.4058 261.176 55.8191C260.589 55.2325 259.816 54.9391 258.856 54.9391ZM267.136 56.1591H263.756V55.0991H267.136V52.5391H268.416V65.2391H267.136V60.5591H263.756V59.4991H267.136V56.1591ZM268.776 69.3991H257.236V64.1391H258.516V68.3191H268.776V69.3991ZM290.715 58.3791C290.715 59.6858 290.215 60.7525 289.215 61.5791C288.228 62.3925 286.901 62.8458 285.235 62.9391V66.5791H292.515V67.6791H276.735V66.5791H283.955V62.9391C282.301 62.8458 280.981 62.3925 279.995 61.5791C279.008 60.7525 278.515 59.6858 278.515 58.3791C278.515 56.9791 279.068 55.8591 280.175 55.0191C281.295 54.1791 282.768 53.7591 284.595 53.7591C286.448 53.7591 287.928 54.1791 289.035 55.0191C290.155 55.8591 290.715 56.9791 290.715 58.3791ZM289.455 58.3791C289.455 57.3391 289.008 56.4991 288.115 55.8591C287.235 55.2191 286.061 54.8991 284.595 54.8991C283.155 54.8991 281.988 55.2191 281.095 55.8591C280.215 56.4991 279.775 57.3391 279.775 58.3791C279.775 59.4058 280.215 60.2391 281.095 60.8791C281.988 61.5191 283.155 61.8391 284.595 61.8391C286.048 61.8391 287.221 61.5191 288.115 60.8791C289.008 60.2391 289.455 59.4058 289.455 58.3791ZM309.819 61.0191H294.039V59.9591H309.819V61.0191ZM308.379 69.7791H296.239V65.5991H306.419V63.7591H296.099V62.6991H307.699V66.6391H297.499V68.7191H308.379V69.7791ZM307.919 58.1591H296.259V52.9391H297.519V57.0991H307.919V58.1591ZM332.678 58.3191H329.958V63.0791H328.678V52.5391H329.958V57.2191H332.678V58.3191ZM328.678 64.2991C329.665 64.8858 330.158 65.6725 330.158 66.6591C330.158 67.6458 329.665 68.4325 328.678 69.0191C327.691 69.6191 326.271 69.9191 324.418 69.9191C322.565 69.9191 321.151 69.6258 320.178 69.0391C319.205 68.4525 318.718 67.6591 318.718 66.6591C318.718 65.6458 319.205 64.8525 320.178 64.2791C321.151 63.6925 322.565 63.3991 324.418 63.3991C326.271 63.3991 327.691 63.6991 328.678 64.2991ZM324.418 64.4791C323.058 64.4791 321.985 64.6791 321.198 65.0791C320.425 65.4791 320.038 66.0058 320.038 66.6591C320.038 67.3258 320.425 67.8525 321.198 68.2391C321.971 68.6258 323.045 68.8191 324.418 68.8191C325.791 68.8191 326.871 68.6258 327.658 68.2391C328.445 67.8525 328.838 67.3258 328.838 66.6591C328.838 65.9925 328.445 65.4658 327.658 65.0791C326.871 64.6791 325.791 64.4791 324.418 64.4791ZM326.618 60.9791C324.018 61.4458 320.911 61.6325 317.298 61.5391V53.9991H325.018V55.0791H318.578V60.4591C319.898 60.4991 321.291 60.4658 322.758 60.3591C324.225 60.2525 325.445 60.0991 326.418 59.8991L326.618 60.9791ZM348.143 65.2391H346.863V52.5391H348.143V65.2391ZM344.263 61.2791L343.543 62.3191C342.543 61.8658 341.649 61.2591 340.863 60.4991C340.076 59.7391 339.509 58.8991 339.163 57.9791C338.896 58.8991 338.349 59.8125 337.523 60.7191C336.709 61.6258 335.789 62.3591 334.763 62.9191L333.963 61.9191C335.203 61.3458 336.263 60.4858 337.143 59.3391C338.036 58.1925 338.483 56.9458 338.483 55.5991V53.5391H339.763V55.5791C339.763 56.9525 340.209 58.1325 341.103 59.1191C341.996 60.1058 343.049 60.8258 344.263 61.2791ZM348.523 69.4591H336.983V64.1591H338.263V68.3791H348.523V69.4591ZM364.167 52.5391H365.447V70.0191H364.167V52.5391ZM361.327 58.0791C361.327 59.2391 360.887 60.1925 360.007 60.9391C359.127 61.6858 358.054 62.0591 356.787 62.0591C355.507 62.0591 354.427 61.6791 353.547 60.9191C352.667 60.1458 352.227 59.1991 352.227 58.0791C352.227 56.8925 352.667 55.9191 353.547 55.1591C354.427 54.3991 355.507 54.0191 356.787 54.0191C358.094 54.0191 359.174 54.3925 360.027 55.1391C360.894 55.8725 361.327 56.8525 361.327 58.0791ZM360.027 58.0791C360.027 57.1858 359.714 56.4725 359.087 55.9391C358.474 55.4058 357.707 55.1391 356.787 55.1391C355.881 55.1391 355.107 55.4191 354.467 55.9791C353.841 56.5258 353.527 57.2258 353.527 58.0791C353.527 58.9058 353.841 59.5925 354.467 60.1391C355.094 60.6725 355.867 60.9391 356.787 60.9391C357.681 60.9391 358.441 60.6725 359.067 60.1391C359.707 59.5925 360.027 58.9058 360.027 58.0791ZM363.067 65.5391C361.774 65.6858 359.747 65.8325 356.987 65.9791C355.027 66.0725 353.221 66.1325 351.567 66.1591L351.347 64.9791C353.134 65.0058 354.994 64.9658 356.927 64.8591C359.887 64.7391 361.894 64.6058 362.947 64.4591L363.067 65.5391ZM387.686 53.2791C387.726 55.2258 387.513 57.2458 387.046 59.3391H389.546V60.4391H382.266V63.6591H387.546V69.7591H375.786V63.6591H380.986V60.4391H373.766V59.3391H378.826C379.266 57.6991 379.486 56.0391 379.486 54.3591H375.386V53.2791H380.826C380.826 55.3058 380.593 57.3258 380.126 59.3391H385.766C386.153 57.7925 386.346 56.1325 386.346 54.3591H382.446V53.2791H387.686ZM386.266 68.6791V64.7391H377.066V68.6791H386.266ZM406.851 62.7191H391.071V61.6191H406.851V62.7191ZM404.931 69.4391H393.171V64.4191H394.451V68.3591H404.931V69.4391ZM403.331 53.9991C404.357 54.5458 404.871 55.3658 404.871 56.4591C404.871 57.5525 404.357 58.3791 403.331 58.9391C402.304 59.4858 400.844 59.7591 398.951 59.7591C397.071 59.7591 395.617 59.4858 394.591 58.9391C393.564 58.3791 393.051 57.5525 393.051 56.4591C393.051 55.3658 393.564 54.5458 394.591 53.9991C395.631 53.4391 397.091 53.1591 398.971 53.1591C400.851 53.1591 402.304 53.4391 403.331 53.9991ZM398.971 54.2391C397.544 54.2391 396.417 54.4258 395.591 54.7991C394.777 55.1725 394.371 55.7258 394.371 56.4591C394.371 57.1791 394.777 57.7325 395.591 58.1191C396.404 58.4925 397.524 58.6791 398.951 58.6791C400.391 58.6791 401.524 58.4925 402.351 58.1191C403.191 57.7325 403.611 57.1791 403.611 56.4591C403.611 55.7258 403.197 55.1725 402.371 54.7991C401.544 54.4258 400.411 54.2391 398.971 54.2391ZM415.049 64.4191C414.302 63.3125 413.929 61.8191 413.929 59.9391C413.929 58.0591 414.302 56.5725 415.049 55.4791C415.796 54.3725 416.842 53.8191 418.189 53.8191C419.456 53.8191 420.456 54.3125 421.189 55.2991C421.936 56.2725 422.349 57.6191 422.429 59.3391H426.589V52.5391H427.869V70.0191H426.589V60.4391H422.429C422.362 62.1858 421.962 63.5591 421.229 64.5591C420.496 65.5591 419.482 66.0591 418.189 66.0591C416.842 66.0591 415.796 65.5125 415.049 64.4191ZM421.209 59.9591C421.209 58.4925 420.929 57.2925 420.369 56.3591C419.822 55.4258 419.096 54.9591 418.189 54.9591C417.282 54.9591 416.556 55.4258 416.009 56.3591C415.462 57.2791 415.189 58.4791 415.189 59.9591C415.189 61.4125 415.462 62.6058 416.009 63.5391C416.556 64.4725 417.282 64.9391 418.189 64.9391C419.096 64.9391 419.822 64.4725 420.369 63.5391C420.929 62.6058 421.209 61.4125 421.209 59.9591ZM445.374 65.2991H444.094V58.4391H440.794V57.3591H444.094V52.5391H445.374V65.2991ZM442.674 61.7591C441.314 62.0791 439.394 62.2391 436.914 62.2391V54.0591H441.674V55.1591H438.174V61.1191C439.88 61.1191 441.32 60.9725 442.494 60.6791L442.674 61.7591ZM445.714 69.3991H434.074V64.0391H435.334V68.3191H445.714V69.3991ZM436.354 61.7391C435.194 62.0325 433.594 62.1791 431.554 62.1791V54.0591H435.774V55.1591H432.834V61.0591C434.127 61.0591 435.24 60.9258 436.174 60.6591L436.354 61.7391ZM468.272 66.9391C468.272 67.8325 467.752 68.5258 466.712 69.0191C465.686 69.5258 464.239 69.7791 462.372 69.7791C460.506 69.7791 459.052 69.5258 458.012 69.0191C456.972 68.5258 456.452 67.8325 456.452 66.9391C456.452 66.0591 456.972 65.3725 458.012 64.8791C459.066 64.3725 460.519 64.1191 462.372 64.1191C464.226 64.1191 465.672 64.3725 466.712 64.8791C467.752 65.3725 468.272 66.0591 468.272 66.9391ZM461.652 60.4991C461.652 61.2991 461.299 61.9325 460.592 62.3991C459.899 62.8658 459.026 63.0991 457.972 63.0991C456.919 63.0991 456.039 62.8658 455.332 62.3991C454.639 61.9325 454.292 61.2991 454.292 60.4991C454.292 59.6858 454.639 59.0458 455.332 58.5791C456.039 58.0991 456.919 57.8591 457.972 57.8591C459.026 57.8591 459.899 58.0991 460.592 58.5791C461.299 59.0458 461.652 59.6858 461.652 60.4991ZM468.192 63.9991H466.912V58.7591H464.532V63.3391H463.272V52.8591H464.532V57.6791H466.912V52.5391H468.192V63.9991ZM465.712 65.6791C464.886 65.3458 463.772 65.1791 462.372 65.1791C460.972 65.1791 459.852 65.3458 459.012 65.6791C458.186 65.9991 457.772 66.4191 457.772 66.9391C457.772 67.4858 458.186 67.9258 459.012 68.2591C459.839 68.5791 460.959 68.7391 462.372 68.7391C463.772 68.7391 464.886 68.5791 465.712 68.2591C466.552 67.9258 466.972 67.4858 466.972 66.9391C466.972 66.4191 466.552 65.9991 465.712 65.6791ZM460.372 60.4991C460.372 60.0591 460.139 59.7058 459.672 59.4391C459.206 59.1591 458.639 59.0191 457.972 59.0191C457.292 59.0191 456.719 59.1525 456.252 59.4191C455.799 59.6858 455.572 60.0458 455.572 60.4991C455.572 60.9525 455.799 61.3125 456.252 61.5791C456.719 61.8458 457.292 61.9791 457.972 61.9791C458.652 61.9791 459.219 61.8458 459.672 61.5791C460.139 61.3125 460.372 60.9525 460.372 60.4991ZM462.252 56.9391H453.472V55.8591H462.252V56.9391ZM460.172 54.4391H455.772V53.3191H460.172V54.4391ZM483.057 54.0391C484.097 54.5991 484.617 55.4258 484.617 56.5191C484.617 57.6125 484.097 58.4391 483.057 58.9991C482.017 59.5591 480.55 59.8391 478.657 59.8391C476.777 59.8391 475.324 59.5591 474.297 58.9991C473.27 58.4391 472.757 57.6125 472.757 56.5191C472.757 55.4258 473.27 54.5991 474.297 54.0391C475.337 53.4791 476.797 53.1991 478.677 53.1991C480.57 53.1991 482.03 53.4791 483.057 54.0391ZM478.677 54.3191C477.237 54.3191 476.11 54.5058 475.297 54.8791C474.484 55.2391 474.077 55.7858 474.077 56.5191C474.077 57.2525 474.477 57.8058 475.277 58.1791C476.09 58.5525 477.217 58.7391 478.657 58.7391C480.11 58.7391 481.25 58.5525 482.077 58.1791C482.917 57.8058 483.337 57.2525 483.337 56.5191C483.337 55.7858 482.924 55.2391 482.097 54.8791C481.27 54.5058 480.13 54.3191 478.677 54.3191ZM479.357 66.2591H478.077V62.6591H470.797V61.5591H486.577V62.6591H479.357V66.2591ZM484.637 69.4191H472.897V64.6191H474.177V68.3391H484.637V69.4191ZM501.062 52.5391H502.342V70.0191H501.062V52.5391ZM498.222 58.0791C498.222 59.2391 497.782 60.1925 496.902 60.9391C496.022 61.6858 494.948 62.0591 493.682 62.0591C492.402 62.0591 491.322 61.6791 490.442 60.9191C489.562 60.1458 489.122 59.1991 489.122 58.0791C489.122 56.8925 489.562 55.9191 490.442 55.1591C491.322 54.3991 492.402 54.0191 493.682 54.0191C494.988 54.0191 496.068 54.3925 496.922 55.1391C497.788 55.8725 498.222 56.8525 498.222 58.0791ZM496.922 58.0791C496.922 57.1858 496.608 56.4725 495.982 55.9391C495.368 55.4058 494.602 55.1391 493.682 55.1391C492.775 55.1391 492.002 55.4191 491.362 55.9791C490.735 56.5258 490.422 57.2258 490.422 58.0791C490.422 58.9058 490.735 59.5925 491.362 60.1391C491.988 60.6725 492.762 60.9391 493.682 60.9391C494.575 60.9391 495.335 60.6725 495.962 60.1391C496.602 59.5925 496.922 58.9058 496.922 58.0791ZM499.962 65.5391C498.668 65.6858 496.642 65.8325 493.882 65.9791C491.922 66.0725 490.115 66.1325 488.462 66.1591L488.242 64.9791C490.028 65.0058 491.888 64.9658 493.822 64.8591C496.782 64.7391 498.788 64.6058 499.842 64.4591L499.962 65.5391ZM519.3 62.4791H511.56V53.7591H512.84V56.9991H518.02V53.7591H519.3V62.4791ZM518.02 61.3991V58.0991H512.84V61.3991H518.02ZM523.62 58.7391H520.38V57.6591H523.62V52.5391H524.9V65.2991H523.62V58.7391ZM525.36 69.3991H513.7V64.1391H514.98V68.3191H525.36V69.3991ZM541.225 61.3591C541.225 62.2525 540.805 62.9458 539.965 63.4391C539.138 63.9325 537.978 64.2125 536.485 64.2791V66.7991H543.745V67.8791H527.965V66.7991H535.205V64.2791C533.738 64.2125 532.592 63.9325 531.765 63.4391C530.938 62.9325 530.525 62.2391 530.525 61.3591C530.525 60.3991 530.998 59.6658 531.945 59.1591C532.905 58.6525 534.212 58.3991 535.865 58.3991C537.545 58.3991 538.858 58.6525 539.805 59.1591C540.752 59.6658 541.225 60.3991 541.225 61.3591ZM539.885 61.3591C539.885 60.7325 539.498 60.2658 538.725 59.9591C537.952 59.6391 536.998 59.4791 535.865 59.4791C534.745 59.4791 533.798 59.6391 533.025 59.9591C532.252 60.2658 531.865 60.7325 531.865 61.3591C531.865 61.9725 532.252 62.4391 533.025 62.7591C533.798 63.0658 534.745 63.2191 535.865 63.2191C536.998 63.2191 537.952 63.0658 538.725 62.7591C539.498 62.4391 539.885 61.9725 539.885 61.3591ZM542.765 57.3591H528.945V56.2591H542.765V57.3591ZM539.005 54.6191H532.685V53.4791H539.005V54.6191ZM561.05 61.8391H545.27V60.8191H561.05V61.8391ZM559.65 69.6391H547.25V65.8991H557.77V64.3991H547.21V63.3791H559.05V66.8791H548.53V68.5391H559.65V69.6391ZM559.25 59.2391H547.39V55.6991H557.67V54.1991H547.37V53.1391H558.95V56.7191H548.67V58.1991H559.25V59.2391ZM581.188 52.5391V59.9991H584.148V61.0991H581.188V70.0191H579.908V52.5391H581.188ZM576.588 54.4391C576.535 57.1725 575.802 59.5391 574.388 61.5391C572.975 63.5391 571.108 65.1658 568.788 66.4191L568.008 65.3991C570.208 64.3058 571.922 62.9058 573.148 61.1991C574.388 59.4791 575.088 57.5925 575.248 55.5391H568.588V54.4391H576.588ZM595.893 64.6591L595.053 65.6191C594.093 64.9658 593.18 64.1525 592.313 63.1791C591.446 62.2058 590.866 61.2191 590.573 60.2191C590.28 61.3258 589.726 62.3991 588.913 63.4391C588.1 64.4658 587.16 65.3591 586.093 66.1191L585.253 65.1391C586.56 64.3391 587.66 63.2525 588.553 61.8791C589.446 60.4925 589.893 59.0391 589.893 57.5191V55.4791H585.773V54.3791H595.413V55.4791H591.213V57.4791C591.213 58.9591 591.673 60.3591 592.593 61.6791C593.526 62.9991 594.626 63.9925 595.893 64.6591ZM598.093 52.5391H599.373V70.0191H598.093V52.5391ZM618.218 67.3991H602.438V66.2991H608.678V60.1391H609.958V66.2991H618.218V67.3991ZM615.998 54.4391V56.7791C615.998 59.7125 615.771 62.1525 615.318 64.0991L614.058 63.8791C614.458 62.3058 614.658 60.1658 614.658 57.4591V55.5391H604.078V54.4391H615.998ZM638.836 55.9191C638.836 57.7725 637.056 58.7658 633.496 58.8991V60.3791H640.776V61.4591H624.996V60.3791H632.216V58.8791C630.563 58.8125 629.276 58.5325 628.356 58.0391C627.436 57.5458 626.976 56.8391 626.976 55.9191C626.976 54.9325 627.496 54.1925 628.536 53.6991C629.59 53.1925 631.043 52.9391 632.896 52.9391C634.776 52.9391 636.236 53.1925 637.276 53.6991C638.316 54.1925 638.836 54.9325 638.836 55.9191ZM639.396 69.7191H627.036V65.8191H637.436V64.1791H626.976V63.0991H638.716V66.8591H628.316V68.6591H639.396V69.7191ZM636.276 54.5191C635.436 54.1858 634.31 54.0191 632.896 54.0191C631.483 54.0191 630.363 54.1858 629.536 54.5191C628.71 54.8525 628.296 55.3191 628.296 55.9191C628.296 56.5191 628.71 56.9858 629.536 57.3191C630.363 57.6391 631.483 57.7991 632.896 57.7991C634.323 57.7991 635.456 57.6391 636.296 57.3191C637.136 56.9858 637.556 56.5191 637.556 55.9191C637.556 55.3191 637.13 54.8525 636.276 54.5191ZM655.981 52.5391V59.9191H658.701V60.9991H655.981V70.0191H654.701V52.5391H655.981ZM647.321 54.4791C647.321 56.5591 646.948 58.6125 646.201 60.6391C645.468 62.6525 644.381 64.4125 642.941 65.9191L641.841 65.1591C643.068 64.0525 644.054 62.5658 644.801 60.6991C645.561 58.8191 645.961 57.1125 646.001 55.5791H642.661V54.4791H647.321ZM652.101 54.4791C652.074 59.5858 650.694 63.7725 647.961 67.0391L646.841 66.3191C647.761 65.4125 648.534 64.2125 649.161 62.7191C649.801 61.2258 650.228 59.8858 650.441 58.6991C650.668 57.5125 650.781 56.4725 650.781 55.5791H648.101V54.4791H652.101ZM671.906 54.9991C673.026 55.8125 673.586 56.8925 673.586 58.2391C673.586 59.5858 673.026 60.6658 671.906 61.4791C670.786 62.2925 669.306 62.6991 667.466 62.6991C665.639 62.6991 664.166 62.2925 663.046 61.4791C661.939 60.6658 661.386 59.5858 661.386 58.2391C661.386 56.8925 661.939 55.8125 663.046 54.9991C664.166 54.1725 665.639 53.7591 667.466 53.7591C669.319 53.7591 670.799 54.1725 671.906 54.9991ZM670.986 60.6791C671.879 60.0658 672.326 59.2525 672.326 58.2391C672.326 57.2258 671.879 56.4191 670.986 55.8191C670.106 55.2058 668.932 54.8991 667.466 54.8991C666.012 54.8991 664.846 55.2058 663.966 55.8191C663.086 56.4191 662.646 57.2258 662.646 58.2391C662.646 59.2525 663.086 60.0658 663.966 60.6791C664.846 61.2791 666.012 61.5791 667.466 61.5791C668.932 61.5791 670.106 61.2791 670.986 60.6791ZM675.386 67.7791H659.606V66.6791H663.646V63.1191H664.926V66.6791H670.026V63.1191H671.306V66.6791H675.386V67.7791ZM679.17 64.9791V63.5591C679.17 63.3991 679.177 63.2525 679.19 63.1191C679.217 62.9725 679.237 62.8458 679.25 62.7391C679.277 62.6191 679.324 62.4991 679.39 62.3791C679.457 62.2458 679.504 62.1391 679.53 62.0591C679.57 61.9791 679.644 61.8725 679.75 61.7391C679.857 61.6058 679.93 61.5125 679.97 61.4591C680.01 61.4058 680.104 61.3125 680.25 61.1791C680.41 61.0325 680.51 60.9391 680.55 60.8991C680.604 60.8458 680.724 60.7391 680.91 60.5791C681.097 60.4058 681.217 60.2925 681.27 60.2391C681.817 59.7325 682.204 59.2858 682.43 58.8991C682.67 58.4991 682.79 57.9925 682.79 57.3791C682.79 55.7925 681.87 54.9991 680.03 54.9991C679.124 54.9991 678.19 55.2125 677.23 55.6391L676.99 54.5591C678.004 54.0525 679.117 53.7991 680.33 53.7991C681.464 53.7991 682.39 54.0991 683.11 54.6991C683.83 55.2991 684.19 56.1791 684.19 57.3391C684.19 57.8991 684.097 58.3991 683.91 58.8391C683.737 59.2658 683.517 59.6258 683.25 59.9191C682.984 60.2125 682.577 60.5991 682.03 61.0791C681.59 61.4658 681.29 61.7458 681.13 61.9191C680.97 62.0791 680.81 62.3191 680.65 62.6391C680.49 62.9458 680.41 63.2858 680.41 63.6591V64.9791H679.17ZM679.11 68.1191V66.4991H680.55V68.1191H679.11Z" fill="black"/>
</svg>
