<svg width="1920" height="674" viewBox="0 0 1920 674" fill="none" xmlns="http://www.w3.org/2000/svg">
<rect width="1920" height="674" fill="#2933D1"/>
<g opacity="0.5">
<circle cx="1377.63" cy="498.382" r="44.9697" fill="#E04369"/>
<path d="M1361.8 516.113V487.349L1355.94 488.522V484.85L1364.81 480.872H1368.13V516.113H1361.8ZM1384.65 516.419C1380.64 516.419 1377.32 515.62 1374.71 514.022L1375.83 509.228C1378.17 510.622 1380.59 511.319 1383.07 511.319C1385.52 511.319 1387.42 510.758 1388.78 509.636C1390.18 508.48 1390.87 506.848 1390.87 504.74C1390.87 500.558 1388.36 498.467 1383.33 498.467C1381.12 498.467 1378.75 499.096 1376.24 500.354L1377.51 481.127H1395.77V486.023H1382.31L1381.64 494.54C1383.21 494.132 1384.67 493.928 1386.03 493.928C1389.6 493.928 1392.37 494.846 1394.34 496.682C1396.35 498.518 1397.35 501.255 1397.35 504.893C1397.35 508.225 1396.19 510.979 1393.88 513.155C1391.6 515.331 1388.53 516.419 1384.65 516.419Z" fill="white"/>
<circle cx="1249.14" cy="400.734" r="44.9697" fill="#F5C606"/>
<path d="M1239.53 424.294L1256.03 385.75H1235.51V379.348H1264.81V384.166L1248.51 424.294H1239.53Z" fill="white"/>
<circle cx="1105.24" cy="354.479" r="73.2364" fill="#505050"/>
<path d="M1080.64 381.551C1077.54 381.551 1074.51 381.182 1071.56 380.445C1068.66 379.708 1066.4 378.812 1064.77 377.759L1066.35 370.728C1067.71 371.571 1069.64 372.308 1072.11 372.94C1074.64 373.519 1076.93 373.809 1078.99 373.809C1082.67 373.809 1085.52 373.045 1087.52 371.518C1089.52 369.991 1090.52 367.726 1090.52 364.724C1090.52 359.352 1086.78 356.613 1079.3 356.508L1073.69 356.35V349.319L1078.67 349.24C1081.83 349.135 1084.36 348.397 1086.25 347.028C1088.15 345.606 1089.1 343.657 1089.1 341.182C1089.1 336.231 1085.88 333.756 1079.46 333.756C1075.88 333.756 1072.03 334.704 1067.93 336.6L1066.82 329.411C1068.5 328.463 1070.8 327.673 1073.69 327.041C1076.59 326.356 1079.35 326.014 1081.99 326.014C1087.1 326.014 1091.18 327.199 1094.23 329.569C1097.29 331.886 1098.81 335.178 1098.81 339.444C1098.81 345.606 1095.58 349.819 1089.1 352.084C1096.79 353.611 1100.63 358.035 1100.63 365.356C1100.63 370.359 1098.84 374.309 1095.26 377.206C1091.68 380.103 1086.81 381.551 1080.64 381.551ZM1128.05 381.709C1121.58 381.709 1116.63 379.602 1113.2 375.389C1109.83 371.123 1108.15 365.224 1108.15 357.693V353.822C1108.15 344.289 1110.28 337.285 1114.55 332.808C1118.81 328.331 1124.42 326.093 1131.37 326.093C1136.38 326.093 1140.59 327.094 1144.01 329.095L1142.12 336.205C1141.01 335.626 1139.46 335.099 1137.46 334.625C1135.45 334.098 1133.61 333.835 1131.93 333.835C1127.61 333.835 1124.26 335.178 1121.89 337.864C1119.52 340.497 1118.15 345.106 1117.78 351.689C1121.47 348.529 1125.68 346.949 1130.42 346.949C1135.22 346.949 1139.09 348.397 1142.04 351.294C1145.04 354.138 1146.54 358.088 1146.54 363.144C1146.54 368.516 1144.91 372.966 1141.64 376.495C1138.38 379.971 1133.85 381.709 1128.05 381.709ZM1127.82 374.52C1130.71 374.52 1132.98 373.598 1134.61 371.755C1136.3 369.859 1137.14 367.226 1137.14 363.855C1137.14 357.219 1133.95 353.901 1127.58 353.901C1125.74 353.901 1123.92 354.428 1122.13 355.481C1120.34 356.534 1118.92 357.772 1117.86 359.194V359.668C1117.86 369.569 1121.18 374.52 1127.82 374.52Z" fill="white"/>
<circle cx="1292.83" cy="588.322" r="57.8182" fill="#BBF430"/>
<path d="M1275.7 607.08V598.12H1255.54V593.512L1277.74 562.472H1283.12V592.296H1289.58V598.12H1283.12V607.08H1275.7ZM1264.11 592.296H1275.76V575.784L1264.11 592.296ZM1313.26 607.08V598.12H1293.1V593.512L1315.31 562.472H1320.68V592.296H1327.15V598.12H1320.68V607.08H1313.26ZM1301.67 592.296H1313.32V575.784L1301.67 592.296Z" fill="white"/>
<circle cx="1367.35" cy="305.655" r="88.6546" fill="#34C2FF"/>
<path d="M1333 340.189V282.097L1321.15 284.466V277.05L1339.07 269.016H1345.77V340.189H1333ZM1388.82 341.013C1380.58 341.013 1373.95 338.232 1368.94 332.67C1363.93 327.039 1361.42 318.525 1361.42 307.126V302.697C1361.42 296.586 1362.14 291.264 1363.59 286.732C1365.1 282.2 1367.16 278.629 1369.77 276.02C1372.38 273.411 1375.26 271.488 1378.42 270.252C1381.65 269.016 1385.15 268.398 1388.92 268.398C1396.96 268.398 1403.48 271.145 1408.49 276.638C1413.58 282.131 1416.12 290.715 1416.12 302.388V306.817C1416.12 318.49 1413.58 327.108 1408.49 332.67C1403.41 338.232 1396.86 341.013 1388.82 341.013ZM1388.82 331.331C1393.63 331.331 1397.2 329.477 1399.53 325.769C1401.87 321.992 1403.04 315.95 1403.04 307.641V302.388C1403.04 286.251 1398.33 278.183 1388.92 278.183C1384.05 278.183 1380.44 280.071 1378.11 283.848C1375.77 287.556 1374.61 293.496 1374.61 301.667V307.126C1374.61 323.263 1379.35 331.331 1388.82 331.331Z" fill="white"/>
</g>
</svg>
